  0
SECTION
  2
HEADER
  9
$ACADVER
  1
AC1015
  9
$ACADMAINTVER
 70
     6
  9
$DWGCODEPAGE
  3
ANSI_936
  9
$INSBASE
 10
0.0
 20
0.0
 30
0.0
  9
$EXTMIN
 10
69.0560289534
 20
-10.0
 30
0.0
  9
$EXTMAX
 10
187.3164905827
 20
10.7607148818
 30
0.0
  9
$LIMMIN
 10
0.0
 20
0.0
  9
$LIMMAX
 10
420.0
 20
297.0
  9
$ORTHOMODE
 70
     0
  9
$REGENMODE
 70
     1
  9
$FILLMODE
 70
     1
  9
$QTEXTMODE
 70
     0
  9
$MIRRTEXT
 70
     1
  9
$LTSCALE
 40
1.0
  9
$ATTMODE
 70
     1
  9
$TEXTSIZE
 40
3.5
  9
$TRACEWID
 40
1.0
  9
$TEXTSTYLE
  7
Standard
  9
$CLAYER
  8
0
  9
$CELTYPE
  6
ByLayer
  9
$CECOLOR
 62
   256
  9
$CELTSCALE
 40
1.0
  9
$DISPSILH
 70
     0
  9
$DIMSCALE
 40
1.0
  9
$DIMASZ
 40
3.556
  9
$DIMEXO
 40
0.0
  9
$DIMDLI
 40
3.75
  9
$DIMRND
 40
0.0
  9
$DIMDLE
 40
0.0
  9
$DIMEXE
 40
1.0
  9
$DIMTP
 40
0.0
  9
$DIMTM
 40
0.0
  9
$DIMTXT
 40
3.5
  9
$DIMCEN
 40
2.5
  9
$DIMTSZ
 40
0.0
  9
$DIMTOL
 70
     0
  9
$DIMLIM
 70
     0
  9
$DIMTIH
 70
     1
  9
$DIMTOH
 70
     1
  9
$DIMSE1
 70
     0
  9
$DIMSE2
 70
     0
  9
$DIMTAD
 70
     1
  9
$DIMZIN
 70
     1
  9
$DIMBLK
  1

  9
$DIMASO
 70
     1
  9
$DIMSHO
 70
     1
  9
$DIMPOST
  1

  9
$DIMAPOST
  1

  9
$DIMALT
 70
     0
  9
$DIMALTD
 70
     3
  9
$DIMALTF
 40
0.0393700787
  9
$DIMLFAC
 40
1.0
  9
$DIMTOFL
 70
     1
  9
$DIMTVP
 40
0.0
  9
$DIMTIX
 70
     0
  9
$DIMSOXD
 70
     0
  9
$DIMSAH
 70
     0
  9
$DIMBLK1
  1

  9
$DIMBLK2
  1

  9
$DIMSTYLE
  2
ISO-25
  9
$DIMCLRD
 70
     0
  9
$DIMCLRE
 70
     0
  9
$DIMCLRT
 70
     0
  9
$DIMTFAC
 40
1.0
  9
$DIMGAP
 40
1.524
  9
$DIMJUST
 70
     0
  9
$DIMSD1
 70
     0
  9
$DIMSD2
 70
     0
  9
$DIMTOLJ
 70
     0
  9
$DIMTZIN
 70
     1
  9
$DIMALTZ
 70
     0
  9
$DIMALTTZ
 70
     0
  9
$DIMUPT
 70
     0
  9
$DIMDEC
 70
     2
  9
$DIMTDEC
 70
     2
  9
$DIMALTU
 70
     2
  9
$DIMALTTD
 70
     3
  9
$DIMTXSTY
  7
Standard
  9
$DIMAUNIT
 70
     0
  9
$DIMADEC
 70
     2
  9
$DIMALTRND
 40
0.0
  9
$DIMAZIN
 70
     0
  9
$DIMDSEP
 70
    44
  9
$DIMATFIT
 70
     3
  9
$DIMFRAC
 70
     0
  9
$DIMLDRBLK
  1

  9
$DIMLUNIT
 70
     2
  9
$DIMLWD
 70
    -2
  9
$DIMLWE
 70
    -2
  9
$DIMTMOVE
 70
     0
  9
$LUNITS
 70
     2
  9
$LUPREC
 70
     2
  9
$SKETCHINC
 40
1.0
  9
$FILLETRAD
 40
0.0
  9
$AUNITS
 70
     0
  9
$AUPREC
 70
     2
  9
$MENU
  1
.
  9
$ELEVATION
 40
0.0
  9
$PELEVATION
 40
0.0
  9
$THICKNESS
 40
0.0
  9
$LIMCHECK
 70
     0
  9
$CHAMFERA
 40
0.0
  9
$CHAMFERB
 40
0.0
  9
$CHAMFERC
 40
0.0
  9
$CHAMFERD
 40
0.0
  9
$SKPOLY
 70
     0
  9
$TDCREATE
 40
2461081.723229063
  9
$TDUCREATE
 40
2461081.38989573
  9
$TDUPDATE
 40
2461081.723359352
  9
$TDUUPDATE
 40
2461081.390026019
  9
$TDINDWG
 40
0.0000000116
  9
$TDUSRTIMER
 40
0.0000000116
  9
$USRTIMER
 70
     1
  9
$ANGBASE
 50
0.0
  9
$ANGDIR
 70
     0
  9
$PDMODE
 70
     0
  9
$PDSIZE
 40
-1.0
  9
$PLINEWID
 40
0.0
  9
$SPLFRAME
 70
     0
  9
$SPLINETYPE
 70
     6
  9
$SPLINESEGS
 70
     8
  9
$HANDSEED
  5
AF
  9
$SURFTAB1
 70
     6
  9
$SURFTAB2
 70
     6
  9
$SURFTYPE
 70
     6
  9
$SURFU
 70
     6
  9
$SURFV
 70
     6
  9
$UCSBASE
  2

  9
$UCSNAME
  2

  9
$UCSORG
 10
0.0
 20
0.0
 30
0.0
  9
$UCSXDIR
 10
1.0
 20
0.0
 30
0.0
  9
$UCSYDIR
 10
0.0
 20
1.0
 30
0.0
  9
$UCSORTHOREF
  2

  9
$UCSORTHOVIEW
 70
     0
  9
$UCSORGTOP
 10
0.0
 20
0.0
 30
0.0
  9
$UCSORGBOTTOM
 10
0.0
 20
0.0
 30
0.0
  9
$UCSORGLEFT
 10
0.0
 20
0.0
 30
0.0
  9
$UCSORGRIGHT
 10
0.0
 20
0.0
 30
0.0
  9
$UCSORGFRONT
 10
0.0
 20
0.0
 30
0.0
  9
$UCSORGBACK
 10
0.0
 20
0.0
 30
0.0
  9
$PUCSBASE
  2

  9
$PUCSNAME
  2

  9
$PUCSORG
 10
0.0
 20
0.0
 30
0.0
  9
$PUCSXDIR
 10
1.0
 20
0.0
 30
0.0
  9
$PUCSYDIR
 10
0.0
 20
1.0
 30
0.0
  9
$PUCSORTHOREF
  2

  9
$PUCSORTHOVIEW
 70
     0
  9
$PUCSORGTOP
 10
0.0
 20
0.0
 30
0.0
  9
$PUCSORGBOTTOM
 10
0.0
 20
0.0
 30
0.0
  9
$PUCSORGLEFT
 10
0.0
 20
0.0
 30
0.0
  9
$PUCSORGRIGHT
 10
0.0
 20
0.0
 30
0.0
  9
$PUCSORGFRONT
 10
0.0
 20
0.0
 30
0.0
  9
$PUCSORGBACK
 10
0.0
 20
0.0
 30
0.0
  9
$USERI1
 70
     0
  9
$USERI2
 70
     0
  9
$USERI3
 70
     0
  9
$USERI4
 70
     0
  9
$USERI5
 70
     0
  9
$USERR1
 40
0.0
  9
$USERR2
 40
0.0
  9
$USERR3
 40
0.0
  9
$USERR4
 40
0.0
  9
$USERR5
 40
0.0
  9
$WORLDVIEW
 70
     1
  9
$SHADEDGE
 70
     3
  9
$SHADEDIF
 70
    70
  9
$TILEMODE
 70
     1
  9
$MAXACTVP
 70
    64
  9
$PINSBASE
 10
0.0
 20
0.0
 30
0.0
  9
$PLIMCHECK
 70
     0
  9
$PEXTMIN
 10
1.0000000000E+20
 20
1.0000000000E+20
 30
1.0000000000E+20
  9
$PEXTMAX
 10
-1.0000000000E+20
 20
-1.0000000000E+20
 30
-1.0000000000E+20
  9
$PLIMMIN
 10
0.0
 20
0.0
  9
$PLIMMAX
 10
420.0
 20
297.0
  9
$UNITMODE
 70
     0
  9
$VISRETAIN
 70
     1
  9
$PLINEGEN
 70
     0
  9
$PSLTSCALE
 70
     1
  9
$TREEDEPTH
 70
  3020
  9
$CMLSTYLE
  2
Standard
  9
$CMLJUST
 70
     0
  9
$CMLSCALE
 40
20.0
  9
$PROXYGRAPHICS
 70
     1
  9
$MEASUREMENT
 70
     1
  9
$CELWEIGHT
370
    -1
  9
$ENDCAPS
280
     0
  9
$JOINSTYLE
280
     0
  9
$LWDISPLAY
290
     1
  9
$INSUNITS
 70
     4
  9
$HYPERLINKBASE
  1

  9
$STYLESHEET
  1

  9
$XEDIT
290
     1
  9
$CEPSNTYPE
380
     0
  9
$PSTYLEMODE
290
     1
  9
$FINGERPRINTGUID
  2
{6c9b27b1-14c5-4bee-a3a0-a1b8fc6d4581}
  9
$VERSIONGUID
  2
{FAEB1C32-E019-11D5-929B-00C0DF256EC4}
  9
$EXTNAMES
290
     1
  9
$PSVPSCALE
 40
0.0
  9
$OLESTARTUP
290
     0
  0
ENDSEC
  0
SECTION
  2
CLASSES
  0
CLASS
  1
ACDBDICTIONARYWDFLT
  2
AcDbDictionaryWithDefault
  3
ObjectDBX Classes
 90
        0
280
     0
281
     0
  0
CLASS
  1
VISUALSTYLE
  2
AcDbVisualStyle
  3
ObjectDBX Classes
 90
     4095
280
     0
281
     0
  0
CLASS
  1
MATERIAL
  2
AcDbMaterial
  3
ObjectDBX Classes
 90
     1153
280
     0
281
     0
  0
CLASS
  1
SCALE
  2
AcDbScale
  3
ObjectDBX Classes
 90
     1153
280
     0
281
     0
  0
CLASS
  1
TABLESTYLE
  2
AcDbTableStyle
  3
ObjectDBX Classes
 90
     4095
280
     0
281
     0
  0
CLASS
  1
MLEADERSTYLE
  2
AcDbMLeaderStyle
  3
ACDB_MLEADERSTYLE_CLASS
 90
     4095
280
     0
281
     0
  0
CLASS
  1
SUN
  2
AcDbSun
  3
SCENEOE
 90
     1153
280
     0
281
     0
  0
CLASS
  1
ACDBPLACEHOLDER
  2
AcDbPlaceHolder
  3
ObjectDBX Classes
 90
        0
280
     0
281
     0
  0
CLASS
  1
LAYOUT
  2
AcDbLayout
  3
ObjectDBX Classes
 90
        0
280
     0
281
     0
  0
ENDSEC
  0
SECTION
  2
TABLES
  0
TABLE
  2
VPORT
  5
8
330
0
100
AcDbSymbolTable
 70
     1
  0
VPORT
  5
29
330
8
100
AcDbSymbolTableRecord
100
AcDbViewportTableRecord
  2
*Active
 70
     0
 10
0.0
 20
0.0
 11
1.0
 21
1.0
 12
128.186259768
 22
0.3803574409
 13
0.0
 23
0.0
 14
10.0
 24
10.0
 15
10.0
 25
10.0
 16
0.0
 26
0.0
 36
1.0
 17
0.0
 27
0.0
 37
0.0
 40
21.1759291794
 41
5.6963578712
 42
50.0
 43
0.0
 44
0.0
 50
0.0
 51
0.0
 71
     0
 72
   100
 73
     1
 74
     3
 75
     0
 76
     0
 77
     0
 78
     0
281
     0
 65
     1
110
0.0
120
0.0
130
0.0
111
1.0
121
0.0
131
0.0
112
0.0
122
1.0
132
0.0
 79
     0
146
0.0
  0
ENDTAB
  0
TABLE
  2
LTYPE
  5
5
330
0
100
AcDbSymbolTable
 70
     6
  0
LTYPE
  5
14
330
5
100
AcDbSymbolTableRecord
100
AcDbLinetypeTableRecord
  2
ByBlock
 70
     0
  3

 72
    65
 73
     0
 40
0.0
  0
LTYPE
  5
15
330
5
100
AcDbSymbolTableRecord
100
AcDbLinetypeTableRecord
  2
ByLayer
 70
     0
  3

 72
    65
 73
     0
 40
0.0
  0
LTYPE
  5
16
330
5
100
AcDbSymbolTableRecord
100
AcDbLinetypeTableRecord
  2
Continuous
 70
     0
  3
Solid line
 72
    65
 73
     0
 40
0.0
  0
LTYPE
  5
5E
330
5
100
AcDbSymbolTableRecord
100
AcDbLinetypeTableRecord
  2
HIDDEN
 70
     0
  3
Hidden __ __ __ __ __ __ __ __ __ __ __ __ __ __
 72
    65
 73
     2
 40
1.905
 49
1.27
 74
     0
 49
-0.635
 74
     0
  0
LTYPE
  5
5F
330
5
100
AcDbSymbolTableRecord
100
AcDbLinetypeTableRecord
  2
PHANTOM
 70
     0
  3
Phantom ______  __  __  ______  __  __  ______
 72
    65
 73
     6
 40
12.7
 49
6.35
 74
     0
 49
-1.27
 74
     0
 49
1.27
 74
     0
 49
-1.27
 74
     0
 49
1.27
 74
     0
 49
-1.27
 74
     0
  0
LTYPE
  5
60
330
5
100
AcDbSymbolTableRecord
100
AcDbLinetypeTableRecord
  2
CENTER
 70
     0
  3
Center ____ _ ____ _ ____ _ ____ _ ____ _ ____
 72
    65
 73
     4
 40
10.16
 49
6.35
 74
     0
 49
-1.27
 74
     0
 49
1.27
 74
     0
 49
-1.27
 74
     0
  0
LTYPE
  5
61
330
5
100
AcDbSymbolTableRecord
100
AcDbLinetypeTableRecord
  2
CENTERX2
 70
     0
  3
Center (2x) ________  __  ________  __  _____
 72
    65
 73
     4
 40
20.32
 49
12.7
 74
     0
 49
-2.54
 74
     0
 49
2.54
 74
     0
 49
-2.54
 74
     0
  0
LTYPE
  5
62
330
5
100
AcDbSymbolTableRecord
100
AcDbLinetypeTableRecord
  2
DOT2
 70
     0
  3
Dot (.5x) ........................................
 72
    65
 73
     2
 40
0.635
 49
0.0
 74
     0
 49
-0.635
 74
     0
  0
ENDTAB
  0
TABLE
  2
LAYER
  5
2
330
0
100
AcDbSymbolTable
 70
     1
  0
LAYER
  5
10
330
2
100
AcDbSymbolTableRecord
100
AcDbLayerTableRecord
  2
0
 70
     0
 62
     7
  6
Continuous
370
    -3
390
F
  0
ENDTAB
  0
TABLE
  2
STYLE
  5
3
330
0
100
AcDbSymbolTable
 70
     1
  0
STYLE
  5
11
330
3
100
AcDbSymbolTableRecord
100
AcDbTextStyleTableRecord
  2
Standard
 70
     0
 40
0.0
 41
1.0
 50
0.0
 71
     0
 42
3.5
  3
txt
  4

  0
ENDTAB
  0
TABLE
  2
VIEW
  5
6
330
0
100
AcDbSymbolTable
 70
     0
  0
ENDTAB
  0
TABLE
  2
UCS
  5
7
330
0
100
AcDbSymbolTable
 70
     0
  0
ENDTAB
  0
TABLE
  2
APPID
  5
9
330
0
100
AcDbSymbolTable
 70
     1
  0
APPID
  5
12
330
9
100
AcDbSymbolTableRecord
100
AcDbRegAppTableRecord
  2
ACAD
 70
     0
  0
ENDTAB
  0
TABLE
  2
DIMSTYLE
  5
A
330
0
100
AcDbSymbolTable
 70
     1
100
AcDbDimStyleTable
  0
DIMSTYLE
105
27
330
A
100
AcDbSymbolTableRecord
100
AcDbDimStyleTableRecord
  2
ISO-25
 70
     0
 41
2.5
 42
0.625
 43
3.75
 44
1.25
 73
     0
 74
     0
 77
     1
 78
     8
140
2.5
141
2.5
143
0.0393700787
147
0.625
171
     3
172
     1
178
     0
271
     2
272
     2
274
     3
278
    44
283
     0
284
     8
340
11
  0
ENDTAB
  0
TABLE
  2
BLOCK_RECORD
  5
1
330
0
100
AcDbSymbolTable
 70
     1
  0
BLOCK_RECORD
  5
1F
330
1
100
AcDbSymbolTableRecord
100
AcDbBlockTableRecord
  2
*Model_Space
340
22
  0
BLOCK_RECORD
  5
1B
330
1
100
AcDbSymbolTableRecord
100
AcDbBlockTableRecord
  2
*Paper_Space
340
1E
  0
BLOCK_RECORD
  5
23
330
1
100
AcDbSymbolTableRecord
100
AcDbBlockTableRecord
  2
*Paper_Space0
340
26
  0
ENDTAB
  0
ENDSEC
  0
SECTION
  2
BLOCKS
  0
BLOCK
  5
20
330
1F
100
AcDbEntity
  8
0
100
AcDbBlockBegin
  2
*Model_Space
 70
     0
 10
0.0
 20
0.0
 30
0.0
  3
*Model_Space
  1

  0
ENDBLK
  5
21
330
1F
100
AcDbEntity
  8
0
100
AcDbBlockEnd
  0
BLOCK
  5
1C
330
1B
100
AcDbEntity
 67
     1
  8
0
100
AcDbBlockBegin
  2
*Paper_Space
 70
     0
 10
0.0
 20
0.0
 30
0.0
  3
*Paper_Space
  1

  0
ENDBLK
  5
1D
330
1B
100
AcDbEntity
 67
     1
  8
0
100
AcDbBlockEnd
  0
BLOCK
  5
24
330
23
100
AcDbEntity
  8
0
100
AcDbBlockBegin
  2
*Paper_Space0
 70
     0
 10
0.0
 20
0.0
 30
0.0
  3
*Paper_Space0
  1

  0
ENDBLK
  5
25
330
23
100
AcDbEntity
  8
0
100
AcDbBlockEnd
  0
ENDSEC
  0
SECTION
  2
ENTITIES
  0
LINE
  5
63
330
1F
100
AcDbEntity
  8
0
  6
Continuous
 62
     7
370
    25
100
AcDbLine
 10
135.6048501177
 20
-2.0797036007
 30
0.0
 11
135.6048501177
 21
-1.9807843268
 31
0.0
  0
SPLINE
  5
64
330
1F
100
AcDbEntity
  8
0
  6
Continuous
 62
     7
370
    25
100
AcDbSpline
210
0.0
220
0.0
230
1.0
 70
     8
 71
     3
 72
     8
 73
     4
 74
     0
 42
0.00000001
 43
0.00000001
 40
0.2144639491244948
 40
0.2144639491244948
 40
0.2144639491244948
 40
0.2144639491244948
 40
0.2186091181421482
 40
0.2186091181421482
 40
0.2186091181421482
 40
0.2186091181421482
 10
135.6048497320972
 20
-1.980779080346431
 30
0.0
 10
135.2717406362572
 20
-1.993004151980247
 30
0.0
 10
134.9386315593918
 20
-2.005229739870581
 30
0.0
 10
134.6055225114695
 20
-2.017456126273748
 30
0.0
  0
LINE
  5
65
330
1F
100
AcDbEntity
  8
0
  6
Continuous
 62
     7
370
    25
100
AcDbLine
 10
134.6055226734
 20
-2.0174605377
 30
0.0
 11
134.6055226734
 21
-2.1163731938
 31
0.0
  0
LINE
  5
66
330
1F
100
AcDbEntity
  8
0
  6
Continuous
 62
     7
370
    25
100
AcDbLine
 10
134.6055226734
 20
-2.1163731938
 30
0.0
 11
135.6048501177
 21
-2.0797036007
 31
0.0
  0
LINE
  5
67
330
1F
100
AcDbEntity
  8
0
  6
Continuous
 62
     7
370
    25
100
AcDbLine
 10
134.4056571845
 20
-2.1237071124
 30
0.0
 11
134.4056571845
 21
-2.0247962056
 31
0.0
  0
SPLINE
  5
68
330
1F
100
AcDbEntity
  8
0
  6
Continuous
 62
     7
370
    25
100
AcDbSpline
210
0.0
220
0.0
230
1.0
 70
     8
 71
     3
 72
     9
 73
     5
 74
     0
 42
0.00000001
 43
0.00000001
 40
0.2194381529434033
 40
0.2194381529434033
 40
0.2194381529434033
 40
0.2194381529434033
 40
0.2203942423331328
 40
0.2235833228558556
 40
0.2235833228558556
 40
0.2235833228558556
 40
0.2235833228558556
 10
134.4056568457354
 20
-2.024792065023994
 30
0.0
 10
134.3288247519088
 20
-2.027612175480229
 30
0.0
 10
133.9957156511914
 20
-2.039839092417317
 30
0.0
 10
133.6626065837101
 20
-2.052066929421803
 30
0.0
 10
133.4063296340214
 20
-2.0614753102598
 30
0.0
  0
LINE
  5
69
330
1F
100
AcDbEntity
  8
0
  6
Continuous
 62
     7
370
    25
100
AcDbLine
 10
133.4063297402
 20
-2.061478203
 30
0.0
 11
133.4063297402
 21
-2.1603767055
 31
0.0
  0
LINE
  5
6A
330
1F
100
AcDbEntity
  8
0
  6
Continuous
 62
     7
370
    25
100
AcDbLine
 10
133.4063297402
 20
-2.1603767055
 30
0.0
 11
134.4056571845
 21
-2.1237071124
 31
0.0
  0
LINE
  5
6B
330
1F
100
AcDbEntity
  8
0
  6
Continuous
 62
     7
370
    25
100
AcDbLine
 10
133.2064642514
 20
-2.1677106241
 30
0.0
 11
133.2064642514
 21
-2.0688138194
 31
0.0
  0
SPLINE
  5
6C
330
1F
100
AcDbEntity
  8
0
  6
Continuous
 62
     7
370
    25
100
AcDbSpline
210
0.0
220
0.0
230
1.0
 70
     8
 71
     3
 72
     8
 73
     4
 74
     0
 42
0.00000001
 43
0.00000001
 40
0.2244123568728104
 40
0.2244123568728104
 40
0.2244123568728104
 40
0.2244123568728104
 40
0.2285575297194078
 40
0.2285575297194078
 40
0.2285575297194078
 40
0.2285575297194078
 10
133.2064642181624
 20
-2.068812915359097
 30
0.0
 10
132.8733549818295
 20
-2.081042595012498
 30
0.0
 10
132.5402458076946
 20
-2.093273976820395
 30
0.0
 10
132.2071367256353
 20
-2.105507867599208
 30
0.0
  0
LINE
  5
6D
330
1F
100
AcDbEntity
  8
0
  6
Continuous
 62
     7
370
    25
100
AcDbLine
 10
132.2071368071
 20
-2.1055100844
 30
0.0
 11
132.2071368071
 21
-2.2043802172
 31
0.0
  0
LINE
  5
6E
330
1F
100
AcDbEntity
  8
0
  6
Continuous
 62
     7
370
    25
100
AcDbLine
 10
132.2071368071
 20
-2.2043802172
 30
0.0
 11
133.2064642514
 21
-2.1677106241
 31
0.0
  0
SPLINE
  5
6F
330
1F
100
AcDbEntity
  8
0
  6
Continuous
 62
     7
370
    25
100
AcDbSpline
210
0.0
220
0.0
230
1.0
 70
     8
 71
     3
 72
    17
 73
    13
 74
     0
 42
0.00000001
 43
0.00000001
 40
0.0021046301864101
 40
0.0021046301864101
 40
0.0021046301864101
 40
0.0021046301864101
 40
0.0332888604930848
 40
0.0644730907997595
 40
0.0956573211064341
 40
0.1268415514131088
 40
0.1424336665664461
 40
0.1580257817197835
 40
0.1736178968731208
 40
0.1892100120264582
 40
0.2048021271797955
 40
0.2136349143792637
 40
0.2136349143792637
 40
0.2136349143792637
 40
0.2136349143792637
 10
186.8009008750687
 20
-0.1007181403188303
 30
0.0
 10
184.2949069040936
 20
-0.1927613878592351
 30
0.0
 10
179.2829351982117
 20
-0.3768095190843558
 30
0.0
 10
171.7649782546225
 20
-0.652913449244098
 30
0.0
 10
164.2470136157024
 20
-0.9290090423022073
 30
0.0
 10
157.9820463998017
 20
-1.159089456118277
 30
0.0
 10
152.9700710343521
 20
-1.343155194452619
 30
0.0
 10
149.2110911827275
 20
-1.481227147123022
 30
0.0
 10
145.4521109061957
 20
-1.619302853175879
 30
0.0
 10
141.6931298999415
 20
-1.757350487999265
 30
0.0
 10
138.4773302078135
 20
-1.875366733611993
 30
0.0
 10
136.5145252742861
 20
-1.94739455214397
 30
0.0
 10
135.8047154188257
 20
-1.973444088727123
 30
0.0
  0
LINE
  5
70
330
1F
100
AcDbEntity
  8
0
  6
Continuous
 62
     7
370
    25
100
AcDbLine
 10
135.8047156066
 20
-1.9734492047
 30
0.0
 11
135.8047156066
 21
-10.0
 31
0.0
  0
LINE
  5
71
330
1F
100
AcDbEntity
  8
0
  6
Continuous
 62
     7
370
    25
100
AcDbLine
 10
135.8047156066
 20
-10.0
 30
0.0
 11
131.8047156066
 21
-10.0
 31
0.0
  0
LINE
  5
72
330
1F
100
AcDbEntity
  8
0
  6
Continuous
 62
     7
370
    25
100
AcDbLine
 10
131.8047156066
 20
-10.0
 30
0.0
 11
131.8047156066
 21
-2.2191467702
 31
0.0
  0
LINE
  5
73
330
1F
100
AcDbEntity
  8
0
  6
Continuous
 62
     7
370
    25
100
AcDbLine
 10
131.8047156066
 20
-2.2191467702
 30
0.0
 11
132.0072713182
 21
-2.2117141359
 31
0.0
  0
LINE
  5
74
330
1F
100
AcDbEntity
  8
0
  6
Continuous
 62
     7
370
    25
100
AcDbLine
 10
132.0072713182
 20
-2.2117141359
 30
0.0
 11
132.0072713182
 21
-2.112851643
 31
0.0
  0
SPLINE
  5
75
330
1F
100
AcDbEntity
  8
0
  6
Continuous
 62
     7
370
    25
100
AcDbSpline
210
0.0
220
0.0
230
1.0
 70
     8
 71
     3
 72
    16
 73
    12
 74
     0
 42
0.00000001
 43
0.00000001
 40
0.2293865646390843
 40
0.2293865646390843
 40
0.2293865646390843
 40
0.2293865646390843
 40
0.2359863574864702
 40
0.2515784726398075
 40
0.2671705877931448
 40
0.2827627029464821
 40
0.2983548180998195
 40
0.3139469332531569
 40
0.3295390484064942
 40
0.3451311635598315
 40
0.3527225868373552
 40
0.3527225868373552
 40
0.3527225868373552
 40
0.3527225868373552
 10
132.007271203223
 20
-2.112848512699887
 30
0.0
 10
131.4769071466264
 20
-2.132328516144171
 30
0.0
 10
129.6935504402763
 20
-2.197853098051376
 30
0.0
 10
126.6572079418863
 20
-2.309608488151224
 30
0.0
 10
122.8982449733558
 20
-2.448148958047526
 30
0.0
 10
119.1392695993971
 20
-2.586353059034656
 30
0.0
 10
115.3802563762886
 20
-2.723524572767454
 30
0.0
 10
111.6212048652138
 20
-2.859641705455724
 30
0.0
 10
107.8621958575793
 20
-2.996931231798247
 30
0.0
 10
104.746231707562
 20
-3.113418864141873
 30
0.0
 10
102.8832959395484
 20
-3.184778410664782
 30
0.0
 10
102.2732738616883
 20
-3.207990979280458
 30
0.0
  0
LINE
  5
76
330
1F
100
AcDbEntity
  8
0
  6
Continuous
 62
     7
370
    25
100
AcDbLine
 10
102.2732738617
 20
-10.0
 30
0.0
 11
102.2732738617
 21
-3.2079909793
 31
0.0
  0
LINE
  5
77
330
1F
100
AcDbEntity
  8
0
  6
Continuous
 62
     7
370
    25
100
AcDbLine
 10
98.2732738617
 20
-10.0
 30
0.0
 11
102.2732738617
 21
-10.0
 31
0.0
  0
LINE
  5
78
330
1F
100
AcDbEntity
  8
0
  6
Continuous
 62
     7
370
    25
100
AcDbLine
 10
98.2732738617
 20
-3.4554077403
 30
0.0
 11
98.2732738617
 21
-10.0
 31
0.0
  0
LINE
  5
79
330
1F
100
AcDbEntity
  8
0
  6
Continuous
 62
     7
370
    25
100
AcDbLine
 10
98.4758622502
 20
-3.4482611507
 30
0.0
 11
98.2732738617
 21
-3.4554077403
 31
0.0
  0
LINE
  5
7A
330
1F
100
AcDbEntity
  8
0
  6
Continuous
 62
     7
370
    25
100
AcDbLine
 10
98.4758622502
 20
-3.3481994441
 30
0.0
 11
98.4758622502
 21
-3.4482611507
 31
0.0
  0
SPLINE
  5
7B
330
1F
100
AcDbEntity
  8
0
  6
Continuous
 62
     7
370
    25
100
AcDbSpline
210
0.0
220
0.0
230
1.0
 70
     8
 71
     3
 72
    80
 73
    76
 74
     0
 42
0.00000001
 43
0.00000001
 40
0.368474230408612
 40
0.368474230408612
 40
0.368474230408612
 40
0.368474230408612
 40
0.3685193362898376
 40
0.3763153938665063
 40
0.3841114514431748
 40
0.3919075090198435
 40
0.3997035665965122
 40
0.407499624173181
 40
0.4152956817498497
 40
0.4230917393265183
 40
0.4308877969031869
 40
0.4386838544798555
 40
0.4464799120565242
 40
0.4542759696331928
 40
0.4620720272098616
 40
0.465970055998196
 40
0.4698680847865303
 40
0.4737661135748646
 40
0.4776641423631989
 40
0.4815621711515332
 40
0.4854601999398676
 40
0.4874092143340347
 40
0.4893582287282019
 40
0.4913072431223691
 40
0.4932562575165362
 40
0.4952052719107034
 40
0.4971542863048706
 40
0.4991033006990377
 40
0.5010523150932049
 40
0.5030013294873721
 40
0.5049503438815393
 40
0.5068993582757064
 40
0.5088483726698736
 40
0.5107973870640408
 40
0.5127464014582079
 40
0.5146954158523751
 40
0.5166444302465423
 40
0.5205424590348766
 40
0.524440487823211
 40
0.5283385166115453
 40
0.5322365453998796
 40
0.536134574188214
 40
0.5400326029765483
 40
0.5439306317648827
 40
0.547828660553217
 40
0.5517266893415511
 40
0.5556247181298855
 40
0.5634207757065541
 40
0.5712168332832228
 40
0.5790128908598915
 40
0.5868089484365602
 40
0.5946050060132291
 40
0.6024010635898978
 40
0.6101971211665664
 40
0.6257892363199038
 40
0.6413813514732412
 40
0.6569734666265783
 40
0.6725655817799157
 40
0.6881576969332529
 40
0.7037498120865904
 40
0.7193419272399277
 40
0.7349340423932651
 40
0.7505261575466025
 40
0.7661182726999396
 40
0.781710387853277
 40
0.7973025030066143
 40
0.8128946181599519
 40
0.8284867333132893
 40
0.8440788484666266
 40
0.8596709636199638
 40
0.875263078773301
 40
0.9064473090799756
 40
0.9376315393866506
 40
0.9688157696933251
 40
1.0
 40
1.0
 40
1.0
 40
1.0
 10
98.4758622408013
 20
-3.348199444102726
 30
0.0
 10
98.47223729483615
 20
-3.348326873689532
 30
0.0
 10
97.84207998200442
 20
-3.370474695887788
 30
0.0
 10
96.58533586294212
 20
-3.41310830924816
 30
0.0
 10
94.70545333654842
 20
-3.470569747664073
 30
0.0
 10
92.82533698032643
 20
-3.519915731275091
 30
0.0
 10
90.94498560211443
 20
-3.559310939877134
 30
0.0
 10
89.06440812298149
 20
-3.586418691820537
 30
0.0
 10
87.18367594832831
 20
-3.598439284858988
 30
0.0
 10
85.30289562947283
 20
-3.593417482017738
 30
0.0
 10
83.42229187742228
 20
-3.567519373588638
 30
0.0
 10
81.54207593324104
 20
-3.520822690684803
 30
0.0
 10
79.66277793894989
 20
-3.444760749814251
 30
0.0
 10
77.78447788219684
 20
-3.350124091659867
 30
0.0
 10
76.22031400378926
 20
-3.246490689055446
 30
0.0
 10
74.97378251209916
 20
-3.109326771230098
 30
0.0
 10
74.04272388719723
 20
-2.975891974693006
 30
0.0
 10
73.11828580566504
 20
-2.803036755615142
 30
0.0
 10
72.19546481324551
 20
-2.621934540380981
 30
0.0
 10
71.27861638361819
 20
-2.411038668694701
 30
0.0
 10
70.54834482963402
 20
-2.112514116500642
 30
0.0
 10
70.02537882832168
 20
-1.76402188815861
 30
0.0
 10
69.66667143855989
 20
-1.458740154577429
 30
0.0
 10
69.35467513156796
 20
-1.104991474051312
 30
0.0
 10
69.11087006102949
 20
-0.6998329074406449
 30
0.0
 10
68.99415452519284
 20
-0.2357318813506156
 30
0.0
 10
69.06466646599657
 20
0.2372547545982655
 30
0.0
 10
69.26093364594851
 20
0.666866559497853
 30
0.0
 10
69.52107682557602
 20
1.059636469303875
 30
0.0
 10
69.81975588835643
 20
1.423272778506557
 30
0.0
 10
70.14009103627048
 20
1.767593518295479
 30
0.0
 10
70.47167384945493
 20
2.101001072096226
 30
0.0
 10
70.80726724607132
 20
2.430334549685554
 30
0.0
 10
71.1503843532729
 20
2.75188513534753
 30
0.0
 10
71.50396853300195
 20
3.061949796410455
 30
0.0
 10
71.86965031069423
 20
3.357638969503739
 30
0.0
 10
72.37135631787858
 20
3.733767554256278
 30
0.0
 10
73.02420670927044
 20
4.168117685294116
 30
0.0
 10
73.83841425402785
 20
4.639303031198673
 30
0.0
 10
74.67364963719714
 20
5.071844176245933
 30
0.0
 10
75.52597402879341
 20
5.469578506916196
 30
0.0
 10
76.39103599435973
 20
5.838572919659841
 30
0.0
 10
77.26566334667385
 20
6.184241176336015
 30
0.0
 10
78.14790179954096
 20
6.509891783065435
 30
0.0
 10
79.03563069386088
 20
6.82023204055332
 30
0.0
 10
79.92824126335199
 20
7.11622698442424
 30
0.0
 10
81.12489973053914
 20
7.490733905144526
 30
0.0
 10
82.63231924311941
 20
7.920553332037173
 30
0.0
 10
84.45591646817404
 20
8.38148297541743
 30
0.0
 10
86.29103043625888
 20
8.793970533687268
 30
0.0
 10
88.13551187585176
 20
9.162279364358483
 30
0.0
 10
89.98829506313864
 20
9.486236403279257
 30
0.0
 10
91.84851805345487
 20
9.764458271017073
 30
0.0
 10
94.33757181573124
 20
10.0712333472195
 30
0.0
 10
97.46069595710078
 20
10.34702820368246
 30
0.0
 10
101.2170641992603
 20
10.54963894140185
 30
0.0
 10
104.97662686256
 20
10.67419858825271
 30
0.0
 10
108.7373822007351
 20
10.75310438851342
 30
0.0
 10
112.4990267002748
 20
10.76998878144637
 30
0.0
 10
116.260349814821
 20
10.71729384641405
 30
0.0
 10
120.019768983283
 20
10.58564091968615
 30
0.0
 10
123.7760660426306
 20
10.38516614012505
 30
0.0
 10
127.5285327681371
 20
10.12271554637363
 30
0.0
 10
131.2768378190642
 20
9.806687181123577
 30
0.0
 10
135.0202604522477
 20
9.437218653308939
 30
0.0
 10
138.7581289221926
 20
9.015235791340778
 30
0.0
 10
142.489663914151
 20
8.540623818772696
 30
0.0
 10
146.2148745063839
 20
8.018711988357813
 30
0.0
 10
149.9338717706549
 20
7.454517992705245
 30
0.0
 10
153.6473574931543
 20
6.854921340200965
 30
0.0
 10
158.5909528697084
 20
6.00952828965956
 30
0.0
 10
164.7562652192817
 20
4.871172685111313
 30
0.0
 10
172.1290823927981
 20
3.374563931249663
 30
0.0
 10
179.4799033750191
 20
1.77264000863534
 30
0.0
 10
184.3608495239205
 20
0.6188604172173926
 30
0.0
 10
186.8009008750685
 20
0.0404407728204333
 30
0.0
  0
LINE
  5
7C
330
1F
100
AcDbEntity
  8
0
  6
Continuous
 62
     7
370
    25
100
AcDbLine
 10
186.8009008751
 20
0.0404407728
 30
0.0
 11
187.3164905827
 21
-0.0817809235
 31
0.0
  0
LINE
  5
7D
330
1F
100
AcDbEntity
  8
0
  6
Continuous
 62
     7
370
    25
100
AcDbLine
 10
187.3164905827
 20
-0.0817809235
 30
0.0
 11
186.8009008751
 21
-0.1007181403
 31
0.0
  0
SPLINE
  5
7E
330
1F
100
AcDbEntity
  8
0
  6
Continuous
 62
     7
370
    25
100
AcDbSpline
210
0.0
220
0.0
230
1.0
 70
     8
 71
     3
 72
     8
 73
     4
 74
     0
 42
0.00000001
 43
0.00000001
 40
0.3535516206088791
 40
0.3535516206088791
 40
0.3535516206088791
 40
0.3535516206088791
 40
0.3576967896572829
 40
0.3576967896572829
 40
0.3576967896572829
 40
0.3576967896572829
 10
102.0734182661465
 20
-3.215589977807727
 30
0.0
 10
101.7403251955452
 20
-3.228244573655125
 30
0.0
 10
101.4072300455763
 20
-3.240844454581365
 30
0.0
 10
101.0741313375173
 20
-3.253349288108338
 30
0.0
  0
LINE
  5
7F
330
1F
100
AcDbEntity
  8
0
  6
Continuous
 62
     7
370
    25
100
AcDbLine
 10
101.0741313375
 20
-3.3534196712
 30
0.0
 11
101.0741313375
 21
-3.2533492885
 31
0.0
  0
LINE
  5
80
330
1F
100
AcDbEntity
  8
0
  6
Continuous
 62
     7
370
    25
100
AcDbLine
 10
102.0734182662
 20
-3.315662099
 30
0.0
 11
101.0741313375
 21
-3.3534196712
 31
0.0
  0
LINE
  5
81
330
1F
100
AcDbEntity
  8
0
  6
Continuous
 62
     7
370
    25
100
AcDbLine
 10
102.0734182662
 20
-3.2155899778
 30
0.0
 11
102.0734182662
 21
-3.315662099
 31
0.0
  0
SPLINE
  5
82
330
1F
100
AcDbEntity
  8
0
  6
Continuous
 62
     7
370
    25
100
AcDbSpline
210
0.0
220
0.0
230
1.0
 70
     8
 71
     3
 72
     9
 73
     5
 74
     0
 42
0.00000001
 43
0.00000001
 40
0.3585258235480505
 40
0.3585258235480505
 40
0.3585258235480505
 40
0.3585258235480505
 40
0.3607232787131689
 40
0.3626709928728575
 40
0.3626709928728575
 40
0.3626709928728575
 40
0.3626709928728575
 10
100.8742716543332
 20
-3.260840460608308
 30
0.0
 10
100.6976871229316
 20
-3.267448567679985
 30
0.0
 10
100.3645848672645
 20
-3.279859106581785
 30
0.0
 10
100.0314779738556
 20
-3.292145150341415
 30
0.0
 10
99.87495796455143
 20
-3.297885581671531
 30
0.0
  0
LINE
  5
83
330
1F
100
AcDbEntity
  8
0
  6
Continuous
 62
     7
370
    25
100
AcDbLine
 10
99.8749579646
 20
-3.3979526667
 30
0.0
 11
99.8749579646
 21
-3.297885582
 31
0.0
  0
LINE
  5
84
330
1F
100
AcDbEntity
  8
0
  6
Continuous
 62
     7
370
    25
100
AcDbLine
 10
100.874271664
 20
-3.3609103911
 30
0.0
 11
99.8749579646
 21
-3.3979526667
 31
0.0
  0
LINE
  5
85
330
1F
100
AcDbEntity
  8
0
  6
Continuous
 62
     7
370
    25
100
AcDbLine
 10
100.874271664
 20
-3.2608404606
 30
0.0
 11
100.874271664
 21
-3.3609103911
 31
0.0
  0
SPLINE
  5
86
330
1F
100
AcDbEntity
  8
0
  6
Continuous
 62
     7
370
    25
100
AcDbSpline
210
0.0
220
0.0
230
1.0
 70
     8
 71
     3
 72
     8
 73
     4
 74
     0
 42
0.00000001
 43
0.00000001
 40
0.3635000267774833
 40
0.3635000267774833
 40
0.3635000267774833
 40
0.3635000267774833
 40
0.3676451964930882
 40
0.3676451964930882
 40
0.3676451964930882
 40
0.3676451964930882
 10
99.67509164183403
 20
-3.305197691923471
 30
0.0
 10
99.34197996908365
 20
-3.317353834956994
 30
0.0
 10
99.00886259320217
 20
-3.329353228212037
 30
0.0
 10
98.67573792376218
 20
-3.341147721535533
 30
0.0
  0
LINE
  5
87
330
1F
100
AcDbEntity
  8
0
  6
Continuous
 62
     7
370
    25
100
AcDbLine
 10
98.6757379238
 20
-3.4412102558
 30
0.0
 11
98.6757379238
 21
-3.3411477219
 31
0.0
  0
LINE
  5
88
330
1F
100
AcDbEntity
  8
0
  6
Continuous
 62
     7
370
    25
100
AcDbLine
 10
99.6750916514
 20
-3.4052640878
 30
0.0
 11
98.6757379238
 21
-3.4412102558
 31
0.0
  0
LINE
  5
89
330
1F
100
AcDbEntity
  8
0
  6
Continuous
 62
     7
370
    25
100
AcDbLine
 10
99.6750916514
 20
-3.3051976919
 30
0.0
 11
99.6750916514
 21
-3.4052640878
 31
0.0
  0
LINE
  5
8A
330
1F
100
AcDbEntity
  8
0
  6
Continuous
 62
     7
370
    25
100
AcDbLine
 10
125.3164905826
 20
0.7146485439
 30
0.0
 11
125.3164905826
 21
6.7146485439
 31
0.0
  0
LINE
  5
8B
330
1F
100
AcDbEntity
  8
0
  6
Continuous
 62
     7
370
    25
100
AcDbLine
 10
127.3164905826
 20
0.7146485439
 30
0.0
 11
125.3164905826
 21
0.7146485439
 31
0.0
  0
LINE
  5
8C
330
1F
100
AcDbEntity
  8
0
  6
Continuous
 62
     7
370
    25
100
AcDbLine
 10
127.3164905826
 20
0.7146485439
 30
0.0
 11
127.3164905826
 21
6.7146485439
 31
0.0
  0
LINE
  5
8D
330
1F
100
AcDbEntity
  8
0
  6
Continuous
 62
     7
370
    25
100
AcDbLine
 10
127.3164905826
 20
6.7146485439
 30
0.0
 11
125.3164905826
 21
6.7146485439
 31
0.0
  0
LINE
  5
8E
330
1F
100
AcDbEntity
  8
0
  6
Continuous
 62
     7
370
    25
100
AcDbLine
 10
106.2170364322
 20
7.9891021527
 30
0.0
 11
100.7545333589
 21
7.9891021527
 31
0.0
  0
ARC
  5
8F
330
1F
100
AcDbEntity
  8
0
  6
Continuous
 62
     7
370
    25
100
AcDbCircle
 10
100.7545333589
 20
6.9891021527
 30
0.0
 40
1.0
100
AcDbArc
 50
90.0
 51
227.3191224959
  0
LINE
  5
90
330
1F
100
AcDbEntity
  8
0
  6
Continuous
 62
     7
370
    25
100
AcDbLine
 10
100.0766190049
 20
6.2539612623
 30
0.0
 11
105.5391220782
 21
1.2166829792
 31
0.0
  0
ARC
  5
91
330
1F
100
AcDbEntity
  8
0
  6
Continuous
 62
     7
370
    25
100
AcDbCircle
 10
106.2170364322
 20
1.9518238695
 30
0.0
 40
1.0
100
AcDbArc
 50
227.3191224959
 51
0.0
  0
LINE
  5
92
330
1F
100
AcDbEntity
  8
0
  6
Continuous
 62
     7
370
    25
100
AcDbLine
 10
107.2170364322
 20
1.9518238695
 30
0.0
 11
107.2170364322
 21
6.9891021527
 31
0.0
  0
ARC
  5
93
330
1F
100
AcDbEntity
  8
0
  6
Continuous
 62
     7
370
    25
100
AcDbCircle
 10
106.2170364322
 20
6.9891021527
 30
0.0
 40
1.0
100
AcDbArc
 50
0.0
 51
90.0
  0
ARC
  5
94
330
1F
100
AcDbEntity
  8
0
  6
Continuous
 62
     7
370
    25
100
AcDbCircle
 10
120.5334333258
 20
5.6685918976
 30
0.0
 40
1.0
100
AcDbArc
 50
360.0
 51
133.3737428033
  0
LINE
  5
95
330
1F
100
AcDbEntity
  8
0
  6
Continuous
 62
     7
370
    25
100
AcDbLine
 10
119.8466788578
 20
6.395481367
 30
0.0
 11
114.555310214
 21
1.396274182
 31
0.0
  0
ARC
  5
96
330
1F
100
AcDbEntity
  8
0
  6
Continuous
 62
     7
370
    25
100
AcDbCircle
 10
115.242064682
 20
0.6693847126
 30
0.0
 40
0.9999999999999998
100
AcDbArc
 50
133.3737428033
 51
270.0
  0
LINE
  5
97
330
1F
100
AcDbEntity
  8
0
  6
Continuous
 62
     7
370
    25
100
AcDbLine
 10
115.242064682
 20
-0.3306152874
 30
0.0
 11
120.5334333258
 21
-0.3306152874
 31
0.0
  0
ARC
  5
98
330
1F
100
AcDbEntity
  8
0
  6
Continuous
 62
     7
370
    25
100
AcDbCircle
 10
120.5334333258
 20
0.6693847126
 30
0.0
 40
1.0
100
AcDbArc
 50
270.0
 51
0.0
  0
LINE
  5
99
330
1F
100
AcDbEntity
  8
0
  6
Continuous
 62
     7
370
    25
100
AcDbLine
 10
121.5334333258
 20
5.6685918976
 30
0.0
 11
121.5334333258
 21
0.6693847126
 31
0.0
  0
ARC
  5
9A
330
1F
100
AcDbEntity
  8
0
  6
Continuous
 62
     7
370
    25
100
AcDbCircle
 10
101.5241081808
 20
0.6693847126
 30
0.0
 40
0.9999999999999998
100
AcDbArc
 50
270.0
 51
47.3191224959
  0
LINE
  5
9B
330
1F
100
AcDbEntity
  8
0
  6
Continuous
 62
     7
370
    25
100
AcDbLine
 10
102.2020225347
 20
1.404525603
 30
0.0
 11
96.7395194614
 21
6.4418038861
 31
0.0
  0
ARC
  5
9C
330
1F
100
AcDbEntity
  8
0
  6
Continuous
 62
     7
370
    25
100
AcDbCircle
 10
96.0616051075
 20
5.7066629958
 30
0.0
 40
1.0
100
AcDbArc
 50
47.3191224959
 51
180.0
  0
LINE
  5
9D
330
1F
100
AcDbEntity
  8
0
  6
Continuous
 62
     7
370
    25
100
AcDbLine
 10
95.0616051075
 20
0.6693847126
 30
0.0
 11
95.0616051075
 21
5.7066629958
 31
0.0
  0
ARC
  5
9E
330
1F
100
AcDbEntity
  8
0
  6
Continuous
 62
     7
370
    25
100
AcDbCircle
 10
96.0616051075
 20
0.6693847126
 30
0.0
 40
1.0
100
AcDbArc
 50
180.0
 51
270.0
  0
LINE
  5
9F
330
1F
100
AcDbEntity
  8
0
  6
Continuous
 62
     7
370
    25
100
AcDbLine
 10
96.0616051075
 20
-0.3306152874
 30
0.0
 11
101.5241081808
 21
-0.3306152874
 31
0.0
  0
LINE
  5
A0
330
1F
100
AcDbEntity
  8
0
  6
Continuous
 62
     7
370
    25
100
AcDbLine
 10
111.7130461397
 20
1.2630054983
 30
0.0
 11
117.0044147836
 21
6.2622126833
 31
0.0
  0
ARC
  5
A1
330
1F
100
AcDbEntity
  8
0
  6
Continuous
 62
     7
370
    25
100
AcDbCircle
 10
116.3176603156
 20
6.9891021527
 30
0.0
 40
0.9999999999999991
100
AcDbArc
 50
313.3737428033
 51
90.0
  0
LINE
  5
A2
330
1F
100
AcDbEntity
  8
0
  6
Continuous
 62
     7
370
    25
100
AcDbLine
 10
116.3176603156
 20
7.9891021527
 30
0.0
 11
111.0262916717
 21
7.9891021527
 31
0.0
  0
ARC
  5
A3
330
1F
100
AcDbEntity
  8
0
  6
Continuous
 62
     7
370
    25
100
AcDbCircle
 10
111.0262916717
 20
6.9891021527
 30
0.0
 40
1.0
100
AcDbArc
 50
90.0
 51
180.0
  0
LINE
  5
A4
330
1F
100
AcDbEntity
  8
0
  6
Continuous
 62
     7
370
    25
100
AcDbLine
 10
110.0262916717
 20
6.9891021527
 30
0.0
 11
110.0262916717
 21
1.9898949677
 31
0.0
  0
ARC
  5
A5
330
1F
100
AcDbEntity
  8
0
  6
Continuous
 62
     7
370
    25
100
AcDbCircle
 10
111.0262916717
 20
1.9898949677
 30
0.0
 40
1.000000000000006
100
AcDbArc
 50
180.0
 51
313.3737428033
  0
LINE
  5
A6
330
1F
100
AcDbEntity
  8
0
  6
Continuous
 62
     7
370
    25
100
AcDbLine
 10
150.3164905827
 20
5.4182190765
 30
0.0
 11
150.3164905827
 21
2.4182190765
 31
0.0
  0
LINE
  5
A7
330
1F
100
AcDbEntity
  8
0
  6
Continuous
 62
     7
370
    25
100
AcDbLine
 10
150.3164905827
 20
2.4182190765
 30
0.0
 11
152.3164905827
 21
2.4182190765
 31
0.0
  0
LINE
  5
A8
330
1F
100
AcDbEntity
  8
0
  6
Continuous
 62
     7
370
    25
100
AcDbLine
 10
152.3164905827
 20
2.4182190765
 30
0.0
 11
152.3164905827
 21
5.4182190765
 31
0.0
  0
LINE
  5
A9
330
1F
100
AcDbEntity
  8
0
  6
Continuous
 62
     7
370
    25
100
AcDbLine
 10
152.3164905827
 20
5.4182190765
 30
0.0
 11
150.3164905827
 21
5.4182190765
 31
0.0
  0
SPLINE
  5
AA
330
1F
100
AcDbEntity
  8
0
  6
Continuous
 62
     7
370
    25
100
AcDbSpline
210
0.0
220
0.0
230
1.0
 70
     8
 71
     3
 72
     9
 73
     5
 74
     0
 42
0.00000001
 43
0.00000001
 40
0.0
 40
0.0
 40
0.0
 40
0.0
 40
0.5
 40
1.0
 40
1.0
 40
1.0
 40
1.0
 10
88.25431176214215
 20
-2.321780467778654
 30
0.0
 10
88.23206923182458
 20
-2.322505231834064
 30
0.0
 10
88.18756646808198
 20
-2.323592738406202
 30
0.0
 10
88.14304598987945
 20
-2.323955336780884
 30
0.0
 10
88.12078575058233
 20
-2.323955336780885
 30
0.0
  0
ARC
  5
AB
330
1F
100
AcDbEntity
  8
0
  6
Continuous
 62
     7
370
    25
100
AcDbCircle
 10
88.3878377737
 20
1.7760446632
 30
0.0
 40
4.099999999999987
100
AcDbArc
 50
268.1337000118
 51
91.8662999882
  0
SPLINE
  5
AC
330
1F
100
AcDbEntity
  8
0
  6
Continuous
 62
     7
370
    25
100
AcDbSpline
210
0.0
220
0.0
230
1.0
 70
     8
 71
     3
 72
     9
 73
     5
 74
     0
 42
0.00000001
 43
0.00000001
 40
0.0
 40
0.0
 40
0.0
 40
0.0
 40
0.5
 40
1.0
 40
1.0
 40
1.0
 40
1.0
 10
88.12078575058219
 20
5.876044663219107
 30
0.0
 10
88.14304598987806
 20
5.876044663219107
 30
0.0
 10
88.18756646846921
 20
5.875682064825344
 30
0.0
 10
88.2320692318183
 20
5.87459455827245
 30
0.0
 10
88.25431176213459
 20
5.87386979421712
 30
0.0
  0
SPLINE
  5
AD
330
1F
100
AcDbEntity
  8
0
  6
Continuous
 62
     7
370
    25
100
AcDbSpline
210
0.0
220
0.0
230
1.0
 70
     8
 71
     3
 72
    10
 73
     6
 74
     0
 42
0.00000001
 43
0.00000001
 40
0.0
 40
0.0
 40
0.0
 40
0.0
 40
0.5
 40
0.5
 40
1.0
 40
1.0
 40
1.0
 40
1.0
 10
88.1207857505822
 20
-2.323955336780885
 30
0.0
 10
85.38745241724885
 20
-2.323955336780898
 30
0.0
 10
84.02078575058219
 20
0.4093779965524429
 30
0.0
 10
84.02078575058215
 20
3.142711329885778
 30
0.0
 10
85.38745241724885
 20
5.876044663219107
 30
0.0
 10
88.12078575058219
 20
5.876044663219107
 30
0.0
  0
ENDSEC
  0
SECTION
  2
OBJECTS
  0
DICTIONARY
  5
C
330
0
100
AcDbDictionary
281
     1
  3
ACAD_GROUP
350
D
  3
ACAD_LAYOUT
350
1A
  3
ACAD_MLINESTYLE
350
17
  3
ACAD_PLOTSETTINGS
350
19
  3
ACAD_PLOTSTYLENAME
350
E
  3
ACAD_SCALELIST
350
47
  3
DWGPROPS
350
AE
  0
DICTIONARY
  5
D
102
{ACAD_REACTORS
330
C
102
}
330
C
100
AcDbDictionary
281
     1
  0
DICTIONARY
  5
1A
102
{ACAD_REACTORS
330
C
102
}
330
C
100
AcDbDictionary
281
     1
  3
Layout1
350
1E
  3
Layout2
350
26
  3
Model
350
22
  0
DICTIONARY
  5
17
102
{ACAD_REACTORS
330
C
102
}
330
C
100
AcDbDictionary
281
     1
  3
Standard
350
18
  0
DICTIONARY
  5
19
102
{ACAD_REACTORS
330
C
102
}
330
C
100
AcDbDictionary
281
     1
  0
ACDBDICTIONARYWDFLT
  5
E
102
{ACAD_REACTORS
330
C
102
}
330
C
100
AcDbDictionary
281
     1
  3
Normal
350
F
100
AcDbDictionaryWithDefault
340
F
  0
DICTIONARY
  5
47
102
{ACAD_REACTORS
330
C
102
}
330
C
100
AcDbDictionary
281
     1
  3
A0
350
48
  3
A1
350
49
  3
A2
350
4A
  3
A3
350
4B
  3
A4
350
4C
  3
A5
350
4D
  3
A6
350
4E
  3
A7
350
4F
  3
A8
350
50
  3
A9
350
51
  3
B0
350
52
  3
B1
350
53
  3
B2
350
54
  3
B3
350
55
  3
B4
350
56
  3
B5
350
57
  3
B6
350
58
  0
XRECORD
  5
AE
102
{ACAD_REACTORS
330
C
102
}
330
C
100
AcDbXrecord
280
     1
  1
DWGPROPS COOKIE
  2

  3

  4

  6

  7

  8
CX_in_command
  9

300
=
301
=
302
=
303
=
304
=
305
=
306
=
307
=
308
=
309
=
 40
0.0
 41
2461081.38989573
 42
2461081.390026019
  1

 90
        0
  0
LAYOUT
  5
1E
102
{ACAD_REACTORS
330
1A
102
}
330
1A
100
AcDbPlotSettings
  1

  2
none_device
  4

  6

 40
0.0
 41
0.0
 42
0.0
 43
0.0
 44
0.0
 45
0.0
 46
0.0
 47
0.0
 48
0.0
 49
0.0
140
0.0
141
0.0
142
1.0
143
1.0
 70
   688
 72
     1
 73
     0
 74
     5
  7

 75
    16
147
1.0
148
0.0
149
0.0
100
AcDbLayout
  1
Layout1
 70
     1
 71
     1
 10
0.0
 20
0.0
 11
420.0
 21
297.0
 12
0.0
 22
0.0
 32
0.0
 14
1.0000000000E+20
 24
1.0000000000E+20
 34
1.0000000000E+20
 15
-1.0000000000E+20
 25
-1.0000000000E+20
 35
-1.0000000000E+20
146
0.0
 13
0.0
 23
0.0
 33
0.0
 16
1.0
 26
0.0
 36
0.0
 17
0.0
 27
1.0
 37
0.0
 76
     0
330
1B
  0
LAYOUT
  5
26
102
{ACAD_REACTORS
330
1A
102
}
330
1A
100
AcDbPlotSettings
  1

  2
none_device
  4

  6

 40
0.0
 41
0.0
 42
0.0
 43
0.0
 44
0.0
 45
0.0
 46
0.0
 47
0.0
 48
0.0
 49
0.0
140
0.0
141
0.0
142
1.0
143
1.0
 70
   688
 72
     1
 73
     0
 74
     5
  7

 75
    16
147
1.0
148
0.0
149
0.0
100
AcDbLayout
  1
Layout2
 70
     1
 71
     2
 10
0.0
 20
0.0
 11
0.0
 21
0.0
 12
0.0
 22
0.0
 32
0.0
 14
0.0
 24
0.0
 34
0.0
 15
0.0
 25
0.0
 35
0.0
146
0.0
 13
0.0
 23
0.0
 33
0.0
 16
1.0
 26
0.0
 36
0.0
 17
0.0
 27
1.0
 37
0.0
 76
     0
330
23
  0
LAYOUT
  5
22
102
{ACAD_REACTORS
330
1A
102
}
330
1A
100
AcDbPlotSettings
  1

  2
none_device
  4
ANSI_A_(11.00_x_8.50_Inches)
  6

 40
6.35
 41
19.05
 42
6.35000508
 43
19.05000254
 44
279.4
 45
215.9
 46
-166.4720062841
 47
88.0103594639
 48
0.0
 49
0.0
140
0.0
141
0.0
142
0.0920848765
143
1.0
 70
  1696
 72
     0
 73
     0
 74
     0
  7

 75
     0
147
0.0179189148
148
-1300.4909072572
149
0.0
100
AcDbLayout
  1
Model
 70
     1
 71
     0
 10
0.0
 20
0.0
 11
420.0
 21
297.0
 12
0.0
 22
0.0
 32
0.0
 14
69.0560289534
 24
-10.0
 34
0.0
 15
187.3164905827
 25
10.7607148818
 35
0.0
146
0.0
 13
0.0
 23
0.0
 33
0.0
 16
1.0
 26
0.0
 36
0.0
 17
0.0
 27
1.0
 37
0.0
 76
     0
330
1F
331
29
  0
MLINESTYLE
  5
18
102
{ACAD_REACTORS
330
17
102
}
330
17
100
AcDbMlineStyle
  2
Standard
 70
     0
  3

 62
   256
 51
90.0
 52
90.0
 71
     2
 49
0.5
 62
   256
  6
BYLAYER
 49
-0.5
 62
   256
  6
BYLAYER
  0
ACDBPLACEHOLDER
  5
F
102
{ACAD_REACTORS
330
E
102
}
330
E
  0
SCALE
  5
48
102
{ACAD_REACTORS
330
47
102
}
330
47
100
AcDbScale
 70
     0
300
1:1
140
1.0
141
1.0
290
     1
  0
SCALE
  5
49
102
{ACAD_REACTORS
330
47
102
}
330
47
100
AcDbScale
 70
     0
300
1:2
140
1.0
141
2.0
290
     0
  0
SCALE
  5
4A
102
{ACAD_REACTORS
330
47
102
}
330
47
100
AcDbScale
 70
     0
300
1:4
140
1.0
141
4.0
290
     0
  0
SCALE
  5
4B
102
{ACAD_REACTORS
330
47
102
}
330
47
100
AcDbScale
 70
     0
300
1:5
140
1.0
141
5.0
290
     0
  0
SCALE
  5
4C
102
{ACAD_REACTORS
330
47
102
}
330
47
100
AcDbScale
 70
     0
300
1:8
140
1.0
141
8.0
290
     0
  0
SCALE
  5
4D
102
{ACAD_REACTORS
330
47
102
}
330
47
100
AcDbScale
 70
     0
300
1:10
140
1.0
141
10.0
290
     0
  0
SCALE
  5
4E
102
{ACAD_REACTORS
330
47
102
}
330
47
100
AcDbScale
 70
     0
300
1:16
140
1.0
141
16.0
290
     0
  0
SCALE
  5
4F
102
{ACAD_REACTORS
330
47
102
}
330
47
100
AcDbScale
 70
     0
300
1:20
140
1.0
141
20.0
290
     0
  0
SCALE
  5
50
102
{ACAD_REACTORS
330
47
102
}
330
47
100
AcDbScale
 70
     0
300
1:30
140
1.0
141
30.0
290
     0
  0
SCALE
  5
51
102
{ACAD_REACTORS
330
47
102
}
330
47
100
AcDbScale
 70
     0
300
1:40
140
1.0
141
40.0
290
     0
  0
SCALE
  5
52
102
{ACAD_REACTORS
330
47
102
}
330
47
100
AcDbScale
 70
     0
300
1:50
140
1.0
141
50.0
290
     0
  0
SCALE
  5
53
102
{ACAD_REACTORS
330
47
102
}
330
47
100
AcDbScale
 70
     0
300
1:100
140
1.0
141
100.0
290
     0
  0
SCALE
  5
54
102
{ACAD_REACTORS
330
47
102
}
330
47
100
AcDbScale
 70
     0
300
2:1
140
2.0
141
1.0
290
     0
  0
SCALE
  5
55
102
{ACAD_REACTORS
330
47
102
}
330
47
100
AcDbScale
 70
     0
300
4:1
140
4.0
141
1.0
290
     0
  0
SCALE
  5
56
102
{ACAD_REACTORS
330
47
102
}
330
47
100
AcDbScale
 70
     0
300
8:1
140
8.0
141
1.0
290
     0
  0
SCALE
  5
57
102
{ACAD_REACTORS
330
47
102
}
330
47
100
AcDbScale
 70
     0
300
10:1
140
10.0
141
1.0
290
     0
  0
SCALE
  5
58
102
{ACAD_REACTORS
330
47
102
}
330
47
100
AcDbScale
 70
     0
300
100:1
140
100.0
141
1.0
290
     0
  0
ENDSEC
  0
EOF
