  0
SECTION
  2
HEADER
  9
$ACADVER
  1
AC1015
  9
$ACADMAINTVER
 70
     6
  9
$DWGCODEPAGE
  3
ANSI_936
  9
$INSBASE
 10
0.0
 20
0.0
 30
0.0
  9
$EXTMIN
 10
45.1751460104
 20
-10.0
 30
0.0
  9
$EXTMAX
 10
152.316490584
 20
12.9490629533
 30
0.0
  9
$LIMMIN
 10
0.0
 20
0.0
  9
$LIMMAX
 10
420.0
 20
297.0
  9
$ORTHOMODE
 70
     0
  9
$REGENMODE
 70
     1
  9
$FILLMODE
 70
     1
  9
$QTEXTMODE
 70
     0
  9
$MIRRTEXT
 70
     1
  9
$LTSCALE
 40
1.0
  9
$ATTMODE
 70
     1
  9
$TEXTSIZE
 40
3.5
  9
$TRACEWID
 40
1.0
  9
$TEXTSTYLE
  7
Standard
  9
$CLAYER
  8
0
  9
$CELTYPE
  6
ByLayer
  9
$CECOLOR
 62
   256
  9
$CELTSCALE
 40
1.0
  9
$DISPSILH
 70
     0
  9
$DIMSCALE
 40
1.0
  9
$DIMASZ
 40
3.556
  9
$DIMEXO
 40
0.0
  9
$DIMDLI
 40
3.75
  9
$DIMRND
 40
0.0
  9
$DIMDLE
 40
0.0
  9
$DIMEXE
 40
1.0
  9
$DIMTP
 40
0.0
  9
$DIMTM
 40
0.0
  9
$DIMTXT
 40
3.5
  9
$DIMCEN
 40
2.5
  9
$DIMTSZ
 40
0.0
  9
$DIMTOL
 70
     0
  9
$DIMLIM
 70
     0
  9
$DIMTIH
 70
     1
  9
$DIMTOH
 70
     1
  9
$DIMSE1
 70
     0
  9
$DIMSE2
 70
     0
  9
$DIMTAD
 70
     1
  9
$DIMZIN
 70
     1
  9
$DIMBLK
  1

  9
$DIMASO
 70
     1
  9
$DIMSHO
 70
     1
  9
$DIMPOST
  1

  9
$DIMAPOST
  1

  9
$DIMALT
 70
     0
  9
$DIMALTD
 70
     3
  9
$DIMALTF
 40
0.0393700787
  9
$DIMLFAC
 40
1.0
  9
$DIMTOFL
 70
     1
  9
$DIMTVP
 40
0.0
  9
$DIMTIX
 70
     0
  9
$DIMSOXD
 70
     0
  9
$DIMSAH
 70
     0
  9
$DIMBLK1
  1

  9
$DIMBLK2
  1

  9
$DIMSTYLE
  2
ISO-25
  9
$DIMCLRD
 70
     0
  9
$DIMCLRE
 70
     0
  9
$DIMCLRT
 70
     0
  9
$DIMTFAC
 40
1.0
  9
$DIMGAP
 40
1.524
  9
$DIMJUST
 70
     0
  9
$DIMSD1
 70
     0
  9
$DIMSD2
 70
     0
  9
$DIMTOLJ
 70
     0
  9
$DIMTZIN
 70
     1
  9
$DIMALTZ
 70
     0
  9
$DIMALTTZ
 70
     0
  9
$DIMUPT
 70
     0
  9
$DIMDEC
 70
     2
  9
$DIMTDEC
 70
     2
  9
$DIMALTU
 70
     2
  9
$DIMALTTD
 70
     3
  9
$DIMTXSTY
  7
Standard
  9
$DIMAUNIT
 70
     0
  9
$DIMADEC
 70
     2
  9
$DIMALTRND
 40
0.0
  9
$DIMAZIN
 70
     0
  9
$DIMDSEP
 70
    44
  9
$DIMATFIT
 70
     3
  9
$DIMFRAC
 70
     0
  9
$DIMLDRBLK
  1

  9
$DIMLUNIT
 70
     2
  9
$DIMLWD
 70
    -2
  9
$DIMLWE
 70
    -2
  9
$DIMTMOVE
 70
     0
  9
$LUNITS
 70
     2
  9
$LUPREC
 70
     2
  9
$SKETCHINC
 40
1.0
  9
$FILLETRAD
 40
0.0
  9
$AUNITS
 70
     0
  9
$AUPREC
 70
     2
  9
$MENU
  1
.
  9
$ELEVATION
 40
0.0
  9
$PELEVATION
 40
0.0
  9
$THICKNESS
 40
0.0
  9
$LIMCHECK
 70
     0
  9
$CHAMFERA
 40
0.0
  9
$CHAMFERB
 40
0.0
  9
$CHAMFERC
 40
0.0
  9
$CHAMFERD
 40
0.0
  9
$SKPOLY
 70
     0
  9
$TDCREATE
 40
2461081.7194861
  9
$TDUCREATE
 40
2461081.386152766
  9
$TDUPDATE
 40
2461081.719653727
  9
$TDUUPDATE
 40
2461081.386320394
  9
$TDINDWG
 40
0.0000000116
  9
$TDUSRTIMER
 40
0.0000000116
  9
$USRTIMER
 70
     1
  9
$ANGBASE
 50
0.0
  9
$ANGDIR
 70
     0
  9
$PDMODE
 70
     0
  9
$PDSIZE
 40
-1.0
  9
$PLINEWID
 40
0.0
  9
$SPLFRAME
 70
     0
  9
$SPLINETYPE
 70
     6
  9
$SPLINESEGS
 70
     8
  9
$HANDSEED
  5
BA
  9
$SURFTAB1
 70
     6
  9
$SURFTAB2
 70
     6
  9
$SURFTYPE
 70
     6
  9
$SURFU
 70
     6
  9
$SURFV
 70
     6
  9
$UCSBASE
  2

  9
$UCSNAME
  2

  9
$UCSORG
 10
0.0
 20
0.0
 30
0.0
  9
$UCSXDIR
 10
1.0
 20
0.0
 30
0.0
  9
$UCSYDIR
 10
0.0
 20
1.0
 30
0.0
  9
$UCSORTHOREF
  2

  9
$UCSORTHOVIEW
 70
     0
  9
$UCSORGTOP
 10
0.0
 20
0.0
 30
0.0
  9
$UCSORGBOTTOM
 10
0.0
 20
0.0
 30
0.0
  9
$UCSORGLEFT
 10
0.0
 20
0.0
 30
0.0
  9
$UCSORGRIGHT
 10
0.0
 20
0.0
 30
0.0
  9
$UCSORGFRONT
 10
0.0
 20
0.0
 30
0.0
  9
$UCSORGBACK
 10
0.0
 20
0.0
 30
0.0
  9
$PUCSBASE
  2

  9
$PUCSNAME
  2

  9
$PUCSORG
 10
0.0
 20
0.0
 30
0.0
  9
$PUCSXDIR
 10
1.0
 20
0.0
 30
0.0
  9
$PUCSYDIR
 10
0.0
 20
1.0
 30
0.0
  9
$PUCSORTHOREF
  2

  9
$PUCSORTHOVIEW
 70
     0
  9
$PUCSORGTOP
 10
0.0
 20
0.0
 30
0.0
  9
$PUCSORGBOTTOM
 10
0.0
 20
0.0
 30
0.0
  9
$PUCSORGLEFT
 10
0.0
 20
0.0
 30
0.0
  9
$PUCSORGRIGHT
 10
0.0
 20
0.0
 30
0.0
  9
$PUCSORGFRONT
 10
0.0
 20
0.0
 30
0.0
  9
$PUCSORGBACK
 10
0.0
 20
0.0
 30
0.0
  9
$USERI1
 70
     0
  9
$USERI2
 70
     0
  9
$USERI3
 70
     0
  9
$USERI4
 70
     0
  9
$USERI5
 70
     0
  9
$USERR1
 40
0.0
  9
$USERR2
 40
0.0
  9
$USERR3
 40
0.0
  9
$USERR4
 40
0.0
  9
$USERR5
 40
0.0
  9
$WORLDVIEW
 70
     1
  9
$SHADEDGE
 70
     3
  9
$SHADEDIF
 70
    70
  9
$TILEMODE
 70
     1
  9
$MAXACTVP
 70
    64
  9
$PINSBASE
 10
0.0
 20
0.0
 30
0.0
  9
$PLIMCHECK
 70
     0
  9
$PEXTMIN
 10
1.0000000000E+20
 20
1.0000000000E+20
 30
1.0000000000E+20
  9
$PEXTMAX
 10
-1.0000000000E+20
 20
-1.0000000000E+20
 30
-1.0000000000E+20
  9
$PLIMMIN
 10
0.0
 20
0.0
  9
$PLIMMAX
 10
420.0
 20
297.0
  9
$UNITMODE
 70
     0
  9
$VISRETAIN
 70
     1
  9
$PLINEGEN
 70
     0
  9
$PSLTSCALE
 70
     1
  9
$TREEDEPTH
 70
  3020
  9
$CMLSTYLE
  2
Standard
  9
$CMLJUST
 70
     0
  9
$CMLSCALE
 40
20.0
  9
$PROXYGRAPHICS
 70
     1
  9
$MEASUREMENT
 70
     1
  9
$CELWEIGHT
370
    -1
  9
$ENDCAPS
280
     0
  9
$JOINSTYLE
280
     0
  9
$LWDISPLAY
290
     1
  9
$INSUNITS
 70
     4
  9
$HYPERLINKBASE
  1

  9
$STYLESHEET
  1

  9
$XEDIT
290
     1
  9
$CEPSNTYPE
380
     0
  9
$PSTYLEMODE
290
     1
  9
$FINGERPRINTGUID
  2
{951c2803-69ca-4adc-b274-6ad19b1b3c9d}
  9
$VERSIONGUID
  2
{FAEB1C32-E019-11D5-929B-00C0DF256EC4}
  9
$EXTNAMES
290
     1
  9
$PSVPSCALE
 40
0.0
  9
$OLESTARTUP
290
     0
  0
ENDSEC
  0
SECTION
  2
CLASSES
  0
CLASS
  1
ACDBDICTIONARYWDFLT
  2
AcDbDictionaryWithDefault
  3
ObjectDBX Classes
 90
        0
280
     0
281
     0
  0
CLASS
  1
VISUALSTYLE
  2
AcDbVisualStyle
  3
ObjectDBX Classes
 90
     4095
280
     0
281
     0
  0
CLASS
  1
MATERIAL
  2
AcDbMaterial
  3
ObjectDBX Classes
 90
     1153
280
     0
281
     0
  0
CLASS
  1
SCALE
  2
AcDbScale
  3
ObjectDBX Classes
 90
     1153
280
     0
281
     0
  0
CLASS
  1
TABLESTYLE
  2
AcDbTableStyle
  3
ObjectDBX Classes
 90
     4095
280
     0
281
     0
  0
CLASS
  1
MLEADERSTYLE
  2
AcDbMLeaderStyle
  3
ACDB_MLEADERSTYLE_CLASS
 90
     4095
280
     0
281
     0
  0
CLASS
  1
SUN
  2
AcDbSun
  3
SCENEOE
 90
     1153
280
     0
281
     0
  0
CLASS
  1
ACDBPLACEHOLDER
  2
AcDbPlaceHolder
  3
ObjectDBX Classes
 90
        0
280
     0
281
     0
  0
CLASS
  1
LAYOUT
  2
AcDbLayout
  3
ObjectDBX Classes
 90
        0
280
     0
281
     0
  0
ENDSEC
  0
SECTION
  2
TABLES
  0
TABLE
  2
VPORT
  5
8
330
0
100
AcDbSymbolTable
 70
     1
  0
VPORT
  5
29
330
8
100
AcDbSymbolTableRecord
100
AcDbViewportTableRecord
  2
*Active
 70
     0
 10
0.0
 20
0.0
 11
1.0
 21
1.0
 12
98.7458182972
 22
1.4745314766
 13
0.0
 23
0.0
 14
10.0
 24
10.0
 15
10.0
 25
10.0
 16
0.0
 26
0.0
 36
1.0
 17
0.0
 27
0.0
 37
0.0
 40
23.4080442124
 41
4.6686587941
 42
50.0
 43
0.0
 44
0.0
 50
0.0
 51
0.0
 71
     0
 72
   100
 73
     1
 74
     3
 75
     0
 76
     0
 77
     0
 78
     0
281
     0
 65
     1
110
0.0
120
0.0
130
0.0
111
1.0
121
0.0
131
0.0
112
0.0
122
1.0
132
0.0
 79
     0
146
0.0
  0
ENDTAB
  0
TABLE
  2
LTYPE
  5
5
330
0
100
AcDbSymbolTable
 70
     6
  0
LTYPE
  5
14
330
5
100
AcDbSymbolTableRecord
100
AcDbLinetypeTableRecord
  2
ByBlock
 70
     0
  3

 72
    65
 73
     0
 40
0.0
  0
LTYPE
  5
15
330
5
100
AcDbSymbolTableRecord
100
AcDbLinetypeTableRecord
  2
ByLayer
 70
     0
  3

 72
    65
 73
     0
 40
0.0
  0
LTYPE
  5
16
330
5
100
AcDbSymbolTableRecord
100
AcDbLinetypeTableRecord
  2
Continuous
 70
     0
  3
Solid line
 72
    65
 73
     0
 40
0.0
  0
LTYPE
  5
5E
330
5
100
AcDbSymbolTableRecord
100
AcDbLinetypeTableRecord
  2
HIDDEN
 70
     0
  3
Hidden __ __ __ __ __ __ __ __ __ __ __ __ __ __
 72
    65
 73
     2
 40
1.905
 49
1.27
 74
     0
 49
-0.635
 74
     0
  0
LTYPE
  5
5F
330
5
100
AcDbSymbolTableRecord
100
AcDbLinetypeTableRecord
  2
PHANTOM
 70
     0
  3
Phantom ______  __  __  ______  __  __  ______
 72
    65
 73
     6
 40
12.7
 49
6.35
 74
     0
 49
-1.27
 74
     0
 49
1.27
 74
     0
 49
-1.27
 74
     0
 49
1.27
 74
     0
 49
-1.27
 74
     0
  0
LTYPE
  5
60
330
5
100
AcDbSymbolTableRecord
100
AcDbLinetypeTableRecord
  2
CENTER
 70
     0
  3
Center ____ _ ____ _ ____ _ ____ _ ____ _ ____
 72
    65
 73
     4
 40
10.16
 49
6.35
 74
     0
 49
-1.27
 74
     0
 49
1.27
 74
     0
 49
-1.27
 74
     0
  0
LTYPE
  5
61
330
5
100
AcDbSymbolTableRecord
100
AcDbLinetypeTableRecord
  2
CENTERX2
 70
     0
  3
Center (2x) ________  __  ________  __  _____
 72
    65
 73
     4
 40
20.32
 49
12.7
 74
     0
 49
-2.54
 74
     0
 49
2.54
 74
     0
 49
-2.54
 74
     0
  0
LTYPE
  5
62
330
5
100
AcDbSymbolTableRecord
100
AcDbLinetypeTableRecord
  2
DOT2
 70
     0
  3
Dot (.5x) ........................................
 72
    65
 73
     2
 40
0.635
 49
0.0
 74
     0
 49
-0.635
 74
     0
  0
ENDTAB
  0
TABLE
  2
LAYER
  5
2
330
0
100
AcDbSymbolTable
 70
     1
  0
LAYER
  5
10
330
2
100
AcDbSymbolTableRecord
100
AcDbLayerTableRecord
  2
0
 70
     0
 62
     7
  6
Continuous
370
    -3
390
F
  0
ENDTAB
  0
TABLE
  2
STYLE
  5
3
330
0
100
AcDbSymbolTable
 70
     1
  0
STYLE
  5
11
330
3
100
AcDbSymbolTableRecord
100
AcDbTextStyleTableRecord
  2
Standard
 70
     0
 40
0.0
 41
1.0
 50
0.0
 71
     0
 42
3.5
  3
txt
  4

  0
ENDTAB
  0
TABLE
  2
VIEW
  5
6
330
0
100
AcDbSymbolTable
 70
     0
  0
ENDTAB
  0
TABLE
  2
UCS
  5
7
330
0
100
AcDbSymbolTable
 70
     0
  0
ENDTAB
  0
TABLE
  2
APPID
  5
9
330
0
100
AcDbSymbolTable
 70
     1
  0
APPID
  5
12
330
9
100
AcDbSymbolTableRecord
100
AcDbRegAppTableRecord
  2
ACAD
 70
     0
  0
ENDTAB
  0
TABLE
  2
DIMSTYLE
  5
A
330
0
100
AcDbSymbolTable
 70
     1
100
AcDbDimStyleTable
  0
DIMSTYLE
105
27
330
A
100
AcDbSymbolTableRecord
100
AcDbDimStyleTableRecord
  2
ISO-25
 70
     0
 41
2.5
 42
0.625
 43
3.75
 44
1.25
 73
     0
 74
     0
 77
     1
 78
     8
140
2.5
141
2.5
143
0.0393700787
147
0.625
171
     3
172
     1
178
     0
271
     2
272
     2
274
     3
278
    44
283
     0
284
     8
340
11
  0
ENDTAB
  0
TABLE
  2
BLOCK_RECORD
  5
1
330
0
100
AcDbSymbolTable
 70
     1
  0
BLOCK_RECORD
  5
1F
330
1
100
AcDbSymbolTableRecord
100
AcDbBlockTableRecord
  2
*Model_Space
340
22
  0
BLOCK_RECORD
  5
1B
330
1
100
AcDbSymbolTableRecord
100
AcDbBlockTableRecord
  2
*Paper_Space
340
1E
  0
BLOCK_RECORD
  5
23
330
1
100
AcDbSymbolTableRecord
100
AcDbBlockTableRecord
  2
*Paper_Space0
340
26
  0
ENDTAB
  0
ENDSEC
  0
SECTION
  2
BLOCKS
  0
BLOCK
  5
20
330
1F
100
AcDbEntity
  8
0
100
AcDbBlockBegin
  2
*Model_Space
 70
     0
 10
0.0
 20
0.0
 30
0.0
  3
*Model_Space
  1

  0
ENDBLK
  5
21
330
1F
100
AcDbEntity
  8
0
100
AcDbBlockEnd
  0
BLOCK
  5
1C
330
1B
100
AcDbEntity
 67
     1
  8
0
100
AcDbBlockBegin
  2
*Paper_Space
 70
     0
 10
0.0
 20
0.0
 30
0.0
  3
*Paper_Space
  1

  0
ENDBLK
  5
1D
330
1B
100
AcDbEntity
 67
     1
  8
0
100
AcDbBlockEnd
  0
BLOCK
  5
24
330
23
100
AcDbEntity
  8
0
100
AcDbBlockBegin
  2
*Paper_Space0
 70
     0
 10
0.0
 20
0.0
 30
0.0
  3
*Paper_Space0
  1

  0
ENDBLK
  5
25
330
23
100
AcDbEntity
  8
0
100
AcDbBlockEnd
  0
ENDSEC
  0
SECTION
  2
ENTITIES
  0
LINE
  5
63
330
1F
100
AcDbEntity
  8
0
  6
Continuous
 62
     7
370
    25
100
AcDbLine
 10
134.9382781484
 20
-2.1037625592
 30
0.0
 11
134.9382781484
 21
-2.0054278041
 31
0.0
  0
SPLINE
  5
64
330
1F
100
AcDbEntity
  8
0
  6
Continuous
 62
     7
370
    25
100
AcDbSpline
210
0.0
220
0.0
230
1.0
 70
     8
 71
     3
 72
     8
 73
     4
 74
     0
 42
0.00000001
 43
0.00000001
 40
0.1807080335470145
 40
0.1807080335470145
 40
0.1807080335470145
 40
0.1807080335470145
 40
0.1841564228789171
 40
0.1841564228789171
 40
0.1841564228789171
 40
0.1841564228789171
 10
134.938278261339
 20
-2.005430879779954
 30
0.0
 10
134.6051691211341
 20
-2.017663655694387
 30
0.0
 10
134.2720599606918
 20
-2.029895854365916
 30
0.0
 10
133.9389507735938
 20
-2.042127327701794
 30
0.0
  0
LINE
  5
65
330
1F
100
AcDbEntity
  8
0
  6
Continuous
 62
     7
370
    25
100
AcDbLine
 10
133.9389507041
 20
-2.0421254348
 30
0.0
 11
133.9389507041
 21
-2.1404321523
 31
0.0
  0
LINE
  5
66
330
1F
100
AcDbEntity
  8
0
  6
Continuous
 62
     7
370
    25
100
AcDbLine
 10
133.9389507041
 20
-2.1404321523
 30
0.0
 11
134.9382781484
 21
-2.1037625592
 31
0.0
  0
LINE
  5
67
330
1F
100
AcDbEntity
  8
0
  6
Continuous
 62
     7
370
    25
100
AcDbLine
 10
133.7390852152
 20
-2.1477660709
 30
0.0
 11
133.7390852152
 21
-2.0494645464
 31
0.0
  0
SPLINE
  5
68
330
1F
100
AcDbEntity
  8
0
  6
Continuous
 62
     7
370
    25
100
AcDbSpline
210
0.0
220
0.0
230
1.0
 70
     8
 71
     3
 72
     8
 73
     4
 74
     0
 42
0.00000001
 43
0.00000001
 40
0.1848461006934455
 40
0.1848461006934455
 40
0.1848461006934455
 40
0.1848461006934455
 40
0.1882944893813842
 40
0.1882944893813842
 40
0.1882944893813842
 40
0.1882944893813842
 10
133.7390852731115
 20
-2.049466122926555
 30
0.0
 10
133.4059761373003
 20
-2.061697297920393
 30
0.0
 10
133.0728669735499
 20
-2.073927717960315
 30
0.0
 10
132.7397577754417
 20
-2.086157234953656
 30
0.0
  0
LINE
  5
69
330
1F
100
AcDbEntity
  8
0
  6
Continuous
 62
     7
370
    25
100
AcDbLine
 10
132.7397577709
 20
-2.0861571118
 30
0.0
 11
132.7397577709
 21
-2.184435664
 31
0.0
  0
LINE
  5
6A
330
1F
100
AcDbEntity
  8
0
  6
Continuous
 62
     7
370
    25
100
AcDbLine
 10
132.7397577709
 20
-2.184435664
 30
0.0
 11
133.7390852152
 21
-2.1477660709
 31
0.0
  0
LINE
  5
6B
330
1F
100
AcDbEntity
  8
0
  6
Continuous
 62
     7
370
    25
100
AcDbLine
 10
132.5398922821
 20
-2.1917695826
 30
0.0
 11
132.5398922821
 21
-2.0934948259
 31
0.0
  0
SPLINE
  5
6C
330
1F
100
AcDbEntity
  8
0
  6
Continuous
 62
     7
370
    25
100
AcDbSpline
210
0.0
220
0.0
230
1.0
 70
     8
 71
     3
 72
     9
 73
     5
 74
     0
 42
0.00000001
 43
0.00000001
 40
0.1889841670234889
 40
0.1889841670234889
 40
0.1889841670234889
 40
0.1889841670234889
 40
0.1892100120264582
 40
0.192432554643362
 40
0.192432554643362
 40
0.192432554643362
 40
0.192432554643362
 10
132.5398922800732
 20
-2.093494834583484
 30
0.0
 10
132.518075989102
 20
-2.094295757169179
 30
0.0
 10
132.1849668778334
 20
-2.10652484214958
 30
0.0
 10
131.8518577305032
 20
-2.118752984766437
 30
0.0
 10
131.5405648510281
 20
-2.130179596145712
 30
0.0
  0
LINE
  5
6D
330
1F
100
AcDbEntity
  8
0
  6
Continuous
 62
     7
370
    25
100
AcDbLine
 10
131.5405648378
 20
-2.1301792345
 30
0.0
 11
131.5405648378
 21
-2.2284391757
 31
0.0
  0
LINE
  5
6E
330
1F
100
AcDbEntity
  8
0
  6
Continuous
 62
     7
370
    25
100
AcDbLine
 10
131.5405648378
 20
-2.2284391757
 30
0.0
 11
132.5398922821
 21
-2.1917695826
 31
0.0
  0
SPLINE
  5
6F
330
1F
100
AcDbEntity
  8
0
  6
Continuous
 62
     7
370
    25
100
AcDbSpline
210
0.0
220
0.0
230
1.0
 70
     8
 71
     3
 72
    11
 73
     7
 74
     0
 42
0.00000001
 43
0.00000001
 40
0.1276422691482506
 40
0.1276422691482506
 40
0.1276422691482506
 40
0.1276422691482506
 40
0.1424336665664461
 40
0.1580257817197835
 40
0.1736178968731208
 40
0.1800183556389839
 40
0.1800183556389839
 40
0.1800183556389839
 40
0.1800183556389839
 10
150.3164905853477
 20
-1.440607568144054
 30
0.0
 10
148.8876642444841
 20
-1.493081249591443
 30
0.0
 10
145.9526632015265
 20
-1.600869795388373
 30
0.0
 10
141.5114896135384
 20
-1.764001724031511
 30
0.0
 10
137.8808670381063
 20
-1.89736169942287
 30
0.0
 10
135.7564182772689
 20
-1.975385815698865
 30
0.0
 10
135.1381437551549
 20
-1.998091145703631
 30
0.0
  0
LINE
  5
70
330
1F
100
AcDbEntity
  8
0
  6
Continuous
 62
     7
370
    25
100
AcDbLine
 10
135.1381436373
 20
-1.998087936
 30
0.0
 11
135.1381436373
 21
-10.0
 31
0.0
  0
LINE
  5
71
330
1F
100
AcDbEntity
  8
0
  6
Continuous
 62
     7
370
    25
100
AcDbLine
 10
135.1381436373
 20
-10.0
 30
0.0
 11
131.1381436373
 21
-10.0
 31
0.0
  0
LINE
  5
72
330
1F
100
AcDbEntity
  8
0
  6
Continuous
 62
     7
370
    25
100
AcDbLine
 10
131.1381436373
 20
-10.0
 30
0.0
 11
131.1381436373
 21
-2.2432057287
 31
0.0
  0
LINE
  5
73
330
1F
100
AcDbEntity
  8
0
  6
Continuous
 62
     7
370
    25
100
AcDbLine
 10
131.1381436373
 20
-2.2432057287
 30
0.0
 11
131.3406993489
 21
-2.2357730943
 31
0.0
  0
LINE
  5
74
330
1F
100
AcDbEntity
  8
0
  6
Continuous
 62
     7
370
    25
100
AcDbLine
 10
131.3406993489
 20
-2.2357730943
 30
0.0
 11
131.3406993489
 21
-2.1375154997
 31
0.0
  0
SPLINE
  5
75
330
1F
100
AcDbEntity
  8
0
  6
Continuous
 62
     7
370
    25
100
AcDbSpline
210
0.0
220
0.0
230
1.0
 70
     8
 71
     3
 72
    19
 73
    15
 74
     0
 42
0.00000001
 43
0.00000001
 40
0.1931222320881109
 40
0.1931222320881109
 40
0.1931222320881109
 40
0.1931222320881109
 40
0.2048021271797955
 40
0.2203942423331328
 40
0.2359863574864702
 40
0.2515784726398074
 40
0.2671705877931448
 40
0.2827627029464821
 40
0.2983548180998195
 40
0.3139469332531569
 40
0.3295390484064942
 40
0.3451311635598315
 40
0.3529272211365002
 40
0.3536117326544113
 40
0.3536117326544113
 40
0.3536117326544113
 40
0.3536117326544113
 10
131.3406993656686
 20
-2.137515956685561
 30
0.0
 10
130.2124386311212
 20
-2.178929941259217
 30
0.0
 10
127.5780016945713
 20
-2.275609953935815
 30
0.0
 10
123.4373885240148
 20
-2.427552730898827
 30
0.0
 10
118.9188638488956
 20
-2.593456261451657
 30
0.0
 10
114.4003541242479
 20
-2.759765826810437
 30
0.0
 10
109.8818527069323
 20
-2.926300921497649
 30
0.0
 10
105.3633362192071
 20
-3.092427390788766
 30
0.0
 10
100.8447744122412
 20
-3.257317439235649
 30
0.0
 10
96.32616651059942
 20
-3.420938179024679
 30
0.0
 10
91.80760966665424
 20
-3.585967223073818
 30
0.0
 10
88.04226502641818
 20
-3.726734743460198
 30
0.0
 10
85.71701897481199
 20
-3.815822981902767
 30
0.0
 10
84.89784834468672
 20
-3.846961920660038
 30
0.0
 10
84.83172868792005
 20
-3.8494734896957
 30
0.0
  0
LINE
  5
76
330
1F
100
AcDbEntity
  8
0
  6
Continuous
 62
     7
370
    25
100
AcDbLine
 10
84.8317286879
 20
-9.9999999994
 30
0.0
 11
84.8317286879
 21
-3.8494734897
 31
0.0
  0
LINE
  5
77
330
1F
100
AcDbEntity
  8
0
  6
Continuous
 62
     7
370
    25
100
AcDbLine
 10
80.8317286879
 20
-9.9999999994
 30
0.0
 11
84.8317286879
 21
-9.9999999994
 31
0.0
  0
LINE
  5
78
330
1F
100
AcDbEntity
  8
0
  6
Continuous
 62
     7
370
    25
100
AcDbLine
 10
80.8317286879
 20
-4.0974332946
 30
0.0
 11
80.8317286879
 21
-9.9999999994
 31
0.0
  0
LINE
  5
79
330
1F
100
AcDbEntity
  8
0
  6
Continuous
 62
     7
370
    25
100
AcDbLine
 10
81.0343344655
 20
-4.0902262462
 30
0.0
 11
80.8317286879
 21
-4.0974332946
 31
0.0
  0
LINE
  5
7A
330
1F
100
AcDbEntity
  8
0
  6
Continuous
 62
     7
370
    25
100
AcDbLine
 10
81.0343344655
 20
-3.990162637
 30
0.0
 11
81.0343344655
 21
-4.0902262462
 31
0.0
  0
SPLINE
  5
7B
330
1F
100
AcDbEntity
  8
0
  6
Continuous
 62
     7
370
    25
100
AcDbSpline
210
0.0
220
0.0
230
1.0
 70
     8
 71
     3
 72
    74
 73
    70
 74
     0
 42
0.00000001
 43
0.00000001
 40
0.3667155999086537
 40
0.3667155999086537
 40
0.3667155999086537
 40
0.3667155999086537
 40
0.3685193362898376
 40
0.3763153938665063
 40
0.3841114514431748
 40
0.3919075090198435
 40
0.3997035665965122
 40
0.407499624173181
 40
0.4152956817498497
 40
0.4230917393265183
 40
0.4308877969031869
 40
0.4386838544798555
 40
0.4464799120565242
 40
0.4542759696331928
 40
0.4581739984215272
 40
0.4620720272098616
 40
0.465970055998196
 40
0.4698680847865303
 40
0.4737661135748646
 40
0.4757151279690318
 40
0.4776641423631989
 40
0.4815621711515332
 40
0.4854601999398676
 40
0.4874092143340347
 40
0.4893582287282019
 40
0.4913072431223691
 40
0.4932562575165362
 40
0.4952052719107034
 40
0.4971542863048706
 40
0.4991033006990377
 40
0.5010523150932048
 40
0.5030013294873721
 40
0.5049503438815393
 40
0.5068993582757064
 40
0.5088483726698736
 40
0.5107973870640408
 40
0.5127464014582079
 40
0.5146954158523751
 40
0.5166444302465423
 40
0.5205424590348766
 40
0.524440487823211
 40
0.5283385166115453
 40
0.5322365453998796
 40
0.536134574188214
 40
0.5400326029765483
 40
0.5439306317648827
 40
0.547828660553217
 40
0.5517266893415511
 40
0.5556247181298855
 40
0.5634207757065541
 40
0.5712168332832228
 40
0.5790128908598915
 40
0.5868089484365602
 40
0.5946050060132291
 40
0.6024010635898978
 40
0.6101971211665665
 40
0.6179931787432351
 40
0.6257892363199038
 40
0.641381351473241
 40
0.6569734666265783
 40
0.6725655817799157
 40
0.6881576969332529
 40
0.7037498120865904
 40
0.7193419272399277
 40
0.7349340423932651
 40
0.7505261575466025
 40
0.7661182726999396
 40
0.781710387853277
 40
0.7847080734862201
 40
0.7847080734862201
 40
0.7847080734862201
 40
0.7847080734862201
 10
81.0343344654832
 20
-3.990162636987631
 30
0.0
 10
80.86008969455035
 20
-3.996378836394235
 30
0.0
 10
79.93272076905502
 20
-4.029227279947602
 30
0.0
 10
78.25213999718942
 20
-4.086237265551677
 30
0.0
 10
75.99240746295783
 20
-4.155312232313167
 30
0.0
 10
73.7323928270903
 20
-4.21462455304232
 30
0.0
 10
71.47209743968345
 20
-4.261989837490542
 30
0.0
 10
69.21152775206113
 20
-4.294554406549189
 30
0.0
 10
66.95077624746864
 20
-4.309043222637842
 30
0.0
 10
64.68995942575893
 20
-4.302932683770401
 30
0.0
 10
62.42936862302401
 20
-4.271940440907014
 30
0.0
 10
60.16921820301785
 20
-4.21554547134941
 30
0.0
 10
57.91022042946126
 20
-4.124630924141906
 30
0.0
 10
56.02863676517344
 20
-4.028818419895892
 30
0.0
 10
54.52426263470551
 20
-3.936408955527503
 30
0.0
 10
53.39756066049402
 20
-3.843957181969663
 30
0.0
 10
52.27364989404551
 20
-3.721975816915173
 30
0.0
 10
51.15478592701005
 20
-3.559324787319431
 30
0.0
 10
50.228069279412
 20
-3.389668650280184
 30
0.0
 10
49.48913923829244
 20
-3.241915883459537
 30
0.0
 10
48.74991843691774
 20
-3.095212329572716
 30
0.0
 10
47.83218905233119
 20
-2.880143867557691
 30
0.0
 10
46.95401662543516
 20
-2.523555806200199
 30
0.0
 10
46.32548278550824
 20
-2.10363212274104
 30
0.0
 10
45.8941929440555
 20
-1.737206963767632
 30
0.0
 10
45.51929192827673
 20
-1.311609756006167
 30
0.0
 10
45.22613913757342
 20
-0.8247903707635151
 30
0.0
 10
45.08588801226845
 20
-0.2668067334493763
 30
0.0
 10
45.17061179256007
 20
0.3016998862445609
 30
0.0
 10
45.40657121333922
 20
0.8181380376393914
 30
0.0
 10
45.7192238548462
 20
1.29028823009277
 30
0.0
 10
46.07830606283886
 20
1.727378409556937
 30
0.0
 10
46.46334818671831
 20
2.141282130851158
 30
0.0
 10
46.86194127226441
 20
2.542053299275586
 30
0.0
 10
47.26533690785574
 20
2.937937327541733
 30
0.0
 10
47.67779009582868
 20
3.324456217621814
 30
0.0
 10
48.10282004208334
 20
3.697173330010917
 30
0.0
 10
48.54238880982367
 20
4.052611803758288
 30
0.0
 10
49.14547193762591
 20
4.50473950486059
 30
0.0
 10
49.93023630934394
 20
5.02685581104567
 30
0.0
 10
50.90896396644371
 20
5.593248466998074
 30
0.0
 10
51.91296717501439
 20
6.113189492236387
 30
0.0
 10
52.93751300329284
 20
6.591289975699078
 30
0.0
 10
53.97736986266806
 20
7.034843883784385
 30
0.0
 10
55.02872502744053
 20
7.450357677929583
 30
0.0
 10
56.08922917422003
 20
7.84181010070071
 30
0.0
 10
57.15633307838927
 20
8.214856674945555
 30
0.0
 10
58.22930528791989
 20
8.570662939697323
 30
0.0
 10
59.66776102538048
 20
9.020838364191723
 30
0.0
 10
61.47977127269188
 20
9.537516225745946
 30
0.0
 10
63.67184495493056
 20
10.091562984732
 30
0.0
 10
65.87776090741765
 20
10.58745711984752
 30
0.0
 10
68.0949534203965
 20
11.03006893519116
 30
0.0
 10
70.32208902888868
 20
11.41968096205709
 30
0.0
 10
72.55822751224724
 20
11.75377849002371
 30
0.0
 10
74.80216285100168
 20
12.03089824868243
 30
0.0
 10
77.05191158001199
 20
12.2550187457843
 30
0.0
 10
80.05690543805208
 20
12.49507529041483
 30
0.0
 10
83.81977579768187
 20
12.69781524980155
 30
0.0
 10
88.33896631874785
 20
12.8476139324636
 30
0.0
 10
92.85964371356421
 20
12.94236974529045
 30
0.0
 10
97.38135662958231
 20
12.96272582112068
 30
0.0
 10
101.9027015401875
 20
12.89935000937537
 30
0.0
 10
106.4217479571656
 20
12.74111328564966
 30
0.0
 10
110.9370466237442
 20
12.50012073679885
 30
0.0
 10
115.4477383163547
 20
12.18464455229006
 30
0.0
 10
119.9534286502268
 20
11.80475630328312
 30
0.0
 10
123.2416826730966
 20
11.48021338512191
 30
0.0
 10
125.0284145172485
 20
11.28875531258075
 30
0.0
 10
125.3164904992719
 20
11.25749280760813
 30
0.0
  0
LINE
  5
7C
330
1F
100
AcDbEntity
  8
0
  6
Continuous
 62
     7
370
    25
100
AcDbLine
 10
125.3164905824
 20
4.3744408746
 30
0.0
 11
125.3164905824
 21
11.2574935739
 31
0.0
  0
LINE
  5
7D
330
1F
100
AcDbEntity
  8
0
  6
Continuous
 62
     7
370
    25
100
AcDbLine
 10
127.3164905824
 20
4.3744408746
 30
0.0
 11
125.3164905824
 21
4.3744408746
 31
0.0
  0
LINE
  5
7E
330
1F
100
AcDbEntity
  8
0
  6
Continuous
 62
     7
370
    25
100
AcDbLine
 10
127.3164905824
 20
11.0341163599
 30
0.0
 11
127.3164905824
 21
4.3744408746
 31
0.0
  0
SPLINE
  5
7F
330
1F
100
AcDbEntity
  8
0
  6
Continuous
 62
     7
370
    25
100
AcDbSpline
210
0.0
220
0.0
230
1.0
 70
     8
 71
     3
 72
    13
 73
     9
 74
     0
 42
0.00000001
 43
0.00000001
 40
0.7916477342726896
 40
0.7916477342726896
 40
0.7916477342726896
 40
0.7916477342726896
 40
0.7973025030066143
 40
0.8128946181599519
 40
0.8284867333132891
 40
0.8440788484666266
 40
0.8596709636199638
 40
0.8718206627149739
 40
0.8718206627149739
 40
0.8718206627149739
 40
0.8718206627149739
 10
127.3164906246267
 20
11.034116727333
 30
0.0
 10
127.8595307141215
 20
10.97174402263516
 30
0.0
 10
129.8993173725841
 20
10.73218145852982
 30
0.0
 10
133.4319246298176
 20
10.28286383162358
 30
0.0
 10
137.9098563700908
 20
9.65550748716296
 30
0.0
 10
142.3803151454139
 20
8.977304982723078
 30
0.0
 10
146.5156434314085
 20
8.309599020562299
 30
0.0
 10
149.1593543479102
 20
7.860292403227461
 30
0.0
 10
150.316490699171
 20
7.659496179556687
 30
0.0
  0
LINE
  5
80
330
1F
100
AcDbEntity
  8
0
  6
Continuous
 62
     7
370
    25
100
AcDbLine
 10
150.3164905827
 20
5.4182190765
 30
0.0
 11
150.3164905827
 21
7.6594955083
 31
0.0
  0
LINE
  5
81
330
1F
100
AcDbEntity
  8
0
  6
Continuous
 62
     7
370
    25
100
AcDbLine
 10
152.316490584
 20
5.4182190765
 30
0.0
 11
150.3164905827
 21
5.4182190765
 31
0.0
  0
LINE
  5
82
330
1F
100
AcDbEntity
  8
0
  6
Continuous
 62
     7
370
    25
100
AcDbLine
 10
152.316490584
 20
2.4182190765
 30
0.0
 11
152.316490584
 21
5.4182190765
 31
0.0
  0
LINE
  5
83
330
1F
100
AcDbEntity
  8
0
  6
Continuous
 62
     7
370
    25
100
AcDbLine
 10
150.3164905827
 20
2.4182190765
 30
0.0
 11
152.316490584
 21
2.4182190765
 31
0.0
  0
LINE
  5
84
330
1F
100
AcDbEntity
  8
0
  6
Continuous
 62
     7
370
    25
100
AcDbLine
 10
150.3164905827
 20
-1.4406074955
 30
0.0
 11
150.3164905827
 21
2.4182190765
 31
0.0
  0
SPLINE
  5
85
330
1F
100
AcDbEntity
  8
0
  6
Continuous
 62
     7
370
    25
100
AcDbSpline
210
0.0
220
0.0
230
1.0
 70
     8
 71
     3
 72
     8
 73
     4
 74
     0
 42
0.00000001
 43
0.00000001
 40
0.3543014098069731
 40
0.3543014098069731
 40
0.3543014098069731
 40
0.3543014098069731
 40
0.3577497957259531
 40
0.3577497957259531
 40
0.3577497957259531
 40
0.3577497957259531
 10
84.63187259213703
 20
-3.857059295343548
 30
0.0
 10
84.29877870614388
 20
-3.869692332985633
 30
0.0
 10
83.96568286284905
 20
-3.882273662019975
 30
0.0
 10
83.6325840479488
 20
-3.894775579130922
 30
0.0
  0
LINE
  5
86
330
1F
100
AcDbEntity
  8
0
  6
Continuous
 62
     7
370
    25
100
AcDbLine
 10
83.6325840479
 20
-3.9948459841
 30
0.0
 11
83.6325840479
 21
-3.8947755791
 31
0.0
  0
LINE
  5
87
330
1F
100
AcDbEntity
  8
0
  6
Continuous
 62
     7
370
    25
100
AcDbLine
 10
84.6318725921
 20
-3.9571311877
 30
0.0
 11
83.6325840479
 21
-3.9948459841
 31
0.0
  0
LINE
  5
88
330
1F
100
AcDbEntity
  8
0
  6
Continuous
 62
     7
370
    25
100
AcDbLine
 10
84.6318725921
 20
-3.8570592953
 30
0.0
 11
84.6318725921
 21
-3.9571311877
 31
0.0
  0
SPLINE
  5
89
330
1F
100
AcDbEntity
  8
0
  6
Continuous
 62
     7
370
    25
100
AcDbSpline
210
0.0
220
0.0
230
1.0
 70
     8
 71
     3
 72
     9
 73
     5
 74
     0
 42
0.00000001
 43
0.00000001
 40
0.3584394729386254
 40
0.3584394729386254
 40
0.3584394729386254
 40
0.3584394729386254
 40
0.3607232787131689
 40
0.3618878590720592
 40
0.3618878590720592
 40
0.3618878590720592
 40
0.3618878590720592
 10
83.43272438593355
 20
-3.9022669786534
 30
0.0
 10
83.21211804368437
 20
-3.910525008883567
 30
0.0
 10
82.87901587646073
 20
-3.922937791248382
 30
0.0
 10
82.54590986301477
 20
-3.935247273591424
 30
0.0
 10
82.4334136500347
 20
-3.939391328484196
 30
0.0
  0
LINE
  5
8A
330
1F
100
AcDbEntity
  8
0
  6
Continuous
 62
     7
370
    25
100
AcDbLine
 10
82.43341365
 20
-4.0394591501
 30
0.0
 11
82.43341365
 21
-3.9393913285
 31
0.0
  0
LINE
  5
8B
330
1F
100
AcDbEntity
  8
0
  6
Continuous
 62
     7
370
    25
100
AcDbLine
 10
83.432724386
 20
-4.0023370133
 30
0.0
 11
82.43341365
 21
-4.0394591501
 31
0.0
  0
LINE
  5
8C
330
1F
100
AcDbEntity
  8
0
  6
Continuous
 62
     7
370
    25
100
AcDbLine
 10
83.432724386
 20
-3.9022669787
 30
0.0
 11
83.432724386
 21
-4.0023370133
 31
0.0
  0
SPLINE
  5
8D
330
1F
100
AcDbEntity
  8
0
  6
Continuous
 62
     7
370
    25
100
AcDbSpline
210
0.0
220
0.0
230
1.0
 70
     8
 71
     3
 72
     8
 73
     4
 74
     0
 42
0.00000001
 43
0.00000001
 40
0.362577536284626
 40
0.362577536284626
 40
0.362577536284626
 40
0.362577536284626
 40
0.3660259226299953
 40
0.3660259226299953
 40
0.3660259226299953
 40
0.3660259226299953
 10
82.23354867526875
 20
-3.946739769692049
 30
0.0
 10
81.90043948283493
 20
-3.958963354876112
 30
0.0
 10
81.56732584704368
 20
-3.97106561629018
 30
0.0
 10
81.23420665739613
 20
-3.983013034964485
 30
0.0
  0
LINE
  5
8E
330
1F
100
AcDbEntity
  8
0
  6
Continuous
 62
     7
370
    25
100
AcDbLine
 10
81.2342066574
 20
-4.0830773243
 30
0.0
 11
81.2342066574
 21
-3.983013035
 31
0.0
  0
LINE
  5
8F
330
1F
100
AcDbEntity
  8
0
  6
Continuous
 62
     7
370
    25
100
AcDbLine
 10
82.2335486753
 20
-4.0468070699
 30
0.0
 11
81.2342066574
 21
-4.0830773243
 31
0.0
  0
LINE
  5
90
330
1F
100
AcDbEntity
  8
0
  6
Continuous
 62
     7
370
    25
100
AcDbLine
 10
82.2335486753
 20
-3.9467397697
 30
0.0
 11
82.2335486753
 21
-4.0468070699
 31
0.0
  0
LINE
  5
91
330
1F
100
AcDbEntity
  8
0
  6
Continuous
 62
     7
370
    25
100
AcDbLine
 10
108.1792212714
 20
8.1917313128
 30
0.0
 11
114.9521695889
 21
1.4187829953
 31
0.0
  0
ARC
  5
92
330
1F
100
AcDbEntity
  8
0
  6
Continuous
 62
     7
370
    25
100
AcDbCircle
 10
107.4721144902
 20
7.4846245316
 30
0.0
 40
1.000000000000002
100
AcDbArc
 50
45.0
 51
180.0
  0
LINE
  5
93
330
1F
100
AcDbEntity
  8
0
  6
Continuous
 62
     7
370
    25
100
AcDbLine
 10
106.4721144902
 20
0.7116762141
 30
0.0
 11
106.4721144902
 21
7.4846245316
 31
0.0
  0
ARC
  5
94
330
1F
100
AcDbEntity
  8
0
  6
Continuous
 62
     7
370
    25
100
AcDbCircle
 10
107.4721144902
 20
0.7116762141
 30
0.0
 40
1.0
100
AcDbArc
 50
180.0
 51
270.0
  0
LINE
  5
95
330
1F
100
AcDbEntity
  8
0
  6
Continuous
 62
     7
370
    25
100
AcDbLine
 10
114.2450628077
 20
-0.2883237859
 30
0.0
 11
107.4721144902
 21
-0.2883237859
 31
0.0
  0
ARC
  5
96
330
1F
100
AcDbEntity
  8
0
  6
Continuous
 62
     7
370
    25
100
AcDbCircle
 10
114.2450628077
 20
0.7116762141
 30
0.0
 40
1.000000000000004
100
AcDbArc
 50
270.0
 51
45.0
  0
LINE
  5
97
330
1F
100
AcDbEntity
  8
0
  6
Continuous
 62
     7
370
    25
100
AcDbLine
 10
103.8309984473
 20
7.2917403946
 30
0.0
 11
103.8309984473
 21
0.7116762141
 31
0.0
  0
ARC
  5
98
330
1F
100
AcDbEntity
  8
0
  6
Continuous
 62
     7
370
    25
100
AcDbCircle
 10
102.8309984473
 20
7.2917403946
 30
0.0
 40
1.0
100
AcDbArc
 50
360.0
 51
138.0295406556
  0
LINE
  5
99
330
1F
100
AcDbEntity
  8
0
  6
Continuous
 62
     7
370
    25
100
AcDbLine
 10
96.1689324821
 20
1.3804235797
 30
0.0
 11
102.0875087291
 21
7.9604877602
 31
0.0
  0
ARC
  5
9A
330
1F
100
AcDbEntity
  8
0
  6
Continuous
 62
     7
370
    25
100
AcDbCircle
 10
96.9124222003
 20
0.7116762141
 30
0.0
 40
1.0
100
AcDbArc
 50
138.0295406556
 51
270.0
  0
LINE
  5
9B
330
1F
100
AcDbEntity
  8
0
  6
Continuous
 62
     7
370
    25
100
AcDbLine
 10
102.8309984473
 20
-0.2883237859
 30
0.0
 11
96.9124222003
 21
-0.2883237859
 31
0.0
  0
ARC
  5
9C
330
1F
100
AcDbEntity
  8
0
  6
Continuous
 62
     7
370
    25
100
AcDbCircle
 10
102.8309984473
 20
0.7116762141
 30
0.0
 40
1.0
100
AcDbArc
 50
270.0
 51
0.0
  0
LINE
  5
9D
330
1F
100
AcDbEntity
  8
0
  6
Continuous
 62
     7
370
    25
100
AcDbLine
 10
91.5956241261
 20
2.3187739134
 30
0.0
 11
91.5956241261
 21
8.898838094
 31
0.0
  0
ARC
  5
9E
330
1F
100
AcDbEntity
  8
0
  6
Continuous
 62
     7
370
    25
100
AcDbCircle
 10
92.5956241261
 20
2.3187739134
 30
0.0
 40
1.0
100
AcDbArc
 50
180.0
 51
318.0295406556
  0
LINE
  5
9F
330
1F
100
AcDbEntity
  8
0
  6
Continuous
 62
     7
370
    25
100
AcDbLine
 10
99.2576900913
 20
8.2300907284
 30
0.0
 11
93.3391138442
 21
1.6500265479
 31
0.0
  0
ARC
  5
A0
330
1F
100
AcDbEntity
  8
0
  6
Continuous
 62
     7
370
    25
100
AcDbCircle
 10
98.5142003731
 20
8.898838094
 30
0.0
 40
1.000000000000013
100
AcDbArc
 50
318.0295406556
 51
90.0
  0
LINE
  5
A1
330
1F
100
AcDbEntity
  8
0
  6
Continuous
 62
     7
370
    25
100
AcDbLine
 10
92.5956241261
 20
9.898838094
 30
0.0
 11
98.5142003731
 21
9.898838094
 31
0.0
  0
ARC
  5
A2
330
1F
100
AcDbEntity
  8
0
  6
Continuous
 62
     7
370
    25
100
AcDbCircle
 10
92.5956241261
 20
8.898838094
 30
0.0
 40
1.0
100
AcDbArc
 50
90.0
 51
180.0
  0
LINE
  5
A3
330
1F
100
AcDbEntity
  8
0
  6
Continuous
 62
     7
370
    25
100
AcDbLine
 10
87.4239060176
 20
1.3352562955
 30
0.0
 11
80.2923236957
 21
8.1772312134
 31
0.0
  0
ARC
  5
A4
330
1F
100
AcDbEntity
  8
0
  6
Continuous
 62
     7
370
    25
100
AcDbCircle
 10
88.1162090654
 20
2.056863176
 30
0.0
 40
1.000000000000002
100
AcDbArc
 50
226.1873073157
 51
0.0
  0
LINE
  5
A5
330
1F
100
AcDbEntity
  8
0
  6
Continuous
 62
     7
370
    25
100
AcDbLine
 10
89.1162090654
 20
8.898838094
 30
0.0
 11
89.1162090654
 21
2.056863176
 31
0.0
  0
ARC
  5
A6
330
1F
100
AcDbEntity
  8
0
  6
Continuous
 62
     7
370
    25
100
AcDbCircle
 10
88.1162090654
 20
8.898838094
 30
0.0
 40
1.0
100
AcDbArc
 50
0.0
 51
90.0
  0
LINE
  5
A7
330
1F
100
AcDbEntity
  8
0
  6
Continuous
 62
     7
370
    25
100
AcDbLine
 10
80.9846267435
 20
9.898838094
 30
0.0
 11
88.1162090654
 21
9.898838094
 31
0.0
  0
ARC
  5
A8
330
1F
100
AcDbEntity
  8
0
  6
Continuous
 62
     7
370
    25
100
AcDbCircle
 10
80.9846267435
 20
8.898838094
 30
0.0
 40
1.000000000000002
100
AcDbArc
 50
90.0
 51
226.1873073157
  0
LINE
  5
A9
330
1F
100
AcDbEntity
  8
0
  6
Continuous
 62
     7
370
    25
100
AcDbLine
 10
111.4735437681
 20
9.898838094
 30
0.0
 11
118.2464920856
 21
9.898838094
 31
0.0
  0
ARC
  5
AA
330
1F
100
AcDbEntity
  8
0
  6
Continuous
 62
     7
370
    25
100
AcDbCircle
 10
111.4735437681
 20
8.898838094
 30
0.0
 40
1.000000000000003
100
AcDbArc
 50
90.0
 51
225.0
  0
LINE
  5
AB
330
1F
100
AcDbEntity
  8
0
  6
Continuous
 62
     7
370
    25
100
AcDbLine
 10
117.5393853044
 20
1.4187829953
 30
0.0
 11
110.7664369869
 21
8.1917313128
 31
0.0
  0
ARC
  5
AC
330
1F
100
AcDbEntity
  8
0
  6
Continuous
 62
     7
370
    25
100
AcDbCircle
 10
118.2464920856
 20
2.1258897765
 30
0.0
 40
1.000000000000009
100
AcDbArc
 50
225.0
 51
0.0
  0
LINE
  5
AD
330
1F
100
AcDbEntity
  8
0
  6
Continuous
 62
     7
370
    25
100
AcDbLine
 10
119.2464920856
 20
8.898838094
 30
0.0
 11
119.2464920856
 21
2.1258897765
 31
0.0
  0
ARC
  5
AE
330
1F
100
AcDbEntity
  8
0
  6
Continuous
 62
     7
370
    25
100
AcDbCircle
 10
118.2464920856
 20
8.898838094
 30
0.0
 40
1.0
100
AcDbArc
 50
0.0
 51
90.0
  0
LINE
  5
AF
330
1F
100
AcDbEntity
  8
0
  6
Continuous
 62
     7
370
    25
100
AcDbLine
 10
83.9344105178
 20
-0.2883237859
 30
0.0
 11
76.802828196
 21
-0.2883237859
 31
0.0
  0
ARC
  5
B0
330
1F
100
AcDbEntity
  8
0
  6
Continuous
 62
     7
370
    25
100
AcDbCircle
 10
83.9344105178
 20
0.7116762141
 30
0.0
 40
1.000000000000004
100
AcDbArc
 50
270.0
 51
46.1873073157
  0
LINE
  5
B1
330
1F
100
AcDbEntity
  8
0
  6
Continuous
 62
     7
370
    25
100
AcDbLine
 10
77.4951312438
 20
8.2752580126
 30
0.0
 11
84.6267135656
 21
1.4332830946
 31
0.0
  0
ARC
  5
B2
330
1F
100
AcDbEntity
  8
0
  6
Continuous
 62
     7
370
    25
100
AcDbCircle
 10
76.802828196
 20
7.5536511321
 30
0.0
 40
1.0
100
AcDbArc
 50
46.1873073157
 51
180.0
  0
LINE
  5
B3
330
1F
100
AcDbEntity
  8
0
  6
Continuous
 62
     7
370
    25
100
AcDbLine
 10
75.802828196
 20
0.7116762141
 30
0.0
 11
75.802828196
 21
7.5536511321
 31
0.0
  0
ARC
  5
B4
330
1F
100
AcDbEntity
  8
0
  6
Continuous
 62
     7
370
    25
100
AcDbCircle
 10
76.802828196
 20
0.7116762141
 30
0.0
 40
1.0
100
AcDbArc
 50
180.0
 51
270.0
  0
SPLINE
  5
B5
330
1F
100
AcDbEntity
  8
0
  6
Continuous
 62
     7
370
    25
100
AcDbSpline
210
0.0
220
0.0
230
1.0
 70
     8
 71
     3
 72
     9
 73
     5
 74
     0
 42
0.00000001
 43
0.00000001
 40
0.0
 40
0.0
 40
0.0
 40
0.0
 40
0.5
 40
1.0
 40
1.0
 40
1.0
 40
1.0
 10
64.35315569302942
 20
-2.32178046777043
 30
0.0
 10
64.33091316267002
 20
-2.322505231828569
 30
0.0
 10
64.28641039884364
 20
-2.323592738404802
 30
0.0
 10
64.24188992055726
 20
-2.323955336780851
 30
0.0
 10
64.21962968121822
 20
-2.323955336780851
 30
0.0
  0
ARC
  5
B6
330
1F
100
AcDbEntity
  8
0
  6
Continuous
 62
     7
370
    25
100
AcDbCircle
 10
64.4866817043
 20
1.7760446632
 30
0.0
 40
4.099999999999421
100
AcDbArc
 50
268.1337000153
 51
91.8662999914
  0
SPLINE
  5
B7
330
1F
100
AcDbEntity
  8
0
  6
Continuous
 62
     7
370
    25
100
AcDbSpline
210
0.0
220
0.0
230
1.0
 70
     8
 71
     3
 72
     9
 73
     5
 74
     0
 42
0.00000001
 43
0.00000001
 40
0.0
 40
0.0
 40
0.0
 40
0.0
 40
0.5
 40
1.0
 40
1.0
 40
1.0
 40
1.0
 10
64.21962968121805
 20
5.87604466321914
 30
0.0
 10
64.24188992047536
 20
5.87604466321914
 30
0.0
 10
64.28641039898946
 20
5.875682064826637
 30
0.0
 10
64.3309131622614
 20
5.87459455827751
 30
0.0
 10
64.35315569253925
 20
5.873869794224689
 30
0.0
  0
SPLINE
  5
B8
330
1F
100
AcDbEntity
  8
0
  6
Continuous
 62
     7
370
    25
100
AcDbSpline
210
0.0
220
0.0
230
1.0
 70
     8
 71
     3
 72
    10
 73
     6
 74
     0
 42
0.00000001
 43
0.00000001
 40
0.0
 40
0.0
 40
0.0
 40
0.0
 40
0.5
 40
0.5
 40
1.0
 40
1.0
 40
1.0
 40
1.0
 10
64.21962968121807
 20
-2.323955336780851
 30
0.0
 10
61.48629634788474
 20
-2.323955336780851
 30
0.0
 10
60.11962968121808
 20
0.4093779965524799
 30
0.0
 10
60.11962968121806
 20
3.142711329885809
 30
0.0
 10
61.48629634788474
 20
5.876044663219126
 30
0.0
 10
64.21962968121805
 20
5.87604466321914
 30
0.0
  0
ENDSEC
  0
SECTION
  2
OBJECTS
  0
DICTIONARY
  5
C
330
0
100
AcDbDictionary
281
     1
  3
ACAD_GROUP
350
D
  3
ACAD_LAYOUT
350
1A
  3
ACAD_MLINESTYLE
350
17
  3
ACAD_PLOTSETTINGS
350
19
  3
ACAD_PLOTSTYLENAME
350
E
  3
ACAD_SCALELIST
350
47
  3
DWGPROPS
350
B9
  0
DICTIONARY
  5
D
102
{ACAD_REACTORS
330
C
102
}
330
C
100
AcDbDictionary
281
     1
  0
DICTIONARY
  5
1A
102
{ACAD_REACTORS
330
C
102
}
330
C
100
AcDbDictionary
281
     1
  3
Layout1
350
1E
  3
Layout2
350
26
  3
Model
350
22
  0
DICTIONARY
  5
17
102
{ACAD_REACTORS
330
C
102
}
330
C
100
AcDbDictionary
281
     1
  3
Standard
350
18
  0
DICTIONARY
  5
19
102
{ACAD_REACTORS
330
C
102
}
330
C
100
AcDbDictionary
281
     1
  0
ACDBDICTIONARYWDFLT
  5
E
102
{ACAD_REACTORS
330
C
102
}
330
C
100
AcDbDictionary
281
     1
  3
Normal
350
F
100
AcDbDictionaryWithDefault
340
F
  0
DICTIONARY
  5
47
102
{ACAD_REACTORS
330
C
102
}
330
C
100
AcDbDictionary
281
     1
  3
A0
350
48
  3
A1
350
49
  3
A2
350
4A
  3
A3
350
4B
  3
A4
350
4C
  3
A5
350
4D
  3
A6
350
4E
  3
A7
350
4F
  3
A8
350
50
  3
A9
350
51
  3
B0
350
52
  3
B1
350
53
  3
B2
350
54
  3
B3
350
55
  3
B4
350
56
  3
B5
350
57
  3
B6
350
58
  0
XRECORD
  5
B9
102
{ACAD_REACTORS
330
C
102
}
330
C
100
AcDbXrecord
280
     1
  1
DWGPROPS COOKIE
  2

  3

  4

  6

  7

  8
CX_in_command
  9

300
=
301
=
302
=
303
=
304
=
305
=
306
=
307
=
308
=
309
=
 40
0.0
 41
2461081.386152766
 42
2461081.386320394
  1

 90
        0
  0
LAYOUT
  5
1E
102
{ACAD_REACTORS
330
1A
102
}
330
1A
100
AcDbPlotSettings
  1

  2
none_device
  4

  6

 40
0.0
 41
0.0
 42
0.0
 43
0.0
 44
0.0
 45
0.0
 46
0.0
 47
0.0
 48
0.0
 49
0.0
140
0.0
141
0.0
142
1.0
143
1.0
 70
   688
 72
     1
 73
     0
 74
     5
  7

 75
    16
147
1.0
148
0.0
149
0.0
100
AcDbLayout
  1
Layout1
 70
     1
 71
     1
 10
0.0
 20
0.0
 11
420.0
 21
297.0
 12
0.0
 22
0.0
 32
0.0
 14
1.0000000000E+20
 24
1.0000000000E+20
 34
1.0000000000E+20
 15
-1.0000000000E+20
 25
-1.0000000000E+20
 35
-1.0000000000E+20
146
0.0
 13
0.0
 23
0.0
 33
0.0
 16
1.0
 26
0.0
 36
0.0
 17
0.0
 27
1.0
 37
0.0
 76
     0
330
1B
  0
LAYOUT
  5
26
102
{ACAD_REACTORS
330
1A
102
}
330
1A
100
AcDbPlotSettings
  1

  2
none_device
  4

  6

 40
0.0
 41
0.0
 42
0.0
 43
0.0
 44
0.0
 45
0.0
 46
0.0
 47
0.0
 48
0.0
 49
0.0
140
0.0
141
0.0
142
1.0
143
1.0
 70
   688
 72
     1
 73
     0
 74
     5
  7

 75
    16
147
1.0
148
0.0
149
0.0
100
AcDbLayout
  1
Layout2
 70
     1
 71
     2
 10
0.0
 20
0.0
 11
0.0
 21
0.0
 12
0.0
 22
0.0
 32
0.0
 14
0.0
 24
0.0
 34
0.0
 15
0.0
 25
0.0
 35
0.0
146
0.0
 13
0.0
 23
0.0
 33
0.0
 16
1.0
 26
0.0
 36
0.0
 17
0.0
 27
1.0
 37
0.0
 76
     0
330
23
  0
LAYOUT
  5
22
102
{ACAD_REACTORS
330
1A
102
}
330
1A
100
AcDbPlotSettings
  1

  2
none_device
  4
ANSI_A_(11.00_x_8.50_Inches)
  6

 40
6.35
 41
19.05
 42
6.35000508
 43
19.05000254
 44
279.4
 45
215.9
 46
-121.5813357675
 47
85.0932119545
 48
0.0
 49
0.0
140
0.0
141
0.0
142
0.1016414349
143
1.0
 70
  1696
 72
     0
 73
     0
 74
     0
  7

 75
     0
147
0.0179189148
148
-1300.4909072572
149
0.0
100
AcDbLayout
  1
Model
 70
     1
 71
     0
 10
0.0
 20
0.0
 11
420.0
 21
297.0
 12
0.0
 22
0.0
 32
0.0
 14
45.1751460104
 24
-10.0
 34
0.0
 15
152.316490584
 25
12.9490629533
 35
0.0
146
0.0
 13
0.0
 23
0.0
 33
0.0
 16
1.0
 26
0.0
 36
0.0
 17
0.0
 27
1.0
 37
0.0
 76
     0
330
1F
331
29
  0
MLINESTYLE
  5
18
102
{ACAD_REACTORS
330
17
102
}
330
17
100
AcDbMlineStyle
  2
Standard
 70
     0
  3

 62
   256
 51
90.0
 52
90.0
 71
     2
 49
0.5
 62
   256
  6
BYLAYER
 49
-0.5
 62
   256
  6
BYLAYER
  0
ACDBPLACEHOLDER
  5
F
102
{ACAD_REACTORS
330
E
102
}
330
E
  0
SCALE
  5
48
102
{ACAD_REACTORS
330
47
102
}
330
47
100
AcDbScale
 70
     0
300
1:1
140
1.0
141
1.0
290
     1
  0
SCALE
  5
49
102
{ACAD_REACTORS
330
47
102
}
330
47
100
AcDbScale
 70
     0
300
1:2
140
1.0
141
2.0
290
     0
  0
SCALE
  5
4A
102
{ACAD_REACTORS
330
47
102
}
330
47
100
AcDbScale
 70
     0
300
1:4
140
1.0
141
4.0
290
     0
  0
SCALE
  5
4B
102
{ACAD_REACTORS
330
47
102
}
330
47
100
AcDbScale
 70
     0
300
1:5
140
1.0
141
5.0
290
     0
  0
SCALE
  5
4C
102
{ACAD_REACTORS
330
47
102
}
330
47
100
AcDbScale
 70
     0
300
1:8
140
1.0
141
8.0
290
     0
  0
SCALE
  5
4D
102
{ACAD_REACTORS
330
47
102
}
330
47
100
AcDbScale
 70
     0
300
1:10
140
1.0
141
10.0
290
     0
  0
SCALE
  5
4E
102
{ACAD_REACTORS
330
47
102
}
330
47
100
AcDbScale
 70
     0
300
1:16
140
1.0
141
16.0
290
     0
  0
SCALE
  5
4F
102
{ACAD_REACTORS
330
47
102
}
330
47
100
AcDbScale
 70
     0
300
1:20
140
1.0
141
20.0
290
     0
  0
SCALE
  5
50
102
{ACAD_REACTORS
330
47
102
}
330
47
100
AcDbScale
 70
     0
300
1:30
140
1.0
141
30.0
290
     0
  0
SCALE
  5
51
102
{ACAD_REACTORS
330
47
102
}
330
47
100
AcDbScale
 70
     0
300
1:40
140
1.0
141
40.0
290
     0
  0
SCALE
  5
52
102
{ACAD_REACTORS
330
47
102
}
330
47
100
AcDbScale
 70
     0
300
1:50
140
1.0
141
50.0
290
     0
  0
SCALE
  5
53
102
{ACAD_REACTORS
330
47
102
}
330
47
100
AcDbScale
 70
     0
300
1:100
140
1.0
141
100.0
290
     0
  0
SCALE
  5
54
102
{ACAD_REACTORS
330
47
102
}
330
47
100
AcDbScale
 70
     0
300
2:1
140
2.0
141
1.0
290
     0
  0
SCALE
  5
55
102
{ACAD_REACTORS
330
47
102
}
330
47
100
AcDbScale
 70
     0
300
4:1
140
4.0
141
1.0
290
     0
  0
SCALE
  5
56
102
{ACAD_REACTORS
330
47
102
}
330
47
100
AcDbScale
 70
     0
300
8:1
140
8.0
141
1.0
290
     0
  0
SCALE
  5
57
102
{ACAD_REACTORS
330
47
102
}
330
47
100
AcDbScale
 70
     0
300
10:1
140
10.0
141
1.0
290
     0
  0
SCALE
  5
58
102
{ACAD_REACTORS
330
47
102
}
330
47
100
AcDbScale
 70
     0
300
100:1
140
100.0
141
1.0
290
     0
  0
ENDSEC
  0
EOF
