  0
SECTION
  2
HEADER
  9
$ACADVER
  1
AC1015
  9
$ACADMAINTVER
 70
     6
  9
$DWGCODEPAGE
  3
ANSI_936
  9
$INSBASE
 10
0.0
 20
0.0
 30
0.0
  9
$EXTMIN
 10
38.7193650696
 20
-10.0
 30
0.0
  9
$EXTMAX
 10
152.3164905827
 20
13.5303282357
 30
0.0
  9
$LIMMIN
 10
0.0
 20
0.0
  9
$LIMMAX
 10
420.0
 20
297.0
  9
$ORTHOMODE
 70
     0
  9
$REGENMODE
 70
     1
  9
$FILLMODE
 70
     1
  9
$QTEXTMODE
 70
     0
  9
$MIRRTEXT
 70
     1
  9
$LTSCALE
 40
1.0
  9
$ATTMODE
 70
     1
  9
$TEXTSIZE
 40
3.5
  9
$TRACEWID
 40
1.0
  9
$TEXTSTYLE
  7
Standard
  9
$CLAYER
  8
0
  9
$CELTYPE
  6
ByLayer
  9
$CECOLOR
 62
   256
  9
$CELTSCALE
 40
1.0
  9
$DISPSILH
 70
     0
  9
$DIMSCALE
 40
1.0
  9
$DIMASZ
 40
3.556
  9
$DIMEXO
 40
0.0
  9
$DIMDLI
 40
3.75
  9
$DIMRND
 40
0.0
  9
$DIMDLE
 40
0.0
  9
$DIMEXE
 40
1.0
  9
$DIMTP
 40
0.0
  9
$DIMTM
 40
0.0
  9
$DIMTXT
 40
3.5
  9
$DIMCEN
 40
2.5
  9
$DIMTSZ
 40
0.0
  9
$DIMTOL
 70
     0
  9
$DIMLIM
 70
     0
  9
$DIMTIH
 70
     1
  9
$DIMTOH
 70
     1
  9
$DIMSE1
 70
     0
  9
$DIMSE2
 70
     0
  9
$DIMTAD
 70
     1
  9
$DIMZIN
 70
     1
  9
$DIMBLK
  1

  9
$DIMASO
 70
     1
  9
$DIMSHO
 70
     1
  9
$DIMPOST
  1

  9
$DIMAPOST
  1

  9
$DIMALT
 70
     0
  9
$DIMALTD
 70
     3
  9
$DIMALTF
 40
0.0393700787
  9
$DIMLFAC
 40
1.0
  9
$DIMTOFL
 70
     1
  9
$DIMTVP
 40
0.0
  9
$DIMTIX
 70
     0
  9
$DIMSOXD
 70
     0
  9
$DIMSAH
 70
     0
  9
$DIMBLK1
  1

  9
$DIMBLK2
  1

  9
$DIMSTYLE
  2
ISO-25
  9
$DIMCLRD
 70
     0
  9
$DIMCLRE
 70
     0
  9
$DIMCLRT
 70
     0
  9
$DIMTFAC
 40
1.0
  9
$DIMGAP
 40
1.524
  9
$DIMJUST
 70
     0
  9
$DIMSD1
 70
     0
  9
$DIMSD2
 70
     0
  9
$DIMTOLJ
 70
     0
  9
$DIMTZIN
 70
     1
  9
$DIMALTZ
 70
     0
  9
$DIMALTTZ
 70
     0
  9
$DIMUPT
 70
     0
  9
$DIMDEC
 70
     2
  9
$DIMTDEC
 70
     2
  9
$DIMALTU
 70
     2
  9
$DIMALTTD
 70
     3
  9
$DIMTXSTY
  7
Standard
  9
$DIMAUNIT
 70
     0
  9
$DIMADEC
 70
     2
  9
$DIMALTRND
 40
0.0
  9
$DIMAZIN
 70
     0
  9
$DIMDSEP
 70
    44
  9
$DIMATFIT
 70
     3
  9
$DIMFRAC
 70
     0
  9
$DIMLDRBLK
  1

  9
$DIMLUNIT
 70
     2
  9
$DIMLWD
 70
    -2
  9
$DIMLWE
 70
    -2
  9
$DIMTMOVE
 70
     0
  9
$LUNITS
 70
     2
  9
$LUPREC
 70
     2
  9
$SKETCHINC
 40
1.0
  9
$FILLETRAD
 40
0.0
  9
$AUNITS
 70
     0
  9
$AUPREC
 70
     2
  9
$MENU
  1
.
  9
$ELEVATION
 40
0.0
  9
$PELEVATION
 40
0.0
  9
$THICKNESS
 40
0.0
  9
$LIMCHECK
 70
     0
  9
$CHAMFERA
 40
0.0
  9
$CHAMFERB
 40
0.0
  9
$CHAMFERC
 40
0.0
  9
$CHAMFERD
 40
0.0
  9
$SKPOLY
 70
     0
  9
$TDCREATE
 40
2461081.718780695
  9
$TDUCREATE
 40
2461081.385447361
  9
$TDUPDATE
 40
2461081.718856158
  9
$TDUUPDATE
 40
2461081.385522824
  9
$TDINDWG
 40
0.0000000116
  9
$TDUSRTIMER
 40
0.0000000116
  9
$USRTIMER
 70
     1
  9
$ANGBASE
 50
0.0
  9
$ANGDIR
 70
     0
  9
$PDMODE
 70
     0
  9
$PDSIZE
 40
-1.0
  9
$PLINEWID
 40
0.0
  9
$SPLFRAME
 70
     0
  9
$SPLINETYPE
 70
     6
  9
$SPLINESEGS
 70
     8
  9
$HANDSEED
  5
CA
  9
$SURFTAB1
 70
     6
  9
$SURFTAB2
 70
     6
  9
$SURFTYPE
 70
     6
  9
$SURFU
 70
     6
  9
$SURFV
 70
     6
  9
$UCSBASE
  2

  9
$UCSNAME
  2

  9
$UCSORG
 10
0.0
 20
0.0
 30
0.0
  9
$UCSXDIR
 10
1.0
 20
0.0
 30
0.0
  9
$UCSYDIR
 10
0.0
 20
1.0
 30
0.0
  9
$UCSORTHOREF
  2

  9
$UCSORTHOVIEW
 70
     0
  9
$UCSORGTOP
 10
0.0
 20
0.0
 30
0.0
  9
$UCSORGBOTTOM
 10
0.0
 20
0.0
 30
0.0
  9
$UCSORGLEFT
 10
0.0
 20
0.0
 30
0.0
  9
$UCSORGRIGHT
 10
0.0
 20
0.0
 30
0.0
  9
$UCSORGFRONT
 10
0.0
 20
0.0
 30
0.0
  9
$UCSORGBACK
 10
0.0
 20
0.0
 30
0.0
  9
$PUCSBASE
  2

  9
$PUCSNAME
  2

  9
$PUCSORG
 10
0.0
 20
0.0
 30
0.0
  9
$PUCSXDIR
 10
1.0
 20
0.0
 30
0.0
  9
$PUCSYDIR
 10
0.0
 20
1.0
 30
0.0
  9
$PUCSORTHOREF
  2

  9
$PUCSORTHOVIEW
 70
     0
  9
$PUCSORGTOP
 10
0.0
 20
0.0
 30
0.0
  9
$PUCSORGBOTTOM
 10
0.0
 20
0.0
 30
0.0
  9
$PUCSORGLEFT
 10
0.0
 20
0.0
 30
0.0
  9
$PUCSORGRIGHT
 10
0.0
 20
0.0
 30
0.0
  9
$PUCSORGFRONT
 10
0.0
 20
0.0
 30
0.0
  9
$PUCSORGBACK
 10
0.0
 20
0.0
 30
0.0
  9
$USERI1
 70
     0
  9
$USERI2
 70
     0
  9
$USERI3
 70
     0
  9
$USERI4
 70
     0
  9
$USERI5
 70
     0
  9
$USERR1
 40
0.0
  9
$USERR2
 40
0.0
  9
$USERR3
 40
0.0
  9
$USERR4
 40
0.0
  9
$USERR5
 40
0.0
  9
$WORLDVIEW
 70
     1
  9
$SHADEDGE
 70
     3
  9
$SHADEDIF
 70
    70
  9
$TILEMODE
 70
     1
  9
$MAXACTVP
 70
    64
  9
$PINSBASE
 10
0.0
 20
0.0
 30
0.0
  9
$PLIMCHECK
 70
     0
  9
$PEXTMIN
 10
1.0000000000E+20
 20
1.0000000000E+20
 30
1.0000000000E+20
  9
$PEXTMAX
 10
-1.0000000000E+20
 20
-1.0000000000E+20
 30
-1.0000000000E+20
  9
$PLIMMIN
 10
0.0
 20
0.0
  9
$PLIMMAX
 10
420.0
 20
297.0
  9
$UNITMODE
 70
     0
  9
$VISRETAIN
 70
     1
  9
$PLINEGEN
 70
     0
  9
$PSLTSCALE
 70
     1
  9
$TREEDEPTH
 70
  3020
  9
$CMLSTYLE
  2
Standard
  9
$CMLJUST
 70
     0
  9
$CMLSCALE
 40
20.0
  9
$PROXYGRAPHICS
 70
     1
  9
$MEASUREMENT
 70
     1
  9
$CELWEIGHT
370
    -1
  9
$ENDCAPS
280
     0
  9
$JOINSTYLE
280
     0
  9
$LWDISPLAY
290
     1
  9
$INSUNITS
 70
     4
  9
$HYPERLINKBASE
  1

  9
$STYLESHEET
  1

  9
$XEDIT
290
     1
  9
$CEPSNTYPE
380
     0
  9
$PSTYLEMODE
290
     1
  9
$FINGERPRINTGUID
  2
{f95f86e2-ad24-49d7-b6b7-325bb0a76487}
  9
$VERSIONGUID
  2
{FAEB1C32-E019-11D5-929B-00C0DF256EC4}
  9
$EXTNAMES
290
     1
  9
$PSVPSCALE
 40
0.0
  9
$OLESTARTUP
290
     0
  0
ENDSEC
  0
SECTION
  2
CLASSES
  0
CLASS
  1
ACDBDICTIONARYWDFLT
  2
AcDbDictionaryWithDefault
  3
ObjectDBX Classes
 90
        0
280
     0
281
     0
  0
CLASS
  1
VISUALSTYLE
  2
AcDbVisualStyle
  3
ObjectDBX Classes
 90
     4095
280
     0
281
     0
  0
CLASS
  1
MATERIAL
  2
AcDbMaterial
  3
ObjectDBX Classes
 90
     1153
280
     0
281
     0
  0
CLASS
  1
SCALE
  2
AcDbScale
  3
ObjectDBX Classes
 90
     1153
280
     0
281
     0
  0
CLASS
  1
TABLESTYLE
  2
AcDbTableStyle
  3
ObjectDBX Classes
 90
     4095
280
     0
281
     0
  0
CLASS
  1
MLEADERSTYLE
  2
AcDbMLeaderStyle
  3
ACDB_MLEADERSTYLE_CLASS
 90
     4095
280
     0
281
     0
  0
CLASS
  1
SUN
  2
AcDbSun
  3
SCENEOE
 90
     1153
280
     0
281
     0
  0
CLASS
  1
ACDBPLACEHOLDER
  2
AcDbPlaceHolder
  3
ObjectDBX Classes
 90
        0
280
     0
281
     0
  0
CLASS
  1
LAYOUT
  2
AcDbLayout
  3
ObjectDBX Classes
 90
        0
280
     0
281
     0
  0
ENDSEC
  0
SECTION
  2
TABLES
  0
TABLE
  2
VPORT
  5
8
330
0
100
AcDbSymbolTable
 70
     1
  0
VPORT
  5
29
330
8
100
AcDbSymbolTableRecord
100
AcDbViewportTableRecord
  2
*Active
 70
     0
 10
0.0
 20
0.0
 11
1.0
 21
1.0
 12
95.5179278261
 22
1.7651641179
 13
0.0
 23
0.0
 14
10.0
 24
10.0
 15
10.0
 25
10.0
 16
0.0
 26
0.0
 36
1.0
 17
0.0
 27
0.0
 37
0.0
 40
24.0009348005
 41
4.8276897957
 42
50.0
 43
0.0
 44
0.0
 50
0.0
 51
0.0
 71
     0
 72
   100
 73
     1
 74
     3
 75
     0
 76
     0
 77
     0
 78
     0
281
     0
 65
     1
110
0.0
120
0.0
130
0.0
111
1.0
121
0.0
131
0.0
112
0.0
122
1.0
132
0.0
 79
     0
146
0.0
  0
ENDTAB
  0
TABLE
  2
LTYPE
  5
5
330
0
100
AcDbSymbolTable
 70
     6
  0
LTYPE
  5
14
330
5
100
AcDbSymbolTableRecord
100
AcDbLinetypeTableRecord
  2
ByBlock
 70
     0
  3

 72
    65
 73
     0
 40
0.0
  0
LTYPE
  5
15
330
5
100
AcDbSymbolTableRecord
100
AcDbLinetypeTableRecord
  2
ByLayer
 70
     0
  3

 72
    65
 73
     0
 40
0.0
  0
LTYPE
  5
16
330
5
100
AcDbSymbolTableRecord
100
AcDbLinetypeTableRecord
  2
Continuous
 70
     0
  3
Solid line
 72
    65
 73
     0
 40
0.0
  0
LTYPE
  5
5E
330
5
100
AcDbSymbolTableRecord
100
AcDbLinetypeTableRecord
  2
HIDDEN
 70
     0
  3
Hidden __ __ __ __ __ __ __ __ __ __ __ __ __ __
 72
    65
 73
     2
 40
1.905
 49
1.27
 74
     0
 49
-0.635
 74
     0
  0
LTYPE
  5
5F
330
5
100
AcDbSymbolTableRecord
100
AcDbLinetypeTableRecord
  2
PHANTOM
 70
     0
  3
Phantom ______  __  __  ______  __  __  ______
 72
    65
 73
     6
 40
12.7
 49
6.35
 74
     0
 49
-1.27
 74
     0
 49
1.27
 74
     0
 49
-1.27
 74
     0
 49
1.27
 74
     0
 49
-1.27
 74
     0
  0
LTYPE
  5
60
330
5
100
AcDbSymbolTableRecord
100
AcDbLinetypeTableRecord
  2
CENTER
 70
     0
  3
Center ____ _ ____ _ ____ _ ____ _ ____ _ ____
 72
    65
 73
     4
 40
10.16
 49
6.35
 74
     0
 49
-1.27
 74
     0
 49
1.27
 74
     0
 49
-1.27
 74
     0
  0
LTYPE
  5
61
330
5
100
AcDbSymbolTableRecord
100
AcDbLinetypeTableRecord
  2
CENTERX2
 70
     0
  3
Center (2x) ________  __  ________  __  _____
 72
    65
 73
     4
 40
20.32
 49
12.7
 74
     0
 49
-2.54
 74
     0
 49
2.54
 74
     0
 49
-2.54
 74
     0
  0
LTYPE
  5
62
330
5
100
AcDbSymbolTableRecord
100
AcDbLinetypeTableRecord
  2
DOT2
 70
     0
  3
Dot (.5x) ........................................
 72
    65
 73
     2
 40
0.635
 49
0.0
 74
     0
 49
-0.635
 74
     0
  0
ENDTAB
  0
TABLE
  2
LAYER
  5
2
330
0
100
AcDbSymbolTable
 70
     1
  0
LAYER
  5
10
330
2
100
AcDbSymbolTableRecord
100
AcDbLayerTableRecord
  2
0
 70
     0
 62
     7
  6
Continuous
370
    -3
390
F
  0
ENDTAB
  0
TABLE
  2
STYLE
  5
3
330
0
100
AcDbSymbolTable
 70
     1
  0
STYLE
  5
11
330
3
100
AcDbSymbolTableRecord
100
AcDbTextStyleTableRecord
  2
Standard
 70
     0
 40
0.0
 41
1.0
 50
0.0
 71
     0
 42
3.5
  3
txt
  4

  0
ENDTAB
  0
TABLE
  2
VIEW
  5
6
330
0
100
AcDbSymbolTable
 70
     0
  0
ENDTAB
  0
TABLE
  2
UCS
  5
7
330
0
100
AcDbSymbolTable
 70
     0
  0
ENDTAB
  0
TABLE
  2
APPID
  5
9
330
0
100
AcDbSymbolTable
 70
     1
  0
APPID
  5
12
330
9
100
AcDbSymbolTableRecord
100
AcDbRegAppTableRecord
  2
ACAD
 70
     0
  0
ENDTAB
  0
TABLE
  2
DIMSTYLE
  5
A
330
0
100
AcDbSymbolTable
 70
     1
100
AcDbDimStyleTable
  0
DIMSTYLE
105
27
330
A
100
AcDbSymbolTableRecord
100
AcDbDimStyleTableRecord
  2
ISO-25
 70
     0
 41
2.5
 42
0.625
 43
3.75
 44
1.25
 73
     0
 74
     0
 77
     1
 78
     8
140
2.5
141
2.5
143
0.0393700787
147
0.625
171
     3
172
     1
178
     0
271
     2
272
     2
274
     3
278
    44
283
     0
284
     8
340
11
  0
ENDTAB
  0
TABLE
  2
BLOCK_RECORD
  5
1
330
0
100
AcDbSymbolTable
 70
     1
  0
BLOCK_RECORD
  5
1F
330
1
100
AcDbSymbolTableRecord
100
AcDbBlockTableRecord
  2
*Model_Space
340
22
  0
BLOCK_RECORD
  5
1B
330
1
100
AcDbSymbolTableRecord
100
AcDbBlockTableRecord
  2
*Paper_Space
340
1E
  0
BLOCK_RECORD
  5
23
330
1
100
AcDbSymbolTableRecord
100
AcDbBlockTableRecord
  2
*Paper_Space0
340
26
  0
ENDTAB
  0
ENDSEC
  0
SECTION
  2
BLOCKS
  0
BLOCK
  5
20
330
1F
100
AcDbEntity
  8
0
100
AcDbBlockBegin
  2
*Model_Space
 70
     0
 10
0.0
 20
0.0
 30
0.0
  3
*Model_Space
  1

  0
ENDBLK
  5
21
330
1F
100
AcDbEntity
  8
0
100
AcDbBlockEnd
  0
BLOCK
  5
1C
330
1B
100
AcDbEntity
 67
     1
  8
0
100
AcDbBlockBegin
  2
*Paper_Space
 70
     0
 10
0.0
 20
0.0
 30
0.0
  3
*Paper_Space
  1

  0
ENDBLK
  5
1D
330
1B
100
AcDbEntity
 67
     1
  8
0
100
AcDbBlockEnd
  0
BLOCK
  5
24
330
23
100
AcDbEntity
  8
0
100
AcDbBlockBegin
  2
*Paper_Space0
 70
     0
 10
0.0
 20
0.0
 30
0.0
  3
*Paper_Space0
  1

  0
ENDBLK
  5
25
330
23
100
AcDbEntity
  8
0
100
AcDbBlockEnd
  0
ENDSEC
  0
SECTION
  2
ENTITIES
  0
LINE
  5
63
330
1F
100
AcDbEntity
  8
0
  6
Continuous
 62
     7
370
    25
100
AcDbLine
 10
134.742826104
 20
-2.1132270367
 30
0.0
 11
134.742826104
 21
-2.01260632
 31
0.0
  0
SPLINE
  5
64
330
1F
100
AcDbEntity
  8
0
  6
Continuous
 62
     7
370
    25
100
AcDbSpline
210
0.0
220
0.0
230
1.0
 70
     8
 71
     3
 72
     9
 73
     5
 74
     0
 42
0.00000001
 43
0.00000001
 40
0.1735576892137513
 40
0.1735576892137513
 40
0.1735576892137513
 40
0.1735576892137513
 40
0.1736178968731208
 40
0.1768573443243003
 40
0.1768573443243003
 40
0.1768573443243003
 40
0.1768573443243003
 10
134.7428262181428
 20
-2.012609428986929
 30
0.0
 10
134.7367480916049
 20
-2.012832668291501
 30
0.0
 10
134.4036389571397
 20
-2.02506719848844
 30
0.0
 10
134.0705298159909
 20
-2.037301467703664
 30
0.0
 10
133.7434987894855
 20
-2.049312122607918
 30
0.0
  0
LINE
  5
65
330
1F
100
AcDbEntity
  8
0
  6
Continuous
 62
     7
370
    25
100
AcDbLine
 10
133.7434986596
 20
-2.0493085873
 30
0.0
 11
133.7434986596
 21
-2.1498966298
 31
0.0
  0
LINE
  5
66
330
1F
100
AcDbEntity
  8
0
  6
Continuous
 62
     7
370
    25
100
AcDbLine
 10
133.7434986596
 20
-2.1498966298
 30
0.0
 11
134.742826104
 21
-2.1132270367
 31
0.0
  0
LINE
  5
67
330
1F
100
AcDbEntity
  8
0
  6
Continuous
 62
     7
370
    25
100
AcDbLine
 10
133.5436331708
 20
-2.1572305484
 30
0.0
 11
133.5436331708
 21
-2.0566488481
 31
0.0
  0
SPLINE
  5
68
330
1F
100
AcDbEntity
  8
0
  6
Continuous
 62
     7
370
    25
100
AcDbSpline
210
0.0
220
0.0
230
1.0
 70
     8
 71
     3
 72
     8
 73
     4
 74
     0
 42
0.00000001
 43
0.00000001
 40
0.1775172753284183
 40
0.1775172753284183
 40
0.1775172753284183
 40
0.1775172753284183
 40
0.1808169302246695
 40
0.1808169302246695
 40
0.1808169302246695
 40
0.1808169302246695
 10
133.5436333013564
 20
-2.056652403410494
 30
0.0
 10
133.2105241643759
 20
-2.068886121849973
 30
0.0
 10
132.877415013747
 20
-2.081119419063807
 30
0.0
 10
132.5443058435762
 20
-2.09335215945352
 30
0.0
  0
LINE
  5
69
330
1F
100
AcDbEntity
  8
0
  6
Continuous
 62
     7
370
    25
100
AcDbLine
 10
132.5443057265
 20
-2.0933489708
 30
0.0
 11
132.5443057265
 21
-2.1939001415
 31
0.0
  0
LINE
  5
6A
330
1F
100
AcDbEntity
  8
0
  6
Continuous
 62
     7
370
    25
100
AcDbLine
 10
132.5443057265
 20
-2.1939001415
 30
0.0
 11
133.5436331708
 21
-2.1572305484
 31
0.0
  0
LINE
  5
6B
330
1F
100
AcDbEntity
  8
0
  6
Continuous
 62
     7
370
    25
100
AcDbLine
 10
132.3444402376
 20
-2.2012340601
 30
0.0
 11
132.3444402376
 21
-2.100688722
 31
0.0
  0
SPLINE
  5
6C
330
1F
100
AcDbEntity
  8
0
  6
Continuous
 62
     7
370
    25
100
AcDbSpline
210
0.0
220
0.0
230
1.0
 70
     8
 71
     3
 72
     8
 73
     4
 74
     0
 42
0.00000001
 43
0.00000001
 40
0.1814768611735561
 40
0.1814768611735561
 40
0.1814768611735561
 40
0.1814768611735561
 40
0.1847765157082289
 40
0.1847765157082289
 40
0.1847765157082289
 40
0.1847765157082289
 10
132.3444403482773
 20
-2.100691735445972
 30
0.0
 10
132.0113312065563
 20
-2.112924246341662
 30
0.0
 10
131.6782220441146
 20
-2.125156173293664
 30
0.0
 10
131.3451128550587
 20
-2.137387380703547
 30
0.0
  0
LINE
  5
6D
330
1F
100
AcDbEntity
  8
0
  6
Continuous
 62
     7
370
    25
100
AcDbLine
 10
131.3451127933
 20
-2.1373856991
 30
0.0
 11
131.3451127933
 21
-2.2379036532
 31
0.0
  0
LINE
  5
6E
330
1F
100
AcDbEntity
  8
0
  6
Continuous
 62
     7
370
    25
100
AcDbLine
 10
131.3451127933
 20
-2.2379036532
 30
0.0
 11
132.3444402376
 21
-2.2012340601
 31
0.0
  0
SPLINE
  5
6F
330
1F
100
AcDbEntity
  8
0
  6
Continuous
 62
     7
370
    25
100
AcDbSpline
210
0.0
220
0.0
230
1.0
 70
     8
 71
     3
 72
    11
 73
     7
 74
     0
 42
0.00000001
 43
0.00000001
 40
0.1155316288085257
 40
0.1155316288085257
 40
0.1155316288085257
 40
0.1155316288085257
 40
0.1268415514131088
 40
0.1424336665664461
 40
0.1580257817197835
 40
0.1728977581770465
 40
0.1728977581770465
 40
0.1728977581770465
 40
0.1728977581770465
 10
152.3164905826829
 20
-1.367157680087517
 30
0.0
 10
151.1747231820204
 20
-1.409089046029467
 30
0.0
 10
148.4588893718103
 20
-1.508828011034514
 30
0.0
 10
144.1689883481962
 20
-1.666374815591532
 30
0.0
 10
139.5194904448919
 20
-1.837158854097066
 30
0.0
 10
136.4440580567804
 20
-1.950125572246342
 30
0.0
 10
134.9426917023705
 20
-2.005268677126433
 30
0.0
  0
LINE
  5
70
330
1F
100
AcDbEntity
  8
0
  6
Continuous
 62
     7
370
    25
100
AcDbLine
 10
134.9426915928
 20
-2.005265695
 30
0.0
 11
134.9426915928
 21
-10.0
 31
0.0
  0
LINE
  5
71
330
1F
100
AcDbEntity
  8
0
  6
Continuous
 62
     7
370
    25
100
AcDbLine
 10
134.9426915928
 20
-10.0
 30
0.0
 11
130.9426915928
 21
-10.0
 31
0.0
  0
LINE
  5
72
330
1F
100
AcDbEntity
  8
0
  6
Continuous
 62
     7
370
    25
100
AcDbLine
 10
130.9426915928
 20
-10.0
 30
0.0
 11
130.9426915928
 21
-2.2526702062
 31
0.0
  0
LINE
  5
73
330
1F
100
AcDbEntity
  8
0
  6
Continuous
 62
     7
370
    25
100
AcDbLine
 10
130.9426915928
 20
-2.2526702062
 30
0.0
 11
131.1452473045
 21
-2.2452375718
 31
0.0
  0
LINE
  5
74
330
1F
100
AcDbEntity
  8
0
  6
Continuous
 62
     7
370
    25
100
AcDbLine
 10
131.1452473045
 20
-2.2452375718
 30
0.0
 11
131.1452473045
 21
-2.1447246623
 31
0.0
  0
SPLINE
  5
75
330
1F
100
AcDbEntity
  8
0
  6
Continuous
 62
     7
370
    25
100
AcDbSpline
210
0.0
220
0.0
230
1.0
 70
     8
 71
     3
 72
    22
 73
    18
 74
     0
 42
0.00000001
 43
0.00000001
 40
0.1854364465629509
 40
0.1854364465629509
 40
0.1854364465629509
 40
0.1854364465629509
 40
0.1892100120264582
 40
0.2048021271797955
 40
0.2203942423331328
 40
0.2359863574864702
 40
0.2515784726398075
 40
0.2671705877931448
 40
0.2827627029464821
 40
0.2983548180998195
 40
0.3139469332531569
 40
0.3295390484064942
 40
0.3451311635598315
 40
0.3529272211365002
 40
0.3607232787131689
 40
0.3685193362898376
 40
0.369897054574912
 40
0.369897054574912
 40
0.369897054574912
 40
0.369897054574912
 10
131.1452473541974
 20
-2.144726017139024
 30
0.0
 10
130.7642955426513
 20
-2.158713589113827
 30
0.0
 10
128.8092766386223
 20
-2.230491843047687
 30
0.0
 10
125.2801885312537
 20
-2.360005686971871
 30
0.0
 10
120.5579840323749
 20
-2.533290378628099
 30
0.0
 10
115.8357830381017
 20
-2.7066721458713
 30
0.0
 10
111.1135976691666
 20
-2.880478266977879
 30
0.0
 10
106.391420980982
 20
-3.05452005098944
 30
0.0
 10
101.6692285445121
 20
-3.228134847253498
 30
0.0
 10
96.9469887435334
 20
-3.40045738563588
 30
0.0
 10
92.22470077468932
 20
-3.571453598112926
 30
0.0
 10
87.5024661554702
 20
-3.743921176824524
 30
0.0
 10
83.56739543524445
 20
-3.891034435103823
 30
0.0
 10
80.4194496957338
 20
-4.011642372800186
 30
0.0
 10
78.05844067250231
 20
-4.100797214559188
 30
0.0
 10
76.34526613278825
 20
-4.163081706688737
 30
0.0
 10
75.41908863989089
 20
-4.195427916975425
 30
0.0
 10
75.2799941319748
 20
-4.200253800390249
 30
0.0
  0
LINE
  5
76
330
1F
100
AcDbEntity
  8
0
  6
Continuous
 62
     7
370
    25
100
AcDbLine
 10
75.279994132
 20
-10.0
 30
0.0
 11
75.279994132
 21
-4.2002538004
 31
0.0
  0
LINE
  5
77
330
1F
100
AcDbEntity
  8
0
  6
Continuous
 62
     7
370
    25
100
AcDbLine
 10
71.279994132
 20
-10.0
 30
0.0
 11
75.279994132
 21
-10.0
 31
0.0
  0
LINE
  5
78
330
1F
100
AcDbEntity
  8
0
  6
Continuous
 62
     7
370
    25
100
AcDbLine
 10
71.279994132
 20
-4.4285737951
 30
0.0
 11
71.279994132
 21
-10.0
 31
0.0
  0
LINE
  5
79
330
1F
100
AcDbEntity
  8
0
  6
Continuous
 62
     7
370
    25
100
AcDbLine
 10
71.4854354404
 20
-4.422588371
 30
0.0
 11
71.279994132
 21
-4.4285737951
 31
0.0
  0
LINE
  5
7A
330
1F
100
AcDbEntity
  8
0
  6
Continuous
 62
     7
370
    25
100
AcDbLine
 10
71.4854354404
 20
-4.322475683
 30
0.0
 11
71.4854354404
 21
-4.422588371
 31
0.0
  0
SPLINE
  5
7B
330
1F
100
AcDbEntity
  8
0
  6
Continuous
 62
     7
370
    25
100
AcDbSpline
210
0.0
220
0.0
230
1.0
 70
     8
 71
     3
 72
    73
 73
    69
 74
     0
 42
0.00000001
 43
0.00000001
 40
0.3824242832591161
 40
0.3824242832591161
 40
0.3824242832591161
 40
0.3824242832591161
 40
0.3841114514431748
 40
0.3919075090198435
 40
0.3997035665965122
 40
0.407499624173181
 40
0.4152956817498497
 40
0.4230917393265183
 40
0.4308877969031869
 40
0.4386838544798555
 40
0.4464799120565242
 40
0.4542759696331928
 40
0.4581739984215272
 40
0.4620720272098616
 40
0.465970055998196
 40
0.4698680847865303
 40
0.4718170991806975
 40
0.4737661135748646
 40
0.4757151279690318
 40
0.4776641423631989
 40
0.4815621711515332
 40
0.4854601999398676
 40
0.4874092143340347
 40
0.4893582287282019
 40
0.4913072431223691
 40
0.4932562575165362
 40
0.4952052719107034
 40
0.4971542863048706
 40
0.4991033006990377
 40
0.5010523150932048
 40
0.5030013294873721
 40
0.5049503438815393
 40
0.5068993582757064
 40
0.5088483726698736
 40
0.5107973870640408
 40
0.5127464014582079
 40
0.5146954158523751
 40
0.5166444302465423
 40
0.5205424590348766
 40
0.524440487823211
 40
0.5283385166115453
 40
0.5322365453998796
 40
0.536134574188214
 40
0.5400326029765483
 40
0.5439306317648827
 40
0.547828660553217
 40
0.5517266893415511
 40
0.5556247181298855
 40
0.5634207757065541
 40
0.5712168332832228
 40
0.5790128908598915
 40
0.5868089484365602
 40
0.5946050060132291
 40
0.6024010635898978
 40
0.6101971211665664
 40
0.6179931787432351
 40
0.6257892363199037
 40
0.6413813514732412
 40
0.6569734666265783
 40
0.6725655817799157
 40
0.6881576969332529
 40
0.7037498120865904
 40
0.7193419272399277
 40
0.7349340423932651
 40
0.7505261575466025
 40
0.7661182726999396
 40
0.781710387853277
 40
0.7939880831831195
 40
0.7939880831831195
 40
0.7939880831831195
 40
0.7939880831831195
 10
71.48543544036102
 20
-4.322475682957593
 30
0.0
 10
71.31506961915956
 20
-4.327470608946848
 30
0.0
 10
70.35746576350805
 20
-4.355120312104538
 30
0.0
 10
68.61249348366769
 20
-4.40091834531083
 30
0.0
 10
66.25031370226051
 20
-4.450412265422671
 30
0.0
 10
63.88784636449352
 20
-4.484455709767521
 30
0.0
 10
61.52519059190796
 20
-4.499577422431623
 30
0.0
 10
59.16246365901416
 20
-4.49322880150402
 30
0.0
 10
56.79997830670168
 20
-4.460770058703854
 30
0.0
 10
54.43794332304222
 20
-4.401960209423971
 30
0.0
 10
52.07712991416903
 20
-4.306732676874486
 30
0.0
 10
50.11073791250634
 20
-4.206533330881223
 30
0.0
 10
48.53853572202634
 20
-4.110260979370504
 30
0.0
 10
47.36105839361063
 20
-4.013454975112015
 30
0.0
 10
46.18647399073087
 20
-3.886149965691982
 30
0.0
 10
45.21207616359511
 20
-3.74429783501486
 30
0.0
 10
44.43606045138283
 20
-3.609930580752525
 30
0.0
 10
43.85566858610813
 20
-3.50000844252244
 30
0.0
 10
43.27643404567085
 20
-3.38442886851293
 30
0.0
 10
42.5039676529867
 20
-3.231028106848239
 30
0.0
 10
41.54473897788237
 20
-3.006297866816302
 30
0.0
 10
40.62710541420936
 20
-2.63361121474026
 30
0.0
 10
39.97018245718644
 20
-2.194775477097885
 30
0.0
 10
39.51948065102793
 20
-1.811824932966964
 30
0.0
 10
39.12766380065024
 20
-1.367048830597436
 30
0.0
 10
38.82130558169707
 20
-0.8582831503349779
 30
0.0
 10
38.67472691764153
 20
-0.2751496117941479
 30
0.0
 10
38.76327154258033
 20
0.3189838612771603
 30
0.0
 10
39.00986517231978
 20
0.8587006350879441
 30
0.0
 10
39.33661149452888
 20
1.352133792491105
 30
0.0
 10
39.71187910068726
 20
1.808926158372948
 30
0.0
 10
40.11427746472341
 20
2.241487071820639
 30
0.0
 10
40.53083733084332
 20
2.6603233293552
 30
0.0
 10
40.95241640582774
 20
3.074052204182345
 30
0.0
 10
41.38346119881894
 20
3.477993792478332
 30
0.0
 10
41.82764969587395
 20
3.867511502418766
 30
0.0
 10
42.28703234263908
 20
4.238971724881548
 30
0.0
 10
42.91729990215121
 20
4.711479533285269
 30
0.0
 10
43.7374381222217
 20
5.257130781802651
 30
0.0
 10
44.7602827165786
 20
5.849054121750759
 30
0.0
 10
45.80954216932875
 20
6.392432045396442
 30
0.0
 10
46.88027026138808
 20
6.892083285648234
 30
0.0
 10
47.96699948684331
 20
7.35563096757566
 30
0.0
 10
49.06574543477604
 20
7.789874138762572
 30
0.0
 10
50.17405254971159
 20
8.198972195654408
 30
0.0
 10
51.28925732280143
 20
8.58883313568368
 30
0.0
 10
52.41059412343955
 20
8.960679772208781
 30
0.0
 10
53.91389045761316
 20
9.431143362693394
 30
0.0
 10
55.80757674040647
 20
9.971118060918911
 30
0.0
 10
58.09846327802923
 20
10.55012710884083
 30
0.0
 10
60.40380955587475
 20
11.06837662984935
 30
0.0
 10
62.72094301769435
 20
11.53094705256395
 30
0.0
 10
65.04846932409744
 20
11.93811671613466
 30
0.0
 10
67.38540325189219
 20
12.28727608882622
 30
0.0
 10
69.73048603550771
 20
12.57688705262446
 30
0.0
 10
72.08164405349078
 20
12.8111086958923
 30
0.0
 10
75.2220904615351
 20
13.06198960347772
 30
0.0
 10
79.1545755984288
 20
13.27386026200333
 30
0.0
 10
83.87747209638275
 20
13.43043018178689
 30
0.0
 10
88.60192198986864
 20
13.52943820786247
 30
0.0
 10
93.32745539066799
 20
13.55072032918982
 30
0.0
 10
98.05260351507603
 20
13.48448358863055
 30
0.0
 10
102.7753498708936
 20
13.31911647373199
 30
0.0
 10
107.4941794309331
 20
13.06725989180389
 30
0.0
 10
112.2081942945171
 20
12.73756387356507
 30
0.0
 10
116.9169826113966
 20
12.34055178846471
 30
0.0
 10
121.2864218181945
 20
11.90929825959922
 30
0.0
 10
124.0845945817406
 20
11.59762857632743
 30
0.0
 10
125.3164937598857
 20
11.45349724302309
 30
0.0
  0
LINE
  5
7C
330
1F
100
AcDbEntity
  8
0
  6
Continuous
 62
     7
370
    25
100
AcDbLine
 10
125.3164905824
 20
4.4640818168
 30
0.0
 11
125.3164905824
 21
11.4534969433
 31
0.0
  0
LINE
  5
7D
330
1F
100
AcDbEntity
  8
0
  6
Continuous
 62
     7
370
    25
100
AcDbLine
 10
127.3164905824
 20
4.4640818168
 30
0.0
 11
125.3164905824
 21
4.4640818168
 31
0.0
  0
LINE
  5
7E
330
1F
100
AcDbEntity
  8
0
  6
Continuous
 62
     7
370
    25
100
AcDbLine
 10
127.3164905824
 20
11.2134295506
 30
0.0
 11
127.3164905824
 21
4.4640818168
 31
0.0
  0
SPLINE
  5
7F
330
1F
100
AcDbEntity
  8
0
  6
Continuous
 62
     7
370
    25
100
AcDbSpline
210
0.0
220
0.0
230
1.0
 70
     8
 71
     3
 72
    13
 73
     9
 74
     0
 42
0.00000001
 43
0.00000001
 40
0.8006347626593299
 40
0.8006347626593299
 40
0.8006347626593299
 40
0.8006347626593299
 40
0.8128946181599519
 40
0.8284867333132893
 40
0.8440788484666266
 40
0.8596709636199638
 40
0.875263078773301
 40
0.8841115231092469
 40
0.8841115231092469
 40
0.8841115231092469
 40
0.8841115231092469
 10
127.3164894558765
 20
11.21342047578833
 30
0.0
 10
128.5457155506689
 20
11.0621527706812
 30
0.0
 10
131.3364125269198
 20
10.70336080303862
 30
0.0
 10
135.6828095717507
 20
10.09441888462353
 30
0.0
 10
140.3547795945506
 20
9.385653433954973
 30
0.0
 10
145.0198257783337
 20
8.63241335651543
 30
0.0
 10
149.0060955909533
 20
7.95073042214111
 30
0.0
 10
151.4368559073502
 20
7.51775828756594
 30
0.0
 10
152.3164905784922
 20
7.358804071322993
 30
0.0
  0
LINE
  5
80
330
1F
100
AcDbEntity
  8
0
  6
Continuous
 62
     7
370
    25
100
AcDbLine
 10
152.3164905827
 20
7.3588053455
 30
0.0
 11
152.3164905827
 21
5.4182190765
 31
0.0
  0
LINE
  5
81
330
1F
100
AcDbEntity
  8
0
  6
Continuous
 62
     7
370
    25
100
AcDbLine
 10
152.3164905827
 20
5.4182190765
 30
0.0
 11
150.3164905827
 21
5.4182190765
 31
0.0
  0
LINE
  5
82
330
1F
100
AcDbEntity
  8
0
  6
Continuous
 62
     7
370
    25
100
AcDbLine
 10
150.3164905827
 20
5.4182190765
 30
0.0
 11
150.3164905827
 21
2.4182190765
 31
0.0
  0
LINE
  5
83
330
1F
100
AcDbEntity
  8
0
  6
Continuous
 62
     7
370
    25
100
AcDbLine
 10
150.3164905827
 20
2.4182190765
 30
0.0
 11
152.3164905827
 21
2.4182190765
 31
0.0
  0
LINE
  5
84
330
1F
100
AcDbEntity
  8
0
  6
Continuous
 62
     7
370
    25
100
AcDbLine
 10
152.3164905827
 20
2.4182190765
 30
0.0
 11
152.3164905827
 21
-1.3671587879
 31
0.0
  0
SPLINE
  5
85
330
1F
100
AcDbEntity
  8
0
  6
Continuous
 62
     7
370
    25
100
AcDbSpline
210
0.0
220
0.0
230
1.0
 70
     8
 71
     3
 72
     8
 73
     4
 74
     0
 42
0.00000001
 43
0.00000001
 40
0.3705455363448903
 40
0.3705455363448903
 40
0.3705455363448903
 40
0.3705455363448903
 40
0.3738451876742691
 40
0.3738451876742691
 40
0.3738451876742691
 40
0.3738451876742691
 10
75.08358113291094
 20
-4.207046929714987
 30
0.0
 10
74.75044564222543
 20
-4.218532052864912
 30
0.0
 10
74.4173036630596
 20
-4.229828944026329
 30
0.0
 10
74.08415454299387
 20
-4.240910086476806
 30
0.0
  0
LINE
  5
86
330
1F
100
AcDbEntity
  8
0
  6
Continuous
 62
     7
370
    25
100
AcDbLine
 10
74.084154543
 20
-4.3410329618
 30
0.0
 11
74.084154543
 21
-4.2409100865
 31
0.0
  0
LINE
  5
87
330
1F
100
AcDbEntity
  8
0
  6
Continuous
 62
     7
370
    25
100
AcDbLine
 10
75.0835811329
 20
-4.3071730813
 30
0.0
 11
74.084154543
 21
-4.3410329618
 31
0.0
  0
LINE
  5
88
330
1F
100
AcDbEntity
  8
0
  6
Continuous
 62
     7
370
    25
100
AcDbLine
 10
75.0835811329
 20
-4.2070469297
 30
0.0
 11
75.0835811329
 21
-4.3071730813
 31
0.0
  0
SPLINE
  5
89
330
1F
100
AcDbEntity
  8
0
  6
Continuous
 62
     7
370
    25
100
AcDbSpline
210
0.0
220
0.0
230
1.0
 70
     8
 71
     3
 72
     9
 73
     5
 74
     0
 42
0.00000001
 43
0.00000001
 40
0.3745051179823924
 40
0.3745051179823924
 40
0.3745051179823924
 40
0.3745051179823924
 40
0.3763153938665063
 40
0.3778047699970142
 40
0.3778047699970142
 40
0.3778047699970142
 40
0.3778047699970142
 10
73.88426419603036
 20
-4.24753266239028
 30
0.0
 10
73.70148820677923
 20
-4.253564119826203
 30
0.0
 10
73.36833214579634
 20
-4.264436479653143
 30
0.0
 10
73.03516845549183
 20
-4.275072490925321
 30
0.0
 10
72.88478552827966
 20
-4.279822502419892
 30
0.0
  0
LINE
  5
8A
330
1F
100
AcDbEntity
  8
0
  6
Continuous
 62
     7
370
    25
100
AcDbLine
 10
72.8847855283
 20
-4.379940941
 30
0.0
 11
72.8847855283
 21
-4.2798225024
 31
0.0
  0
LINE
  5
8B
330
1F
100
AcDbEntity
  8
0
  6
Continuous
 62
     7
370
    25
100
AcDbLine
 10
73.884264196
 20
-4.3476548341
 30
0.0
 11
72.8847855283
 21
-4.379940941
 31
0.0
  0
LINE
  5
8C
330
1F
100
AcDbEntity
  8
0
  6
Continuous
 62
     7
370
    25
100
AcDbLine
 10
73.884264196
 20
-4.2475326624
 30
0.0
 11
73.884264196
 21
-4.3476548341
 31
0.0
  0
SPLINE
  5
8D
330
1F
100
AcDbEntity
  8
0
  6
Continuous
 62
     7
370
    25
100
AcDbSpline
210
0.0
220
0.0
230
1.0
 70
     8
 71
     3
 72
     8
 73
     4
 74
     0
 42
0.00000001
 43
0.00000001
 40
0.3784647003768934
 40
0.3784647003768934
 40
0.3784647003768934
 40
0.3784647003768934
 40
0.3817643528526932
 40
0.3817643528526932
 40
0.3817643528526932
 40
0.3817643528526932
 10
72.68488424702862
 20
-4.286106422267847
 30
0.0
 10
72.35171380233133
 20
-4.296528983035683
 30
0.0
 10
72.01853540219425
 20
-4.306696417904802
 30
0.0
 10
71.68534854595839
 20
-4.316579899673886
 30
0.0
  0
LINE
  5
8E
330
1F
100
AcDbEntity
  8
0
  6
Continuous
 62
     7
370
    25
100
AcDbLine
 10
71.685348546
 20
-4.4166934399
 30
0.0
 11
71.685348546
 21
-4.3165798997
 31
0.0
  0
LINE
  5
8F
330
1F
100
AcDbEntity
  8
0
  6
Continuous
 62
     7
370
    25
100
AcDbLine
 10
72.684884247
 20
-4.3862240734
 30
0.0
 11
71.685348546
 21
-4.4166934399
 31
0.0
  0
LINE
  5
90
330
1F
100
AcDbEntity
  8
0
  6
Continuous
 62
     7
370
    25
100
AcDbLine
 10
72.684884247
 20
-4.2861064223
 30
0.0
 11
72.684884247
 21
-4.3862240734
 31
0.0
  0
LINE
  5
91
330
1F
100
AcDbEntity
  8
0
  6
Continuous
 62
     7
370
    25
100
AcDbLine
 10
141.3164905827
 20
5.4182190765
 30
0.0
 11
141.3164905827
 21
2.4182190765
 31
0.0
  0
LINE
  5
92
330
1F
100
AcDbEntity
  8
0
  6
Continuous
 62
     7
370
    25
100
AcDbLine
 10
141.3164905827
 20
2.4182190765
 30
0.0
 11
143.3164905827
 21
2.4182190765
 31
0.0
  0
LINE
  5
93
330
1F
100
AcDbEntity
  8
0
  6
Continuous
 62
     7
370
    25
100
AcDbLine
 10
143.3164905827
 20
2.4182190765
 30
0.0
 11
143.3164905827
 21
5.4182190765
 31
0.0
  0
LINE
  5
94
330
1F
100
AcDbEntity
  8
0
  6
Continuous
 62
     7
370
    25
100
AcDbLine
 10
143.3164905827
 20
5.4182190765
 30
0.0
 11
141.3164905827
 21
5.4182190765
 31
0.0
  0
LINE
  5
95
330
1F
100
AcDbEntity
  8
0
  6
Continuous
 62
     7
370
    25
100
AcDbLine
 10
102.4353227982
 20
-0.2480382961
 30
0.0
 11
96.4694165872
 21
-0.2480382961
 31
0.0
  0
ARC
  5
96
330
1F
100
AcDbEntity
  8
0
  6
Continuous
 62
     7
370
    25
100
AcDbCircle
 10
102.4353227982
 20
0.7519617039
 30
0.0
 40
1.000000000000007
100
AcDbArc
 50
270.0
 51
41.9727548177
  0
LINE
  5
97
330
1F
100
AcDbEntity
  8
0
  6
Continuous
 62
     7
370
    25
100
AcDbLine
 10
97.2128795124
 20
8.0528884
 30
0.0
 11
103.1787857234
 21
1.4207388558
 31
0.0
  0
ARC
  5
98
330
1F
100
AcDbEntity
  8
0
  6
Continuous
 62
     7
370
    25
100
AcDbCircle
 10
96.4694165872
 20
7.3841112481
 30
0.0
 40
1.000000000000004
100
AcDbArc
 50
41.9727548177
 51
180.0
  0
LINE
  5
99
330
1F
100
AcDbEntity
  8
0
  6
Continuous
 62
     7
370
    25
100
AcDbLine
 10
95.4694165872
 20
0.7519617039
 30
0.0
 11
95.4694165872
 21
7.3841112481
 31
0.0
  0
ARC
  5
9A
330
1F
100
AcDbEntity
  8
0
  6
Continuous
 62
     7
370
    25
100
AcDbCircle
 10
96.4694165872
 20
0.7519617039
 30
0.0
 40
1.0
100
AcDbArc
 50
180.0
 51
270.0
  0
LINE
  5
9B
330
1F
100
AcDbEntity
  8
0
  6
Continuous
 62
     7
370
    25
100
AcDbLine
 10
92.1317245633
 20
-0.2480382961
 30
0.0
 11
86.5183772368
 21
-0.2480382961
 31
0.0
  0
ARC
  5
9C
330
1F
100
AcDbEntity
  8
0
  6
Continuous
 62
     7
370
    25
100
AcDbCircle
 10
92.1317245633
 20
0.7519617039
 30
0.0
 40
1.0
100
AcDbArc
 50
270.0
 51
0.0
  0
LINE
  5
9D
330
1F
100
AcDbEntity
  8
0
  6
Continuous
 62
     7
370
    25
100
AcDbLine
 10
93.1317245633
 20
7.2909141747
 30
0.0
 11
93.1317245633
 21
0.7519617039
 31
0.0
  0
ARC
  5
9E
330
1F
100
AcDbEntity
  8
0
  6
Continuous
 62
     7
370
    25
100
AcDbCircle
 10
92.1317245633
 20
7.2909141747
 30
0.0
 40
1.0
100
AcDbArc
 50
360.0
 51
139.3556420189
  0
LINE
  5
9F
330
1F
100
AcDbEntity
  8
0
  6
Continuous
 62
     7
370
    25
100
AcDbLine
 10
85.7596099817
 20
1.4033235485
 30
0.0
 11
91.3729573082
 21
7.9422760193
 31
0.0
  0
ARC
  5
A0
330
1F
100
AcDbEntity
  8
0
  6
Continuous
 62
     7
370
    25
100
AcDbCircle
 10
86.5183772368
 20
0.7519617039
 30
0.0
 40
1.000000000000001
100
AcDbArc
 50
139.3556420189
 51
270.0
  0
LINE
  5
A1
330
1F
100
AcDbEntity
  8
0
  6
Continuous
 62
     7
370
    25
100
AcDbLine
 10
82.1913258915
 20
2.4521002978
 30
0.0
 11
82.1913258915
 21
8.9910527686
 31
0.0
  0
ARC
  5
A2
330
1F
100
AcDbEntity
  8
0
  6
Continuous
 62
     7
370
    25
100
AcDbCircle
 10
83.1913258915
 20
2.4521002978
 30
0.0
 40
1.0
100
AcDbArc
 50
180.0
 51
319.3556420189
  0
LINE
  5
A3
330
1F
100
AcDbEntity
  8
0
  6
Continuous
 62
     7
370
    25
100
AcDbLine
 10
89.5634404731
 20
8.339690924
 30
0.0
 11
83.9500931466
 21
1.8007384532
 31
0.0
  0
ARC
  5
A4
330
1F
100
AcDbEntity
  8
0
  6
Continuous
 62
     7
370
    25
100
AcDbCircle
 10
88.804673218
 20
8.9910527686
 30
0.0
 40
1.000000000000002
100
AcDbArc
 50
319.3556420189
 51
90.0
  0
LINE
  5
A5
330
1F
100
AcDbEntity
  8
0
  6
Continuous
 62
     7
370
    25
100
AcDbLine
 10
83.1913258915
 20
9.9910527686
 30
0.0
 11
88.804673218
 21
9.9910527686
 31
0.0
  0
ARC
  5
A6
330
1F
100
AcDbEntity
  8
0
  6
Continuous
 62
     7
370
    25
100
AcDbCircle
 10
83.1913258915
 20
8.9910527686
 30
0.0
 40
1.0
100
AcDbArc
 50
90.0
 51
180.0
  0
LINE
  5
A7
330
1F
100
AcDbEntity
  8
0
  6
Continuous
 62
     7
370
    25
100
AcDbLine
 10
72.1924201037
 20
9.9910527686
 30
0.0
 11
78.900387708
 21
9.9910527686
 31
0.0
  0
ARC
  5
A8
330
1F
100
AcDbEntity
  8
0
  6
Continuous
 62
     7
370
    25
100
AcDbCircle
 10
72.1924201037
 20
8.9910527686
 30
0.0
 40
1.000000000000016
100
AcDbArc
 50
90.0
 51
224.6048629575
  0
LINE
  5
A9
330
1F
100
AcDbEntity
  8
0
  6
Continuous
 62
     7
370
    25
100
AcDbLine
 10
78.1884212596
 20
1.4877054641
 30
0.0
 11
71.4804536553
 21
8.2888392852
 31
0.0
  0
ARC
  5
AA
330
1F
100
AcDbEntity
  8
0
  6
Continuous
 62
     7
370
    25
100
AcDbCircle
 10
78.900387708
 20
2.1899189475
 30
0.0
 40
1.0
100
AcDbArc
 50
224.6048629575
 51
0.0
  0
LINE
  5
AB
330
1F
100
AcDbEntity
  8
0
  6
Continuous
 62
     7
370
    25
100
AcDbLine
 10
79.900387708
 20
8.9910527686
 30
0.0
 11
79.900387708
 21
2.1899189475
 31
0.0
  0
ARC
  5
AC
330
1F
100
AcDbEntity
  8
0
  6
Continuous
 62
     7
370
    25
100
AcDbCircle
 10
78.900387708
 20
8.9910527686
 30
0.0
 40
1.0
100
AcDbArc
 50
0.0
 51
90.0
  0
LINE
  5
AD
330
1F
100
AcDbEntity
  8
0
  6
Continuous
 62
     7
370
    25
100
AcDbLine
 10
120.1415433319
 20
-0.2480382961
 30
0.0
 11
114.3126856176
 21
-0.2480382961
 31
0.0
  0
ARC
  5
AE
330
1F
100
AcDbEntity
  8
0
  6
Continuous
 62
     7
370
    25
100
AcDbCircle
 10
120.1415433319
 20
0.7519617039
 30
0.0
 40
1.0
100
AcDbArc
 50
270.0
 51
0.0
  0
LINE
  5
AF
330
1F
100
AcDbEntity
  8
0
  6
Continuous
 62
     7
370
    25
100
AcDbLine
 10
121.1415433319
 20
7.3489870577
 30
0.0
 11
121.1415433319
 21
0.7519617039
 31
0.0
  0
ARC
  5
B0
330
1F
100
AcDbEntity
  8
0
  6
Continuous
 62
     7
370
    25
100
AcDbCircle
 10
120.1415433319
 20
7.3489870577
 30
0.0
 40
1.0
100
AcDbArc
 50
360.0
 51
138.5375211329
  0
LINE
  5
B1
330
1F
100
AcDbEntity
  8
0
  6
Continuous
 62
     7
370
    25
100
AcDbLine
 10
113.5632961293
 20
1.4140911434
 30
0.0
 11
119.3921538435
 21
8.0111164973
 31
0.0
  0
ARC
  5
B2
330
1F
100
AcDbEntity
  8
0
  6
Continuous
 62
     7
370
    25
100
AcDbCircle
 10
114.3126856176
 20
0.7519617039
 30
0.0
 40
1.000000000000002
100
AcDbArc
 50
138.5375211329
 51
270.0
  0
LINE
  5
B3
330
1F
100
AcDbEntity
  8
0
  6
Continuous
 62
     7
370
    25
100
AcDbLine
 10
109.6999569183
 20
2.3940274147
 30
0.0
 11
109.6999569183
 21
8.9910527686
 31
0.0
  0
ARC
  5
B4
330
1F
100
AcDbEntity
  8
0
  6
Continuous
 62
     7
370
    25
100
AcDbCircle
 10
110.6999569183
 20
2.3940274147
 30
0.0
 40
1.0
100
AcDbArc
 50
180.0
 51
318.5375211329
  0
LINE
  5
B5
330
1F
100
AcDbEntity
  8
0
  6
Continuous
 62
     7
370
    25
100
AcDbLine
 10
117.2782041209
 20
8.328923329
 30
0.0
 11
111.4493464067
 21
1.7318979752
 31
0.0
  0
ARC
  5
B6
330
1F
100
AcDbEntity
  8
0
  6
Continuous
 62
     7
370
    25
100
AcDbCircle
 10
116.5288146326
 20
8.9910527686
 30
0.0
 40
1.000000000000003
100
AcDbArc
 50
318.5375211329
 51
90.0
  0
LINE
  5
B7
330
1F
100
AcDbEntity
  8
0
  6
Continuous
 62
     7
370
    25
100
AcDbLine
 10
110.6999569183
 20
9.9910527686
 30
0.0
 11
116.5288146326
 21
9.9910527686
 31
0.0
  0
ARC
  5
B8
330
1F
100
AcDbEntity
  8
0
  6
Continuous
 62
     7
370
    25
100
AcDbCircle
 10
110.6999569183
 20
8.9910527686
 30
0.0
 40
1.0
100
AcDbArc
 50
90.0
 51
180.0
  0
LINE
  5
B9
330
1F
100
AcDbEntity
  8
0
  6
Continuous
 62
     7
370
    25
100
AcDbLine
 10
105.367659941
 20
1.6901260725
 30
0.0
 11
99.40175373
 21
8.3222756167
 31
0.0
  0
ARC
  5
BA
330
1F
100
AcDbEntity
  8
0
  6
Continuous
 62
     7
370
    25
100
AcDbCircle
 10
106.1111228662
 20
2.3589032244
 30
0.0
 40
1.000000000000004
100
AcDbArc
 50
221.9727548177
 51
0.0
  0
LINE
  5
BB
330
1F
100
AcDbEntity
  8
0
  6
Continuous
 62
     7
370
    25
100
AcDbLine
 10
107.1111228662
 20
8.9910527686
 30
0.0
 11
107.1111228662
 21
2.3589032244
 31
0.0
  0
ARC
  5
BC
330
1F
100
AcDbEntity
  8
0
  6
Continuous
 62
     7
370
    25
100
AcDbCircle
 10
106.1111228662
 20
8.9910527686
 30
0.0
 40
1.0
100
AcDbArc
 50
0.0
 51
90.0
  0
LINE
  5
BD
330
1F
100
AcDbEntity
  8
0
  6
Continuous
 62
     7
370
    25
100
AcDbLine
 10
100.1452166552
 20
9.9910527686
 30
0.0
 11
106.1111228662
 21
9.9910527686
 31
0.0
  0
ARC
  5
BE
330
1F
100
AcDbEntity
  8
0
  6
Continuous
 62
     7
370
    25
100
AcDbCircle
 10
100.1452166552
 20
8.9910527686
 30
0.0
 40
1.000000000000006
100
AcDbArc
 50
90.0
 51
221.9727548177
  0
LINE
  5
BF
330
1F
100
AcDbEntity
  8
0
  6
Continuous
 62
     7
370
    25
100
AcDbLine
 10
75.3120952666
 20
-0.2480382961
 30
0.0
 11
68.6041276623
 21
-0.2480382961
 31
0.0
  0
ARC
  5
C0
330
1F
100
AcDbEntity
  8
0
  6
Continuous
 62
     7
370
    25
100
AcDbCircle
 10
75.3120952666
 20
0.7519617039
 30
0.0
 40
1.000000000000006
100
AcDbArc
 50
270.0
 51
44.6048629575
  0
LINE
  5
C1
330
1F
100
AcDbEntity
  8
0
  6
Continuous
 62
     7
370
    25
100
AcDbLine
 10
69.3160941108
 20
8.2553090083
 30
0.0
 11
76.0240617151
 21
1.4541751873
 31
0.0
  0
ARC
  5
C2
330
1F
100
AcDbEntity
  8
0
  6
Continuous
 62
     7
370
    25
100
AcDbCircle
 10
68.6041276623
 20
7.5530955249
 30
0.0
 40
1.000000000000012
100
AcDbArc
 50
44.6048629575
 51
180.0
  0
LINE
  5
C3
330
1F
100
AcDbEntity
  8
0
  6
Continuous
 62
     7
370
    25
100
AcDbLine
 10
67.6041276623
 20
0.7519617039
 30
0.0
 11
67.6041276623
 21
7.5530955249
 31
0.0
  0
ARC
  5
C4
330
1F
100
AcDbEntity
  8
0
  6
Continuous
 62
     7
370
    25
100
AcDbCircle
 10
68.6041276623
 20
0.7519617039
 30
0.0
 40
1.0
100
AcDbArc
 50
180.0
 51
270.0
  0
SPLINE
  5
C5
330
1F
100
AcDbEntity
  8
0
  6
Continuous
 62
     7
370
    25
100
AcDbSpline
210
0.0
220
0.0
230
1.0
 70
     8
 71
     3
 72
     9
 73
     5
 74
     0
 42
0.00000001
 43
0.00000001
 40
0.0
 40
0.0
 40
0.0
 40
0.0
 40
0.5
 40
1.0
 40
1.0
 40
1.0
 40
1.0
 10
57.94390714969106
 20
-2.321780467385343
 30
0.0
 10
57.92130233348767
 20
-2.322517036449725
 30
0.0
 10
57.87644265799844
 20
-2.323604336099558
 30
0.0
 10
57.8322846140552
 20
-2.323955336716286
 30
0.0
 10
57.81038113813354
 20
-2.323955336780763
 30
0.0
  0
ARC
  5
C6
330
1F
100
AcDbEntity
  8
0
  6
Continuous
 62
     7
370
    25
100
AcDbCircle
 10
58.0774331493
 20
1.776044664
 30
0.0
 40
4.100000000002265
100
AcDbArc
 50
268.1337001787
 51
91.8663001555
  0
SPLINE
  5
C7
330
1F
100
AcDbEntity
  8
0
  6
Continuous
 62
     7
370
    25
100
AcDbSpline
210
0.0
220
0.0
230
1.0
 70
     8
 71
     3
 72
     9
 73
     5
 74
     0
 42
0.00000001
 43
0.00000001
 40
0.0
 40
0.0
 40
0.0
 40
0.0
 40
0.5
 40
1.0
 40
1.0
 40
1.0
 40
1.0
 10
57.81038112649078
 20
5.876044663219229
 30
0.0
 10
57.83228460043037
 20
5.87604466321923
 30
0.0
 10
57.87644263883349
 20
5.875693662869864
 30
0.0
 10
57.92130231168905
 20
5.874606363478033
 30
0.0
 10
57.94390712578792
 20
5.873869794616577
 30
0.0
  0
SPLINE
  5
C8
330
1F
100
AcDbEntity
  8
0
  6
Continuous
 62
     7
370
    25
100
AcDbSpline
210
0.0
220
0.0
230
1.0
 70
     8
 71
     3
 72
    10
 73
     6
 74
     0
 42
0.00000001
 43
0.00000001
 40
0.0
 40
0.0
 40
0.0
 40
0.0
 40
0.5
 40
0.5
 40
1.0
 40
1.0
 40
1.0
 40
1.0
 10
57.81038113813354
 20
-2.323955336780764
 30
0.0
 10
56.44371446553876
 20
-2.323955340732831
 30
0.0
 10
53.71038113418148
 20
-0.9572886859223702
 30
0.0
 10
53.71038111837319
 20
4.509377988648429
 30
0.0
 10
56.44371445763463
 20
5.876044663219229
 30
0.0
 10
57.81038112627733
 20
5.876044663219229
 30
0.0
  0
ENDSEC
  0
SECTION
  2
OBJECTS
  0
DICTIONARY
  5
C
330
0
100
AcDbDictionary
281
     1
  3
ACAD_GROUP
350
D
  3
ACAD_LAYOUT
350
1A
  3
ACAD_MLINESTYLE
350
17
  3
ACAD_PLOTSETTINGS
350
19
  3
ACAD_PLOTSTYLENAME
350
E
  3
ACAD_SCALELIST
350
47
  3
DWGPROPS
350
C9
  0
DICTIONARY
  5
D
102
{ACAD_REACTORS
330
C
102
}
330
C
100
AcDbDictionary
281
     1
  0
DICTIONARY
  5
1A
102
{ACAD_REACTORS
330
C
102
}
330
C
100
AcDbDictionary
281
     1
  3
Layout1
350
1E
  3
Layout2
350
26
  3
Model
350
22
  0
DICTIONARY
  5
17
102
{ACAD_REACTORS
330
C
102
}
330
C
100
AcDbDictionary
281
     1
  3
Standard
350
18
  0
DICTIONARY
  5
19
102
{ACAD_REACTORS
330
C
102
}
330
C
100
AcDbDictionary
281
     1
  0
ACDBDICTIONARYWDFLT
  5
E
102
{ACAD_REACTORS
330
C
102
}
330
C
100
AcDbDictionary
281
     1
  3
Normal
350
F
100
AcDbDictionaryWithDefault
340
F
  0
DICTIONARY
  5
47
102
{ACAD_REACTORS
330
C
102
}
330
C
100
AcDbDictionary
281
     1
  3
A0
350
48
  3
A1
350
49
  3
A2
350
4A
  3
A3
350
4B
  3
A4
350
4C
  3
A5
350
4D
  3
A6
350
4E
  3
A7
350
4F
  3
A8
350
50
  3
A9
350
51
  3
B0
350
52
  3
B1
350
53
  3
B2
350
54
  3
B3
350
55
  3
B4
350
56
  3
B5
350
57
  3
B6
350
58
  0
XRECORD
  5
C9
102
{ACAD_REACTORS
330
C
102
}
330
C
100
AcDbXrecord
280
     1
  1
DWGPROPS COOKIE
  2

  3

  4

  6

  7

  8
CX_in_command
  9

300
=
301
=
302
=
303
=
304
=
305
=
306
=
307
=
308
=
309
=
 40
0.0
 41
2461081.385447361
 42
2461081.385522824
  1

 90
        0
  0
LAYOUT
  5
1E
102
{ACAD_REACTORS
330
1A
102
}
330
1A
100
AcDbPlotSettings
  1

  2
none_device
  4

  6

 40
0.0
 41
0.0
 42
0.0
 43
0.0
 44
0.0
 45
0.0
 46
0.0
 47
0.0
 48
0.0
 49
0.0
140
0.0
141
0.0
142
1.0
143
1.0
 70
   688
 72
     1
 73
     0
 74
     5
  7

 75
    16
147
1.0
148
0.0
149
0.0
100
AcDbLayout
  1
Layout1
 70
     1
 71
     1
 10
0.0
 20
0.0
 11
420.0
 21
297.0
 12
0.0
 22
0.0
 32
0.0
 14
1.0000000000E+20
 24
1.0000000000E+20
 34
1.0000000000E+20
 15
-1.0000000000E+20
 25
-1.0000000000E+20
 35
-1.0000000000E+20
146
0.0
 13
0.0
 23
0.0
 33
0.0
 16
1.0
 26
0.0
 36
0.0
 17
0.0
 27
1.0
 37
0.0
 76
     0
330
1B
  0
LAYOUT
  5
26
102
{ACAD_REACTORS
330
1A
102
}
330
1A
100
AcDbPlotSettings
  1

  2
none_device
  4

  6

 40
0.0
 41
0.0
 42
0.0
 43
0.0
 44
0.0
 45
0.0
 46
0.0
 47
0.0
 48
0.0
 49
0.0
140
0.0
141
0.0
142
1.0
143
1.0
 70
   688
 72
     1
 73
     0
 74
     5
  7

 75
    16
147
1.0
148
0.0
149
0.0
100
AcDbLayout
  1
Layout2
 70
     1
 71
     2
 10
0.0
 20
0.0
 11
0.0
 21
0.0
 12
0.0
 22
0.0
 32
0.0
 14
0.0
 24
0.0
 34
0.0
 15
0.0
 25
0.0
 35
0.0
146
0.0
 13
0.0
 23
0.0
 33
0.0
 16
1.0
 26
0.0
 36
0.0
 17
0.0
 27
1.0
 37
0.0
 76
     0
330
23
  0
LAYOUT
  5
22
102
{ACAD_REACTORS
330
1A
102
}
330
1A
100
AcDbPlotSettings
  1

  2
none_device
  4
ANSI_A_(11.00_x_8.50_Inches)
  6

 40
6.35
 41
19.05
 42
6.35000508
 43
19.05000254
 44
279.4
 45
215.9
 46
-99.2336337272
 47
84.6018707291
 48
0.0
 49
0.0
140
0.0
141
0.0
142
0.0958651018
143
1.0
 70
  1696
 72
     0
 73
     0
 74
     0
  7

 75
     0
147
0.0179189148
148
-1300.4909072572
149
0.0
100
AcDbLayout
  1
Model
 70
     1
 71
     0
 10
0.0
 20
0.0
 11
420.0
 21
297.0
 12
0.0
 22
0.0
 32
0.0
 14
38.7193650696
 24
-10.0
 34
0.0
 15
152.3164905827
 25
13.5303282357
 35
0.0
146
0.0
 13
0.0
 23
0.0
 33
0.0
 16
1.0
 26
0.0
 36
0.0
 17
0.0
 27
1.0
 37
0.0
 76
     0
330
1F
331
29
  0
MLINESTYLE
  5
18
102
{ACAD_REACTORS
330
17
102
}
330
17
100
AcDbMlineStyle
  2
Standard
 70
     0
  3

 62
   256
 51
90.0
 52
90.0
 71
     2
 49
0.5
 62
   256
  6
BYLAYER
 49
-0.5
 62
   256
  6
BYLAYER
  0
ACDBPLACEHOLDER
  5
F
102
{ACAD_REACTORS
330
E
102
}
330
E
  0
SCALE
  5
48
102
{ACAD_REACTORS
330
47
102
}
330
47
100
AcDbScale
 70
     0
300
1:1
140
1.0
141
1.0
290
     1
  0
SCALE
  5
49
102
{ACAD_REACTORS
330
47
102
}
330
47
100
AcDbScale
 70
     0
300
1:2
140
1.0
141
2.0
290
     0
  0
SCALE
  5
4A
102
{ACAD_REACTORS
330
47
102
}
330
47
100
AcDbScale
 70
     0
300
1:4
140
1.0
141
4.0
290
     0
  0
SCALE
  5
4B
102
{ACAD_REACTORS
330
47
102
}
330
47
100
AcDbScale
 70
     0
300
1:5
140
1.0
141
5.0
290
     0
  0
SCALE
  5
4C
102
{ACAD_REACTORS
330
47
102
}
330
47
100
AcDbScale
 70
     0
300
1:8
140
1.0
141
8.0
290
     0
  0
SCALE
  5
4D
102
{ACAD_REACTORS
330
47
102
}
330
47
100
AcDbScale
 70
     0
300
1:10
140
1.0
141
10.0
290
     0
  0
SCALE
  5
4E
102
{ACAD_REACTORS
330
47
102
}
330
47
100
AcDbScale
 70
     0
300
1:16
140
1.0
141
16.0
290
     0
  0
SCALE
  5
4F
102
{ACAD_REACTORS
330
47
102
}
330
47
100
AcDbScale
 70
     0
300
1:20
140
1.0
141
20.0
290
     0
  0
SCALE
  5
50
102
{ACAD_REACTORS
330
47
102
}
330
47
100
AcDbScale
 70
     0
300
1:30
140
1.0
141
30.0
290
     0
  0
SCALE
  5
51
102
{ACAD_REACTORS
330
47
102
}
330
47
100
AcDbScale
 70
     0
300
1:40
140
1.0
141
40.0
290
     0
  0
SCALE
  5
52
102
{ACAD_REACTORS
330
47
102
}
330
47
100
AcDbScale
 70
     0
300
1:50
140
1.0
141
50.0
290
     0
  0
SCALE
  5
53
102
{ACAD_REACTORS
330
47
102
}
330
47
100
AcDbScale
 70
     0
300
1:100
140
1.0
141
100.0
290
     0
  0
SCALE
  5
54
102
{ACAD_REACTORS
330
47
102
}
330
47
100
AcDbScale
 70
     0
300
2:1
140
2.0
141
1.0
290
     0
  0
SCALE
  5
55
102
{ACAD_REACTORS
330
47
102
}
330
47
100
AcDbScale
 70
     0
300
4:1
140
4.0
141
1.0
290
     0
  0
SCALE
  5
56
102
{ACAD_REACTORS
330
47
102
}
330
47
100
AcDbScale
 70
     0
300
8:1
140
8.0
141
1.0
290
     0
  0
SCALE
  5
57
102
{ACAD_REACTORS
330
47
102
}
330
47
100
AcDbScale
 70
     0
300
10:1
140
10.0
141
1.0
290
     0
  0
SCALE
  5
58
102
{ACAD_REACTORS
330
47
102
}
330
47
100
AcDbScale
 70
     0
300
100:1
140
100.0
141
1.0
290
     0
  0
ENDSEC
  0
EOF
