  0
SECTION
  2
HEADER
  9
$ACADVER
  1
AC1015
  9
$ACADMAINTVER
 70
     6
  9
$DWGCODEPAGE
  3
ANSI_936
  9
$INSBASE
 10
0.0
 20
0.0
 30
0.0
  9
$EXTMIN
 10
54.205645734
 20
-10.0
 30
0.0
  9
$EXTMAX
 10
152.3164905549
 20
12.0968038674
 30
0.0
  9
$LIMMIN
 10
0.0
 20
0.0
  9
$LIMMAX
 10
420.0
 20
297.0
  9
$ORTHOMODE
 70
     0
  9
$REGENMODE
 70
     1
  9
$FILLMODE
 70
     1
  9
$QTEXTMODE
 70
     0
  9
$MIRRTEXT
 70
     1
  9
$LTSCALE
 40
1.0
  9
$ATTMODE
 70
     1
  9
$TEXTSIZE
 40
3.5
  9
$TRACEWID
 40
1.0
  9
$TEXTSTYLE
  7
Standard
  9
$CLAYER
  8
0
  9
$CELTYPE
  6
ByLayer
  9
$CECOLOR
 62
   256
  9
$CELTSCALE
 40
1.0
  9
$DISPSILH
 70
     0
  9
$DIMSCALE
 40
1.0
  9
$DIMASZ
 40
3.556
  9
$DIMEXO
 40
0.0
  9
$DIMDLI
 40
3.75
  9
$DIMRND
 40
0.0
  9
$DIMDLE
 40
0.0
  9
$DIMEXE
 40
1.0
  9
$DIMTP
 40
0.0
  9
$DIMTM
 40
0.0
  9
$DIMTXT
 40
3.5
  9
$DIMCEN
 40
2.5
  9
$DIMTSZ
 40
0.0
  9
$DIMTOL
 70
     0
  9
$DIMLIM
 70
     0
  9
$DIMTIH
 70
     1
  9
$DIMTOH
 70
     1
  9
$DIMSE1
 70
     0
  9
$DIMSE2
 70
     0
  9
$DIMTAD
 70
     1
  9
$DIMZIN
 70
     1
  9
$DIMBLK
  1

  9
$DIMASO
 70
     1
  9
$DIMSHO
 70
     1
  9
$DIMPOST
  1

  9
$DIMAPOST
  1

  9
$DIMALT
 70
     0
  9
$DIMALTD
 70
     3
  9
$DIMALTF
 40
0.0393700787
  9
$DIMLFAC
 40
1.0
  9
$DIMTOFL
 70
     1
  9
$DIMTVP
 40
0.0
  9
$DIMTIX
 70
     0
  9
$DIMSOXD
 70
     0
  9
$DIMSAH
 70
     0
  9
$DIMBLK1
  1

  9
$DIMBLK2
  1

  9
$DIMSTYLE
  2
ISO-25
  9
$DIMCLRD
 70
     0
  9
$DIMCLRE
 70
     0
  9
$DIMCLRT
 70
     0
  9
$DIMTFAC
 40
1.0
  9
$DIMGAP
 40
1.524
  9
$DIMJUST
 70
     0
  9
$DIMSD1
 70
     0
  9
$DIMSD2
 70
     0
  9
$DIMTOLJ
 70
     0
  9
$DIMTZIN
 70
     1
  9
$DIMALTZ
 70
     0
  9
$DIMALTTZ
 70
     0
  9
$DIMUPT
 70
     0
  9
$DIMDEC
 70
     2
  9
$DIMTDEC
 70
     2
  9
$DIMALTU
 70
     2
  9
$DIMALTTD
 70
     3
  9
$DIMTXSTY
  7
Standard
  9
$DIMAUNIT
 70
     0
  9
$DIMADEC
 70
     2
  9
$DIMALTRND
 40
0.0
  9
$DIMAZIN
 70
     0
  9
$DIMDSEP
 70
    44
  9
$DIMATFIT
 70
     3
  9
$DIMFRAC
 70
     0
  9
$DIMLDRBLK
  1

  9
$DIMLUNIT
 70
     2
  9
$DIMLWD
 70
    -2
  9
$DIMLWE
 70
    -2
  9
$DIMTMOVE
 70
     0
  9
$LUNITS
 70
     2
  9
$LUPREC
 70
     2
  9
$SKETCHINC
 40
1.0
  9
$FILLETRAD
 40
0.0
  9
$AUNITS
 70
     0
  9
$AUPREC
 70
     2
  9
$MENU
  1
.
  9
$ELEVATION
 40
0.0
  9
$PELEVATION
 40
0.0
  9
$THICKNESS
 40
0.0
  9
$LIMCHECK
 70
     0
  9
$CHAMFERA
 40
0.0
  9
$CHAMFERB
 40
0.0
  9
$CHAMFERC
 40
0.0
  9
$CHAMFERD
 40
0.0
  9
$SKPOLY
 70
     0
  9
$TDCREATE
 40
2461081.720151158
  9
$TDUCREATE
 40
2461081.386817824
  9
$TDUPDATE
 40
2461081.720370266
  9
$TDUUPDATE
 40
2461081.387036933
  9
$TDINDWG
 40
0.0000000116
  9
$TDUSRTIMER
 40
0.0000000116
  9
$USRTIMER
 70
     1
  9
$ANGBASE
 50
0.0
  9
$ANGDIR
 70
     0
  9
$PDMODE
 70
     0
  9
$PDSIZE
 40
-1.0
  9
$PLINEWID
 40
0.0
  9
$SPLFRAME
 70
     0
  9
$SPLINETYPE
 70
     6
  9
$SPLINESEGS
 70
     8
  9
$HANDSEED
  5
BA
  9
$SURFTAB1
 70
     6
  9
$SURFTAB2
 70
     6
  9
$SURFTYPE
 70
     6
  9
$SURFU
 70
     6
  9
$SURFV
 70
     6
  9
$UCSBASE
  2

  9
$UCSNAME
  2

  9
$UCSORG
 10
0.0
 20
0.0
 30
0.0
  9
$UCSXDIR
 10
1.0
 20
0.0
 30
0.0
  9
$UCSYDIR
 10
0.0
 20
1.0
 30
0.0
  9
$UCSORTHOREF
  2

  9
$UCSORTHOVIEW
 70
     0
  9
$UCSORGTOP
 10
0.0
 20
0.0
 30
0.0
  9
$UCSORGBOTTOM
 10
0.0
 20
0.0
 30
0.0
  9
$UCSORGLEFT
 10
0.0
 20
0.0
 30
0.0
  9
$UCSORGRIGHT
 10
0.0
 20
0.0
 30
0.0
  9
$UCSORGFRONT
 10
0.0
 20
0.0
 30
0.0
  9
$UCSORGBACK
 10
0.0
 20
0.0
 30
0.0
  9
$PUCSBASE
  2

  9
$PUCSNAME
  2

  9
$PUCSORG
 10
0.0
 20
0.0
 30
0.0
  9
$PUCSXDIR
 10
1.0
 20
0.0
 30
0.0
  9
$PUCSYDIR
 10
0.0
 20
1.0
 30
0.0
  9
$PUCSORTHOREF
  2

  9
$PUCSORTHOVIEW
 70
     0
  9
$PUCSORGTOP
 10
0.0
 20
0.0
 30
0.0
  9
$PUCSORGBOTTOM
 10
0.0
 20
0.0
 30
0.0
  9
$PUCSORGLEFT
 10
0.0
 20
0.0
 30
0.0
  9
$PUCSORGRIGHT
 10
0.0
 20
0.0
 30
0.0
  9
$PUCSORGFRONT
 10
0.0
 20
0.0
 30
0.0
  9
$PUCSORGBACK
 10
0.0
 20
0.0
 30
0.0
  9
$USERI1
 70
     0
  9
$USERI2
 70
     0
  9
$USERI3
 70
     0
  9
$USERI4
 70
     0
  9
$USERI5
 70
     0
  9
$USERR1
 40
0.0
  9
$USERR2
 40
0.0
  9
$USERR3
 40
0.0
  9
$USERR4
 40
0.0
  9
$USERR5
 40
0.0
  9
$WORLDVIEW
 70
     1
  9
$SHADEDGE
 70
     3
  9
$SHADEDIF
 70
    70
  9
$TILEMODE
 70
     1
  9
$MAXACTVP
 70
    64
  9
$PINSBASE
 10
0.0
 20
0.0
 30
0.0
  9
$PLIMCHECK
 70
     0
  9
$PEXTMIN
 10
1.0000000000E+20
 20
1.0000000000E+20
 30
1.0000000000E+20
  9
$PEXTMAX
 10
-1.0000000000E+20
 20
-1.0000000000E+20
 30
-1.0000000000E+20
  9
$PLIMMIN
 10
0.0
 20
0.0
  9
$PLIMMAX
 10
420.0
 20
297.0
  9
$UNITMODE
 70
     0
  9
$VISRETAIN
 70
     1
  9
$PLINEGEN
 70
     0
  9
$PSLTSCALE
 70
     1
  9
$TREEDEPTH
 70
  3020
  9
$CMLSTYLE
  2
Standard
  9
$CMLJUST
 70
     0
  9
$CMLSCALE
 40
20.0
  9
$PROXYGRAPHICS
 70
     1
  9
$MEASUREMENT
 70
     1
  9
$CELWEIGHT
370
    -1
  9
$ENDCAPS
280
     0
  9
$JOINSTYLE
280
     0
  9
$LWDISPLAY
290
     1
  9
$INSUNITS
 70
     4
  9
$HYPERLINKBASE
  1

  9
$STYLESHEET
  1

  9
$XEDIT
290
     1
  9
$CEPSNTYPE
380
     0
  9
$PSTYLEMODE
290
     1
  9
$FINGERPRINTGUID
  2
{36f92af6-f536-4e59-9331-b28ff708db76}
  9
$VERSIONGUID
  2
{FAEB1C32-E019-11D5-929B-00C0DF256EC4}
  9
$EXTNAMES
290
     1
  9
$PSVPSCALE
 40
0.0
  9
$OLESTARTUP
290
     0
  0
ENDSEC
  0
SECTION
  2
CLASSES
  0
CLASS
  1
ACDBDICTIONARYWDFLT
  2
AcDbDictionaryWithDefault
  3
ObjectDBX Classes
 90
        0
280
     0
281
     0
  0
CLASS
  1
VISUALSTYLE
  2
AcDbVisualStyle
  3
ObjectDBX Classes
 90
     4095
280
     0
281
     0
  0
CLASS
  1
MATERIAL
  2
AcDbMaterial
  3
ObjectDBX Classes
 90
     1153
280
     0
281
     0
  0
CLASS
  1
SCALE
  2
AcDbScale
  3
ObjectDBX Classes
 90
     1153
280
     0
281
     0
  0
CLASS
  1
TABLESTYLE
  2
AcDbTableStyle
  3
ObjectDBX Classes
 90
     4095
280
     0
281
     0
  0
CLASS
  1
MLEADERSTYLE
  2
AcDbMLeaderStyle
  3
ACDB_MLEADERSTYLE_CLASS
 90
     4095
280
     0
281
     0
  0
CLASS
  1
SUN
  2
AcDbSun
  3
SCENEOE
 90
     1153
280
     0
281
     0
  0
CLASS
  1
ACDBPLACEHOLDER
  2
AcDbPlaceHolder
  3
ObjectDBX Classes
 90
        0
280
     0
281
     0
  0
CLASS
  1
LAYOUT
  2
AcDbLayout
  3
ObjectDBX Classes
 90
        0
280
     0
281
     0
  0
ENDSEC
  0
SECTION
  2
TABLES
  0
TABLE
  2
VPORT
  5
8
330
0
100
AcDbSymbolTable
 70
     1
  0
VPORT
  5
29
330
8
100
AcDbSymbolTableRecord
100
AcDbViewportTableRecord
  2
*Active
 70
     0
 10
0.0
 20
0.0
 11
1.0
 21
1.0
 12
103.2610681445
 22
1.0484019337
 13
0.0
 23
0.0
 14
10.0
 24
10.0
 15
10.0
 25
10.0
 16
0.0
 26
0.0
 36
1.0
 17
0.0
 27
0.0
 37
0.0
 40
22.5387399447
 41
4.4400468688
 42
50.0
 43
0.0
 44
0.0
 50
0.0
 51
0.0
 71
     0
 72
   100
 73
     1
 74
     3
 75
     0
 76
     0
 77
     0
 78
     0
281
     0
 65
     1
110
0.0
120
0.0
130
0.0
111
1.0
121
0.0
131
0.0
112
0.0
122
1.0
132
0.0
 79
     0
146
0.0
  0
ENDTAB
  0
TABLE
  2
LTYPE
  5
5
330
0
100
AcDbSymbolTable
 70
     6
  0
LTYPE
  5
14
330
5
100
AcDbSymbolTableRecord
100
AcDbLinetypeTableRecord
  2
ByBlock
 70
     0
  3

 72
    65
 73
     0
 40
0.0
  0
LTYPE
  5
15
330
5
100
AcDbSymbolTableRecord
100
AcDbLinetypeTableRecord
  2
ByLayer
 70
     0
  3

 72
    65
 73
     0
 40
0.0
  0
LTYPE
  5
16
330
5
100
AcDbSymbolTableRecord
100
AcDbLinetypeTableRecord
  2
Continuous
 70
     0
  3
Solid line
 72
    65
 73
     0
 40
0.0
  0
LTYPE
  5
5E
330
5
100
AcDbSymbolTableRecord
100
AcDbLinetypeTableRecord
  2
HIDDEN
 70
     0
  3
Hidden __ __ __ __ __ __ __ __ __ __ __ __ __ __
 72
    65
 73
     2
 40
1.905
 49
1.27
 74
     0
 49
-0.635
 74
     0
  0
LTYPE
  5
5F
330
5
100
AcDbSymbolTableRecord
100
AcDbLinetypeTableRecord
  2
PHANTOM
 70
     0
  3
Phantom ______  __  __  ______  __  __  ______
 72
    65
 73
     6
 40
12.7
 49
6.35
 74
     0
 49
-1.27
 74
     0
 49
1.27
 74
     0
 49
-1.27
 74
     0
 49
1.27
 74
     0
 49
-1.27
 74
     0
  0
LTYPE
  5
60
330
5
100
AcDbSymbolTableRecord
100
AcDbLinetypeTableRecord
  2
CENTER
 70
     0
  3
Center ____ _ ____ _ ____ _ ____ _ ____ _ ____
 72
    65
 73
     4
 40
10.16
 49
6.35
 74
     0
 49
-1.27
 74
     0
 49
1.27
 74
     0
 49
-1.27
 74
     0
  0
LTYPE
  5
61
330
5
100
AcDbSymbolTableRecord
100
AcDbLinetypeTableRecord
  2
CENTERX2
 70
     0
  3
Center (2x) ________  __  ________  __  _____
 72
    65
 73
     4
 40
20.32
 49
12.7
 74
     0
 49
-2.54
 74
     0
 49
2.54
 74
     0
 49
-2.54
 74
     0
  0
LTYPE
  5
62
330
5
100
AcDbSymbolTableRecord
100
AcDbLinetypeTableRecord
  2
DOT2
 70
     0
  3
Dot (.5x) ........................................
 72
    65
 73
     2
 40
0.635
 49
0.0
 74
     0
 49
-0.635
 74
     0
  0
ENDTAB
  0
TABLE
  2
LAYER
  5
2
330
0
100
AcDbSymbolTable
 70
     1
  0
LAYER
  5
10
330
2
100
AcDbSymbolTableRecord
100
AcDbLayerTableRecord
  2
0
 70
     0
 62
     7
  6
Continuous
370
    -3
390
F
  0
ENDTAB
  0
TABLE
  2
STYLE
  5
3
330
0
100
AcDbSymbolTable
 70
     1
  0
STYLE
  5
11
330
3
100
AcDbSymbolTableRecord
100
AcDbTextStyleTableRecord
  2
Standard
 70
     0
 40
0.0
 41
1.0
 50
0.0
 71
     0
 42
3.5
  3
txt
  4

  0
ENDTAB
  0
TABLE
  2
VIEW
  5
6
330
0
100
AcDbSymbolTable
 70
     0
  0
ENDTAB
  0
TABLE
  2
UCS
  5
7
330
0
100
AcDbSymbolTable
 70
     0
  0
ENDTAB
  0
TABLE
  2
APPID
  5
9
330
0
100
AcDbSymbolTable
 70
     1
  0
APPID
  5
12
330
9
100
AcDbSymbolTableRecord
100
AcDbRegAppTableRecord
  2
ACAD
 70
     0
  0
ENDTAB
  0
TABLE
  2
DIMSTYLE
  5
A
330
0
100
AcDbSymbolTable
 70
     1
100
AcDbDimStyleTable
  0
DIMSTYLE
105
27
330
A
100
AcDbSymbolTableRecord
100
AcDbDimStyleTableRecord
  2
ISO-25
 70
     0
 41
2.5
 42
0.625
 43
3.75
 44
1.25
 73
     0
 74
     0
 77
     1
 78
     8
140
2.5
141
2.5
143
0.0393700787
147
0.625
171
     3
172
     1
178
     0
271
     2
272
     2
274
     3
278
    44
283
     0
284
     8
340
11
  0
ENDTAB
  0
TABLE
  2
BLOCK_RECORD
  5
1
330
0
100
AcDbSymbolTable
 70
     1
  0
BLOCK_RECORD
  5
1F
330
1
100
AcDbSymbolTableRecord
100
AcDbBlockTableRecord
  2
*Model_Space
340
22
  0
BLOCK_RECORD
  5
1B
330
1
100
AcDbSymbolTableRecord
100
AcDbBlockTableRecord
  2
*Paper_Space
340
1E
  0
BLOCK_RECORD
  5
23
330
1
100
AcDbSymbolTableRecord
100
AcDbBlockTableRecord
  2
*Paper_Space0
340
26
  0
ENDTAB
  0
ENDSEC
  0
SECTION
  2
BLOCKS
  0
BLOCK
  5
20
330
1F
100
AcDbEntity
  8
0
100
AcDbBlockBegin
  2
*Model_Space
 70
     0
 10
0.0
 20
0.0
 30
0.0
  3
*Model_Space
  1

  0
ENDBLK
  5
21
330
1F
100
AcDbEntity
  8
0
100
AcDbBlockEnd
  0
BLOCK
  5
1C
330
1B
100
AcDbEntity
 67
     1
  8
0
100
AcDbBlockBegin
  2
*Paper_Space
 70
     0
 10
0.0
 20
0.0
 30
0.0
  3
*Paper_Space
  1

  0
ENDBLK
  5
1D
330
1B
100
AcDbEntity
 67
     1
  8
0
100
AcDbBlockEnd
  0
BLOCK
  5
24
330
23
100
AcDbEntity
  8
0
100
AcDbBlockBegin
  2
*Paper_Space0
 70
     0
 10
0.0
 20
0.0
 30
0.0
  3
*Paper_Space0
  1

  0
ENDBLK
  5
25
330
23
100
AcDbEntity
  8
0
100
AcDbBlockEnd
  0
ENDSEC
  0
SECTION
  2
ENTITIES
  0
LINE
  5
63
330
1F
100
AcDbEntity
  8
0
  6
Continuous
 62
     7
370
    25
100
AcDbLine
 10
135.4932850234
 20
-2.0801249452
 30
0.0
 11
135.4932850234
 21
-1.9850212319
 31
0.0
  0
SPLINE
  5
64
330
1F
100
AcDbEntity
  8
0
  6
Continuous
 62
     7
370
    25
100
AcDbSpline
210
0.0
220
0.0
230
1.0
 70
     8
 71
     3
 72
     8
 73
     4
 74
     0
 42
0.00000001
 43
0.00000001
 40
0.1909912534681748
 40
0.1909912534681748
 40
0.1909912534681748
 40
0.1909912534681748
 40
0.1946748673840815
 40
0.1946748673840815
 40
0.1946748673840815
 40
0.1946748673840815
 10
135.4932850089711
 20
-1.985020839304542
 30
0.0
 10
135.1601758580057
 20
-1.997248937642351
 30
0.0
 10
134.8270666724837
 20
-2.009476129885507
 30
0.0
 10
134.4939574606006
 20
-2.021702623768411
 30
0.0
  0
LINE
  5
65
330
1F
100
AcDbEntity
  8
0
  6
Continuous
 62
     7
370
    25
100
AcDbLine
 10
134.4939575791
 20
-2.0217058516
 30
0.0
 11
134.4939575791
 21
-2.1167945383
 31
0.0
  0
LINE
  5
66
330
1F
100
AcDbEntity
  8
0
  6
Continuous
 62
     7
370
    25
100
AcDbLine
 10
134.4939575791
 20
-2.1167945383
 30
0.0
 11
135.4932850234
 21
-2.0801249452
 31
0.0
  0
LINE
  5
67
330
1F
100
AcDbEntity
  8
0
  6
Continuous
 62
     7
370
    25
100
AcDbLine
 10
134.2940920902
 20
-2.124128457
 30
0.0
 11
134.2940920902
 21
-2.0290424758
 31
0.0
  0
SPLINE
  5
68
330
1F
100
AcDbEntity
  8
0
  6
Continuous
 62
     7
370
    25
100
AcDbSpline
210
0.0
220
0.0
230
1.0
 70
     8
 71
     3
 72
     8
 73
     4
 74
     0
 42
0.00000001
 43
0.00000001
 40
0.1954115901243887
 40
0.1954115901243887
 40
0.1954115901243887
 40
0.1954115901243887
 40
0.1990952036174436
 40
0.1990952036174436
 40
0.1990952036174436
 40
0.1990952036174436
 10
134.2940919420045
 20
-2.02903843752989
 30
0.0
 10
133.9609827581434
 20
-2.041264658974605
 30
0.0
 10
133.6278735495606
 20
-2.053490223606095
 30
0.0
 10
133.2947643244517
 20
-2.065715339158689
 30
0.0
  0
LINE
  5
69
330
1F
100
AcDbEntity
  8
0
  6
Continuous
 62
     7
370
    25
100
AcDbLine
 10
133.2947646459
 20
-2.0657240982
 30
0.0
 11
133.2947646459
 21
-2.1607980501
 31
0.0
  0
LINE
  5
6A
330
1F
100
AcDbEntity
  8
0
  6
Continuous
 62
     7
370
    25
100
AcDbLine
 10
133.2947646459
 20
-2.1607980501
 30
0.0
 11
134.2940920902
 21
-2.124128457
 31
0.0
  0
LINE
  5
6B
330
1F
100
AcDbEntity
  8
0
  6
Continuous
 62
     7
370
    25
100
AcDbLine
 10
133.094899157
 20
-2.1681319687
 30
0.0
 11
133.094899157
 21
-2.0730551181
 31
0.0
  0
SPLINE
  5
6C
330
1F
100
AcDbEntity
  8
0
  6
Continuous
 62
     7
370
    25
100
AcDbSpline
210
0.0
220
0.0
230
1.0
 70
     8
 71
     3
 72
     8
 73
     4
 74
     0
 42
0.00000001
 43
0.00000001
 40
0.1998319262749323
 40
0.1998319262749323
 40
0.1998319262749323
 40
0.1998319262749323
 40
0.2035155383773639
 40
0.2035155383773639
 40
0.2035155383773639
 40
0.2035155383773639
 10
133.0948987986249
 20
-2.07305035585323
 30
0.0
 10
132.7617896929875
 20
-2.085275295468536
 30
0.0
 10
132.4286805724633
 20
-2.097499827552116
 30
0.0
 10
132.0955714452479
 20
-2.109724159838065
 30
0.0
  0
LINE
  5
6D
330
1F
100
AcDbEntity
  8
0
  6
Continuous
 62
     7
370
    25
100
AcDbLine
 10
132.0955717127
 20
-2.109731449
 30
0.0
 11
132.0955717127
 21
-2.2048015618
 31
0.0
  0
LINE
  5
6E
330
1F
100
AcDbEntity
  8
0
  6
Continuous
 62
     7
370
    25
100
AcDbLine
 10
132.0955717127
 20
-2.2048015618
 30
0.0
 11
133.094899157
 21
-2.1681319687
 31
0.0
  0
SPLINE
  5
6F
330
1F
100
AcDbEntity
  8
0
  6
Continuous
 62
     7
370
    25
100
AcDbSpline
210
0.0
220
0.0
230
1.0
 70
     8
 71
     3
 72
    12
 73
     8
 74
     0
 42
0.00000001
 43
0.00000001
 40
0.1363515034589614
 40
0.1363515034589614
 40
0.1363515034589614
 40
0.1363515034589614
 40
0.1424336665664461
 40
0.1580257817197835
 40
0.1736178968731208
 40
0.1892100120264582
 40
0.1902545306413478
 40
0.1902545306413478
 40
0.1902545306413478
 40
0.1902545306413478
 10
150.3164905272145
 20
-1.440608599344866
 30
0.0
 10
149.7664809177577
 20
-1.460808409121391
 30
0.0
 10
147.8064774381158
 20
-1.532793620371085
 30
0.0
 10
144.4364811686795
 20
-1.656579346631076
 30
0.0
 10
140.2065002808714
 20
-1.811954957540461
 30
0.0
 10
137.2920567367501
 20
-1.918986649652523
 30
0.0
 10
135.7876063057872
 20
-1.974216387842449
 30
0.0
 10
135.6931505071786
 20
-1.977683869473952
 30
0.0
  0
LINE
  5
70
330
1F
100
AcDbEntity
  8
0
  6
Continuous
 62
     7
370
    25
100
AcDbLine
 10
135.6931505123
 20
-1.9776840082
 30
0.0
 11
135.6931505123
 21
-10.0
 31
0.0
  0
LINE
  5
71
330
1F
100
AcDbEntity
  8
0
  6
Continuous
 62
     7
370
    25
100
AcDbLine
 10
135.6931505123
 20
-10.0
 30
0.0
 11
131.6931505123
 21
-10.0
 31
0.0
  0
LINE
  5
72
330
1F
100
AcDbEntity
  8
0
  6
Continuous
 62
     7
370
    25
100
AcDbLine
 10
131.6931505123
 20
-10.0
 30
0.0
 11
131.6931505123
 21
-2.2195681148
 31
0.0
  0
LINE
  5
73
330
1F
100
AcDbEntity
  8
0
  6
Continuous
 62
     7
370
    25
100
AcDbLine
 10
131.6931505123
 20
-2.2195681148
 30
0.0
 11
131.8957062239
 21
-2.2121354804
 31
0.0
  0
LINE
  5
74
330
1F
100
AcDbEntity
  8
0
  6
Continuous
 62
     7
370
    25
100
AcDbLine
 10
131.8957062239
 20
-2.2121354804
 30
0.0
 11
131.8957062239
 21
-2.1170664503
 31
0.0
  0
SPLINE
  5
75
330
1F
100
AcDbEntity
  8
0
  6
Continuous
 62
     7
370
    25
100
AcDbSpline
210
0.0
220
0.0
230
1.0
 70
     8
 71
     3
 72
    19
 73
    15
 74
     0
 42
0.00000001
 43
0.00000001
 40
0.2042522619417429
 40
0.2042522619417429
 40
0.2042522619417429
 40
0.2042522619417429
 40
0.2048021271797955
 40
0.2203942423331328
 40
0.2359863574864702
 40
0.2515784726398074
 40
0.2671705877931448
 40
0.2827627029464821
 40
0.2983548180998195
 40
0.3139469332531569
 40
0.3295390484064942
 40
0.3451311635598315
 40
0.3529272211365002
 40
0.3605847170875743
 40
0.3605847170875743
 40
0.3605847170875743
 40
0.3605847170875743
 10
131.8957056578546
 20
-2.117058748283995
 30
0.0
 10
131.8459813313696
 20
-2.118883505022708
 30
0.0
 10
130.38626165941
 20
-2.172451413187535
 30
0.0
 10
127.5165464975537
 20
-2.277757672733827
 30
0.0
 10
123.2865633889386
 20
-2.433067023877693
 30
0.0
 10
119.0565942758849
 20
-2.588756479821234
 30
0.0
 10
114.8266329400456
 20
-2.744657063987315
 30
0.0
 10
110.5966574955994
 20
-2.900175118865927
 30
0.0
 10
106.3666396269812
 20
-3.054535705480878
 30
0.0
 10
102.1365786051352
 20
-3.207708043730457
 30
0.0
 10
97.90656538457377
 20
-3.362198734020606
 30
0.0
 10
94.3816661318424
 20
-3.493977210590958
 30
0.0
 10
91.57437542271771
 20
-3.601534215190662
 30
0.0
 10
90.17696554326105
 20
-3.654308172741749
 30
0.0
 10
89.48450786104975
 20
-3.679986812789019
 30
0.0
  0
LINE
  5
76
330
1F
100
AcDbEntity
  8
0
  6
Continuous
 62
     7
370
    25
100
AcDbLine
 10
89.484507861
 20
-10.0
 30
0.0
 11
89.484507861
 21
-3.6799868128
 31
0.0
  0
LINE
  5
77
330
1F
100
AcDbEntity
  8
0
  6
Continuous
 62
     7
370
    25
100
AcDbLine
 10
85.484507861
 20
-10.0
 30
0.0
 11
89.484507861
 21
-10.0
 31
0.0
  0
LINE
  5
78
330
1F
100
AcDbEntity
  8
0
  6
Continuous
 62
     7
370
    25
100
AcDbLine
 10
85.484507861
 20
-3.9140622204
 30
0.0
 11
85.484507861
 21
-10.0
 31
0.0
  0
LINE
  5
79
330
1F
100
AcDbEntity
  8
0
  6
Continuous
 62
     7
370
    25
100
AcDbLine
 10
85.6868740282
 20
-3.9140622204
 30
0.0
 11
85.484507861
 21
-3.9140622204
 31
0.0
  0
LINE
  5
7A
330
1F
100
AcDbEntity
  8
0
  6
Continuous
 62
     7
370
    25
100
AcDbLine
 10
85.6868740282
 20
-3.8140078981
 30
0.0
 11
85.6868740282
 21
-3.9140622204
 31
0.0
  0
SPLINE
  5
7B
330
1F
100
AcDbEntity
  8
0
  6
Continuous
 62
     7
370
    25
100
AcDbSpline
210
0.0
220
0.0
230
1.0
 70
     8
 71
     3
 72
    71
 73
    67
 74
     0
 42
0.00000001
 43
0.00000001
 40
0.3745824443078775
 40
0.3745824443078775
 40
0.3745824443078775
 40
0.3745824443078775
 40
0.3763153938665063
 40
0.3841114514431748
 40
0.3919075090198435
 40
0.3997035665965122
 40
0.407499624173181
 40
0.4152956817498497
 40
0.4230917393265183
 40
0.4308877969031869
 40
0.4386838544798555
 40
0.4464799120565242
 40
0.4542759696331928
 40
0.4581739984215272
 40
0.4620720272098616
 40
0.465970055998196
 40
0.4698680847865303
 40
0.4737661135748646
 40
0.4776641423631989
 40
0.4815621711515332
 40
0.4854601999398676
 40
0.4874092143340347
 40
0.4893582287282019
 40
0.4913072431223691
 40
0.4932562575165362
 40
0.4952052719107034
 40
0.4971542863048706
 40
0.4991033006990377
 40
0.5010523150932048
 40
0.5030013294873721
 40
0.5049503438815393
 40
0.5068993582757064
 40
0.5088483726698736
 40
0.5107973870640408
 40
0.5127464014582079
 40
0.5146954158523751
 40
0.5166444302465423
 40
0.5205424590348766
 40
0.524440487823211
 40
0.5283385166115453
 40
0.5322365453998796
 40
0.536134574188214
 40
0.5400326029765483
 40
0.5439306317648827
 40
0.547828660553217
 40
0.5517266893415511
 40
0.5556247181298855
 40
0.5634207757065541
 40
0.5712168332832228
 40
0.5790128908598915
 40
0.5868089484365602
 40
0.5946050060132291
 40
0.6024010635898978
 40
0.6101971211665664
 40
0.6179931787432351
 40
0.6257892363199038
 40
0.6413813514732412
 40
0.6569734666265783
 40
0.6725655817799157
 40
0.6881576969332529
 40
0.7037498120865904
 40
0.7193419272399277
 40
0.7349340423932651
 40
0.7505261575466025
 40
0.7661182726999396
 40
0.7700485417202341
 40
0.7700485417202341
 40
0.7700485417202341
 40
0.7700485417202341
 10
85.6868740281988
 20
-3.814007898105501
 30
0.0
 10
85.53014303036376
 20
-3.819175040931267
 30
0.0
 10
84.66831300791029
 20
-3.847286277322496
 30
0.0
 10
83.10128209216651
 20
-3.895186576207185
 30
0.0
 10
80.98558606440284
 20
-3.950712406854445
 30
0.0
 10
78.86962782340309
 20
-3.995051283273344
 30
0.0
 10
76.75341171827122
 20
-4.025539612571976
 30
0.0
 10
74.63702734777694
 20
-4.039097450787029
 30
0.0
 10
72.52057823943647
 20
-4.033388058286857
 30
0.0
 10
70.40434742388103
 20
-4.004354688116533
 30
0.0
 10
68.28851618400839
 20
-3.951599696014862
 30
0.0
 10
66.17378901510209
 20
-3.866413176236224
 30
0.0
 10
64.41232265643367
 20
-3.776885736991408
 30
0.0
 10
63.00407140128862
 20
-3.6901109607919
 30
0.0
 10
61.94922108188396
 20
-3.60401239448075
 30
0.0
 10
60.89726709108457
 20
-3.488952912482312
 30
0.0
 10
59.84948493203707
 20
-3.338391262546823
 30
0.0
 10
58.80925855438693
 20
-3.14397433508289
 30
0.0
 10
57.77076309056226
 20
-2.940423062586162
 30
0.0
 10
56.73905497300661
 20
-2.702842814571471
 30
0.0
 10
55.91732188042104
 20
-2.366970013710873
 30
0.0
 10
55.32874613142369
 20
-1.974838998457836
 30
0.0
 10
54.9250693783513
 20
-1.631303318042368
 30
0.0
 10
54.57407144728737
 20
-1.233169594053819
 30
0.0
 10
54.29966437644244
 20
-0.777281971769334
 30
0.0
 10
54.16835440318815
 20
-0.2550059000165627
 30
0.0
 10
54.2476933812839
 20
0.2772301271355724
 30
0.0
 10
54.46855223439586
 20
0.7606865363014892
 30
0.0
 10
54.76131248300673
 20
1.202647090227248
 30
0.0
 10
55.09739240188645
 20
1.611868430806294
 30
0.0
 10
55.45787680059247
 20
1.99932115575926
 30
0.0
 10
55.8310019121119
 20
2.374510646130398
 30
0.0
 10
56.20864782910104
 20
2.745106460084038
 30
0.0
 10
56.59475619537247
 20
3.106949188325323
 30
0.0
 10
56.99264572698017
 20
3.455863114558634
 30
0.0
 10
57.40414656320488
 20
3.788603947984198
 30
0.0
 10
57.96871842891786
 20
4.211857432247223
 30
0.0
 10
58.70336742289487
 20
4.700639626333596
 30
0.0
 10
59.61960105297174
 20
5.230850304080958
 30
0.0
 10
60.55949691664802
 20
5.717597009084082
 30
0.0
 10
61.51861233857955
 20
6.165171456412348
 30
0.0
 10
62.49206991063265
 20
6.580397650542058
 30
0.0
 10
63.47628659926938
 20
6.969379162298352
 30
0.0
 10
64.46907050492275
 20
7.335833679763935
 30
0.0
 10
65.4680316737772
 20
7.685057950133964
 30
0.0
 10
66.47248629813495
 20
8.01814469326522
 30
0.0
 10
67.81908699893792
 20
8.439569551593856
 30
0.0
 10
69.51538488172626
 20
8.92325940318079
 30
0.0
 10
71.5674819874295
 20
9.441916527788257
 30
0.0
 10
73.63253051819099
 20
9.906138225222193
 30
0.0
 10
75.70813585310611
 20
10.32050353661017
 30
0.0
 10
77.79305418128047
 20
10.6852231895724
 30
0.0
 10
79.88639731361427
 20
10.99799707230368
 30
0.0
 10
81.98704156311379
 20
11.25740657598618
 30
0.0
 10
84.09312606552562
 20
11.46723644465331
 30
0.0
 10
86.90623011416028
 20
11.69192463280937
 30
0.0
 10
90.42881029179995
 20
11.88179443512933
 30
0.0
 10
94.65942182347256
 20
12.02188371988442
 30
0.0
 10
98.89141780491902
 20
12.11068901299858
 30
0.0
 10
103.1243853303108
 20
12.12973851824475
 30
0.0
 10
107.3570088273747
 20
12.07040750211515
 30
0.0
 10
111.5874803098443
 20
11.92227719100081
 30
0.0
 10
115.8144432343828
 20
11.69667242768723
 30
0.0
 10
120.0370940623121
 20
11.40134297883377
 30
0.0
 10
123.203476328368
 20
11.13437646746635
 30
0.0
 10
124.9624350709836
 20
10.97023843288767
 30
0.0
 10
125.3164905120286
 20
10.93655992880545
 30
0.0
  0
LINE
  5
7C
330
1F
100
AcDbEntity
  8
0
  6
Continuous
 62
     7
370
    25
100
AcDbLine
 10
125.3164905827
 20
4.2272172727
 30
0.0
 11
125.3164905827
 21
10.9365606716
 31
0.0
  0
LINE
  5
7D
330
1F
100
AcDbEntity
  8
0
  6
Continuous
 62
     7
370
    25
100
AcDbLine
 10
127.3164905827
 20
4.2272172727
 30
0.0
 11
125.3164905827
 21
4.2272172727
 31
0.0
  0
LINE
  5
7E
330
1F
100
AcDbEntity
  8
0
  6
Continuous
 62
     7
370
    25
100
AcDbLine
 10
127.3164905827
 20
10.7395235614
 30
0.0
 11
127.3164905827
 21
4.2272172727
 31
0.0
  0
SPLINE
  5
7F
330
1F
100
AcDbEntity
  8
0
  6
Continuous
 62
     7
370
    25
100
AcDbSpline
210
0.0
220
0.0
230
1.0
 70
     8
 71
     3
 72
    14
 73
    10
 74
     0
 42
0.00000001
 43
0.00000001
 40
0.7774514397171148
 40
0.7774514397171148
 40
0.7774514397171148
 40
0.7774514397171148
 40
0.781710387853277
 40
0.7973025030066143
 40
0.8128946181599519
 40
0.8284867333132893
 40
0.8440788484666266
 40
0.8596709636199638
 40
0.8629910541268926
 40
0.8629910541268926
 40
0.8629910541268926
 40
0.8629910541268926
 10
127.3164906481388
 20
10.73952420371176
 30
0.0
 10
127.6999014789253
 20
10.70045197974283
 30
0.0
 10
129.4866386631155
 20
10.51489462007719
 30
0.0
 10
132.6737625123235
 20
10.15509747706779
 30
0.0
 10
136.872858014632
 20
9.621009808290927
 30
0.0
 10
141.0648384594468
 20
9.033705856087689
 30
0.0
 10
145.2498260803255
 20
8.398816448461494
 30
0.0
 10
148.3322852000852
 20
7.901108940167437
 30
0.0
 10
150.0202182051187
 20
7.61880445594285
 30
0.0
 10
150.3164905369132
 20
7.568955436560906
 30
0.0
  0
LINE
  5
80
330
1F
100
AcDbEntity
  8
0
  6
Continuous
 62
     7
370
    25
100
AcDbLine
 10
150.3164905827
 20
5.4182190765
 30
0.0
 11
150.3164905827
 21
7.5689557086
 31
0.0
  0
LINE
  5
81
330
1F
100
AcDbEntity
  8
0
  6
Continuous
 62
     7
370
    25
100
AcDbLine
 10
152.3164905549
 20
5.4182190765
 30
0.0
 11
150.3164905827
 21
5.4182190765
 31
0.0
  0
LINE
  5
82
330
1F
100
AcDbEntity
  8
0
  6
Continuous
 62
     7
370
    25
100
AcDbLine
 10
152.3164905549
 20
2.4182190765
 30
0.0
 11
152.3164905549
 21
5.4182190765
 31
0.0
  0
LINE
  5
83
330
1F
100
AcDbEntity
  8
0
  6
Continuous
 62
     7
370
    25
100
AcDbLine
 10
150.3164905827
 20
2.4182190765
 30
0.0
 11
152.3164905549
 21
2.4182190765
 31
0.0
  0
LINE
  5
84
330
1F
100
AcDbEntity
  8
0
  6
Continuous
 62
     7
370
    25
100
AcDbLine
 10
150.3164905827
 20
-1.4406101096
 30
0.0
 11
150.3164905827
 21
2.4182190765
 31
0.0
  0
SPLINE
  5
85
330
1F
100
AcDbEntity
  8
0
  6
Continuous
 62
     7
370
    25
100
AcDbSpline
210
0.0
220
0.0
230
1.0
 70
     8
 71
     3
 72
     8
 73
     4
 74
     0
 42
0.00000001
 43
0.00000001
 40
0.3613214395767833
 40
0.3613214395767833
 40
0.3613214395767833
 40
0.3613214395767833
 40
0.3650050520168466
 40
0.3650050520168466
 40
0.3650050520168466
 40
0.3650050520168466
 10
89.28464471255032
 20
-3.687385005378037
 30
0.0
 10
88.95153861988634
 20
-3.699692523014377
 30
0.0
 10
88.61842821411558
 20
-3.711883477807355
 30
0.0
 10
88.28531222581833
 20
-3.723919632458398
 30
0.0
  0
LINE
  5
86
330
1F
100
AcDbEntity
  8
0
  6
Continuous
 62
     7
370
    25
100
AcDbLine
 10
88.2853122258
 20
-3.8239848922
 30
0.0
 11
88.2853122258
 21
-3.7239196328
 31
0.0
  0
LINE
  5
87
330
1F
100
AcDbEntity
  8
0
  6
Continuous
 62
     7
370
    25
100
AcDbLine
 10
89.2846447223
 20
-3.7874532383
 30
0.0
 11
88.2853122258
 21
-3.8239848922
 31
0.0
  0
LINE
  5
88
330
1F
100
AcDbEntity
  8
0
  6
Continuous
 62
     7
370
    25
100
AcDbLine
 10
89.2846447223
 20
-3.6873850054
 30
0.0
 11
89.2846447223
 21
-3.7874532383
 31
0.0
  0
SPLINE
  5
89
330
1F
100
AcDbEntity
  8
0
  6
Continuous
 62
     7
370
    25
100
AcDbSpline
210
0.0
220
0.0
230
1.0
 70
     8
 71
     3
 72
     9
 73
     5
 74
     0
 42
0.00000001
 43
0.00000001
 40
0.3657417745709
 40
0.3657417745709
 40
0.3657417745709
 40
0.3657417745709
 40
0.3685193362898376
 40
0.3694253871035776
 40
0.3694253871035776
 40
0.3694253871035776
 40
0.3694253871035776
 10
88.08544193486476
 20
-3.731122443977551
 30
0.0
 10
87.83426009218273
 20
-3.740150246953371
 30
0.0
 10
87.50113741088205
 20
-3.752000461654528
 30
0.0
 10
87.16800793598748
 20
-3.763659396596357
 30
0.0
 10
87.08606832157852
 20
-3.766515038988977
 30
0.0
  0
LINE
  5
8A
330
1F
100
AcDbEntity
  8
0
  6
Continuous
 62
     7
370
    25
100
AcDbLine
 10
87.0860683216
 20
-3.8665757441
 30
0.0
 11
87.0860683216
 21
-3.766515039
 31
0.0
  0
LINE
  5
8B
330
1F
100
AcDbEntity
  8
0
  6
Continuous
 62
     7
370
    25
100
AcDbLine
 10
88.0854419443
 20
-3.8311870153
 30
0.0
 11
87.0860683216
 21
-3.8665757441
 31
0.0
  0
LINE
  5
8C
330
1F
100
AcDbEntity
  8
0
  6
Continuous
 62
     7
370
    25
100
AcDbLine
 10
88.0854419443
 20
-3.731122444
 30
0.0
 11
88.0854419443
 21
-3.8311870153
 31
0.0
  0
SPLINE
  5
8D
330
1F
100
AcDbEntity
  8
0
  6
Continuous
 62
     7
370
    25
100
AcDbSpline
210
0.0
220
0.0
230
1.0
 70
     8
 71
     3
 72
     8
 73
     4
 74
     0
 42
0.00000001
 43
0.00000001
 40
0.3701621094774652
 40
0.3701621094774652
 40
0.3701621094774652
 40
0.3701621094774652
 40
0.3738457218017542
 40
0.3738457218017542
 40
0.3738457218017542
 40
0.3738457218017542
 10
86.88618879455642
 20
-3.773456685805228
 30
0.0
 10
86.55305478775932
 20
-3.784985242481954
 30
0.0
 10
86.21991362343105
 20
-3.796307233520346
 30
0.0
 10
85.8867644855085
 20
-3.807388383140623
 30
0.0
  0
LINE
  5
8E
330
1F
100
AcDbEntity
  8
0
  6
Continuous
 62
     7
370
    25
100
AcDbLine
 10
85.8867644855
 20
-3.9074436773
 30
0.0
 11
85.8867644855
 21
-3.8073883831
 31
0.0
  0
LINE
  5
8F
330
1F
100
AcDbEntity
  8
0
  6
Continuous
 62
     7
370
    25
100
AcDbLine
 10
86.8861887946
 20
-3.8735165423
 30
0.0
 11
85.8867644855
 21
-3.9074436773
 31
0.0
  0
LINE
  5
90
330
1F
100
AcDbEntity
  8
0
  6
Continuous
 62
     7
370
    25
100
AcDbLine
 10
86.8861887946
 20
-3.7734566858
 30
0.0
 11
86.8861887946
 21
-3.8735165423
 31
0.0
  0
LINE
  5
91
330
1F
100
AcDbEntity
  8
0
  6
Continuous
 62
     7
370
    25
100
AcDbLine
 10
117.658859768
 20
-0.6215728474
 30
0.0
 11
112.0545462045
 21
-0.6215728474
 31
0.0
  0
ARC
  5
92
330
1F
100
AcDbEntity
  8
0
  6
Continuous
 62
     7
370
    25
100
AcDbCircle
 10
117.658859768
 20
0.3784271526
 30
0.0
 40
0.9999999999999993
100
AcDbArc
 50
270.0
 51
41.6154820477
  0
LINE
  5
93
330
1F
100
AcDbEntity
  8
0
  6
Continuous
 62
     7
370
    25
100
AcDbLine
 10
112.8021648664
 20
7.3514112456
 30
0.0
 11
118.4064784299
 21
1.0425554055
 31
0.0
  0
ARC
  5
94
330
1F
100
AcDbEntity
  8
0
  6
Continuous
 62
     7
370
    25
100
AcDbCircle
 10
112.0545462045
 20
6.6872829927
 30
0.0
 40
1.000000000000006
100
AcDbArc
 50
41.6154820477
 51
180.0
  0
LINE
  5
95
330
1F
100
AcDbEntity
  8
0
  6
Continuous
 62
     7
370
    25
100
AcDbLine
 10
111.0545462045
 20
0.3784271526
 30
0.0
 11
111.0545462045
 21
6.6872829927
 31
0.0
  0
ARC
  5
96
330
1F
100
AcDbEntity
  8
0
  6
Continuous
 62
     7
370
    25
100
AcDbCircle
 10
112.0545462045
 20
0.3784271526
 30
0.0
 40
1.0
100
AcDbArc
 50
180.0
 51
270.0
  0
LINE
  5
97
330
1F
100
AcDbEntity
  8
0
  6
Continuous
 62
     7
370
    25
100
AcDbLine
 10
107.4811681703
 20
-0.6215728474
 30
0.0
 11
101.7928539507
 21
-0.6215728474
 31
0.0
  0
ARC
  5
98
330
1F
100
AcDbEntity
  8
0
  6
Continuous
 62
     7
370
    25
100
AcDbCircle
 10
107.4811681703
 20
0.3784271526
 30
0.0
 40
1.0
100
AcDbArc
 50
270.0
 51
0.0
  0
LINE
  5
99
330
1F
100
AcDbEntity
  8
0
  6
Continuous
 62
     7
370
    25
100
AcDbLine
 10
108.4811681703
 20
6.7094887417
 30
0.0
 11
108.4811681703
 21
0.3784271526
 31
0.0
  0
ARC
  5
9A
330
1F
100
AcDbEntity
  8
0
  6
Continuous
 62
     7
370
    25
100
AcDbCircle
 10
107.4811681703
 20
6.7094887417
 30
0.0
 40
1.0
100
AcDbArc
 50
360.0
 51
138.0610297994
  0
LINE
  5
9B
330
1F
100
AcDbEntity
  8
0
  6
Continuous
 62
     7
370
    25
100
AcDbLine
 10
101.0489968084
 20
1.0467658032
 30
0.0
 11
106.7373110281
 21
7.3778273923
 31
0.0
  0
ARC
  5
9C
330
1F
100
AcDbEntity
  8
0
  6
Continuous
 62
     7
370
    25
100
AcDbCircle
 10
101.7928539507
 20
0.3784271526
 30
0.0
 40
0.9999999999999991
100
AcDbArc
 50
138.0610297994
 51
270.0
  0
LINE
  5
9D
330
1F
100
AcDbEntity
  8
0
  6
Continuous
 62
     7
370
    25
100
AcDbLine
 10
96.8757378203
 20
1.9876689502
 30
0.0
 11
96.8757378203
 21
8.3187305393
 31
0.0
  0
ARC
  5
9E
330
1F
100
AcDbEntity
  8
0
  6
Continuous
 62
     7
370
    25
100
AcDbCircle
 10
97.8757378203
 20
1.9876689502
 30
0.0
 40
1.0
100
AcDbArc
 50
180.0
 51
318.0610297994
  0
LINE
  5
9F
330
1F
100
AcDbEntity
  8
0
  6
Continuous
 62
     7
370
    25
100
AcDbLine
 10
104.3079091822
 20
7.6503918887
 30
0.0
 11
98.6195949625
 21
1.3193302996
 31
0.0
  0
ARC
  5
A0
330
1F
100
AcDbEntity
  8
0
  6
Continuous
 62
     7
370
    25
100
AcDbCircle
 10
103.56405204
 20
8.3187305393
 30
0.0
 40
1.000000000000002
100
AcDbArc
 50
318.0610297994
 51
90.0
  0
LINE
  5
A1
330
1F
100
AcDbEntity
  8
0
  6
Continuous
 62
     7
370
    25
100
AcDbLine
 10
97.8757378203
 20
9.3187305393
 30
0.0
 11
103.56405204
 21
9.3187305393
 31
0.0
  0
ARC
  5
A2
330
1F
100
AcDbEntity
  8
0
  6
Continuous
 62
     7
370
    25
100
AcDbCircle
 10
97.8757378203
 20
8.3187305393
 30
0.0
 40
1.0
100
AcDbArc
 50
90.0
 51
180.0
  0
LINE
  5
A3
330
1F
100
AcDbEntity
  8
0
  6
Continuous
 62
     7
370
    25
100
AcDbLine
 10
92.3080860617
 20
1.3063507863
 30
0.0
 11
86.5777874628
 21
7.6483104716
 31
0.0
  0
ARC
  5
A4
330
1F
100
AcDbEntity
  8
0
  6
Continuous
 62
     7
370
    25
100
AcDbCircle
 10
93.050067822
 20
1.976770854
 30
0.0
 40
1.000000000000001
100
AcDbArc
 50
222.0994941148
 51
0.0
  0
LINE
  5
A5
330
1F
100
AcDbEntity
  8
0
  6
Continuous
 62
     7
370
    25
100
AcDbLine
 10
94.050067822
 20
8.3187305393
 30
0.0
 11
94.050067822
 21
1.976770854
 31
0.0
  0
ARC
  5
A6
330
1F
100
AcDbEntity
  8
0
  6
Continuous
 62
     7
370
    25
100
AcDbCircle
 10
93.050067822
 20
8.3187305393
 30
0.0
 40
1.0
100
AcDbArc
 50
0.0
 51
90.0
  0
LINE
  5
A7
330
1F
100
AcDbEntity
  8
0
  6
Continuous
 62
     7
370
    25
100
AcDbLine
 10
87.3197692231
 20
9.3187305393
 30
0.0
 11
93.050067822
 21
9.3187305393
 31
0.0
  0
ARC
  5
A8
330
1F
100
AcDbEntity
  8
0
  6
Continuous
 62
     7
370
    25
100
AcDbCircle
 10
87.3197692231
 20
8.3187305393
 30
0.0
 40
0.9999999999999982
100
AcDbArc
 50
90.0
 51
222.0994941148
  0
LINE
  5
A9
330
1F
100
AcDbEntity
  8
0
  6
Continuous
 62
     7
370
    25
100
AcDbLine
 10
116.0556629909
 20
9.3187305393
 30
0.0
 11
121.6599765545
 21
9.3187305393
 31
0.0
  0
ARC
  5
AA
330
1F
100
AcDbEntity
  8
0
  6
Continuous
 62
     7
370
    25
100
AcDbCircle
 10
116.0556629909
 20
8.3187305393
 30
0.0
 40
0.9999999999999982
100
AcDbArc
 50
90.0
 51
221.6154820477
  0
LINE
  5
AB
330
1F
100
AcDbEntity
  8
0
  6
Continuous
 62
     7
370
    25
100
AcDbLine
 10
120.9123578926
 20
1.3457464463
 30
0.0
 11
115.308044329
 21
7.6546022864
 31
0.0
  0
ARC
  5
AC
330
1F
100
AcDbEntity
  8
0
  6
Continuous
 62
     7
370
    25
100
AcDbCircle
 10
121.6599765545
 20
2.0098746992
 30
0.0
 40
1.000000000000006
100
AcDbArc
 50
221.6154820477
 51
0.0
  0
LINE
  5
AD
330
1F
100
AcDbEntity
  8
0
  6
Continuous
 62
     7
370
    25
100
AcDbLine
 10
122.6599765545
 20
8.3187305393
 30
0.0
 11
122.6599765545
 21
2.0098746992
 31
0.0
  0
ARC
  5
AE
330
1F
100
AcDbEntity
  8
0
  6
Continuous
 62
     7
370
    25
100
AcDbCircle
 10
121.6599765545
 20
8.3187305393
 30
0.0
 40
1.0
100
AcDbArc
 50
0.0
 51
90.0
  0
LINE
  5
AF
330
1F
100
AcDbEntity
  8
0
  6
Continuous
 62
     7
370
    25
100
AcDbLine
 10
88.9226441068
 20
-0.6215728474
 30
0.0
 11
83.1923455079
 21
-0.6215728474
 31
0.0
  0
ARC
  5
B0
330
1F
100
AcDbEntity
  8
0
  6
Continuous
 62
     7
370
    25
100
AcDbCircle
 10
88.9226441068
 20
0.3784271526
 30
0.0
 40
0.9999999999999993
100
AcDbArc
 50
270.0
 51
42.0994941148
  0
LINE
  5
B1
330
1F
100
AcDbEntity
  8
0
  6
Continuous
 62
     7
370
    25
100
AcDbLine
 10
83.9343272683
 20
7.3908069056
 30
0.0
 11
89.6646258672
 21
1.0488472203
 31
0.0
  0
ARC
  5
B2
330
1F
100
AcDbEntity
  8
0
  6
Continuous
 62
     7
370
    25
100
AcDbCircle
 10
83.1923455079
 20
6.7203868379
 30
0.0
 40
1.0
100
AcDbArc
 50
42.0994941148
 51
180.0
  0
LINE
  5
B3
330
1F
100
AcDbEntity
  8
0
  6
Continuous
 62
     7
370
    25
100
AcDbLine
 10
82.1923455079
 20
0.3784271526
 30
0.0
 11
82.1923455079
 21
6.7203868379
 31
0.0
  0
ARC
  5
B4
330
1F
100
AcDbEntity
  8
0
  6
Continuous
 62
     7
370
    25
100
AcDbCircle
 10
83.1923455079
 20
0.3784271526
 30
0.0
 40
1.0
100
AcDbArc
 50
180.0
 51
270.0
  0
SPLINE
  5
B5
330
1F
100
AcDbEntity
  8
0
  6
Continuous
 62
     7
370
    25
100
AcDbSpline
210
0.0
220
0.0
230
1.0
 70
     8
 71
     3
 72
     9
 73
     5
 74
     0
 42
0.00000001
 43
0.00000001
 40
0.0
 40
0.0
 40
0.0
 40
0.0
 40
0.5
 40
1.0
 40
1.0
 40
1.0
 40
1.0
 10
73.43292447899867
 20
-2.321780467775573
 30
0.0
 10
73.41068194866554
 20
-2.322505231831999
 30
0.0
 10
73.3661791848918
 20
-2.323592738405662
 30
0.0
 10
73.321658706658
 20
-2.323955336780853
 30
0.0
 10
73.29939846734528
 20
-2.323955336780853
 30
0.0
  0
ARC
  5
B6
330
1F
100
AcDbEntity
  8
0
  6
Continuous
 62
     7
370
    25
100
AcDbCircle
 10
73.5664504905
 20
1.7760446632
 30
0.0
 40
4.099999999999768
100
AcDbArc
 50
268.1337000131
 51
91.8662999894
  0
SPLINE
  5
B7
330
1F
100
AcDbEntity
  8
0
  6
Continuous
 62
     7
370
    25
100
AcDbSpline
210
0.0
220
0.0
230
1.0
 70
     8
 71
     3
 72
     9
 73
     5
 74
     0
 42
0.00000001
 43
0.00000001
 40
0.0
 40
0.0
 40
0.0
 40
0.0
 40
0.5
 40
1.0
 40
1.0
 40
1.0
 40
1.0
 10
73.29939846734514
 20
5.876044663219138
 30
0.0
 10
73.32165870662689
 20
5.876044663219138
 30
0.0
 10
73.36617918518995
 20
5.875682064825836
 30
0.0
 10
73.41068194851084
 20
5.874594558274318
 30
0.0
 10
73.4329244788131
 20
5.873869794219903
 30
0.0
  0
SPLINE
  5
B8
330
1F
100
AcDbEntity
  8
0
  6
Continuous
 62
     7
370
    25
100
AcDbSpline
210
0.0
220
0.0
230
1.0
 70
     8
 71
     3
 72
    10
 73
     6
 74
     0
 42
0.00000001
 43
0.00000001
 40
0.0
 40
0.0
 40
0.0
 40
0.0
 40
0.5000000000000001
 40
0.5000000000000001
 40
1.0
 40
1.0
 40
1.0
 40
1.0
 10
73.29939846734516
 20
-2.323955336780853
 30
0.0
 10
70.5660651340118
 20
-2.323955336780866
 30
0.0
 10
69.19939846734512
 20
0.4093779965524741
 30
0.0
 10
69.19939846734515
 20
3.142711329885812
 30
0.0
 10
70.56606513401178
 20
5.876044663219151
 30
0.0
 10
73.29939846734516
 20
5.876044663219139
 30
0.0
  0
ENDSEC
  0
SECTION
  2
OBJECTS
  0
DICTIONARY
  5
C
330
0
100
AcDbDictionary
281
     1
  3
ACAD_GROUP
350
D
  3
ACAD_LAYOUT
350
1A
  3
ACAD_MLINESTYLE
350
17
  3
ACAD_PLOTSETTINGS
350
19
  3
ACAD_PLOTSTYLENAME
350
E
  3
ACAD_SCALELIST
350
47
  3
DWGPROPS
350
B9
  0
DICTIONARY
  5
D
102
{ACAD_REACTORS
330
C
102
}
330
C
100
AcDbDictionary
281
     1
  0
DICTIONARY
  5
1A
102
{ACAD_REACTORS
330
C
102
}
330
C
100
AcDbDictionary
281
     1
  3
Layout1
350
1E
  3
Layout2
350
26
  3
Model
350
22
  0
DICTIONARY
  5
17
102
{ACAD_REACTORS
330
C
102
}
330
C
100
AcDbDictionary
281
     1
  3
Standard
350
18
  0
DICTIONARY
  5
19
102
{ACAD_REACTORS
330
C
102
}
330
C
100
AcDbDictionary
281
     1
  0
ACDBDICTIONARYWDFLT
  5
E
102
{ACAD_REACTORS
330
C
102
}
330
C
100
AcDbDictionary
281
     1
  3
Normal
350
F
100
AcDbDictionaryWithDefault
340
F
  0
DICTIONARY
  5
47
102
{ACAD_REACTORS
330
C
102
}
330
C
100
AcDbDictionary
281
     1
  3
A0
350
48
  3
A1
350
49
  3
A2
350
4A
  3
A3
350
4B
  3
A4
350
4C
  3
A5
350
4D
  3
A6
350
4E
  3
A7
350
4F
  3
A8
350
50
  3
A9
350
51
  3
B0
350
52
  3
B1
350
53
  3
B2
350
54
  3
B3
350
55
  3
B4
350
56
  3
B5
350
57
  3
B6
350
58
  0
XRECORD
  5
B9
102
{ACAD_REACTORS
330
C
102
}
330
C
100
AcDbXrecord
280
     1
  1
DWGPROPS COOKIE
  2

  3

  4

  6

  7

  8
CX_in_command
  9

300
=
301
=
302
=
303
=
304
=
305
=
306
=
307
=
308
=
309
=
 40
0.0
 41
2461081.386817824
 42
2461081.387036933
  1

 90
        0
  0
LAYOUT
  5
1E
102
{ACAD_REACTORS
330
1A
102
}
330
1A
100
AcDbPlotSettings
  1

  2
none_device
  4

  6

 40
0.0
 41
0.0
 42
0.0
 43
0.0
 44
0.0
 45
0.0
 46
0.0
 47
0.0
 48
0.0
 49
0.0
140
0.0
141
0.0
142
1.0
143
1.0
 70
   688
 72
     1
 73
     0
 74
     5
  7

 75
    16
147
1.0
148
0.0
149
0.0
100
AcDbLayout
  1
Layout1
 70
     1
 71
     1
 10
0.0
 20
0.0
 11
420.0
 21
297.0
 12
0.0
 22
0.0
 32
0.0
 14
1.0000000000E+20
 24
1.0000000000E+20
 34
1.0000000000E+20
 15
-1.0000000000E+20
 25
-1.0000000000E+20
 35
-1.0000000000E+20
146
0.0
 13
0.0
 23
0.0
 33
0.0
 16
1.0
 26
0.0
 36
0.0
 17
0.0
 27
1.0
 37
0.0
 76
     0
330
1B
  0
LAYOUT
  5
26
102
{ACAD_REACTORS
330
1A
102
}
330
1A
100
AcDbPlotSettings
  1

  2
none_device
  4

  6

 40
0.0
 41
0.0
 42
0.0
 43
0.0
 44
0.0
 45
0.0
 46
0.0
 47
0.0
 48
0.0
 49
0.0
140
0.0
141
0.0
142
1.0
143
1.0
 70
   688
 72
     1
 73
     0
 74
     5
  7

 75
    16
147
1.0
148
0.0
149
0.0
100
AcDbLayout
  1
Layout2
 70
     1
 71
     2
 10
0.0
 20
0.0
 11
0.0
 21
0.0
 12
0.0
 22
0.0
 32
0.0
 14
0.0
 24
0.0
 34
0.0
 15
0.0
 25
0.0
 35
0.0
146
0.0
 13
0.0
 23
0.0
 33
0.0
 16
1.0
 26
0.0
 36
0.0
 17
0.0
 27
1.0
 37
0.0
 76
     0
330
23
  0
LAYOUT
  5
22
102
{ACAD_REACTORS
330
1A
102
}
330
1A
100
AcDbPlotSettings
  1

  2
none_device
  4
ANSI_A_(11.00_x_8.50_Inches)
  6

 40
6.35
 41
19.05
 42
6.35000508
 43
19.05000254
 44
279.4
 45
215.9
 46
-157.776137141
 47
85.9442167693
 48
0.0
 49
0.0
140
0.0
141
0.0
142
0.1109969038
143
1.0
 70
  1696
 72
     0
 73
     0
 74
     0
  7

 75
     0
147
0.0179189148
148
-1300.4909072572
149
0.0
100
AcDbLayout
  1
Model
 70
     1
 71
     0
 10
0.0
 20
0.0
 11
420.0
 21
297.0
 12
0.0
 22
0.0
 32
0.0
 14
54.205645734
 24
-10.0
 34
0.0
 15
152.3164905549
 25
12.0968038674
 35
0.0
146
0.0
 13
0.0
 23
0.0
 33
0.0
 16
1.0
 26
0.0
 36
0.0
 17
0.0
 27
1.0
 37
0.0
 76
     0
330
1F
331
29
  0
MLINESTYLE
  5
18
102
{ACAD_REACTORS
330
17
102
}
330
17
100
AcDbMlineStyle
  2
Standard
 70
     0
  3

 62
   256
 51
90.0
 52
90.0
 71
     2
 49
0.5
 62
   256
  6
BYLAYER
 49
-0.5
 62
   256
  6
BYLAYER
  0
ACDBPLACEHOLDER
  5
F
102
{ACAD_REACTORS
330
E
102
}
330
E
  0
SCALE
  5
48
102
{ACAD_REACTORS
330
47
102
}
330
47
100
AcDbScale
 70
     0
300
1:1
140
1.0
141
1.0
290
     1
  0
SCALE
  5
49
102
{ACAD_REACTORS
330
47
102
}
330
47
100
AcDbScale
 70
     0
300
1:2
140
1.0
141
2.0
290
     0
  0
SCALE
  5
4A
102
{ACAD_REACTORS
330
47
102
}
330
47
100
AcDbScale
 70
     0
300
1:4
140
1.0
141
4.0
290
     0
  0
SCALE
  5
4B
102
{ACAD_REACTORS
330
47
102
}
330
47
100
AcDbScale
 70
     0
300
1:5
140
1.0
141
5.0
290
     0
  0
SCALE
  5
4C
102
{ACAD_REACTORS
330
47
102
}
330
47
100
AcDbScale
 70
     0
300
1:8
140
1.0
141
8.0
290
     0
  0
SCALE
  5
4D
102
{ACAD_REACTORS
330
47
102
}
330
47
100
AcDbScale
 70
     0
300
1:10
140
1.0
141
10.0
290
     0
  0
SCALE
  5
4E
102
{ACAD_REACTORS
330
47
102
}
330
47
100
AcDbScale
 70
     0
300
1:16
140
1.0
141
16.0
290
     0
  0
SCALE
  5
4F
102
{ACAD_REACTORS
330
47
102
}
330
47
100
AcDbScale
 70
     0
300
1:20
140
1.0
141
20.0
290
     0
  0
SCALE
  5
50
102
{ACAD_REACTORS
330
47
102
}
330
47
100
AcDbScale
 70
     0
300
1:30
140
1.0
141
30.0
290
     0
  0
SCALE
  5
51
102
{ACAD_REACTORS
330
47
102
}
330
47
100
AcDbScale
 70
     0
300
1:40
140
1.0
141
40.0
290
     0
  0
SCALE
  5
52
102
{ACAD_REACTORS
330
47
102
}
330
47
100
AcDbScale
 70
     0
300
1:50
140
1.0
141
50.0
290
     0
  0
SCALE
  5
53
102
{ACAD_REACTORS
330
47
102
}
330
47
100
AcDbScale
 70
     0
300
1:100
140
1.0
141
100.0
290
     0
  0
SCALE
  5
54
102
{ACAD_REACTORS
330
47
102
}
330
47
100
AcDbScale
 70
     0
300
2:1
140
2.0
141
1.0
290
     0
  0
SCALE
  5
55
102
{ACAD_REACTORS
330
47
102
}
330
47
100
AcDbScale
 70
     0
300
4:1
140
4.0
141
1.0
290
     0
  0
SCALE
  5
56
102
{ACAD_REACTORS
330
47
102
}
330
47
100
AcDbScale
 70
     0
300
8:1
140
8.0
141
1.0
290
     0
  0
SCALE
  5
57
102
{ACAD_REACTORS
330
47
102
}
330
47
100
AcDbScale
 70
     0
300
10:1
140
10.0
141
1.0
290
     0
  0
SCALE
  5
58
102
{ACAD_REACTORS
330
47
102
}
330
47
100
AcDbScale
 70
     0
300
100:1
140
100.0
141
1.0
290
     0
  0
ENDSEC
  0
EOF
