  0
SECTION
  2
HEADER
  9
$ACADVER
  1
AC1015
  9
$ACADMAINTVER
 70
     6
  9
$DWGCODEPAGE
  3
ANSI_936
  9
$INSBASE
 10
0.0
 20
0.0
 30
0.0
  9
$EXTMIN
 10
21.2591560588
 20
-10.0000001108
 30
0.0
  9
$EXTMAX
 10
143.3164905827
 20
15.142362848
 30
0.0
  9
$LIMMIN
 10
0.0
 20
0.0
  9
$LIMMAX
 10
420.0
 20
297.0
  9
$ORTHOMODE
 70
     0
  9
$REGENMODE
 70
     1
  9
$FILLMODE
 70
     1
  9
$QTEXTMODE
 70
     0
  9
$MIRRTEXT
 70
     1
  9
$LTSCALE
 40
1.0
  9
$ATTMODE
 70
     1
  9
$TEXTSIZE
 40
3.5
  9
$TRACEWID
 40
1.0
  9
$TEXTSTYLE
  7
Standard
  9
$CLAYER
  8
0
  9
$CELTYPE
  6
ByLayer
  9
$CECOLOR
 62
   256
  9
$CELTSCALE
 40
1.0
  9
$DISPSILH
 70
     0
  9
$DIMSCALE
 40
1.0
  9
$DIMASZ
 40
3.556
  9
$DIMEXO
 40
0.0
  9
$DIMDLI
 40
3.75
  9
$DIMRND
 40
0.0
  9
$DIMDLE
 40
0.0
  9
$DIMEXE
 40
1.0
  9
$DIMTP
 40
0.0
  9
$DIMTM
 40
0.0
  9
$DIMTXT
 40
3.5
  9
$DIMCEN
 40
2.5
  9
$DIMTSZ
 40
0.0
  9
$DIMTOL
 70
     0
  9
$DIMLIM
 70
     0
  9
$DIMTIH
 70
     1
  9
$DIMTOH
 70
     1
  9
$DIMSE1
 70
     0
  9
$DIMSE2
 70
     0
  9
$DIMTAD
 70
     1
  9
$DIMZIN
 70
     1
  9
$DIMBLK
  1

  9
$DIMASO
 70
     1
  9
$DIMSHO
 70
     1
  9
$DIMPOST
  1

  9
$DIMAPOST
  1

  9
$DIMALT
 70
     0
  9
$DIMALTD
 70
     3
  9
$DIMALTF
 40
0.0393700787
  9
$DIMLFAC
 40
1.0
  9
$DIMTOFL
 70
     1
  9
$DIMTVP
 40
0.0
  9
$DIMTIX
 70
     0
  9
$DIMSOXD
 70
     0
  9
$DIMSAH
 70
     0
  9
$DIMBLK1
  1

  9
$DIMBLK2
  1

  9
$DIMSTYLE
  2
ISO-25
  9
$DIMCLRD
 70
     0
  9
$DIMCLRE
 70
     0
  9
$DIMCLRT
 70
     0
  9
$DIMTFAC
 40
1.0
  9
$DIMGAP
 40
1.524
  9
$DIMJUST
 70
     0
  9
$DIMSD1
 70
     0
  9
$DIMSD2
 70
     0
  9
$DIMTOLJ
 70
     0
  9
$DIMTZIN
 70
     1
  9
$DIMALTZ
 70
     0
  9
$DIMALTTZ
 70
     0
  9
$DIMUPT
 70
     0
  9
$DIMDEC
 70
     2
  9
$DIMTDEC
 70
     2
  9
$DIMALTU
 70
     2
  9
$DIMALTTD
 70
     3
  9
$DIMTXSTY
  7
Standard
  9
$DIMAUNIT
 70
     0
  9
$DIMADEC
 70
     2
  9
$DIMALTRND
 40
0.0
  9
$DIMAZIN
 70
     0
  9
$DIMDSEP
 70
    44
  9
$DIMATFIT
 70
     3
  9
$DIMFRAC
 70
     0
  9
$DIMLDRBLK
  1

  9
$DIMLUNIT
 70
     2
  9
$DIMLWD
 70
    -2
  9
$DIMLWE
 70
    -2
  9
$DIMTMOVE
 70
     0
  9
$LUNITS
 70
     2
  9
$LUPREC
 70
     2
  9
$SKETCHINC
 40
1.0
  9
$FILLETRAD
 40
0.0
  9
$AUNITS
 70
     0
  9
$AUPREC
 70
     2
  9
$MENU
  1
.
  9
$ELEVATION
 40
0.0
  9
$PELEVATION
 40
0.0
  9
$THICKNESS
 40
0.0
  9
$LIMCHECK
 70
     0
  9
$CHAMFERA
 40
0.0
  9
$CHAMFERB
 40
0.0
  9
$CHAMFERC
 40
0.0
  9
$CHAMFERD
 40
0.0
  9
$SKPOLY
 70
     0
  9
$TDCREATE
 40
2461081.7169411
  9
$TDUCREATE
 40
2461081.383607766
  9
$TDUPDATE
 40
2461081.717343554
  9
$TDUUPDATE
 40
2461081.38401022
  9
$TDINDWG
 40
0.0000000116
  9
$TDUSRTIMER
 40
0.0000000116
  9
$USRTIMER
 70
     1
  9
$ANGBASE
 50
0.0
  9
$ANGDIR
 70
     0
  9
$PDMODE
 70
     0
  9
$PDSIZE
 40
-1.0
  9
$PLINEWID
 40
0.0
  9
$SPLFRAME
 70
     0
  9
$SPLINETYPE
 70
     6
  9
$SPLINESEGS
 70
     8
  9
$HANDSEED
  5
D2
  9
$SURFTAB1
 70
     6
  9
$SURFTAB2
 70
     6
  9
$SURFTYPE
 70
     6
  9
$SURFU
 70
     6
  9
$SURFV
 70
     6
  9
$UCSBASE
  2

  9
$UCSNAME
  2

  9
$UCSORG
 10
0.0
 20
0.0
 30
0.0
  9
$UCSXDIR
 10
1.0
 20
0.0
 30
0.0
  9
$UCSYDIR
 10
0.0
 20
1.0
 30
0.0
  9
$UCSORTHOREF
  2

  9
$UCSORTHOVIEW
 70
     0
  9
$UCSORGTOP
 10
0.0
 20
0.0
 30
0.0
  9
$UCSORGBOTTOM
 10
0.0
 20
0.0
 30
0.0
  9
$UCSORGLEFT
 10
0.0
 20
0.0
 30
0.0
  9
$UCSORGRIGHT
 10
0.0
 20
0.0
 30
0.0
  9
$UCSORGFRONT
 10
0.0
 20
0.0
 30
0.0
  9
$UCSORGBACK
 10
0.0
 20
0.0
 30
0.0
  9
$PUCSBASE
  2

  9
$PUCSNAME
  2

  9
$PUCSORG
 10
0.0
 20
0.0
 30
0.0
  9
$PUCSXDIR
 10
1.0
 20
0.0
 30
0.0
  9
$PUCSYDIR
 10
0.0
 20
1.0
 30
0.0
  9
$PUCSORTHOREF
  2

  9
$PUCSORTHOVIEW
 70
     0
  9
$PUCSORGTOP
 10
0.0
 20
0.0
 30
0.0
  9
$PUCSORGBOTTOM
 10
0.0
 20
0.0
 30
0.0
  9
$PUCSORGLEFT
 10
0.0
 20
0.0
 30
0.0
  9
$PUCSORGRIGHT
 10
0.0
 20
0.0
 30
0.0
  9
$PUCSORGFRONT
 10
0.0
 20
0.0
 30
0.0
  9
$PUCSORGBACK
 10
0.0
 20
0.0
 30
0.0
  9
$USERI1
 70
     0
  9
$USERI2
 70
     0
  9
$USERI3
 70
     0
  9
$USERI4
 70
     0
  9
$USERI5
 70
     0
  9
$USERR1
 40
0.0
  9
$USERR2
 40
0.0
  9
$USERR3
 40
0.0
  9
$USERR4
 40
0.0
  9
$USERR5
 40
0.0
  9
$WORLDVIEW
 70
     1
  9
$SHADEDGE
 70
     3
  9
$SHADEDIF
 70
    70
  9
$TILEMODE
 70
     1
  9
$MAXACTVP
 70
    64
  9
$PINSBASE
 10
0.0
 20
0.0
 30
0.0
  9
$PLIMCHECK
 70
     0
  9
$PEXTMIN
 10
1.0000000000E+20
 20
1.0000000000E+20
 30
1.0000000000E+20
  9
$PEXTMAX
 10
-1.0000000000E+20
 20
-1.0000000000E+20
 30
-1.0000000000E+20
  9
$PLIMMIN
 10
0.0
 20
0.0
  9
$PLIMMAX
 10
420.0
 20
297.0
  9
$UNITMODE
 70
     0
  9
$VISRETAIN
 70
     1
  9
$PLINEGEN
 70
     0
  9
$PSLTSCALE
 70
     1
  9
$TREEDEPTH
 70
  3020
  9
$CMLSTYLE
  2
Standard
  9
$CMLJUST
 70
     0
  9
$CMLSCALE
 40
20.0
  9
$PROXYGRAPHICS
 70
     1
  9
$MEASUREMENT
 70
     1
  9
$CELWEIGHT
370
    -1
  9
$ENDCAPS
280
     0
  9
$JOINSTYLE
280
     0
  9
$LWDISPLAY
290
     1
  9
$INSUNITS
 70
     4
  9
$HYPERLINKBASE
  1

  9
$STYLESHEET
  1

  9
$XEDIT
290
     1
  9
$CEPSNTYPE
380
     0
  9
$PSTYLEMODE
290
     1
  9
$FINGERPRINTGUID
  2
{e44b806f-3f0f-459b-b5dc-5da52883f434}
  9
$VERSIONGUID
  2
{FAEB1C32-E019-11D5-929B-00C0DF256EC4}
  9
$EXTNAMES
290
     1
  9
$PSVPSCALE
 40
0.0
  9
$OLESTARTUP
290
     0
  0
ENDSEC
  0
SECTION
  2
CLASSES
  0
CLASS
  1
ACDBDICTIONARYWDFLT
  2
AcDbDictionaryWithDefault
  3
ObjectDBX Classes
 90
        0
280
     0
281
     0
  0
CLASS
  1
VISUALSTYLE
  2
AcDbVisualStyle
  3
ObjectDBX Classes
 90
     4095
280
     0
281
     0
  0
CLASS
  1
MATERIAL
  2
AcDbMaterial
  3
ObjectDBX Classes
 90
     1153
280
     0
281
     0
  0
CLASS
  1
SCALE
  2
AcDbScale
  3
ObjectDBX Classes
 90
     1153
280
     0
281
     0
  0
CLASS
  1
TABLESTYLE
  2
AcDbTableStyle
  3
ObjectDBX Classes
 90
     4095
280
     0
281
     0
  0
CLASS
  1
MLEADERSTYLE
  2
AcDbMLeaderStyle
  3
ACDB_MLEADERSTYLE_CLASS
 90
     4095
280
     0
281
     0
  0
CLASS
  1
SUN
  2
AcDbSun
  3
SCENEOE
 90
     1153
280
     0
281
     0
  0
CLASS
  1
ACDBPLACEHOLDER
  2
AcDbPlaceHolder
  3
ObjectDBX Classes
 90
        0
280
     0
281
     0
  0
CLASS
  1
LAYOUT
  2
AcDbLayout
  3
ObjectDBX Classes
 90
        0
280
     0
281
     0
  0
ENDSEC
  0
SECTION
  2
TABLES
  0
TABLE
  2
VPORT
  5
8
330
0
100
AcDbSymbolTable
 70
     1
  0
VPORT
  5
29
330
8
100
AcDbSymbolTableRecord
100
AcDbViewportTableRecord
  2
*Active
 70
     0
 10
0.0
 20
0.0
 11
1.0
 21
1.0
 12
82.2878233207
 22
2.5711813686
 13
0.0
 23
0.0
 14
10.0
 24
10.0
 15
10.0
 25
10.0
 16
0.0
 26
0.0
 36
1.0
 17
0.0
 27
0.0
 37
0.0
 40
25.6452102179
 41
4.854648496
 42
50.0
 43
0.0
 44
0.0
 50
0.0
 51
0.0
 71
     0
 72
   100
 73
     1
 74
     3
 75
     0
 76
     0
 77
     0
 78
     0
281
     0
 65
     1
110
0.0
120
0.0
130
0.0
111
1.0
121
0.0
131
0.0
112
0.0
122
1.0
132
0.0
 79
     0
146
0.0
  0
ENDTAB
  0
TABLE
  2
LTYPE
  5
5
330
0
100
AcDbSymbolTable
 70
     6
  0
LTYPE
  5
14
330
5
100
AcDbSymbolTableRecord
100
AcDbLinetypeTableRecord
  2
ByBlock
 70
     0
  3

 72
    65
 73
     0
 40
0.0
  0
LTYPE
  5
15
330
5
100
AcDbSymbolTableRecord
100
AcDbLinetypeTableRecord
  2
ByLayer
 70
     0
  3

 72
    65
 73
     0
 40
0.0
  0
LTYPE
  5
16
330
5
100
AcDbSymbolTableRecord
100
AcDbLinetypeTableRecord
  2
Continuous
 70
     0
  3
Solid line
 72
    65
 73
     0
 40
0.0
  0
LTYPE
  5
5E
330
5
100
AcDbSymbolTableRecord
100
AcDbLinetypeTableRecord
  2
HIDDEN
 70
     0
  3
Hidden __ __ __ __ __ __ __ __ __ __ __ __ __ __
 72
    65
 73
     2
 40
1.905
 49
1.27
 74
     0
 49
-0.635
 74
     0
  0
LTYPE
  5
5F
330
5
100
AcDbSymbolTableRecord
100
AcDbLinetypeTableRecord
  2
PHANTOM
 70
     0
  3
Phantom ______  __  __  ______  __  __  ______
 72
    65
 73
     6
 40
12.7
 49
6.35
 74
     0
 49
-1.27
 74
     0
 49
1.27
 74
     0
 49
-1.27
 74
     0
 49
1.27
 74
     0
 49
-1.27
 74
     0
  0
LTYPE
  5
60
330
5
100
AcDbSymbolTableRecord
100
AcDbLinetypeTableRecord
  2
CENTER
 70
     0
  3
Center ____ _ ____ _ ____ _ ____ _ ____ _ ____
 72
    65
 73
     4
 40
10.16
 49
6.35
 74
     0
 49
-1.27
 74
     0
 49
1.27
 74
     0
 49
-1.27
 74
     0
  0
LTYPE
  5
61
330
5
100
AcDbSymbolTableRecord
100
AcDbLinetypeTableRecord
  2
CENTERX2
 70
     0
  3
Center (2x) ________  __  ________  __  _____
 72
    65
 73
     4
 40
20.32
 49
12.7
 74
     0
 49
-2.54
 74
     0
 49
2.54
 74
     0
 49
-2.54
 74
     0
  0
LTYPE
  5
62
330
5
100
AcDbSymbolTableRecord
100
AcDbLinetypeTableRecord
  2
DOT2
 70
     0
  3
Dot (.5x) ........................................
 72
    65
 73
     2
 40
0.635
 49
0.0
 74
     0
 49
-0.635
 74
     0
  0
ENDTAB
  0
TABLE
  2
LAYER
  5
2
330
0
100
AcDbSymbolTable
 70
     1
  0
LAYER
  5
10
330
2
100
AcDbSymbolTableRecord
100
AcDbLayerTableRecord
  2
0
 70
     0
 62
     7
  6
Continuous
370
    -3
390
F
  0
ENDTAB
  0
TABLE
  2
STYLE
  5
3
330
0
100
AcDbSymbolTable
 70
     1
  0
STYLE
  5
11
330
3
100
AcDbSymbolTableRecord
100
AcDbTextStyleTableRecord
  2
Standard
 70
     0
 40
0.0
 41
1.0
 50
0.0
 71
     0
 42
3.5
  3
txt
  4

  0
ENDTAB
  0
TABLE
  2
VIEW
  5
6
330
0
100
AcDbSymbolTable
 70
     0
  0
ENDTAB
  0
TABLE
  2
UCS
  5
7
330
0
100
AcDbSymbolTable
 70
     0
  0
ENDTAB
  0
TABLE
  2
APPID
  5
9
330
0
100
AcDbSymbolTable
 70
     1
  0
APPID
  5
12
330
9
100
AcDbSymbolTableRecord
100
AcDbRegAppTableRecord
  2
ACAD
 70
     0
  0
ENDTAB
  0
TABLE
  2
DIMSTYLE
  5
A
330
0
100
AcDbSymbolTable
 70
     1
100
AcDbDimStyleTable
  0
DIMSTYLE
105
27
330
A
100
AcDbSymbolTableRecord
100
AcDbDimStyleTableRecord
  2
ISO-25
 70
     0
 41
2.5
 42
0.625
 43
3.75
 44
1.25
 73
     0
 74
     0
 77
     1
 78
     8
140
2.5
141
2.5
143
0.0393700787
147
0.625
171
     3
172
     1
178
     0
271
     2
272
     2
274
     3
278
    44
283
     0
284
     8
340
11
  0
ENDTAB
  0
TABLE
  2
BLOCK_RECORD
  5
1
330
0
100
AcDbSymbolTable
 70
     1
  0
BLOCK_RECORD
  5
1F
330
1
100
AcDbSymbolTableRecord
100
AcDbBlockTableRecord
  2
*Model_Space
340
22
  0
BLOCK_RECORD
  5
1B
330
1
100
AcDbSymbolTableRecord
100
AcDbBlockTableRecord
  2
*Paper_Space
340
1E
  0
BLOCK_RECORD
  5
23
330
1
100
AcDbSymbolTableRecord
100
AcDbBlockTableRecord
  2
*Paper_Space0
340
26
  0
ENDTAB
  0
ENDSEC
  0
SECTION
  2
BLOCKS
  0
BLOCK
  5
20
330
1F
100
AcDbEntity
  8
0
100
AcDbBlockBegin
  2
*Model_Space
 70
     0
 10
0.0
 20
0.0
 30
0.0
  3
*Model_Space
  1

  0
ENDBLK
  5
21
330
1F
100
AcDbEntity
  8
0
100
AcDbBlockEnd
  0
BLOCK
  5
1C
330
1B
100
AcDbEntity
 67
     1
  8
0
100
AcDbBlockBegin
  2
*Paper_Space
 70
     0
 10
0.0
 20
0.0
 30
0.0
  3
*Paper_Space
  1

  0
ENDBLK
  5
1D
330
1B
100
AcDbEntity
 67
     1
  8
0
100
AcDbBlockEnd
  0
BLOCK
  5
24
330
23
100
AcDbEntity
  8
0
100
AcDbBlockBegin
  2
*Paper_Space0
 70
     0
 10
0.0
 20
0.0
 30
0.0
  3
*Paper_Space0
  1

  0
ENDBLK
  5
25
330
23
100
AcDbEntity
  8
0
100
AcDbBlockEnd
  0
ENDSEC
  0
SECTION
  2
ENTITIES
  0
SPLINE
  5
63
330
1F
100
AcDbEntity
  8
0
  6
Continuous
 62
     7
370
    25
100
AcDbSpline
210
0.0
220
0.0
230
1.0
 70
     8
 71
     3
 72
     9
 73
     5
 74
     0
 42
0.00000001
 43
0.00000001
 40
0.8452512074253284
 40
0.8452512074253284
 40
0.8452512074253284
 40
0.8452512074253284
 40
0.8575663334335537
 40
0.8641438424584318
 40
0.8641438424584318
 40
0.8641438424584318
 40
0.8641438424584318
 10
134.9211711327577
 20
-2.006029149209275
 30
0.0
 10
136.3107630874599
 20
-1.954987477039125
 30
0.0
 10
138.4425362245445
 20
-1.876686120409313
 30
0.0
 10
140.5743094037219
 20
-1.798391686392167
 30
0.0
 10
141.3164905653198
 20
-1.771133918762988
 30
0.0
  0
LINE
  5
64
330
1F
100
AcDbEntity
  8
0
  6
Continuous
 62
     7
370
    25
100
AcDbLine
 10
134.9211711388
 20
-2.0060293143
 30
0.0
 11
134.9211711388
 21
-10.0
 31
0.0
  0
LINE
  5
65
330
1F
100
AcDbEntity
  8
0
  6
Continuous
 62
     7
370
    25
100
AcDbLine
 10
134.9211711388
 20
-10.0
 30
0.0
 11
130.9211711388
 21
-10.0
 31
0.0
  0
LINE
  5
66
330
1F
100
AcDbEntity
  8
0
  6
Continuous
 62
     7
370
    25
100
AcDbLine
 10
130.9211711388
 20
-10.0
 30
0.0
 11
130.9211711388
 21
-2.2559526695
 31
0.0
  0
LINE
  5
67
330
1F
100
AcDbEntity
  8
0
  6
Continuous
 62
     7
370
    25
100
AcDbLine
 10
130.9211711388
 20
-2.2559526695
 30
0.0
 11
131.1237268504
 21
-2.2485200351
 31
0.0
  0
LINE
  5
68
330
1F
100
AcDbEntity
  8
0
  6
Continuous
 62
     7
370
    25
100
AcDbLine
 10
131.1237268504
 20
-2.2485200351
 30
0.0
 11
131.1237268504
 21
-2.1455136315
 31
0.0
  0
SPLINE
  5
69
330
1F
100
AcDbEntity
  8
0
  6
Continuous
 62
     7
370
    25
100
AcDbSpline
210
0.0
220
0.0
230
1.0
 70
     8
 71
     3
 72
    25
 73
    21
 74
     0
 42
0.00000001
 43
0.00000001
 40
0.6152326334232532
 40
0.6152326334232532
 40
0.6152326334232532
 40
0.6152326334232532
 40
0.6158885485568251
 40
0.6236846061334937
 40
0.6314806637101624
 40
0.6392767212868311
 40
0.6470727788634998
 40
0.6548688364401682
 40
0.6704609515935056
 40
0.6860530667468429
 40
0.7016451819001803
 40
0.7172372970535177
 40
0.732829412206855
 40
0.7484215273601924
 40
0.7640136425135295
 40
0.7796057576668669
 40
0.7951978728202043
 40
0.8107899879735417
 40
0.8263821031268792
 40
0.8340330448191974
 40
0.8340330448191974
 40
0.8340330448191974
 40
0.8340330448191974
 10
57.05719866723437
 20
-4.844421175643881
 30
0.0
 10
57.13123047044149
 20
-4.842345407958815
 30
0.0
 10
58.08518238446922
 20
-4.815420937847448
 30
0.0
 10
59.91893076259524
 20
-4.759367886854004
 30
0.0
 10
62.55822802951572
 20
-4.669836207383721
 30
0.0
 10
65.19729740407729
 20
-4.57388944459689
 30
0.0
 10
67.83622897286617
 20
-4.474240025614076
 30
0.0
 10
71.35473030457814
 20
-4.339434833140465
 30
0.0
 10
75.75301182288447
 20
-4.17500440427942
 30
0.0
 10
81.03111702764328
 20
-3.982235034847504
 30
0.0
 10
86.30928186436797
 20
-3.791110283265986
 30
0.0
 10
91.58739285896189
 20
-3.598503050736352
 30
0.0
 10
96.86545092167793
 20
-3.404451475836082
 30
0.0
 10
102.1434913667948
 20
-3.209922599133819
 30
0.0
 10
107.4215415463229
 20
-3.015657222029581
 30
0.0
 10
112.6996091287729
 20
-2.82186596747041
 30
0.0
 10
117.9776807390291
 20
-2.628183543676671
 30
0.0
 10
123.2557516373534
 20
-2.434483470114988
 30
0.0
 10
127.6377657304135
 20
-2.27355648644728
 30
0.0
 10
130.2604237982933
 20
-2.177225511827055
 30
0.0
 10
131.1237269157845
 20
-2.145515410599995
 30
0.0
  0
LINE
  5
6A
330
1F
100
AcDbEntity
  8
0
  6
Continuous
 62
     7
370
    25
100
AcDbLine
 10
57.0571986672
 20
-10.0000001108
 30
0.0
 11
57.0571986672
 21
-4.8444211756
 31
0.0
  0
LINE
  5
6B
330
1F
100
AcDbEntity
  8
0
  6
Continuous
 62
     7
370
    25
100
AcDbLine
 10
53.0570504038
 20
-10.0000001108
 30
0.0
 11
57.0571986672
 21
-10.0000001108
 31
0.0
  0
LINE
  5
6C
330
1F
100
AcDbEntity
  8
0
  6
Continuous
 62
     7
370
    25
100
AcDbLine
 10
53.0570504038
 20
-5.0417435204
 30
0.0
 11
53.0570504038
 21
-10.0000001108
 31
0.0
  0
LINE
  5
6D
330
1F
100
AcDbEntity
  8
0
  6
Continuous
 62
     7
370
    25
100
AcDbLine
 10
53.2583491567
 20
-5.0376311035
 30
0.0
 11
53.0570504038
 21
-5.0417435204
 31
0.0
  0
LINE
  5
6E
330
1F
100
AcDbEntity
  8
0
  6
Continuous
 62
     7
370
    25
100
AcDbLine
 10
53.2583491567
 20
-4.9376110616
 30
0.0
 11
53.2583491567
 21
-5.0376311035
 31
0.0
  0
SPLINE
  5
6F
330
1F
100
AcDbEntity
  8
0
  6
Continuous
 62
     7
370
    25
100
AcDbSpline
210
0.0
220
0.0
230
1.0
 70
     8
 71
     3
 72
    73
 73
    69
 74
     0
 42
0.00000001
 43
0.00000001
 40
0.1842939855889897
 40
0.1842939855889897
 40
0.1842939855889897
 40
0.1842939855889897
 40
0.1871053818400481
 40
0.2026974969933854
 40
0.2182896121467227
 40
0.2338817273000601
 40
0.2494738424533974
 40
0.2650659576067348
 40
0.280658072760072
 40
0.2962501879134095
 40
0.3118423030667469
 40
0.3274344182200841
 40
0.3430265333734214
 40
0.3586186485267588
 40
0.3742107636800962
 40
0.3820068212567648
 40
0.3898028788334335
 40
0.3975989364101021
 40
0.4053949939867709
 40
0.4131910515634396
 40
0.4209871091401083
 40
0.4287831667167769
 40
0.4365792242934455
 40
0.4443752818701141
 40
0.4482733106584484
 40
0.4521713394467828
 40
0.4560693682351171
 40
0.4599673970234516
 40
0.4638654258117859
 40
0.4677634546001203
 40
0.4716614833884546
 40
0.4755595121767888
 40
0.4794575409651232
 40
0.4833555697534575
 40
0.4853045841476247
 40
0.4872535985417918
 40
0.489202612935959
 40
0.4911516273301262
 40
0.4931006417242934
 40
0.4950496561184605
 40
0.4969986705126277
 40
0.4989476849067949
 40
0.500896699300962
 40
0.5028457136951292
 40
0.5047947280892964
 40
0.5067437424834635
 40
0.5086927568776307
 40
0.5106417712717979
 40
0.512590785665965
 40
0.5145398000601322
 40
0.5184378288484666
 40
0.5223358576368009
 40
0.5242848720309681
 40
0.5262338864251352
 40
0.5281829008193024
 40
0.5301319152134696
 40
0.5340299440018039
 40
0.5379279727901383
 40
0.5418260015784726
 40
0.545724030366807
 40
0.5535200879434754
 40
0.5613161455201441
 40
0.5691122030968128
 40
0.5769082606734814
 40
0.5847043182501501
 40
0.592500375826819
 40
0.6002964334034877
 40
0.6040144827571756
 40
0.6040144827571756
 40
0.6040144827571756
 40
0.6040144827571756
 10
125.3164906735114
 20
11.8868284691427
 30
0.0
 10
125.0019432363659
 20
11.92959340889375
 30
0.0
 10
122.942588652987
 20
12.20722154400936
 30
0.0
 10
119.1346507174081
 20
12.6915211603223
 30
0.0
 10
113.8862350009233
 20
13.2840572897849
 30
0.0
 10
108.6300122782901
 20
13.80282325700512
 30
0.0
 10
103.3669378133421
 20
14.24657470775259
 30
0.0
 10
98.098019044408
 20
14.61507701425759
 30
0.0
 10
92.82372021314016
 20
14.89658247071145
 30
0.0
 10
87.54504271213459
 20
15.08141363312233
 30
0.0
 10
82.26368129772654
 20
15.15544926688334
 30
0.0
 10
76.9818886967626
 20
15.13165850465614
 30
0.0
 10
71.70130792448131
 20
15.02100164038315
 30
0.0
 10
66.42246209781902
 20
14.84599027029705
 30
0.0
 10
62.02707180744343
 20
14.60919708232343
 30
0.0
 10
58.51695089173636
 20
14.32875410845267
 30
0.0
 10
55.88902394027833
 20
14.06699678798155
 30
0.0
 10
53.26789845346701
 20
13.74327067947477
 30
0.0
 10
50.65587382095547
 20
13.35301907125986
 30
0.0
 10
48.05436649643047
 20
12.89791957620239
 30
0.0
 10
45.46447700557647
 20
12.38088999377309
 30
0.0
 10
42.88776153185778
 20
11.80164196066218
 30
0.0
 10
40.32720570129132
 20
11.1544755115464
 30
0.0
 10
38.21060787892009
 20
10.55093759991474
 30
0.0
 10
36.53035300006444
 20
10.02509426213312
 30
0.0
 10
35.27702012608487
 20
9.609475565054987
 30
0.0
 10
34.03054053389118
 20
9.173723248368855
 30
0.0
 10
32.79177122442154
 20
8.716467414849259
 30
0.0
 10
31.56368749684785
 20
8.23110977245877
 30
0.0
 10
30.34903785901322
 20
7.712991729530056
 30
0.0
 10
29.1522623322767
 20
7.15452595084512
 30
0.0
 10
27.97949506211572
 20
6.547184486537872
 30
0.0
 10
26.83624879579898
 20
5.885578904181426
 30
0.0
 10
25.91956498511525
 20
5.275705764011542
 30
0.0
 10
25.21511743837343
 20
4.747559942634079
 30
0.0
 10
24.70164286853908
 20
4.33239446064851
 30
0.0
 10
24.20518305238629
 20
3.897008189547311
 30
0.0
 10
23.7233905175736
 20
3.44552505483316
 30
0.0
 10
23.25219157378086
 20
2.983090292821245
 30
0.0
 10
22.7865924383642
 20
2.514953139217394
 30
0.0
 10
22.33683314021973
 20
2.031472650067537
 30
0.0
 10
21.91738247208848
 20
1.520908220204236
 30
0.0
 10
21.55219530325719
 20
0.9693918648984049
 30
0.0
 10
21.27654093242996
 20
0.3661369338353917
 30
0.0
 10
21.17766229574812
 20
-0.2979240934944907
 30
0.0
 10
21.34122562852598
 20
-0.949744355511827
 30
0.0
 10
21.68401354255301
 20
-1.518324440522066
 30
0.0
 10
22.12172263409066
 20
-2.015481510431529
 30
0.0
 10
22.6255789280495
 20
-2.443501540346817
 30
0.0
 10
23.35979036601721
 20
-2.933991702490765
 30
0.0
 10
24.38544675452928
 20
-3.35054826182332
 30
0.0
 10
25.45758185270025
 20
-3.601734186562986
 30
0.0
 10
26.32098250370838
 20
-3.773192053413952
 30
0.0
 10
26.96839799133221
 20
-3.902377100128523
 30
0.0
 10
27.61711121539386
 20
-4.025238642653886
 30
0.0
 10
28.48447359859874
 20
-4.175423069200311
 30
0.0
 10
29.57357160470342
 20
-4.333973475407248
 30
0.0
 10
30.88642009716877
 20
-4.476264411489943
 30
0.0
 10
32.20250245847551
 20
-4.584466073535856
 30
0.0
 10
33.95977393842352
 20
-4.692071196754952
 30
0.0
 10
36.15763678334667
 20
-4.80406541958144
 30
0.0
 10
38.79634969016193
 20
-4.91050267149167
 30
0.0
 10
41.43642798229622
 20
-4.976235460921531
 30
0.0
 10
44.07700968575698
 20
-5.012515005108232
 30
0.0
 10
46.71786133515349
 20
-5.019611363425052
 30
0.0
 10
49.35863359901525
 20
-5.002709139002741
 30
0.0
 10
51.53878143642301
 20
-4.971293935469892
 30
0.0
 10
52.83862551653196
 20
-4.94628248246865
 30
0.0
 10
53.25834915666729
 20
-4.937611061632571
 30
0.0
  0
LINE
  5
70
330
1F
100
AcDbEntity
  8
0
  6
Continuous
 62
     7
370
    25
100
AcDbLine
 10
125.3164905827
 20
4.6623818838
 30
0.0
 11
125.3164905827
 21
11.8868278011
 31
0.0
  0
LINE
  5
71
330
1F
100
AcDbEntity
  8
0
  6
Continuous
 62
     7
370
    25
100
AcDbLine
 10
127.3164905827
 20
4.6623818838
 30
0.0
 11
125.3164905827
 21
4.6623818838
 31
0.0
  0
LINE
  5
72
330
1F
100
AcDbEntity
  8
0
  6
Continuous
 62
     7
370
    25
100
AcDbLine
 10
127.3164905827
 20
11.6101279102
 30
0.0
 11
127.3164905827
 21
4.6623818838
 31
0.0
  0
SPLINE
  5
73
330
1F
100
AcDbEntity
  8
0
  6
Continuous
 62
     7
370
    25
100
AcDbSpline
210
0.0
220
0.0
230
1.0
 70
     8
 71
     3
 72
    11
 73
     7
 74
     0
 42
0.00000001
 43
0.00000001
 40
0.1365069400392428
 40
0.1365069400392428
 40
0.1365069400392428
 40
0.1365069400392428
 40
0.140329036380036
 40
0.1559211515333734
 40
0.1715132666867107
 40
0.1783334551567434
 40
0.1783334551567434
 40
0.1783334551567434
 40
0.1783334551567434
 10
141.3164905091135
 20
9.436348722155108
 30
0.0
 10
140.8909294273539
 20
9.508061889138867
 30
0.0
 10
138.7288993970198
 20
9.869917105499116
 30
0.0
 10
134.8267825765027
 20
10.50021415686426
 30
0.0
 10
130.5840842909105
 20
11.14369760596093
 30
0.0
 10
128.0790626961846
 20
11.50283296418259
 30
0.0
 10
127.3164911039318
 20
11.61013161471696
 30
0.0
  0
LINE
  5
74
330
1F
100
AcDbEntity
  8
0
  6
Continuous
 62
     7
370
    25
100
AcDbLine
 10
141.3164905827
 20
9.4363491587
 30
0.0
 11
141.3164905827
 21
5.4182190765
 31
0.0
  0
LINE
  5
75
330
1F
100
AcDbEntity
  8
0
  6
Continuous
 62
     7
370
    25
100
AcDbLine
 10
143.3164905827
 20
5.4182190765
 30
0.0
 11
141.3164905827
 21
5.4182190765
 31
0.0
  0
LINE
  5
76
330
1F
100
AcDbEntity
  8
0
  6
Continuous
 62
     7
370
    25
100
AcDbLine
 10
143.3164905827
 20
2.4182190765
 30
0.0
 11
143.3164905827
 21
5.4182190765
 31
0.0
  0
LINE
  5
77
330
1F
100
AcDbEntity
  8
0
  6
Continuous
 62
     7
370
    25
100
AcDbLine
 10
141.3164905827
 20
2.4182190765
 30
0.0
 11
143.3164905827
 21
2.4182190765
 31
0.0
  0
LINE
  5
78
330
1F
100
AcDbEntity
  8
0
  6
Continuous
 62
     7
370
    25
100
AcDbLine
 10
141.3164905827
 20
2.4182190765
 30
0.0
 11
141.3164905827
 21
-1.7711343915
 31
0.0
  0
SPLINE
  5
79
330
1F
100
AcDbEntity
  8
0
  6
Continuous
 62
     7
370
    25
100
AcDbSpline
210
0.0
220
0.0
230
1.0
 70
     8
 71
     3
 72
     9
 73
     5
 74
     0
 42
0.00000001
 43
0.00000001
 40
0.8417086297751624
 40
0.8417086297751624
 40
0.8417086297751624
 40
0.8417086297751624
 40
0.8419742182802166
 40
0.8446607777379146
 40
0.8446607777379146
 40
0.8446607777379146
 40
0.8446607777379146
 10
133.7219782057336
 20
-2.050077423925487
 30
0.0
 10
133.7519462011354
 20
-2.048976646948479
 30
0.0
 10
134.0850553341868
 20
-2.036740967538021
 30
0.0
 10
134.4181644714283
 20
-2.024505322519787
 30
0.0
 10
134.7213056158779
 20
-2.013370498839326
 30
0.0
  0
LINE
  5
7A
330
1F
100
AcDbEntity
  8
0
  6
Continuous
 62
     7
370
    25
100
AcDbLine
 10
133.7219782056
 20
-2.0500774211
 30
0.0
 11
133.7219782056
 21
-2.1531790931
 31
0.0
  0
LINE
  5
7B
330
1F
100
AcDbEntity
  8
0
  6
Continuous
 62
     7
370
    25
100
AcDbLine
 10
133.7219782056
 20
-2.1531790931
 30
0.0
 11
134.7213056499
 21
-2.1165095
 31
0.0
  0
LINE
  5
7C
330
1F
100
AcDbEntity
  8
0
  6
Continuous
 62
     7
370
    25
100
AcDbLine
 10
134.7213056499
 20
-2.1165095
 30
0.0
 11
134.7213056499
 21
-2.0133706123
 31
0.0
  0
SPLINE
  5
7D
330
1F
100
AcDbEntity
  8
0
  6
Continuous
 62
     7
370
    25
100
AcDbSpline
210
0.0
220
0.0
230
1.0
 70
     8
 71
     3
 72
     8
 73
     4
 74
     0
 42
0.00000001
 43
0.00000001
 40
0.8381660520744315
 40
0.8381660520744315
 40
0.8381660520744315
 40
0.8381660520744315
 40
0.8411181999268332
 40
0.8411181999268332
 40
0.8411181999268332
 40
0.8411181999268332
 10
132.5227852909705
 20
-2.094125916946707
 30
0.0
 10
132.8558944057956
 20
-2.081890241055675
 30
0.0
 10
133.1890035211997
 20
-2.069654530797242
 30
0.0
 10
133.5221126399822
 20
-2.057418839474905
 30
0.0
  0
LINE
  5
7E
330
1F
100
AcDbEntity
  8
0
  6
Continuous
 62
     7
370
    25
100
AcDbLine
 10
132.5227852725
 20
-2.0941254131
 30
0.0
 11
132.5227852725
 21
-2.1971826048
 31
0.0
  0
LINE
  5
7F
330
1F
100
AcDbEntity
  8
0
  6
Continuous
 62
     7
370
    25
100
AcDbLine
 10
132.5227852725
 20
-2.1971826048
 30
0.0
 11
133.5221127168
 21
-2.1605130117
 31
0.0
  0
LINE
  5
80
330
1F
100
AcDbEntity
  8
0
  6
Continuous
 62
     7
370
    25
100
AcDbLine
 10
133.5221127168
 20
-2.1605130117
 30
0.0
 11
133.5221127168
 21
-2.0574188076
 31
0.0
  0
LINE
  5
81
330
1F
100
AcDbEntity
  8
0
  6
Continuous
 62
     7
370
    25
100
AcDbLine
 10
132.3229197836
 20
-2.2045165234
 30
0.0
 11
132.3229197836
 21
-2.1014666647
 31
0.0
  0
SPLINE
  5
82
330
1F
100
AcDbEntity
  8
0
  6
Continuous
 62
     7
370
    25
100
AcDbSpline
210
0.0
220
0.0
230
1.0
 70
     8
 71
     3
 72
     8
 73
     4
 74
     0
 42
0.00000001
 43
0.00000001
 40
0.8346234744206331
 40
0.8346234744206331
 40
0.8346234744206331
 40
0.8346234744206331
 40
0.837575622461097
 40
0.837575622461097
 40
0.837575622461097
 40
0.837575622461097
 10
131.3235923970985
 20
-2.13817411244999
 30
0.0
 10
131.6567015357844
 20
-2.125938595018323
 30
0.0
 10
131.9898106716906
 20
-2.113702979255045
 30
0.0
 10
132.3229198076161
 20
-2.101467318463659
 30
0.0
  0
LINE
  5
83
330
1F
100
AcDbEntity
  8
0
  6
Continuous
 62
     7
370
    25
100
AcDbLine
 10
131.3235923393
 20
-2.1381725388
 30
0.0
 11
131.3235923393
 21
-2.2411861165
 31
0.0
  0
LINE
  5
84
330
1F
100
AcDbEntity
  8
0
  6
Continuous
 62
     7
370
    25
100
AcDbLine
 10
131.3235923393
 20
-2.2411861165
 30
0.0
 11
132.3229197836
 21
-2.2045165234
 31
0.0
  0
SPLINE
  5
85
330
1F
100
AcDbEntity
  8
0
  6
Continuous
 62
     7
370
    25
100
AcDbSpline
210
0.0
220
0.0
230
1.0
 70
     8
 71
     3
 72
     8
 73
     4
 74
     0
 42
0.00000001
 43
0.00000001
 40
0.611690060995901
 40
0.611690060995901
 40
0.611690060995901
 40
0.611690060995901
 40
0.6146422047190182
 40
0.6146422047190182
 40
0.6146422047190182
 40
0.6146422047190182
 10
55.85763591927023
 20
-4.876815213896274
 30
0.0
 10
56.1908572302966
 20
-4.868172263890582
 30
0.0
 10
56.52407068492909
 20
-4.859223885414693
 30
0.0
 10
56.85727627250014
 20
-4.849993245352807
 30
0.0
  0
LINE
  5
86
330
1F
100
AcDbEntity
  8
0
  6
Continuous
 62
     7
370
    25
100
AcDbLine
 10
55.8576359193
 20
-4.9768488399
 30
0.0
 11
55.8576359193
 21
-4.8768152139
 31
0.0
  0
LINE
  5
87
330
1F
100
AcDbEntity
  8
0
  6
Continuous
 62
     7
370
    25
100
AcDbLine
 10
56.8572762725
 20
-4.950031603
 30
0.0
 11
55.8576359193
 21
-4.9768488399
 31
0.0
  0
LINE
  5
88
330
1F
100
AcDbEntity
  8
0
  6
Continuous
 62
     7
370
    25
100
AcDbLine
 10
56.8572762725
 20
-4.8499932454
 30
0.0
 11
56.8572762725
 21
-4.950031603
 31
0.0
  0
SPLINE
  5
89
330
1F
100
AcDbEntity
  8
0
  6
Continuous
 62
     7
370
    25
100
AcDbSpline
210
0.0
220
0.0
230
1.0
 70
     8
 71
     3
 72
     8
 73
     4
 74
     0
 42
0.00000001
 43
0.00000001
 40
0.6081474871917362
 40
0.6081474871917362
 40
0.6081474871917362
 40
0.6081474871917362
 40
0.6110996322349382
 40
0.6110996322349382
 40
0.6110996322349382
 40
0.6110996322349382
 10
54.65800482581772
 20
-4.906570361246692
 30
0.0
 10
54.99124512584736
 20
-4.898693796662322
 30
0.0
 10
55.32447758227715
 20
-4.890484003038218
 30
0.0
 10
55.65770218443956
 20
-4.881964147289655
 30
0.0
  0
LINE
  5
8A
330
1F
100
AcDbEntity
  8
0
  6
Continuous
 62
     7
370
    25
100
AcDbLine
 10
54.6580048258
 20
-5.0065974226
 30
0.0
 11
54.6580048258
 21
-4.9065703612
 31
0.0
  0
LINE
  5
8B
330
1F
100
AcDbEntity
  8
0
  6
Continuous
 62
     7
370
    25
100
AcDbLine
 10
55.6577021844
 20
-4.9819968218
 30
0.0
 11
54.6580048258
 21
-5.0065974226
 31
0.0
  0
LINE
  5
8C
330
1F
100
AcDbEntity
  8
0
  6
Continuous
 62
     7
370
    25
100
AcDbLine
 10
55.6577021844
 20
-4.8819641473
 30
0.0
 11
55.6577021844
 21
-4.9819968218
 31
0.0
  0
SPLINE
  5
8D
330
1F
100
AcDbEntity
  8
0
  6
Continuous
 62
     7
370
    25
100
AcDbSpline
210
0.0
220
0.0
230
1.0
 70
     8
 71
     3
 72
     8
 73
     4
 74
     0
 42
0.00000001
 43
0.00000001
 40
0.6046049119696318
 40
0.6046049119696318
 40
0.6046049119696318
 40
0.6046049119696318
 40
0.6075570581437586
 40
0.6075570581437586
 40
0.6075570581437586
 40
0.6075570581437586
 10
53.45830557568258
 20
-4.933435208936946
 30
0.0
 10
53.79156473460873
 20
-4.926401242079011
 30
0.0
 10
54.12481612880151
 20
-4.918998212483616
 30
0.0
 10
54.45805969166563
 20
-4.911256086917269
 30
0.0
  0
LINE
  5
8E
330
1F
100
AcDbEntity
  8
0
  6
Continuous
 62
     7
370
    25
100
AcDbLine
 10
53.4583055757
 20
-5.0334561472
 30
0.0
 11
53.4583055757
 21
-4.9334352089
 31
0.0
  0
LINE
  5
8F
330
1F
100
AcDbEntity
  8
0
  6
Continuous
 62
     7
370
    25
100
AcDbLine
 10
54.4580596917
 20
-5.0112817915
 30
0.0
 11
53.4583055757
 21
-5.0334561472
 31
0.0
  0
LINE
  5
90
330
1F
100
AcDbEntity
  8
0
  6
Continuous
 62
     7
370
    25
100
AcDbLine
 10
54.4580596917
 20
-4.9112560869
 30
0.0
 11
54.4580596917
 21
-5.0112817915
 31
0.0
  0
LINE
  5
91
330
1F
100
AcDbEntity
  8
0
  6
Continuous
 62
     7
370
    25
100
AcDbLine
 10
58.8839132768
 20
0.2231999795
 30
0.0
 11
52.3824234944
 21
0.2231999795
 31
0.0
  0
ARC
  5
92
330
1F
100
AcDbEntity
  8
0
  6
Continuous
 62
     7
370
    25
100
AcDbCircle
 10
58.8839132768
 20
1.2231999795
 30
0.0
 40
1.000000000000002
100
AcDbArc
 50
270.0
 51
46.3253728439
  0
LINE
  5
93
330
1F
100
AcDbEntity
  8
0
  6
Continuous
 62
     7
370
    25
100
AcDbLine
 10
53.0729856792
 20
8.1539255606
 30
0.0
 11
59.5744754616
 21
1.9464730046
 31
0.0
  0
ARC
  5
94
330
1F
100
AcDbEntity
  8
0
  6
Continuous
 62
     7
370
    25
100
AcDbCircle
 10
52.3824234944
 20
7.4306525355
 30
0.0
 40
1.000000000000007
100
AcDbArc
 50
46.3253728439
 51
180.0
  0
LINE
  5
95
330
1F
100
AcDbEntity
  8
0
  6
Continuous
 62
     7
370
    25
100
AcDbLine
 10
51.3824234944
 20
1.2231999795
 30
0.0
 11
51.3824234944
 21
7.4306525355
 31
0.0
  0
ARC
  5
96
330
1F
100
AcDbEntity
  8
0
  6
Continuous
 62
     7
370
    25
100
AcDbCircle
 10
52.3824234944
 20
1.2231999795
 30
0.0
 40
1.000000000000007
100
AcDbArc
 50
180.0
 51
270.0
  0
LINE
  5
97
330
1F
100
AcDbEntity
  8
0
  6
Continuous
 62
     7
370
    25
100
AcDbLine
 10
117.4972406823
 20
2.2229405505
 30
0.0
 11
112.3399636397
 21
8.109022314
 31
0.0
  0
ARC
  5
98
330
1F
100
AcDbEntity
  8
0
  6
Continuous
 62
     7
370
    25
100
AcDbCircle
 10
118.2493767471
 20
2.8819483957
 30
0.0
 40
1.0
100
AcDbArc
 50
221.2242492583
 51
0.0
  0
LINE
  5
99
330
1F
100
AcDbEntity
  8
0
  6
Continuous
 62
     7
370
    25
100
AcDbLine
 10
119.2493767471
 20
8.7680301592
 30
0.0
 11
119.2493767471
 21
2.8819483957
 31
0.0
  0
ARC
  5
9A
330
1F
100
AcDbEntity
  8
0
  6
Continuous
 62
     7
370
    25
100
AcDbCircle
 10
118.2493767471
 20
8.7680301592
 30
0.0
 40
1.0
100
AcDbArc
 50
0.0
 51
90.0
  0
LINE
  5
9B
330
1F
100
AcDbEntity
  8
0
  6
Continuous
 62
     7
370
    25
100
AcDbLine
 10
113.0920997045
 20
9.7680301592
 30
0.0
 11
118.2493767471
 21
9.7680301592
 31
0.0
  0
ARC
  5
9C
330
1F
100
AcDbEntity
  8
0
  6
Continuous
 62
     7
370
    25
100
AcDbCircle
 10
113.0920997045
 20
8.7680301592
 30
0.0
 40
1.000000000000005
100
AcDbArc
 50
90.0
 51
221.2242492583
  0
LINE
  5
9D
330
1F
100
AcDbEntity
  8
0
  6
Continuous
 62
     7
370
    25
100
AcDbLine
 10
82.7157053344
 20
7.8943520462
 30
0.0
 11
88.2607866142
 21
1.9024092222
 31
0.0
  0
ARC
  5
9E
330
1F
100
AcDbEntity
  8
0
  6
Continuous
 62
     7
370
    25
100
AcDbCircle
 10
81.9817606467
 20
7.2151428035
 30
0.0
 40
1.000000000000003
100
AcDbArc
 50
42.7818813438
 51
180.0
  0
LINE
  5
9F
330
1F
100
AcDbEntity
  8
0
  6
Continuous
 62
     7
370
    25
100
AcDbLine
 10
80.9817606467
 20
1.2231999795
 30
0.0
 11
80.9817606467
 21
7.2151428035
 31
0.0
  0
ARC
  5
A0
330
1F
100
AcDbEntity
  8
0
  6
Continuous
 62
     7
370
    25
100
AcDbCircle
 10
81.9817606467
 20
1.2231999795
 30
0.0
 40
1.0
100
AcDbArc
 50
180.0
 51
270.0
  0
LINE
  5
A1
330
1F
100
AcDbEntity
  8
0
  6
Continuous
 62
     7
370
    25
100
AcDbLine
 10
87.5268419266
 20
0.2231999795
 30
0.0
 11
81.9817606467
 21
0.2231999795
 31
0.0
  0
ARC
  5
A2
330
1F
100
AcDbEntity
  8
0
  6
Continuous
 62
     7
370
    25
100
AcDbCircle
 10
87.5268419266
 20
1.2231999795
 30
0.0
 40
0.9999999999999987
100
AcDbArc
 50
270.0
 51
42.7818813438
  0
LINE
  5
A3
330
1F
100
AcDbEntity
  8
0
  6
Continuous
 62
     7
370
    25
100
AcDbLine
 10
77.6103062718
 20
0.2231999795
 30
0.0
 11
71.4796906472
 21
0.2231999795
 31
0.0
  0
ARC
  5
A4
330
1F
100
AcDbEntity
  8
0
  6
Continuous
 62
     7
370
    25
100
AcDbCircle
 10
77.6103062718
 20
1.2231999795
 30
0.0
 40
1.0
100
AcDbArc
 50
270.0
 51
0.0
  0
LINE
  5
A5
330
1F
100
AcDbEntity
  8
0
  6
Continuous
 62
     7
370
    25
100
AcDbLine
 10
78.6103062718
 20
7.3538163806
 30
0.0
 11
78.6103062718
 21
1.2231999795
 31
0.0
  0
ARC
  5
A6
330
1F
100
AcDbEntity
  8
0
  6
Continuous
 62
     7
370
    25
100
AcDbCircle
 10
77.6103062718
 20
7.3538163806
 30
0.0
 40
1.0
100
AcDbArc
 50
360.0
 51
135.0000036286
  0
LINE
  5
A7
330
1F
100
AcDbEntity
  8
0
  6
Continuous
 62
     7
370
    25
100
AcDbLine
 10
70.7725838213
 20
1.9303067159
 30
0.0
 11
76.9031994459
 21
8.060923117
 31
0.0
  0
ARC
  5
A8
330
1F
100
AcDbEntity
  8
0
  6
Continuous
 62
     7
370
    25
100
AcDbCircle
 10
71.4796906472
 20
1.2231999795
 30
0.0
 40
1.000000000000001
100
AcDbArc
 50
135.0000036286
 51
270.0
  0
LINE
  5
A9
330
1F
100
AcDbEntity
  8
0
  6
Continuous
 62
     7
370
    25
100
AcDbLine
 10
66.3527360921
 20
2.6374135418
 30
0.0
 11
66.3527360921
 21
8.7680301592
 31
0.0
  0
ARC
  5
AA
330
1F
100
AcDbEntity
  8
0
  6
Continuous
 62
     7
370
    25
100
AcDbCircle
 10
67.3527360921
 20
2.6374135418
 30
0.0
 40
1.000000000000014
100
AcDbArc
 50
180.0
 51
315.0
  0
LINE
  5
AB
330
1F
100
AcDbEntity
  8
0
  6
Continuous
 62
     7
370
    25
100
AcDbLine
 10
74.1904594906
 20
8.060923378
 30
0.0
 11
68.0598428733
 21
1.9303067606
 31
0.0
  0
ARC
  5
AC
330
1F
100
AcDbEntity
  8
0
  6
Continuous
 62
     7
370
    25
100
AcDbCircle
 10
73.4833527095
 20
8.7680301592
 30
0.0
 40
1.000000000000009
100
AcDbArc
 50
315.0
 51
90.0
  0
LINE
  5
AD
330
1F
100
AcDbEntity
  8
0
  6
Continuous
 62
     7
370
    25
100
AcDbLine
 10
67.3527360921
 20
9.7680301592
 30
0.0
 11
73.4833527095
 21
9.7680301592
 31
0.0
  0
ARC
  5
AE
330
1F
100
AcDbEntity
  8
0
  6
Continuous
 62
     7
370
    25
100
AcDbCircle
 10
67.3527360921
 20
8.7680301592
 30
0.0
 40
1.000000000000014
100
AcDbArc
 50
90.0
 51
180.0
  0
LINE
  5
AF
330
1F
100
AcDbEntity
  8
0
  6
Continuous
 62
     7
370
    25
100
AcDbLine
 10
62.3962188197
 20
1.8903645717
 30
0.0
 11
55.9503023991
 21
8.044757134
 31
0.0
  0
ARC
  5
B0
330
1F
100
AcDbEntity
  8
0
  6
Continuous
 62
     7
370
    25
100
AcDbCircle
 10
63.0867810045
 20
2.6136375968
 30
0.0
 40
1.000000000000002
100
AcDbArc
 50
226.3253728439
 51
1.3253728439
  0
LINE
  5
B1
330
1F
100
AcDbEntity
  8
0
  6
Continuous
 62
     7
370
    25
100
AcDbLine
 10
63.9441239238
 20
8.7911602162
 30
0.0
 11
64.0865134689
 21
2.6367676539
 31
0.0
  0
ARC
  5
B2
330
1F
100
AcDbEntity
  8
0
  6
Continuous
 62
     7
370
    25
100
AcDbCircle
 10
62.9443914593
 20
8.7680301592
 30
0.0
 40
1.000000000000004
100
AcDbArc
 50
1.3253728439
 51
90.0
  0
LINE
  5
B3
330
1F
100
AcDbEntity
  8
0
  6
Continuous
 62
     7
370
    25
100
AcDbLine
 10
56.6408645839
 20
9.7680301592
 30
0.0
 11
62.9443914593
 21
9.7680301592
 31
0.0
  0
ARC
  5
B4
330
1F
100
AcDbEntity
  8
0
  6
Continuous
 62
     7
370
    25
100
AcDbCircle
 10
56.6408645839
 20
8.7680301592
 30
0.0
 40
1.0
100
AcDbArc
 50
90.0
 51
226.3253728439
  0
LINE
  5
B5
330
1F
100
AcDbEntity
  8
0
  6
Continuous
 62
     7
370
    25
100
AcDbLine
 10
114.628977819
 20
0.2231999795
 30
0.0
 11
109.4717007763
 21
0.2231999795
 31
0.0
  0
ARC
  5
B6
330
1F
100
AcDbEntity
  8
0
  6
Continuous
 62
     7
370
    25
100
AcDbCircle
 10
114.628977819
 20
1.2231999795
 30
0.0
 40
1.000000000000005
100
AcDbArc
 50
270.0
 51
41.2242492583
  0
LINE
  5
B7
330
1F
100
AcDbEntity
  8
0
  6
Continuous
 62
     7
370
    25
100
AcDbLine
 10
110.2238368411
 20
7.7682895882
 30
0.0
 11
115.3811138837
 21
1.8822078247
 31
0.0
  0
ARC
  5
B8
330
1F
100
AcDbEntity
  8
0
  6
Continuous
 62
     7
370
    25
100
AcDbCircle
 10
109.4717007763
 20
7.109281743
 30
0.0
 40
1.000000000000004
100
AcDbArc
 50
41.2242492583
 51
180.0
  0
LINE
  5
B9
330
1F
100
AcDbEntity
  8
0
  6
Continuous
 62
     7
370
    25
100
AcDbLine
 10
108.4717007763
 20
1.2231999795
 30
0.0
 11
108.4717007763
 21
7.109281743
 31
0.0
  0
ARC
  5
BA
330
1F
100
AcDbEntity
  8
0
  6
Continuous
 62
     7
370
    25
100
AcDbCircle
 10
109.4717007763
 20
1.2231999795
 30
0.0
 40
1.0
100
AcDbArc
 50
180.0
 51
270.0
  0
LINE
  5
BB
330
1F
100
AcDbEntity
  8
0
  6
Continuous
 62
     7
370
    25
100
AcDbLine
 10
104.7999828725
 20
0.2231999795
 30
0.0
 11
99.3086166645
 21
0.2231999795
 31
0.0
  0
ARC
  5
BC
330
1F
100
AcDbEntity
  8
0
  6
Continuous
 62
     7
370
    25
100
AcDbCircle
 10
104.7999828725
 20
1.2231999795
 30
0.0
 40
1.0
100
AcDbArc
 50
270.0
 51
0.0
  0
LINE
  5
BD
330
1F
100
AcDbEntity
  8
0
  6
Continuous
 62
     7
370
    25
100
AcDbLine
 10
105.7999828725
 20
7.2012056821
 30
0.0
 11
105.7999828725
 21
1.2231999795
 31
0.0
  0
ARC
  5
BE
330
1F
100
AcDbEntity
  8
0
  6
Continuous
 62
     7
370
    25
100
AcDbCircle
 10
104.7999828725
 20
7.2012056821
 30
0.0
 40
1.000000000000009
100
AcDbArc
 50
360.0
 51
137.429572918
  0
LINE
  5
BF
330
1F
100
AcDbEntity
  8
0
  6
Continuous
 62
     7
370
    25
100
AcDbLine
 10
98.5721703094
 20
1.8996959263
 30
0.0
 11
104.0635365174
 21
7.877701629
 31
0.0
  0
ARC
  5
C0
330
1F
100
AcDbEntity
  8
0
  6
Continuous
 62
     7
370
    25
100
AcDbCircle
 10
99.3086166645
 20
1.2231999795
 30
0.0
 40
1.000000000000002
100
AcDbArc
 50
137.429572918
 51
270.0
  0
LINE
  5
C1
330
1F
100
AcDbEntity
  8
0
  6
Continuous
 62
     7
370
    25
100
AcDbLine
 10
94.8459577584
 20
2.7900244567
 30
0.0
 11
94.8459577584
 21
8.7680301592
 31
0.0
  0
ARC
  5
C2
330
1F
100
AcDbEntity
  8
0
  6
Continuous
 62
     7
370
    25
100
AcDbCircle
 10
95.8459577584
 20
2.7900244567
 30
0.0
 40
1.0
100
AcDbArc
 50
180.0
 51
317.4295729201
  0
LINE
  5
C3
330
1F
100
AcDbEntity
  8
0
  6
Continuous
 62
     7
370
    25
100
AcDbLine
 10
102.0737703209
 20
8.0915342124
 30
0.0
 11
96.5824041135
 21
2.1135285099
 31
0.0
  0
ARC
  5
C4
330
1F
100
AcDbEntity
  8
0
  6
Continuous
 62
     7
370
    25
100
AcDbCircle
 10
101.3373239659
 20
8.7680301592
 30
0.0
 40
1.0
100
AcDbArc
 50
317.4295729201
 51
90.0
  0
LINE
  5
C5
330
1F
100
AcDbEntity
  8
0
  6
Continuous
 62
     7
370
    25
100
AcDbLine
 10
95.8459577584
 20
9.7680301592
 30
0.0
 11
101.3373239659
 21
9.7680301592
 31
0.0
  0
ARC
  5
C6
330
1F
100
AcDbEntity
  8
0
  6
Continuous
 62
     7
370
    25
100
AcDbCircle
 10
95.8459577584
 20
8.7680301592
 30
0.0
 40
1.0
100
AcDbArc
 50
90.0
 51
180.0
  0
LINE
  5
C7
330
1F
100
AcDbEntity
  8
0
  6
Continuous
 62
     7
370
    25
100
AcDbLine
 10
90.7266515648
 20
2.0968780924
 30
0.0
 11
85.1815702849
 21
8.0888209164
 31
0.0
  0
ARC
  5
C8
330
1F
100
AcDbEntity
  8
0
  6
Continuous
 62
     7
370
    25
100
AcDbCircle
 10
91.4605962525
 20
2.7760873352
 30
0.0
 40
1.0
100
AcDbArc
 50
222.7818813438
 51
0.0
  0
LINE
  5
C9
330
1F
100
AcDbEntity
  8
0
  6
Continuous
 62
     7
370
    25
100
AcDbLine
 10
92.4605962525
 20
8.7680301592
 30
0.0
 11
92.4605962525
 21
2.7760873352
 31
0.0
  0
ARC
  5
CA
330
1F
100
AcDbEntity
  8
0
  6
Continuous
 62
     7
370
    25
100
AcDbCircle
 10
91.4605962525
 20
8.7680301592
 30
0.0
 40
1.0
100
AcDbArc
 50
0.0
 51
90.0
  0
LINE
  5
CB
330
1F
100
AcDbEntity
  8
0
  6
Continuous
 62
     7
370
    25
100
AcDbLine
 10
85.9155149726
 20
9.7680301592
 30
0.0
 11
91.4605962525
 21
9.7680301592
 31
0.0
  0
ARC
  5
CC
330
1F
100
AcDbEntity
  8
0
  6
Continuous
 62
     7
370
    25
100
AcDbCircle
 10
85.9155149726
 20
8.7680301592
 30
0.0
 40
0.9999999999999982
100
AcDbArc
 50
90.0
 51
222.7818813438
  0
SPLINE
  5
CD
330
1F
100
AcDbEntity
  8
0
  6
Continuous
 62
     7
370
    25
100
AcDbSpline
210
0.0
220
0.0
230
1.0
 70
     8
 71
     3
 72
     9
 73
     5
 74
     0
 42
0.00000001
 43
0.00000001
 40
0.0
 40
0.0
 40
0.0
 40
0.0
 40
0.5
 40
1.0
 40
1.0
 40
1.0
 40
1.0
 10
40.45199962341066
 20
-2.321780467778726
 30
0.0
 10
40.42975709309366
 20
-2.322505231834101
 30
0.0
 10
40.38525432935212
 20
-2.323592738406186
 30
0.0
 10
40.34073385115067
 20
-2.323955336780851
 30
0.0
 10
40.31847361185411
 20
-2.323955336780851
 30
0.0
  0
ARC
  5
CE
330
1F
100
AcDbEntity
  8
0
  6
Continuous
 62
     7
370
    25
100
AcDbCircle
 10
40.585525635
 20
1.7760446632
 30
0.0
 40
4.099999999999914
100
AcDbArc
 50
268.1337000118
 51
91.8662999881
  0
SPLINE
  5
CF
330
1F
100
AcDbEntity
  8
0
  6
Continuous
 62
     7
370
    25
100
AcDbSpline
210
0.0
220
0.0
230
1.0
 70
     8
 71
     3
 72
     9
 73
     5
 74
     0
 42
0.00000001
 43
0.00000001
 40
0.0
 40
0.0
 40
0.0
 40
0.0
 40
0.5
 40
1.0
 40
1.0
 40
1.0
 40
1.0
 10
40.31847361185395
 20
5.876044663219139
 30
0.0
 10
40.34073385115094
 20
5.876044663219139
 30
0.0
 10
40.38525432974434
 20
5.875682064825342
 30
0.0
 10
40.42975709309562
 20
5.87459455827234
 30
0.0
 10
40.45199962341304
 20
5.873869794216937
 30
0.0
  0
SPLINE
  5
D0
330
1F
100
AcDbEntity
  8
0
  6
Continuous
 62
     7
370
    25
100
AcDbSpline
210
0.0
220
0.0
230
1.0
 70
     8
 71
     3
 72
    10
 73
     6
 74
     0
 42
0.00000001
 43
0.00000001
 40
0.0
 40
0.0
 40
0.0
 40
0.0
 40
0.5000000000000001
 40
0.5000000000000001
 40
1.0
 40
1.0
 40
1.0
 40
1.0
 10
40.31847361185395
 20
-2.323955336780851
 30
0.0
 10
37.58514027852061
 20
-2.323955336780851
 30
0.0
 10
36.21847361185395
 20
0.4093779965524793
 30
0.0
 10
36.21847361185395
 20
3.142711329885808
 30
0.0
 10
37.5851402785206
 20
5.876044663219134
 30
0.0
 10
40.31847361185393
 20
5.876044663219139
 30
0.0
  0
ENDSEC
  0
SECTION
  2
OBJECTS
  0
DICTIONARY
  5
C
330
0
100
AcDbDictionary
281
     1
  3
ACAD_GROUP
350
D
  3
ACAD_LAYOUT
350
1A
  3
ACAD_MLINESTYLE
350
17
  3
ACAD_PLOTSETTINGS
350
19
  3
ACAD_PLOTSTYLENAME
350
E
  3
ACAD_SCALELIST
350
47
  3
DWGPROPS
350
D1
  0
DICTIONARY
  5
D
102
{ACAD_REACTORS
330
C
102
}
330
C
100
AcDbDictionary
281
     1
  0
DICTIONARY
  5
1A
102
{ACAD_REACTORS
330
C
102
}
330
C
100
AcDbDictionary
281
     1
  3
Layout1
350
1E
  3
Layout2
350
26
  3
Model
350
22
  0
DICTIONARY
  5
17
102
{ACAD_REACTORS
330
C
102
}
330
C
100
AcDbDictionary
281
     1
  3
Standard
350
18
  0
DICTIONARY
  5
19
102
{ACAD_REACTORS
330
C
102
}
330
C
100
AcDbDictionary
281
     1
  0
ACDBDICTIONARYWDFLT
  5
E
102
{ACAD_REACTORS
330
C
102
}
330
C
100
AcDbDictionary
281
     1
  3
Normal
350
F
100
AcDbDictionaryWithDefault
340
F
  0
DICTIONARY
  5
47
102
{ACAD_REACTORS
330
C
102
}
330
C
100
AcDbDictionary
281
     1
  3
A0
350
48
  3
A1
350
49
  3
A2
350
4A
  3
A3
350
4B
  3
A4
350
4C
  3
A5
350
4D
  3
A6
350
4E
  3
A7
350
4F
  3
A8
350
50
  3
A9
350
51
  3
B0
350
52
  3
B1
350
53
  3
B2
350
54
  3
B3
350
55
  3
B4
350
56
  3
B5
350
57
  3
B6
350
58
  0
XRECORD
  5
D1
102
{ACAD_REACTORS
330
C
102
}
330
C
100
AcDbXrecord
280
     1
  1
DWGPROPS COOKIE
  2

  3

  4

  6

  7

  8
CX_in_command
  9

300
=
301
=
302
=
303
=
304
=
305
=
306
=
307
=
308
=
309
=
 40
0.0
 41
2461081.383607766
 42
2461081.38401022
  1

 90
        0
  0
LAYOUT
  5
1E
102
{ACAD_REACTORS
330
1A
102
}
330
1A
100
AcDbPlotSettings
  1

  2
none_device
  4

  6

 40
0.0
 41
0.0
 42
0.0
 43
0.0
 44
0.0
 45
0.0
 46
0.0
 47
0.0
 48
0.0
 49
0.0
140
0.0
141
0.0
142
1.0
143
1.0
 70
   688
 72
     1
 73
     0
 74
     5
  7

 75
    16
147
1.0
148
0.0
149
0.0
100
AcDbLayout
  1
Layout1
 70
     1
 71
     1
 10
0.0
 20
0.0
 11
420.0
 21
297.0
 12
0.0
 22
0.0
 32
0.0
 14
1.0000000000E+20
 24
1.0000000000E+20
 34
1.0000000000E+20
 15
-1.0000000000E+20
 25
-1.0000000000E+20
 35
-1.0000000000E+20
146
0.0
 13
0.0
 23
0.0
 33
0.0
 16
1.0
 26
0.0
 36
0.0
 17
0.0
 27
1.0
 37
0.0
 76
     0
330
1B
  0
LAYOUT
  5
26
102
{ACAD_REACTORS
330
1A
102
}
330
1A
100
AcDbPlotSettings
  1

  2
none_device
  4

  6

 40
0.0
 41
0.0
 42
0.0
 43
0.0
 44
0.0
 45
0.0
 46
0.0
 47
0.0
 48
0.0
 49
0.0
140
0.0
141
0.0
142
1.0
143
1.0
 70
   688
 72
     1
 73
     0
 74
     5
  7

 75
    16
147
1.0
148
0.0
149
0.0
100
AcDbLayout
  1
Layout2
 70
     1
 71
     2
 10
0.0
 20
0.0
 11
0.0
 21
0.0
 12
0.0
 22
0.0
 32
0.0
 14
0.0
 24
0.0
 34
0.0
 15
0.0
 25
0.0
 35
0.0
146
0.0
 13
0.0
 23
0.0
 33
0.0
 16
1.0
 26
0.0
 36
0.0
 17
0.0
 27
1.0
 37
0.0
 76
     0
330
23
  0
LAYOUT
  5
22
102
{ACAD_REACTORS
330
1A
102
}
330
1A
100
AcDbPlotSettings
  1

  2
none_device
  4
ANSI_A_(11.00_x_8.50_Inches)
  6

 40
6.35
 41
19.05
 42
6.35000508
 43
19.05000254
 44
279.4
 45
215.9
 46
-53.1304442622
 47
83.0731944956
 48
0.0
 49
0.0
140
0.0
141
0.0
142
0.0892203655
143
1.0
 70
  1696
 72
     0
 73
     0
 74
     0
  7

 75
     0
147
0.0179189148
148
-1300.4909072572
149
0.0
100
AcDbLayout
  1
Model
 70
     1
 71
     0
 10
0.0
 20
0.0
 11
420.0
 21
297.0
 12
0.0
 22
0.0
 32
0.0
 14
21.2591560588
 24
-10.0000001108
 34
0.0
 15
143.3164905827
 25
15.142362848
 35
0.0
146
0.0
 13
0.0
 23
0.0
 33
0.0
 16
1.0
 26
0.0
 36
0.0
 17
0.0
 27
1.0
 37
0.0
 76
     0
330
1F
331
29
  0
MLINESTYLE
  5
18
102
{ACAD_REACTORS
330
17
102
}
330
17
100
AcDbMlineStyle
  2
Standard
 70
     0
  3

 62
   256
 51
90.0
 52
90.0
 71
     2
 49
0.5
 62
   256
  6
BYLAYER
 49
-0.5
 62
   256
  6
BYLAYER
  0
ACDBPLACEHOLDER
  5
F
102
{ACAD_REACTORS
330
E
102
}
330
E
  0
SCALE
  5
48
102
{ACAD_REACTORS
330
47
102
}
330
47
100
AcDbScale
 70
     0
300
1:1
140
1.0
141
1.0
290
     1
  0
SCALE
  5
49
102
{ACAD_REACTORS
330
47
102
}
330
47
100
AcDbScale
 70
     0
300
1:2
140
1.0
141
2.0
290
     0
  0
SCALE
  5
4A
102
{ACAD_REACTORS
330
47
102
}
330
47
100
AcDbScale
 70
     0
300
1:4
140
1.0
141
4.0
290
     0
  0
SCALE
  5
4B
102
{ACAD_REACTORS
330
47
102
}
330
47
100
AcDbScale
 70
     0
300
1:5
140
1.0
141
5.0
290
     0
  0
SCALE
  5
4C
102
{ACAD_REACTORS
330
47
102
}
330
47
100
AcDbScale
 70
     0
300
1:8
140
1.0
141
8.0
290
     0
  0
SCALE
  5
4D
102
{ACAD_REACTORS
330
47
102
}
330
47
100
AcDbScale
 70
     0
300
1:10
140
1.0
141
10.0
290
     0
  0
SCALE
  5
4E
102
{ACAD_REACTORS
330
47
102
}
330
47
100
AcDbScale
 70
     0
300
1:16
140
1.0
141
16.0
290
     0
  0
SCALE
  5
4F
102
{ACAD_REACTORS
330
47
102
}
330
47
100
AcDbScale
 70
     0
300
1:20
140
1.0
141
20.0
290
     0
  0
SCALE
  5
50
102
{ACAD_REACTORS
330
47
102
}
330
47
100
AcDbScale
 70
     0
300
1:30
140
1.0
141
30.0
290
     0
  0
SCALE
  5
51
102
{ACAD_REACTORS
330
47
102
}
330
47
100
AcDbScale
 70
     0
300
1:40
140
1.0
141
40.0
290
     0
  0
SCALE
  5
52
102
{ACAD_REACTORS
330
47
102
}
330
47
100
AcDbScale
 70
     0
300
1:50
140
1.0
141
50.0
290
     0
  0
SCALE
  5
53
102
{ACAD_REACTORS
330
47
102
}
330
47
100
AcDbScale
 70
     0
300
1:100
140
1.0
141
100.0
290
     0
  0
SCALE
  5
54
102
{ACAD_REACTORS
330
47
102
}
330
47
100
AcDbScale
 70
     0
300
2:1
140
2.0
141
1.0
290
     0
  0
SCALE
  5
55
102
{ACAD_REACTORS
330
47
102
}
330
47
100
AcDbScale
 70
     0
300
4:1
140
4.0
141
1.0
290
     0
  0
SCALE
  5
56
102
{ACAD_REACTORS
330
47
102
}
330
47
100
AcDbScale
 70
     0
300
8:1
140
8.0
141
1.0
290
     0
  0
SCALE
  5
57
102
{ACAD_REACTORS
330
47
102
}
330
47
100
AcDbScale
 70
     0
300
10:1
140
10.0
141
1.0
290
     0
  0
SCALE
  5
58
102
{ACAD_REACTORS
330
47
102
}
330
47
100
AcDbScale
 70
     0
300
100:1
140
100.0
141
1.0
290
     0
  0
ENDSEC
  0
EOF
