  0
SECTION
  2
HEADER
  9
$ACADVER
  1
AC1015
  9
$ACADMAINTVER
 70
     6
  9
$DWGCODEPAGE
  3
ANSI_936
  9
$INSBASE
 10
0.0
 20
0.0
 30
0.0
  9
$EXTMIN
 10
-519.0
 20
-10.0
 30
0.0
  9
$EXTMAX
 10
623.0
 20
11.9616019211
 30
0.0
  9
$LIMMIN
 10
0.0
 20
0.0
  9
$LIMMAX
 10
420.0
 20
297.0
  9
$ORTHOMODE
 70
     0
  9
$REGENMODE
 70
     1
  9
$FILLMODE
 70
     1
  9
$QTEXTMODE
 70
     0
  9
$MIRRTEXT
 70
     1
  9
$LTSCALE
 40
1.0
  9
$ATTMODE
 70
     1
  9
$TEXTSIZE
 40
3.5
  9
$TRACEWID
 40
1.0
  9
$TEXTSTYLE
  7
Standard
  9
$CLAYER
  8
0
  9
$CELTYPE
  6
ByLayer
  9
$CECOLOR
 62
   256
  9
$CELTSCALE
 40
1.0
  9
$DISPSILH
 70
     0
  9
$DIMSCALE
 40
1.0
  9
$DIMASZ
 40
3.556
  9
$DIMEXO
 40
0.0
  9
$DIMDLI
 40
3.75
  9
$DIMRND
 40
0.0
  9
$DIMDLE
 40
0.0
  9
$DIMEXE
 40
1.0
  9
$DIMTP
 40
0.0
  9
$DIMTM
 40
0.0
  9
$DIMTXT
 40
3.5
  9
$DIMCEN
 40
2.5
  9
$DIMTSZ
 40
0.0
  9
$DIMTOL
 70
     0
  9
$DIMLIM
 70
     0
  9
$DIMTIH
 70
     1
  9
$DIMTOH
 70
     1
  9
$DIMSE1
 70
     0
  9
$DIMSE2
 70
     0
  9
$DIMTAD
 70
     1
  9
$DIMZIN
 70
     1
  9
$DIMBLK
  1

  9
$DIMASO
 70
     1
  9
$DIMSHO
 70
     1
  9
$DIMPOST
  1

  9
$DIMAPOST
  1

  9
$DIMALT
 70
     0
  9
$DIMALTD
 70
     3
  9
$DIMALTF
 40
0.0393700787
  9
$DIMLFAC
 40
1.0
  9
$DIMTOFL
 70
     1
  9
$DIMTVP
 40
0.0
  9
$DIMTIX
 70
     0
  9
$DIMSOXD
 70
     0
  9
$DIMSAH
 70
     0
  9
$DIMBLK1
  1

  9
$DIMBLK2
  1

  9
$DIMSTYLE
  2
ISO-25
  9
$DIMCLRD
 70
     0
  9
$DIMCLRE
 70
     0
  9
$DIMCLRT
 70
     0
  9
$DIMTFAC
 40
1.0
  9
$DIMGAP
 40
1.524
  9
$DIMJUST
 70
     0
  9
$DIMSD1
 70
     0
  9
$DIMSD2
 70
     0
  9
$DIMTOLJ
 70
     0
  9
$DIMTZIN
 70
     1
  9
$DIMALTZ
 70
     0
  9
$DIMALTTZ
 70
     0
  9
$DIMUPT
 70
     0
  9
$DIMDEC
 70
     2
  9
$DIMTDEC
 70
     2
  9
$DIMALTU
 70
     2
  9
$DIMALTTD
 70
     3
  9
$DIMTXSTY
  7
Standard
  9
$DIMAUNIT
 70
     0
  9
$DIMADEC
 70
     2
  9
$DIMALTRND
 40
0.0
  9
$DIMAZIN
 70
     0
  9
$DIMDSEP
 70
    44
  9
$DIMATFIT
 70
     3
  9
$DIMFRAC
 70
     0
  9
$DIMLDRBLK
  1

  9
$DIMLUNIT
 70
     2
  9
$DIMLWD
 70
    -2
  9
$DIMLWE
 70
    -2
  9
$DIMTMOVE
 70
     0
  9
$LUNITS
 70
     2
  9
$LUPREC
 70
     2
  9
$SKETCHINC
 40
1.0
  9
$FILLETRAD
 40
0.0
  9
$AUNITS
 70
     0
  9
$AUPREC
 70
     2
  9
$MENU
  1
.
  9
$ELEVATION
 40
0.0
  9
$PELEVATION
 40
0.0
  9
$THICKNESS
 40
0.0
  9
$LIMCHECK
 70
     0
  9
$CHAMFERA
 40
0.0
  9
$CHAMFERB
 40
0.0
  9
$CHAMFERC
 40
0.0
  9
$CHAMFERD
 40
0.0
  9
$SKPOLY
 70
     0
  9
$TDCREATE
 40
2461082.395944931
  9
$TDUCREATE
 40
2461082.062611597
  9
$TDUPDATE
 40
2461082.396192037
  9
$TDUUPDATE
 40
2461082.062858704
  9
$TDINDWG
 40
0.0000000116
  9
$TDUSRTIMER
 40
0.0000000116
  9
$USRTIMER
 70
     1
  9
$ANGBASE
 50
0.0
  9
$ANGDIR
 70
     0
  9
$PDMODE
 70
     0
  9
$PDSIZE
 40
-1.0
  9
$PLINEWID
 40
0.0
  9
$SPLFRAME
 70
     0
  9
$SPLINETYPE
 70
     6
  9
$SPLINESEGS
 70
     8
  9
$HANDSEED
  5
14C
  9
$SURFTAB1
 70
     6
  9
$SURFTAB2
 70
     6
  9
$SURFTYPE
 70
     6
  9
$SURFU
 70
     6
  9
$SURFV
 70
     6
  9
$UCSBASE
  2

  9
$UCSNAME
  2

  9
$UCSORG
 10
0.0
 20
0.0
 30
0.0
  9
$UCSXDIR
 10
1.0
 20
0.0
 30
0.0
  9
$UCSYDIR
 10
0.0
 20
1.0
 30
0.0
  9
$UCSORTHOREF
  2

  9
$UCSORTHOVIEW
 70
     0
  9
$UCSORGTOP
 10
0.0
 20
0.0
 30
0.0
  9
$UCSORGBOTTOM
 10
0.0
 20
0.0
 30
0.0
  9
$UCSORGLEFT
 10
0.0
 20
0.0
 30
0.0
  9
$UCSORGRIGHT
 10
0.0
 20
0.0
 30
0.0
  9
$UCSORGFRONT
 10
0.0
 20
0.0
 30
0.0
  9
$UCSORGBACK
 10
0.0
 20
0.0
 30
0.0
  9
$PUCSBASE
  2

  9
$PUCSNAME
  2

  9
$PUCSORG
 10
0.0
 20
0.0
 30
0.0
  9
$PUCSXDIR
 10
1.0
 20
0.0
 30
0.0
  9
$PUCSYDIR
 10
0.0
 20
1.0
 30
0.0
  9
$PUCSORTHOREF
  2

  9
$PUCSORTHOVIEW
 70
     0
  9
$PUCSORGTOP
 10
0.0
 20
0.0
 30
0.0
  9
$PUCSORGBOTTOM
 10
0.0
 20
0.0
 30
0.0
  9
$PUCSORGLEFT
 10
0.0
 20
0.0
 30
0.0
  9
$PUCSORGRIGHT
 10
0.0
 20
0.0
 30
0.0
  9
$PUCSORGFRONT
 10
0.0
 20
0.0
 30
0.0
  9
$PUCSORGBACK
 10
0.0
 20
0.0
 30
0.0
  9
$USERI1
 70
     0
  9
$USERI2
 70
     0
  9
$USERI3
 70
     0
  9
$USERI4
 70
     0
  9
$USERI5
 70
     0
  9
$USERR1
 40
0.0
  9
$USERR2
 40
0.0
  9
$USERR3
 40
0.0
  9
$USERR4
 40
0.0
  9
$USERR5
 40
0.0
  9
$WORLDVIEW
 70
     1
  9
$SHADEDGE
 70
     3
  9
$SHADEDIF
 70
    70
  9
$TILEMODE
 70
     1
  9
$MAXACTVP
 70
    64
  9
$PINSBASE
 10
0.0
 20
0.0
 30
0.0
  9
$PLIMCHECK
 70
     0
  9
$PEXTMIN
 10
1.0000000000E+20
 20
1.0000000000E+20
 30
1.0000000000E+20
  9
$PEXTMAX
 10
-1.0000000000E+20
 20
-1.0000000000E+20
 30
-1.0000000000E+20
  9
$PLIMMIN
 10
0.0
 20
0.0
  9
$PLIMMAX
 10
420.0
 20
297.0
  9
$UNITMODE
 70
     0
  9
$VISRETAIN
 70
     1
  9
$PLINEGEN
 70
     0
  9
$PSLTSCALE
 70
     1
  9
$TREEDEPTH
 70
  3020
  9
$CMLSTYLE
  2
Standard
  9
$CMLJUST
 70
     0
  9
$CMLSCALE
 40
20.0
  9
$PROXYGRAPHICS
 70
     1
  9
$MEASUREMENT
 70
     1
  9
$CELWEIGHT
370
    -1
  9
$ENDCAPS
280
     0
  9
$JOINSTYLE
280
     0
  9
$LWDISPLAY
290
     1
  9
$INSUNITS
 70
     4
  9
$HYPERLINKBASE
  1

  9
$STYLESHEET
  1

  9
$XEDIT
290
     1
  9
$CEPSNTYPE
380
     0
  9
$PSTYLEMODE
290
     1
  9
$FINGERPRINTGUID
  2
{f28bad5e-4253-4ed1-b117-1264b81e116b}
  9
$VERSIONGUID
  2
{FAEB1C32-E019-11D5-929B-00C0DF256EC4}
  9
$EXTNAMES
290
     1
  9
$PSVPSCALE
 40
0.0
  9
$OLESTARTUP
290
     0
  0
ENDSEC
  0
SECTION
  2
CLASSES
  0
CLASS
  1
ACDBDICTIONARYWDFLT
  2
AcDbDictionaryWithDefault
  3
ObjectDBX Classes
 90
        0
280
     0
281
     0
  0
CLASS
  1
VISUALSTYLE
  2
AcDbVisualStyle
  3
ObjectDBX Classes
 90
     4095
280
     0
281
     0
  0
CLASS
  1
MATERIAL
  2
AcDbMaterial
  3
ObjectDBX Classes
 90
     1153
280
     0
281
     0
  0
CLASS
  1
SCALE
  2
AcDbScale
  3
ObjectDBX Classes
 90
     1153
280
     0
281
     0
  0
CLASS
  1
TABLESTYLE
  2
AcDbTableStyle
  3
ObjectDBX Classes
 90
     4095
280
     0
281
     0
  0
CLASS
  1
MLEADERSTYLE
  2
AcDbMLeaderStyle
  3
ACDB_MLEADERSTYLE_CLASS
 90
     4095
280
     0
281
     0
  0
CLASS
  1
SUN
  2
AcDbSun
  3
SCENEOE
 90
     1153
280
     0
281
     0
  0
CLASS
  1
ACDBPLACEHOLDER
  2
AcDbPlaceHolder
  3
ObjectDBX Classes
 90
        0
280
     0
281
     0
  0
CLASS
  1
LAYOUT
  2
AcDbLayout
  3
ObjectDBX Classes
 90
        0
280
     0
281
     0
  0
ENDSEC
  0
SECTION
  2
TABLES
  0
TABLE
  2
VPORT
  5
8
330
0
100
AcDbSymbolTable
 70
     1
  0
VPORT
  5
29
330
8
100
AcDbSymbolTableRecord
100
AcDbViewportTableRecord
  2
*Active
 70
     0
 10
0.0
 20
0.0
 11
1.0
 21
1.0
 12
52.0
 22
0.9808009606
 13
0.0
 23
0.0
 14
10.0
 24
10.0
 15
10.0
 25
10.0
 16
0.0
 26
0.0
 36
1.0
 17
0.0
 27
0.0
 37
0.0
 40
22.4008339595
 41
51.9998497424
 42
50.0
 43
0.0
 44
0.0
 50
0.0
 51
0.0
 71
     0
 72
   100
 73
     1
 74
     3
 75
     0
 76
     0
 77
     0
 78
     0
281
     0
 65
     1
110
0.0
120
0.0
130
0.0
111
1.0
121
0.0
131
0.0
112
0.0
122
1.0
132
0.0
 79
     0
146
0.0
  0
ENDTAB
  0
TABLE
  2
LTYPE
  5
5
330
0
100
AcDbSymbolTable
 70
     6
  0
LTYPE
  5
14
330
5
100
AcDbSymbolTableRecord
100
AcDbLinetypeTableRecord
  2
ByBlock
 70
     0
  3

 72
    65
 73
     0
 40
0.0
  0
LTYPE
  5
15
330
5
100
AcDbSymbolTableRecord
100
AcDbLinetypeTableRecord
  2
ByLayer
 70
     0
  3

 72
    65
 73
     0
 40
0.0
  0
LTYPE
  5
16
330
5
100
AcDbSymbolTableRecord
100
AcDbLinetypeTableRecord
  2
Continuous
 70
     0
  3
Solid line
 72
    65
 73
     0
 40
0.0
  0
LTYPE
  5
5E
330
5
100
AcDbSymbolTableRecord
100
AcDbLinetypeTableRecord
  2
HIDDEN
 70
     0
  3
Hidden __ __ __ __ __ __ __ __ __ __ __ __ __ __
 72
    65
 73
     2
 40
1.905
 49
1.27
 74
     0
 49
-0.635
 74
     0
  0
LTYPE
  5
5F
330
5
100
AcDbSymbolTableRecord
100
AcDbLinetypeTableRecord
  2
PHANTOM
 70
     0
  3
Phantom ______  __  __  ______  __  __  ______
 72
    65
 73
     6
 40
12.7
 49
6.35
 74
     0
 49
-1.27
 74
     0
 49
1.27
 74
     0
 49
-1.27
 74
     0
 49
1.27
 74
     0
 49
-1.27
 74
     0
  0
LTYPE
  5
60
330
5
100
AcDbSymbolTableRecord
100
AcDbLinetypeTableRecord
  2
CENTER
 70
     0
  3
Center ____ _ ____ _ ____ _ ____ _ ____ _ ____
 72
    65
 73
     4
 40
10.16
 49
6.35
 74
     0
 49
-1.27
 74
     0
 49
1.27
 74
     0
 49
-1.27
 74
     0
  0
LTYPE
  5
61
330
5
100
AcDbSymbolTableRecord
100
AcDbLinetypeTableRecord
  2
CENTERX2
 70
     0
  3
Center (2x) ________  __  ________  __  _____
 72
    65
 73
     4
 40
20.32
 49
12.7
 74
     0
 49
-2.54
 74
     0
 49
2.54
 74
     0
 49
-2.54
 74
     0
  0
LTYPE
  5
62
330
5
100
AcDbSymbolTableRecord
100
AcDbLinetypeTableRecord
  2
DOT2
 70
     0
  3
Dot (.5x) ........................................
 72
    65
 73
     2
 40
0.635
 49
0.0
 74
     0
 49
-0.635
 74
     0
  0
ENDTAB
  0
TABLE
  2
LAYER
  5
2
330
0
100
AcDbSymbolTable
 70
     1
  0
LAYER
  5
10
330
2
100
AcDbSymbolTableRecord
100
AcDbLayerTableRecord
  2
0
 70
     0
 62
     7
  6
Continuous
370
    -3
390
F
  0
ENDTAB
  0
TABLE
  2
STYLE
  5
3
330
0
100
AcDbSymbolTable
 70
     1
  0
STYLE
  5
11
330
3
100
AcDbSymbolTableRecord
100
AcDbTextStyleTableRecord
  2
Standard
 70
     0
 40
0.0
 41
1.0
 50
0.0
 71
     0
 42
3.5
  3
txt
  4

  0
ENDTAB
  0
TABLE
  2
VIEW
  5
6
330
0
100
AcDbSymbolTable
 70
     0
  0
ENDTAB
  0
TABLE
  2
UCS
  5
7
330
0
100
AcDbSymbolTable
 70
     0
  0
ENDTAB
  0
TABLE
  2
APPID
  5
9
330
0
100
AcDbSymbolTable
 70
     1
  0
APPID
  5
12
330
9
100
AcDbSymbolTableRecord
100
AcDbRegAppTableRecord
  2
ACAD
 70
     0
  0
ENDTAB
  0
TABLE
  2
DIMSTYLE
  5
A
330
0
100
AcDbSymbolTable
 70
     1
100
AcDbDimStyleTable
  0
DIMSTYLE
105
27
330
A
100
AcDbSymbolTableRecord
100
AcDbDimStyleTableRecord
  2
ISO-25
 70
     0
 41
2.5
 42
0.625
 43
3.75
 44
1.25
 73
     0
 74
     0
 77
     1
 78
     8
140
2.5
141
2.5
143
0.0393700787
147
0.625
171
     3
172
     1
178
     0
271
     2
272
     2
274
     3
278
    44
283
     0
284
     8
340
11
  0
ENDTAB
  0
TABLE
  2
BLOCK_RECORD
  5
1
330
0
100
AcDbSymbolTable
 70
     1
  0
BLOCK_RECORD
  5
1F
330
1
100
AcDbSymbolTableRecord
100
AcDbBlockTableRecord
  2
*Model_Space
340
22
  0
BLOCK_RECORD
  5
1B
330
1
100
AcDbSymbolTableRecord
100
AcDbBlockTableRecord
  2
*Paper_Space
340
1E
  0
BLOCK_RECORD
  5
23
330
1
100
AcDbSymbolTableRecord
100
AcDbBlockTableRecord
  2
*Paper_Space0
340
26
  0
ENDTAB
  0
ENDSEC
  0
SECTION
  2
BLOCKS
  0
BLOCK
  5
20
330
1F
100
AcDbEntity
  8
0
100
AcDbBlockBegin
  2
*Model_Space
 70
     0
 10
0.0
 20
0.0
 30
0.0
  3
*Model_Space
  1

  0
ENDBLK
  5
21
330
1F
100
AcDbEntity
  8
0
100
AcDbBlockEnd
  0
BLOCK
  5
1C
330
1B
100
AcDbEntity
 67
     1
  8
0
100
AcDbBlockBegin
  2
*Paper_Space
 70
     0
 10
0.0
 20
0.0
 30
0.0
  3
*Paper_Space
  1

  0
ENDBLK
  5
1D
330
1B
100
AcDbEntity
 67
     1
  8
0
100
AcDbBlockEnd
  0
BLOCK
  5
24
330
23
100
AcDbEntity
  8
0
100
AcDbBlockBegin
  2
*Paper_Space0
 70
     0
 10
0.0
 20
0.0
 30
0.0
  3
*Paper_Space0
  1

  0
ENDBLK
  5
25
330
23
100
AcDbEntity
  8
0
100
AcDbBlockEnd
  0
ENDSEC
  0
SECTION
  2
ENTITIES
  0
CIRCLE
  5
63
330
1F
100
AcDbEntity
  8
0
  6
Continuous
 62
     7
370
    25
100
AcDbCircle
 10
-191.8670517704
 20
4.5643014218
 30
0.0
 40
2.0
  0
CIRCLE
  5
64
330
1F
100
AcDbEntity
  8
0
  6
Continuous
 62
     7
370
    25
100
AcDbCircle
 10
477.067344848
 20
4.2543498977
 30
0.0
 40
2.0
  0
CIRCLE
  5
65
330
1F
100
AcDbEntity
  8
0
  6
Continuous
 62
     7
370
    25
100
AcDbCircle
 10
-256.7995259226
 20
4.5643014218
 30
0.0
 40
2.0
  0
CIRCLE
  5
66
330
1F
100
AcDbEntity
  8
0
  6
Continuous
 62
     7
370
    25
100
AcDbCircle
 10
419.2913251721
 20
4.3940166714
 30
0.0
 40
2.0
  0
CIRCLE
  5
67
330
1F
100
AcDbEntity
  8
0
  6
Continuous
 62
     7
370
    25
100
AcDbCircle
 10
-75.1437424509
 20
4.7738126864
 30
0.0
 40
2.0
  0
CIRCLE
  5
68
330
1F
100
AcDbEntity
  8
0
  6
Continuous
 62
     7
370
    25
100
AcDbCircle
 10
599.6399777227
 20
4.0694359192
 30
0.0
 40
2.0
  0
CIRCLE
  5
69
330
1F
100
AcDbEntity
  8
0
  6
Continuous
 62
     7
370
    25
100
AcDbCircle
 10
-131.1702152575
 20
4.6391265469
 30
0.0
 40
2.0
  0
CIRCLE
  5
6A
330
1F
100
AcDbEntity
  8
0
  6
Continuous
 62
     7
370
    25
100
AcDbCircle
 10
545.4043122585
 20
4.0694359192
 30
0.0
 40
2.0
  0
CIRCLE
  5
6B
330
1F
100
AcDbEntity
  8
0
  6
Continuous
 62
     7
370
    25
100
AcDbCircle
 10
235.1702152575
 20
4.6391265469
 30
0.0
 40
2.0
  0
CIRCLE
  5
6C
330
1F
100
AcDbEntity
  8
0
  6
Continuous
 62
     7
370
    25
100
AcDbCircle
 10
-441.4043122585
 20
4.0694359192
 30
0.0
 40
2.0
  0
CIRCLE
  5
6D
330
1F
100
AcDbEntity
  8
0
  6
Continuous
 62
     7
370
    25
100
AcDbCircle
 10
179.1437424509
 20
4.7738126864
 30
0.0
 40
2.0
  0
CIRCLE
  5
6E
330
1F
100
AcDbEntity
  8
0
  6
Continuous
 62
     7
370
    25
100
AcDbCircle
 10
-495.6399777227
 20
4.0694359192
 30
0.0
 40
2.0
  0
CIRCLE
  5
6F
330
1F
100
AcDbEntity
  8
0
  6
Continuous
 62
     7
370
    25
100
AcDbCircle
 10
-315.2913251721
 20
4.3940166714
 30
0.0
 40
2.0
  0
CIRCLE
  5
70
330
1F
100
AcDbEntity
  8
0
  6
Continuous
 62
     7
370
    25
100
AcDbCircle
 10
360.7995259226
 20
4.5643014218
 30
0.0
 40
2.0
  0
CIRCLE
  5
71
330
1F
100
AcDbEntity
  8
0
  6
Continuous
 62
     7
370
    25
100
AcDbCircle
 10
295.8670517704
 20
4.5643014218
 30
0.0
 40
2.0
  0
CIRCLE
  5
72
330
1F
100
AcDbEntity
  8
0
  6
Continuous
 62
     7
370
    25
100
AcDbCircle
 10
-373.067344848
 20
4.2543498977
 30
0.0
 40
2.0
  0
CIRCLE
  5
73
330
1F
100
AcDbEntity
  8
0
  6
Continuous
 62
     7
370
    25
100
AcDbCircle
 10
-24.8509730018
 20
4.7151926429
 30
0.0
 40
1.999999999999993
  0
CIRCLE
  5
74
330
1F
100
AcDbEntity
  8
0
  6
Continuous
 62
     7
370
    25
100
AcDbCircle
 10
128.8509730018
 20
4.7151926429
 30
0.0
 40
2.0
  0
LINE
  5
75
330
1F
100
AcDbEntity
  8
0
  6
Continuous
 62
     7
370
    25
100
AcDbLine
 10
500.2000000001
 20
-2.3016835199
 30
0.0
 11
500.2000000001
 21
-2.3848073571
 31
0.0
  0
SPLINE
  5
76
330
1F
100
AcDbEntity
  8
0
  6
Continuous
 62
     7
370
    25
100
AcDbSpline
210
0.0
220
0.0
230
1.0
 70
     8
 71
     3
 72
     8
 73
     4
 74
     0
 42
0.00000001
 43
0.00000001
 40
0.8515151519081235
 40
0.8515151519081235
 40
0.8515151519081235
 40
0.8515151519081235
 40
0.8666666666613113
 40
0.8666666666613113
 40
0.8666666666613113
 40
0.8666666666613113
 10
500.2000000257954
 20
-2.301683519879166
 30
0.0
 10
500.5333333505693
 20
-2.301696472944113
 30
0.0
 10
500.8666666753264
 20
-2.30170909845038
 30
0.0
 10
501.2000000000658
 20
-2.301721393443776
 30
0.0
  0
LINE
  5
77
330
1F
100
AcDbEntity
  8
0
  6
Continuous
 62
     7
370
    25
100
AcDbLine
 10
501.2000000001
 20
-2.3848073571
 30
0.0
 11
501.2000000001
 21
-2.3017213934
 31
0.0
  0
LINE
  5
78
330
1F
100
AcDbEntity
  8
0
  6
Continuous
 62
     7
370
    25
100
AcDbLine
 10
500.2000000001
 20
-2.3848073571
 30
0.0
 11
501.2000000001
 21
-2.3848073571
 31
0.0
  0
LINE
  5
79
330
1F
100
AcDbEntity
  8
0
  6
Continuous
 62
     7
370
    25
100
AcDbLine
 10
501.4000000001
 20
-2.3017287308
 30
0.0
 11
501.4000000001
 21
-2.3848073571
 31
0.0
  0
SPLINE
  5
7A
330
1F
100
AcDbEntity
  8
0
  6
Continuous
 62
     7
370
    25
100
AcDbSpline
210
0.0
220
0.0
230
1.0
 70
     8
 71
     3
 72
     8
 73
     4
 74
     0
 42
0.00000001
 43
0.00000001
 40
0.8696969701845383
 40
0.8696969701845383
 40
0.8696969701845383
 40
0.8696969701845383
 40
0.8848484848350977
 40
0.8848484848350977
 40
0.8848484848350977
 40
0.8848484848350977
 10
501.400000032698
 20
-2.301728730756015
 30
0.0
 10
501.7333333551725
 20
-2.301740893425988
 30
0.0
 10
502.0666666776288
 20
-2.301752724992256
 30
0.0
 10
502.4000000000659
 20
-2.301764222500629
 30
0.0
  0
LINE
  5
7B
330
1F
100
AcDbEntity
  8
0
  6
Continuous
 62
     7
370
    25
100
AcDbLine
 10
502.4000000001
 20
-2.3848073571
 30
0.0
 11
502.4000000001
 21
-2.3017642225
 31
0.0
  0
LINE
  5
7C
330
1F
100
AcDbEntity
  8
0
  6
Continuous
 62
     7
370
    25
100
AcDbLine
 10
501.4000000001
 20
-2.3848073571
 30
0.0
 11
502.4000000001
 21
-2.3848073571
 31
0.0
  0
LINE
  5
7D
330
1F
100
AcDbEntity
  8
0
  6
Continuous
 62
     7
370
    25
100
AcDbLine
 10
502.6000000001
 20
-2.3017710809
 30
0.0
 11
502.6000000001
 21
-2.3848073571
 31
0.0
  0
SPLINE
  5
7E
330
1F
100
AcDbEntity
  8
0
  6
Continuous
 62
     7
370
    25
100
AcDbSpline
210
0.0
220
0.0
230
1.0
 70
     8
 71
     3
 72
     8
 73
     4
 74
     0
 42
0.00000001
 43
0.00000001
 40
0.8878787883090068
 40
0.8878787883090068
 40
0.8878787883090068
 40
0.8878787883090068
 40
0.9030303030113879
 40
0.9030303030113879
 40
0.9030303030113879
 40
0.9030303030113879
 10
502.6000000294166
 20
-2.301771080896294
 30
0.0
 10
502.9333333529862
 20
-2.301782444663355
 30
0.0
 10
503.2666666765363
 20
-2.301793473781681
 30
0.0
 10
503.600000000066
 20
-2.301804165297079
 30
0.0
  0
LINE
  5
7F
330
1F
100
AcDbEntity
  8
0
  6
Continuous
 62
     7
370
    25
100
AcDbLine
 10
503.6000000001
 20
-2.3848073571
 30
0.0
 11
503.6000000001
 21
-2.3018041653
 31
0.0
  0
LINE
  5
80
330
1F
100
AcDbEntity
  8
0
  6
Continuous
 62
     7
370
    25
100
AcDbLine
 10
502.6000000001
 20
-2.3848073571
 30
0.0
 11
503.6000000001
 21
-2.3848073571
 31
0.0
  0
SPLINE
  5
81
330
1F
100
AcDbEntity
  8
0
  6
Continuous
 62
     7
370
    25
100
AcDbSpline
210
0.0
220
0.0
230
1.0
 70
     8
 71
     3
 72
     8
 73
     4
 74
     0
 42
0.00000001
 43
0.00000001
 40
0.0
 40
0.0
 40
0.0
 40
0.0
 40
0.8484848484898639
 40
0.8484848484898639
 40
0.8484848484898639
 40
0.8484848484898639
 10
444.0000000000002
 20
-2.296920291300518
 30
0.0
 10
462.6666665910926
 20
-2.299184932840764
 30
0.0
 10
481.3333333215032
 20
-2.300943006401089
 30
0.0
 10
500.0000000000659
 20
-2.301675708755578
 30
0.0
  0
LINE
  5
82
330
1F
100
AcDbEntity
  8
0
  6
Continuous
 62
     7
370
    25
100
AcDbLine
 10
500.0000000001
 20
-10.0
 30
0.0
 11
500.0000000001
 21
-2.3016757088
 31
0.0
  0
LINE
  5
83
330
1F
100
AcDbEntity
  8
0
  6
Continuous
 62
     7
370
    25
100
AcDbLine
 10
500.0000000001
 20
-10.0
 30
0.0
 11
504.0000000001
 21
-10.0
 31
0.0
  0
LINE
  5
84
330
1F
100
AcDbEntity
  8
0
  6
Continuous
 62
     7
370
    25
100
AcDbLine
 10
504.0000000001
 20
-10.0
 30
0.0
 11
504.0000000001
 21
-2.3848073571
 31
0.0
  0
LINE
  5
85
330
1F
100
AcDbEntity
  8
0
  6
Continuous
 62
     7
370
    25
100
AcDbLine
 10
503.8000000001
 20
-2.3848073571
 30
0.0
 11
504.0000000001
 21
-2.3848073571
 31
0.0
  0
LINE
  5
86
330
1F
100
AcDbEntity
  8
0
  6
Continuous
 62
     7
370
    25
100
AcDbLine
 10
503.8000000001
 20
-2.3018105397
 30
0.0
 11
503.8000000001
 21
-2.3848073571
 31
0.0
  0
SPLINE
  5
87
330
1F
100
AcDbEntity
  8
0
  6
Continuous
 62
     7
370
    25
100
AcDbSpline
210
0.0
220
0.0
230
1.0
 70
     8
 71
     3
 72
     8
 73
     4
 74
     0
 42
0.00000001
 43
0.00000001
 40
0.906060606281783
 40
0.906060606281783
 40
0.906060606281783
 40
0.906060606281783
 40
1.0
 40
1.0
 40
1.0
 40
1.0
 10
503.8000000159559
 20
-2.301810539671023
 30
0.0
 10
505.866666678185
 20
-2.301875989080289
 30
0.0
 10
507.9333333396197
 20
-2.301928438320511
 30
0.0
 10
510.0000000000002
 20
-2.301967183325235
 30
0.0
  0
LINE
  5
88
330
1F
100
AcDbEntity
  8
0
  6
Continuous
 62
     7
370
    25
100
AcDbLine
 10
510.0
 20
-2.3019671833
 30
0.0
 11
509.9999999986
 21
4.2543498977
 31
0.0
  0
LINE
  5
89
330
1F
100
AcDbEntity
  8
0
  6
Continuous
 62
     7
370
    25
100
AcDbLine
 10
509.9999999986
 20
4.2543498977
 30
0.0
 11
512.0
 21
4.2543498977
 31
0.0
  0
LINE
  5
8A
330
1F
100
AcDbEntity
  8
0
  6
Continuous
 62
     7
370
    25
100
AcDbLine
 10
512.0
 20
4.2543498977
 30
0.0
 11
512.0
 21
-2.3020003438
 31
0.0
  0
SPLINE
  5
8B
330
1F
100
AcDbEntity
  8
0
  6
Continuous
 62
     7
370
    25
100
AcDbSpline
210
0.0
220
0.0
230
1.0
 70
     8
 71
     3
 72
     8
 73
     4
 74
     0
 42
0.00000001
 43
0.00000001
 40
0.0
 40
0.0
 40
0.0
 40
0.0
 40
1.0
 40
1.0
 40
1.0
 40
1.0
 10
511.9999999999993
 20
-2.302000343835453
 30
0.0
 10
534.000000232586
 20
-2.302317146719004
 30
0.0
 10
556.0000002733212
 20
-2.301056333960972
 30
0.0
 10
577.9999999999999
 20
-2.297213000465823
 30
0.0
  0
LINE
  5
8C
330
1F
100
AcDbEntity
  8
0
  6
Continuous
 62
     7
370
    25
100
AcDbLine
 10
578.0
 20
-2.2972130005
 30
0.0
 11
577.9999999986
 21
4.0694359192
 31
0.0
  0
LINE
  5
8D
330
1F
100
AcDbEntity
  8
0
  6
Continuous
 62
     7
370
    25
100
AcDbLine
 10
577.9999999986
 20
4.0694359192
 30
0.0
 11
580.0
 21
4.0694359192
 31
0.0
  0
LINE
  5
8E
330
1F
100
AcDbEntity
  8
0
  6
Continuous
 62
     7
370
    25
100
AcDbLine
 10
580.0
 20
4.0694359192
 30
0.0
 11
580.0
 21
-2.2968564147
 31
0.0
  0
SPLINE
  5
8F
330
1F
100
AcDbEntity
  8
0
  6
Continuous
 62
     7
370
    25
100
AcDbSpline
210
0.0
220
0.0
230
1.0
 70
     8
 71
     3
 72
     8
 73
     4
 74
     0
 42
0.00000001
 43
0.00000001
 40
0.0
 40
0.0
 40
0.0
 40
0.0
 40
1.0
 40
1.0
 40
1.0
 40
1.0
 10
579.9999999999992
 20
-2.296856414695094
 30
0.0
 10
593.6666668012938
 20
-2.294370390205619
 30
0.0
 10
607.3333334792845
 20
-2.290870426103522
 30
0.0
 10
620.9999999999704
 20
-2.286076927288955
 30
0.0
  0
LINE
  5
90
330
1F
100
AcDbEntity
  8
0
  6
Continuous
 62
     7
370
    25
100
AcDbLine
 10
621.0
 20
-2.2860769273
 30
0.0
 11
621.0
 21
0.7139230727
 31
0.0
  0
LINE
  5
91
330
1F
100
AcDbEntity
  8
0
  6
Continuous
 62
     7
370
    25
100
AcDbLine
 10
621.0
 20
0.7139230727
 30
0.0
 11
623.0
 21
0.7139230727
 31
0.0
  0
LINE
  5
92
330
1F
100
AcDbEntity
  8
0
  6
Continuous
 62
     7
370
    25
100
AcDbLine
 10
623.0
 20
0.7139230727
 30
0.0
 11
623.0
 21
6.7139230727
 31
0.0
  0
LINE
  5
93
330
1F
100
AcDbEntity
  8
0
  6
Continuous
 62
     7
370
    25
100
AcDbLine
 10
623.0
 20
6.7139230727
 30
0.0
 11
621.0
 21
6.7139230727
 31
0.0
  0
LINE
  5
94
330
1F
100
AcDbEntity
  8
0
  6
Continuous
 62
     7
370
    25
100
AcDbLine
 10
621.0
 20
6.7139230727
 30
0.0
 11
621.0
 21
10.1327918098
 31
0.0
  0
SPLINE
  5
95
330
1F
100
AcDbEntity
  8
0
  6
Continuous
 62
     7
370
    25
100
AcDbSpline
210
0.0
220
0.0
230
1.0
 70
     8
 71
     3
 72
    11
 73
     7
 74
     0
 42
0.00000001
 43
0.00000001
 40
0.0
 40
0.0
 40
0.0
 40
0.0
 40
0.25
 40
0.5
 40
0.75
 40
1.0
 40
1.0
 40
1.0
 40
1.0
 10
620.9999999999703
 20
10.13279180978175
 30
0.0
 10
578.0842976401349
 20
10.46473761112693
 30
0.0
 10
492.2515453747317
 20
10.94657827658137
 30
0.0
 10
363.5011452093096
 20
11.33670572447397
 30
0.0
 10
234.7504714691997
 20
11.6069796845304
 30
0.0
 10
148.9167612709094
 20
11.82268083215222
 30
0.0
 10
106.000000000002
 20
11.96160192111668
 30
0.0
  0
LINE
  5
96
330
1F
100
AcDbEntity
  8
0
  6
Continuous
 62
     7
370
    25
100
AcDbLine
 10
106.0
 20
11.9616019211
 30
0.0
 11
106.0
 21
4.7151926429
 31
0.0
  0
LINE
  5
97
330
1F
100
AcDbEntity
  8
0
  6
Continuous
 62
     7
370
    25
100
AcDbLine
 10
106.0
 20
4.7151926429
 30
0.0
 11
104.0
 21
4.7151926429
 31
0.0
  0
LINE
  5
98
330
1F
100
AcDbEntity
  8
0
  6
Continuous
 62
     7
370
    25
100
AcDbLine
 10
104.0
 20
4.7151926429
 30
0.0
 11
104.0
 21
11.9616019211
 31
0.0
  0
LINE
  5
99
330
1F
100
AcDbEntity
  8
0
  6
Continuous
 62
     7
370
    25
100
AcDbLine
 10
104.0
 20
11.9616019211
 30
0.0
 11
0.0
 21
11.9616019211
 31
0.0
  0
LINE
  5
9A
330
1F
100
AcDbEntity
  8
0
  6
Continuous
 62
     7
370
    25
100
AcDbLine
 10
0.0
 20
11.9616019211
 30
0.0
 11
0.0
 21
4.7151926429
 31
0.0
  0
LINE
  5
9B
330
1F
100
AcDbEntity
  8
0
  6
Continuous
 62
     7
370
    25
100
AcDbLine
 10
0.0
 20
4.7151926429
 30
0.0
 11
-2.0
 21
4.7151926429
 31
0.0
  0
LINE
  5
9C
330
1F
100
AcDbEntity
  8
0
  6
Continuous
 62
     7
370
    25
100
AcDbLine
 10
-2.0
 20
11.9616019211
 30
0.0
 11
-2.0
 21
4.7151926429
 31
0.0
  0
SPLINE
  5
9D
330
1F
100
AcDbEntity
  8
0
  6
Continuous
 62
     7
370
    25
100
AcDbSpline
210
0.0
220
0.0
230
1.0
 70
     8
 71
     3
 72
     9
 73
     5
 74
     0
 42
0.00000001
 43
0.00000001
 40
0.0
 40
0.0
 40
0.0
 40
0.0
 40
0.25
 40
0.4713061447714532
 40
0.4713061447714532
 40
0.4713061447714532
 40
0.4713061447714532
 10
-2.000000000001953
 20
11.96160192111665
 30
0.0
 10
-44.91676127090938
 20
11.82268083215218
 30
0.0
 10
-125.8246713608817
 20
11.61935827953532
 30
0.0
 10
-206.732645686362
 20
11.44759455769691
 30
0.0
 10
-244.7237008361605
 20
11.35388325771093
 30
0.0
  0
SPLINE
  5
9E
330
1F
100
AcDbEntity
  8
0
  6
Continuous
 62
     7
370
    25
100
AcDbSpline
210
0.0
220
0.0
230
1.0
 70
     8
 71
     3
 72
    11
 73
     7
 74
     0
 42
0.00000001
 43
0.00000001
 40
0.2542678093718727
 40
0.2542678093718727
 40
0.2542678093718727
 40
0.2542678093718727
 40
0.2696801438447252
 40
0.2696801438447252
 40
0.2696801438447252
 40
0.2742792198792242
 40
0.2742792198792242
 40
0.2742792198792242
 40
0.2742792198792242
 10
-264.7350677407622
 20
11.30320540364623
 30
0.0
 10
-259.5976351220136
 20
11.31659403207698
 30
0.0
 10
-254.4602016748031
 20
11.32966724923515
 30
0.0
 10
-249.3227675891094
 20
11.34248062918665
 30
0.0
 10
-247.7897453944905
 20
11.34630417135305
 30
0.0
 10
-246.2567231419833
 20
11.35010456508263
 30
0.0
 10
-244.7237008361604
 20
11.35388325771095
 30
0.0
  0
SPLINE
  5
9F
330
1F
100
AcDbEntity
  8
0
  6
Continuous
 62
     7
370
    25
100
AcDbSpline
210
0.0
220
0.0
230
1.0
 70
     8
 71
     3
 72
    11
 73
     7
 74
     0
 42
0.00000001
 43
0.00000001
 40
0.0020000567171339
 40
0.0020000567171339
 40
0.0020000567171339
 40
0.0020000567171339
 40
0.1348402169052703
 40
0.1348402169052703
 40
0.1348402169052703
 40
0.2542678093718727
 40
0.2542678093718727
 40
0.2542678093718727
 40
0.2542678093718727
 10
-516.9999999999703
 20
10.13279180978151
 30
0.0
 10
-472.7212711119504
 20
10.47528039403074
 30
0.0
 10
-428.441755783176
 20
10.71999133088152
 30
0.0
 10
-384.1621009882682
 20
10.90787856543932
 30
0.0
 10
-344.3532301767831
 20
11.07679538925563
 30
0.0
 10
-304.5441617382725
 20
11.1994591927952
 30
0.0
 10
-264.7350677407622
 20
11.30320540364623
 30
0.0
  0
LINE
  5
A0
330
1F
100
AcDbEntity
  8
0
  6
Continuous
 62
     7
370
    25
100
AcDbLine
 10
-517.0
 20
10.1327918098
 30
0.0
 11
-517.0
 21
6.7139230727
 31
0.0
  0
LINE
  5
A1
330
1F
100
AcDbEntity
  8
0
  6
Continuous
 62
     7
370
    25
100
AcDbLine
 10
-517.0
 20
6.7139230727
 30
0.0
 11
-519.0
 21
6.7139230727
 31
0.0
  0
LINE
  5
A2
330
1F
100
AcDbEntity
  8
0
  6
Continuous
 62
     7
370
    25
100
AcDbLine
 10
-519.0
 20
0.7139230727
 30
0.0
 11
-519.0
 21
6.7139230727
 31
0.0
  0
LINE
  5
A3
330
1F
100
AcDbEntity
  8
0
  6
Continuous
 62
     7
370
    25
100
AcDbLine
 10
-517.0
 20
0.7139230727
 30
0.0
 11
-519.0
 21
0.7139230727
 31
0.0
  0
LINE
  5
A4
330
1F
100
AcDbEntity
  8
0
  6
Continuous
 62
     7
370
    25
100
AcDbLine
 10
-517.0
 20
0.7139230727
 30
0.0
 11
-517.0
 21
-2.2860769273
 31
0.0
  0
SPLINE
  5
A5
330
1F
100
AcDbEntity
  8
0
  6
Continuous
 62
     7
370
    25
100
AcDbSpline
210
0.0
220
0.0
230
1.0
 70
     8
 71
     3
 72
     8
 73
     4
 74
     0
 42
0.00000001
 43
0.00000001
 40
0.4760000024266352
 40
0.4760000024266352
 40
0.4760000024266352
 40
0.4760000024266352
 40
0.5170000038455257
 40
0.5170000038455257
 40
0.5170000038455257
 40
0.5170000038455257
 10
-475.9999999999992
 20
-2.296856414695316
 30
0.0
 10
-489.6666669128941
 20
-2.294370390185547
 30
0.0
 10
-503.3333337016115
 20
-2.290870426025776
 30
0.0
 10
-516.9999999999704
 20
-2.286076927289194
 30
0.0
  0
LINE
  5
A6
330
1F
100
AcDbEntity
  8
0
  6
Continuous
 62
     7
370
    25
100
AcDbLine
 10
-476.0
 20
4.0694359192
 30
0.0
 11
-476.0
 21
-2.2968564147
 31
0.0
  0
LINE
  5
A7
330
1F
100
AcDbEntity
  8
0
  6
Continuous
 62
     7
370
    25
100
AcDbLine
 10
-473.9999999986
 20
4.0694359192
 30
0.0
 11
-476.0
 21
4.0694359192
 31
0.0
  0
LINE
  5
A8
330
1F
100
AcDbEntity
  8
0
  6
Continuous
 62
     7
370
    25
100
AcDbLine
 10
-474.0
 20
4.0694359192
 30
0.0
 11
-474.0
 21
-2.2972130005
 31
0.0
  0
SPLINE
  5
A9
330
1F
100
AcDbEntity
  8
0
  6
Continuous
 62
     7
370
    25
100
AcDbSpline
210
0.0
220
0.0
230
1.0
 70
     8
 71
     3
 72
     8
 73
     4
 74
     0
 42
0.00000001
 43
0.00000001
 40
0.4080000016218991
 40
0.4080000016218991
 40
0.4080000016218991
 40
0.4080000016218991
 40
0.4740000023780017
 40
0.4740000023780017
 40
0.4740000023780017
 40
0.4740000023780017
 10
-407.9999999999993
 20
-2.302000343835646
 30
0.0
 10
-430.0000000555938
 20
-2.302317146716656
 30
0.0
 10
-452.0000002778336
 20
-2.3010563339604
 30
0.0
 10
-473.9999999999998
 20
-2.297213000466044
 30
0.0
  0
LINE
  5
AA
330
1F
100
AcDbEntity
  8
0
  6
Continuous
 62
     7
370
    25
100
AcDbLine
 10
-408.0
 20
4.2543498977
 30
0.0
 11
-408.0
 21
-2.3020003438
 31
0.0
  0
LINE
  5
AB
330
1F
100
AcDbEntity
  8
0
  6
Continuous
 62
     7
370
    25
100
AcDbLine
 10
-405.9999999986
 20
4.2543498977
 30
0.0
 11
-408.0
 21
4.2543498977
 31
0.0
  0
LINE
  5
AC
330
1F
100
AcDbEntity
  8
0
  6
Continuous
 62
     7
370
    25
100
AcDbLine
 10
-406.0
 20
4.2543498977
 30
0.0
 11
-406.0
 21
-2.3019671833
 31
0.0
  0
SPLINE
  5
AD
330
1F
100
AcDbEntity
  8
0
  6
Continuous
 62
     7
370
    25
100
AcDbSpline
210
0.0
220
0.0
230
1.0
 70
     8
 71
     3
 72
     8
 73
     4
 74
     0
 42
0.00000001
 43
0.00000001
 40
0.4000000016230971
 40
0.4000000016230971
 40
0.4000000016230971
 40
0.4000000016230971
 40
0.4060000016206621
 40
0.4060000016206621
 40
0.4060000016206621
 40
0.4060000016206621
 10
-399.9999999999341
 20
-2.301816602616084
 30
0.0
 10
-401.9999999996043
 20
-2.301879266575384
 30
0.0
 10
-403.9999999996998
 20
-2.301929688159445
 30
0.0
 10
-406.0000000000002
 20
-2.301967183325428
 30
0.0
  0
LINE
  5
AE
330
1F
100
AcDbEntity
  8
0
  6
Continuous
 62
     7
370
    25
100
AcDbLine
 10
-399.9999999999
 20
-10.0
 30
0.0
 11
-399.9999999999
 21
-2.3018166026
 31
0.0
  0
LINE
  5
AF
330
1F
100
AcDbEntity
  8
0
  6
Continuous
 62
     7
370
    25
100
AcDbLine
 10
-399.9999999999
 20
-10.0
 30
0.0
 11
-395.9999999999
 21
-10.0
 31
0.0
  0
LINE
  5
B0
330
1F
100
AcDbEntity
  8
0
  6
Continuous
 62
     7
370
    25
100
AcDbLine
 10
-395.9999999999
 20
-10.0
 30
0.0
 11
-395.9999999999
 21
-2.3848073571
 31
0.0
  0
LINE
  5
B1
330
1F
100
AcDbEntity
  8
0
  6
Continuous
 62
     7
370
    25
100
AcDbLine
 10
-396.1999999999
 20
-2.3848073571
 30
0.0
 11
-395.9999999999
 21
-2.3848073571
 31
0.0
  0
LINE
  5
B2
330
1F
100
AcDbEntity
  8
0
  6
Continuous
 62
     7
370
    25
100
AcDbLine
 10
-396.1999999999
 20
-2.3016829804
 30
0.0
 11
-396.1999999999
 21
-2.3848073571
 31
0.0
  0
SPLINE
  5
B3
330
1F
100
AcDbEntity
  8
0
  6
Continuous
 62
     7
370
    25
100
AcDbSpline
210
0.0
220
0.0
230
1.0
 70
     8
 71
     3
 72
    11
 73
     7
 74
     0
 42
0.00000001
 43
0.00000001
 40
0.3400000016425662
 40
0.3400000016425662
 40
0.3400000016425662
 40
0.3400000016425662
 40
0.3879874029622282
 40
0.3879874029622282
 40
0.3879874029622282
 40
0.3962000016293331
 40
0.3962000016293331
 40
0.3962000016293331
 40
0.3962000016293331
 10
-340.0000000000002
 20
-2.296920291300682
 30
0.0
 10
-355.995800384756
 20
-2.298860903131089
 30
0.0
 10
-371.9916008289828
 20
-2.300426675390746
 30
0.0
 10
-387.9874013077028
 20
-2.301298403033856
 30
0.0
 10
-390.7249342040496
 20
-2.301447591134998
 30
0.0
 10
-393.4624671015989
 20
-2.301576352633048
 30
0.0
 10
-396.1999999999342
 20
-2.301682980428044
 30
0.0
  0
LINE
  5
B4
330
1F
100
AcDbEntity
  8
0
  6
Continuous
 62
     7
370
    25
100
AcDbLine
 10
-340.0
 20
4.3940166714
 30
0.0
 11
-340.0
 21
-2.2969202913
 31
0.0
  0
LINE
  5
B5
330
1F
100
AcDbEntity
  8
0
  6
Continuous
 62
     7
370
    25
100
AcDbLine
 10
-338.0
 20
4.3940166714
 30
0.0
 11
-340.0
 21
4.3940166714
 31
0.0
  0
LINE
  5
B6
330
1F
100
AcDbEntity
  8
0
  6
Continuous
 62
     7
370
    25
100
AcDbLine
 10
-338.0
 20
-2.296675702
 30
0.0
 11
-338.0
 21
4.3940166714
 31
0.0
  0
SPLINE
  5
B7
330
1F
100
AcDbEntity
  8
0
  6
Continuous
 62
     7
370
    25
100
AcDbSpline
210
0.0
220
0.0
230
1.0
 70
     8
 71
     3
 72
     8
 73
     4
 74
     0
 42
0.00000001
 43
0.00000001
 40
0.2920000013663427
 40
0.2920000013663427
 40
0.2920000013663427
 40
0.2920000013663427
 40
0.3380000016348957
 40
0.3380000016348957
 40
0.3380000016348957
 40
0.3380000016348957
 10
-292.0000000000002
 20
-2.290252105944707
 30
0.0
 10
-307.333333308866
 20
-2.29256188243552
 30
0.0
 10
-322.6666666336415
 20
-2.294785739309277
 30
0.0
 10
-338.0
 20
-2.296675701979718
 30
0.0
  0
LINE
  5
B8
330
1F
100
AcDbEntity
  8
0
  6
Continuous
 62
     7
370
    25
100
AcDbLine
 10
-292.0
 20
4.4723128564
 30
0.0
 11
-292.0
 21
-2.2902521059
 31
0.0
  0
LINE
  5
B9
330
1F
100
AcDbEntity
  8
0
  6
Continuous
 62
     7
370
    25
100
AcDbLine
 10
-290.0
 20
4.4723128564
 30
0.0
 11
-292.0
 21
4.4723128564
 31
0.0
  0
LINE
  5
BA
330
1F
100
AcDbEntity
  8
0
  6
Continuous
 62
     7
370
    25
100
AcDbLine
 10
-290.0
 20
-2.2899503508
 30
0.0
 11
-290.0
 21
4.4723128564
 31
0.0
  0
SPLINE
  5
BB
330
1F
100
AcDbEntity
  8
0
  6
Continuous
 62
     7
370
    25
100
AcDbSpline
210
0.0
220
0.0
230
1.0
 70
     8
 71
     3
 72
     8
 73
     4
 74
     0
 42
0.00000001
 43
0.00000001
 40
0.2500000010614116
 40
0.2500000010614116
 40
0.2500000010614116
 40
0.2500000010614116
 40
0.2900000013520694
 40
0.2900000013520694
 40
0.2900000013520694
 40
0.2900000013520694
 10
-249.999999999934
 20
-2.283878464530388
 30
0.0
 10
-263.3333333391699
 20
-2.285863309170327
 30
0.0
 10
-276.666666665253
 20
-2.287935577878212
 30
0.0
 10
-290.0000000000001
 20
-2.289950350772134
 30
0.0
  0
LINE
  5
BC
330
1F
100
AcDbEntity
  8
0
  6
Continuous
 62
     7
370
    25
100
AcDbLine
 10
-249.9999999999
 20
-10.0
 30
0.0
 11
-249.9999999999
 21
-2.2838784645
 31
0.0
  0
LINE
  5
BD
330
1F
100
AcDbEntity
  8
0
  6
Continuous
 62
     7
370
    25
100
AcDbLine
 10
-249.9999999999
 20
-10.0
 30
0.0
 11
-245.9999999999
 21
-10.0
 31
0.0
  0
LINE
  5
BE
330
1F
100
AcDbEntity
  8
0
  6
Continuous
 62
     7
370
    25
100
AcDbLine
 10
-245.9999999999
 20
-10.0
 30
0.0
 11
-245.9999999999
 21
-2.3848073571
 31
0.0
  0
LINE
  5
BF
330
1F
100
AcDbEntity
  8
0
  6
Continuous
 62
     7
370
    25
100
AcDbLine
 10
-246.1999999999
 20
-2.3848073571
 30
0.0
 11
-245.9999999999
 21
-2.3848073571
 31
0.0
  0
LINE
  5
C0
330
1F
100
AcDbEntity
  8
0
  6
Continuous
 62
     7
370
    25
100
AcDbLine
 10
-246.1999999999
 20
-2.2833152314
 30
0.0
 11
-246.1999999999
 21
-2.3848073571
 31
0.0
  0
SPLINE
  5
C1
330
1F
100
AcDbEntity
  8
0
  6
Continuous
 62
     7
370
    25
100
AcDbSpline
210
0.0
220
0.0
230
1.0
 70
     8
 71
     3
 72
     8
 73
     4
 74
     0
 42
0.00000001
 43
0.00000001
 40
0.2240000009039702
 40
0.2240000009039702
 40
0.2240000009039702
 40
0.2240000009039702
 40
0.2462000010357243
 40
0.2462000010357243
 40
0.2462000010357243
 40
0.2462000010357243
 10
-224.0
 20
-2.280154042596541
 30
0.0
 10
-231.4000000063285
 20
-2.281162188296969
 30
0.0
 10
-238.8000000054791
 20
-2.282223402578745
 30
0.0
 10
-246.1999999999338
 20
-2.283315231367187
 30
0.0
  0
LINE
  5
C2
330
1F
100
AcDbEntity
  8
0
  6
Continuous
 62
     7
370
    25
100
AcDbLine
 10
-224.0
 20
4.5643014218
 30
0.0
 11
-224.0
 21
-2.2801540426
 31
0.0
  0
LINE
  5
C3
330
1F
100
AcDbEntity
  8
0
  6
Continuous
 62
     7
370
    25
100
AcDbLine
 10
-222.0
 20
4.5643014218
 30
0.0
 11
-224.0
 21
4.5643014218
 31
0.0
  0
LINE
  5
C4
330
1F
100
AcDbEntity
  8
0
  6
Continuous
 62
     7
370
    25
100
AcDbLine
 10
-222.0
 20
-2.2798828763
 30
0.0
 11
-222.0
 21
4.5643014218
 31
0.0
  0
SPLINE
  5
C5
330
1F
100
AcDbEntity
  8
0
  6
Continuous
 62
     7
370
    25
100
AcDbSpline
210
0.0
220
0.0
230
1.0
 70
     8
 71
     3
 72
    11
 73
     7
 74
     0
 42
0.00000001
 43
0.00000001
 40
0.1610000007762342
 40
0.1610000007762342
 40
0.1610000007762342
 40
0.1610000007762342
 40
0.1939937021846915
 40
0.1939937021846915
 40
0.1939937021846915
 40
0.2220000008940177
 40
0.2220000008940177
 40
0.2220000008940177
 40
0.2220000008940177
 10
-160.9999999999999
 20
-2.273329250662919
 30
0.0
 10
-171.9979004799537
 20
-2.274133738264956
 30
0.0
 10
-182.9958009435285
 20
-2.275181462912681
 30
0.0
 10
-193.9937013843716
 20
-2.276409253549769
 30
0.0
 10
-203.3291342698787
 20
-2.277451448571596
 30
0.0
 10
-212.6645671412897
 20
-2.278623317162011
 30
0.0
 10
-222.0000000000001
 20
-2.279882876304981
 30
0.0
  0
LINE
  5
C6
330
1F
100
AcDbEntity
  8
0
  6
Continuous
 62
     7
370
    25
100
AcDbLine
 10
-161.0
 20
4.6391265469
 30
0.0
 11
-161.0
 21
-2.2733292507
 31
0.0
  0
LINE
  5
C7
330
1F
100
AcDbEntity
  8
0
  6
Continuous
 62
     7
370
    25
100
AcDbLine
 10
-159.0
 20
4.6391265469
 30
0.0
 11
-161.0
 21
4.6391265469
 31
0.0
  0
LINE
  5
C8
330
1F
100
AcDbEntity
  8
0
  6
Continuous
 62
     7
370
    25
100
AcDbLine
 10
-159.0
 20
-2.273185642
 30
0.0
 11
-159.0
 21
4.6391265469
 31
0.0
  0
SPLINE
  5
C9
330
1F
100
AcDbEntity
  8
0
  6
Continuous
 62
     7
370
    25
100
AcDbSpline
210
0.0
220
0.0
230
1.0
 70
     8
 71
     3
 72
     8
 73
     4
 74
     0
 42
0.00000001
 43
0.00000001
 40
0.1030000009110995
 40
0.1030000009110995
 40
0.1030000009110995
 40
0.1030000009110995
 40
0.1590000007768164
 40
0.1590000007768164
 40
0.1590000007768164
 40
0.1590000007768164
 10
-103.0
 20
-2.271654365540383
 30
0.0
 10
-121.666666669654
 20
-2.271268350293235
 30
0.0
 10
-140.3333333726816
 20
-2.271870524383437
 30
0.0
 10
-159.0
 20
-2.273185642016299
 30
0.0
  0
LINE
  5
CA
330
1F
100
AcDbEntity
  8
0
  6
Continuous
 62
     7
370
    25
100
AcDbLine
 10
-103.0
 20
4.7071178424
 30
0.0
 11
-103.0
 21
-2.2716543655
 31
0.0
  0
LINE
  5
CB
330
1F
100
AcDbEntity
  8
0
  6
Continuous
 62
     7
370
    25
100
AcDbLine
 10
-101.0
 20
4.7071178424
 30
0.0
 11
-103.0
 21
4.7071178424
 31
0.0
  0
LINE
  5
CC
330
1F
100
AcDbEntity
  8
0
  6
Continuous
 62
     7
370
    25
100
AcDbLine
 10
-101.0
 20
-2.2716995071
 30
0.0
 11
-101.0
 21
4.7071178424
 31
0.0
  0
SPLINE
  5
CD
330
1F
100
AcDbEntity
  8
0
  6
Continuous
 62
     7
370
    25
100
AcDbSpline
210
0.0
220
0.0
230
1.0
 70
     8
 71
     3
 72
     8
 73
     4
 74
     0
 42
0.00000001
 43
0.00000001
 40
0.1000000009254584
 40
0.1000000009254584
 40
0.1000000009254584
 40
0.1000000009254584
 40
0.101000000920626
 40
0.101000000920626
 40
0.101000000920626
 40
0.101000000920626
 10
-99.99999999993408
 20
-2.271724928191747
 30
0.0
 10
-100.3333333332811
 20
-2.27171613631867
 30
0.0
 10
-100.6666666666367
 20
-2.2717076631074
 30
0.0
 10
-101.0
 20
-2.271699507090013
 30
0.0
  0
LINE
  5
CE
330
1F
100
AcDbEntity
  8
0
  6
Continuous
 62
     7
370
    25
100
AcDbLine
 10
-99.9999999999
 20
-10.0
 30
0.0
 11
-99.9999999999
 21
-2.2717249282
 31
0.0
  0
LINE
  5
CF
330
1F
100
AcDbEntity
  8
0
  6
Continuous
 62
     7
370
    25
100
AcDbLine
 10
-99.9999999999
 20
-10.0
 30
0.0
 11
-95.9999999999
 21
-10.0
 31
0.0
  0
LINE
  5
D0
330
1F
100
AcDbEntity
  8
0
  6
Continuous
 62
     7
370
    25
100
AcDbLine
 10
-95.9999999999
 20
-10.0
 30
0.0
 11
-95.9999999999
 21
-2.3848073571
 31
0.0
  0
LINE
  5
D1
330
1F
100
AcDbEntity
  8
0
  6
Continuous
 62
     7
370
    25
100
AcDbLine
 10
-96.1999999999
 20
-2.3848073571
 30
0.0
 11
-95.9999999999
 21
-2.3848073571
 31
0.0
  0
LINE
  5
D2
330
1F
100
AcDbEntity
  8
0
  6
Continuous
 62
     7
370
    25
100
AcDbLine
 10
-96.1999999999
 20
-2.2718390403
 30
0.0
 11
-96.1999999999
 21
-2.3848073571
 31
0.0
  0
SPLINE
  5
D3
330
1F
100
AcDbEntity
  8
0
  6
Continuous
 62
     7
370
    25
100
AcDbSpline
210
0.0
220
0.0
230
1.0
 70
     8
 71
     3
 72
     8
 73
     4
 74
     0
 42
0.00000001
 43
0.00000001
 40
0.0500000008673456
 40
0.0500000008673456
 40
0.0500000008673456
 40
0.0500000008673456
 40
0.0962000009447868
 40
0.0962000009447868
 40
0.0962000009447868
 40
0.0962000009447868
 10
-49.99999999999997
 20
-2.275612345724344
 30
0.0
 10
-65.39999991593649
 20
-2.273570175577865
 30
0.0
 10
-80.79999995734006
 20
-2.272358088823582
 30
0.0
 10
-96.19999999993398
 20
-2.271839040260044
 30
0.0
  0
LINE
  5
D4
330
1F
100
AcDbEntity
  8
0
  6
Continuous
 62
     7
370
    25
100
AcDbLine
 10
-50.0
 20
4.7738126864
 30
0.0
 11
-50.0
 21
-2.2756123457
 31
0.0
  0
LINE
  5
D5
330
1F
100
AcDbEntity
  8
0
  6
Continuous
 62
     7
370
    25
100
AcDbLine
 10
-48.0
 20
4.7738126864
 30
0.0
 11
-50.0
 21
4.7738126864
 31
0.0
  0
LINE
  5
D6
330
1F
100
AcDbEntity
  8
0
  6
Continuous
 62
     7
370
    25
100
AcDbLine
 10
-48.0
 20
-2.2758822347
 30
0.0
 11
-48.0
 21
4.7738126864
 31
0.0
  0
SPLINE
  5
D7
330
1F
100
AcDbEntity
  8
0
  6
Continuous
 62
     7
370
    25
100
AcDbSpline
210
0.0
220
0.0
230
1.0
 70
     8
 71
     3
 72
     8
 73
     4
 74
     0
 42
0.00000001
 43
0.00000001
 40
0.0020000000523124
 40
0.0020000000523124
 40
0.0020000000523124
 40
0.0020000000523124
 40
0.0480000008491541
 40
0.0480000008491541
 40
0.0480000008491541
 40
0.0480000008491541
 10
-2.000000000001985
 20
-2.284807357109258
 30
0.0
 10
-17.3333331293318
 20
-2.280920590493776
 30
0.0
 10
-32.66666652254877
 20
-2.277987284215889
 30
0.0
 10
-47.99999999999993
 20
-2.275882234688439
 30
0.0
  0
LINE
  5
D8
330
1F
100
AcDbEntity
  8
0
  6
Continuous
 62
     7
370
    25
100
AcDbLine
 10
-2.0
 20
-2.2848073571
 30
0.0
 11
50.0000000001
 21
-2.2848073571
 31
0.0
  0
LINE
  5
D9
330
1F
100
AcDbEntity
  8
0
  6
Continuous
 62
     7
370
    25
100
AcDbLine
 10
50.0000000001
 20
-10.0
 30
0.0
 11
50.0000000001
 21
-2.2846790301
 31
0.0
  0
LINE
  5
DA
330
1F
100
AcDbEntity
  8
0
  6
Continuous
 62
     7
370
    25
100
AcDbLine
 10
50.0000000001
 20
-10.0
 30
0.0
 11
54.0000000001
 21
-10.0
 31
0.0
  0
LINE
  5
DB
330
1F
100
AcDbEntity
  8
0
  6
Continuous
 62
     7
370
    25
100
AcDbLine
 10
54.0000000001
 20
-10.0
 30
0.0
 11
54.0000000001
 21
-2.3848073571
 31
0.0
  0
LINE
  5
DC
330
1F
100
AcDbEntity
  8
0
  6
Continuous
 62
     7
370
    25
100
AcDbLine
 10
53.8000000001
 20
-2.3848073571
 30
0.0
 11
54.0000000001
 21
-2.3848073571
 31
0.0
  0
LINE
  5
DD
330
1F
100
AcDbEntity
  8
0
  6
Continuous
 62
     7
370
    25
100
AcDbLine
 10
53.8000000001
 20
-2.2846793842
 30
0.0
 11
53.8000000001
 21
-2.3848073571
 31
0.0
  0
LINE
  5
DE
330
1F
100
AcDbEntity
  8
0
  6
Continuous
 62
     7
370
    25
100
AcDbLine
 10
53.8000000014
 20
-2.2848073571
 30
0.0
 11
106.0000000001
 21
-2.2848073571
 31
0.0
  0
SPLINE
  5
DF
330
1F
100
AcDbEntity
  8
0
  6
Continuous
 62
     7
370
    25
100
AcDbSpline
210
0.0
220
0.0
230
1.0
 70
     8
 71
     3
 72
    11
 73
     7
 74
     0
 42
0.00000001
 43
0.00000001
 40
0.7699680511182108
 40
0.7699680511182108
 40
0.7699680511182108
 40
0.7699680511182108
 40
0.827476038338658
 40
0.8849840255591053
 40
0.9424920127795526
 40
1.0
 40
1.0
 40
1.0
 40
1.0
 10
106.0000000001338
 20
-2.28480735710923
 30
0.0
 10
109.8324147657001
 20
-2.284658001987395
 30
0.0
 10
117.4966424300567
 20
-2.284099573374851
 30
0.0
 10
129.0050774101838
 20
-2.279619999288919
 30
0.0
 10
140.5031239300422
 20
-2.277564067151229
 30
0.0
 10
148.1677079838822
 20
-2.276408354107211
 30
0.0
 10
152.0
 20
-2.275882234688399
 30
0.0
  0
LINE
  5
E0
330
1F
100
AcDbEntity
  8
0
  6
Continuous
 62
     7
370
    25
100
AcDbLine
 10
152.0
 20
-2.2758822347
 30
0.0
 11
152.0
 21
4.7738126864
 31
0.0
  0
LINE
  5
E1
330
1F
100
AcDbEntity
  8
0
  6
Continuous
 62
     7
370
    25
100
AcDbLine
 10
152.0
 20
4.7738126864
 30
0.0
 11
154.0
 21
4.7738126864
 31
0.0
  0
LINE
  5
E2
330
1F
100
AcDbEntity
  8
0
  6
Continuous
 62
     7
370
    25
100
AcDbLine
 10
154.0
 20
4.7738126864
 30
0.0
 11
154.0
 21
-2.2756123457
 31
0.0
  0
SPLINE
  5
E3
330
1F
100
AcDbEntity
  8
0
  6
Continuous
 62
     7
370
    25
100
AcDbSpline
210
0.0
220
0.0
230
1.0
 70
     8
 71
     3
 72
     8
 73
     4
 74
     0
 42
0.00000001
 43
0.00000001
 40
0.0
 40
0.0
 40
0.0
 40
0.0
 40
0.9019607848523992
 40
0.9019607848523992
 40
0.9019607848523992
 40
0.9019607848523992
 10
154.0
 20
-2.2756123457243
 30
0.0
 10
169.3333332240297
 20
-2.273579016144617
 30
0.0
 10
184.6666665801858
 20
-2.272368824055088
 30
0.0
 10
200.0000000000659
 20
-2.27184585641274
 30
0.0
  0
LINE
  5
E4
330
1F
100
AcDbEntity
  8
0
  6
Continuous
 62
     7
370
    25
100
AcDbLine
 10
200.0000000001
 20
-10.0
 30
0.0
 11
200.0000000001
 21
-2.2718458564
 31
0.0
  0
LINE
  5
E5
330
1F
100
AcDbEntity
  8
0
  6
Continuous
 62
     7
370
    25
100
AcDbLine
 10
200.0000000001
 20
-10.0
 30
0.0
 11
204.0000000001
 21
-10.0
 31
0.0
  0
LINE
  5
E6
330
1F
100
AcDbEntity
  8
0
  6
Continuous
 62
     7
370
    25
100
AcDbLine
 10
204.0000000001
 20
-10.0
 30
0.0
 11
204.0000000001
 21
-2.3848073571
 31
0.0
  0
LINE
  5
E7
330
1F
100
AcDbEntity
  8
0
  6
Continuous
 62
     7
370
    25
100
AcDbLine
 10
203.8000000001
 20
-2.3848073571
 30
0.0
 11
204.0000000001
 21
-2.3848073571
 31
0.0
  0
LINE
  5
E8
330
1F
100
AcDbEntity
  8
0
  6
Continuous
 62
     7
370
    25
100
AcDbLine
 10
203.8000000001
 20
-2.271730244
 30
0.0
 11
203.8000000001
 21
-2.3848073571
 31
0.0
  0
SPLINE
  5
E9
330
1F
100
AcDbEntity
  8
0
  6
Continuous
 62
     7
370
    25
100
AcDbSpline
210
0.0
220
0.0
230
1.0
 70
     8
 71
     3
 72
     8
 73
     4
 74
     0
 42
0.00000001
 43
0.00000001
 40
0.9764705884976117
 40
0.9764705884976117
 40
0.9764705884976117
 40
0.9764705884976117
 40
1.0
 40
1.0
 40
1.0
 40
1.0
 10
203.8000000064169
 20
-2.271730244033627
 30
0.0
 10
204.2000000042388
 20
-2.271719539154368
 30
0.0
 10
204.6000000021003
 20
-2.271709294310761
 30
0.0
 10
205.0000000000001
 20
-2.271699507089949
 30
0.0
  0
LINE
  5
EA
330
1F
100
AcDbEntity
  8
0
  6
Continuous
 62
     7
370
    25
100
AcDbLine
 10
205.0
 20
-2.2716995071
 30
0.0
 11
205.0
 21
4.7071178424
 31
0.0
  0
LINE
  5
EB
330
1F
100
AcDbEntity
  8
0
  6
Continuous
 62
     7
370
    25
100
AcDbLine
 10
205.0
 20
4.7071178424
 30
0.0
 11
207.0
 21
4.7071178424
 31
0.0
  0
LINE
  5
EC
330
1F
100
AcDbEntity
  8
0
  6
Continuous
 62
     7
370
    25
100
AcDbLine
 10
207.0
 20
4.7071178424
 30
0.0
 11
207.0
 21
-2.2716543655
 31
0.0
  0
SPLINE
  5
ED
330
1F
100
AcDbEntity
  8
0
  6
Continuous
 62
     7
370
    25
100
AcDbSpline
210
0.0
220
0.0
230
1.0
 70
     8
 71
     3
 72
     8
 73
     4
 74
     0
 42
0.00000001
 43
0.00000001
 40
0.0
 40
0.0
 40
0.0
 40
0.0
 40
1.0
 40
1.0
 40
1.0
 40
1.0
 10
207.0000000000001
 20
-2.271654365540318
 30
0.0
 10
225.6666667091469
 20
-2.271268350292346
 30
0.0
 10
244.3333333714659
 20
-2.27187052438327
 30
0.0
 10
263.0
 20
-2.273185642016211
 30
0.0
  0
LINE
  5
EE
330
1F
100
AcDbEntity
  8
0
  6
Continuous
 62
     7
370
    25
100
AcDbLine
 10
263.0
 20
-2.273185642
 30
0.0
 11
263.0
 21
4.6391265469
 31
0.0
  0
LINE
  5
EF
330
1F
100
AcDbEntity
  8
0
  6
Continuous
 62
     7
370
    25
100
AcDbLine
 10
263.0
 20
4.6391265469
 30
0.0
 11
265.0
 21
4.6391265469
 31
0.0
  0
LINE
  5
F0
330
1F
100
AcDbEntity
  8
0
  6
Continuous
 62
     7
370
    25
100
AcDbLine
 10
265.0
 20
4.6391265469
 30
0.0
 11
265.0
 21
-2.2733292507
 31
0.0
  0
SPLINE
  5
F1
330
1F
100
AcDbEntity
  8
0
  6
Continuous
 62
     7
370
    25
100
AcDbSpline
210
0.0
220
0.0
230
1.0
 70
     8
 71
     3
 72
     8
 73
     4
 74
     0
 42
0.00000001
 43
0.00000001
 40
0.0
 40
0.0
 40
0.0
 40
0.0
 40
1.0
 40
1.0
 40
1.0
 40
1.0
 10
264.9999999999999
 20
-2.27332925066283
 30
0.0
 10
285.3333333772167
 20
-2.274816617696182
 30
0.0
 10
305.6666667266933
 20
-2.27713945388204
 30
0.0
 10
326.0000000000001
 20
-2.279882876304866
 30
0.0
  0
LINE
  5
F2
330
1F
100
AcDbEntity
  8
0
  6
Continuous
 62
     7
370
    25
100
AcDbLine
 10
326.0
 20
-2.2798828763
 30
0.0
 11
326.0
 21
4.5643014218
 31
0.0
  0
LINE
  5
F3
330
1F
100
AcDbEntity
  8
0
  6
Continuous
 62
     7
370
    25
100
AcDbLine
 10
326.0
 20
4.5643014218
 30
0.0
 11
328.0
 21
4.5643014218
 31
0.0
  0
LINE
  5
F4
330
1F
100
AcDbEntity
  8
0
  6
Continuous
 62
     7
370
    25
100
AcDbLine
 10
328.0
 20
4.5643014218
 30
0.0
 11
328.0
 21
-2.2801540426
 31
0.0
  0
SPLINE
  5
F5
330
1F
100
AcDbEntity
  8
0
  6
Continuous
 62
     7
370
    25
100
AcDbSpline
210
0.0
220
0.0
230
1.0
 70
     8
 71
     3
 72
     8
 73
     4
 74
     0
 42
0.00000001
 43
0.00000001
 40
0.0
 40
0.0
 40
0.0
 40
0.0
 40
0.3333333331182509
 40
0.3333333331182509
 40
0.3333333331182509
 40
0.3333333331182509
 10
328.0000000000001
 20
-2.280154042596426
 30
0.0
 10
335.3333333412222
 20
-2.281153105903373
 30
0.0
 10
342.6666666749549
 20
-2.282205230660992
 30
0.0
 10
350.0000000044808
 20
-2.283287160544781
 30
0.0
  0
LINE
  5
F6
330
1F
100
AcDbEntity
  8
0
  6
Continuous
 62
     7
370
    25
100
AcDbLine
 10
350.0000000001
 20
-10.0
 30
0.0
 11
350.0000000001
 21
-2.2833170848
 31
0.0
  0
LINE
  5
F7
330
1F
100
AcDbEntity
  8
0
  6
Continuous
 62
     7
370
    25
100
AcDbLine
 10
350.0000000001
 20
-10.0
 30
0.0
 11
354.0000000001
 21
-10.0
 31
0.0
  0
LINE
  5
F8
330
1F
100
AcDbEntity
  8
0
  6
Continuous
 62
     7
370
    25
100
AcDbLine
 10
354.0000000001
 20
-10.0
 30
0.0
 11
354.0000000001
 21
-2.3848073571
 31
0.0
  0
LINE
  5
F9
330
1F
100
AcDbEntity
  8
0
  6
Continuous
 62
     7
370
    25
100
AcDbLine
 10
353.8000000001
 20
-2.3848073571
 30
0.0
 11
354.0000000001
 21
-2.3848073571
 31
0.0
  0
LINE
  5
FA
330
1F
100
AcDbEntity
  8
0
  6
Continuous
 62
     7
370
    25
100
AcDbLine
 10
353.8000000001
 20
-2.2838810373
 30
0.0
 11
353.8000000001
 21
-2.3848073571
 31
0.0
  0
SPLINE
  5
FB
330
1F
100
AcDbEntity
  8
0
  6
Continuous
 62
     7
370
    25
100
AcDbSpline
210
0.0
220
0.0
230
1.0
 70
     8
 71
     3
 72
     8
 73
     4
 74
     0
 42
0.00000001
 43
0.00000001
 40
0.390909090462787
 40
0.390909090462787
 40
0.390909090462787
 40
0.390909090462787
 40
1.0
 40
1.0
 40
1.0
 40
1.0
 10
353.7999999893394
 20
-2.283850344773077
 30
0.0
 10
367.1999999983706
 20
-2.28584487207788
 30
0.0
 10
380.5999999952484
 20
-2.2879255040131
 30
0.0
 10
394.0
 20
-2.28995035077199
 30
0.0
  0
LINE
  5
FC
330
1F
100
AcDbEntity
  8
0
  6
Continuous
 62
     7
370
    25
100
AcDbLine
 10
394.0
 20
-2.2899503508
 30
0.0
 11
394.0
 21
4.4723128564
 31
0.0
  0
LINE
  5
FD
330
1F
100
AcDbEntity
  8
0
  6
Continuous
 62
     7
370
    25
100
AcDbLine
 10
394.0
 20
4.4723128564
 30
0.0
 11
396.0
 21
4.4723128564
 31
0.0
  0
LINE
  5
FE
330
1F
100
AcDbEntity
  8
0
  6
Continuous
 62
     7
370
    25
100
AcDbLine
 10
396.0
 20
4.4723128564
 30
0.0
 11
396.0
 21
-2.2902521059
 31
0.0
  0
SPLINE
  5
FF
330
1F
100
AcDbEntity
  8
0
  6
Continuous
 62
     7
370
    25
100
AcDbSpline
210
0.0
220
0.0
230
1.0
 70
     8
 71
     3
 72
     8
 73
     4
 74
     0
 42
0.00000001
 43
0.00000001
 40
0.0
 40
0.0
 40
0.0
 40
0.0
 40
1.0
 40
1.0
 40
1.0
 40
1.0
 10
396.0000000000001
 20
-2.290252105944563
 30
0.0
 10
411.3333333138708
 20
-2.292561882436123
 30
0.0
 10
426.6666666376611
 20
-2.294785739309616
 30
0.0
 10
442.0000000000001
 20
-2.296675701979554
 30
0.0
  0
LINE
  5
100
330
1F
100
AcDbEntity
  8
0
  6
Continuous
 62
     7
370
    25
100
AcDbLine
 10
442.0
 20
-2.296675702
 30
0.0
 11
442.0
 21
4.3940166714
 31
0.0
  0
LINE
  5
101
330
1F
100
AcDbEntity
  8
0
  6
Continuous
 62
     7
370
    25
100
AcDbLine
 10
442.0
 20
4.3940166714
 30
0.0
 11
444.0
 21
4.3940166714
 31
0.0
  0
LINE
  5
102
330
1F
100
AcDbEntity
  8
0
  6
Continuous
 62
     7
370
    25
100
AcDbLine
 10
444.0
 20
4.3940166714
 30
0.0
 11
444.0
 21
-2.2969202913
 31
0.0
  0
LINE
  5
103
330
1F
100
AcDbEntity
  8
0
  6
Continuous
 62
     7
370
    25
100
AcDbLine
 10
350.2000000001
 20
-2.2833466803
 30
0.0
 11
350.2000000001
 21
-2.3848073571
 31
0.0
  0
SPLINE
  5
104
330
1F
100
AcDbEntity
  8
0
  6
Continuous
 62
     7
370
    25
100
AcDbSpline
210
0.0
220
0.0
230
1.0
 70
     8
 71
     3
 72
     8
 73
     4
 74
     0
 42
0.00000001
 43
0.00000001
 40
0.3363636359182127
 40
0.3363636359182127
 40
0.3363636359182127
 40
0.3363636359182127
 40
0.3515151512995287
 40
0.3515151512995287
 40
0.3515151512995287
 40
0.3515151512995287
 10
350.1999999893023
 20
-2.283316675093433
 30
0.0
 10
350.5333333277298
 20
-2.283365878270262
 30
0.0
 10
350.8666666661487
 20
-2.283415142591111
 30
0.0
 10
351.2000000045592
 20
-2.283464465871879
 30
0.0
  0
LINE
  5
105
330
1F
100
AcDbEntity
  8
0
  6
Continuous
 62
     7
370
    25
100
AcDbLine
 10
351.2000000001
 20
-2.3848073571
 30
0.0
 11
351.2000000001
 21
-2.2834948069
 31
0.0
  0
LINE
  5
106
330
1F
100
AcDbEntity
  8
0
  6
Continuous
 62
     7
370
    25
100
AcDbLine
 10
350.2000000001
 20
-2.3848073571
 30
0.0
 11
351.2000000001
 21
-2.3848073571
 31
0.0
  0
LINE
  5
107
330
1F
100
AcDbEntity
  8
0
  6
Continuous
 62
     7
370
    25
100
AcDbLine
 10
351.4000000001
 20
-2.2835244614
 30
0.0
 11
351.4000000001
 21
-2.3848073571
 31
0.0
  0
SPLINE
  5
108
330
1F
100
AcDbEntity
  8
0
  6
Continuous
 62
     7
370
    25
100
AcDbSpline
210
0.0
220
0.0
230
1.0
 70
     8
 71
     3
 72
     8
 73
     4
 74
     0
 42
0.00000001
 43
0.00000001
 40
0.3545454542468234
 40
0.3545454542468234
 40
0.3545454542468234
 40
0.3545454542468234
 40
0.3696969694814665
 40
0.3696969694814665
 40
0.3696969694814665
 40
0.3696969694814665
 10
351.3999999990928
 20
-2.283494066896797
 30
0.0
 10
351.7333333342732
 20
-2.283543413673689
 30
0.0
 10
352.0666666694453
 20
-2.283592818973677
 30
0.0
 10
352.4000000046096
 20
-2.28364228061266
 30
0.0
  0
LINE
  5
109
330
1F
100
AcDbEntity
  8
0
  6
Continuous
 62
     7
370
    25
100
AcDbLine
 10
352.4000000001
 20
-2.3848073571
 30
0.0
 11
352.4000000001
 21
-2.2836728755
 31
0.0
  0
LINE
  5
10A
330
1F
100
AcDbEntity
  8
0
  6
Continuous
 62
     7
370
    25
100
AcDbLine
 10
351.4000000001
 20
-2.3848073571
 30
0.0
 11
352.4000000001
 21
-2.3848073571
 31
0.0
  0
LINE
  5
10B
330
1F
100
AcDbEntity
  8
0
  6
Continuous
 62
     7
370
    25
100
AcDbLine
 10
352.6000000001
 20
-2.2837025861
 30
0.0
 11
352.6000000001
 21
-2.3848073571
 31
0.0
  0
SPLINE
  5
10C
330
1F
100
AcDbEntity
  8
0
  6
Continuous
 62
     7
370
    25
100
AcDbSpline
210
0.0
220
0.0
230
1.0
 70
     8
 71
     3
 72
     8
 73
     4
 74
     0
 42
0.00000001
 43
0.00000001
 40
0.3727272724284216
 40
0.3727272724284216
 40
0.3727272724284216
 40
0.3727272724284216
 40
0.3878787876640866
 40
0.3878787876640866
 40
0.3878787876640866
 40
0.3878787876640866
 10
352.5999999991088
 20
-2.283671964338275
 30
0.0
 10
352.9333333342923
 20
-2.283721448425493
 30
0.0
 10
353.266666669468
 20
-2.283770988414884
 30
0.0
 10
353.6000000046361
 20
-2.283820582122345
 30
0.0
  0
LINE
  5
10D
330
1F
100
AcDbEntity
  8
0
  6
Continuous
 62
     7
370
    25
100
AcDbLine
 10
353.6000000001
 20
-2.3848073571
 30
0.0
 11
353.6000000001
 21
-2.2838512735
 31
0.0
  0
LINE
  5
10E
330
1F
100
AcDbEntity
  8
0
  6
Continuous
 62
     7
370
    25
100
AcDbLine
 10
352.6000000001
 20
-2.3848073571
 30
0.0
 11
353.6000000001
 21
-2.3848073571
 31
0.0
  0
LINE
  5
10F
330
1F
100
AcDbEntity
  8
0
  6
Continuous
 62
     7
370
    25
100
AcDbLine
 10
200.2000000001
 20
-2.2718390741
 30
0.0
 11
200.2000000001
 21
-2.3848073571
 31
0.0
  0
SPLINE
  5
110
330
1F
100
AcDbEntity
  8
0
  6
Continuous
 62
     7
370
    25
100
AcDbSpline
210
0.0
220
0.0
230
1.0
 70
     8
 71
     3
 72
     8
 73
     4
 74
     0
 42
0.00000001
 43
0.00000001
 40
0.9058823534773842
 40
0.9058823534773842
 40
0.9058823534773842
 40
0.9058823534773842
 40
0.9254901964958211
 40
0.9254901964958211
 40
0.9254901964958211
 40
0.9254901964958211
 10
200.2000000009532
 20
-2.271839074057535
 30
0.0
 10
200.5333333339611
 20
-2.27182783505007
 30
0.0
 10
200.8666666669988
 20
-2.271816920538593
 30
0.0
 10
201.2000000000659
 20
-2.271806329126776
 30
0.0
  0
LINE
  5
111
330
1F
100
AcDbEntity
  8
0
  6
Continuous
 62
     7
370
    25
100
AcDbLine
 10
201.2000000001
 20
-2.3848073571
 30
0.0
 11
201.2000000001
 21
-2.2718063291
 31
0.0
  0
LINE
  5
112
330
1F
100
AcDbEntity
  8
0
  6
Continuous
 62
     7
370
    25
100
AcDbLine
 10
200.2000000001
 20
-2.3848073571
 30
0.0
 11
201.2000000001
 21
-2.3848073571
 31
0.0
  0
LINE
  5
113
330
1F
100
AcDbEntity
  8
0
  6
Continuous
 62
     7
370
    25
100
AcDbLine
 10
201.4000000001
 20
-2.271800013
 30
0.0
 11
201.4000000001
 21
-2.3848073571
 31
0.0
  0
SPLINE
  5
114
330
1F
100
AcDbEntity
  8
0
  6
Continuous
 62
     7
370
    25
100
AcDbSpline
210
0.0
220
0.0
230
1.0
 70
     8
 71
     3
 72
     8
 73
     4
 74
     0
 42
0.00000001
 43
0.00000001
 40
0.9294117649042997
 40
0.9294117649042997
 40
0.9294117649042997
 40
0.9294117649042997
 40
0.9490196081342852
 40
0.9490196081342852
 40
0.9490196081342852
 40
0.9490196081342852
 10
201.399999989954
 20
-2.271800013040787
 30
0.0
 10
201.7333333266291
 20
-2.271789550812862
 30
0.0
 10
202.0666666633333
 20
-2.271779411405338
 30
0.0
 10
202.4000000000659
 20
-2.271769593421887
 30
0.0
  0
LINE
  5
115
330
1F
100
AcDbEntity
  8
0
  6
Continuous
 62
     7
370
    25
100
AcDbLine
 10
202.4000000001
 20
-2.3848073571
 30
0.0
 11
202.4000000001
 21
-2.2717695934
 31
0.0
  0
LINE
  5
116
330
1F
100
AcDbEntity
  8
0
  6
Continuous
 62
     7
370
    25
100
AcDbLine
 10
201.4000000001
 20
-2.3848073571
 30
0.0
 11
202.4000000001
 21
-2.3848073571
 31
0.0
  0
LINE
  5
117
330
1F
100
AcDbEntity
  8
0
  6
Continuous
 62
     7
370
    25
100
AcDbLine
 10
202.6000000001
 20
-2.2717637412
 30
0.0
 11
202.6000000001
 21
-2.3848073571
 31
0.0
  0
SPLINE
  5
118
330
1F
100
AcDbEntity
  8
0
  6
Continuous
 62
     7
370
    25
100
AcDbSpline
210
0.0
220
0.0
230
1.0
 70
     8
 71
     3
 72
     8
 73
     4
 74
     0
 42
0.00000001
 43
0.00000001
 40
0.9529411766065717
 40
0.9529411766065717
 40
0.9529411766065717
 40
0.9529411766065717
 40
0.9725490197679324
 40
0.9725490197679324
 40
0.9725490197679324
 40
0.9725490197679324
 10
202.5999999932496
 20
-2.271763741191791
 30
0.0
 10
202.933333328827
 20
-2.271754051722144
 30
0.0
 10
203.2666666644326
 20
-2.271744683397301
 30
0.0
 10
203.6000000000659
 20
-2.271735634820935
 30
0.0
  0
LINE
  5
119
330
1F
100
AcDbEntity
  8
0
  6
Continuous
 62
     7
370
    25
100
AcDbLine
 10
203.6000000001
 20
-2.3848073571
 30
0.0
 11
203.6000000001
 21
-2.2717356348
 31
0.0
  0
LINE
  5
11A
330
1F
100
AcDbEntity
  8
0
  6
Continuous
 62
     7
370
    25
100
AcDbLine
 10
202.6000000001
 20
-2.3848073571
 30
0.0
 11
203.6000000001
 21
-2.3848073571
 31
0.0
  0
LINE
  5
11B
330
1F
100
AcDbEntity
  8
0
  6
Continuous
 62
     7
370
    25
100
AcDbLine
 10
50.2000000001
 20
-2.2846793842
 30
0.0
 11
50.2000000001
 21
-2.3848073571
 31
0.0
  0
LINE
  5
11C
330
1F
100
AcDbEntity
  8
0
  6
Continuous
 62
     7
370
    25
100
AcDbLine
 10
50.1999999987
 20
-2.2848073571
 30
0.0
 11
51.2000000001
 21
-2.2848073571
 31
0.0
  0
LINE
  5
11D
330
1F
100
AcDbEntity
  8
0
  6
Continuous
 62
     7
370
    25
100
AcDbLine
 10
51.2000000001
 20
-2.3848073571
 30
0.0
 11
51.2000000001
 21
-2.2846806351
 31
0.0
  0
LINE
  5
11E
330
1F
100
AcDbEntity
  8
0
  6
Continuous
 62
     7
370
    25
100
AcDbLine
 10
50.2000000001
 20
-2.3848073571
 30
0.0
 11
51.2000000001
 21
-2.3848073571
 31
0.0
  0
LINE
  5
11F
330
1F
100
AcDbEntity
  8
0
  6
Continuous
 62
     7
370
    25
100
AcDbLine
 10
51.4000000001
 20
-2.2846807751
 30
0.0
 11
51.4000000001
 21
-2.3848073571
 31
0.0
  0
LINE
  5
120
330
1F
100
AcDbEntity
  8
0
  6
Continuous
 62
     7
370
    25
100
AcDbLine
 10
51.4000000001
 20
-2.2848073571
 30
0.0
 11
52.4000000001
 21
-2.2848073571
 31
0.0
  0
LINE
  5
121
330
1F
100
AcDbEntity
  8
0
  6
Continuous
 62
     7
370
    25
100
AcDbLine
 10
52.4000000001
 20
-2.3848073571
 30
0.0
 11
52.4000000001
 21
-2.2846808762
 31
0.0
  0
LINE
  5
122
330
1F
100
AcDbEntity
  8
0
  6
Continuous
 62
     7
370
    25
100
AcDbLine
 10
51.4000000001
 20
-2.3848073571
 30
0.0
 11
52.4000000001
 21
-2.3848073571
 31
0.0
  0
LINE
  5
123
330
1F
100
AcDbEntity
  8
0
  6
Continuous
 62
     7
370
    25
100
AcDbLine
 10
52.6000000001
 20
-2.2846807751
 30
0.0
 11
52.6000000001
 21
-2.3848073571
 31
0.0
  0
LINE
  5
124
330
1F
100
AcDbEntity
  8
0
  6
Continuous
 62
     7
370
    25
100
AcDbLine
 10
52.6000000001
 20
-2.2848073571
 30
0.0
 11
53.6000000001
 21
-2.2848073571
 31
0.0
  0
LINE
  5
125
330
1F
100
AcDbEntity
  8
0
  6
Continuous
 62
     7
370
    25
100
AcDbLine
 10
53.6000000001
 20
-2.3848073571
 30
0.0
 11
53.6000000001
 21
-2.2846797048
 31
0.0
  0
LINE
  5
126
330
1F
100
AcDbEntity
  8
0
  6
Continuous
 62
     7
370
    25
100
AcDbLine
 10
52.6000000001
 20
-2.3848073571
 30
0.0
 11
53.6000000001
 21
-2.3848073571
 31
0.0
  0
SPLINE
  5
127
330
1F
100
AcDbEntity
  8
0
  6
Continuous
 62
     7
370
    25
100
AcDbSpline
210
0.0
220
0.0
230
1.0
 70
     8
 71
     3
 72
    11
 73
     7
 74
     0
 42
0.00000001
 43
0.00000001
 40
0.0964000009437811
 40
0.0964000009437811
 40
0.0964000009437811
 40
0.0964000009437811
 40
0.0969968514107638
 40
0.0969968514107638
 40
0.0969968514107638
 40
0.0974000009386191
 40
0.0974000009386191
 40
0.0974000009386191
 40
0.0974000009386191
 10
-96.39999999993405
 20
-2.271832338263315
 30
0.0
 10
-96.59895015661316
 20
-2.271825710124766
 30
0.0
 10
-96.79790031329614
 20
-2.271819197376452
 30
0.0
 10
-96.9968504699828
 20
-2.271812799708799
 30
0.0
 10
-97.13123364663151
 20
-2.271808478330437
 30
0.0
 10
-97.26561682328193
 20
-2.271804209457418
 30
0.0
 10
-97.39999999993398
 20
-2.271799992994239
 30
0.0
  0
LINE
  5
128
330
1F
100
AcDbEntity
  8
0
  6
Continuous
 62
     7
370
    25
100
AcDbLine
 10
-96.3999999999
 20
-2.3848073571
 30
0.0
 11
-96.3999999999
 21
-2.2718323383
 31
0.0
  0
LINE
  5
129
330
1F
100
AcDbEntity
  8
0
  6
Continuous
 62
     7
370
    25
100
AcDbLine
 10
-97.3999999999
 20
-2.3848073571
 30
0.0
 11
-96.3999999999
 21
-2.3848073571
 31
0.0
  0
LINE
  5
12A
330
1F
100
AcDbEntity
  8
0
  6
Continuous
 62
     7
370
    25
100
AcDbLine
 10
-97.3999999999
 20
-2.271799993
 30
0.0
 11
-97.3999999999
 21
-2.3848073571
 31
0.0
  0
SPLINE
  5
12B
330
1F
100
AcDbEntity
  8
0
  6
Continuous
 62
     7
370
    25
100
AcDbSpline
210
0.0
220
0.0
230
1.0
 70
     8
 71
     3
 72
     8
 73
     4
 74
     0
 42
0.00000001
 43
0.00000001
 40
0.0976000009375848
 40
0.0976000009375848
 40
0.0976000009375848
 40
0.0976000009375848
 40
0.0986000009324683
 40
0.0986000009324683
 40
0.0986000009324683
 40
0.0986000009324683
 10
-97.59999999993404
 20
-2.271793756393904
 30
0.0
 10
-97.93333333325756
 20
-2.271783426513802
 30
0.0
 10
-98.26666666659122
 20
-2.271773418805674
 30
0.0
 10
-98.59999999993403
 20
-2.271763731809138
 30
0.0
  0
LINE
  5
12C
330
1F
100
AcDbEntity
  8
0
  6
Continuous
 62
     7
370
    25
100
AcDbLine
 10
-97.5999999999
 20
-2.3848073571
 30
0.0
 11
-97.5999999999
 21
-2.2717937564
 31
0.0
  0
LINE
  5
12D
330
1F
100
AcDbEntity
  8
0
  6
Continuous
 62
     7
370
    25
100
AcDbLine
 10
-98.5999999999
 20
-2.3848073571
 30
0.0
 11
-97.5999999999
 21
-2.3848073571
 31
0.0
  0
LINE
  5
12E
330
1F
100
AcDbEntity
  8
0
  6
Continuous
 62
     7
370
    25
100
AcDbLine
 10
-98.5999999999
 20
-2.2717637318
 30
0.0
 11
-98.5999999999
 21
-2.3848073571
 31
0.0
  0
SPLINE
  5
12F
330
1F
100
AcDbEntity
  8
0
  6
Continuous
 62
     7
370
    25
100
AcDbSpline
210
0.0
220
0.0
230
1.0
 70
     8
 71
     3
 72
     8
 73
     4
 74
     0
 42
0.00000001
 43
0.00000001
 40
0.0988000009314561
 40
0.0988000009314561
 40
0.0988000009314561
 40
0.0988000009314561
 40
0.0998000009264489
 40
0.0998000009264489
 40
0.0998000009264489
 40
0.0998000009264489
 10
-98.79999999993407
 20
-2.271757958084879
 30
0.0
 10
-99.13333333325835
 20
-2.271748399314391
 30
0.0
 10
-99.46666666659199
 20
-2.271739160963044
 30
0.0
 10
-99.79999999993399
 20
-2.271730241566706
 30
0.0
  0
LINE
  5
130
330
1F
100
AcDbEntity
  8
0
  6
Continuous
 62
     7
370
    25
100
AcDbLine
 10
-98.7999999999
 20
-2.3848073571
 30
0.0
 11
-98.7999999999
 21
-2.2717579581
 31
0.0
  0
LINE
  5
131
330
1F
100
AcDbEntity
  8
0
  6
Continuous
 62
     7
370
    25
100
AcDbLine
 10
-99.7999999999
 20
-2.3848073571
 30
0.0
 11
-98.7999999999
 21
-2.3848073571
 31
0.0
  0
LINE
  5
132
330
1F
100
AcDbEntity
  8
0
  6
Continuous
 62
     7
370
    25
100
AcDbLine
 10
-99.7999999999
 20
-2.2717302416
 30
0.0
 11
-99.7999999999
 21
-2.3848073571
 31
0.0
  0
SPLINE
  5
133
330
1F
100
AcDbEntity
  8
0
  6
Continuous
 62
     7
370
    25
100
AcDbSpline
210
0.0
220
0.0
230
1.0
 70
     8
 71
     3
 72
     8
 73
     4
 74
     0
 42
0.00000001
 43
0.00000001
 40
0.2464000010370585
 40
0.2464000010370585
 40
0.2464000010370585
 40
0.2464000010370585
 40
0.2474000010437591
 40
0.2474000010437591
 40
0.2474000010437591
 40
0.2474000010437591
 10
-246.3999999999341
 20
-2.283344747662429
 30
0.0
 10
-246.7333333332764
 20
-2.283393953808023
 30
0.0
 10
-247.0666666666096
 20
-2.28344322141387
 30
0.0
 10
-247.399999999934
 20
-2.283492548359164
 30
0.0
  0
LINE
  5
134
330
1F
100
AcDbEntity
  8
0
  6
Continuous
 62
     7
370
    25
100
AcDbLine
 10
-246.3999999999
 20
-2.3848073571
 30
0.0
 11
-246.3999999999
 21
-2.2833447477
 31
0.0
  0
LINE
  5
135
330
1F
100
AcDbEntity
  8
0
  6
Continuous
 62
     7
370
    25
100
AcDbLine
 10
-247.3999999999
 20
-2.3848073571
 30
0.0
 11
-246.3999999999
 21
-2.3848073571
 31
0.0
  0
LINE
  5
136
330
1F
100
AcDbEntity
  8
0
  6
Continuous
 62
     7
370
    25
100
AcDbLine
 10
-247.3999999999
 20
-2.2834925484
 30
0.0
 11
-247.3999999999
 21
-2.3848073571
 31
0.0
  0
SPLINE
  5
137
330
1F
100
AcDbEntity
  8
0
  6
Continuous
 62
     7
370
    25
100
AcDbSpline
210
0.0
220
0.0
230
1.0
 70
     8
 71
     3
 72
     8
 73
     4
 74
     0
 42
0.00000001
 43
0.00000001
 40
0.2476000010451053
 40
0.2476000010451053
 40
0.2476000010451053
 40
0.2476000010451053
 40
0.2486000010518661
 40
0.2486000010518661
 40
0.2486000010518661
 40
0.2486000010518661
 10
-247.599999999934
 20
-2.283522151630021
 30
0.0
 10
-247.933333333276
 20
-2.283571502225932
 30
0.0
 10
-248.2666666666092
 20
-2.283620911736418
 30
0.0
 10
-248.599999999934
 20
-2.283670378033501
 30
0.0
  0
LINE
  5
138
330
1F
100
AcDbEntity
  8
0
  6
Continuous
 62
     7
370
    25
100
AcDbLine
 10
-247.5999999999
 20
-2.3848073571
 30
0.0
 11
-247.5999999999
 21
-2.2835221516
 31
0.0
  0
LINE
  5
139
330
1F
100
AcDbEntity
  8
0
  6
Continuous
 62
     7
370
    25
100
AcDbLine
 10
-248.5999999999
 20
-2.3848073571
 30
0.0
 11
-247.5999999999
 21
-2.3848073571
 31
0.0
  0
LINE
  5
13A
330
1F
100
AcDbEntity
  8
0
  6
Continuous
 62
     7
370
    25
100
AcDbLine
 10
-248.5999999999
 20
-2.283670378
 30
0.0
 11
-248.5999999999
 21
-2.3848073571
 31
0.0
  0
SPLINE
  5
13B
330
1F
100
AcDbEntity
  8
0
  6
Continuous
 62
     7
370
    25
100
AcDbSpline
210
0.0
220
0.0
230
1.0
 70
     8
 71
     3
 72
     8
 73
     4
 74
     0
 42
0.00000001
 43
0.00000001
 40
0.2488000010532241
 40
0.2488000010532241
 40
0.2488000010532241
 40
0.2488000010532241
 40
0.2498000010600424
 40
0.2498000010600424
 40
0.2498000010600424
 40
0.2498000010600424
 10
-248.799999999934
 20
-2.283700064609033
 30
0.0
 10
-249.1333333332756
 20
-2.283749553535305
 30
0.0
 10
-249.4666666666089
 20
-2.283799098821864
 30
0.0
 10
-249.799999999934
 20
-2.283848698333537
 30
0.0
  0
LINE
  5
13C
330
1F
100
AcDbEntity
  8
0
  6
Continuous
 62
     7
370
    25
100
AcDbLine
 10
-248.7999999999
 20
-2.3848073571
 30
0.0
 11
-248.7999999999
 21
-2.2837000646
 31
0.0
  0
LINE
  5
13D
330
1F
100
AcDbEntity
  8
0
  6
Continuous
 62
     7
370
    25
100
AcDbLine
 10
-249.7999999999
 20
-2.3848073571
 30
0.0
 11
-248.7999999999
 21
-2.3848073571
 31
0.0
  0
LINE
  5
13E
330
1F
100
AcDbEntity
  8
0
  6
Continuous
 62
     7
370
    25
100
AcDbLine
 10
-249.7999999999
 20
-2.2838486983
 30
0.0
 11
-249.7999999999
 21
-2.3848073571
 31
0.0
  0
SPLINE
  5
13F
330
1F
100
AcDbEntity
  8
0
  6
Continuous
 62
     7
370
    25
100
AcDbSpline
210
0.0
220
0.0
230
1.0
 70
     8
 71
     3
 72
     8
 73
     4
 74
     0
 42
0.00000001
 43
0.00000001
 40
0.3964000016289175
 40
0.3964000016289175
 40
0.3964000016289175
 40
0.3964000016289175
 40
0.3974000016269843
 40
0.3974000016269843
 40
0.3974000016269843
 40
0.3974000016269843
 10
-396.399999999934
 20
-2.301690731083459
 30
0.0
 10
-396.7333333332548
 20
-2.301703583118467
 30
0.0
 10
-397.0666666665885
 20
-2.301716106326469
 30
0.0
 10
-397.3999999999342
 20
-2.30172829758939
 30
0.0
  0
LINE
  5
140
330
1F
100
AcDbEntity
  8
0
  6
Continuous
 62
     7
370
    25
100
AcDbLine
 10
-396.3999999999
 20
-2.3848073571
 30
0.0
 11
-396.3999999999
 21
-2.3016907311
 31
0.0
  0
LINE
  5
141
330
1F
100
AcDbEntity
  8
0
  6
Continuous
 62
     7
370
    25
100
AcDbLine
 10
-397.3999999999
 20
-2.3848073571
 30
0.0
 11
-396.3999999999
 21
-2.3848073571
 31
0.0
  0
LINE
  5
142
330
1F
100
AcDbEntity
  8
0
  6
Continuous
 62
     7
370
    25
100
AcDbLine
 10
-397.3999999999
 20
-2.3017282976
 30
0.0
 11
-397.3999999999
 21
-2.3848073571
 31
0.0
  0
SPLINE
  5
143
330
1F
100
AcDbEntity
  8
0
  6
Continuous
 62
     7
370
    25
100
AcDbSpline
210
0.0
220
0.0
230
1.0
 70
     8
 71
     3
 72
     8
 73
     4
 74
     0
 42
0.00000001
 43
0.00000001
 40
0.3976000016266266
 40
0.3976000016266266
 40
0.3976000016266266
 40
0.3976000016266266
 40
0.3986000016249843
 40
0.3986000016249843
 40
0.3986000016249843
 40
0.3986000016249843
 10
-397.599999999934
 20
-2.301735572488673
 30
0.0
 10
-397.9333333332554
 20
-2.301747630848391
 30
0.0
 10
-398.2666666665891
 20
-2.301759356638457
 30
0.0
 10
-398.5999999999341
 20
-2.301770746731235
 30
0.0
  0
LINE
  5
144
330
1F
100
AcDbEntity
  8
0
  6
Continuous
 62
     7
370
    25
100
AcDbLine
 10
-397.5999999999
 20
-2.3848073571
 30
0.0
 11
-397.5999999999
 21
-2.3017355725
 31
0.0
  0
LINE
  5
145
330
1F
100
AcDbEntity
  8
0
  6
Continuous
 62
     7
370
    25
100
AcDbLine
 10
-398.5999999999
 20
-2.3848073571
 30
0.0
 11
-397.5999999999
 21
-2.3848073571
 31
0.0
  0
LINE
  5
146
330
1F
100
AcDbEntity
  8
0
  6
Continuous
 62
     7
370
    25
100
AcDbLine
 10
-398.5999999999
 20
-2.3017707467
 30
0.0
 11
-398.5999999999
 21
-2.3848073571
 31
0.0
  0
SPLINE
  5
147
330
1F
100
AcDbEntity
  8
0
  6
Continuous
 62
     7
370
    25
100
AcDbSpline
210
0.0
220
0.0
230
1.0
 70
     8
 71
     3
 72
     8
 73
     4
 74
     0
 42
0.00000001
 43
0.00000001
 40
0.3988000016246852
 40
0.3988000016246852
 40
0.3988000016246852
 40
0.3988000016246852
 40
0.3998000016233369
 40
0.3998000016233369
 40
0.3998000016233369
 40
0.3998000016233369
 10
-398.7999999999341
 20
-2.30177754047809
 30
0.0
 10
-399.1333333332562
 20
-2.301788796166399
 30
0.0
 10
-399.4666666665897
 20
-2.301799715530936
 30
0.0
 10
-399.7999999999339
 20
-2.301810295434486
 30
0.0
  0
LINE
  5
148
330
1F
100
AcDbEntity
  8
0
  6
Continuous
 62
     7
370
    25
100
AcDbLine
 10
-398.7999999999
 20
-2.3848073571
 30
0.0
 11
-398.7999999999
 21
-2.3017775405
 31
0.0
  0
LINE
  5
149
330
1F
100
AcDbEntity
  8
0
  6
Continuous
 62
     7
370
    25
100
AcDbLine
 10
-399.7999999999
 20
-2.3848073571
 30
0.0
 11
-398.7999999999
 21
-2.3848073571
 31
0.0
  0
LINE
  5
14A
330
1F
100
AcDbEntity
  8
0
  6
Continuous
 62
     7
370
    25
100
AcDbLine
 10
-399.7999999999
 20
-2.3018102954
 30
0.0
 11
-399.7999999999
 21
-2.3848073571
 31
0.0
  0
ENDSEC
  0
SECTION
  2
OBJECTS
  0
DICTIONARY
  5
C
330
0
100
AcDbDictionary
281
     1
  3
ACAD_GROUP
350
D
  3
ACAD_LAYOUT
350
1A
  3
ACAD_MLINESTYLE
350
17
  3
ACAD_PLOTSETTINGS
350
19
  3
ACAD_PLOTSTYLENAME
350
E
  3
ACAD_SCALELIST
350
47
  3
DWGPROPS
350
14B
  0
DICTIONARY
  5
D
102
{ACAD_REACTORS
330
C
102
}
330
C
100
AcDbDictionary
281
     1
  0
DICTIONARY
  5
1A
102
{ACAD_REACTORS
330
C
102
}
330
C
100
AcDbDictionary
281
     1
  3
Layout1
350
1E
  3
Layout2
350
26
  3
Model
350
22
  0
DICTIONARY
  5
17
102
{ACAD_REACTORS
330
C
102
}
330
C
100
AcDbDictionary
281
     1
  3
Standard
350
18
  0
DICTIONARY
  5
19
102
{ACAD_REACTORS
330
C
102
}
330
C
100
AcDbDictionary
281
     1
  0
ACDBDICTIONARYWDFLT
  5
E
102
{ACAD_REACTORS
330
C
102
}
330
C
100
AcDbDictionary
281
     1
  3
Normal
350
F
100
AcDbDictionaryWithDefault
340
F
  0
DICTIONARY
  5
47
102
{ACAD_REACTORS
330
C
102
}
330
C
100
AcDbDictionary
281
     1
  3
A0
350
48
  3
A1
350
49
  3
A2
350
4A
  3
A3
350
4B
  3
A4
350
4C
  3
A5
350
4D
  3
A6
350
4E
  3
A7
350
4F
  3
A8
350
50
  3
A9
350
51
  3
B0
350
52
  3
B1
350
53
  3
B2
350
54
  3
B3
350
55
  3
B4
350
56
  3
B5
350
57
  3
B6
350
58
  0
XRECORD
  5
14B
102
{ACAD_REACTORS
330
C
102
}
330
C
100
AcDbXrecord
280
     1
  1
DWGPROPS COOKIE
  2

  3

  4

  6

  7

  8
CX_in_command
  9

300
=
301
=
302
=
303
=
304
=
305
=
306
=
307
=
308
=
309
=
 40
0.0
 41
2461082.062611597
 42
2461082.062858704
  1

 90
        0
  0
LAYOUT
  5
1E
102
{ACAD_REACTORS
330
1A
102
}
330
1A
100
AcDbPlotSettings
  1

  2
none_device
  4

  6

 40
0.0
 41
0.0
 42
0.0
 43
0.0
 44
0.0
 45
0.0
 46
0.0
 47
0.0
 48
0.0
 49
0.0
140
0.0
141
0.0
142
1.0
143
1.0
 70
   688
 72
     1
 73
     0
 74
     5
  7

 75
    16
147
1.0
148
0.0
149
0.0
100
AcDbLayout
  1
Layout1
 70
     1
 71
     1
 10
0.0
 20
0.0
 11
420.0
 21
297.0
 12
0.0
 22
0.0
 32
0.0
 14
1.0000000000E+20
 24
1.0000000000E+20
 34
1.0000000000E+20
 15
-1.0000000000E+20
 25
-1.0000000000E+20
 35
-1.0000000000E+20
146
0.0
 13
0.0
 23
0.0
 33
0.0
 16
1.0
 26
0.0
 36
0.0
 17
0.0
 27
1.0
 37
0.0
 76
     0
330
1B
  0
LAYOUT
  5
26
102
{ACAD_REACTORS
330
1A
102
}
330
1A
100
AcDbPlotSettings
  1

  2
none_device
  4

  6

 40
0.0
 41
0.0
 42
0.0
 43
0.0
 44
0.0
 45
0.0
 46
0.0
 47
0.0
 48
0.0
 49
0.0
140
0.0
141
0.0
142
1.0
143
1.0
 70
   688
 72
     1
 73
     0
 74
     5
  7

 75
    16
147
1.0
148
0.0
149
0.0
100
AcDbLayout
  1
Layout2
 70
     1
 71
     2
 10
0.0
 20
0.0
 11
0.0
 21
0.0
 12
0.0
 22
0.0
 32
0.0
 14
0.0
 24
0.0
 34
0.0
 15
0.0
 25
0.0
 35
0.0
146
0.0
 13
0.0
 23
0.0
 33
0.0
 16
1.0
 26
0.0
 36
0.0
 17
0.0
 27
1.0
 37
0.0
 76
     0
330
23
  0
LAYOUT
  5
22
102
{ACAD_REACTORS
330
1A
102
}
330
1A
100
AcDbPlotSettings
  1

  2
none_device
  4
ANSI_A_(11.00_x_8.50_Inches)
  6

 40
6.35
 41
19.05
 42
6.35000508
 43
19.05000254
 44
279.4
 45
215.9
 46
120.7549781956
 47
88.6624370571
 48
0.0
 49
0.0
140
0.0
141
0.0
142
0.0095359019
143
1.0
 70
  1696
 72
     0
 73
     0
 74
     0
  7

 75
     0
147
0.0179189148
148
-1300.4909072572
149
0.0
100
AcDbLayout
  1
Model
 70
     1
 71
     0
 10
0.0
 20
0.0
 11
420.0
 21
297.0
 12
0.0
 22
0.0
 32
0.0
 14
-519.0
 24
-10.0
 34
0.0
 15
623.0
 25
11.9616019211
 35
0.0
146
0.0
 13
0.0
 23
0.0
 33
0.0
 16
1.0
 26
0.0
 36
0.0
 17
0.0
 27
1.0
 37
0.0
 76
     0
330
1F
331
29
  0
MLINESTYLE
  5
18
102
{ACAD_REACTORS
330
17
102
}
330
17
100
AcDbMlineStyle
  2
Standard
 70
     0
  3

 62
   256
 51
90.0
 52
90.0
 71
     2
 49
0.5
 62
   256
  6
BYLAYER
 49
-0.5
 62
   256
  6
BYLAYER
  0
ACDBPLACEHOLDER
  5
F
102
{ACAD_REACTORS
330
E
102
}
330
E
  0
SCALE
  5
48
102
{ACAD_REACTORS
330
47
102
}
330
47
100
AcDbScale
 70
     0
300
1:1
140
1.0
141
1.0
290
     1
  0
SCALE
  5
49
102
{ACAD_REACTORS
330
47
102
}
330
47
100
AcDbScale
 70
     0
300
1:2
140
1.0
141
2.0
290
     0
  0
SCALE
  5
4A
102
{ACAD_REACTORS
330
47
102
}
330
47
100
AcDbScale
 70
     0
300
1:4
140
1.0
141
4.0
290
     0
  0
SCALE
  5
4B
102
{ACAD_REACTORS
330
47
102
}
330
47
100
AcDbScale
 70
     0
300
1:5
140
1.0
141
5.0
290
     0
  0
SCALE
  5
4C
102
{ACAD_REACTORS
330
47
102
}
330
47
100
AcDbScale
 70
     0
300
1:8
140
1.0
141
8.0
290
     0
  0
SCALE
  5
4D
102
{ACAD_REACTORS
330
47
102
}
330
47
100
AcDbScale
 70
     0
300
1:10
140
1.0
141
10.0
290
     0
  0
SCALE
  5
4E
102
{ACAD_REACTORS
330
47
102
}
330
47
100
AcDbScale
 70
     0
300
1:16
140
1.0
141
16.0
290
     0
  0
SCALE
  5
4F
102
{ACAD_REACTORS
330
47
102
}
330
47
100
AcDbScale
 70
     0
300
1:20
140
1.0
141
20.0
290
     0
  0
SCALE
  5
50
102
{ACAD_REACTORS
330
47
102
}
330
47
100
AcDbScale
 70
     0
300
1:30
140
1.0
141
30.0
290
     0
  0
SCALE
  5
51
102
{ACAD_REACTORS
330
47
102
}
330
47
100
AcDbScale
 70
     0
300
1:40
140
1.0
141
40.0
290
     0
  0
SCALE
  5
52
102
{ACAD_REACTORS
330
47
102
}
330
47
100
AcDbScale
 70
     0
300
1:50
140
1.0
141
50.0
290
     0
  0
SCALE
  5
53
102
{ACAD_REACTORS
330
47
102
}
330
47
100
AcDbScale
 70
     0
300
1:100
140
1.0
141
100.0
290
     0
  0
SCALE
  5
54
102
{ACAD_REACTORS
330
47
102
}
330
47
100
AcDbScale
 70
     0
300
2:1
140
2.0
141
1.0
290
     0
  0
SCALE
  5
55
102
{ACAD_REACTORS
330
47
102
}
330
47
100
AcDbScale
 70
     0
300
4:1
140
4.0
141
1.0
290
     0
  0
SCALE
  5
56
102
{ACAD_REACTORS
330
47
102
}
330
47
100
AcDbScale
 70
     0
300
8:1
140
8.0
141
1.0
290
     0
  0
SCALE
  5
57
102
{ACAD_REACTORS
330
47
102
}
330
47
100
AcDbScale
 70
     0
300
10:1
140
10.0
141
1.0
290
     0
  0
SCALE
  5
58
102
{ACAD_REACTORS
330
47
102
}
330
47
100
AcDbScale
 70
     0
300
100:1
140
100.0
141
1.0
290
     0
  0
ENDSEC
  0
EOF
