  0
SECTION
  2
HEADER
  9
$ACADVER
  1
AC1015
  9
$ACADMAINTVER
 70
     6
  9
$DWGCODEPAGE
  3
ANSI_936
  9
$INSBASE
 10
0.0
 20
0.0
 30
0.0
  9
$EXTMIN
 10
29.6615160229
 20
-10.0
 30
0.0
  9
$EXTMAX
 10
143.3164905418
 20
14.3482438239
 30
0.0
  9
$LIMMIN
 10
0.0
 20
0.0
  9
$LIMMAX
 10
420.0
 20
297.0
  9
$ORTHOMODE
 70
     0
  9
$REGENMODE
 70
     1
  9
$FILLMODE
 70
     1
  9
$QTEXTMODE
 70
     0
  9
$MIRRTEXT
 70
     1
  9
$LTSCALE
 40
1.0
  9
$ATTMODE
 70
     1
  9
$TEXTSIZE
 40
3.5
  9
$TRACEWID
 40
1.0
  9
$TEXTSTYLE
  7
Standard
  9
$CLAYER
  8
0
  9
$CELTYPE
  6
ByLayer
  9
$CECOLOR
 62
   256
  9
$CELTSCALE
 40
1.0
  9
$DISPSILH
 70
     0
  9
$DIMSCALE
 40
1.0
  9
$DIMASZ
 40
3.556
  9
$DIMEXO
 40
0.0
  9
$DIMDLI
 40
3.75
  9
$DIMRND
 40
0.0
  9
$DIMDLE
 40
0.0
  9
$DIMEXE
 40
1.0
  9
$DIMTP
 40
0.0
  9
$DIMTM
 40
0.0
  9
$DIMTXT
 40
3.5
  9
$DIMCEN
 40
2.5
  9
$DIMTSZ
 40
0.0
  9
$DIMTOL
 70
     0
  9
$DIMLIM
 70
     0
  9
$DIMTIH
 70
     1
  9
$DIMTOH
 70
     1
  9
$DIMSE1
 70
     0
  9
$DIMSE2
 70
     0
  9
$DIMTAD
 70
     1
  9
$DIMZIN
 70
     1
  9
$DIMBLK
  1

  9
$DIMASO
 70
     1
  9
$DIMSHO
 70
     1
  9
$DIMPOST
  1

  9
$DIMAPOST
  1

  9
$DIMALT
 70
     0
  9
$DIMALTD
 70
     3
  9
$DIMALTF
 40
0.0393700787
  9
$DIMLFAC
 40
1.0
  9
$DIMTOFL
 70
     1
  9
$DIMTVP
 40
0.0
  9
$DIMTIX
 70
     0
  9
$DIMSOXD
 70
     0
  9
$DIMSAH
 70
     0
  9
$DIMBLK1
  1

  9
$DIMBLK2
  1

  9
$DIMSTYLE
  2
ISO-25
  9
$DIMCLRD
 70
     0
  9
$DIMCLRE
 70
     0
  9
$DIMCLRT
 70
     0
  9
$DIMTFAC
 40
1.0
  9
$DIMGAP
 40
1.524
  9
$DIMJUST
 70
     0
  9
$DIMSD1
 70
     0
  9
$DIMSD2
 70
     0
  9
$DIMTOLJ
 70
     0
  9
$DIMTZIN
 70
     1
  9
$DIMALTZ
 70
     0
  9
$DIMALTTZ
 70
     0
  9
$DIMUPT
 70
     0
  9
$DIMDEC
 70
     2
  9
$DIMTDEC
 70
     2
  9
$DIMALTU
 70
     2
  9
$DIMALTTD
 70
     3
  9
$DIMTXSTY
  7
Standard
  9
$DIMAUNIT
 70
     0
  9
$DIMADEC
 70
     2
  9
$DIMALTRND
 40
0.0
  9
$DIMAZIN
 70
     0
  9
$DIMDSEP
 70
    44
  9
$DIMATFIT
 70
     3
  9
$DIMFRAC
 70
     0
  9
$DIMLDRBLK
  1

  9
$DIMLUNIT
 70
     2
  9
$DIMLWD
 70
    -2
  9
$DIMLWE
 70
    -2
  9
$DIMTMOVE
 70
     0
  9
$LUNITS
 70
     2
  9
$LUPREC
 70
     2
  9
$SKETCHINC
 40
1.0
  9
$FILLETRAD
 40
0.0
  9
$AUNITS
 70
     0
  9
$AUPREC
 70
     2
  9
$MENU
  1
.
  9
$ELEVATION
 40
0.0
  9
$PELEVATION
 40
0.0
  9
$THICKNESS
 40
0.0
  9
$LIMCHECK
 70
     0
  9
$CHAMFERA
 40
0.0
  9
$CHAMFERB
 40
0.0
  9
$CHAMFERC
 40
0.0
  9
$CHAMFERD
 40
0.0
  9
$SKPOLY
 70
     0
  9
$TDCREATE
 40
2461081.717891736
  9
$TDUCREATE
 40
2461081.384558403
  9
$TDUPDATE
 40
2461081.718043611
  9
$TDUUPDATE
 40
2461081.384710278
  9
$TDINDWG
 40
0.0000000116
  9
$TDUSRTIMER
 40
0.0000000116
  9
$USRTIMER
 70
     1
  9
$ANGBASE
 50
0.0
  9
$ANGDIR
 70
     0
  9
$PDMODE
 70
     0
  9
$PDSIZE
 40
-1.0
  9
$PLINEWID
 40
0.0
  9
$SPLFRAME
 70
     0
  9
$SPLINETYPE
 70
     6
  9
$SPLINESEGS
 70
     8
  9
$HANDSEED
  5
C6
  9
$SURFTAB1
 70
     6
  9
$SURFTAB2
 70
     6
  9
$SURFTYPE
 70
     6
  9
$SURFU
 70
     6
  9
$SURFV
 70
     6
  9
$UCSBASE
  2

  9
$UCSNAME
  2

  9
$UCSORG
 10
0.0
 20
0.0
 30
0.0
  9
$UCSXDIR
 10
1.0
 20
0.0
 30
0.0
  9
$UCSYDIR
 10
0.0
 20
1.0
 30
0.0
  9
$UCSORTHOREF
  2

  9
$UCSORTHOVIEW
 70
     0
  9
$UCSORGTOP
 10
0.0
 20
0.0
 30
0.0
  9
$UCSORGBOTTOM
 10
0.0
 20
0.0
 30
0.0
  9
$UCSORGLEFT
 10
0.0
 20
0.0
 30
0.0
  9
$UCSORGRIGHT
 10
0.0
 20
0.0
 30
0.0
  9
$UCSORGFRONT
 10
0.0
 20
0.0
 30
0.0
  9
$UCSORGBACK
 10
0.0
 20
0.0
 30
0.0
  9
$PUCSBASE
  2

  9
$PUCSNAME
  2

  9
$PUCSORG
 10
0.0
 20
0.0
 30
0.0
  9
$PUCSXDIR
 10
1.0
 20
0.0
 30
0.0
  9
$PUCSYDIR
 10
0.0
 20
1.0
 30
0.0
  9
$PUCSORTHOREF
  2

  9
$PUCSORTHOVIEW
 70
     0
  9
$PUCSORGTOP
 10
0.0
 20
0.0
 30
0.0
  9
$PUCSORGBOTTOM
 10
0.0
 20
0.0
 30
0.0
  9
$PUCSORGLEFT
 10
0.0
 20
0.0
 30
0.0
  9
$PUCSORGRIGHT
 10
0.0
 20
0.0
 30
0.0
  9
$PUCSORGFRONT
 10
0.0
 20
0.0
 30
0.0
  9
$PUCSORGBACK
 10
0.0
 20
0.0
 30
0.0
  9
$USERI1
 70
     0
  9
$USERI2
 70
     0
  9
$USERI3
 70
     0
  9
$USERI4
 70
     0
  9
$USERI5
 70
     0
  9
$USERR1
 40
0.0
  9
$USERR2
 40
0.0
  9
$USERR3
 40
0.0
  9
$USERR4
 40
0.0
  9
$USERR5
 40
0.0
  9
$WORLDVIEW
 70
     1
  9
$SHADEDGE
 70
     3
  9
$SHADEDIF
 70
    70
  9
$TILEMODE
 70
     1
  9
$MAXACTVP
 70
    64
  9
$PINSBASE
 10
0.0
 20
0.0
 30
0.0
  9
$PLIMCHECK
 70
     0
  9
$PEXTMIN
 10
1.0000000000E+20
 20
1.0000000000E+20
 30
1.0000000000E+20
  9
$PEXTMAX
 10
-1.0000000000E+20
 20
-1.0000000000E+20
 30
-1.0000000000E+20
  9
$PLIMMIN
 10
0.0
 20
0.0
  9
$PLIMMAX
 10
420.0
 20
297.0
  9
$UNITMODE
 70
     0
  9
$VISRETAIN
 70
     1
  9
$PLINEGEN
 70
     0
  9
$PSLTSCALE
 70
     1
  9
$TREEDEPTH
 70
  3020
  9
$CMLSTYLE
  2
Standard
  9
$CMLJUST
 70
     0
  9
$CMLSCALE
 40
20.0
  9
$PROXYGRAPHICS
 70
     1
  9
$MEASUREMENT
 70
     1
  9
$CELWEIGHT
370
    -1
  9
$ENDCAPS
280
     0
  9
$JOINSTYLE
280
     0
  9
$LWDISPLAY
290
     1
  9
$INSUNITS
 70
     4
  9
$HYPERLINKBASE
  1

  9
$STYLESHEET
  1

  9
$XEDIT
290
     1
  9
$CEPSNTYPE
380
     0
  9
$PSTYLEMODE
290
     1
  9
$FINGERPRINTGUID
  2
{6afc0176-8954-408a-b923-539099d7fc65}
  9
$VERSIONGUID
  2
{FAEB1C32-E019-11D5-929B-00C0DF256EC4}
  9
$EXTNAMES
290
     1
  9
$PSVPSCALE
 40
0.0
  9
$OLESTARTUP
290
     0
  0
ENDSEC
  0
SECTION
  2
CLASSES
  0
CLASS
  1
ACDBDICTIONARYWDFLT
  2
AcDbDictionaryWithDefault
  3
ObjectDBX Classes
 90
        0
280
     0
281
     0
  0
CLASS
  1
VISUALSTYLE
  2
AcDbVisualStyle
  3
ObjectDBX Classes
 90
     4095
280
     0
281
     0
  0
CLASS
  1
MATERIAL
  2
AcDbMaterial
  3
ObjectDBX Classes
 90
     1153
280
     0
281
     0
  0
CLASS
  1
SCALE
  2
AcDbScale
  3
ObjectDBX Classes
 90
     1153
280
     0
281
     0
  0
CLASS
  1
TABLESTYLE
  2
AcDbTableStyle
  3
ObjectDBX Classes
 90
     4095
280
     0
281
     0
  0
CLASS
  1
MLEADERSTYLE
  2
AcDbMLeaderStyle
  3
ACDB_MLEADERSTYLE_CLASS
 90
     4095
280
     0
281
     0
  0
CLASS
  1
SUN
  2
AcDbSun
  3
SCENEOE
 90
     1153
280
     0
281
     0
  0
CLASS
  1
ACDBPLACEHOLDER
  2
AcDbPlaceHolder
  3
ObjectDBX Classes
 90
        0
280
     0
281
     0
  0
CLASS
  1
LAYOUT
  2
AcDbLayout
  3
ObjectDBX Classes
 90
        0
280
     0
281
     0
  0
ENDSEC
  0
SECTION
  2
TABLES
  0
TABLE
  2
VPORT
  5
8
330
0
100
AcDbSymbolTable
 70
     1
  0
VPORT
  5
29
330
8
100
AcDbSymbolTableRecord
100
AcDbViewportTableRecord
  2
*Active
 70
     0
 10
0.0
 20
0.0
 11
1.0
 21
1.0
 12
86.4890032823
 22
2.174121912
 13
0.0
 23
0.0
 14
10.0
 24
10.0
 15
10.0
 25
10.0
 16
0.0
 26
0.0
 36
1.0
 17
0.0
 27
0.0
 37
0.0
 40
24.8352087004
 41
4.6678920805
 42
50.0
 43
0.0
 44
0.0
 50
0.0
 51
0.0
 71
     0
 72
   100
 73
     1
 74
     3
 75
     0
 76
     0
 77
     0
 78
     0
281
     0
 65
     1
110
0.0
120
0.0
130
0.0
111
1.0
121
0.0
131
0.0
112
0.0
122
1.0
132
0.0
 79
     0
146
0.0
  0
ENDTAB
  0
TABLE
  2
LTYPE
  5
5
330
0
100
AcDbSymbolTable
 70
     6
  0
LTYPE
  5
14
330
5
100
AcDbSymbolTableRecord
100
AcDbLinetypeTableRecord
  2
ByBlock
 70
     0
  3

 72
    65
 73
     0
 40
0.0
  0
LTYPE
  5
15
330
5
100
AcDbSymbolTableRecord
100
AcDbLinetypeTableRecord
  2
ByLayer
 70
     0
  3

 72
    65
 73
     0
 40
0.0
  0
LTYPE
  5
16
330
5
100
AcDbSymbolTableRecord
100
AcDbLinetypeTableRecord
  2
Continuous
 70
     0
  3
Solid line
 72
    65
 73
     0
 40
0.0
  0
LTYPE
  5
5E
330
5
100
AcDbSymbolTableRecord
100
AcDbLinetypeTableRecord
  2
HIDDEN
 70
     0
  3
Hidden __ __ __ __ __ __ __ __ __ __ __ __ __ __
 72
    65
 73
     2
 40
1.905
 49
1.27
 74
     0
 49
-0.635
 74
     0
  0
LTYPE
  5
5F
330
5
100
AcDbSymbolTableRecord
100
AcDbLinetypeTableRecord
  2
PHANTOM
 70
     0
  3
Phantom ______  __  __  ______  __  __  ______
 72
    65
 73
     6
 40
12.7
 49
6.35
 74
     0
 49
-1.27
 74
     0
 49
1.27
 74
     0
 49
-1.27
 74
     0
 49
1.27
 74
     0
 49
-1.27
 74
     0
  0
LTYPE
  5
60
330
5
100
AcDbSymbolTableRecord
100
AcDbLinetypeTableRecord
  2
CENTER
 70
     0
  3
Center ____ _ ____ _ ____ _ ____ _ ____ _ ____
 72
    65
 73
     4
 40
10.16
 49
6.35
 74
     0
 49
-1.27
 74
     0
 49
1.27
 74
     0
 49
-1.27
 74
     0
  0
LTYPE
  5
61
330
5
100
AcDbSymbolTableRecord
100
AcDbLinetypeTableRecord
  2
CENTERX2
 70
     0
  3
Center (2x) ________  __  ________  __  _____
 72
    65
 73
     4
 40
20.32
 49
12.7
 74
     0
 49
-2.54
 74
     0
 49
2.54
 74
     0
 49
-2.54
 74
     0
  0
LTYPE
  5
62
330
5
100
AcDbSymbolTableRecord
100
AcDbLinetypeTableRecord
  2
DOT2
 70
     0
  3
Dot (.5x) ........................................
 72
    65
 73
     2
 40
0.635
 49
0.0
 74
     0
 49
-0.635
 74
     0
  0
ENDTAB
  0
TABLE
  2
LAYER
  5
2
330
0
100
AcDbSymbolTable
 70
     1
  0
LAYER
  5
10
330
2
100
AcDbSymbolTableRecord
100
AcDbLayerTableRecord
  2
0
 70
     0
 62
     7
  6
Continuous
370
    -3
390
F
  0
ENDTAB
  0
TABLE
  2
STYLE
  5
3
330
0
100
AcDbSymbolTable
 70
     1
  0
STYLE
  5
11
330
3
100
AcDbSymbolTableRecord
100
AcDbTextStyleTableRecord
  2
Standard
 70
     0
 40
0.0
 41
1.0
 50
0.0
 71
     0
 42
3.5
  3
txt
  4

  0
ENDTAB
  0
TABLE
  2
VIEW
  5
6
330
0
100
AcDbSymbolTable
 70
     0
  0
ENDTAB
  0
TABLE
  2
UCS
  5
7
330
0
100
AcDbSymbolTable
 70
     0
  0
ENDTAB
  0
TABLE
  2
APPID
  5
9
330
0
100
AcDbSymbolTable
 70
     1
  0
APPID
  5
12
330
9
100
AcDbSymbolTableRecord
100
AcDbRegAppTableRecord
  2
ACAD
 70
     0
  0
ENDTAB
  0
TABLE
  2
DIMSTYLE
  5
A
330
0
100
AcDbSymbolTable
 70
     1
100
AcDbDimStyleTable
  0
DIMSTYLE
105
27
330
A
100
AcDbSymbolTableRecord
100
AcDbDimStyleTableRecord
  2
ISO-25
 70
     0
 41
2.5
 42
0.625
 43
3.75
 44
1.25
 73
     0
 74
     0
 77
     1
 78
     8
140
2.5
141
2.5
143
0.0393700787
147
0.625
171
     3
172
     1
178
     0
271
     2
272
     2
274
     3
278
    44
283
     0
284
     8
340
11
  0
ENDTAB
  0
TABLE
  2
BLOCK_RECORD
  5
1
330
0
100
AcDbSymbolTable
 70
     1
  0
BLOCK_RECORD
  5
1F
330
1
100
AcDbSymbolTableRecord
100
AcDbBlockTableRecord
  2
*Model_Space
340
22
  0
BLOCK_RECORD
  5
1B
330
1
100
AcDbSymbolTableRecord
100
AcDbBlockTableRecord
  2
*Paper_Space
340
1E
  0
BLOCK_RECORD
  5
23
330
1
100
AcDbSymbolTableRecord
100
AcDbBlockTableRecord
  2
*Paper_Space0
340
26
  0
ENDTAB
  0
ENDSEC
  0
SECTION
  2
BLOCKS
  0
BLOCK
  5
20
330
1F
100
AcDbEntity
  8
0
100
AcDbBlockBegin
  2
*Model_Space
 70
     0
 10
0.0
 20
0.0
 30
0.0
  3
*Model_Space
  1

  0
ENDBLK
  5
21
330
1F
100
AcDbEntity
  8
0
100
AcDbBlockEnd
  0
BLOCK
  5
1C
330
1B
100
AcDbEntity
 67
     1
  8
0
100
AcDbBlockBegin
  2
*Paper_Space
 70
     0
 10
0.0
 20
0.0
 30
0.0
  3
*Paper_Space
  1

  0
ENDBLK
  5
1D
330
1B
100
AcDbEntity
 67
     1
  8
0
100
AcDbBlockEnd
  0
BLOCK
  5
24
330
23
100
AcDbEntity
  8
0
100
AcDbBlockBegin
  2
*Paper_Space0
 70
     0
 10
0.0
 20
0.0
 30
0.0
  3
*Paper_Space0
  1

  0
ENDBLK
  5
25
330
23
100
AcDbEntity
  8
0
100
AcDbBlockEnd
  0
ENDSEC
  0
SECTION
  2
ENTITIES
  0
SPLINE
  5
63
330
1F
100
AcDbEntity
  8
0
  6
Continuous
 62
     7
370
    25
100
AcDbSpline
210
0.0
220
0.0
230
1.0
 70
     8
 71
     3
 72
     8
 73
     4
 74
     0
 42
0.00000001
 43
0.00000001
 40
0.3688122680365715
 40
0.3688122680365715
 40
0.3688122680365715
 40
0.3688122680365715
 40
0.3719219102251599
 40
0.3719219102251599
 40
0.3719219102251599
 40
0.3719219102251599
 10
68.78284443437751
 20
-4.439747696293206
 30
0.0
 10
68.4497155981689
 20
-4.451422977025297
 30
0.0
 10
68.11658097008154
 20
-4.462934486796507
 30
0.0
 10
67.78343997067887
 20
-4.474257786726806
 30
0.0
  0
LINE
  5
64
330
1F
100
AcDbEntity
  8
0
  6
Continuous
 62
     7
370
    25
100
AcDbLine
 10
67.7834399707
 20
-4.5743230788
 30
0.0
 11
67.7834399707
 21
-4.474257787
 31
0.0
  0
LINE
  5
65
330
1F
100
AcDbEntity
  8
0
  6
Continuous
 62
     7
370
    25
100
AcDbLine
 10
68.7828444441
 20
-4.5398165798
 30
0.0
 11
67.7834399707
 21
-4.5743230788
 31
0.0
  0
LINE
  5
66
330
1F
100
AcDbEntity
  8
0
  6
Continuous
 62
     7
370
    25
100
AcDbLine
 10
68.7828444441
 20
-4.4397476963
 30
0.0
 11
68.7828444441
 21
-4.5398165798
 31
0.0
  0
SPLINE
  5
67
330
1F
100
AcDbEntity
  8
0
  6
Continuous
 62
     7
370
    25
100
AcDbSpline
210
0.0
220
0.0
230
1.0
 70
     8
 71
     3
 72
     8
 73
     4
 74
     0
 42
0.00000001
 43
0.00000001
 40
0.3725438386955066
 40
0.3725438386955066
 40
0.3725438386955066
 40
0.3725438386955066
 40
0.3756534814258674
 40
0.3756534814258674
 40
0.3756534814258674
 40
0.3756534814258674
 10
67.5835545913571
 20
-4.481028986347077
 30
0.0
 10
67.25041096220933
 20
-4.492276026741258
 30
0.0
 10
66.91726084585667
 20
-4.503329969450981
 30
0.0
 10
66.58410366286229
 20
-4.514166375583446
 30
0.0
  0
LINE
  5
68
330
1F
100
AcDbEntity
  8
0
  6
Continuous
 62
     7
370
    25
100
AcDbLine
 10
66.5841036629
 20
-4.6142269295
 30
0.0
 11
66.5841036629
 21
-4.5141663759
 31
0.0
  0
LINE
  5
69
330
1F
100
AcDbEntity
  8
0
  6
Continuous
 62
     7
370
    25
100
AcDbLine
 10
67.5835546008
 20
-4.5810935209
 30
0.0
 11
66.5841036629
 21
-4.6142269295
 31
0.0
  0
LINE
  5
6A
330
1F
100
AcDbEntity
  8
0
  6
Continuous
 62
     7
370
    25
100
AcDbLine
 10
67.5835546008
 20
-4.4810289863
 30
0.0
 11
67.5835546008
 21
-4.5810935209
 31
0.0
  0
SPLINE
  5
6B
330
1F
100
AcDbEntity
  8
0
  6
Continuous
 62
     7
370
    25
100
AcDbSpline
210
0.0
220
0.0
230
1.0
 70
     8
 71
     3
 72
     9
 73
     5
 74
     0
 42
0.00000001
 43
0.00000001
 40
0.3762754100166025
 40
0.3762754100166025
 40
0.3762754100166025
 40
0.3762754100166025
 40
0.3763153938665063
 40
0.3793850531565574
 40
0.3793850531565574
 40
0.3793850531565574
 40
0.3793850531565574
 10
66.3842084860779
 20
-4.520641919825642
 30
0.0
 10
66.37992470755361
 20
-4.520780123152173
 30
0.0
 10
66.04676453848876
 20
-4.531525678570085
 30
0.0
 10
65.7135971794425
 20
-4.542048495337366
 30
0.0
 10
65.38470625854555
 20
-4.552194334181889
 30
0.0
  0
LINE
  5
6C
330
1F
100
AcDbEntity
  8
0
  6
Continuous
 62
     7
370
    25
100
AcDbLine
 10
65.3847062585
 20
-4.6522496867
 30
0.0
 11
65.3847062585
 21
-4.5521943342
 31
0.0
  0
LINE
  5
6D
330
1F
100
AcDbEntity
  8
0
  6
Continuous
 62
     7
370
    25
100
AcDbLine
 10
66.384208495
 20
-4.6207016384
 30
0.0
 11
65.3847062585
 21
-4.6522496867
 31
0.0
  0
LINE
  5
6E
330
1F
100
AcDbEntity
  8
0
  6
Continuous
 62
     7
370
    25
100
AcDbLine
 10
66.384208495
 20
-4.5206419198
 30
0.0
 11
66.384208495
 21
-4.6207016384
 31
0.0
  0
LINE
  5
6F
330
1F
100
AcDbEntity
  8
0
  6
Continuous
 62
     7
370
    25
100
AcDbLine
 10
65.1848004046
 20
-4.558331164
 30
0.0
 11
65.1848004046
 21
-4.6583856093
 31
0.0
  0
SPLINE
  5
70
330
1F
100
AcDbEntity
  8
0
  6
Continuous
 62
     7
370
    25
100
AcDbSpline
210
0.0
220
0.0
230
1.0
 70
     8
 71
     3
 72
    74
 73
    70
 74
     0
 42
0.00000001
 43
0.00000001
 40
0.3800069817876977
 40
0.3800069817876977
 40
0.3800069817876977
 40
0.3800069817876977
 40
0.3841114514431748
 40
0.3919075090198435
 40
0.3997035665965122
 40
0.407499624173181
 40
0.4152956817498497
 40
0.4230917393265183
 40
0.4308877969031869
 40
0.4386838544798555
 40
0.4464799120565242
 40
0.4542759696331928
 40
0.4581739984215272
 40
0.4620720272098616
 40
0.465970055998196
 40
0.4698680847865303
 40
0.4718170991806975
 40
0.4737661135748646
 40
0.4757151279690318
 40
0.4776641423631989
 40
0.4815621711515332
 40
0.4854601999398676
 40
0.4874092143340347
 40
0.4893582287282019
 40
0.4913072431223691
 40
0.4932562575165362
 40
0.4952052719107034
 40
0.4971542863048706
 40
0.4991033006990377
 40
0.5010523150932048
 40
0.5030013294873721
 40
0.5049503438815393
 40
0.5068993582757064
 40
0.5088483726698736
 40
0.5107973870640408
 40
0.5127464014582079
 40
0.5146954158523751
 40
0.5166444302465423
 40
0.5205424590348766
 40
0.524440487823211
 40
0.5283385166115453
 40
0.5322365453998796
 40
0.536134574188214
 40
0.5400326029765483
 40
0.5439306317648827
 40
0.547828660553217
 40
0.5517266893415511
 40
0.5556247181298855
 40
0.5634207757065541
 40
0.5712168332832228
 40
0.5790128908598915
 40
0.5868089484365602
 40
0.5946050060132291
 40
0.6024010635898978
 40
0.6101971211665664
 40
0.6179931787432351
 40
0.6257892363199038
 40
0.6413813514732412
 40
0.6569734666265783
 40
0.6725655817799157
 40
0.6881576969332529
 40
0.7037498120865904
 40
0.7193419272399277
 40
0.7349340423932651
 40
0.7505261575466025
 40
0.7661182726999396
 40
0.781710387853277
 40
0.7973025030066143
 40
0.8058565931300782
 40
0.8058565931300782
 40
0.8058565931300782
 40
0.8058565931300782
 10
65.18480040456993
 20
-4.558331164008889
 30
0.0
 10
64.74503327951061
 20
-4.571764964465701
 30
0.0
 10
63.46993050122357
 20
-4.609436370183307
 30
0.0
 10
61.35930420567112
 20
-4.664831235002734
 30
0.0
 10
58.85278777622711
 20
-4.717349364921636
 30
0.0
 10
56.34596621695418
 20
-4.753472939363463
 30
0.0
 10
53.83894471437375
 20
-4.769518598315072
 30
0.0
 10
51.33184769400876
 20
-4.762782011140192
 30
0.0
 10
48.82500703427822
 20
-4.728339883957823
 30
0.0
 10
46.31864422887423
 20
-4.665936508789863
 30
0.0
 10
43.81357770701825
 20
-4.564890195279621
 30
0.0
 10
41.72703286620926
 20
-4.458568329040705
 30
0.0
 10
40.05876427834136
 20
-4.356413354009412
 30
0.0
 10
38.80933913839822
 20
-4.253692055705423
 30
0.0
 10
37.56298443746282
 20
-4.11860820413253
 30
0.0
 10
36.52904690672533
 20
-3.968088196318821
 30
0.0
 10
35.70561567444945
 20
-3.825510726488373
 30
0.0
 10
35.0897572724406
 20
-3.708871617201208
 30
0.0
 10
34.47513495629521
 20
-3.586230348751708
 30
0.0
 10
33.65545908645517
 20
-3.423455187835576
 30
0.0
 10
32.63763733241237
 20
-3.184995183803163
 30
0.0
 10
31.66389400674248
 20
-2.789528937156904
 30
0.0
 10
30.96689288246355
 20
-2.323885381850938
 30
0.0
 10
30.48856454418508
 20
-1.917547783082252
 30
0.0
 10
30.0729796127246
 20
-1.445558387024832
 30
0.0
 10
29.74758497863211
 20
-0.9057757682291598
 30
0.0
 10
29.59230641982839
 20
-0.2869712941078391
 30
0.0
 10
29.68617855969419
 20
0.3434577398954262
 30
0.0
 10
29.9478733077286
 20
0.9161571348587024
 30
0.0
 10
30.29456491696929
 20
1.439740014203481
 30
0.0
 10
30.69277111965137
 20
1.924445192332022
 30
0.0
 10
31.11975209645957
 20
2.383436978288521
 30
0.0
 10
31.56176748709426
 20
2.827865823957309
 30
0.0
 10
32.00910493356323
 20
3.266874835531192
 30
0.0
 10
32.46648828246452
 20
3.69549890208541
 30
0.0
 10
32.93781764936542
 20
4.108817598146159
 30
0.0
 10
33.42526955547255
 20
4.502975763654514
 30
0.0
 10
34.09404870101189
 20
5.004355408755784
 30
0.0
 10
34.96429800933404
 20
5.583349106708297
 30
0.0
 10
36.04964424741624
 20
6.211439887347012
 30
0.0
 10
37.16301124724659
 20
6.788023047634169
 30
0.0
 10
38.29917308378302
 20
7.318201854490504
 30
0.0
 10
39.45230239780969
 20
7.810078644849034
 30
0.0
 10
40.61818603313037
 20
8.270853229178751
 30
0.0
 10
41.79421368434931
 20
8.704949943365051
 30
0.0
 10
42.97756127722746
 20
9.118631902927858
 30
0.0
 10
44.16741496219278
 20
9.513200270648989
 30
0.0
 10
45.7625677902085
 20
10.01241022192824
 30
0.0
 10
47.77196357763248
 20
10.58538014709569
 30
0.0
 10
50.20283152863612
 20
11.19976796569985
 30
0.0
 10
52.64904088907133
 20
11.7496790446844
 30
0.0
 10
55.10775657641247
 20
12.24051976855653
 30
0.0
 10
57.57750250992096
 20
12.67257309456764
 30
0.0
 10
60.05723144263788
 20
13.04305064592478
 30
0.0
 10
62.54560370861256
 20
13.35040322618375
 30
0.0
 10
65.0404303110118
 20
13.5988811890889
 30
0.0
 10
68.37276954757532
 20
13.86512743023933
 30
0.0
 10
72.5455407429961
 20
14.08992299797923
 30
0.0
 10
77.55702191171801
 20
14.25607286166867
 30
0.0
 10
82.57015020966084
 20
14.36112380629544
 30
0.0
 10
87.58442885011564
 20
14.38371000515898
 30
0.0
 10
92.59829834402545
 20
14.31342415716314
 30
0.0
 10
97.60961947871135
 20
14.13795357411804
 30
0.0
 10
102.6167844251311
 20
13.87070745748707
 30
0.0
 10
107.6188404728622
 20
13.52086590606418
 30
0.0
 10
112.6153507013042
 20
13.09959574416365
 30
0.0
 10
117.6053515797832
 20
12.60709294724863
 30
0.0
 10
121.8382618628094
 20
12.12922408471378
 30
0.0
 10
124.4069314731858
 20
11.81081401973939
 30
0.0
 10
125.3164909845771
 20
11.69468926080699
 30
0.0
  0
LINE
  5
71
330
1F
100
AcDbEntity
  8
0
  6
Continuous
 62
     7
370
    25
100
AcDbLine
 10
125.3164905827
 20
4.5743264176
 30
0.0
 11
125.3164905827
 21
11.6946861129
 31
0.0
  0
LINE
  5
72
330
1F
100
AcDbEntity
  8
0
  6
Continuous
 62
     7
370
    25
100
AcDbLine
 10
127.3164905827
 20
4.5743264176
 30
0.0
 11
125.3164905827
 21
4.5743264176
 31
0.0
  0
LINE
  5
73
330
1F
100
AcDbEntity
  8
0
  6
Continuous
 62
     7
370
    25
100
AcDbLine
 10
127.3164905827
 20
11.4339749269
 30
0.0
 11
127.3164905827
 21
4.5743264176
 31
0.0
  0
SPLINE
  5
74
330
1F
100
AcDbEntity
  8
0
  6
Continuous
 62
     7
370
    25
100
AcDbSpline
210
0.0
220
0.0
230
1.0
 70
     8
 71
     3
 72
    11
 73
     7
 74
     0
 42
0.00000001
 43
0.00000001
 40
0.8121284993749404
 40
0.8121284993749404
 40
0.8121284993749404
 40
0.8121284993749404
 40
0.8128946181599519
 40
0.8284867333132893
 40
0.8440788484666266
 40
0.8561485847559605
 40
0.8561485847559605
 40
0.8561485847559605
 40
0.8561485847559605
 10
127.3164906345367
 20
11.43397531678156
 30
0.0
 10
127.3978967437291
 20
11.42314782496061
 30
0.0
 10
129.1360144968444
 20
11.19141349808785
 30
0.0
 10
132.5278253443023
 20
10.71620261541621
 30
0.0
 10
137.1119637581679
 20
10.02078193289378
 30
0.0
 10
140.0397622980869
 20
9.551273535715461
 30
0.0
 10
141.3164906671735
 20
9.34179791628795
 30
0.0
  0
LINE
  5
75
330
1F
100
AcDbEntity
  8
0
  6
Continuous
 62
     7
370
    25
100
AcDbLine
 10
141.3164905827
 20
5.4182190765
 30
0.0
 11
141.3164905827
 21
9.3417974013
 31
0.0
  0
LINE
  5
76
330
1F
100
AcDbEntity
  8
0
  6
Continuous
 62
     7
370
    25
100
AcDbLine
 10
143.3164905418
 20
5.4182190765
 30
0.0
 11
141.3164905827
 21
5.4182190765
 31
0.0
  0
LINE
  5
77
330
1F
100
AcDbEntity
  8
0
  6
Continuous
 62
     7
370
    25
100
AcDbLine
 10
143.3164905418
 20
2.4182190765
 30
0.0
 11
143.3164905418
 21
5.4182190765
 31
0.0
  0
LINE
  5
78
330
1F
100
AcDbEntity
  8
0
  6
Continuous
 62
     7
370
    25
100
AcDbLine
 10
141.3164905827
 20
2.4182190765
 30
0.0
 11
143.3164905418
 21
2.4182190765
 31
0.0
  0
LINE
  5
79
330
1F
100
AcDbEntity
  8
0
  6
Continuous
 62
     7
370
    25
100
AcDbLine
 10
141.3164905827
 20
-1.7711414734
 30
0.0
 11
141.3164905827
 21
2.4182190765
 31
0.0
  0
SPLINE
  5
7A
330
1F
100
AcDbEntity
  8
0
  6
Continuous
 62
     7
370
    25
100
AcDbSpline
210
0.0
220
0.0
230
1.0
 70
     8
 71
     3
 72
     9
 73
     5
 74
     0
 42
0.00000001
 43
0.00000001
 40
0.1431059563308651
 40
0.1431059563308651
 40
0.1431059563308651
 40
0.1431059563308651
 40
0.1580257817197835
 40
0.1633612761995149
 40
0.1633612761995149
 40
0.1633612761995149
 40
0.1633612761995149
 10
141.3164905008938
 20
-1.771139246572488
 30
0.0
 10
139.7182603012565
 20
-1.829840103427875
 30
0.0
 10
137.5484857842894
 20
-1.909539658277186
 30
0.0
 10
135.3787110608393
 20
-1.989239599625555
 30
0.0
 10
134.8071663282601
 20
-2.010233291083927
 30
0.0
  0
LINE
  5
7B
330
1F
100
AcDbEntity
  8
0
  6
Continuous
 62
     7
370
    25
100
AcDbLine
 10
134.8071663283
 20
-2.0102332911
 30
0.0
 11
134.8071663283
 21
-10.0
 31
0.0
  0
LINE
  5
7C
330
1F
100
AcDbEntity
  8
0
  6
Continuous
 62
     7
370
    25
100
AcDbLine
 10
134.8071663283
 20
-10.0
 30
0.0
 11
130.8071663283
 21
-10.0
 31
0.0
  0
LINE
  5
7D
330
1F
100
AcDbEntity
  8
0
  6
Continuous
 62
     7
370
    25
100
AcDbLine
 10
130.8071663283
 20
-10.0
 30
0.0
 11
130.8071663283
 21
-2.262808214
 31
0.0
  0
LINE
  5
7E
330
1F
100
AcDbEntity
  8
0
  6
Continuous
 62
     7
370
    25
100
AcDbLine
 10
130.8071663283
 20
-2.262808214
 30
0.0
 11
131.0097220399
 21
-2.2553755796
 31
0.0
  0
LINE
  5
7F
330
1F
100
AcDbEntity
  8
0
  6
Continuous
 62
     7
370
    25
100
AcDbLine
 10
131.0097220399
 20
-2.2553755796
 30
0.0
 11
131.0097220399
 21
-2.1497128944
 31
0.0
  0
SPLINE
  5
80
330
1F
100
AcDbEntity
  8
0
  6
Continuous
 62
     7
370
    25
100
AcDbSpline
210
0.0
220
0.0
230
1.0
 70
     8
 71
     3
 72
    21
 73
    17
 74
     0
 42
0.00000001
 43
0.00000001
 40
0.175177931857991
 40
0.175177931857991
 40
0.175177931857991
 40
0.175177931857991
 40
0.1892100120264582
 40
0.2048021271797955
 40
0.2203942423331328
 40
0.2359863574864702
 40
0.2515784726398074
 40
0.2671705877931448
 40
0.2827627029464821
 40
0.2983548180998195
 40
0.3139469332531569
 40
0.3295390484064942
 40
0.3451311635598315
 40
0.3529272211365002
 40
0.3607232787131689
 40
0.3682012972704036
 40
0.3682012972704036
 40
0.3682012972704036
 40
0.3682012972704036
 10
131.0097220070049
 20
-2.149712895798674
 30
0.0
 10
129.5065881098749
 20
-2.204919166248681
 30
0.0
 10
126.3332070440099
 20
-2.321456166624187
 30
0.0
 10
121.4895744787516
 20
-2.499212417740875
 30
0.0
 10
116.4788283646348
 20
-2.683085351630057
 30
0.0
 10
111.4680859681855
 20
-2.867061292766516
 30
0.0
 10
106.4573601524466
 20
-3.051487517431156
 30
0.0
 10
101.446643547547
 20
-3.236163804181012
 30
0.0
 10
96.4359102322402
 20
-3.420387012788622
 30
0.0
 10
91.42512665818276
 20
-3.603239001331894
 30
0.0
 10
86.41429197315215
 20
-3.784683622906857
 30
0.0
 10
81.40351389760525
 20
-3.967689517091431
 30
0.0
 10
77.22799792264111
 20
-4.123791864753259
 30
0.0
 10
73.88770275174531
 20
-4.251769329703522
 30
0.0
 10
71.41649604642741
 20
-4.345085378385697
 30
0.0
 10
69.78029702669726
 20
-4.404618222724933
 30
0.0
 10
68.9791994594249
 20
-4.432847173182717
 30
0.0
  0
LINE
  5
81
330
1F
100
AcDbEntity
  8
0
  6
Continuous
 62
     7
370
    25
100
AcDbLine
 10
68.9791994594
 20
-10.0
 30
0.0
 11
68.9791994594
 21
-4.4328471732
 31
0.0
  0
LINE
  5
82
330
1F
100
AcDbEntity
  8
0
  6
Continuous
 62
     7
370
    25
100
AcDbLine
 10
64.9791994587
 20
-10.0
 30
0.0
 11
68.9791994594
 21
-10.0
 31
0.0
  0
LINE
  5
83
330
1F
100
AcDbEntity
  8
0
  6
Continuous
 62
     7
370
    25
100
AcDbLine
 10
64.9791994587
 20
-4.6646333632
 30
0.0
 11
64.9791994587
 21
-10.0
 31
0.0
  0
LINE
  5
84
330
1F
100
AcDbEntity
  8
0
  6
Continuous
 62
     7
370
    25
100
AcDbLine
 10
65.1848004046
 20
-4.6583856093
 30
0.0
 11
64.9791994587
 21
-4.6646333632
 31
0.0
  0
LINE
  5
85
330
1F
100
AcDbEntity
  8
0
  6
Continuous
 62
     7
370
    25
100
AcDbLine
 10
134.6073008394
 20
-2.1233650445
 30
0.0
 11
134.6073008394
 21
-2.0175746389
 31
0.0
  0
SPLINE
  5
86
330
1F
100
AcDbEntity
  8
0
  6
Continuous
 62
     7
370
    25
100
AcDbSpline
210
0.0
220
0.0
230
1.0
 70
     8
 71
     3
 72
     8
 73
     4
 74
     0
 42
0.00000001
 43
0.00000001
 40
0.1639832053102883
 40
0.1639832053102883
 40
0.1639832053102883
 40
0.1639832053102883
 40
0.1670928518079071
 40
0.1670928518079071
 40
0.1670928518079071
 40
0.1670928518079071
 10
134.6073008932227
 20
-2.017574637140817
 30
0.0
 10
134.2741917326559
 20
-2.029810200624881
 30
0.0
 10
133.9410825666944
 20
-2.042045675763542
 30
0.0
 10
133.6079733950624
 20
-2.054281011687471
 30
0.0
  0
LINE
  5
87
330
1F
100
AcDbEntity
  8
0
  6
Continuous
 62
     7
370
    25
100
AcDbLine
 10
133.6079733951
 20
-2.0542810118
 30
0.0
 11
133.6079733951
 21
-2.1600346376
 31
0.0
  0
LINE
  5
88
330
1F
100
AcDbEntity
  8
0
  6
Continuous
 62
     7
370
    25
100
AcDbLine
 10
133.6079733951
 20
-2.1600346376
 30
0.0
 11
134.6073008394
 21
-2.1233650445
 31
0.0
  0
LINE
  5
89
330
1F
100
AcDbEntity
  8
0
  6
Continuous
 62
     7
370
    25
100
AcDbLine
 10
133.4081079062
 20
-2.1673685562
 30
0.0
 11
133.4081079062
 21
-2.0616221955
 31
0.0
  0
SPLINE
  5
8A
330
1F
100
AcDbEntity
  8
0
  6
Continuous
 62
     7
370
    25
100
AcDbSpline
210
0.0
220
0.0
230
1.0
 70
     8
 71
     3
 72
     8
 73
     4
 74
     0
 42
0.00000001
 43
0.00000001
 40
0.1677147810074446
 40
0.1677147810074446
 40
0.1677147810074446
 40
0.1677147810074446
 40
0.1708244272637184
 40
0.1708244272637184
 40
0.1708244272637184
 40
0.1708244272637184
 10
133.4081079235325
 20
-2.061622194948882
 30
0.0
 10
133.0749987754744
 20
-2.073857472202554
 30
0.0
 10
132.7418896216907
 20
-2.086092600067653
 30
0.0
 10
132.4087804619058
 20
-2.09832752767486
 30
0.0
  0
LINE
  5
8B
330
1F
100
AcDbEntity
  8
0
  6
Continuous
 62
     7
370
    25
100
AcDbLine
 10
132.4087804619
 20
-2.0983275275
 30
0.0
 11
132.4087804619
 21
-2.2040381493
 31
0.0
  0
LINE
  5
8C
330
1F
100
AcDbEntity
  8
0
  6
Continuous
 62
     7
370
    25
100
AcDbLine
 10
132.4087804619
 20
-2.2040381493
 30
0.0
 11
133.4081079062
 21
-2.1673685562
 31
0.0
  0
LINE
  5
8D
330
1F
100
AcDbEntity
  8
0
  6
Continuous
 62
     7
370
    25
100
AcDbLine
 10
132.208914973
 20
-2.2113720679
 30
0.0
 11
132.208914973
 21
-2.1056684593
 31
0.0
  0
SPLINE
  5
8E
330
1F
100
AcDbEntity
  8
0
  6
Continuous
 62
     7
370
    25
100
AcDbSpline
210
0.0
220
0.0
230
1.0
 70
     8
 71
     3
 72
     9
 73
     5
 74
     0
 42
0.00000001
 43
0.00000001
 40
0.1714463565261591
 40
0.1714463565261591
 40
0.1714463565261591
 40
0.1714463565261591
 40
0.1736178968731208
 40
0.1745560025577771
 40
0.1745560025577771
 40
0.1745560025577771
 40
0.1745560025577771
 10
132.2089149617178
 20
-2.105668459933314
 30
0.0
 10
131.9762968675558
 20
-2.114212345116965
 30
0.0
 10
131.6431877251954
 20
-2.126447042752821
 30
0.0
 10
131.3100785765861
 20
-2.138681494433694
 30
0.0
 10
131.2095875287431
 20
-2.142372309615128
 30
0.0
  0
LINE
  5
8F
330
1F
100
AcDbEntity
  8
0
  6
Continuous
 62
     7
370
    25
100
AcDbLine
 10
131.2095875287
 20
-2.1423723093
 30
0.0
 11
131.2095875287
 21
-2.248041661
 31
0.0
  0
LINE
  5
90
330
1F
100
AcDbEntity
  8
0
  6
Continuous
 62
     7
370
    25
100
AcDbLine
 10
131.2095875287
 20
-2.248041661
 30
0.0
 11
132.208914973
 21
-2.2113720679
 31
0.0
  0
LINE
  5
91
330
1F
100
AcDbEntity
  8
0
  6
Continuous
 62
     7
370
    25
100
AcDbLine
 10
67.7062007801
 20
-0.4688382677
 30
0.0
 11
60.8038556075
 21
-0.4688382677
 31
0.0
  0
ARC
  5
92
330
1F
100
AcDbEntity
  8
0
  6
Continuous
 62
     7
370
    25
100
AcDbCircle
 10
67.7062007801
 20
0.5311617323
 30
0.0
 40
1.000000000000006
100
AcDbArc
 50
270.0
 51
43.4306451953
  0
LINE
  5
93
330
1F
100
AcDbEntity
  8
0
  6
Continuous
 62
     7
370
    25
100
AcDbLine
 10
61.5300626792
 20
8.5098474495
 30
0.0
 11
68.4324078518
 21
1.2186377602
 31
0.0
  0
ARC
  5
94
330
1F
100
AcDbEntity
  8
0
  6
Continuous
 62
     7
370
    25
100
AcDbCircle
 10
60.8038556075
 20
7.8223714216
 30
0.0
 40
1.0
100
AcDbArc
 50
43.4306451952
 51
180.0
  0
LINE
  5
95
330
1F
100
AcDbEntity
  8
0
  6
Continuous
 62
     7
370
    25
100
AcDbLine
 10
59.8038556075
 20
0.5311617323
 30
0.0
 11
59.8038556075
 21
7.8223714216
 31
0.0
  0
ARC
  5
96
330
1F
100
AcDbEntity
  8
0
  6
Continuous
 62
     7
370
    25
100
AcDbCircle
 10
60.8038556075
 20
0.5311617323
 30
0.0
 40
1.0
100
AcDbArc
 50
180.0
 51
270.0
  0
LINE
  5
97
330
1F
100
AcDbEntity
  8
0
  6
Continuous
 62
     7
370
    25
100
AcDbLine
 10
106.9050199151
 20
9.3333056239
 30
0.0
 11
106.9050199151
 21
1.9816431506
 31
0.0
  0
ARC
  5
98
330
1F
100
AcDbEntity
  8
0
  6
Continuous
 62
     7
370
    25
100
AcDbCircle
 10
105.9050199151
 20
9.3333056239
 30
0.0
 40
1.0
100
AcDbArc
 50
0.0
 51
90.0
  0
LINE
  5
99
330
1F
100
AcDbEntity
  8
0
  6
Continuous
 62
     7
370
    25
100
AcDbLine
 10
98.7059712983
 20
10.3333056239
 30
0.0
 11
105.9050199151
 21
10.3333056239
 31
0.0
  0
ARC
  5
9A
330
1F
100
AcDbEntity
  8
0
  6
Continuous
 62
     7
370
    25
100
AcDbCircle
 10
98.7059712983
 20
9.3333056239
 30
0.0
 40
0.9999999999999982
100
AcDbArc
 50
90.0
 51
224.3990802785
  0
LINE
  5
9B
330
1F
100
AcDbEntity
  8
0
  6
Continuous
 62
     7
370
    25
100
AcDbLine
 10
105.1905360044
 20
1.281991279
 30
0.0
 11
97.9914873876
 21
8.6336537523
 31
0.0
  0
ARC
  5
9C
330
1F
100
AcDbEntity
  8
0
  6
Continuous
 62
     7
370
    25
100
AcDbCircle
 10
105.9050199151
 20
1.9816431506
 30
0.0
 40
1.0
100
AcDbArc
 50
224.3990802785
 51
0.0
  0
LINE
  5
9D
330
1F
100
AcDbEntity
  8
0
  6
Continuous
 62
     7
370
    25
100
AcDbLine
 10
109.7380836922
 20
2.3678386714
 30
0.0
 11
109.7380836922
 21
9.3333056239
 31
0.0
  0
ARC
  5
9E
330
1F
100
AcDbEntity
  8
0
  6
Continuous
 62
     7
370
    25
100
AcDbCircle
 10
110.7380836922
 20
2.3678386714
 30
0.0
 40
1.0
100
AcDbArc
 50
180.0
 51
321.162326972
  0
LINE
  5
9F
330
1F
100
AcDbEntity
  8
0
  6
Continuous
 62
     7
370
    25
100
AcDbLine
 10
117.1249332997
 20
8.706189519
 30
0.0
 11
111.5170094852
 21
1.7407225665
 31
0.0
  0
ARC
  5
A0
330
1F
100
AcDbEntity
  8
0
  6
Continuous
 62
     7
370
    25
100
AcDbCircle
 10
116.3460075067
 20
9.3333056239
 30
0.0
 40
1.000000000000002
100
AcDbArc
 50
321.162326972
 51
90.0
  0
LINE
  5
A1
330
1F
100
AcDbEntity
  8
0
  6
Continuous
 62
     7
370
    25
100
AcDbLine
 10
110.7380836922
 20
10.3333056239
 30
0.0
 11
116.3460075067
 21
10.3333056239
 31
0.0
  0
ARC
  5
A2
330
1F
100
AcDbEntity
  8
0
  6
Continuous
 62
     7
370
    25
100
AcDbCircle
 10
110.7380836922
 20
9.3333056239
 30
0.0
 40
1.0
100
AcDbArc
 50
90.0
 51
180.0
  0
LINE
  5
A3
330
1F
100
AcDbEntity
  8
0
  6
Continuous
 62
     7
370
    25
100
AcDbLine
 10
120.5315352295
 20
-0.4688382677
 30
0.0
 11
114.9236114151
 21
-0.4688382677
 31
0.0
  0
ARC
  5
A4
330
1F
100
AcDbEntity
  8
0
  6
Continuous
 62
     7
370
    25
100
AcDbCircle
 10
120.5315352295
 20
0.5311617323
 30
0.0
 40
1.0
100
AcDbArc
 50
270.0
 51
0.0
  0
LINE
  5
A5
330
1F
100
AcDbEntity
  8
0
  6
Continuous
 62
     7
370
    25
100
AcDbLine
 10
121.5315352295
 20
7.4966286847
 30
0.0
 11
121.5315352295
 21
0.5311617323
 31
0.0
  0
ARC
  5
A6
330
1F
100
AcDbEntity
  8
0
  6
Continuous
 62
     7
370
    25
100
AcDbCircle
 10
120.5315352295
 20
7.4966286847
 30
0.0
 40
1.0
100
AcDbArc
 50
360.0
 51
141.162326972
  0
LINE
  5
A7
330
1F
100
AcDbEntity
  8
0
  6
Continuous
 62
     7
370
    25
100
AcDbLine
 10
114.1446856221
 20
1.1582778372
 30
0.0
 11
119.7526094366
 21
8.1237447896
 31
0.0
  0
ARC
  5
A8
330
1F
100
AcDbEntity
  8
0
  6
Continuous
 62
     7
370
    25
100
AcDbCircle
 10
114.9236114151
 20
0.5311617323
 30
0.0
 40
1.000000000000002
100
AcDbArc
 50
141.162326972
 51
270.0
  0
LINE
  5
A9
330
1F
100
AcDbEntity
  8
0
  6
Continuous
 62
     7
370
    25
100
AcDbLine
 10
71.2562640835
 20
1.3546199066
 30
0.0
 11
64.353918911
 21
8.645829596
 31
0.0
  0
ARC
  5
AA
330
1F
100
AcDbEntity
  8
0
  6
Continuous
 62
     7
370
    25
100
AcDbCircle
 10
71.9824711553
 20
2.0420959345
 30
0.0
 40
1.000000000000003
100
AcDbArc
 50
223.4306451953
 51
0.0
  0
LINE
  5
AB
330
1F
100
AcDbEntity
  8
0
  6
Continuous
 62
     7
370
    25
100
AcDbLine
 10
72.9824711553
 20
9.3333056239
 30
0.0
 11
72.9824711553
 21
2.0420959345
 31
0.0
  0
ARC
  5
AC
330
1F
100
AcDbEntity
  8
0
  6
Continuous
 62
     7
370
    25
100
AcDbCircle
 10
71.9824711553
 20
9.3333056239
 30
0.0
 40
1.000000000000002
100
AcDbArc
 50
0.0
 51
90.0
  0
LINE
  5
AD
330
1F
100
AcDbEntity
  8
0
  6
Continuous
 62
     7
370
    25
100
AcDbLine
 10
65.0801259827
 20
10.3333056239
 30
0.0
 11
71.9824711553
 21
10.3333056239
 31
0.0
  0
ARC
  5
AE
330
1F
100
AcDbEntity
  8
0
  6
Continuous
 62
     7
370
    25
100
AcDbCircle
 10
65.0801259827
 20
9.3333056239
 30
0.0
 40
1.0
100
AcDbArc
 50
90.0
 51
223.4306451953
  0
LINE
  5
AF
330
1F
100
AcDbEntity
  8
0
  6
Continuous
 62
     7
370
    25
100
AcDbLine
 10
76.0790857375
 20
1.9453752946
 30
0.0
 11
76.0790857375
 21
9.3333056239
 31
0.0
  0
ARC
  5
B0
330
1F
100
AcDbEntity
  8
0
  6
Continuous
 62
     7
370
    25
100
AcDbCircle
 10
77.0790857375
 20
1.9453752946
 30
0.0
 40
1.0
100
AcDbArc
 50
180.0
 51
315.0
  0
LINE
  5
B1
330
1F
100
AcDbEntity
  8
0
  6
Continuous
 62
     7
370
    25
100
AcDbLine
 10
85.174122848
 20
8.6261988427
 30
0.0
 11
77.7861925187
 21
1.2382685134
 31
0.0
  0
ARC
  5
B2
330
1F
100
AcDbEntity
  8
0
  6
Continuous
 62
     7
370
    25
100
AcDbCircle
 10
84.4670160668
 20
9.3333056239
 30
0.0
 40
1.000000000000009
100
AcDbArc
 50
315.0
 51
90.0
  0
LINE
  5
B3
330
1F
100
AcDbEntity
  8
0
  6
Continuous
 62
     7
370
    25
100
AcDbLine
 10
77.0790857375
 20
10.3333056239
 30
0.0
 11
84.4670160668
 21
10.3333056239
 31
0.0
  0
ARC
  5
B4
330
1F
100
AcDbEntity
  8
0
  6
Continuous
 62
     7
370
    25
100
AcDbCircle
 10
77.0790857375
 20
9.3333056239
 30
0.0
 40
1.0
100
AcDbArc
 50
90.0
 51
180.0
  0
LINE
  5
B5
330
1F
100
AcDbEntity
  8
0
  6
Continuous
 62
     7
370
    25
100
AcDbLine
 10
89.9778442114
 20
7.9190920615
 30
0.0
 11
89.9778442114
 21
0.5311617323
 31
0.0
  0
ARC
  5
B6
330
1F
100
AcDbEntity
  8
0
  6
Continuous
 62
     7
370
    25
100
AcDbCircle
 10
88.9778442114
 20
7.9190920615
 30
0.0
 40
1.000000000000005
100
AcDbArc
 50
360.0
 51
135.0
  0
LINE
  5
B7
330
1F
100
AcDbEntity
  8
0
  6
Continuous
 62
     7
370
    25
100
AcDbLine
 10
80.882807101
 20
1.2382685134
 30
0.0
 11
88.2707374303
 21
8.6261988427
 31
0.0
  0
ARC
  5
B8
330
1F
100
AcDbEntity
  8
0
  6
Continuous
 62
     7
370
    25
100
AcDbCircle
 10
81.5899138822
 20
0.5311617323
 30
0.0
 40
1.000000000000008
100
AcDbArc
 50
135.0
 51
270.0
  0
LINE
  5
B9
330
1F
100
AcDbEntity
  8
0
  6
Continuous
 62
     7
370
    25
100
AcDbLine
 10
88.9778442114
 20
-0.4688382677
 30
0.0
 11
81.5899138822
 21
-0.4688382677
 31
0.0
  0
ARC
  5
BA
330
1F
100
AcDbEntity
  8
0
  6
Continuous
 62
     7
370
    25
100
AcDbCircle
 10
88.9778442114
 20
0.5311617323
 30
0.0
 40
1.0
100
AcDbArc
 50
270.0
 51
0.0
  0
LINE
  5
BB
330
1F
100
AcDbEntity
  8
0
  6
Continuous
 62
     7
370
    25
100
AcDbLine
 10
94.7889427044
 20
8.5824760771
 30
0.0
 11
101.9879913211
 21
1.2308136038
 31
0.0
  0
ARC
  5
BC
330
1F
100
AcDbEntity
  8
0
  6
Continuous
 62
     7
370
    25
100
AcDbCircle
 10
94.0744587937
 20
7.8828242055
 30
0.0
 40
1.00000000000001
100
AcDbArc
 50
44.3990802785
 51
180.0
  0
LINE
  5
BD
330
1F
100
AcDbEntity
  8
0
  6
Continuous
 62
     7
370
    25
100
AcDbLine
 10
93.0744587937
 20
0.5311617323
 30
0.0
 11
93.0744587937
 21
7.8828242055
 31
0.0
  0
ARC
  5
BE
330
1F
100
AcDbEntity
  8
0
  6
Continuous
 62
     7
370
    25
100
AcDbCircle
 10
94.0744587937
 20
0.5311617323
 30
0.0
 40
1.0
100
AcDbArc
 50
180.0
 51
270.0
  0
LINE
  5
BF
330
1F
100
AcDbEntity
  8
0
  6
Continuous
 62
     7
370
    25
100
AcDbLine
 10
101.2735074105
 20
-0.4688382677
 30
0.0
 11
94.0744587937
 21
-0.4688382677
 31
0.0
  0
ARC
  5
C0
330
1F
100
AcDbEntity
  8
0
  6
Continuous
 62
     7
370
    25
100
AcDbCircle
 10
101.2735074105
 20
0.5311617323
 30
0.0
 40
0.9999999999999969
100
AcDbArc
 50
270.0
 51
44.3990802785
  0
SPLINE
  5
C1
330
1F
100
AcDbEntity
  8
0
  6
Continuous
 62
     7
370
    25
100
AcDbSpline
210
0.0
220
0.0
230
1.0
 70
     8
 71
     3
 72
     9
 73
     5
 74
     0
 42
0.00000001
 43
0.00000001
 40
0.0
 40
0.0
 40
0.0
 40
0.0
 40
0.5
 40
1.0
 40
1.0
 40
1.0
 40
1.0
 10
48.86413835196455
 20
-2.321780467771224
 30
0.0
 10
48.84189582160922
 20
-2.322505231829098
 30
0.0
 10
48.79739305779096
 20
-2.323592738404936
 30
0.0
 10
48.75287257951275
 20
-2.323955336780851
 30
0.0
 10
48.73061234017777
 20
-2.323955336780851
 30
0.0
  0
ARC
  5
C2
330
1F
100
AcDbEntity
  8
0
  6
Continuous
 62
     7
370
    25
100
AcDbCircle
 10
48.9976643633
 20
1.7760446632
 30
0.0
 40
4.099999999999471
100
AcDbArc
 50
268.133700015
 51
91.8662999911
  0
SPLINE
  5
C3
330
1F
100
AcDbEntity
  8
0
  6
Continuous
 62
     7
370
    25
100
AcDbSpline
210
0.0
220
0.0
230
1.0
 70
     8
 71
     3
 72
     9
 73
     5
 74
     0
 42
0.00000001
 43
0.00000001
 40
0.0
 40
0.0
 40
0.0
 40
0.0
 40
0.5
 40
1.0
 40
1.0
 40
1.0
 40
1.0
 10
48.7306123401776
 20
5.876044663219139
 30
0.0
 10
48.75287257943857
 20
5.876044663219138
 30
0.0
 10
48.79739305795997
 20
5.875682064826515
 30
0.0
 10
48.84189582123933
 20
5.874594558277033
 30
0.0
 10
48.86413835152082
 20
5.873869794223974
 30
0.0
  0
SPLINE
  5
C4
330
1F
100
AcDbEntity
  8
0
  6
Continuous
 62
     7
370
    25
100
AcDbSpline
210
0.0
220
0.0
230
1.0
 70
     8
 71
     3
 72
    10
 73
     6
 74
     0
 42
0.00000001
 43
0.00000001
 40
0.0
 40
0.0
 40
0.0
 40
0.0
 40
0.5
 40
0.5
 40
1.0
 40
1.0
 40
1.0
 40
1.0
 10
48.7306123401776
 20
-2.323955336780851
 30
0.0
 10
45.99727900684427
 20
-2.323955336780851
 30
0.0
 10
44.63061234017761
 20
0.4093779965524794
 30
0.0
 10
44.63061234017759
 20
3.14271132988581
 30
0.0
 10
45.99727900684427
 20
5.87604466321914
 30
0.0
 10
48.7306123401776
 20
5.876044663219139
 30
0.0
  0
ENDSEC
  0
SECTION
  2
OBJECTS
  0
DICTIONARY
  5
C
330
0
100
AcDbDictionary
281
     1
  3
ACAD_GROUP
350
D
  3
ACAD_LAYOUT
350
1A
  3
ACAD_MLINESTYLE
350
17
  3
ACAD_PLOTSETTINGS
350
19
  3
ACAD_PLOTSTYLENAME
350
E
  3
ACAD_SCALELIST
350
47
  3
DWGPROPS
350
C5
  0
DICTIONARY
  5
D
102
{ACAD_REACTORS
330
C
102
}
330
C
100
AcDbDictionary
281
     1
  0
DICTIONARY
  5
1A
102
{ACAD_REACTORS
330
C
102
}
330
C
100
AcDbDictionary
281
     1
  3
Layout1
350
1E
  3
Layout2
350
26
  3
Model
350
22
  0
DICTIONARY
  5
17
102
{ACAD_REACTORS
330
C
102
}
330
C
100
AcDbDictionary
281
     1
  3
Standard
350
18
  0
DICTIONARY
  5
19
102
{ACAD_REACTORS
330
C
102
}
330
C
100
AcDbDictionary
281
     1
  0
ACDBDICTIONARYWDFLT
  5
E
102
{ACAD_REACTORS
330
C
102
}
330
C
100
AcDbDictionary
281
     1
  3
Normal
350
F
100
AcDbDictionaryWithDefault
340
F
  0
DICTIONARY
  5
47
102
{ACAD_REACTORS
330
C
102
}
330
C
100
AcDbDictionary
281
     1
  3
A0
350
48
  3
A1
350
49
  3
A2
350
4A
  3
A3
350
4B
  3
A4
350
4C
  3
A5
350
4D
  3
A6
350
4E
  3
A7
350
4F
  3
A8
350
50
  3
A9
350
51
  3
B0
350
52
  3
B1
350
53
  3
B2
350
54
  3
B3
350
55
  3
B4
350
56
  3
B5
350
57
  3
B6
350
58
  0
XRECORD
  5
C5
102
{ACAD_REACTORS
330
C
102
}
330
C
100
AcDbXrecord
280
     1
  1
DWGPROPS COOKIE
  2

  3

  4

  6

  7

  8
CX_in_command
  9

300
=
301
=
302
=
303
=
304
=
305
=
306
=
307
=
308
=
309
=
 40
0.0
 41
2461081.384558403
 42
2461081.384710278
  1

 90
        0
  0
LAYOUT
  5
1E
102
{ACAD_REACTORS
330
1A
102
}
330
1A
100
AcDbPlotSettings
  1

  2
none_device
  4

  6

 40
0.0
 41
0.0
 42
0.0
 43
0.0
 44
0.0
 45
0.0
 46
0.0
 47
0.0
 48
0.0
 49
0.0
140
0.0
141
0.0
142
1.0
143
1.0
 70
   688
 72
     1
 73
     0
 74
     5
  7

 75
    16
147
1.0
148
0.0
149
0.0
100
AcDbLayout
  1
Layout1
 70
     1
 71
     1
 10
0.0
 20
0.0
 11
420.0
 21
297.0
 12
0.0
 22
0.0
 32
0.0
 14
1.0000000000E+20
 24
1.0000000000E+20
 34
1.0000000000E+20
 15
-1.0000000000E+20
 25
-1.0000000000E+20
 35
-1.0000000000E+20
146
0.0
 13
0.0
 23
0.0
 33
0.0
 16
1.0
 26
0.0
 36
0.0
 17
0.0
 27
1.0
 37
0.0
 76
     0
330
1B
  0
LAYOUT
  5
26
102
{ACAD_REACTORS
330
1A
102
}
330
1A
100
AcDbPlotSettings
  1

  2
none_device
  4

  6

 40
0.0
 41
0.0
 42
0.0
 43
0.0
 44
0.0
 45
0.0
 46
0.0
 47
0.0
 48
0.0
 49
0.0
140
0.0
141
0.0
142
1.0
143
1.0
 70
   688
 72
     1
 73
     0
 74
     5
  7

 75
    16
147
1.0
148
0.0
149
0.0
100
AcDbLayout
  1
Layout2
 70
     1
 71
     2
 10
0.0
 20
0.0
 11
0.0
 21
0.0
 12
0.0
 22
0.0
 32
0.0
 14
0.0
 24
0.0
 34
0.0
 15
0.0
 25
0.0
 35
0.0
146
0.0
 13
0.0
 23
0.0
 33
0.0
 16
1.0
 26
0.0
 36
0.0
 17
0.0
 27
1.0
 37
0.0
 76
     0
330
23
  0
LAYOUT
  5
22
102
{ACAD_REACTORS
330
1A
102
}
330
1A
100
AcDbPlotSettings
  1

  2
none_device
  4
ANSI_A_(11.00_x_8.50_Inches)
  6

 40
6.35
 41
19.05
 42
6.35000508
 43
19.05000254
 44
279.4
 45
215.9
 46
-77.1412489037
 47
83.6087638489
 48
0.0
 49
0.0
140
0.0
141
0.0
142
0.0958163076
143
1.0
 70
  1696
 72
     0
 73
     0
 74
     0
  7

 75
     0
147
0.0179189148
148
-1300.4909072572
149
0.0
100
AcDbLayout
  1
Model
 70
     1
 71
     0
 10
0.0
 20
0.0
 11
420.0
 21
297.0
 12
0.0
 22
0.0
 32
0.0
 14
29.6615160229
 24
-10.0
 34
0.0
 15
143.3164905418
 25
14.3482438239
 35
0.0
146
0.0
 13
0.0
 23
0.0
 33
0.0
 16
1.0
 26
0.0
 36
0.0
 17
0.0
 27
1.0
 37
0.0
 76
     0
330
1F
331
29
  0
MLINESTYLE
  5
18
102
{ACAD_REACTORS
330
17
102
}
330
17
100
AcDbMlineStyle
  2
Standard
 70
     0
  3

 62
   256
 51
90.0
 52
90.0
 71
     2
 49
0.5
 62
   256
  6
BYLAYER
 49
-0.5
 62
   256
  6
BYLAYER
  0
ACDBPLACEHOLDER
  5
F
102
{ACAD_REACTORS
330
E
102
}
330
E
  0
SCALE
  5
48
102
{ACAD_REACTORS
330
47
102
}
330
47
100
AcDbScale
 70
     0
300
1:1
140
1.0
141
1.0
290
     1
  0
SCALE
  5
49
102
{ACAD_REACTORS
330
47
102
}
330
47
100
AcDbScale
 70
     0
300
1:2
140
1.0
141
2.0
290
     0
  0
SCALE
  5
4A
102
{ACAD_REACTORS
330
47
102
}
330
47
100
AcDbScale
 70
     0
300
1:4
140
1.0
141
4.0
290
     0
  0
SCALE
  5
4B
102
{ACAD_REACTORS
330
47
102
}
330
47
100
AcDbScale
 70
     0
300
1:5
140
1.0
141
5.0
290
     0
  0
SCALE
  5
4C
102
{ACAD_REACTORS
330
47
102
}
330
47
100
AcDbScale
 70
     0
300
1:8
140
1.0
141
8.0
290
     0
  0
SCALE
  5
4D
102
{ACAD_REACTORS
330
47
102
}
330
47
100
AcDbScale
 70
     0
300
1:10
140
1.0
141
10.0
290
     0
  0
SCALE
  5
4E
102
{ACAD_REACTORS
330
47
102
}
330
47
100
AcDbScale
 70
     0
300
1:16
140
1.0
141
16.0
290
     0
  0
SCALE
  5
4F
102
{ACAD_REACTORS
330
47
102
}
330
47
100
AcDbScale
 70
     0
300
1:20
140
1.0
141
20.0
290
     0
  0
SCALE
  5
50
102
{ACAD_REACTORS
330
47
102
}
330
47
100
AcDbScale
 70
     0
300
1:30
140
1.0
141
30.0
290
     0
  0
SCALE
  5
51
102
{ACAD_REACTORS
330
47
102
}
330
47
100
AcDbScale
 70
     0
300
1:40
140
1.0
141
40.0
290
     0
  0
SCALE
  5
52
102
{ACAD_REACTORS
330
47
102
}
330
47
100
AcDbScale
 70
     0
300
1:50
140
1.0
141
50.0
290
     0
  0
SCALE
  5
53
102
{ACAD_REACTORS
330
47
102
}
330
47
100
AcDbScale
 70
     0
300
1:100
140
1.0
141
100.0
290
     0
  0
SCALE
  5
54
102
{ACAD_REACTORS
330
47
102
}
330
47
100
AcDbScale
 70
     0
300
2:1
140
2.0
141
1.0
290
     0
  0
SCALE
  5
55
102
{ACAD_REACTORS
330
47
102
}
330
47
100
AcDbScale
 70
     0
300
4:1
140
4.0
141
1.0
290
     0
  0
SCALE
  5
56
102
{ACAD_REACTORS
330
47
102
}
330
47
100
AcDbScale
 70
     0
300
8:1
140
8.0
141
1.0
290
     0
  0
SCALE
  5
57
102
{ACAD_REACTORS
330
47
102
}
330
47
100
AcDbScale
 70
     0
300
10:1
140
10.0
141
1.0
290
     0
  0
SCALE
  5
58
102
{ACAD_REACTORS
330
47
102
}
330
47
100
AcDbScale
 70
     0
300
100:1
140
100.0
141
1.0
290
     0
  0
ENDSEC
  0
EOF
