  0
SECTION
  2
HEADER
  9
$ACADVER
  1
AC1015
  9
$ACADMAINTVER
 70
     6
  9
$DWGCODEPAGE
  3
ANSI_936
  9
$INSBASE
 10
0.0
 20
0.0
 30
0.0
  9
$EXTMIN
 10
6.3994099473
 20
-10.0
 30
0.0
  9
$EXTMAX
 10
143.3164905827
 20
16.4142203758
 30
0.0
  9
$LIMMIN
 10
0.0
 20
0.0
  9
$LIMMAX
 10
420.0
 20
297.0
  9
$ORTHOMODE
 70
     0
  9
$REGENMODE
 70
     1
  9
$FILLMODE
 70
     1
  9
$QTEXTMODE
 70
     0
  9
$MIRRTEXT
 70
     1
  9
$LTSCALE
 40
1.0
  9
$ATTMODE
 70
     1
  9
$TEXTSIZE
 40
3.5
  9
$TRACEWID
 40
1.0
  9
$TEXTSTYLE
  7
Standard
  9
$CLAYER
  8
0
  9
$CELTYPE
  6
ByLayer
  9
$CECOLOR
 62
   256
  9
$CELTSCALE
 40
1.0
  9
$DISPSILH
 70
     0
  9
$DIMSCALE
 40
1.0
  9
$DIMASZ
 40
3.556
  9
$DIMEXO
 40
0.0
  9
$DIMDLI
 40
3.75
  9
$DIMRND
 40
0.0
  9
$DIMDLE
 40
0.0
  9
$DIMEXE
 40
1.0
  9
$DIMTP
 40
0.0
  9
$DIMTM
 40
0.0
  9
$DIMTXT
 40
3.5
  9
$DIMCEN
 40
2.5
  9
$DIMTSZ
 40
0.0
  9
$DIMTOL
 70
     0
  9
$DIMLIM
 70
     0
  9
$DIMTIH
 70
     1
  9
$DIMTOH
 70
     1
  9
$DIMSE1
 70
     0
  9
$DIMSE2
 70
     0
  9
$DIMTAD
 70
     1
  9
$DIMZIN
 70
     1
  9
$DIMBLK
  1

  9
$DIMASO
 70
     1
  9
$DIMSHO
 70
     1
  9
$DIMPOST
  1

  9
$DIMAPOST
  1

  9
$DIMALT
 70
     0
  9
$DIMALTD
 70
     3
  9
$DIMALTF
 40
0.0393700787
  9
$DIMLFAC
 40
1.0
  9
$DIMTOFL
 70
     1
  9
$DIMTVP
 40
0.0
  9
$DIMTIX
 70
     0
  9
$DIMSOXD
 70
     0
  9
$DIMSAH
 70
     0
  9
$DIMBLK1
  1

  9
$DIMBLK2
  1

  9
$DIMSTYLE
  2
ISO-25
  9
$DIMCLRD
 70
     0
  9
$DIMCLRE
 70
     0
  9
$DIMCLRT
 70
     0
  9
$DIMTFAC
 40
1.0
  9
$DIMGAP
 40
1.524
  9
$DIMJUST
 70
     0
  9
$DIMSD1
 70
     0
  9
$DIMSD2
 70
     0
  9
$DIMTOLJ
 70
     0
  9
$DIMTZIN
 70
     1
  9
$DIMALTZ
 70
     0
  9
$DIMALTTZ
 70
     0
  9
$DIMUPT
 70
     0
  9
$DIMDEC
 70
     2
  9
$DIMTDEC
 70
     2
  9
$DIMALTU
 70
     2
  9
$DIMALTTD
 70
     3
  9
$DIMTXSTY
  7
Standard
  9
$DIMAUNIT
 70
     0
  9
$DIMADEC
 70
     2
  9
$DIMALTRND
 40
0.0
  9
$DIMAZIN
 70
     0
  9
$DIMDSEP
 70
    44
  9
$DIMATFIT
 70
     3
  9
$DIMFRAC
 70
     0
  9
$DIMLDRBLK
  1

  9
$DIMLUNIT
 70
     2
  9
$DIMLWD
 70
    -2
  9
$DIMLWE
 70
    -2
  9
$DIMTMOVE
 70
     0
  9
$LUNITS
 70
     2
  9
$LUPREC
 70
     2
  9
$SKETCHINC
 40
1.0
  9
$FILLETRAD
 40
0.0
  9
$AUNITS
 70
     0
  9
$AUPREC
 70
     2
  9
$MENU
  1
.
  9
$ELEVATION
 40
0.0
  9
$PELEVATION
 40
0.0
  9
$THICKNESS
 40
0.0
  9
$LIMCHECK
 70
     0
  9
$CHAMFERA
 40
0.0
  9
$CHAMFERB
 40
0.0
  9
$CHAMFERC
 40
0.0
  9
$CHAMFERD
 40
0.0
  9
$SKPOLY
 70
     0
  9
$TDCREATE
 40
2461081.714065648
  9
$TDUCREATE
 40
2461081.380732315
  9
$TDUPDATE
 40
2461081.714432801
  9
$TDUUPDATE
 40
2461081.381099468
  9
$TDINDWG
 40
0.0000000116
  9
$TDUSRTIMER
 40
0.0000000116
  9
$USRTIMER
 70
     1
  9
$ANGBASE
 50
0.0
  9
$ANGDIR
 70
     0
  9
$PDMODE
 70
     0
  9
$PDSIZE
 40
-1.0
  9
$PLINEWID
 40
0.0
  9
$SPLFRAME
 70
     0
  9
$SPLINETYPE
 70
     6
  9
$SPLINESEGS
 70
     8
  9
$HANDSEED
  5
C7
  9
$SURFTAB1
 70
     6
  9
$SURFTAB2
 70
     6
  9
$SURFTYPE
 70
     6
  9
$SURFU
 70
     6
  9
$SURFV
 70
     6
  9
$UCSBASE
  2

  9
$UCSNAME
  2

  9
$UCSORG
 10
0.0
 20
0.0
 30
0.0
  9
$UCSXDIR
 10
1.0
 20
0.0
 30
0.0
  9
$UCSYDIR
 10
0.0
 20
1.0
 30
0.0
  9
$UCSORTHOREF
  2

  9
$UCSORTHOVIEW
 70
     0
  9
$UCSORGTOP
 10
0.0
 20
0.0
 30
0.0
  9
$UCSORGBOTTOM
 10
0.0
 20
0.0
 30
0.0
  9
$UCSORGLEFT
 10
0.0
 20
0.0
 30
0.0
  9
$UCSORGRIGHT
 10
0.0
 20
0.0
 30
0.0
  9
$UCSORGFRONT
 10
0.0
 20
0.0
 30
0.0
  9
$UCSORGBACK
 10
0.0
 20
0.0
 30
0.0
  9
$PUCSBASE
  2

  9
$PUCSNAME
  2

  9
$PUCSORG
 10
0.0
 20
0.0
 30
0.0
  9
$PUCSXDIR
 10
1.0
 20
0.0
 30
0.0
  9
$PUCSYDIR
 10
0.0
 20
1.0
 30
0.0
  9
$PUCSORTHOREF
  2

  9
$PUCSORTHOVIEW
 70
     0
  9
$PUCSORGTOP
 10
0.0
 20
0.0
 30
0.0
  9
$PUCSORGBOTTOM
 10
0.0
 20
0.0
 30
0.0
  9
$PUCSORGLEFT
 10
0.0
 20
0.0
 30
0.0
  9
$PUCSORGRIGHT
 10
0.0
 20
0.0
 30
0.0
  9
$PUCSORGFRONT
 10
0.0
 20
0.0
 30
0.0
  9
$PUCSORGBACK
 10
0.0
 20
0.0
 30
0.0
  9
$USERI1
 70
     0
  9
$USERI2
 70
     0
  9
$USERI3
 70
     0
  9
$USERI4
 70
     0
  9
$USERI5
 70
     0
  9
$USERR1
 40
0.0
  9
$USERR2
 40
0.0
  9
$USERR3
 40
0.0
  9
$USERR4
 40
0.0
  9
$USERR5
 40
0.0
  9
$WORLDVIEW
 70
     1
  9
$SHADEDGE
 70
     3
  9
$SHADEDIF
 70
    70
  9
$TILEMODE
 70
     1
  9
$MAXACTVP
 70
    64
  9
$PINSBASE
 10
0.0
 20
0.0
 30
0.0
  9
$PLIMCHECK
 70
     0
  9
$PEXTMIN
 10
1.0000000000E+20
 20
1.0000000000E+20
 30
1.0000000000E+20
  9
$PEXTMAX
 10
-1.0000000000E+20
 20
-1.0000000000E+20
 30
-1.0000000000E+20
  9
$PLIMMIN
 10
0.0
 20
0.0
  9
$PLIMMAX
 10
420.0
 20
297.0
  9
$UNITMODE
 70
     0
  9
$VISRETAIN
 70
     1
  9
$PLINEGEN
 70
     0
  9
$PSLTSCALE
 70
     1
  9
$TREEDEPTH
 70
  3020
  9
$CMLSTYLE
  2
Standard
  9
$CMLJUST
 70
     0
  9
$CMLSCALE
 40
20.0
  9
$PROXYGRAPHICS
 70
     1
  9
$MEASUREMENT
 70
     1
  9
$CELWEIGHT
370
    -1
  9
$ENDCAPS
280
     0
  9
$JOINSTYLE
280
     0
  9
$LWDISPLAY
290
     1
  9
$INSUNITS
 70
     4
  9
$HYPERLINKBASE
  1

  9
$STYLESHEET
  1

  9
$XEDIT
290
     1
  9
$CEPSNTYPE
380
     0
  9
$PSTYLEMODE
290
     1
  9
$FINGERPRINTGUID
  2
{6db30e5b-c422-4a2b-9ee1-fed02cccd06e}
  9
$VERSIONGUID
  2
{FAEB1C32-E019-11D5-929B-00C0DF256EC4}
  9
$EXTNAMES
290
     1
  9
$PSVPSCALE
 40
0.0
  9
$OLESTARTUP
290
     0
  0
ENDSEC
  0
SECTION
  2
CLASSES
  0
CLASS
  1
ACDBDICTIONARYWDFLT
  2
AcDbDictionaryWithDefault
  3
ObjectDBX Classes
 90
        0
280
     0
281
     0
  0
CLASS
  1
VISUALSTYLE
  2
AcDbVisualStyle
  3
ObjectDBX Classes
 90
     4095
280
     0
281
     0
  0
CLASS
  1
MATERIAL
  2
AcDbMaterial
  3
ObjectDBX Classes
 90
     1153
280
     0
281
     0
  0
CLASS
  1
SCALE
  2
AcDbScale
  3
ObjectDBX Classes
 90
     1153
280
     0
281
     0
  0
CLASS
  1
TABLESTYLE
  2
AcDbTableStyle
  3
ObjectDBX Classes
 90
     4095
280
     0
281
     0
  0
CLASS
  1
MLEADERSTYLE
  2
AcDbMLeaderStyle
  3
ACDB_MLEADERSTYLE_CLASS
 90
     4095
280
     0
281
     0
  0
CLASS
  1
SUN
  2
AcDbSun
  3
SCENEOE
 90
     1153
280
     0
281
     0
  0
CLASS
  1
ACDBPLACEHOLDER
  2
AcDbPlaceHolder
  3
ObjectDBX Classes
 90
        0
280
     0
281
     0
  0
CLASS
  1
LAYOUT
  2
AcDbLayout
  3
ObjectDBX Classes
 90
        0
280
     0
281
     0
  0
ENDSEC
  0
SECTION
  2
TABLES
  0
TABLE
  2
VPORT
  5
8
330
0
100
AcDbSymbolTable
 70
     1
  0
VPORT
  5
29
330
8
100
AcDbSymbolTableRecord
100
AcDbViewportTableRecord
  2
*Active
 70
     0
 10
0.0
 20
0.0
 11
1.0
 21
1.0
 12
74.857950265
 22
3.2071101879
 13
0.0
 23
0.0
 14
10.0
 24
10.0
 15
10.0
 25
10.0
 16
0.0
 26
0.0
 36
1.0
 17
0.0
 27
0.0
 37
0.0
 40
26.9425047833
 41
5.18346098
 42
50.0
 43
0.0
 44
0.0
 50
0.0
 51
0.0
 71
     0
 72
   100
 73
     1
 74
     3
 75
     0
 76
     0
 77
     0
 78
     0
281
     0
 65
     1
110
0.0
120
0.0
130
0.0
111
1.0
121
0.0
131
0.0
112
0.0
122
1.0
132
0.0
 79
     0
146
0.0
  0
ENDTAB
  0
TABLE
  2
LTYPE
  5
5
330
0
100
AcDbSymbolTable
 70
     6
  0
LTYPE
  5
14
330
5
100
AcDbSymbolTableRecord
100
AcDbLinetypeTableRecord
  2
ByBlock
 70
     0
  3

 72
    65
 73
     0
 40
0.0
  0
LTYPE
  5
15
330
5
100
AcDbSymbolTableRecord
100
AcDbLinetypeTableRecord
  2
ByLayer
 70
     0
  3

 72
    65
 73
     0
 40
0.0
  0
LTYPE
  5
16
330
5
100
AcDbSymbolTableRecord
100
AcDbLinetypeTableRecord
  2
Continuous
 70
     0
  3
Solid line
 72
    65
 73
     0
 40
0.0
  0
LTYPE
  5
5E
330
5
100
AcDbSymbolTableRecord
100
AcDbLinetypeTableRecord
  2
HIDDEN
 70
     0
  3
Hidden __ __ __ __ __ __ __ __ __ __ __ __ __ __
 72
    65
 73
     2
 40
1.905
 49
1.27
 74
     0
 49
-0.635
 74
     0
  0
LTYPE
  5
5F
330
5
100
AcDbSymbolTableRecord
100
AcDbLinetypeTableRecord
  2
PHANTOM
 70
     0
  3
Phantom ______  __  __  ______  __  __  ______
 72
    65
 73
     6
 40
12.7
 49
6.35
 74
     0
 49
-1.27
 74
     0
 49
1.27
 74
     0
 49
-1.27
 74
     0
 49
1.27
 74
     0
 49
-1.27
 74
     0
  0
LTYPE
  5
60
330
5
100
AcDbSymbolTableRecord
100
AcDbLinetypeTableRecord
  2
CENTER
 70
     0
  3
Center ____ _ ____ _ ____ _ ____ _ ____ _ ____
 72
    65
 73
     4
 40
10.16
 49
6.35
 74
     0
 49
-1.27
 74
     0
 49
1.27
 74
     0
 49
-1.27
 74
     0
  0
LTYPE
  5
61
330
5
100
AcDbSymbolTableRecord
100
AcDbLinetypeTableRecord
  2
CENTERX2
 70
     0
  3
Center (2x) ________  __  ________  __  _____
 72
    65
 73
     4
 40
20.32
 49
12.7
 74
     0
 49
-2.54
 74
     0
 49
2.54
 74
     0
 49
-2.54
 74
     0
  0
LTYPE
  5
62
330
5
100
AcDbSymbolTableRecord
100
AcDbLinetypeTableRecord
  2
DOT2
 70
     0
  3
Dot (.5x) ........................................
 72
    65
 73
     2
 40
0.635
 49
0.0
 74
     0
 49
-0.635
 74
     0
  0
ENDTAB
  0
TABLE
  2
LAYER
  5
2
330
0
100
AcDbSymbolTable
 70
     1
  0
LAYER
  5
10
330
2
100
AcDbSymbolTableRecord
100
AcDbLayerTableRecord
  2
0
 70
     0
 62
     7
  6
Continuous
370
    -3
390
F
  0
ENDTAB
  0
TABLE
  2
STYLE
  5
3
330
0
100
AcDbSymbolTable
 70
     1
  0
STYLE
  5
11
330
3
100
AcDbSymbolTableRecord
100
AcDbTextStyleTableRecord
  2
Standard
 70
     0
 40
0.0
 41
1.0
 50
0.0
 71
     0
 42
3.5
  3
txt
  4

  0
ENDTAB
  0
TABLE
  2
VIEW
  5
6
330
0
100
AcDbSymbolTable
 70
     0
  0
ENDTAB
  0
TABLE
  2
UCS
  5
7
330
0
100
AcDbSymbolTable
 70
     0
  0
ENDTAB
  0
TABLE
  2
APPID
  5
9
330
0
100
AcDbSymbolTable
 70
     1
  0
APPID
  5
12
330
9
100
AcDbSymbolTableRecord
100
AcDbRegAppTableRecord
  2
ACAD
 70
     0
  0
ENDTAB
  0
TABLE
  2
DIMSTYLE
  5
A
330
0
100
AcDbSymbolTable
 70
     1
100
AcDbDimStyleTable
  0
DIMSTYLE
105
27
330
A
100
AcDbSymbolTableRecord
100
AcDbDimStyleTableRecord
  2
ISO-25
 70
     0
 41
2.5
 42
0.625
 43
3.75
 44
1.25
 73
     0
 74
     0
 77
     1
 78
     8
140
2.5
141
2.5
143
0.0393700787
147
0.625
171
     3
172
     1
178
     0
271
     2
272
     2
274
     3
278
    44
283
     0
284
     8
340
11
  0
ENDTAB
  0
TABLE
  2
BLOCK_RECORD
  5
1
330
0
100
AcDbSymbolTable
 70
     1
  0
BLOCK_RECORD
  5
1F
330
1
100
AcDbSymbolTableRecord
100
AcDbBlockTableRecord
  2
*Model_Space
340
22
  0
BLOCK_RECORD
  5
1B
330
1
100
AcDbSymbolTableRecord
100
AcDbBlockTableRecord
  2
*Paper_Space
340
1E
  0
BLOCK_RECORD
  5
23
330
1
100
AcDbSymbolTableRecord
100
AcDbBlockTableRecord
  2
*Paper_Space0
340
26
  0
ENDTAB
  0
ENDSEC
  0
SECTION
  2
BLOCKS
  0
BLOCK
  5
20
330
1F
100
AcDbEntity
  8
0
100
AcDbBlockBegin
  2
*Model_Space
 70
     0
 10
0.0
 20
0.0
 30
0.0
  3
*Model_Space
  1

  0
ENDBLK
  5
21
330
1F
100
AcDbEntity
  8
0
100
AcDbBlockEnd
  0
BLOCK
  5
1C
330
1B
100
AcDbEntity
 67
     1
  8
0
100
AcDbBlockBegin
  2
*Paper_Space
 70
     0
 10
0.0
 20
0.0
 30
0.0
  3
*Paper_Space
  1

  0
ENDBLK
  5
1D
330
1B
100
AcDbEntity
 67
     1
  8
0
100
AcDbBlockEnd
  0
BLOCK
  5
24
330
23
100
AcDbEntity
  8
0
100
AcDbBlockBegin
  2
*Paper_Space0
 70
     0
 10
0.0
 20
0.0
 30
0.0
  3
*Paper_Space0
  1

  0
ENDBLK
  5
25
330
23
100
AcDbEntity
  8
0
100
AcDbBlockEnd
  0
ENDSEC
  0
SECTION
  2
ENTITIES
  0
SPLINE
  5
63
330
1F
100
AcDbEntity
  8
0
  6
Continuous
 62
     7
370
    25
100
AcDbSpline
210
0.0
220
0.0
230
1.0
 70
     8
 71
     3
 72
    10
 73
     6
 74
     0
 42
0.00000001
 43
0.00000001
 40
0.7148228368077788
 40
0.7148228368077788
 40
0.7148228368077788
 40
0.7148228368077788
 40
0.715698291548726
 40
0.7468156085725841
 40
0.7483889267381946
 40
0.7483889267381946
 40
0.7483889267381946
 40
0.7483889267381946
 10
135.1815480187643
 20
-1.996445069147518
 30
0.0
 10
135.2348842300835
 20
-1.994486137353738
 30
0.0
 10
137.1840121064713
 20
-1.922898698420553
 30
0.0
 10
139.2289930320598
 20
-1.847794916721519
 30
0.0
 10
141.220637726312
 20
-1.774652048005019
 30
0.0
 10
141.3164905831952
 20
-1.771131869812958
 30
0.0
  0
LINE
  5
64
330
1F
100
AcDbEntity
  8
0
  6
Continuous
 62
     7
370
    25
100
AcDbLine
 10
135.1815480359
 20
-1.9964455356
 30
0.0
 11
135.1815480359
 21
-10.0
 31
0.0
  0
LINE
  5
65
330
1F
100
AcDbEntity
  8
0
  6
Continuous
 62
     7
370
    25
100
AcDbLine
 10
135.1815480359
 20
-10.0
 30
0.0
 11
131.1815480359
 21
-10.0
 31
0.0
  0
LINE
  5
66
330
1F
100
AcDbEntity
  8
0
  6
Continuous
 62
     7
370
    25
100
AcDbLine
 10
131.1815480359
 20
-10.0
 30
0.0
 11
131.1815480359
 21
-2.2473356306
 31
0.0
  0
LINE
  5
67
330
1F
100
AcDbEntity
  8
0
  6
Continuous
 62
     7
370
    25
100
AcDbLine
 10
131.1815480359
 20
-2.2473356306
 30
0.0
 11
131.3841037475
 21
-2.2399029962
 31
0.0
  0
LINE
  5
68
330
1F
100
AcDbEntity
  8
0
  6
Continuous
 62
     7
370
    25
100
AcDbLine
 10
131.3841037475
 20
-2.2399029962
 30
0.0
 11
131.3841037475
 21
-2.1359229478
 31
0.0
  0
SPLINE
  5
69
330
1F
100
AcDbEntity
  8
0
  6
Continuous
 62
     7
370
    25
100
AcDbSpline
210
0.0
220
0.0
230
1.0
 70
     8
 71
     3
 72
    26
 73
    22
 74
     0
 42
0.00000001
 43
0.00000001
 40
0.2646617706425862
 40
0.2646617706425862
 40
0.2646617706425862
 40
0.2646617706425862
 40
0.280055853214719
 40
0.295614511726648
 40
0.3111731702385767
 40
0.3267318287505055
 40
0.3422904872624343
 40
0.3578491457743633
 40
0.3734078042862919
 40
0.3889664627982208
 40
0.4045251213101496
 40
0.4356424383340072
 40
0.4667597553578648
 40
0.4978770723817225
 40
0.5289943894055802
 40
0.5601117064294378
 40
0.5912290234532954
 40
0.6223463404771531
 40
0.6534636575010108
 40
0.6845809745248683
 40
0.694045890436788
 40
0.694045890436788
 40
0.694045890436788
 40
0.694045890436788
 10
52.90496096264875
 20
-5.025236135354832
 30
0.0
 10
53.84284664338252
 20
-4.991241340414162
 30
0.0
 10
55.72858119423586
 20
-4.921143477568859
 30
0.0
 10
58.56209004741257
 20
-4.813009221189118
 30
0.0
 10
61.40563088462972
 20
-4.704645773135296
 30
0.0
 10
64.24924738197473
 20
-4.598282690109193
 30
0.0
 10
67.09291032449778
 20
-4.493173987622098
 30
0.0
 10
69.93661310484447
 20
-4.389146790340781
 30
0.0
 10
72.7803375260266
 20
-4.285715088379445
 30
0.0
 10
75.62407200866836
 20
-4.182559955182954
 30
0.0
 10
79.4157133958707
 20
-4.044893006889427
 30
0.0
 10
84.15521906190519
 20
-3.871544320256871
 30
0.0
 10
89.84258256425423
 20
-3.662346860734194
 30
0.0
 10
95.52992856299139
 20
-3.452674219346237
 30
0.0
 10
101.2172923231676
 20
-3.24348395161025
 30
0.0
 10
106.90467024592
 20
-3.03467899668672
 30
0.0
 10
112.592052727654
 20
-2.825998628307797
 30
0.0
 10
118.2794325345949
 20
-2.617244768216993
 30
0.0
 10
123.9668083971376
 20
-2.408384574481967
 30
0.0
 10
128.3350312730011
 20
-2.247919480824945
 30
0.0
 10
130.8074631892418
 20
-2.157103310689541
 30
0.0
 10
131.3841037305037
 20
-2.135922827476386
 30
0.0
  0
LINE
  5
6A
330
1F
100
AcDbEntity
  8
0
  6
Continuous
 62
     7
370
    25
100
AcDbLine
 10
52.9049609627
 20
-9.9999999996
 30
0.0
 11
52.9049609627
 21
-5.0252361354
 31
0.0
  0
LINE
  5
6B
330
1F
100
AcDbEntity
  8
0
  6
Continuous
 62
     7
370
    25
100
AcDbLine
 10
48.9049609625
 20
-9.9999999996
 30
0.0
 11
52.9049609627
 21
-9.9999999996
 31
0.0
  0
LINE
  5
6C
330
1F
100
AcDbEntity
  8
0
  6
Continuous
 62
     7
370
    25
100
AcDbLine
 10
48.9049609625
 20
-5.2640272687
 30
0.0
 11
48.9049609625
 21
-9.9999999996
 31
0.0
  0
LINE
  5
6D
330
1F
100
AcDbEntity
  8
0
  6
Continuous
 62
     7
370
    25
100
AcDbLine
 10
49.1108757633
 20
-5.2571036005
 30
0.0
 11
48.9049609625
 21
-5.2640272687
 31
0.0
  0
LINE
  5
6E
330
1F
100
AcDbEntity
  8
0
  6
Continuous
 62
     7
370
    25
100
AcDbLine
 10
49.1108757633
 20
-5.1569229426
 30
0.0
 11
49.1108757633
 21
-5.2571036005
 31
0.0
  0
SPLINE
  5
6F
330
1F
100
AcDbEntity
  8
0
  6
Continuous
 62
     7
370
    25
100
AcDbSpline
210
0.0
220
0.0
230
1.0
 70
     8
 71
     3
 72
    41
 73
    37
 74
     0
 42
0.00000001
 43
0.00000001
 40
0.0
 40
0.0
 40
0.0
 40
0.0
 40
0.003889664627982
 40
0.0077793292559643
 40
0.0116689938839466
 40
0.0155586585119288
 40
0.0194483231399111
 40
0.0233379877678933
 40
0.0272276523958756
 40
0.0311173170238579
 40
0.0350069816518401
 40
0.0388966462798224
 40
0.0427863109078047
 40
0.0466759755357867
 40
0.0505656401637687
 40
0.054455304791751
 40
0.0583449694197332
 40
0.0622346340477155
 40
0.07001396330368
 40
0.0777932925596443
 40
0.0855726218156086
 40
0.0933519510715732
 40
0.1011312803275377
 40
0.108910609583502
 40
0.1166899388394663
 40
0.1244692680954308
 40
0.1322485973513953
 40
0.1400279266073598
 40
0.1478072558633239
 40
0.1555865851192884
 40
0.1711452436312172
 40
0.1867039021431461
 40
0.2022625606550749
 40
0.2178212191670037
 40
0.2333798776789325
 40
0.2439046898201505
 40
0.2439046898201505
 40
0.2439046898201505
 40
0.2439046898201505
 10
6.39940994726558
 20
-0.133128579651011
 30
0.0
 10
6.389807903791819
 20
-0.370068283753161
 30
0.0
 10
6.457280046201626
 20
-0.8474602688199095
 30
0.0
 10
6.790330862387805
 20
-1.484706609338583
 30
0.0
 10
7.234707726350847
 20
-2.041444996653418
 30
0.0
 10
7.762058078414473
 20
-2.522690542199916
 30
0.0
 10
8.338945202667588
 20
-2.94015344111917
 30
0.0
 10
8.966736322084925
 20
-3.278779242716779
 30
0.0
 10
9.628848573265959
 20
-3.541006516552462
 30
0.0
 10
10.31047932554878
 20
-3.746427409843033
 30
0.0
 10
11.00279277085312
 20
-3.910867589103096
 30
0.0
 10
11.70001408431177
 20
-4.052326084600616
 30
0.0
 10
12.39767120423417
 20
-4.191442432460605
 30
0.0
 10
13.09602766994881
 20
-4.327111629033774
 30
0.0
 10
13.79618357132776
 20
-4.453227877826312
 30
0.0
 10
14.4984734170007
 20
-4.566922728312705
 30
0.0
 10
15.2026563093666
 20
-4.66816733942964
 30
0.0
 10
16.14386593921351
 20
-4.786226896913016
 30
0.0
 10
17.32376143900023
 20
-4.90430039178124
 30
0.0
 10
18.7425851467689
 20
-5.011638719884276
 30
0.0
 10
20.16294957558123
 20
-5.095262349832393
 30
0.0
 10
21.58383819237801
 20
-5.169070373731421
 30
0.0
 10
23.00500795133562
 20
-5.237298414704931
 30
0.0
 10
24.42659531912626
 20
-5.296332912272334
 30
0.0
 10
25.84856720672821
 20
-5.345179958792816
 30
0.0
 10
27.27084445045299
 20
-5.384146499936912
 30
0.0
 10
28.69333232206934
 20
-5.414329267835332
 30
0.0
 10
30.11597245843718
 20
-5.436235438129405
 30
0.0
 10
31.53871010312794
 20
-5.450276146582497
 30
0.0
 10
33.43576671714455
 20
-5.459103481196841
 30
0.0
 10
35.8071197282673
 20
-5.45269892636896
 30
0.0
 10
38.65257183031255
 20
-5.421220671240203
 30
0.0
 10
41.49772019863259
 20
-5.369433179895512
 30
0.0
 10
44.34251866305313
 20
-5.301300551773106
 30
0.0
 10
46.88019871453135
 20
-5.228581568374868
 30
0.0
 10
48.46957630265509
 20
-5.178011493591333
 30
0.0
 10
49.11087576330744
 20
-5.156922942577404
 30
0.0
  0
SPLINE
  5
70
330
1F
100
AcDbEntity
  8
0
  6
Continuous
 62
     7
370
    25
100
AcDbSpline
210
0.0
220
0.0
230
1.0
 70
     8
 71
     3
 72
    59
 73
    55
 74
     0
 42
0.00000001
 43
0.00000001
 40
0.3383038751867819
 40
0.3383038751867819
 40
0.3383038751867819
 40
0.3383038751867819
 40
0.346606648199446
 40
0.3777206173328055
 40
0.4088345864661653
 40
0.439948555599525
 40
0.4710625247328848
 40
0.5021764938662445
 40
0.5332904629996044
 40
0.5644044321329639
 40
0.5955184012663237
 40
0.6266323703996834
 40
0.6421893549663633
 40
0.6577463395330432
 40
0.6733033240997229
 40
0.6888603086664028
 40
0.7044172932330824
 40
0.7199742777997623
 40
0.7355312623664422
 40
0.751088246933122
 40
0.766645231499802
 40
0.7822022160664819
 40
0.7977592006331617
 40
0.8133161851998416
 40
0.8288731697665215
 40
0.8444301543332013
 40
0.8599871388998809
 40
0.8677656311832209
 40
0.8755441234665609
 40
0.8833226157499008
 40
0.8911011080332408
 40
0.8988796003165808
 40
0.9066580925999207
 40
0.9144365848832606
 40
0.9222150771666008
 40
0.9299935694499407
 40
0.9377720617332806
 40
0.9455505540166206
 40
0.9533290462999604
 40
0.9572182924416301
 40
0.9611075385833003
 40
0.9649967847249702
 40
0.9688860308666403
 40
0.97277527700831
 40
0.9766645231499802
 40
0.9805537692916501
 40
0.9844430154333201
 40
0.9883322615749899
 40
0.990276884645825
 40
0.99222150771666
 40
0.9941661307874949
 40
0.9961107538583299
 40
0.9980553769291648
 40
1.0
 40
1.0
 40
1.0
 40
1.0
 10
125.3164910382278
 20
12.16977761431503
 30
0.0
 10
124.8048194044397
 20
12.24530751583149
 30
0.0
 10
122.375167474978
 20
12.6002732965726
 30
0.0
 10
118.0230325585821
 20
13.20361325181882
 30
0.0
 10
112.2533289325704
 20
13.92654040328144
 30
0.0
 10
106.473891304873
 20
14.56717472524809
 30
0.0
 10
100.6859196481866
 20
15.12537644709061
 30
0.0
 10
94.89053164345079
 20
15.60051650246939
 30
0.0
 10
89.08874778372711
 20
15.99022984055945
 30
0.0
 10
83.28111583957545
 20
16.28127427285869
 30
0.0
 10
77.46891242546698
 20
16.46118092923055
 30
0.0
 10
72.62331886226761
 20
16.50890208218081
 30
0.0
 10
68.74687613961292
 20
16.49416327598838
 30
0.0
 10
65.83971889164172
 20
16.45852945311445
 30
0.0
 10
62.93295210540298
 20
16.4000242649052
 30
0.0
 10
60.02666635604894
 20
16.3210622592889
 30
0.0
 10
57.12094669980438
 20
16.22349049993255
 30
0.0
 10
54.21623201582987
 20
16.09889900652554
 30
0.0
 10
51.31325381450679
 20
15.93841919613539
 30
0.0
 10
48.41309762376979
 20
15.73260069147736
 30
0.0
 10
45.5172538133887
 20
15.47267968920483
 30
0.0
 10
42.62770959114247
 20
15.14961312229742
 30
0.0
 10
39.74722300788154
 20
14.75353491494362
 30
0.0
 10
36.87781860337872
 20
14.28400331790509
 30
0.0
 10
34.0207913408976
 20
13.74430313919778
 30
0.0
 10
31.17755379307798
 20
13.13614607367709
 30
0.0
 10
28.82178540088632
 20
12.56928350476128
 30
0.0
 10
26.94759033594988
 20
12.07496610999232
 30
0.0
 10
25.5478033204863
 20
11.68268676711669
 30
0.0
 10
24.15470701866879
 20
11.26724302953943
 30
0.0
 10
22.76893117867882
 20
10.82798752722498
 30
0.0
 10
21.39086374157805
 20
10.36514080425452
 30
0.0
 10
20.02040455055829
 20
9.880225377302473
 30
0.0
 10
18.6592218983637
 20
9.36975116677066
 30
0.0
 10
17.31075127462368
 20
8.826477136659019
 30
0.0
 10
15.97819287698526
 20
8.245122567540337
 30
0.0
 10
14.66749624661112
 20
7.61575455384162
 30
0.0
 10
13.38500459389348
 20
6.930585159250697
 30
0.0
 10
12.34650574697748
 20
6.305875963897209
 30
0.0
 10
11.54252740176687
 20
5.764389889924834
 30
0.0
 10
10.95495947094949
 20
5.336378454237837
 30
0.0
 10
10.38362460331124
 20
4.886834337497025
 30
0.0
 10
9.830569807769956
 20
4.415022274217287
 30
0.0
 10
9.295265866166591
 20
3.923188711971171
 30
0.0
 10
8.773514381643572
 20
3.417118612699523
 30
0.0
 10
8.258772699163773
 20
2.903954060421114
 30
0.0
 10
7.756376313070888
 20
2.378513460396704
 30
0.0
 10
7.362121907039535
 20
1.918258229138265
 30
0.0
 10
7.07186392006029
 20
1.529881355130009
 30
0.0
 10
6.871597567124088
 20
1.226637996387449
 30
0.0
 10
6.692522584499613
 20
0.9097147318822293
 30
0.0
 10
6.546605066904655
 20
0.5767184266010911
 30
0.0
 10
6.436745429593989
 20
0.229077733762108
 30
0.0
 10
6.404315165281634
 20
-0.0120875836944229
 30
0.0
 10
6.39940994726558
 20
-0.133128579651011
 30
0.0
  0
LINE
  5
71
330
1F
100
AcDbEntity
  8
0
  6
Continuous
 62
     7
370
    25
100
AcDbLine
 10
125.3164905827
 20
4.792676511
 30
0.0
 11
125.3164905827
 21
12.1697745282
 31
0.0
  0
LINE
  5
72
330
1F
100
AcDbEntity
  8
0
  6
Continuous
 62
     7
370
    25
100
AcDbLine
 10
127.3164905827
 20
4.792676511
 30
0.0
 11
125.3164905827
 21
4.792676511
 31
0.0
  0
LINE
  5
73
330
1F
100
AcDbEntity
  8
0
  6
Continuous
 62
     7
370
    25
100
AcDbLine
 10
127.3164905827
 20
11.8706731297
 30
0.0
 11
127.3164905827
 21
4.792676511
 31
0.0
  0
SPLINE
  5
74
330
1F
100
AcDbEntity
  8
0
  6
Continuous
 62
     7
370
    25
100
AcDbSpline
210
0.0
220
0.0
230
1.0
 70
     8
 71
     3
 72
    11
 73
     7
 74
     0
 42
0.00000001
 43
0.00000001
 40
0.2515723180166206
 40
0.2515723180166206
 40
0.2515723180166206
 40
0.2515723180166206
 40
0.2532647407993668
 40
0.2843787099327265
 40
0.3154926790660862
 40
0.3274829848272668
 40
0.3274829848272668
 40
0.3274829848272668
 40
0.3274829848272668
 10
141.3164905453085
 20
9.580230593538461
 30
0.0
 10
141.2126447558182
 20
9.598429692541169
 30
0.0
 10
139.1995809357514
 20
9.950702850087788
 30
0.0
 10
135.2739706269006
 20
10.618027328046
 30
0.0
 10
130.7090486244284
 20
11.35125288967969
 30
0.0
 10
128.0549939967808
 20
11.75879814183363
 30
0.0
 10
127.3164886862131
 20
11.87066062889535
 30
0.0
  0
LINE
  5
75
330
1F
100
AcDbEntity
  8
0
  6
Continuous
 62
     7
370
    25
100
AcDbLine
 10
141.3164905827
 20
9.5802308068
 30
0.0
 11
141.3164905827
 21
5.4182190765
 31
0.0
  0
LINE
  5
76
330
1F
100
AcDbEntity
  8
0
  6
Continuous
 62
     7
370
    25
100
AcDbLine
 10
143.3164905827
 20
5.4182190765
 30
0.0
 11
141.3164905827
 21
5.4182190765
 31
0.0
  0
LINE
  5
77
330
1F
100
AcDbEntity
  8
0
  6
Continuous
 62
     7
370
    25
100
AcDbLine
 10
143.3164905827
 20
2.4182190765
 30
0.0
 11
143.3164905827
 21
5.4182190765
 31
0.0
  0
LINE
  5
78
330
1F
100
AcDbEntity
  8
0
  6
Continuous
 62
     7
370
    25
100
AcDbLine
 10
141.3164905827
 20
2.4182190765
 30
0.0
 11
143.3164905827
 21
2.4182190765
 31
0.0
  0
LINE
  5
79
330
1F
100
AcDbEntity
  8
0
  6
Continuous
 62
     7
370
    25
100
AcDbLine
 10
141.3164905827
 20
2.4182190765
 30
0.0
 11
141.3164905827
 21
-1.7711318558
 31
0.0
  0
SPLINE
  5
7A
330
1F
100
AcDbEntity
  8
0
  6
Continuous
 62
     7
370
    25
100
AcDbSpline
210
0.0
220
0.0
230
1.0
 70
     8
 71
     3
 72
     8
 73
     4
 74
     0
 42
0.00000001
 43
0.00000001
 40
0.7082616961257917
 40
0.7082616961257917
 40
0.7082616961257917
 40
0.7082616961257917
 40
0.7137293133773303
 40
0.7137293133773303
 40
0.7137293133773303
 40
0.7137293133773303
 10
133.9823550874791
 20
-2.040489522871606
 30
0.0
 10
134.3154642295907
 20
-2.028254809188997
 30
0.0
 10
134.6485733770158
 20
-2.016020216567752
 30
0.0
 10
134.981682529962
 20
-2.003785740618345
 30
0.0
  0
LINE
  5
7B
330
1F
100
AcDbEntity
  8
0
  6
Continuous
 62
     7
370
    25
100
AcDbLine
 10
133.9823551027
 20
-2.0404899374
 30
0.0
 11
133.9823551027
 21
-2.1445620541
 31
0.0
  0
LINE
  5
7C
330
1F
100
AcDbEntity
  8
0
  6
Continuous
 62
     7
370
    25
100
AcDbLine
 10
133.9823551027
 20
-2.1445620541
 30
0.0
 11
134.981682547
 21
-2.107892461
 31
0.0
  0
LINE
  5
7D
330
1F
100
AcDbEntity
  8
0
  6
Continuous
 62
     7
370
    25
100
AcDbLine
 10
134.981682547
 20
-2.107892461
 30
0.0
 11
134.981682547
 21
-2.0037862047
 31
0.0
  0
SPLINE
  5
7E
330
1F
100
AcDbEntity
  8
0
  6
Continuous
 62
     7
370
    25
100
AcDbSpline
210
0.0
220
0.0
230
1.0
 70
     8
 71
     3
 72
     8
 73
     4
 74
     0
 42
0.00000001
 43
0.00000001
 40
0.7017005552067777
 40
0.7017005552067777
 40
0.7017005552067777
 40
0.7017005552067777
 40
0.7071681726556425
 40
0.7071681726556425
 40
0.7071681726556425
 40
0.7071681726556425
 10
132.7831621587812
 20
-2.084535024157074
 30
0.0
 10
133.1162713004611
 20
-2.072300013164706
 30
0.0
 10
133.4493804472054
 20
-2.060065128501138
 30
0.0
 10
133.7824895992217
 20
-2.047830365776849
 30
0.0
  0
LINE
  5
7F
330
1F
100
AcDbEntity
  8
0
  6
Continuous
 62
     7
370
    25
100
AcDbLine
 10
132.7831621695
 20
-2.084535317
 30
0.0
 11
132.7831621695
 21
-2.1885655658
 31
0.0
  0
LINE
  5
80
330
1F
100
AcDbEntity
  8
0
  6
Continuous
 62
     7
370
    25
100
AcDbLine
 10
132.7831621695
 20
-2.1885655658
 30
0.0
 11
133.7824896138
 21
-2.1518959727
 31
0.0
  0
LINE
  5
81
330
1F
100
AcDbEntity
  8
0
  6
Continuous
 62
     7
370
    25
100
AcDbLine
 10
133.7824896138
 20
-2.1518959727
 30
0.0
 11
133.7824896138
 21
-2.0478307638
 31
0.0
  0
LINE
  5
82
330
1F
100
AcDbEntity
  8
0
  6
Continuous
 62
     7
370
    25
100
AcDbLine
 10
132.5832966807
 20
-2.1958994845
 30
0.0
 11
132.5832966807
 21
-2.0918763147
 31
0.0
  0
SPLINE
  5
83
330
1F
100
AcDbEntity
  8
0
  6
Continuous
 62
     7
370
    25
100
AcDbSpline
210
0.0
220
0.0
230
1.0
 70
     8
 71
     3
 72
     8
 73
     4
 74
     0
 42
0.00000001
 43
0.00000001
 40
0.6951394140537391
 40
0.6951394140537391
 40
0.6951394140537391
 40
0.6951394140537391
 40
0.7006070316974731
 40
0.7006070316974731
 40
0.7006070316974731
 40
0.7006070316974731
 10
131.5839692310667
 20
-2.128581618494474
 30
0.0
 10
131.9170783727632
 20
-2.116346297555979
 30
0.0
 10
132.2501875192749
 20
-2.104111108213725
 30
0.0
 10
132.5832966708095
 20
-2.091876046078188
 30
0.0
  0
LINE
  5
84
330
1F
100
AcDbEntity
  8
0
  6
Continuous
 62
     7
370
    25
100
AcDbLine
 10
131.5839692364
 20
-2.1285817629
 30
0.0
 11
131.5839692364
 21
-2.2325690776
 31
0.0
  0
LINE
  5
85
330
1F
100
AcDbEntity
  8
0
  6
Continuous
 62
     7
370
    25
100
AcDbLine
 10
131.5839692364
 20
-2.2325690776
 30
0.0
 11
132.5832966807
 21
-2.1958994845
 31
0.0
  0
ARC
  5
86
330
1F
100
AcDbEntity
  8
0
  6
Continuous
 62
     7
370
    25
100
AcDbCircle
 10
25.7641383517
 20
1.7760446632
 30
0.0
 40
4.099999999999993
100
AcDbArc
 50
268.1337000118
 51
91.8662999882
  0
SPLINE
  5
87
330
1F
100
AcDbEntity
  8
0
  6
Continuous
 62
     7
370
    25
100
AcDbSpline
210
0.0
220
0.0
230
1.0
 70
     8
 71
     3
 72
     9
 73
     5
 74
     0
 42
0.00000001
 43
0.00000001
 40
0.0
 40
0.0
 40
0.0
 40
0.0
 40
0.5
 40
1.0
 40
1.0
 40
1.0
 40
1.0
 10
25.63061234017747
 20
5.873869794216878
 30
0.0
 10
25.60836980985978
 20
5.8745945582723
 30
0.0
 10
25.56386704650793
 20
5.87568206482533
 30
0.0
 10
25.51934656791399
 20
5.876044663219137
 30
0.0
 10
25.49708632861674
 20
5.876044663219139
 30
0.0
  0
SPLINE
  5
88
330
1F
100
AcDbEntity
  8
0
  6
Continuous
 62
     7
370
    25
100
AcDbSpline
210
0.0
220
0.0
230
1.0
 70
     8
 71
     3
 72
    10
 73
     6
 74
     0
 42
0.00000001
 43
0.00000001
 40
0.0
 40
0.0
 40
0.0
 40
0.0
 40
0.5
 40
0.5
 40
1.0
 40
1.0
 40
1.0
 40
1.0
 10
25.49708632861657
 20
5.876044663219138
 30
0.0
 10
22.76375299528324
 20
5.876044663219123
 30
0.0
 10
21.3970863286166
 20
3.142711329885809
 30
0.0
 10
21.3970863286166
 20
0.4093779965524763
 30
0.0
 10
22.76375299528328
 20
-2.323955336780865
 30
0.0
 10
25.49708632861661
 20
-2.323955336780853
 30
0.0
  0
SPLINE
  5
89
330
1F
100
AcDbEntity
  8
0
  6
Continuous
 62
     7
370
    25
100
AcDbSpline
210
0.0
220
0.0
230
1.0
 70
     8
 71
     3
 72
     9
 73
     5
 74
     0
 42
0.00000001
 43
0.00000001
 40
0.0
 40
0.0
 40
0.0
 40
0.0
 40
0.5
 40
1.0
 40
1.0
 40
1.0
 40
1.0
 10
25.49708632861661
 20
-2.323955336780853
 30
0.0
 10
25.51934656791263
 20
-2.323955336780854
 30
0.0
 10
25.56386704611305
 20
-2.323592738406208
 30
0.0
 10
25.6083698098535
 20
-2.322505231834177
 30
0.0
 10
25.63061234016997
 20
-2.321780467778837
 30
0.0
  0
LINE
  5
8A
330
1F
100
AcDbEntity
  8
0
  6
Continuous
 62
     7
370
    25
100
AcDbLine
 10
52.7087139725
 20
-5.0323365157
 30
0.0
 11
52.7087139725
 21
-5.1324017044
 31
0.0
  0
SPLINE
  5
8B
330
1F
100
AcDbEntity
  8
0
  6
Continuous
 62
     7
370
    25
100
AcDbSpline
210
0.0
220
0.0
230
1.0
 70
     8
 71
     3
 72
     8
 73
     4
 74
     0
 42
0.00000001
 43
0.00000001
 40
0.2581204556993541
 40
0.2581204556993541
 40
0.2581204556993541
 40
0.2581204556993541
 40
0.2635880665105558
 40
0.2635880665105558
 40
0.2635880665105558
 40
0.2635880665105558
 10
51.70935243624151
 20
-5.068067582438154
 30
0.0
 10
52.0424774523763
 20
-5.056283946800981
 30
0.0
 10
52.37559776679159
 20
-5.044366907760255
 30
0.0
 10
52.70871397248372
 20
-5.032336515685255
 30
0.0
  0
LINE
  5
8C
330
1F
100
AcDbEntity
  8
0
  6
Continuous
 62
     7
370
    25
100
AcDbLine
 10
51.7093524362
 20
-5.1681301228
 30
0.0
 11
51.7093524362
 21
-5.0680675824
 31
0.0
  0
LINE
  5
8D
330
1F
100
AcDbEntity
  8
0
  6
Continuous
 62
     7
370
    25
100
AcDbLine
 10
52.7087139725
 20
-5.1324017044
 30
0.0
 11
51.7093524362
 21
-5.1681301228
 31
0.0
  0
LINE
  5
8E
330
1F
100
AcDbEntity
  8
0
  6
Continuous
 62
     7
370
    25
100
AcDbLine
 10
51.5094768524
 20
-5.0751215952
 30
0.0
 11
51.5094768524
 21
-5.1751835612
 31
0.0
  0
SPLINE
  5
8F
330
1F
100
AcDbEntity
  8
0
  6
Continuous
 62
     7
370
    25
100
AcDbSpline
210
0.0
220
0.0
230
1.0
 70
     8
 71
     3
 72
     8
 73
     4
 74
     0
 42
0.00000001
 43
0.00000001
 40
0.2515593220696505
 40
0.2515593220696505
 40
0.2515593220696505
 40
0.2515593220696505
 40
0.2570269335087628
 40
0.2570269335087628
 40
0.2570269335087628
 40
0.2570269335087628
 10
50.51008092207369
 20
-5.109877725107898
 30
0.0
 10
50.84321811450951
 20
-5.098443128895644
 30
0.0
 10
51.17634989362883
 20
-5.086851068798127
 30
0.0
 10
51.50947685242825
 20
-5.075121595191537
 30
0.0
  0
LINE
  5
90
330
1F
100
AcDbEntity
  8
0
  6
Continuous
 62
     7
370
    25
100
AcDbLine
 10
50.5100809221
 20
-5.20993661
 30
0.0
 11
50.5100809221
 21
-5.1098777251
 31
0.0
  0
LINE
  5
91
330
1F
100
AcDbEntity
  8
0
  6
Continuous
 62
     7
370
    25
100
AcDbLine
 10
51.5094768524
 20
-5.1751835612
 30
0.0
 11
50.5100809221
 21
-5.20993661
 31
0.0
  0
LINE
  5
92
330
1F
100
AcDbEntity
  8
0
  6
Continuous
 62
     7
370
    25
100
AcDbLine
 10
50.3101979561
 20
-5.1167194266
 30
0.0
 11
50.3101979561
 21
-5.2167776554
 31
0.0
  0
SPLINE
  5
93
330
1F
100
AcDbEntity
  8
0
  6
Continuous
 62
     7
370
    25
100
AcDbSpline
210
0.0
220
0.0
230
1.0
 70
     8
 71
     3
 72
     9
 73
     5
 74
     0
 42
0.00000001
 43
0.00000001
 40
0.2449981886980502
 40
0.2449981886980502
 40
0.2449981886980502
 40
0.2449981886980502
 40
0.2489385361908614
 40
0.2504657998026026
 40
0.2504657998026026
 40
0.2504657998026026
 40
0.2504657998026026
 10
49.31076276208766
 20
-5.150327839735459
 30
0.0
 10
49.55085488391752
 20
-5.142379958207592
 30
0.0
 10
49.88400148779714
 20
-5.131221329246722
 30
0.0
 10
50.21714239412037
 20
-5.119895625690032
 30
0.0
 10
50.31019795606763
 20
-5.116719426636396
 30
0.0
  0
LINE
  5
94
330
1F
100
AcDbEntity
  8
0
  6
Continuous
 62
     7
370
    25
100
AcDbLine
 10
49.3107627621
 20
-5.2503826108
 30
0.0
 11
49.3107627621
 21
-5.1503278397
 31
0.0
  0
LINE
  5
95
330
1F
100
AcDbEntity
  8
0
  6
Continuous
 62
     7
370
    25
100
AcDbLine
 10
50.3101979561
 20
-5.2167776554
 30
0.0
 11
49.3107627621
 21
-5.2503826108
 31
0.0
  0
ARC
  5
96
330
1F
100
AcDbEntity
  8
0
  6
Continuous
 62
     7
370
    25
100
AcDbCircle
 10
108.9743468352
 20
10.5475894079
 30
0.0
 40
1.000000000000027
100
AcDbArc
 50
315.0
 51
90.0
  0
LINE
  5
97
330
1F
100
AcDbEntity
  8
0
  6
Continuous
 62
     7
370
    25
100
AcDbLine
 10
108.9743468352
 20
11.5475894079
 30
0.0
 11
100.5233978588
 21
11.5475894079
 31
0.0
  0
ARC
  5
98
330
1F
100
AcDbEntity
  8
0
  6
Continuous
 62
     7
370
    25
100
AcDbCircle
 10
100.5233978588
 20
10.5475894079
 30
0.0
 40
1.0
100
AcDbArc
 50
90.0
 51
180.0
  0
LINE
  5
99
330
1F
100
AcDbEntity
  8
0
  6
Continuous
 62
     7
370
    25
100
AcDbLine
 10
99.5233978588
 20
10.5475894079
 30
0.0
 11
99.5233978588
 21
2.0966404315
 31
0.0
  0
ARC
  5
9A
330
1F
100
AcDbEntity
  8
0
  6
Continuous
 62
     7
370
    25
100
AcDbCircle
 10
100.5233978588
 20
2.0966404315
 30
0.0
 40
1.000000000000018
100
AcDbArc
 50
180.0
 51
315.0
  0
LINE
  5
9B
330
1F
100
AcDbEntity
  8
0
  6
Continuous
 62
     7
370
    25
100
AcDbLine
 10
101.23050464
 20
1.3895336504
 30
0.0
 11
109.6814536164
 21
9.8404826267
 31
0.0
  0
LINE
  5
9C
330
1F
100
AcDbEntity
  8
0
  6
Continuous
 62
     7
370
    25
100
AcDbLine
 10
105.1376054159
 20
1.3895336504
 30
0.0
 11
113.5885543923
 21
9.8404826267
 31
0.0
  0
ARC
  5
9D
330
1F
100
AcDbEntity
  8
0
  6
Continuous
 62
     7
370
    25
100
AcDbCircle
 10
105.8447121971
 20
0.6824268692
 30
0.0
 40
1.000000000000008
100
AcDbArc
 50
135.0
 51
270.0
  0
LINE
  5
9E
330
1F
100
AcDbEntity
  8
0
  6
Continuous
 62
     7
370
    25
100
AcDbLine
 10
114.2956611735
 20
-0.3175731308
 30
0.0
 11
105.8447121971
 21
-0.3175731308
 31
0.0
  0
ARC
  5
9F
330
1F
100
AcDbEntity
  8
0
  6
Continuous
 62
     7
370
    25
100
AcDbCircle
 10
114.2956611735
 20
0.6824268692
 30
0.0
 40
1.0
100
AcDbArc
 50
270.0
 51
0.0
  0
LINE
  5
A0
330
1F
100
AcDbEntity
  8
0
  6
Continuous
 62
     7
370
    25
100
AcDbLine
 10
115.2956611735
 20
9.1333758455
 30
0.0
 11
115.2956611735
 21
0.6824268692
 31
0.0
  0
ARC
  5
A1
330
1F
100
AcDbEntity
  8
0
  6
Continuous
 62
     7
370
    25
100
AcDbCircle
 10
114.2956611735
 20
9.1333758455
 30
0.0
 40
1.000000000000004
100
AcDbArc
 50
360.0
 51
135.0
  0
LINE
  5
A2
330
1F
100
AcDbEntity
  8
0
  6
Continuous
 62
     7
370
    25
100
AcDbLine
 10
46.899228289
 20
9.7750726964
 30
0.0
 11
57.5426683676
 21
1.0263620206
 31
0.0
  0
ARC
  5
A3
330
1F
100
AcDbEntity
  8
0
  6
Continuous
 62
     7
370
    25
100
AcDbCircle
 10
58.1776628009
 20
1.7988787322
 30
0.0
 40
1.0
100
AcDbArc
 50
230.5804284001
 51
0.0
  0
LINE
  5
A4
330
1F
100
AcDbEntity
  8
0
  6
Continuous
 62
     7
370
    25
100
AcDbLine
 10
59.1776628009
 20
1.7988787322
 30
0.0
 11
59.1776628009
 21
10.5475894079
 31
0.0
  0
ARC
  5
A5
330
1F
100
AcDbEntity
  8
0
  6
Continuous
 62
     7
370
    25
100
AcDbCircle
 10
58.1776628009
 20
10.5475894079
 30
0.0
 40
1.0
100
AcDbArc
 50
0.0
 51
90.0
  0
LINE
  5
A6
330
1F
100
AcDbEntity
  8
0
  6
Continuous
 62
     7
370
    25
100
AcDbLine
 10
58.1776628009
 20
11.5475894079
 30
0.0
 11
47.5342227224
 21
11.5475894079
 31
0.0
  0
ARC
  5
A7
330
1F
100
AcDbEntity
  8
0
  6
Continuous
 62
     7
370
    25
100
AcDbCircle
 10
47.5342227224
 20
10.5475894079
 30
0.0
 40
1.000000000000002
100
AcDbArc
 50
90.0
 51
230.5804284001
  0
LINE
  5
A8
330
1F
100
AcDbEntity
  8
0
  6
Continuous
 62
     7
370
    25
100
AcDbLine
 10
42.1901549299
 20
-0.3175731308
 30
0.0
 11
52.7873231675
 21
-0.3175731308
 31
0.0
  0
ARC
  5
A9
330
1F
100
AcDbEntity
  8
0
  6
Continuous
 62
     7
370
    25
100
AcDbCircle
 10
52.7873231675
 20
0.6824268692
 30
0.0
 40
1.000000000000001
100
AcDbArc
 50
270.0
 51
50.5804284001
  0
LINE
  5
AA
330
1F
100
AcDbEntity
  8
0
  6
Continuous
 62
     7
370
    25
100
AcDbLine
 10
53.4223176008
 20
1.4549435807
 30
0.0
 11
42.8251493633
 21
10.1656196599
 31
0.0
  0
ARC
  5
AB
330
1F
100
AcDbEntity
  8
0
  6
Continuous
 62
     7
370
    25
100
AcDbCircle
 10
42.1901549299
 20
9.3931029484
 30
0.0
 40
1.000000000000002
100
AcDbArc
 50
50.5804284001
 51
180.0
  0
LINE
  5
AC
330
1F
100
AcDbEntity
  8
0
  6
Continuous
 62
     7
370
    25
100
AcDbLine
 10
41.1901549299
 20
9.3931029484
 30
0.0
 11
41.1901549299
 21
0.6824268692
 31
0.0
  0
ARC
  5
AD
330
1F
100
AcDbEntity
  8
0
  6
Continuous
 62
     7
370
    25
100
AcDbCircle
 10
42.1901549299
 20
0.6824268692
 30
0.0
 40
1.0
100
AcDbArc
 50
180.0
 51
270.0
  0
LINE
  5
AE
330
1F
100
AcDbEntity
  8
0
  6
Continuous
 62
     7
370
    25
100
AcDbLine
 10
77.5667577566
 20
-0.3175731308
 30
0.0
 11
68.2660350796
 21
-0.3175731308
 31
0.0
  0
ARC
  5
AF
330
1F
100
AcDbEntity
  8
0
  6
Continuous
 62
     7
370
    25
100
AcDbCircle
 10
77.5667577566
 20
0.6824268692
 30
0.0
 40
1.0
100
AcDbArc
 50
270.0
 51
0.0
  0
LINE
  5
B0
330
1F
100
AcDbEntity
  8
0
  6
Continuous
 62
     7
370
    25
100
AcDbLine
 10
78.5667577566
 20
9.2642318095
 30
0.0
 11
78.5667577566
 21
0.6824268692
 31
0.0
  0
ARC
  5
B1
330
1F
100
AcDbEntity
  8
0
  6
Continuous
 62
     7
370
    25
100
AcDbCircle
 10
77.5667577566
 20
9.2642318095
 30
0.0
 40
1.000000000000008
100
AcDbArc
 50
360.0
 51
132.6978208403
  0
LINE
  5
B2
330
1F
100
AcDbEntity
  8
0
  6
Continuous
 62
     7
370
    25
100
AcDbLine
 10
67.5879033616
 20
1.4173672566
 30
0.0
 11
76.8886260386
 21
9.9991721969
 31
0.0
  0
ARC
  5
B3
330
1F
100
AcDbEntity
  8
0
  6
Continuous
 62
     7
370
    25
100
AcDbCircle
 10
68.2660350796
 20
0.6824268692
 30
0.0
 40
1.000000000000005
100
AcDbArc
 50
132.6978208403
 51
270.0
  0
ARC
  5
B4
330
1F
100
AcDbEntity
  8
0
  6
Continuous
 62
     7
370
    25
100
AcDbCircle
 10
72.4728954871
 20
10.5475894079
 30
0.0
 40
0.9999999999999991
100
AcDbArc
 50
312.6786653339
 51
90.0
  0
LINE
  5
B5
330
1F
100
AcDbEntity
  8
0
  6
Continuous
 62
     7
370
    25
100
AcDbLine
 10
72.4728954871
 20
11.5475894079
 30
0.0
 11
63.1648054075
 21
11.5475894079
 31
0.0
  0
ARC
  5
B6
330
1F
100
AcDbEntity
  8
0
  6
Continuous
 62
     7
370
    25
100
AcDbCircle
 10
63.1648054075
 20
10.5475894079
 30
0.0
 40
1.0
100
AcDbArc
 50
90.0
 51
180.0
  0
LINE
  5
B7
330
1F
100
AcDbEntity
  8
0
  6
Continuous
 62
     7
370
    25
100
AcDbLine
 10
62.1648054075
 20
10.5475894079
 30
0.0
 11
62.1648054075
 21
1.9647461575
 31
0.0
  0
ARC
  5
B8
330
1F
100
AcDbEntity
  8
0
  6
Continuous
 62
     7
370
    25
100
AcDbCircle
 10
63.1648054075
 20
1.9647461575
 30
0.0
 40
1.000000000000002
100
AcDbArc
 50
180.0
 51
312.6786653339
  0
LINE
  5
B9
330
1F
100
AcDbEntity
  8
0
  6
Continuous
 62
     7
370
    25
100
AcDbLine
 10
63.8426913775
 20
1.2295790936
 30
0.0
 11
73.150781457
 21
9.8124223441
 31
0.0
  0
ARC
  5
BA
330
1F
100
AcDbEntity
  8
0
  6
Continuous
 62
     7
370
    25
100
AcDbCircle
 10
95.6019808855
 20
10.5475894079
 30
0.0
 40
1.0
100
AcDbArc
 50
0.0
 51
90.0
  0
LINE
  5
BB
330
1F
100
AcDbEntity
  8
0
  6
Continuous
 62
     7
370
    25
100
AcDbLine
 10
95.6019808855
 20
11.5475894079
 30
0.0
 11
87.2788036754
 21
11.5475894079
 31
0.0
  0
ARC
  5
BC
330
1F
100
AcDbEntity
  8
0
  6
Continuous
 62
     7
370
    25
100
AcDbCircle
 10
87.2788036754
 20
10.5475894079
 30
0.0
 40
1.0
100
AcDbArc
 50
90.0
 51
224.6374608684
  0
LINE
  5
BD
330
1F
100
AcDbEntity
  8
0
  6
Continuous
 62
     7
370
    25
100
AcDbLine
 10
86.5672368601
 20
9.8449709714
 30
0.0
 11
94.8904140702
 21
1.4157917861
 31
0.0
  0
ARC
  5
BE
330
1F
100
AcDbEntity
  8
0
  6
Continuous
 62
     7
370
    25
100
AcDbCircle
 10
95.6019808855
 20
2.1184102227
 30
0.0
 40
1.0
100
AcDbArc
 50
224.6374608684
 51
0.0
  0
LINE
  5
BF
330
1F
100
AcDbEntity
  8
0
  6
Continuous
 62
     7
370
    25
100
AcDbLine
 10
96.6019808855
 20
2.1184102227
 30
0.0
 11
96.6019808855
 21
10.5475894079
 31
0.0
  0
ARC
  5
C0
330
1F
100
AcDbEntity
  8
0
  6
Continuous
 62
     7
370
    25
100
AcDbCircle
 10
82.3018665445
 20
9.1116060544
 30
0.0
 40
1.0
100
AcDbArc
 50
44.6374608684
 51
180.0
  0
LINE
  5
C1
330
1F
100
AcDbEntity
  8
0
  6
Continuous
 62
     7
370
    25
100
AcDbLine
 10
81.3018665445
 20
9.1116060544
 30
0.0
 11
81.3018665445
 21
0.6824268692
 31
0.0
  0
ARC
  5
C2
330
1F
100
AcDbEntity
  8
0
  6
Continuous
 62
     7
370
    25
100
AcDbCircle
 10
82.3018665445
 20
0.6824268692
 30
0.0
 40
1.0
100
AcDbArc
 50
180.0
 51
270.0
  0
LINE
  5
C3
330
1F
100
AcDbEntity
  8
0
  6
Continuous
 62
     7
370
    25
100
AcDbLine
 10
82.3018665445
 20
-0.3175731308
 30
0.0
 11
90.6250437546
 21
-0.3175731308
 31
0.0
  0
ARC
  5
C4
330
1F
100
AcDbEntity
  8
0
  6
Continuous
 62
     7
370
    25
100
AcDbCircle
 10
90.6250437546
 20
0.6824268692
 30
0.0
 40
1.000000000000022
100
AcDbArc
 50
270.0
 51
44.6374608684
  0
LINE
  5
C5
330
1F
100
AcDbEntity
  8
0
  6
Continuous
 62
     7
370
    25
100
AcDbLine
 10
91.3366105699
 20
1.3850453057
 30
0.0
 11
83.0134333598
 21
9.814224491
 31
0.0
  0
ENDSEC
  0
SECTION
  2
OBJECTS
  0
DICTIONARY
  5
C
330
0
100
AcDbDictionary
281
     1
  3
ACAD_GROUP
350
D
  3
ACAD_LAYOUT
350
1A
  3
ACAD_MLINESTYLE
350
17
  3
ACAD_PLOTSETTINGS
350
19
  3
ACAD_PLOTSTYLENAME
350
E
  3
ACAD_SCALELIST
350
47
  3
DWGPROPS
350
C6
  0
DICTIONARY
  5
D
102
{ACAD_REACTORS
330
C
102
}
330
C
100
AcDbDictionary
281
     1
  0
DICTIONARY
  5
1A
102
{ACAD_REACTORS
330
C
102
}
330
C
100
AcDbDictionary
281
     1
  3
Layout1
350
1E
  3
Layout2
350
26
  3
Model
350
22
  0
DICTIONARY
  5
17
102
{ACAD_REACTORS
330
C
102
}
330
C
100
AcDbDictionary
281
     1
  3
Standard
350
18
  0
DICTIONARY
  5
19
102
{ACAD_REACTORS
330
C
102
}
330
C
100
AcDbDictionary
281
     1
  0
ACDBDICTIONARYWDFLT
  5
E
102
{ACAD_REACTORS
330
C
102
}
330
C
100
AcDbDictionary
281
     1
  3
Normal
350
F
100
AcDbDictionaryWithDefault
340
F
  0
DICTIONARY
  5
47
102
{ACAD_REACTORS
330
C
102
}
330
C
100
AcDbDictionary
281
     1
  3
A0
350
48
  3
A1
350
49
  3
A2
350
4A
  3
A3
350
4B
  3
A4
350
4C
  3
A5
350
4D
  3
A6
350
4E
  3
A7
350
4F
  3
A8
350
50
  3
A9
350
51
  3
B0
350
52
  3
B1
350
53
  3
B2
350
54
  3
B3
350
55
  3
B4
350
56
  3
B5
350
57
  3
B6
350
58
  0
XRECORD
  5
C6
102
{ACAD_REACTORS
330
C
102
}
330
C
100
AcDbXrecord
280
     1
  1
DWGPROPS COOKIE
  2

  3

  4

  6

  7

  8
CX_in_command
  9

300
=
301
=
302
=
303
=
304
=
305
=
306
=
307
=
308
=
309
=
 40
0.0
 41
2461081.380732315
 42
2461081.381099468
  1

 90
        0
  0
LAYOUT
  5
1E
102
{ACAD_REACTORS
330
1A
102
}
330
1A
100
AcDbPlotSettings
  1

  2
none_device
  4

  6

 40
0.0
 41
0.0
 42
0.0
 43
0.0
 44
0.0
 45
0.0
 46
0.0
 47
0.0
 48
0.0
 49
0.0
140
0.0
141
0.0
142
1.0
143
1.0
 70
   688
 72
     1
 73
     0
 74
     5
  7

 75
    16
147
1.0
148
0.0
149
0.0
100
AcDbLayout
  1
Layout1
 70
     1
 71
     1
 10
0.0
 20
0.0
 11
420.0
 21
297.0
 12
0.0
 22
0.0
 32
0.0
 14
1.0000000000E+20
 24
1.0000000000E+20
 34
1.0000000000E+20
 15
-1.0000000000E+20
 25
-1.0000000000E+20
 35
-1.0000000000E+20
146
0.0
 13
0.0
 23
0.0
 33
0.0
 16
1.0
 26
0.0
 36
0.0
 17
0.0
 27
1.0
 37
0.0
 76
     0
330
1B
  0
LAYOUT
  5
26
102
{ACAD_REACTORS
330
1A
102
}
330
1A
100
AcDbPlotSettings
  1

  2
none_device
  4

  6

 40
0.0
 41
0.0
 42
0.0
 43
0.0
 44
0.0
 45
0.0
 46
0.0
 47
0.0
 48
0.0
 49
0.0
140
0.0
141
0.0
142
1.0
143
1.0
 70
   688
 72
     1
 73
     0
 74
     5
  7

 75
    16
147
1.0
148
0.0
149
0.0
100
AcDbLayout
  1
Layout2
 70
     1
 71
     2
 10
0.0
 20
0.0
 11
0.0
 21
0.0
 12
0.0
 22
0.0
 32
0.0
 14
0.0
 24
0.0
 34
0.0
 15
0.0
 25
0.0
 35
0.0
146
0.0
 13
0.0
 23
0.0
 33
0.0
 16
1.0
 26
0.0
 36
0.0
 17
0.0
 27
1.0
 37
0.0
 76
     0
330
23
  0
LAYOUT
  5
22
102
{ACAD_REACTORS
330
1A
102
}
330
1A
100
AcDbPlotSettings
  1

  2
none_device
  4
ANSI_A_(11.00_x_8.50_Inches)
  6

 40
6.35
 41
19.05
 42
6.35000508
 43
19.05000254
 44
279.4
 45
215.9
 46
-17.8813762656
 47
82.4208515227
 48
0.0
 49
0.0
140
0.0
141
0.0
142
0.079537191
143
1.0
 70
  1696
 72
     0
 73
     0
 74
     0
  7

 75
     0
147
0.0179189148
148
-1300.4909072572
149
0.0
100
AcDbLayout
  1
Model
 70
     1
 71
     0
 10
0.0
 20
0.0
 11
420.0
 21
297.0
 12
0.0
 22
0.0
 32
0.0
 14
6.3994099473
 24
-10.0
 34
0.0
 15
143.3164905827
 25
16.4142203758
 35
0.0
146
0.0
 13
0.0
 23
0.0
 33
0.0
 16
1.0
 26
0.0
 36
0.0
 17
0.0
 27
1.0
 37
0.0
 76
     0
330
1F
331
29
  0
MLINESTYLE
  5
18
102
{ACAD_REACTORS
330
17
102
}
330
17
100
AcDbMlineStyle
  2
Standard
 70
     0
  3

 62
   256
 51
90.0
 52
90.0
 71
     2
 49
0.5
 62
   256
  6
BYLAYER
 49
-0.5
 62
   256
  6
BYLAYER
  0
ACDBPLACEHOLDER
  5
F
102
{ACAD_REACTORS
330
E
102
}
330
E
  0
SCALE
  5
48
102
{ACAD_REACTORS
330
47
102
}
330
47
100
AcDbScale
 70
     0
300
1:1
140
1.0
141
1.0
290
     1
  0
SCALE
  5
49
102
{ACAD_REACTORS
330
47
102
}
330
47
100
AcDbScale
 70
     0
300
1:2
140
1.0
141
2.0
290
     0
  0
SCALE
  5
4A
102
{ACAD_REACTORS
330
47
102
}
330
47
100
AcDbScale
 70
     0
300
1:4
140
1.0
141
4.0
290
     0
  0
SCALE
  5
4B
102
{ACAD_REACTORS
330
47
102
}
330
47
100
AcDbScale
 70
     0
300
1:5
140
1.0
141
5.0
290
     0
  0
SCALE
  5
4C
102
{ACAD_REACTORS
330
47
102
}
330
47
100
AcDbScale
 70
     0
300
1:8
140
1.0
141
8.0
290
     0
  0
SCALE
  5
4D
102
{ACAD_REACTORS
330
47
102
}
330
47
100
AcDbScale
 70
     0
300
1:10
140
1.0
141
10.0
290
     0
  0
SCALE
  5
4E
102
{ACAD_REACTORS
330
47
102
}
330
47
100
AcDbScale
 70
     0
300
1:16
140
1.0
141
16.0
290
     0
  0
SCALE
  5
4F
102
{ACAD_REACTORS
330
47
102
}
330
47
100
AcDbScale
 70
     0
300
1:20
140
1.0
141
20.0
290
     0
  0
SCALE
  5
50
102
{ACAD_REACTORS
330
47
102
}
330
47
100
AcDbScale
 70
     0
300
1:30
140
1.0
141
30.0
290
     0
  0
SCALE
  5
51
102
{ACAD_REACTORS
330
47
102
}
330
47
100
AcDbScale
 70
     0
300
1:40
140
1.0
141
40.0
290
     0
  0
SCALE
  5
52
102
{ACAD_REACTORS
330
47
102
}
330
47
100
AcDbScale
 70
     0
300
1:50
140
1.0
141
50.0
290
     0
  0
SCALE
  5
53
102
{ACAD_REACTORS
330
47
102
}
330
47
100
AcDbScale
 70
     0
300
1:100
140
1.0
141
100.0
290
     0
  0
SCALE
  5
54
102
{ACAD_REACTORS
330
47
102
}
330
47
100
AcDbScale
 70
     0
300
2:1
140
2.0
141
1.0
290
     0
  0
SCALE
  5
55
102
{ACAD_REACTORS
330
47
102
}
330
47
100
AcDbScale
 70
     0
300
4:1
140
4.0
141
1.0
290
     0
  0
SCALE
  5
56
102
{ACAD_REACTORS
330
47
102
}
330
47
100
AcDbScale
 70
     0
300
8:1
140
8.0
141
1.0
290
     0
  0
SCALE
  5
57
102
{ACAD_REACTORS
330
47
102
}
330
47
100
AcDbScale
 70
     0
300
10:1
140
10.0
141
1.0
290
     0
  0
SCALE
  5
58
102
{ACAD_REACTORS
330
47
102
}
330
47
100
AcDbScale
 70
     0
300
100:1
140
100.0
141
1.0
290
     0
  0
ENDSEC
  0
EOF
