  0
SECTION
  2
HEADER
  9
$ACADVER
  1
AC1015
  9
$ACADMAINTVER
 70
     6
  9
$DWGCODEPAGE
  3
ANSI_936
  9
$INSBASE
 10
0.0
 20
0.0
 30
0.0
  9
$EXTMIN
 10
-0.0098585293
 20
-10.0000087069
 30
0.0
  9
$EXTMAX
 10
143.3164905827
 20
17.0860416603
 30
0.0
  9
$LIMMIN
 10
0.0
 20
0.0
  9
$LIMMAX
 10
420.0
 20
297.0
  9
$ORTHOMODE
 70
     0
  9
$REGENMODE
 70
     1
  9
$FILLMODE
 70
     1
  9
$QTEXTMODE
 70
     0
  9
$MIRRTEXT
 70
     1
  9
$LTSCALE
 40
1.0
  9
$ATTMODE
 70
     1
  9
$TEXTSIZE
 40
3.5
  9
$TRACEWID
 40
1.0
  9
$TEXTSTYLE
  7
Standard
  9
$CLAYER
  8
0
  9
$CELTYPE
  6
ByLayer
  9
$CECOLOR
 62
   256
  9
$CELTSCALE
 40
1.0
  9
$DISPSILH
 70
     0
  9
$DIMSCALE
 40
1.0
  9
$DIMASZ
 40
3.556
  9
$DIMEXO
 40
0.0
  9
$DIMDLI
 40
3.75
  9
$DIMRND
 40
0.0
  9
$DIMDLE
 40
0.0
  9
$DIMEXE
 40
1.0
  9
$DIMTP
 40
0.0
  9
$DIMTM
 40
0.0
  9
$DIMTXT
 40
3.5
  9
$DIMCEN
 40
2.5
  9
$DIMTSZ
 40
0.0
  9
$DIMTOL
 70
     0
  9
$DIMLIM
 70
     0
  9
$DIMTIH
 70
     1
  9
$DIMTOH
 70
     1
  9
$DIMSE1
 70
     0
  9
$DIMSE2
 70
     0
  9
$DIMTAD
 70
     1
  9
$DIMZIN
 70
     1
  9
$DIMBLK
  1

  9
$DIMASO
 70
     1
  9
$DIMSHO
 70
     1
  9
$DIMPOST
  1

  9
$DIMAPOST
  1

  9
$DIMALT
 70
     0
  9
$DIMALTD
 70
     3
  9
$DIMALTF
 40
0.0393700787
  9
$DIMLFAC
 40
1.0
  9
$DIMTOFL
 70
     1
  9
$DIMTVP
 40
0.0
  9
$DIMTIX
 70
     0
  9
$DIMSOXD
 70
     0
  9
$DIMSAH
 70
     0
  9
$DIMBLK1
  1

  9
$DIMBLK2
  1

  9
$DIMSTYLE
  2
ISO-25
  9
$DIMCLRD
 70
     0
  9
$DIMCLRE
 70
     0
  9
$DIMCLRT
 70
     0
  9
$DIMTFAC
 40
1.0
  9
$DIMGAP
 40
1.524
  9
$DIMJUST
 70
     0
  9
$DIMSD1
 70
     0
  9
$DIMSD2
 70
     0
  9
$DIMTOLJ
 70
     0
  9
$DIMTZIN
 70
     1
  9
$DIMALTZ
 70
     0
  9
$DIMALTTZ
 70
     0
  9
$DIMUPT
 70
     0
  9
$DIMDEC
 70
     2
  9
$DIMTDEC
 70
     2
  9
$DIMALTU
 70
     2
  9
$DIMALTTD
 70
     3
  9
$DIMTXSTY
  7
Standard
  9
$DIMAUNIT
 70
     0
  9
$DIMADEC
 70
     2
  9
$DIMALTRND
 40
0.0
  9
$DIMAZIN
 70
     0
  9
$DIMDSEP
 70
    44
  9
$DIMATFIT
 70
     3
  9
$DIMFRAC
 70
     0
  9
$DIMLDRBLK
  1

  9
$DIMLUNIT
 70
     2
  9
$DIMLWD
 70
    -2
  9
$DIMLWE
 70
    -2
  9
$DIMTMOVE
 70
     0
  9
$LUNITS
 70
     2
  9
$LUPREC
 70
     2
  9
$SKETCHINC
 40
1.0
  9
$FILLETRAD
 40
0.0
  9
$AUNITS
 70
     0
  9
$AUPREC
 70
     2
  9
$MENU
  1
.
  9
$ELEVATION
 40
0.0
  9
$PELEVATION
 40
0.0
  9
$THICKNESS
 40
0.0
  9
$LIMCHECK
 70
     0
  9
$CHAMFERA
 40
0.0
  9
$CHAMFERB
 40
0.0
  9
$CHAMFERC
 40
0.0
  9
$CHAMFERD
 40
0.0
  9
$SKPOLY
 70
     0
  9
$TDCREATE
 40
2461081.712683785
  9
$TDUCREATE
 40
2461081.379350452
  9
$TDUPDATE
 40
2461081.713092431
  9
$TDUUPDATE
 40
2461081.379759097
  9
$TDINDWG
 40
0.0000000116
  9
$TDUSRTIMER
 40
0.0000000116
  9
$USRTIMER
 70
     1
  9
$ANGBASE
 50
0.0
  9
$ANGDIR
 70
     0
  9
$PDMODE
 70
     0
  9
$PDSIZE
 40
-1.0
  9
$PLINEWID
 40
0.0
  9
$SPLFRAME
 70
     0
  9
$SPLINETYPE
 70
     6
  9
$SPLINESEGS
 70
     8
  9
$HANDSEED
  5
C5
  9
$SURFTAB1
 70
     6
  9
$SURFTAB2
 70
     6
  9
$SURFTYPE
 70
     6
  9
$SURFU
 70
     6
  9
$SURFV
 70
     6
  9
$UCSBASE
  2

  9
$UCSNAME
  2

  9
$UCSORG
 10
0.0
 20
0.0
 30
0.0
  9
$UCSXDIR
 10
1.0
 20
0.0
 30
0.0
  9
$UCSYDIR
 10
0.0
 20
1.0
 30
0.0
  9
$UCSORTHOREF
  2

  9
$UCSORTHOVIEW
 70
     0
  9
$UCSORGTOP
 10
0.0
 20
0.0
 30
0.0
  9
$UCSORGBOTTOM
 10
0.0
 20
0.0
 30
0.0
  9
$UCSORGLEFT
 10
0.0
 20
0.0
 30
0.0
  9
$UCSORGRIGHT
 10
0.0
 20
0.0
 30
0.0
  9
$UCSORGFRONT
 10
0.0
 20
0.0
 30
0.0
  9
$UCSORGBACK
 10
0.0
 20
0.0
 30
0.0
  9
$PUCSBASE
  2

  9
$PUCSNAME
  2

  9
$PUCSORG
 10
0.0
 20
0.0
 30
0.0
  9
$PUCSXDIR
 10
1.0
 20
0.0
 30
0.0
  9
$PUCSYDIR
 10
0.0
 20
1.0
 30
0.0
  9
$PUCSORTHOREF
  2

  9
$PUCSORTHOVIEW
 70
     0
  9
$PUCSORGTOP
 10
0.0
 20
0.0
 30
0.0
  9
$PUCSORGBOTTOM
 10
0.0
 20
0.0
 30
0.0
  9
$PUCSORGLEFT
 10
0.0
 20
0.0
 30
0.0
  9
$PUCSORGRIGHT
 10
0.0
 20
0.0
 30
0.0
  9
$PUCSORGFRONT
 10
0.0
 20
0.0
 30
0.0
  9
$PUCSORGBACK
 10
0.0
 20
0.0
 30
0.0
  9
$USERI1
 70
     0
  9
$USERI2
 70
     0
  9
$USERI3
 70
     0
  9
$USERI4
 70
     0
  9
$USERI5
 70
     0
  9
$USERR1
 40
0.0
  9
$USERR2
 40
0.0
  9
$USERR3
 40
0.0
  9
$USERR4
 40
0.0
  9
$USERR5
 40
0.0
  9
$WORLDVIEW
 70
     1
  9
$SHADEDGE
 70
     3
  9
$SHADEDIF
 70
    70
  9
$TILEMODE
 70
     1
  9
$MAXACTVP
 70
    64
  9
$PINSBASE
 10
0.0
 20
0.0
 30
0.0
  9
$PLIMCHECK
 70
     0
  9
$PEXTMIN
 10
1.0000000000E+20
 20
1.0000000000E+20
 30
1.0000000000E+20
  9
$PEXTMAX
 10
-1.0000000000E+20
 20
-1.0000000000E+20
 30
-1.0000000000E+20
  9
$PLIMMIN
 10
0.0
 20
0.0
  9
$PLIMMAX
 10
420.0
 20
297.0
  9
$UNITMODE
 70
     0
  9
$VISRETAIN
 70
     1
  9
$PLINEGEN
 70
     0
  9
$PSLTSCALE
 70
     1
  9
$TREEDEPTH
 70
  3020
  9
$CMLSTYLE
  2
Standard
  9
$CMLJUST
 70
     0
  9
$CMLSCALE
 40
20.0
  9
$PROXYGRAPHICS
 70
     1
  9
$MEASUREMENT
 70
     1
  9
$CELWEIGHT
370
    -1
  9
$ENDCAPS
280
     0
  9
$JOINSTYLE
280
     0
  9
$LWDISPLAY
290
     1
  9
$INSUNITS
 70
     4
  9
$HYPERLINKBASE
  1

  9
$STYLESHEET
  1

  9
$XEDIT
290
     1
  9
$CEPSNTYPE
380
     0
  9
$PSTYLEMODE
290
     1
  9
$FINGERPRINTGUID
  2
{4601cce8-745f-4cd1-9fca-8f834ed58e1c}
  9
$VERSIONGUID
  2
{FAEB1C32-E019-11D5-929B-00C0DF256EC4}
  9
$EXTNAMES
290
     1
  9
$PSVPSCALE
 40
0.0
  9
$OLESTARTUP
290
     0
  0
ENDSEC
  0
SECTION
  2
CLASSES
  0
CLASS
  1
ACDBDICTIONARYWDFLT
  2
AcDbDictionaryWithDefault
  3
ObjectDBX Classes
 90
        0
280
     0
281
     0
  0
CLASS
  1
VISUALSTYLE
  2
AcDbVisualStyle
  3
ObjectDBX Classes
 90
     4095
280
     0
281
     0
  0
CLASS
  1
MATERIAL
  2
AcDbMaterial
  3
ObjectDBX Classes
 90
     1153
280
     0
281
     0
  0
CLASS
  1
SCALE
  2
AcDbScale
  3
ObjectDBX Classes
 90
     1153
280
     0
281
     0
  0
CLASS
  1
TABLESTYLE
  2
AcDbTableStyle
  3
ObjectDBX Classes
 90
     4095
280
     0
281
     0
  0
CLASS
  1
MLEADERSTYLE
  2
AcDbMLeaderStyle
  3
ACDB_MLEADERSTYLE_CLASS
 90
     4095
280
     0
281
     0
  0
CLASS
  1
SUN
  2
AcDbSun
  3
SCENEOE
 90
     1153
280
     0
281
     0
  0
CLASS
  1
ACDBPLACEHOLDER
  2
AcDbPlaceHolder
  3
ObjectDBX Classes
 90
        0
280
     0
281
     0
  0
CLASS
  1
LAYOUT
  2
AcDbLayout
  3
ObjectDBX Classes
 90
        0
280
     0
281
     0
  0
ENDSEC
  0
SECTION
  2
TABLES
  0
TABLE
  2
VPORT
  5
8
330
0
100
AcDbSymbolTable
 70
     1
  0
VPORT
  5
29
330
8
100
AcDbSymbolTableRecord
100
AcDbViewportTableRecord
  2
*Active
 70
     0
 10
0.0
 20
0.0
 11
1.0
 21
1.0
 12
71.6533160267
 22
3.5430164767
 13
0.0
 23
0.0
 14
10.0
 24
10.0
 15
10.0
 25
10.0
 16
0.0
 26
0.0
 36
1.0
 17
0.0
 27
0.0
 37
0.0
 40
27.6277713746
 41
5.2915189616
 42
50.0
 43
0.0
 44
0.0
 50
0.0
 51
0.0
 71
     0
 72
   100
 73
     1
 74
     3
 75
     0
 76
     0
 77
     0
 78
     0
281
     0
 65
     1
110
0.0
120
0.0
130
0.0
111
1.0
121
0.0
131
0.0
112
0.0
122
1.0
132
0.0
 79
     0
146
0.0
  0
ENDTAB
  0
TABLE
  2
LTYPE
  5
5
330
0
100
AcDbSymbolTable
 70
     6
  0
LTYPE
  5
14
330
5
100
AcDbSymbolTableRecord
100
AcDbLinetypeTableRecord
  2
ByBlock
 70
     0
  3

 72
    65
 73
     0
 40
0.0
  0
LTYPE
  5
15
330
5
100
AcDbSymbolTableRecord
100
AcDbLinetypeTableRecord
  2
ByLayer
 70
     0
  3

 72
    65
 73
     0
 40
0.0
  0
LTYPE
  5
16
330
5
100
AcDbSymbolTableRecord
100
AcDbLinetypeTableRecord
  2
Continuous
 70
     0
  3
Solid line
 72
    65
 73
     0
 40
0.0
  0
LTYPE
  5
5E
330
5
100
AcDbSymbolTableRecord
100
AcDbLinetypeTableRecord
  2
HIDDEN
 70
     0
  3
Hidden __ __ __ __ __ __ __ __ __ __ __ __ __ __
 72
    65
 73
     2
 40
1.905
 49
1.27
 74
     0
 49
-0.635
 74
     0
  0
LTYPE
  5
5F
330
5
100
AcDbSymbolTableRecord
100
AcDbLinetypeTableRecord
  2
PHANTOM
 70
     0
  3
Phantom ______  __  __  ______  __  __  ______
 72
    65
 73
     6
 40
12.7
 49
6.35
 74
     0
 49
-1.27
 74
     0
 49
1.27
 74
     0
 49
-1.27
 74
     0
 49
1.27
 74
     0
 49
-1.27
 74
     0
  0
LTYPE
  5
60
330
5
100
AcDbSymbolTableRecord
100
AcDbLinetypeTableRecord
  2
CENTER
 70
     0
  3
Center ____ _ ____ _ ____ _ ____ _ ____ _ ____
 72
    65
 73
     4
 40
10.16
 49
6.35
 74
     0
 49
-1.27
 74
     0
 49
1.27
 74
     0
 49
-1.27
 74
     0
  0
LTYPE
  5
61
330
5
100
AcDbSymbolTableRecord
100
AcDbLinetypeTableRecord
  2
CENTERX2
 70
     0
  3
Center (2x) ________  __  ________  __  _____
 72
    65
 73
     4
 40
20.32
 49
12.7
 74
     0
 49
-2.54
 74
     0
 49
2.54
 74
     0
 49
-2.54
 74
     0
  0
LTYPE
  5
62
330
5
100
AcDbSymbolTableRecord
100
AcDbLinetypeTableRecord
  2
DOT2
 70
     0
  3
Dot (.5x) ........................................
 72
    65
 73
     2
 40
0.635
 49
0.0
 74
     0
 49
-0.635
 74
     0
  0
ENDTAB
  0
TABLE
  2
LAYER
  5
2
330
0
100
AcDbSymbolTable
 70
     1
  0
LAYER
  5
10
330
2
100
AcDbSymbolTableRecord
100
AcDbLayerTableRecord
  2
0
 70
     0
 62
     7
  6
Continuous
370
    -3
390
F
  0
ENDTAB
  0
TABLE
  2
STYLE
  5
3
330
0
100
AcDbSymbolTable
 70
     1
  0
STYLE
  5
11
330
3
100
AcDbSymbolTableRecord
100
AcDbTextStyleTableRecord
  2
Standard
 70
     0
 40
0.0
 41
1.0
 50
0.0
 71
     0
 42
3.5
  3
txt
  4

  0
ENDTAB
  0
TABLE
  2
VIEW
  5
6
330
0
100
AcDbSymbolTable
 70
     0
  0
ENDTAB
  0
TABLE
  2
UCS
  5
7
330
0
100
AcDbSymbolTable
 70
     0
  0
ENDTAB
  0
TABLE
  2
APPID
  5
9
330
0
100
AcDbSymbolTable
 70
     1
  0
APPID
  5
12
330
9
100
AcDbSymbolTableRecord
100
AcDbRegAppTableRecord
  2
ACAD
 70
     0
  0
ENDTAB
  0
TABLE
  2
DIMSTYLE
  5
A
330
0
100
AcDbSymbolTable
 70
     1
100
AcDbDimStyleTable
  0
DIMSTYLE
105
27
330
A
100
AcDbSymbolTableRecord
100
AcDbDimStyleTableRecord
  2
ISO-25
 70
     0
 41
2.5
 42
0.625
 43
3.75
 44
1.25
 73
     0
 74
     0
 77
     1
 78
     8
140
2.5
141
2.5
143
0.0393700787
147
0.625
171
     3
172
     1
178
     0
271
     2
272
     2
274
     3
278
    44
283
     0
284
     8
340
11
  0
ENDTAB
  0
TABLE
  2
BLOCK_RECORD
  5
1
330
0
100
AcDbSymbolTable
 70
     1
  0
BLOCK_RECORD
  5
1F
330
1
100
AcDbSymbolTableRecord
100
AcDbBlockTableRecord
  2
*Model_Space
340
22
  0
BLOCK_RECORD
  5
1B
330
1
100
AcDbSymbolTableRecord
100
AcDbBlockTableRecord
  2
*Paper_Space
340
1E
  0
BLOCK_RECORD
  5
23
330
1
100
AcDbSymbolTableRecord
100
AcDbBlockTableRecord
  2
*Paper_Space0
340
26
  0
ENDTAB
  0
ENDSEC
  0
SECTION
  2
BLOCKS
  0
BLOCK
  5
20
330
1F
100
AcDbEntity
  8
0
100
AcDbBlockBegin
  2
*Model_Space
 70
     0
 10
0.0
 20
0.0
 30
0.0
  3
*Model_Space
  1

  0
ENDBLK
  5
21
330
1F
100
AcDbEntity
  8
0
100
AcDbBlockEnd
  0
BLOCK
  5
1C
330
1B
100
AcDbEntity
 67
     1
  8
0
100
AcDbBlockBegin
  2
*Paper_Space
 70
     0
 10
0.0
 20
0.0
 30
0.0
  3
*Paper_Space
  1

  0
ENDBLK
  5
1D
330
1B
100
AcDbEntity
 67
     1
  8
0
100
AcDbBlockEnd
  0
BLOCK
  5
24
330
23
100
AcDbEntity
  8
0
100
AcDbBlockBegin
  2
*Paper_Space0
 70
     0
 10
0.0
 20
0.0
 30
0.0
  3
*Paper_Space0
  1

  0
ENDBLK
  5
25
330
23
100
AcDbEntity
  8
0
100
AcDbBlockEnd
  0
ENDSEC
  0
SECTION
  2
ENTITIES
  0
LINE
  5
63
330
1F
100
AcDbEntity
  8
0
  6
Continuous
 62
     7
370
    25
100
AcDbLine
 10
63.3944565352
 20
12.1920741645
 30
0.0
 11
75.8694210524
 21
12.1920741645
 31
0.0
  0
ARC
  5
64
330
1F
100
AcDbEntity
  8
0
  6
Continuous
 62
     7
370
    25
100
AcDbCircle
 10
63.3944565352
 20
11.1920741645
 30
0.0
 40
1.0
100
AcDbArc
 50
90.0
 51
180.0
  0
LINE
  5
65
330
1F
100
AcDbEntity
  8
0
  6
Continuous
 62
     7
370
    25
100
AcDbLine
 10
62.3944565352
 20
1.9813710537
 30
0.0
 11
62.3944565352
 21
11.1920741645
 31
0.0
  0
ARC
  5
66
330
1F
100
AcDbEntity
  8
0
  6
Continuous
 62
     7
370
    25
100
AcDbCircle
 10
63.3944565352
 20
1.9813710537
 30
0.0
 40
1.000000000000008
100
AcDbArc
 50
180.0
 51
306.4397503742
  0
LINE
  5
67
330
1F
100
AcDbEntity
  8
0
  6
Continuous
 62
     7
370
    25
100
AcDbLine
 10
76.4633982113
 20
10.38759226
 30
0.0
 11
63.9884336941
 21
1.1768891491
 31
0.0
  0
ARC
  5
68
330
1F
100
AcDbEntity
  8
0
  6
Continuous
 62
     7
370
    25
100
AcDbCircle
 10
75.8694210524
 20
11.1920741645
 30
0.0
 40
1.000000000000002
100
AcDbArc
 50
306.4397503742
 51
90.0
  0
ARC
  5
69
330
1F
100
AcDbEntity
  8
0
  6
Continuous
 62
     7
370
    25
100
AcDbCircle
 10
119.1963812804
 20
8.8575111663
 30
0.0
 40
1.0
100
AcDbArc
 50
360.0
 51
133.5029879635
  0
LINE
  5
6A
330
1F
100
AcDbEntity
  8
0
  6
Continuous
 62
     7
370
    25
100
AcDbLine
 10
118.5079888775
 20
9.5828496388
 30
0.0
 11
110.228764524
 21
1.7253384725
 31
0.0
  0
ARC
  5
6B
330
1F
100
AcDbEntity
  8
0
  6
Continuous
 62
     7
370
    25
100
AcDbCircle
 10
110.9171569268
 20
1.0
 30
0.0
 40
1.000000000000001
100
AcDbArc
 50
133.5029879635
 51
270.0
  0
LINE
  5
6C
330
1F
100
AcDbEntity
  8
0
  6
Continuous
 62
     7
370
    25
100
AcDbLine
 10
110.9171569268
 20
0.0
 30
0.0
 11
119.1963812804
 21
0.0
 31
0.0
  0
ARC
  5
6D
330
1F
100
AcDbEntity
  8
0
  6
Continuous
 62
     7
370
    25
100
AcDbCircle
 10
119.1963812804
 20
1.0
 30
0.0
 40
1.0
100
AcDbArc
 50
270.0
 51
0.0
  0
LINE
  5
6E
330
1F
100
AcDbEntity
  8
0
  6
Continuous
 62
     7
370
    25
100
AcDbLine
 10
120.1963812804
 20
1.0
 30
0.0
 11
120.1963812804
 21
8.8575111663
 31
0.0
  0
SPLINE
  5
6F
330
1F
100
AcDbEntity
  8
0
  6
Continuous
 62
     7
370
    25
100
AcDbSpline
210
0.0
220
0.0
230
1.0
 70
     8
 71
     3
 72
     9
 73
     5
 74
     0
 42
0.00000001
 43
0.00000001
 40
0.7250271430662333
 40
0.7250271430662333
 40
0.7250271430662333
 40
0.7250271430662333
 40
0.7468156085725839
 40
0.7570064476831795
 40
0.7570064476831795
 40
0.7570064476831795
 40
0.7570064476831795
 10
135.2643393164327
 20
-1.993400615708071
 30
0.0
 10
136.6388436902578
 20
-1.942919297276006
 30
0.0
 10
138.6562274130772
 20
-1.868829015425945
 30
0.0
 10
140.6736112644638
 20
-1.794741701663451
 30
0.0
 10
141.3164906086455
 20
-1.771132415172379
 30
0.0
  0
LINE
  5
70
330
1F
100
AcDbEntity
  8
0
  6
Continuous
 62
     7
370
    25
100
AcDbLine
 10
135.2643393008
 20
-10.0
 30
0.0
 11
135.2643393008
 21
-1.9934001894
 31
0.0
  0
LINE
  5
71
330
1F
100
AcDbEntity
  8
0
  6
Continuous
 62
     7
370
    25
100
AcDbLine
 10
131.2643393008
 20
-10.0
 30
0.0
 11
135.2643393008
 21
-10.0
 31
0.0
  0
LINE
  5
72
330
1F
100
AcDbEntity
  8
0
  6
Continuous
 62
     7
370
    25
100
AcDbLine
 10
131.2643393008
 20
-2.240244322
 30
0.0
 11
131.2643393008
 21
-10.0
 31
0.0
  0
LINE
  5
73
330
1F
100
AcDbEntity
  8
0
  6
Continuous
 62
     7
370
    25
100
AcDbLine
 10
131.4668950124
 20
-2.2328116876
 30
0.0
 11
131.2643393008
 21
-2.240244322
 31
0.0
  0
LINE
  5
74
330
1F
100
AcDbEntity
  8
0
  6
Continuous
 62
     7
370
    25
100
AcDbLine
 10
131.4668950124
 20
-2.132872355
 30
0.0
 11
131.4668950124
 21
-2.2328116876
 31
0.0
  0
SPLINE
  5
75
330
1F
100
AcDbEntity
  8
0
  6
Continuous
 62
     7
370
    25
100
AcDbSpline
210
0.0
220
0.0
230
1.0
 70
     8
 71
     3
 72
     9
 73
     5
 74
     0
 42
0.00000001
 43
0.00000001
 40
0.6830310495043188
 40
0.6830310495043188
 40
0.6830310495043188
 40
0.6830310495043188
 40
0.6845809745248683
 40
0.7049616105323451
 40
0.7049616105323451
 40
0.7049616105323451
 40
0.7049616105323451
 10
127.3164905849963
 20
-2.285320058963216
 30
0.0
 10
127.4142660925431
 20
-2.281728496953658
 30
0.0
 10
128.7977341428975
 20
-2.230910118665383
 30
0.0
 10
130.1812023116357
 20
-2.180094887498228
 30
0.0
 10
131.4668950252767
 20
-2.132872706002979
 30
0.0
  0
LINE
  5
76
330
1F
100
AcDbEntity
  8
0
  6
Continuous
 62
     7
370
    25
100
AcDbLine
 10
127.3164905827
 20
-2.2853199956
 30
0.0
 11
127.3164905827
 21
4.7146873594
 31
0.0
  0
LINE
  5
77
330
1F
100
AcDbEntity
  8
0
  6
Continuous
 62
     7
370
    25
100
AcDbLine
 10
125.3164905827
 20
4.7146873594
 30
0.0
 11
127.3164905827
 21
4.7146873594
 31
0.0
  0
LINE
  5
78
330
1F
100
AcDbEntity
  8
0
  6
Continuous
 62
     7
370
    25
100
AcDbLine
 10
125.3164905827
 20
-2.3587836743
 30
0.0
 11
125.3164905827
 21
4.7146873594
 31
0.0
  0
SPLINE
  5
79
330
1F
100
AcDbEntity
  8
0
  6
Continuous
 62
     7
370
    25
100
AcDbSpline
210
0.0
220
0.0
230
1.0
 70
     8
 71
     3
 72
    24
 73
    20
 74
     0
 42
0.00000001
 43
0.00000001
 40
0.295011246634332
 40
0.295011246634332
 40
0.295011246634332
 40
0.295011246634332
 40
0.2956145117266478
 40
0.3111731702385767
 40
0.3267318287505055
 40
0.3422904872624341
 40
0.3578491457743631
 40
0.3734078042862919
 40
0.3889664627982208
 40
0.4045251213101496
 40
0.4356424383340072
 40
0.4667597553578648
 40
0.4978770723817225
 40
0.5289943894055802
 40
0.5601117064294378
 40
0.5912290234532954
 40
0.6223463404771531
 40
0.6534636575010108
 40
0.67246313388135
 40
0.67246313388135
 40
0.67246313388135
 40
0.67246313388135
 10
53.88303117798672
 20
-4.985136619730025
 30
0.0
 10
53.92108557051176
 20
-4.983685340915221
 30
0.0
 10
54.94059125465625
 20
-4.944804736982905
 30
0.0
 10
56.94155034388283
 20
-4.8685497777975
 30
0.0
 10
59.88598564507659
 20
-4.758413267389257
 30
0.0
 10
62.83046910748693
 20
-4.649577441543508
 30
0.0
 10
65.77499375554288
 20
-4.541859720155227
 30
0.0
 10
68.71954097010973
 20
-4.43476289030634
 30
0.0
 10
71.66409837120341
 20
-4.327946174830705
 30
0.0
 10
75.5901706175501
 20
-4.185405170749878
 30
0.0
 10
80.49771271607247
 20
-4.005905376097516
 30
0.0
 10
86.38671876183031
 20
-3.789294411543437
 30
0.0
 10
92.27570650132886
 20
-3.572186579379867
 30
0.0
 10
98.164712686581
 20
-3.355579566156052
 30
0.0
 10
104.0537335520562
 20
-3.13937217844608
 30
0.0
 10
109.9427590654347
 20
-2.92329140358601
 30
0.0
 10
115.8317819193482
 20
-2.707138295154384
 30
0.0
 10
120.956358349622
 20
-2.518948633033023
 30
0.0
 10
124.1179272993755
 20
-2.402814095371827
 30
0.0
 10
125.31649069247
 20
-2.358786663448755
 30
0.0
  0
LINE
  5
7A
330
1F
100
AcDbEntity
  8
0
  6
Continuous
 62
     7
370
    25
100
AcDbLine
 10
53.8830311693
 20
-10.0000087069
 30
0.0
 11
53.8830311693
 21
-4.9851363929
 31
0.0
  0
LINE
  5
7B
330
1F
100
AcDbEntity
  8
0
  6
Continuous
 62
     7
370
    25
100
AcDbLine
 10
49.8830308409
 20
-10.0000087069
 30
0.0
 11
53.8830311693
 21
-10.0000087069
 31
0.0
  0
LINE
  5
7C
330
1F
100
AcDbEntity
  8
0
  6
Continuous
 62
     7
370
    25
100
AcDbLine
 10
49.8830308409
 20
-10.0000087069
 30
0.0
 11
49.8830308409
 21
-5.2365989788
 31
0.0
  0
LINE
  5
7D
330
1F
100
AcDbEntity
  8
0
  6
Continuous
 62
     7
370
    25
100
AcDbLine
 10
50.0854311462
 20
-5.228999228
 30
0.0
 11
49.8830308409
 21
-5.2365989788
 31
0.0
  0
LINE
  5
7E
330
1F
100
AcDbEntity
  8
0
  6
Continuous
 62
     7
370
    25
100
AcDbLine
 10
50.0854311462
 20
-5.1288881953
 30
0.0
 11
50.0854311462
 21
-5.228999228
 31
0.0
  0
SPLINE
  5
7F
330
1F
100
AcDbEntity
  8
0
  6
Continuous
 62
     7
370
    25
100
AcDbSpline
210
0.0
220
0.0
230
1.0
 70
     8
 71
     3
 72
    43
 73
    39
 74
     0
 42
0.00000001
 43
0.00000001
 40
0.0
 40
0.0
 40
0.0
 40
0.0
 40
0.003889664627982
 40
0.0077793292559643
 40
0.0116689938839466
 40
0.0155586585119288
 40
0.0194483231399113
 40
0.0233379877678933
 40
0.0272276523958756
 40
0.0311173170238579
 40
0.0350069816518401
 40
0.0388966462798224
 40
0.0427863109078047
 40
0.0466759755357867
 40
0.0505656401637687
 40
0.054455304791751
 40
0.0583449694197332
 40
0.0622346340477155
 40
0.07001396330368
 40
0.0777932925596443
 40
0.0855726218156086
 40
0.0933519510715732
 40
0.1011312803275377
 40
0.108910609583502
 40
0.1166899388394663
 40
0.1244692680954308
 40
0.1322485973513953
 40
0.1400279266073594
 40
0.1478072558633239
 40
0.1555865851192884
 40
0.1711452436312172
 40
0.1867039021431461
 40
0.2022625606550749
 40
0.2178212191670037
 40
0.2333798776789325
 40
0.2489385361908614
 40
0.2644971947027902
 40
0.2749440495854656
 40
0.2749440495854656
 40
0.2749440495854656
 40
0.2749440495854656
 10
-0.0098585293457076
 20
-0.1300798285120981
 30
0.0
 10
-0.0203948901120433
 20
-0.375395334041153
 30
0.0
 10
0.0483608674826641
 20
-0.86988450017645
 30
0.0
 10
0.3918895082593708
 20
-1.530396868328823
 30
0.0
 10
0.8514879810096552
 20
-2.107333525882285
 30
0.0
 10
1.397132763338141
 20
-2.606153001502077
 30
0.0
 10
1.994130441013747
 20
-3.038841008859779
 30
0.0
 10
2.643876488377062
 20
-3.390061204418343
 30
0.0
 10
3.329296718457502
 20
-3.662009462214448
 30
0.0
 10
4.034995774122826
 20
-3.875049243669875
 30
0.0
 10
4.751805760077881
 20
-4.045534130974558
 30
0.0
 10
5.473731402968856
 20
-4.192084753024865
 30
0.0
 10
6.196125504478173
 20
-4.336123717713222
 30
0.0
 10
6.91923135181425
 20
-4.476656068308645
 30
0.0
 10
7.644198131022931
 20
-4.607314733921308
 30
0.0
 10
8.371373494577377
 20
-4.725125090391342
 30
0.0
 10
9.10051141859256
 20
-4.830039030380362
 30
0.0
 10
10.07507746377637
 20
-4.952392967061236
 30
0.0
 10
11.2967950966685
 20
-5.07476024338489
 30
0.0
 10
12.76591558183047
 20
-5.185996508060977
 30
0.0
 10
14.23663526200144
 20
-5.272638565320481
 30
0.0
 10
15.70789994304407
 20
-5.349078401131912
 30
0.0
 10
17.17945533074379
 20
-5.41974974394377
 30
0.0
 10
18.65144306932341
 20
-5.480907139376271
 30
0.0
 10
20.12382910893148
 20
-5.531517915012166
 30
0.0
 10
21.59653168307064
 20
-5.571893517650887
 30
0.0
 10
23.06945255520797
 20
-5.603171965696144
 30
0.0
 10
24.54253126719493
 20
-5.625878487468891
 30
0.0
 10
26.01571109444744
 20
-5.640439693104491
 30
0.0
 10
27.98002669138999
 20
-5.649607479821231
 30
0.0
 10
30.43545486715485
 20
-5.643007601016174
 30
0.0
 10
33.38179124826321
 20
-5.610442338115385
 30
0.0
 10
36.32781336065345
 20
-5.55684745275539
 30
0.0
 10
39.27347341144994
 20
-5.486318822766745
 30
0.0
 10
42.2187656445959
 20
-5.401932459859458
 30
0.0
 10
45.16371637109214
 20
-5.30644800690822
 30
0.0
 10
47.78589008935995
 20
-5.213930687564491
 30
0.0
 10
49.42641521490158
 20
-5.153467092797481
 30
0.0
 10
50.08543133692235
 20
-5.128893308930325
 30
0.0
  0
SPLINE
  5
80
330
1F
100
AcDbEntity
  8
0
  6
Continuous
 62
     7
370
    25
100
AcDbSpline
210
0.0
220
0.0
230
1.0
 70
     8
 71
     3
 72
    62
 73
    58
 74
     0
 42
0.00000001
 43
0.00000001
 40
0.2430262313833651
 40
0.2430262313833651
 40
0.2430262313833651
 40
0.2430262313833651
 40
0.2532647407993668
 40
0.2843787099327265
 40
0.3154926790660862
 40
0.346606648199446
 40
0.3777206173328055
 40
0.4088345864661653
 40
0.439948555599525
 40
0.4710625247328848
 40
0.5021764938662445
 40
0.5332904629996044
 40
0.5644044321329639
 40
0.5955184012663237
 40
0.6266323703996834
 40
0.6421893549663633
 40
0.6577463395330432
 40
0.6733033240997229
 40
0.6888603086664028
 40
0.7044172932330824
 40
0.7199742777997623
 40
0.7355312623664422
 40
0.751088246933122
 40
0.766645231499802
 40
0.7822022160664819
 40
0.7977592006331617
 40
0.8133161851998416
 40
0.8288731697665215
 40
0.8444301543332013
 40
0.8599871388998809
 40
0.8677656311832209
 40
0.8755441234665609
 40
0.8833226157499008
 40
0.8911011080332408
 40
0.8988796003165808
 40
0.9066580925999207
 40
0.9144365848832606
 40
0.9222150771666008
 40
0.9299935694499407
 40
0.9377720617332806
 40
0.9455505540166206
 40
0.9533290462999604
 40
0.9572182924416301
 40
0.9611075385833003
 40
0.9649967847249702
 40
0.9688860308666403
 40
0.97277527700831
 40
0.9766645231499802
 40
0.9805537692916501
 40
0.9844430154333201
 40
0.9883322615749899
 40
0.9902768846458252
 40
0.9922215077166602
 40
0.9941661307874947
 40
0.9961107538583297
 40
0.9980553769291648
 40
1.0
 40
1.0
 40
1.0
 40
1.0
 10
141.3164905641944
 20
9.634816421360792
 30
0.0
 10
140.6663117796698
 20
9.750445605111297
 30
0.0
 10
138.0395961866899
 20
10.21353440821817
 30
0.0
 10
133.4315851394146
 20
10.9968714454266
 30
0.0
 10
127.4871865548019
 20
11.95168438760233
 30
0.0
 10
121.5335589248551
 20
12.84728043212495
 30
0.0
 10
115.5699485440547
 20
13.6740421183014
 30
0.0
 10
109.5959930569969
 20
14.42258848347474
 30
0.0
 10
103.6119588740486
 20
15.08593119649482
 30
0.0
 10
97.61908838458969
 20
15.66392604025092
 30
0.0
 10
91.61853867674033
 20
16.15592000531392
 30
0.0
 10
85.61136663139789
 20
16.55946976435775
 30
0.0
 10
79.59813922494418
 20
16.86086517371145
 30
0.0
 10
73.58017789710819
 20
17.04719940210535
 30
0.0
 10
68.56304435552511
 20
17.09666039555276
 30
0.0
 10
64.54937023021954
 20
17.0814357131869
 30
0.0
 10
61.53929543660634
 20
17.04456614879555
 30
0.0
 10
58.52962471162161
 20
16.98401496451793
 30
0.0
 10
55.52045200655461
 20
16.90227826004887
 30
0.0
 10
52.51186517469866
 20
16.80127762731113
 30
0.0
 10
49.50431809167883
 20
16.67231392063008
 30
0.0
 10
46.49856799406162
 20
16.50620099505895
 30
0.0
 10
43.4957377921431
 20
16.29316160534428
 30
0.0
 10
40.49737127423477
 20
16.02411012342761
 30
0.0
 10
37.50552326325112
 20
15.68969820399125
 30
0.0
 10
34.52305002139426
 20
15.27969691137045
 30
0.0
 10
31.55204887266533
 20
14.79364115294
 30
0.0
 10
28.59386109006279
 20
14.23492971264198
 30
0.0
 10
25.64994836366097
 20
13.60534054311589
 30
0.0
 10
23.21076077630429
 20
13.01850146949145
 30
0.0
 10
21.2701952072565
 20
12.50676620383905
 30
0.0
 10
19.82083558920352
 20
12.10066495324974
 30
0.0
 10
18.37840076836783
 20
11.67058459917118
 30
0.0
 10
16.94354413865398
 20
11.21584979489526
 30
0.0
 10
15.51666792531817
 20
10.73668713971839
 30
0.0
 10
14.09766886280421
 20
10.23467241512866
 30
0.0
 10
12.68826450617152
 20
9.706217974957234
 30
0.0
 10
11.29201257477601
 20
9.14381983187984
 30
0.0
 10
9.91222268132437
 20
8.54201651938896
 30
0.0
 10
8.555045622015195
 20
7.890535289885663
 30
0.0
 10
7.227053913647687
 20
7.181294623919333
 30
0.0
 10
6.151674360589046
 20
6.534665576232292
 30
0.0
 10
5.319108265905978
 20
5.974197388685357
 30
0.0
 10
4.710637129603038
 20
5.531174668459768
 30
0.0
 10
4.118965752127476
 20
5.065856391854365
 30
0.0
 10
3.546208580762883
 20
4.577487082303996
 30
0.0
 10
2.991848365212983
 20
4.068354816926256
 30
0.0
 10
2.451562623633309
 20
3.544437506483693
 30
0.0
 10
1.918547888539763
 20
3.013151078770122
 30
0.0
 10
1.398248878781243
 20
2.469233778032329
 30
0.0
 10
0.9897924321839576
 20
1.992881474591416
 30
0.0
 10
0.6890488748473793
 20
1.59093413779027
 30
0.0
 10
0.4813614394094551
 20
1.277153379971071
 30
0.0
 10
0.2955782176889235
 20
0.9491991089061146
 30
0.0
 10
0.1441340401912912
 20
0.6045993166669424
 30
0.0
 10
0.0297282574981722
 20
0.2448535217771408
 30
0.0
 10
-0.004476289599164
 20
-0.0047664595430517
 30
0.0
 10
-0.0098585293457076
 20
-0.1300798285120981
 30
0.0
  0
LINE
  5
81
330
1F
100
AcDbEntity
  8
0
  6
Continuous
 62
     7
370
    25
100
AcDbLine
 10
141.3164905827
 20
9.6348165253
 30
0.0
 11
141.3164905827
 21
5.4182190765
 31
0.0
  0
LINE
  5
82
330
1F
100
AcDbEntity
  8
0
  6
Continuous
 62
     7
370
    25
100
AcDbLine
 10
143.3164905827
 20
5.4182190765
 30
0.0
 11
141.3164905827
 21
5.4182190765
 31
0.0
  0
LINE
  5
83
330
1F
100
AcDbEntity
  8
0
  6
Continuous
 62
     7
370
    25
100
AcDbLine
 10
143.3164905827
 20
2.4182190765
 30
0.0
 11
143.3164905827
 21
5.4182190765
 31
0.0
  0
LINE
  5
84
330
1F
100
AcDbEntity
  8
0
  6
Continuous
 62
     7
370
    25
100
AcDbLine
 10
141.3164905827
 20
2.4182190765
 30
0.0
 11
143.3164905827
 21
2.4182190765
 31
0.0
  0
LINE
  5
85
330
1F
100
AcDbEntity
  8
0
  6
Continuous
 62
     7
370
    25
100
AcDbLine
 10
141.3164905827
 20
2.4182190765
 30
0.0
 11
141.3164905827
 21
-1.7711317082
 31
0.0
  0
SPLINE
  5
86
330
1F
100
AcDbEntity
  8
0
  6
Continuous
 62
     7
370
    25
100
AcDbSpline
210
0.0
220
0.0
230
1.0
 70
     8
 71
     3
 72
     8
 73
     4
 74
     0
 42
0.00000001
 43
0.00000001
 40
0.7186906592776149
 40
0.7186906592776149
 40
0.7186906592776149
 40
0.7186906592776149
 40
0.7239710624448356
 40
0.7239710624448356
 40
0.7239710624448356
 40
0.7239710624448356
 10
134.0651463870697
 20
-2.037443632661465
 30
0.0
 10
134.3982555313806
 20
-2.025209364555766
 30
0.0
 10
134.7313646784411
 20
-2.012975177011661
 30
0.0
 10
135.0644738283932
 20
-2.000741070097035
 30
0.0
  0
LINE
  5
87
330
1F
100
AcDbEntity
  8
0
  6
Continuous
 62
     7
370
    25
100
AcDbLine
 10
134.0651463676
 20
-2.1374707455
 30
0.0
 11
134.0651463676
 21
-2.037443102
 31
0.0
  0
LINE
  5
88
330
1F
100
AcDbEntity
  8
0
  6
Continuous
 62
     7
370
    25
100
AcDbLine
 10
135.0644738119
 20
-2.1008011524
 30
0.0
 11
134.0651463676
 21
-2.1374707455
 31
0.0
  0
LINE
  5
89
330
1F
100
AcDbEntity
  8
0
  6
Continuous
 62
     7
370
    25
100
AcDbLine
 10
135.0644738119
 20
-2.0007406206
 30
0.0
 11
135.0644738119
 21
-2.1008011524
 31
0.0
  0
SPLINE
  5
8A
330
1F
100
AcDbEntity
  8
0
  6
Continuous
 62
     7
370
    25
100
AcDbSpline
210
0.0
220
0.0
230
1.0
 70
     8
 71
     3
 72
     9
 73
     5
 74
     0
 42
0.00000001
 43
0.00000001
 40
0.7123541753384353
 40
0.7123541753384353
 40
0.7123541753384353
 40
0.7123541753384353
 40
0.715698291548726
 40
0.7176345786317745
 40
0.7176345786317745
 40
0.7176345786317745
 40
0.7176345786317745
 10
132.8659534531863
 20
-2.081487351124242
 30
0.0
 10
133.0769137968342
 20
-2.073739176877214
 30
0.0
 10
133.4100229443399
 20
-2.061504766197857
 30
0.0
 10
133.7431320945148
 20
-2.04927043604163
 30
0.0
 10
133.865280898466
 20
-2.044784203277897
 30
0.0
  0
LINE
  5
8B
330
1F
100
AcDbEntity
  8
0
  6
Continuous
 62
     7
370
    25
100
AcDbLine
 10
132.8659534344
 20
-2.1814742572
 30
0.0
 11
132.8659534344
 21
-2.08148684
 31
0.0
  0
LINE
  5
8C
330
1F
100
AcDbEntity
  8
0
  6
Continuous
 62
     7
370
    25
100
AcDbLine
 10
133.8652808787
 20
-2.1448046642
 30
0.0
 11
132.8659534344
 21
-2.1814742572
 31
0.0
  0
LINE
  5
8D
330
1F
100
AcDbEntity
  8
0
  6
Continuous
 62
     7
370
    25
100
AcDbLine
 10
133.8652808787
 20
-2.0447836656
 30
0.0
 11
133.8652808787
 21
-2.1448046642
 31
0.0
  0
LINE
  5
8E
330
1F
100
AcDbEntity
  8
0
  6
Continuous
 62
     7
370
    25
100
AcDbLine
 10
132.6660879456
 20
-2.0888275488
 30
0.0
 11
132.6660879456
 21
-2.1888081759
 31
0.0
  0
SPLINE
  5
8F
330
1F
100
AcDbEntity
  8
0
  6
Continuous
 62
     7
370
    25
100
AcDbSpline
210
0.0
220
0.0
230
1.0
 70
     8
 71
     3
 72
     8
 73
     4
 74
     0
 42
0.00000001
 43
0.00000001
 40
0.7060176912340261
 40
0.7060176912340261
 40
0.7060176912340261
 40
0.7060176912340261
 40
0.7112980946664098
 40
0.7112980946664098
 40
0.7112980946664098
 40
0.7112980946664098
 10
131.6667605151447
 20
-2.125531864258683
 30
0.0
 10
131.9998696609333
 20
-2.113297150871584
 30
0.0
 10
132.3329788106957
 20
-2.101062549717641
 30
0.0
 10
132.6660879637205
 20
-2.088828043500229
 30
0.0
  0
LINE
  5
90
330
1F
100
AcDbEntity
  8
0
  6
Continuous
 62
     7
370
    25
100
AcDbLine
 10
131.6667605012
 20
-2.225477769
 30
0.0
 11
131.6667605012
 21
-2.1255314859
 31
0.0
  0
LINE
  5
91
330
1F
100
AcDbEntity
  8
0
  6
Continuous
 62
     7
370
    25
100
AcDbLine
 10
132.6660879456
 20
-2.1888081759
 30
0.0
 11
131.6667605012
 21
-2.225477769
 31
0.0
  0
ARC
  5
92
330
1F
100
AcDbEntity
  8
0
  6
Continuous
 62
     7
370
    25
100
AcDbCircle
 10
19.3548897968
 20
1.7760444952
 30
0.0
 40
4.099999999999998
100
AcDbArc
 50
268.1337000118
 51
91.8662999882
  0
ARC
  5
93
330
1F
100
AcDbEntity
  8
0
  6
Continuous
 62
     7
370
    25
100
AcDbCircle
 10
19.0878377737
 20
1.7760444952
 30
0.0
 40
4.099999999999997
100
AcDbArc
 50
88.1337000118
 51
271.8662999882
  0
SPLINE
  5
94
330
1F
100
AcDbEntity
  8
0
  6
Continuous
 62
     7
370
    25
100
AcDbSpline
210
0.0
220
0.0
230
1.0
 70
     8
 71
     3
 72
     8
 73
     4
 74
     0
 42
0.00000001
 43
0.00000001
 40
0.2886747853177265
 40
0.2886747853177265
 40
0.2886747853177265
 40
0.2886747853177265
 40
0.2939551822180681
 40
0.2939551822180681
 40
0.2939551822180681
 40
0.2939551822180681
 10
52.6839044748489
 20
-5.030835871375706
 30
0.0
 10
53.01699671131992
 20
-5.018160074839638
 30
0.0
 10
53.35008806014373
 20
-5.005460844175903
 30
0.0
 10
53.68317928420253
 20
-4.992758285472531
 30
0.0
  0
LINE
  5
95
330
1F
100
AcDbEntity
  8
0
  6
Continuous
 62
     7
370
    25
100
AcDbLine
 10
52.6839044344
 20
-5.1309168769
 30
0.0
 11
52.6839044344
 21
-5.0308348085
 31
0.0
  0
LINE
  5
96
330
1F
100
AcDbEntity
  8
0
  6
Continuous
 62
     7
370
    25
100
AcDbLine
 10
53.6831792315
 20
-5.0928395991
 30
0.0
 11
52.6839044344
 21
-5.1309168769
 31
0.0
  0
LINE
  5
97
330
1F
100
AcDbEntity
  8
0
  6
Continuous
 62
     7
370
    25
100
AcDbLine
 10
53.6831792315
 20
-5.0928395991
 30
0.0
 11
53.6831792315
 21
-4.9927569044
 31
0.0
  0
SPLINE
  5
98
330
1F
100
AcDbEntity
  8
0
  6
Continuous
 62
     7
370
    25
100
AcDbSpline
210
0.0
220
0.0
230
1.0
 70
     8
 71
     3
 72
     8
 73
     4
 74
     0
 42
0.00000001
 43
0.00000001
 40
0.2823383088181496
 40
0.2823383088181496
 40
0.2823383088181496
 40
0.2823383088181496
 40
0.2876187057125947
 40
0.2876187057125947
 40
0.2876187057125947
 40
0.2876187057125947
 10
51.48476722918067
 20
-5.076332761721645
 30
0.0
 10
51.81786269418357
 20
-5.063742159876759
 30
0.0
 10
52.15095635608056
 20
-5.051103996597837
 30
0.0
 10
52.48404897775389
 20
-5.038438377972842
 30
0.0
  0
LINE
  5
99
330
1F
100
AcDbEntity
  8
0
  6
Continuous
 62
     7
370
    25
100
AcDbLine
 10
51.4847671951
 20
-5.176412796
 30
0.0
 11
51.4847671951
 21
-5.0763318611
 31
0.0
  0
LINE
  5
9A
330
1F
100
AcDbEntity
  8
0
  6
Continuous
 62
     7
370
    25
100
AcDbLine
 10
52.4840489774
 20
-5.1385192655
 30
0.0
 11
51.4847671951
 21
-5.176412796
 31
0.0
  0
LINE
  5
9B
330
1F
100
AcDbEntity
  8
0
  6
Continuous
 62
     7
370
    25
100
AcDbLine
 10
52.4840489774
 20
-5.1385192655
 30
0.0
 11
52.4840489774
 21
-5.0384383691
 31
0.0
  0
SPLINE
  5
9C
330
1F
100
AcDbEntity
  8
0
  6
Continuous
 62
     7
370
    25
100
AcDbSpline
210
0.0
220
0.0
230
1.0
 70
     8
 71
     3
 72
     9
 73
     5
 74
     0
 42
0.00000001
 43
0.00000001
 40
0.2760008557219563
 40
0.2760008557219563
 40
0.2760008557219563
 40
0.2760008557219563
 40
0.280055853214719
 40
0.2812812551617412
 40
0.2812812551617412
 40
0.2812812551617412
 40
0.2812812551617412
 10
50.28542966395637
 20
-5.121427041689008
 30
0.0
 10
50.54122916116571
 20
-5.111866785502588
 30
0.0
 10
50.87432812595734
 20
-5.099364249270637
 30
0.0
 10
51.20742495788461
 20
-5.086805460678488
 30
0.0
 10
51.28472535056491
 20
-5.083888212841723
 30
0.0
  0
LINE
  5
9D
330
1F
100
AcDbEntity
  8
0
  6
Continuous
 62
     7
370
    25
100
AcDbLine
 10
50.2854295215
 20
-5.221489665
 30
0.0
 11
50.2854295215
 21
-5.121423231
 31
0.0
  0
LINE
  5
9E
330
1F
100
AcDbEntity
  8
0
  6
Continuous
 62
     7
370
    25
100
AcDbLine
 10
51.2847253354
 20
-5.1839679863
 30
0.0
 11
50.2854295215
 21
-5.221489665
 31
0.0
  0
LINE
  5
9F
330
1F
100
AcDbEntity
  8
0
  6
Continuous
 62
     7
370
    25
100
AcDbLine
 10
51.2847253354
 20
-5.1839679863
 30
0.0
 11
51.2847253354
 21
-5.0838878112
 31
0.0
  0
LINE
  5
A0
330
1F
100
AcDbEntity
  8
0
  6
Continuous
 62
     7
370
    25
100
AcDbLine
 10
104.3804325551
 20
11.1920741645
 30
0.0
 11
104.3804325551
 21
2.3277303865
 31
0.0
  0
ARC
  5
A1
330
1F
100
AcDbEntity
  8
0
  6
Continuous
 62
     7
370
    25
100
AcDbCircle
 10
105.3804325551
 20
2.3277303865
 30
0.0
 40
1.000000000000001
100
AcDbArc
 50
180.0
 51
313.5029879635
  0
LINE
  5
A2
330
1F
100
AcDbEntity
  8
0
  6
Continuous
 62
     7
370
    25
100
AcDbLine
 10
106.068824958
 20
1.6023919141
 30
0.0
 11
115.4089187017
 21
10.4667356921
 31
0.0
  0
ARC
  5
A3
330
1F
100
AcDbEntity
  8
0
  6
Continuous
 62
     7
370
    25
100
AcDbCircle
 10
114.7205262988
 20
11.1920741645
 30
0.0
 40
1.000000000000002
100
AcDbArc
 50
313.5029879635
 51
90.0
  0
LINE
  5
A4
330
1F
100
AcDbEntity
  8
0
  6
Continuous
 62
     7
370
    25
100
AcDbLine
 10
114.7205262988
 20
12.1920741645
 30
0.0
 11
105.3804325551
 21
12.1920741645
 31
0.0
  0
ARC
  5
A5
330
1F
100
AcDbEntity
  8
0
  6
Continuous
 62
     7
370
    25
100
AcDbCircle
 10
105.3804325551
 20
11.1920741645
 30
0.0
 40
1.0
100
AcDbArc
 50
90.0
 51
180.0
  0
LINE
  5
A6
330
1F
100
AcDbEntity
  8
0
  6
Continuous
 62
     7
370
    25
100
AcDbLine
 10
45.8589526842
 20
10.3861290155
 30
0.0
 11
58.4068081294
 21
1.1693632432
 31
0.0
  0
ARC
  5
A7
330
1F
100
AcDbEntity
  8
0
  6
Continuous
 62
     7
370
    25
100
AcDbCircle
 10
58.9987983461
 20
1.9753083923
 30
0.0
 40
1.000000000000007
100
AcDbArc
 50
233.7016324243
 51
0.0
  0
LINE
  5
A8
330
1F
100
AcDbEntity
  8
0
  6
Continuous
 62
     7
370
    25
100
AcDbLine
 10
59.9987983461
 20
1.9753083923
 30
0.0
 11
59.9987983461
 21
11.1920741645
 31
0.0
  0
ARC
  5
A9
330
1F
100
AcDbEntity
  8
0
  6
Continuous
 62
     7
370
    25
100
AcDbCircle
 10
58.9987983461
 20
11.1920741645
 30
0.0
 40
1.000000000000007
100
AcDbArc
 50
0.0
 51
90.0
  0
LINE
  5
AA
330
1F
100
AcDbEntity
  8
0
  6
Continuous
 62
     7
370
    25
100
AcDbLine
 10
58.9987983461
 20
12.1920741645
 30
0.0
 11
46.4509429009
 21
12.1920741645
 31
0.0
  0
ARC
  5
AB
330
1F
100
AcDbEntity
  8
0
  6
Continuous
 62
     7
370
    25
100
AcDbCircle
 10
46.4509429009
 20
11.1920741645
 30
0.0
 40
1.000000000000002
100
AcDbArc
 50
90.0
 51
233.7016324243
  0
LINE
  5
AC
330
1F
100
AcDbEntity
  8
0
  6
Continuous
 62
     7
370
    25
100
AcDbLine
 10
54.1247106155
 20
0.0
 30
0.0
 11
41.5768551704
 21
0.0
 31
0.0
  0
ARC
  5
AD
330
1F
100
AcDbEntity
  8
0
  6
Continuous
 62
     7
370
    25
100
AcDbCircle
 10
54.1247106155
 20
1.0
 30
0.0
 40
1.0
100
AcDbArc
 50
270.0
 51
53.7016324243
  0
LINE
  5
AE
330
1F
100
AcDbEntity
  8
0
  6
Continuous
 62
     7
370
    25
100
AcDbLine
 10
42.1688453871
 20
11.0227109213
 30
0.0
 11
54.7167008323
 21
1.8059451491
 31
0.0
  0
ARC
  5
AF
330
1F
100
AcDbEntity
  8
0
  6
Continuous
 62
     7
370
    25
100
AcDbCircle
 10
41.5768551704
 20
10.2167657722
 30
0.0
 40
1.0
100
AcDbArc
 50
53.7016324243
 51
180.0
  0
LINE
  5
B0
330
1F
100
AcDbEntity
  8
0
  6
Continuous
 62
     7
370
    25
100
AcDbLine
 10
40.5768551704
 20
1.0
 30
0.0
 11
40.5768551704
 21
10.2167657722
 31
0.0
  0
ARC
  5
B1
330
1F
100
AcDbEntity
  8
0
  6
Continuous
 62
     7
370
    25
100
AcDbCircle
 10
41.5768551704
 20
1.0
 30
0.0
 40
1.0
100
AcDbArc
 50
180.0
 51
270.0
  0
LINE
  5
B2
330
1F
100
AcDbEntity
  8
0
  6
Continuous
 62
     7
370
    25
100
AcDbLine
 10
69.1717218835
 20
0.0
 30
0.0
 11
81.5008734793
 21
0.0
 31
0.0
  0
ARC
  5
B3
330
1F
100
AcDbEntity
  8
0
  6
Continuous
 62
     7
370
    25
100
AcDbCircle
 10
81.5008734793
 20
1.0
 30
0.0
 40
1.0
100
AcDbArc
 50
270.0
 51
0.0
  0
LINE
  5
B4
330
1F
100
AcDbEntity
  8
0
  6
Continuous
 62
     7
370
    25
100
AcDbLine
 10
82.5008734793
 20
10.1983641613
 30
0.0
 11
82.5008734793
 21
1.0
 31
0.0
  0
ARC
  5
B5
330
1F
100
AcDbEntity
  8
0
  6
Continuous
 62
     7
370
    25
100
AcDbCircle
 10
81.5008734793
 20
10.1983641613
 30
0.0
 40
1.0
100
AcDbArc
 50
360.0
 51
126.7253780035
  0
LINE
  5
B6
330
1F
100
AcDbEntity
  8
0
  6
Continuous
 62
     7
370
    25
100
AcDbLine
 10
68.5737416649
 20
1.8015108597
 30
0.0
 11
80.9028932607
 21
10.999875021
 31
0.0
  0
ARC
  5
B7
330
1F
100
AcDbEntity
  8
0
  6
Continuous
 62
     7
370
    25
100
AcDbCircle
 10
69.1717218835
 20
1.0
 30
0.0
 40
1.000000000000003
100
AcDbArc
 50
126.7253780035
 51
270.0
  0
ARC
  5
B8
330
1F
100
AcDbEntity
  8
0
  6
Continuous
 62
     7
370
    25
100
AcDbCircle
 10
100.3919163659
 20
2.1655347182
 30
0.0
 40
1.0
100
AcDbArc
 50
229.5730695982
 51
0.0
  0
LINE
  5
B9
330
1F
100
AcDbEntity
  8
0
  6
Continuous
 62
     7
370
    25
100
AcDbLine
 10
101.3919163659
 20
2.1655347182
 30
0.0
 11
101.3919163659
 21
11.1920741645
 31
0.0
  0
ARC
  5
BA
330
1F
100
AcDbEntity
  8
0
  6
Continuous
 62
     7
370
    25
100
AcDbCircle
 10
100.3919163659
 20
11.1920741645
 30
0.0
 40
1.0
100
AcDbArc
 50
0.0
 51
90.0
  0
LINE
  5
BB
330
1F
100
AcDbEntity
  8
0
  6
Continuous
 62
     7
370
    25
100
AcDbLine
 10
100.3919163659
 20
12.1920741645
 30
0.0
 11
89.7958630404
 21
12.1920741645
 31
0.0
  0
ARC
  5
BC
330
1F
100
AcDbEntity
  8
0
  6
Continuous
 62
     7
370
    25
100
AcDbCircle
 10
89.7958630404
 20
11.1920741645
 30
0.0
 40
1.000000000000004
100
AcDbArc
 50
90.0
 51
229.5730695982
  0
LINE
  5
BD
330
1F
100
AcDbEntity
  8
0
  6
Continuous
 62
     7
370
    25
100
AcDbLine
 10
89.1473852695
 20
10.4308405731
 30
0.0
 11
99.743438595
 21
1.4043011268
 31
0.0
  0
LINE
  5
BE
330
1F
100
AcDbEntity
  8
0
  6
Continuous
 62
     7
370
    25
100
AcDbLine
 10
85.2379134396
 20
0.0
 30
0.0
 11
95.8339667654
 21
0.0
 31
0.0
  0
ARC
  5
BF
330
1F
100
AcDbEntity
  8
0
  6
Continuous
 62
     7
370
    25
100
AcDbCircle
 10
95.8339667654
 20
1.0
 30
0.0
 40
1.0
100
AcDbArc
 50
270.0
 51
49.5730695989
  0
LINE
  5
C0
330
1F
100
AcDbEntity
  8
0
  6
Continuous
 62
     7
370
    25
100
AcDbLine
 10
96.4824445363
 20
1.7612335914
 30
0.0
 11
85.8863912104
 21
10.7877730377
 31
0.0
  0
ARC
  5
C1
330
1F
100
AcDbEntity
  8
0
  6
Continuous
 62
     7
370
    25
100
AcDbCircle
 10
85.2379134396
 20
10.0265394463
 30
0.0
 40
1.0
100
AcDbArc
 50
49.5730695988
 51
180.0
  0
LINE
  5
C2
330
1F
100
AcDbEntity
  8
0
  6
Continuous
 62
     7
370
    25
100
AcDbLine
 10
84.2379134396
 20
10.0265394463
 30
0.0
 11
84.2379134396
 21
1.0
 31
0.0
  0
ARC
  5
C3
330
1F
100
AcDbEntity
  8
0
  6
Continuous
 62
     7
370
    25
100
AcDbCircle
 10
85.2379134396
 20
1.0
 30
0.0
 40
1.0
100
AcDbArc
 50
180.0
 51
270.0
  0
ENDSEC
  0
SECTION
  2
OBJECTS
  0
DICTIONARY
  5
C
330
0
100
AcDbDictionary
281
     1
  3
ACAD_GROUP
350
D
  3
ACAD_LAYOUT
350
1A
  3
ACAD_MLINESTYLE
350
17
  3
ACAD_PLOTSETTINGS
350
19
  3
ACAD_PLOTSTYLENAME
350
E
  3
ACAD_SCALELIST
350
47
  3
DWGPROPS
350
C4
  0
DICTIONARY
  5
D
102
{ACAD_REACTORS
330
C
102
}
330
C
100
AcDbDictionary
281
     1
  0
DICTIONARY
  5
1A
102
{ACAD_REACTORS
330
C
102
}
330
C
100
AcDbDictionary
281
     1
  3
Layout1
350
1E
  3
Layout2
350
26
  3
Model
350
22
  0
DICTIONARY
  5
17
102
{ACAD_REACTORS
330
C
102
}
330
C
100
AcDbDictionary
281
     1
  3
Standard
350
18
  0
DICTIONARY
  5
19
102
{ACAD_REACTORS
330
C
102
}
330
C
100
AcDbDictionary
281
     1
  0
ACDBDICTIONARYWDFLT
  5
E
102
{ACAD_REACTORS
330
C
102
}
330
C
100
AcDbDictionary
281
     1
  3
Normal
350
F
100
AcDbDictionaryWithDefault
340
F
  0
DICTIONARY
  5
47
102
{ACAD_REACTORS
330
C
102
}
330
C
100
AcDbDictionary
281
     1
  3
A0
350
48
  3
A1
350
49
  3
A2
350
4A
  3
A3
350
4B
  3
A4
350
4C
  3
A5
350
4D
  3
A6
350
4E
  3
A7
350
4F
  3
A8
350
50
  3
A9
350
51
  3
B0
350
52
  3
B1
350
53
  3
B2
350
54
  3
B3
350
55
  3
B4
350
56
  3
B5
350
57
  3
B6
350
58
  0
XRECORD
  5
C4
102
{ACAD_REACTORS
330
C
102
}
330
C
100
AcDbXrecord
280
     1
  1
DWGPROPS COOKIE
  2

  3

  4

  6

  7

  8
CX_in_command
  9

300
=
301
=
302
=
303
=
304
=
305
=
306
=
307
=
308
=
309
=
 40
0.0
 41
2461081.379350452
 42
2461081.379759097
  1

 90
        0
  0
LAYOUT
  5
1E
102
{ACAD_REACTORS
330
1A
102
}
330
1A
100
AcDbPlotSettings
  1

  2
none_device
  4

  6

 40
0.0
 41
0.0
 42
0.0
 43
0.0
 44
0.0
 45
0.0
 46
0.0
 47
0.0
 48
0.0
 49
0.0
140
0.0
141
0.0
142
1.0
143
1.0
 70
   688
 72
     1
 73
     0
 74
     5
  7

 75
    16
147
1.0
148
0.0
149
0.0
100
AcDbLayout
  1
Layout1
 70
     1
 71
     1
 10
0.0
 20
0.0
 11
420.0
 21
297.0
 12
0.0
 22
0.0
 32
0.0
 14
1.0000000000E+20
 24
1.0000000000E+20
 34
1.0000000000E+20
 15
-1.0000000000E+20
 25
-1.0000000000E+20
 35
-1.0000000000E+20
146
0.0
 13
0.0
 23
0.0
 33
0.0
 16
1.0
 26
0.0
 36
0.0
 17
0.0
 27
1.0
 37
0.0
 76
     0
330
1B
  0
LAYOUT
  5
26
102
{ACAD_REACTORS
330
1A
102
}
330
1A
100
AcDbPlotSettings
  1

  2
none_device
  4

  6

 40
0.0
 41
0.0
 42
0.0
 43
0.0
 44
0.0
 45
0.0
 46
0.0
 47
0.0
 48
0.0
 49
0.0
140
0.0
141
0.0
142
1.0
143
1.0
 70
   688
 72
     1
 73
     0
 74
     5
  7

 75
    16
147
1.0
148
0.0
149
0.0
100
AcDbLayout
  1
Layout2
 70
     1
 71
     2
 10
0.0
 20
0.0
 11
0.0
 21
0.0
 12
0.0
 22
0.0
 32
0.0
 14
0.0
 24
0.0
 34
0.0
 15
0.0
 25
0.0
 35
0.0
146
0.0
 13
0.0
 23
0.0
 33
0.0
 16
1.0
 26
0.0
 36
0.0
 17
0.0
 27
1.0
 37
0.0
 76
     0
330
23
  0
LAYOUT
  5
22
102
{ACAD_REACTORS
330
1A
102
}
330
1A
100
AcDbPlotSettings
  1

  2
none_device
  4
ANSI_A_(11.00_x_8.50_Inches)
  6

 40
6.35
 41
19.05
 42
6.35000508
 43
19.05000254
 44
279.4
 45
215.9
 46
-4.9339765313
 47
82.0623193945
 48
0.0
 49
0.0
140
0.0
141
0.0
142
0.0759804465
143
1.0
 70
  1696
 72
     0
 73
     0
 74
     0
  7

 75
     0
147
0.0179189148
148
-1300.4909072572
149
0.0
100
AcDbLayout
  1
Model
 70
     1
 71
     0
 10
0.0
 20
0.0
 11
420.0
 21
297.0
 12
0.0
 22
0.0
 32
0.0
 14
-0.0098585293
 24
-10.0000087069
 34
0.0
 15
143.3164905827
 25
17.0860416603
 35
0.0
146
0.0
 13
0.0
 23
0.0
 33
0.0
 16
1.0
 26
0.0
 36
0.0
 17
0.0
 27
1.0
 37
0.0
 76
     0
330
1F
331
29
  0
MLINESTYLE
  5
18
102
{ACAD_REACTORS
330
17
102
}
330
17
100
AcDbMlineStyle
  2
Standard
 70
     0
  3

 62
   256
 51
90.0
 52
90.0
 71
     2
 49
0.5
 62
   256
  6
BYLAYER
 49
-0.5
 62
   256
  6
BYLAYER
  0
ACDBPLACEHOLDER
  5
F
102
{ACAD_REACTORS
330
E
102
}
330
E
  0
SCALE
  5
48
102
{ACAD_REACTORS
330
47
102
}
330
47
100
AcDbScale
 70
     0
300
1:1
140
1.0
141
1.0
290
     1
  0
SCALE
  5
49
102
{ACAD_REACTORS
330
47
102
}
330
47
100
AcDbScale
 70
     0
300
1:2
140
1.0
141
2.0
290
     0
  0
SCALE
  5
4A
102
{ACAD_REACTORS
330
47
102
}
330
47
100
AcDbScale
 70
     0
300
1:4
140
1.0
141
4.0
290
     0
  0
SCALE
  5
4B
102
{ACAD_REACTORS
330
47
102
}
330
47
100
AcDbScale
 70
     0
300
1:5
140
1.0
141
5.0
290
     0
  0
SCALE
  5
4C
102
{ACAD_REACTORS
330
47
102
}
330
47
100
AcDbScale
 70
     0
300
1:8
140
1.0
141
8.0
290
     0
  0
SCALE
  5
4D
102
{ACAD_REACTORS
330
47
102
}
330
47
100
AcDbScale
 70
     0
300
1:10
140
1.0
141
10.0
290
     0
  0
SCALE
  5
4E
102
{ACAD_REACTORS
330
47
102
}
330
47
100
AcDbScale
 70
     0
300
1:16
140
1.0
141
16.0
290
     0
  0
SCALE
  5
4F
102
{ACAD_REACTORS
330
47
102
}
330
47
100
AcDbScale
 70
     0
300
1:20
140
1.0
141
20.0
290
     0
  0
SCALE
  5
50
102
{ACAD_REACTORS
330
47
102
}
330
47
100
AcDbScale
 70
     0
300
1:30
140
1.0
141
30.0
290
     0
  0
SCALE
  5
51
102
{ACAD_REACTORS
330
47
102
}
330
47
100
AcDbScale
 70
     0
300
1:40
140
1.0
141
40.0
290
     0
  0
SCALE
  5
52
102
{ACAD_REACTORS
330
47
102
}
330
47
100
AcDbScale
 70
     0
300
1:50
140
1.0
141
50.0
290
     0
  0
SCALE
  5
53
102
{ACAD_REACTORS
330
47
102
}
330
47
100
AcDbScale
 70
     0
300
1:100
140
1.0
141
100.0
290
     0
  0
SCALE
  5
54
102
{ACAD_REACTORS
330
47
102
}
330
47
100
AcDbScale
 70
     0
300
2:1
140
2.0
141
1.0
290
     0
  0
SCALE
  5
55
102
{ACAD_REACTORS
330
47
102
}
330
47
100
AcDbScale
 70
     0
300
4:1
140
4.0
141
1.0
290
     0
  0
SCALE
  5
56
102
{ACAD_REACTORS
330
47
102
}
330
47
100
AcDbScale
 70
     0
300
8:1
140
8.0
141
1.0
290
     0
  0
SCALE
  5
57
102
{ACAD_REACTORS
330
47
102
}
330
47
100
AcDbScale
 70
     0
300
10:1
140
10.0
141
1.0
290
     0
  0
SCALE
  5
58
102
{ACAD_REACTORS
330
47
102
}
330
47
100
AcDbScale
 70
     0
300
100:1
140
100.0
141
1.0
290
     0
  0
ENDSEC
  0
EOF
