  0
SECTION
  2
HEADER
  9
$ACADVER
  1
AC1015
  9
$ACADMAINTVER
 70
     6
  9
$DWGCODEPAGE
  3
ANSI_936
  9
$INSBASE
 10
0.0
 20
0.0
 30
0.0
  9
$EXTMIN
 10
13.4949690108
 20
-10.0
 30
0.0
  9
$EXTMAX
 10
143.3164905827
 20
15.7861373156
 30
0.0
  9
$LIMMIN
 10
0.0
 20
0.0
  9
$LIMMAX
 10
420.0
 20
297.0
  9
$ORTHOMODE
 70
     0
  9
$REGENMODE
 70
     1
  9
$FILLMODE
 70
     1
  9
$QTEXTMODE
 70
     0
  9
$MIRRTEXT
 70
     1
  9
$LTSCALE
 40
1.0
  9
$ATTMODE
 70
     1
  9
$TEXTSIZE
 40
3.5
  9
$TRACEWID
 40
1.0
  9
$TEXTSTYLE
  7
Standard
  9
$CLAYER
  8
0
  9
$CELTYPE
  6
ByLayer
  9
$CECOLOR
 62
   256
  9
$CELTSCALE
 40
1.0
  9
$DISPSILH
 70
     0
  9
$DIMSCALE
 40
1.0
  9
$DIMASZ
 40
3.556
  9
$DIMEXO
 40
0.0
  9
$DIMDLI
 40
3.75
  9
$DIMRND
 40
0.0
  9
$DIMDLE
 40
0.0
  9
$DIMEXE
 40
1.0
  9
$DIMTP
 40
0.0
  9
$DIMTM
 40
0.0
  9
$DIMTXT
 40
3.5
  9
$DIMCEN
 40
2.5
  9
$DIMTSZ
 40
0.0
  9
$DIMTOL
 70
     0
  9
$DIMLIM
 70
     0
  9
$DIMTIH
 70
     1
  9
$DIMTOH
 70
     1
  9
$DIMSE1
 70
     0
  9
$DIMSE2
 70
     0
  9
$DIMTAD
 70
     1
  9
$DIMZIN
 70
     1
  9
$DIMBLK
  1

  9
$DIMASO
 70
     1
  9
$DIMSHO
 70
     1
  9
$DIMPOST
  1

  9
$DIMAPOST
  1

  9
$DIMALT
 70
     0
  9
$DIMALTD
 70
     3
  9
$DIMALTF
 40
0.0393700787
  9
$DIMLFAC
 40
1.0
  9
$DIMTOFL
 70
     1
  9
$DIMTVP
 40
0.0
  9
$DIMTIX
 70
     0
  9
$DIMSOXD
 70
     0
  9
$DIMSAH
 70
     0
  9
$DIMBLK1
  1

  9
$DIMBLK2
  1

  9
$DIMSTYLE
  2
ISO-25
  9
$DIMCLRD
 70
     0
  9
$DIMCLRE
 70
     0
  9
$DIMCLRT
 70
     0
  9
$DIMTFAC
 40
1.0
  9
$DIMGAP
 40
1.524
  9
$DIMJUST
 70
     0
  9
$DIMSD1
 70
     0
  9
$DIMSD2
 70
     0
  9
$DIMTOLJ
 70
     0
  9
$DIMTZIN
 70
     1
  9
$DIMALTZ
 70
     0
  9
$DIMALTTZ
 70
     0
  9
$DIMUPT
 70
     0
  9
$DIMDEC
 70
     2
  9
$DIMTDEC
 70
     2
  9
$DIMALTU
 70
     2
  9
$DIMALTTD
 70
     3
  9
$DIMTXSTY
  7
Standard
  9
$DIMAUNIT
 70
     0
  9
$DIMADEC
 70
     2
  9
$DIMALTRND
 40
0.0
  9
$DIMAZIN
 70
     0
  9
$DIMDSEP
 70
    44
  9
$DIMATFIT
 70
     3
  9
$DIMFRAC
 70
     0
  9
$DIMLDRBLK
  1

  9
$DIMLUNIT
 70
     2
  9
$DIMLWD
 70
    -2
  9
$DIMLWE
 70
    -2
  9
$DIMTMOVE
 70
     0
  9
$LUNITS
 70
     2
  9
$LUPREC
 70
     2
  9
$SKETCHINC
 40
1.0
  9
$FILLETRAD
 40
0.0
  9
$AUNITS
 70
     0
  9
$AUPREC
 70
     2
  9
$MENU
  1
.
  9
$ELEVATION
 40
0.0
  9
$PELEVATION
 40
0.0
  9
$THICKNESS
 40
0.0
  9
$LIMCHECK
 70
     0
  9
$CHAMFERA
 40
0.0
  9
$CHAMFERB
 40
0.0
  9
$CHAMFERC
 40
0.0
  9
$CHAMFERD
 40
0.0
  9
$SKPOLY
 70
     0
  9
$TDCREATE
 40
2461081.71602316
  9
$TDUCREATE
 40
2461081.382689826
  9
$TDUPDATE
 40
2461081.71620772
  9
$TDUUPDATE
 40
2461081.382874387
  9
$TDINDWG
 40
0.0000000116
  9
$TDUSRTIMER
 40
0.0000000116
  9
$USRTIMER
 70
     1
  9
$ANGBASE
 50
0.0
  9
$ANGDIR
 70
     0
  9
$PDMODE
 70
     0
  9
$PDSIZE
 40
-1.0
  9
$PLINEWID
 40
0.0
  9
$SPLFRAME
 70
     0
  9
$SPLINETYPE
 70
     6
  9
$SPLINESEGS
 70
     8
  9
$HANDSEED
  5
D3
  9
$SURFTAB1
 70
     6
  9
$SURFTAB2
 70
     6
  9
$SURFTYPE
 70
     6
  9
$SURFU
 70
     6
  9
$SURFV
 70
     6
  9
$UCSBASE
  2

  9
$UCSNAME
  2

  9
$UCSORG
 10
0.0
 20
0.0
 30
0.0
  9
$UCSXDIR
 10
1.0
 20
0.0
 30
0.0
  9
$UCSYDIR
 10
0.0
 20
1.0
 30
0.0
  9
$UCSORTHOREF
  2

  9
$UCSORTHOVIEW
 70
     0
  9
$UCSORGTOP
 10
0.0
 20
0.0
 30
0.0
  9
$UCSORGBOTTOM
 10
0.0
 20
0.0
 30
0.0
  9
$UCSORGLEFT
 10
0.0
 20
0.0
 30
0.0
  9
$UCSORGRIGHT
 10
0.0
 20
0.0
 30
0.0
  9
$UCSORGFRONT
 10
0.0
 20
0.0
 30
0.0
  9
$UCSORGBACK
 10
0.0
 20
0.0
 30
0.0
  9
$PUCSBASE
  2

  9
$PUCSNAME
  2

  9
$PUCSORG
 10
0.0
 20
0.0
 30
0.0
  9
$PUCSXDIR
 10
1.0
 20
0.0
 30
0.0
  9
$PUCSYDIR
 10
0.0
 20
1.0
 30
0.0
  9
$PUCSORTHOREF
  2

  9
$PUCSORTHOVIEW
 70
     0
  9
$PUCSORGTOP
 10
0.0
 20
0.0
 30
0.0
  9
$PUCSORGBOTTOM
 10
0.0
 20
0.0
 30
0.0
  9
$PUCSORGLEFT
 10
0.0
 20
0.0
 30
0.0
  9
$PUCSORGRIGHT
 10
0.0
 20
0.0
 30
0.0
  9
$PUCSORGFRONT
 10
0.0
 20
0.0
 30
0.0
  9
$PUCSORGBACK
 10
0.0
 20
0.0
 30
0.0
  9
$USERI1
 70
     0
  9
$USERI2
 70
     0
  9
$USERI3
 70
     0
  9
$USERI4
 70
     0
  9
$USERI5
 70
     0
  9
$USERR1
 40
0.0
  9
$USERR2
 40
0.0
  9
$USERR3
 40
0.0
  9
$USERR4
 40
0.0
  9
$USERR5
 40
0.0
  9
$WORLDVIEW
 70
     1
  9
$SHADEDGE
 70
     3
  9
$SHADEDIF
 70
    70
  9
$TILEMODE
 70
     1
  9
$MAXACTVP
 70
    64
  9
$PINSBASE
 10
0.0
 20
0.0
 30
0.0
  9
$PLIMCHECK
 70
     0
  9
$PEXTMIN
 10
1.0000000000E+20
 20
1.0000000000E+20
 30
1.0000000000E+20
  9
$PEXTMAX
 10
-1.0000000000E+20
 20
-1.0000000000E+20
 30
-1.0000000000E+20
  9
$PLIMMIN
 10
0.0
 20
0.0
  9
$PLIMMAX
 10
420.0
 20
297.0
  9
$UNITMODE
 70
     0
  9
$VISRETAIN
 70
     1
  9
$PLINEGEN
 70
     0
  9
$PSLTSCALE
 70
     1
  9
$TREEDEPTH
 70
  3020
  9
$CMLSTYLE
  2
Standard
  9
$CMLJUST
 70
     0
  9
$CMLSCALE
 40
20.0
  9
$PROXYGRAPHICS
 70
     1
  9
$MEASUREMENT
 70
     1
  9
$CELWEIGHT
370
    -1
  9
$ENDCAPS
280
     0
  9
$JOINSTYLE
280
     0
  9
$LWDISPLAY
290
     1
  9
$INSUNITS
 70
     4
  9
$HYPERLINKBASE
  1

  9
$STYLESHEET
  1

  9
$XEDIT
290
     1
  9
$CEPSNTYPE
380
     0
  9
$PSTYLEMODE
290
     1
  9
$FINGERPRINTGUID
  2
{b70280d4-0275-44c8-9872-085ed476246b}
  9
$VERSIONGUID
  2
{FAEB1C32-E019-11D5-929B-00C0DF256EC4}
  9
$EXTNAMES
290
     1
  9
$PSVPSCALE
 40
0.0
  9
$OLESTARTUP
290
     0
  0
ENDSEC
  0
SECTION
  2
CLASSES
  0
CLASS
  1
ACDBDICTIONARYWDFLT
  2
AcDbDictionaryWithDefault
  3
ObjectDBX Classes
 90
        0
280
     0
281
     0
  0
CLASS
  1
VISUALSTYLE
  2
AcDbVisualStyle
  3
ObjectDBX Classes
 90
     4095
280
     0
281
     0
  0
CLASS
  1
MATERIAL
  2
AcDbMaterial
  3
ObjectDBX Classes
 90
     1153
280
     0
281
     0
  0
CLASS
  1
SCALE
  2
AcDbScale
  3
ObjectDBX Classes
 90
     1153
280
     0
281
     0
  0
CLASS
  1
TABLESTYLE
  2
AcDbTableStyle
  3
ObjectDBX Classes
 90
     4095
280
     0
281
     0
  0
CLASS
  1
MLEADERSTYLE
  2
AcDbMLeaderStyle
  3
ACDB_MLEADERSTYLE_CLASS
 90
     4095
280
     0
281
     0
  0
CLASS
  1
SUN
  2
AcDbSun
  3
SCENEOE
 90
     1153
280
     0
281
     0
  0
CLASS
  1
ACDBPLACEHOLDER
  2
AcDbPlaceHolder
  3
ObjectDBX Classes
 90
        0
280
     0
281
     0
  0
CLASS
  1
LAYOUT
  2
AcDbLayout
  3
ObjectDBX Classes
 90
        0
280
     0
281
     0
  0
ENDSEC
  0
SECTION
  2
TABLES
  0
TABLE
  2
VPORT
  5
8
330
0
100
AcDbSymbolTable
 70
     1
  0
VPORT
  5
29
330
8
100
AcDbSymbolTableRecord
100
AcDbViewportTableRecord
  2
*Active
 70
     0
 10
0.0
 20
0.0
 11
1.0
 21
1.0
 12
78.4057297968
 22
2.8930686578
 13
0.0
 23
0.0
 14
10.0
 24
10.0
 15
10.0
 25
10.0
 16
0.0
 26
0.0
 36
1.0
 17
0.0
 27
0.0
 37
0.0
 40
26.3018600619
 41
5.0345470507
 42
50.0
 43
0.0
 44
0.0
 50
0.0
 51
0.0
 71
     0
 72
   100
 73
     1
 74
     3
 75
     0
 76
     0
 77
     0
 78
     0
281
     0
 65
     1
110
0.0
120
0.0
130
0.0
111
1.0
121
0.0
131
0.0
112
0.0
122
1.0
132
0.0
 79
     0
146
0.0
  0
ENDTAB
  0
TABLE
  2
LTYPE
  5
5
330
0
100
AcDbSymbolTable
 70
     6
  0
LTYPE
  5
14
330
5
100
AcDbSymbolTableRecord
100
AcDbLinetypeTableRecord
  2
ByBlock
 70
     0
  3

 72
    65
 73
     0
 40
0.0
  0
LTYPE
  5
15
330
5
100
AcDbSymbolTableRecord
100
AcDbLinetypeTableRecord
  2
ByLayer
 70
     0
  3

 72
    65
 73
     0
 40
0.0
  0
LTYPE
  5
16
330
5
100
AcDbSymbolTableRecord
100
AcDbLinetypeTableRecord
  2
Continuous
 70
     0
  3
Solid line
 72
    65
 73
     0
 40
0.0
  0
LTYPE
  5
5E
330
5
100
AcDbSymbolTableRecord
100
AcDbLinetypeTableRecord
  2
HIDDEN
 70
     0
  3
Hidden __ __ __ __ __ __ __ __ __ __ __ __ __ __
 72
    65
 73
     2
 40
1.905
 49
1.27
 74
     0
 49
-0.635
 74
     0
  0
LTYPE
  5
5F
330
5
100
AcDbSymbolTableRecord
100
AcDbLinetypeTableRecord
  2
PHANTOM
 70
     0
  3
Phantom ______  __  __  ______  __  __  ______
 72
    65
 73
     6
 40
12.7
 49
6.35
 74
     0
 49
-1.27
 74
     0
 49
1.27
 74
     0
 49
-1.27
 74
     0
 49
1.27
 74
     0
 49
-1.27
 74
     0
  0
LTYPE
  5
60
330
5
100
AcDbSymbolTableRecord
100
AcDbLinetypeTableRecord
  2
CENTER
 70
     0
  3
Center ____ _ ____ _ ____ _ ____ _ ____ _ ____
 72
    65
 73
     4
 40
10.16
 49
6.35
 74
     0
 49
-1.27
 74
     0
 49
1.27
 74
     0
 49
-1.27
 74
     0
  0
LTYPE
  5
61
330
5
100
AcDbSymbolTableRecord
100
AcDbLinetypeTableRecord
  2
CENTERX2
 70
     0
  3
Center (2x) ________  __  ________  __  _____
 72
    65
 73
     4
 40
20.32
 49
12.7
 74
     0
 49
-2.54
 74
     0
 49
2.54
 74
     0
 49
-2.54
 74
     0
  0
LTYPE
  5
62
330
5
100
AcDbSymbolTableRecord
100
AcDbLinetypeTableRecord
  2
DOT2
 70
     0
  3
Dot (.5x) ........................................
 72
    65
 73
     2
 40
0.635
 49
0.0
 74
     0
 49
-0.635
 74
     0
  0
ENDTAB
  0
TABLE
  2
LAYER
  5
2
330
0
100
AcDbSymbolTable
 70
     1
  0
LAYER
  5
10
330
2
100
AcDbSymbolTableRecord
100
AcDbLayerTableRecord
  2
0
 70
     0
 62
     7
  6
Continuous
370
    -3
390
F
  0
ENDTAB
  0
TABLE
  2
STYLE
  5
3
330
0
100
AcDbSymbolTable
 70
     1
  0
STYLE
  5
11
330
3
100
AcDbSymbolTableRecord
100
AcDbTextStyleTableRecord
  2
Standard
 70
     0
 40
0.0
 41
1.0
 50
0.0
 71
     0
 42
3.5
  3
txt
  4

  0
ENDTAB
  0
TABLE
  2
VIEW
  5
6
330
0
100
AcDbSymbolTable
 70
     0
  0
ENDTAB
  0
TABLE
  2
UCS
  5
7
330
0
100
AcDbSymbolTable
 70
     0
  0
ENDTAB
  0
TABLE
  2
APPID
  5
9
330
0
100
AcDbSymbolTable
 70
     1
  0
APPID
  5
12
330
9
100
AcDbSymbolTableRecord
100
AcDbRegAppTableRecord
  2
ACAD
 70
     0
  0
ENDTAB
  0
TABLE
  2
DIMSTYLE
  5
A
330
0
100
AcDbSymbolTable
 70
     1
100
AcDbDimStyleTable
  0
DIMSTYLE
105
27
330
A
100
AcDbSymbolTableRecord
100
AcDbDimStyleTableRecord
  2
ISO-25
 70
     0
 41
2.5
 42
0.625
 43
3.75
 44
1.25
 73
     0
 74
     0
 77
     1
 78
     8
140
2.5
141
2.5
143
0.0393700787
147
0.625
171
     3
172
     1
178
     0
271
     2
272
     2
274
     3
278
    44
283
     0
284
     8
340
11
  0
ENDTAB
  0
TABLE
  2
BLOCK_RECORD
  5
1
330
0
100
AcDbSymbolTable
 70
     1
  0
BLOCK_RECORD
  5
1F
330
1
100
AcDbSymbolTableRecord
100
AcDbBlockTableRecord
  2
*Model_Space
340
22
  0
BLOCK_RECORD
  5
1B
330
1
100
AcDbSymbolTableRecord
100
AcDbBlockTableRecord
  2
*Paper_Space
340
1E
  0
BLOCK_RECORD
  5
23
330
1
100
AcDbSymbolTableRecord
100
AcDbBlockTableRecord
  2
*Paper_Space0
340
26
  0
ENDTAB
  0
ENDSEC
  0
SECTION
  2
BLOCKS
  0
BLOCK
  5
20
330
1F
100
AcDbEntity
  8
0
100
AcDbBlockBegin
  2
*Model_Space
 70
     0
 10
0.0
 20
0.0
 30
0.0
  3
*Model_Space
  1

  0
ENDBLK
  5
21
330
1F
100
AcDbEntity
  8
0
100
AcDbBlockEnd
  0
BLOCK
  5
1C
330
1B
100
AcDbEntity
 67
     1
  8
0
100
AcDbBlockBegin
  2
*Paper_Space
 70
     0
 10
0.0
 20
0.0
 30
0.0
  3
*Paper_Space
  1

  0
ENDBLK
  5
1D
330
1B
100
AcDbEntity
 67
     1
  8
0
100
AcDbBlockEnd
  0
BLOCK
  5
24
330
23
100
AcDbEntity
  8
0
100
AcDbBlockBegin
  2
*Paper_Space0
 70
     0
 10
0.0
 20
0.0
 30
0.0
  3
*Paper_Space0
  1

  0
ENDBLK
  5
25
330
23
100
AcDbEntity
  8
0
100
AcDbBlockEnd
  0
ENDSEC
  0
SECTION
  2
ENTITIES
  0
SPLINE
  5
63
330
1F
100
AcDbEntity
  8
0
  6
Continuous
 62
     7
370
    25
100
AcDbSpline
210
0.0
220
0.0
230
1.0
 70
     8
 71
     3
 72
     9
 73
     5
 74
     0
 42
0.00000001
 43
0.00000001
 40
0.7069585027517693
 40
0.7069585027517693
 40
0.7069585027517693
 40
0.7069585027517693
 40
0.7157118055555555
 40
0.739304601568549
 40
0.739304601568549
 40
0.739304601568549
 40
0.739304601568549
 10
135.6104782989084
 20
-1.980698105485359
 30
0.0
 10
136.1251869522933
 20
-1.961793330885813
 30
0.0
 10
138.0271909816731
 20
-1.891935576515813
 30
0.0
 10
139.9291950578304
 20
-1.822081419286842
 30
0.0
 10
141.3164905709079
 20
-1.771132181576543
 30
0.0
  0
LINE
  5
64
330
1F
100
AcDbEntity
  8
0
  6
Continuous
 62
     7
370
    25
100
AcDbLine
 10
135.6104783172
 20
-1.9806986038
 30
0.0
 11
135.6104783172
 21
-10.0
 31
0.0
  0
LINE
  5
65
330
1F
100
AcDbEntity
  8
0
  6
Continuous
 62
     7
370
    25
100
AcDbLine
 10
135.6104783172
 20
-10.0
 30
0.0
 11
131.6104783172
 21
-10.0
 31
0.0
  0
LINE
  5
66
330
1F
100
AcDbEntity
  8
0
  6
Continuous
 62
     7
370
    25
100
AcDbLine
 10
131.6104783172
 20
-10.0
 30
0.0
 11
131.6104783172
 21
-2.2206686954
 31
0.0
  0
LINE
  5
67
330
1F
100
AcDbEntity
  8
0
  6
Continuous
 62
     7
370
    25
100
AcDbLine
 10
131.6104783172
 20
-2.2206686954
 30
0.0
 11
131.8130340288
 21
-2.213236061
 31
0.0
  0
LINE
  5
68
330
1F
100
AcDbEntity
  8
0
  6
Continuous
 62
     7
370
    25
100
AcDbLine
 10
131.8130340288
 20
-2.213236061
 30
0.0
 11
131.8130340288
 21
-2.1201806555
 31
0.0
  0
SPLINE
  5
69
330
1F
100
AcDbEntity
  8
0
  6
Continuous
 62
     7
370
    25
100
AcDbSpline
210
0.0
220
0.0
230
1.0
 70
     8
 71
     3
 72
    28
 73
    24
 74
     0
 42
0.00000001
 43
0.00000001
 40
0.2343951781306899
 40
0.2343951781306899
 40
0.2343951781306899
 40
0.2343951781306899
 40
0.248943236714976
 40
0.264502189009662
 40
0.2800611413043481
 40
0.2956200935990339
 40
0.3111790458937202
 40
0.326737998188406
 40
0.3422969504830918
 40
0.3578559027777778
 40
0.3734148550724639
 40
0.3889738073671502
 40
0.404532759661836
 40
0.4356506642512079
 40
0.4667685688405795
 40
0.4978864734299518
 40
0.5290043780193239
 40
0.5601222826086958
 40
0.5912401871980676
 40
0.6223580917874397
 40
0.6534759963768118
 40
0.6845939009661839
 40
0.6854316439241797
 40
0.6854316439241797
 40
0.6854316439241797
 40
0.6854316439241797
 10
52.24754922601448
 20
-5.029821813830628
 30
0.0
 10
53.10319221776295
 20
-5.004195792932636
 30
0.0
 10
54.87383573398699
 20
-4.947901599148967
 30
0.0
 10
57.55926120393507
 20
-4.854573701412272
 30
0.0
 10
60.30392514135505
 20
-4.75340450437935
 30
0.0
 10
63.04846834723668
 20
-4.649035532247923
 30
0.0
 10
65.79299190959993
 20
-4.544150502602886
 30
0.0
 10
68.53758743876907
 20
-4.441162960103028
 30
0.0
 10
71.28223233580171
 20
-4.339503702148512
 30
0.0
 10
74.02691740206343
 20
-4.238933867477321
 30
0.0
 10
76.7716267500021
 20
-4.139030604654908
 30
0.0
 10
79.51634729288038
 20
-4.039435363345109
 30
0.0
 10
83.17597473851735
 20
-3.906642733330518
 30
0.0
 10
87.75046584833144
 20
-3.739465027998396
 30
0.0
 10
93.23980935056927
 20
-3.537602619691295
 30
0.0
 10
98.72913402406091
 20
-3.335229424981086
 30
0.0
 10
104.2184742573126
 20
-3.133278439724157
 30
0.0
 10
109.7078294629862
 20
-2.931735211386505
 30
0.0
 10
115.1971891442612
 20
-2.730313447138711
 30
0.0
 10
120.6865468997189
 20
-2.52884025625321
 30
0.0
 10
126.175900665498
 20
-2.327256253446976
 30
0.0
 10
129.8847287357978
 20
-2.191011935680153
 30
0.0
 10
131.7637733326456
 20
-2.121990113971632
 30
0.0
 10
131.8130339956145
 20
-2.120180654996723
 30
0.0
  0
LINE
  5
6A
330
1F
100
AcDbEntity
  8
0
  6
Continuous
 62
     7
370
    25
100
AcDbLine
 10
52.247549226
 20
-5.0298218138
 30
0.0
 11
52.247549226
 21
-9.9999999999
 31
0.0
  0
LINE
  5
6B
330
1F
100
AcDbEntity
  8
0
  6
Continuous
 62
     7
370
    25
100
AcDbLine
 10
48.2498690987
 20
-9.9999999999
 30
0.0
 11
52.247549226
 21
-9.9999999999
 31
0.0
  0
LINE
  5
6C
330
1F
100
AcDbEntity
  8
0
  6
Continuous
 62
     7
370
    25
100
AcDbLine
 10
48.2498690987
 20
-5.2367855159
 30
0.0
 11
48.2498690987
 21
-9.9999999999
 31
0.0
  0
LINE
  5
6D
330
1F
100
AcDbEntity
  8
0
  6
Continuous
 62
     7
370
    25
100
AcDbLine
 10
48.4519255783
 20
-5.2320570348
 30
0.0
 11
48.2498690987
 21
-5.2367855159
 31
0.0
  0
LINE
  5
6E
330
1F
100
AcDbEntity
  8
0
  6
Continuous
 62
     7
370
    25
100
AcDbLine
 10
48.4519255783
 20
-5.1320291909
 30
0.0
 11
48.4519255783
 21
-5.2320570348
 31
0.0
  0
SPLINE
  5
6F
330
1F
100
AcDbEntity
  8
0
  6
Continuous
 62
     7
370
    25
100
AcDbSpline
210
0.0
220
0.0
230
1.0
 70
     8
 71
     3
 72
    37
 73
    33
 74
     0
 42
0.00000001
 43
0.00000001
 40
0.0
 40
0.0
 40
0.0
 40
0.0
 40
0.0019448690368358
 40
0.0038897380736715
 40
0.0058346071105073
 40
0.0077794761473431
 40
0.0116692142210146
 40
0.015558952294686
 40
0.0194486903683575
 40
0.023338428442029
 40
0.0272281665157004
 40
0.0311179045893719
 40
0.0350076426630433
 40
0.0388973807367148
 40
0.0427871188103865
 40
0.0466768568840579
 40
0.054456333031401
 40
0.0622358091787439
 40
0.0700152853260869
 40
0.07779476147343
 40
0.0855742376207731
 40
0.093353713768116
 40
0.1011331899154589
 40
0.1089126660628021
 40
0.1166921422101452
 40
0.1244716183574881
 40
0.1400305706521742
 40
0.1555895229468602
 40
0.171148475241546
 40
0.1867074275362321
 40
0.2022663798309181
 40
0.2128853101366403
 40
0.2128853101366403
 40
0.2128853101366403
 40
0.2128853101366403
 10
13.65423026811417
 20
0.6276111826237812
 30
0.0
 10
13.61120165005677
 20
0.5215676826468693
 30
0.0
 10
13.53715129322191
 20
0.3046087252160112
 30
0.0
 10
13.47197931752738
 20
-0.0338647685310458
 30
0.0
 10
13.47250523269818
 20
-0.3784141232739756
 30
0.0
 10
13.55343849761545
 20
-0.8316829492502573
 30
0.0
 10
13.80130943026629
 20
-1.353678265043684
 30
0.0
 10
14.21997062432913
 20
-1.900662122805887
 30
0.0
 10
14.72013674327653
 20
-2.373764086386454
 30
0.0
 10
15.2719102241237
 20
-2.784237698332029
 30
0.0
 10
15.87214585712361
 20
-3.120853467605625
 30
0.0
 10
16.50873216439872
 20
-3.380989200030127
 30
0.0
 10
17.16492631299382
 20
-3.584428601473794
 30
0.0
 10
17.8324058574266
 20
-3.746592013375385
 30
0.0
 10
18.5051359381141
 20
-3.884094718328728
 30
0.0
 10
19.40288771093744
 20
-4.063479650110166
 30
0.0
 10
20.52691713210141
 20
-4.27886335240324
 30
0.0
 10
21.88444297703696
 20
-4.488086765085715
 30
0.0
 10
23.24849952133122
 20
-4.648268895746147
 30
0.0
 10
24.61668477567432
 20
-4.7677337689062
 30
0.0
 10
25.98692612391423
 20
-4.859254542701389
 30
0.0
 10
27.35818579747312
 20
-4.933731904536303
 30
0.0
 10
28.72970319001309
 20
-5.002886501634641
 30
0.0
 10
30.10159141791953
 20
-5.064568198089654
 30
0.0
 10
31.47386631134979
 20
-5.116851338032976
 30
0.0
 10
33.30403292548813
 20
-5.173114883260016
 30
0.0
 10
35.59233959226499
 20
-5.221274475809231
 30
0.0
 10
38.3387772567786
 20
-5.247948761381402
 30
0.0
 10
41.08533484751881
 20
-5.246584693001828
 30
0.0
 10
43.83176838285107
 20
-5.221294319481434
 30
0.0
 10
46.2872904817668
 20
-5.180337194750869
 30
0.0
 10
47.82726780398605
 20
-5.146772465936878
 30
0.0
 10
48.45192557830519
 20
-5.132029190929068
 30
0.0
  0
SPLINE
  5
70
330
1F
100
AcDbEntity
  8
0
  6
Continuous
 62
     7
370
    25
100
AcDbSpline
210
0.0
220
0.0
230
1.0
 70
     8
 71
     3
 72
    49
 73
    45
 74
     0
 42
0.00000001
 43
0.00000001
 40
0.3534930028892895
 40
0.3534930028892895
 40
0.3534930028892895
 40
0.3534930028892895
 40
0.3777325119236883
 40
0.408845886327504
 40
0.4399592607313195
 40
0.471072635135135
 40
0.5021860095389507
 40
0.533299383942766
 40
0.5644127583465819
 40
0.5955261327503975
 40
0.6266395071542128
 40
0.6577528815580287
 40
0.6888662559618443
 40
0.704422943163752
 40
0.7199796303656595
 40
0.7355363175675675
 40
0.7510930047694754
 40
0.7666496919713829
 40
0.7822063791732909
 40
0.7977630663751986
 40
0.8133197535771065
 40
0.8288764407790143
 40
0.844433127980922
 40
0.8599898151828299
 40
0.8755465023847377
 40
0.8911031895866454
 40
0.9066598767885532
 40
0.914438220389507
 40
0.922216563990461
 40
0.9299949075914149
 40
0.9377732511923687
 40
0.9455515947933227
 40
0.9533299383942766
 40
0.9611082819952304
 40
0.9649974537957076
 40
0.9688866255961844
 40
0.9727757973966611
 40
0.9766649691971383
 40
0.9805541409976153
 40
0.984443312798092
 40
0.9883324845985693
 40
0.9922216563990461
 40
0.9961108281995228
 40
1.0
 40
1.0
 40
1.0
 40
1.0
 10
125.3164909561522
 20
12.04236196875811
 30
0.0
 10
123.8863411741521
 20
12.24611701916714
 30
0.0
 10
120.6183430817787
 20
12.69642704092881
 30
0.0
 10
115.5056074343405
 20
13.34101582908665
 30
0.0
 10
109.9770943731924
 20
13.95851866820232
 30
0.0
 10
104.4403913650327
 20
14.4976335466964
 30
0.0
 10
98.89654332085016
 20
14.9574797039648
 30
0.0
 10
93.34656345565193
 20
15.33665693899031
 30
0.0
 10
87.79095591907699
 20
15.62260579702319
 30
0.0
 10
82.23087274403981
 20
15.80405381648373
 30
0.0
 10
76.6682087299641
 20
15.86841655029864
 30
0.0
 10
71.10539218918801
 20
15.83049869712206
 30
0.0
 10
66.47084186894142
 20
15.72529642983822
 30
0.0
 10
62.7642572214455
 20
15.6057797214378
 30
0.0
 10
59.9851489839773
 20
15.49256659208997
 30
0.0
 10
57.20754697778651
 20
15.34666356679885
 30
0.0
 10
54.43237554082213
 20
15.15955634369559
 30
0.0
 10
51.66099661242827
 20
14.92248815384455
 30
0.0
 10
48.89512444407159
 20
14.62746127672316
 30
0.0
 10
46.13732515216177
 20
14.26434580085663
 30
0.0
 10
43.38972466764215
 20
13.83076832244273
 30
0.0
 10
40.65367473318712
 20
13.32958921002142
 30
0.0
 10
37.93035433774131
 20
12.76328052359679
 30
0.0
 10
35.22191614548198
 20
12.12949794943737
 30
0.0
 10
32.53200343827518
 20
11.42085696415648
 30
0.0
 10
29.86612485500845
 20
10.62627744897205
 30
0.0
 10
27.66866429130657
 20
9.888038112537341
 30
0.0
 10
25.92575376987254
 20
9.255021771929087
 30
0.0
 10
24.62912633296111
 20
8.751939518293504
 30
0.0
 10
23.34589902761683
 20
8.215584160483804
 30
0.0
 10
22.08018688906577
 20
7.638831870071492
 30
0.0
 10
20.83840875575175
 20
7.012053563898435
 30
0.0
 10
19.6262009680018
 20
6.329571986965159
 30
0.0
 10
18.650610656588
 20
5.702828538014981
 30
0.0
 10
17.89963523795159
 20
5.158804781200242
 30
0.0
 10
17.35160039379633
 20
4.730604344910573
 30
0.0
 10
16.82098970288629
 20
4.281071074095032
 30
0.0
 10
16.30736342094427
 20
3.812081676268268
 30
0.0
 10
15.80736210346576
 20
3.3290814992182
 30
0.0
 10
15.3140389024392
 20
2.838512139086792
 30
0.0
 10
14.83201182274375
 20
2.338139386303306
 30
0.0
 10
14.37447497101301
 20
1.812518501562951
 30
0.0
 10
13.96493755842489
 20
1.251969484843006
 30
0.0
 10
13.74138082791388
 20
0.842392665351704
 30
0.0
 10
13.65423026811417
 20
0.6276111826237812
 30
0.0
  0
LINE
  5
71
330
1F
100
AcDbEntity
  8
0
  6
Continuous
 62
     7
370
    25
100
AcDbLine
 10
125.3164905823
 20
4.7338840881
 30
0.0
 11
125.3164905823
 21
12.0423593446
 31
0.0
  0
LINE
  5
72
330
1F
100
AcDbEntity
  8
0
  6
Continuous
 62
     7
370
    25
100
AcDbLine
 10
127.3164905823
 20
4.7338840881
 30
0.0
 11
125.3164905823
 21
4.7338840881
 31
0.0
  0
LINE
  5
73
330
1F
100
AcDbEntity
  8
0
  6
Continuous
 62
     7
370
    25
100
AcDbLine
 10
127.3164905823
 20
11.7531205568
 30
0.0
 11
127.3164905823
 21
4.7338840881
 31
0.0
  0
SPLINE
  5
74
330
1F
100
AcDbEntity
  8
0
  6
Continuous
 62
     7
370
    25
100
AcDbSpline
210
0.0
220
0.0
230
1.0
 70
     8
 71
     3
 72
    10
 73
     6
 74
     0
 42
0.00000001
 43
0.00000001
 40
0.2628894944804065
 40
0.2628894944804065
 40
0.2628894944804065
 40
0.2628894944804065
 40
0.2843923887122417
 40
0.3155057631160571
 40
0.3421902874275069
 40
0.3421902874275069
 40
0.3421902874275069
 40
0.3421902874275069
 10
141.3164906464542
 20
9.51482021064758
 30
0.0
 10
140.0535714367492
 20
9.73223962819986
 30
0.0
 10
136.9616084643877
 20
10.2545141404398
 30
0.0
 10
132.29559526406
 20
11.00576520919711
 30
0.0
 10
128.8899456472313
 20
11.52223878430116
 30
0.0
 10
127.3164907118319
 20
11.75312143964346
 30
0.0
  0
LINE
  5
75
330
1F
100
AcDbEntity
  8
0
  6
Continuous
 62
     7
370
    25
100
AcDbLine
 10
141.3164905827
 20
9.5148198402
 30
0.0
 11
141.3164905827
 21
5.4182190765
 31
0.0
  0
LINE
  5
76
330
1F
100
AcDbEntity
  8
0
  6
Continuous
 62
     7
370
    25
100
AcDbLine
 10
143.3164905827
 20
5.4182190765
 30
0.0
 11
141.3164905827
 21
5.4182190765
 31
0.0
  0
LINE
  5
77
330
1F
100
AcDbEntity
  8
0
  6
Continuous
 62
     7
370
    25
100
AcDbLine
 10
143.3164905827
 20
2.4182190765
 30
0.0
 11
143.3164905827
 21
5.4182190765
 31
0.0
  0
LINE
  5
78
330
1F
100
AcDbEntity
  8
0
  6
Continuous
 62
     7
370
    25
100
AcDbLine
 10
141.3164905827
 20
2.4182190765
 30
0.0
 11
143.3164905827
 21
2.4182190765
 31
0.0
  0
LINE
  5
79
330
1F
100
AcDbEntity
  8
0
  6
Continuous
 62
     7
370
    25
100
AcDbLine
 10
141.3164905827
 20
2.4182190765
 30
0.0
 11
141.3164905827
 21
-1.7711325021
 31
0.0
  0
SPLINE
  5
7A
330
1F
100
AcDbEntity
  8
0
  6
Continuous
 62
     7
370
    25
100
AcDbSpline
210
0.0
220
0.0
230
1.0
 70
     8
 71
     3
 72
     8
 73
     4
 74
     0
 42
0.00000001
 43
0.00000001
 40
0.7001605476545238
 40
0.7001605476545238
 40
0.7001605476545238
 40
0.7001605476545238
 40
0.7058255102470113
 40
0.7058255102470113
 40
0.7058255102470113
 40
0.7058255102470113
 10
134.4112853721152
 20
-2.024743912099842
 30
0.0
 10
134.7443945143762
 20
-2.012508807231123
 30
0.0
 10
135.0775036610198
 20
-2.000273838216118
 30
0.0
 10
135.4106128109722
 20
-1.988038995758438
 30
0.0
  0
LINE
  5
7B
330
1F
100
AcDbEntity
  8
0
  6
Continuous
 62
     7
370
    25
100
AcDbLine
 10
134.411285384
 20
-2.0247442361
 30
0.0
 11
134.411285384
 21
-2.1178951189
 31
0.0
  0
LINE
  5
7C
330
1F
100
AcDbEntity
  8
0
  6
Continuous
 62
     7
370
    25
100
AcDbLine
 10
134.411285384
 20
-2.1178951189
 30
0.0
 11
135.4106128283
 21
-2.0812255258
 31
0.0
  0
LINE
  5
7D
330
1F
100
AcDbEntity
  8
0
  6
Continuous
 62
     7
370
    25
100
AcDbLine
 10
135.4106128283
 20
-2.0812255258
 30
0.0
 11
135.4106128283
 21
-1.9880394681
 31
0.0
  0
SPLINE
  5
7E
330
1F
100
AcDbEntity
  8
0
  6
Continuous
 62
     7
370
    25
100
AcDbSpline
210
0.0
220
0.0
230
1.0
 70
     8
 71
     3
 72
     8
 73
     4
 74
     0
 42
0.00000001
 43
0.00000001
 40
0.693362592345719
 40
0.693362592345719
 40
0.693362592345719
 40
0.693362592345719
 40
0.6990275551197898
 40
0.6990275551197898
 40
0.6990275551197898
 40
0.6990275551197898
 10
133.2120924458679
 20
-2.068790893861226
 30
0.0
 10
133.5452015867416
 20
-2.056555449164586
 30
0.0
 10
133.8783107332865
 20
-2.044320151477339
 30
0.0
 10
134.2114198844288
 20
-2.032084991503094
 30
0.0
  0
LINE
  5
7F
330
1F
100
AcDbEntity
  8
0
  6
Continuous
 62
     7
370
    25
100
AcDbLine
 10
133.2120924508
 20
-2.0687910295
 30
0.0
 11
133.2120924508
 21
-2.1618986306
 31
0.0
  0
LINE
  5
80
330
1F
100
AcDbEntity
  8
0
  6
Continuous
 62
     7
370
    25
100
AcDbLine
 10
133.2120924508
 20
-2.1618986306
 30
0.0
 11
134.2114198952
 21
-2.1252290375
 31
0.0
  0
LINE
  5
81
330
1F
100
AcDbEntity
  8
0
  6
Continuous
 62
     7
370
    25
100
AcDbLine
 10
134.2114198952
 20
-2.1252290375
 30
0.0
 11
134.2114198952
 21
-2.0320852835
 31
0.0
  0
LINE
  5
82
330
1F
100
AcDbEntity
  8
0
  6
Continuous
 62
     7
370
    25
100
AcDbLine
 10
133.012226962
 20
-2.1692325493
 30
0.0
 11
133.012226962
 21
-2.0761322861
 31
0.0
  0
SPLINE
  5
83
330
1F
100
AcDbEntity
  8
0
  6
Continuous
 62
     7
370
    25
100
AcDbSpline
210
0.0
220
0.0
230
1.0
 70
     8
 71
     3
 72
     8
 73
     4
 74
     0
 42
0.00000001
 43
0.00000001
 40
0.6865646367462787
 40
0.6865646367462787
 40
0.6865646367462787
 40
0.6865646367462787
 40
0.6922295997203506
 40
0.6922295997203506
 40
0.6922295997203506
 40
0.6922295997203506
 10
132.0128995173509
 20
-2.112839147667
 30
0.0
 10
132.3460086548276
 20
-2.100603336329012
 30
0.0
 10
132.6791177992641
 20
-2.0883676831561
 30
0.0
 10
133.0122269495868
 20
-2.076132178851869
 30
0.0
  0
LINE
  5
84
330
1F
100
AcDbEntity
  8
0
  6
Continuous
 62
     7
370
    25
100
AcDbLine
 10
132.0128995177
 20
-2.1128391567
 30
0.0
 11
132.0128995177
 21
-2.2059021424
 31
0.0
  0
LINE
  5
85
330
1F
100
AcDbEntity
  8
0
  6
Continuous
 62
     7
370
    25
100
AcDbLine
 10
132.0128995177
 20
-2.2059021424
 30
0.0
 11
133.012226962
 21
-2.1692325493
 31
0.0
  0
ARC
  5
86
330
1F
100
AcDbEntity
  8
0
  6
Continuous
 62
     7
370
    25
100
AcDbCircle
 10
32.8410169645
 20
1.7760446632
 30
0.0
 40
4.100000000000029
100
AcDbArc
 50
268.1337000119
 51
91.8662999882
  0
SPLINE
  5
87
330
1F
100
AcDbEntity
  8
0
  6
Continuous
 62
     7
370
    25
100
AcDbSpline
210
0.0
220
0.0
230
1.0
 70
     8
 71
     3
 72
     9
 73
     5
 74
     0
 42
0.00000001
 43
0.00000001
 40
0.0
 40
0.0
 40
0.0
 40
0.0
 40
0.5
 40
1.0
 40
1.0
 40
1.0
 40
1.0
 10
32.70749095289558
 20
5.873869794217
 30
0.0
 10
32.68524842257823
 20
5.874594558272389
 30
0.0
 10
32.6407456592271
 20
5.875682064825361
 30
0.0
 10
32.59622518063388
 20
5.876044663219143
 30
0.0
 10
32.573964941337
 20
5.876044663219136
 30
0.0
  0
SPLINE
  5
88
330
1F
100
AcDbEntity
  8
0
  6
Continuous
 62
     7
370
    25
100
AcDbSpline
210
0.0
220
0.0
230
1.0
 70
     8
 71
     3
 72
    10
 73
     6
 74
     0
 42
0.00000001
 43
0.00000001
 40
0.0
 40
0.0
 40
0.0
 40
0.0
 40
0.5
 40
0.5
 40
1.0
 40
1.0
 40
1.0
 40
1.0
 10
32.57396494133685
 20
5.876044663219137
 30
0.0
 10
29.84063160800351
 20
5.876044663218065
 30
0.0
 10
28.47396494133846
 20
3.142711329885947
 30
0.0
 10
28.47396494133845
 20
0.4093779965523339
 30
0.0
 10
29.84063160800678
 20
-2.323955336781968
 30
0.0
 10
32.57396494134012
 20
-2.323955336780855
 30
0.0
  0
SPLINE
  5
89
330
1F
100
AcDbEntity
  8
0
  6
Continuous
 62
     7
370
    25
100
AcDbSpline
210
0.0
220
0.0
230
1.0
 70
     8
 71
     3
 72
     9
 73
     5
 74
     0
 42
0.00000001
 43
0.00000001
 40
0.0
 40
0.0
 40
0.0
 40
0.0
 40
0.5
 40
1.0
 40
1.0
 40
1.0
 40
1.0
 10
32.57396494134012
 20
-2.323955336780855
 30
0.0
 10
32.59622518063561
 20
-2.323955336780845
 30
0.0
 10
32.64074565883493
 20
-2.3235927384062
 30
0.0
 10
32.68524842257433
 20
-2.322505231834201
 30
0.0
 10
32.70749095289028
 20
-2.321780467778887
 30
0.0
  0
LINE
  5
8A
330
1F
100
AcDbEntity
  8
0
  6
Continuous
 62
     7
370
    25
100
AcDbLine
 10
50.8511274525
 20
-5.0701873875
 30
0.0
 11
50.8511274525
 21
-5.1702260616
 31
0.0
  0
SPLINE
  5
8B
330
1F
100
AcDbEntity
  8
0
  6
Continuous
 62
     7
370
    25
100
AcDbSpline
210
0.0
220
0.0
230
1.0
 70
     8
 71
     3
 72
     8
 73
     4
 74
     0
 42
0.00000001
 43
0.00000001
 40
0.2208162487341315
 40
0.2208162487341315
 40
0.2208162487341315
 40
0.2208162487341315
 40
0.226481205763065
 40
0.226481205763065
 40
0.226481205763065
 40
0.226481205763065
 10
49.85149162069693
 20
-5.09717713664486
 30
0.0
 10
50.18471106691017
 20
-5.0884617233823
 30
0.0
 10
50.5179229673227
 20
-5.079458336687176
 30
0.0
 10
50.85112745245542
 20
-5.070187387522209
 30
0.0
  0
LINE
  5
8C
330
1F
100
AcDbEntity
  8
0
  6
Continuous
 62
     7
370
    25
100
AcDbLine
 10
49.8514916207
 20
-5.1972113207
 30
0.0
 11
49.8514916207
 21
-5.0971771366
 31
0.0
  0
LINE
  5
8D
330
1F
100
AcDbEntity
  8
0
  6
Continuous
 62
     7
370
    25
100
AcDbLine
 10
50.8511274525
 20
-5.1702260616
 30
0.0
 11
49.8514916207
 21
-5.1972113207
 31
0.0
  0
LINE
  5
8E
330
1F
100
AcDbEntity
  8
0
  6
Continuous
 62
     7
370
    25
100
AcDbLine
 10
49.6515590664
 20
-5.102371664
 30
0.0
 11
49.6515590664
 21
-5.2024049459
 31
0.0
  0
SPLINE
  5
8F
330
1F
100
AcDbEntity
  8
0
  6
Continuous
 62
     7
370
    25
100
AcDbSpline
210
0.0
220
0.0
230
1.0
 70
     8
 71
     3
 72
     9
 73
     5
 74
     0
 42
0.00000001
 43
0.00000001
 40
0.2140183011723611
 40
0.2140183011723611
 40
0.2140183011723611
 40
0.2140183011723611
 40
0.2178253321256039
 40
0.2196832574414588
 40
0.2196832574414588
 40
0.2196832574414588
 40
0.2196832574414588
 10
48.65186900896779
 20
-5.127271756140812
 30
0.0
 10
48.87581528738746
 20
-5.121900488585545
 30
0.0
 10
49.20904781049929
 20
-5.11369561688774
 30
0.0
 10
49.54227271890159
 20
-5.105191995500276
 30
0.0
 10
49.65155906638942
 20
-5.102371663987666
 30
0.0
  0
LINE
  5
90
330
1F
100
AcDbEntity
  8
0
  6
Continuous
 62
     7
370
    25
100
AcDbLine
 10
48.651869009
 20
-5.2273005095
 30
0.0
 11
48.651869009
 21
-5.1272717561
 31
0.0
  0
LINE
  5
91
330
1F
100
AcDbEntity
  8
0
  6
Continuous
 62
     7
370
    25
100
AcDbLine
 10
49.6515590664
 20
-5.2024049459
 30
0.0
 11
48.651869009
 21
-5.2273005095
 31
0.0
  0
LINE
  5
92
330
1F
100
AcDbEntity
  8
0
  6
Continuous
 62
     7
370
    25
100
AcDbLine
 10
52.0506316076
 20
-5.135735353
 30
0.0
 11
52.0506316076
 21
-5.0356913762
 31
0.0
  0
SPLINE
  5
93
330
1F
100
AcDbEntity
  8
0
  6
Continuous
 62
     7
370
    25
100
AcDbSpline
210
0.0
220
0.0
230
1.0
 70
     8
 71
     3
 72
     8
 73
     4
 74
     0
 42
0.00000001
 43
0.00000001
 40
0.2276141969474151
 40
0.2276141969474151
 40
0.2276141969474151
 40
0.2276141969474151
 40
0.2332791531616022
 40
0.2332791531616022
 40
0.2332791531616022
 40
0.2332791531616022
 10
51.05104921567224
 20
-5.064592874914175
 30
0.0
 10
51.38425069199269
 20
-5.05521571856902
 30
0.0
 10
51.71744477913963
 20
-5.045575082021555
 30
0.0
 10
52.05063160763392
 20
-5.035691376225693
 30
0.0
  0
LINE
  5
94
330
1F
100
AcDbEntity
  8
0
  6
Continuous
 62
     7
370
    25
100
AcDbLine
 10
51.0510492157
 20
-5.1646324407
 30
0.0
 11
51.0510492157
 21
-5.0645928749
 31
0.0
  0
LINE
  5
95
330
1F
100
AcDbEntity
  8
0
  6
Continuous
 62
     7
370
    25
100
AcDbLine
 10
52.0506316076
 20
-5.135735353
 30
0.0
 11
51.0510492157
 21
-5.1646324407
 31
0.0
  0
ARC
  5
96
330
1F
100
AcDbEntity
  8
0
  6
Continuous
 62
     7
370
    25
100
AcDbCircle
 10
43.1336704797
 20
8.7144858969
 30
0.0
 40
1.000000000000007
100
AcDbArc
 50
51.9904743431
 51
180.0
  0
LINE
  5
97
330
1F
100
AcDbEntity
  8
0
  6
Continuous
 62
     7
370
    25
100
AcDbLine
 10
42.1336704797
 20
1.2826922558
 30
0.0
 11
42.1336704797
 21
8.7144858969
 31
0.0
  0
ARC
  5
98
330
1F
100
AcDbEntity
  8
0
  6
Continuous
 62
     7
370
    25
100
AcDbCircle
 10
43.1336704797
 20
1.2826922558
 30
0.0
 40
1.000000000000007
100
AcDbArc
 50
180.0
 51
270.0
  0
LINE
  5
99
330
1F
100
AcDbEntity
  8
0
  6
Continuous
 62
     7
370
    25
100
AcDbLine
 10
52.6426735236
 20
0.2826922558
 30
0.0
 11
43.1336704797
 21
0.2826922558
 31
0.0
  0
ARC
  5
9A
330
1F
100
AcDbEntity
  8
0
  6
Continuous
 62
     7
370
    25
100
AcDbCircle
 10
52.6426735236
 20
1.2826922558
 30
0.0
 40
1.0
100
AcDbArc
 50
270.0
 51
51.9904743431
  0
LINE
  5
9B
330
1F
100
AcDbEntity
  8
0
  6
Continuous
 62
     7
370
    25
100
AcDbLine
 10
43.7494629565
 20
9.5023942834
 30
0.0
 11
53.2584660004
 21
2.0706006423
 31
0.0
  0
ARC
  5
9C
330
1F
100
AcDbEntity
  8
0
  6
Continuous
 62
     7
370
    25
100
AcDbCircle
 10
119.1435283682
 20
2.9385104347
 30
0.0
 40
1.000000000000004
100
AcDbArc
 50
221.2659034088
 51
0.0
  0
LINE
  5
9D
330
1F
100
AcDbEntity
  8
0
  6
Continuous
 62
     7
370
    25
100
AcDbLine
 10
120.1435283682
 20
9.7652223842
 30
0.0
 11
120.1435283682
 21
2.9385104347
 31
0.0
  0
ARC
  5
9E
330
1F
100
AcDbEntity
  8
0
  6
Continuous
 62
     7
370
    25
100
AcDbCircle
 10
119.1435283682
 20
9.7652223842
 30
0.0
 40
1.0
100
AcDbArc
 50
0.0
 51
90.0
  0
LINE
  5
9F
330
1F
100
AcDbEntity
  8
0
  6
Continuous
 62
     7
370
    25
100
AcDbLine
 10
113.1533096633
 20
10.7652223842
 30
0.0
 11
119.1435283682
 21
10.7652223842
 31
0.0
  0
ARC
  5
A0
330
1F
100
AcDbEntity
  8
0
  6
Continuous
 62
     7
370
    25
100
AcDbCircle
 10
113.1533096633
 20
9.7652223842
 30
0.0
 40
0.9999999999999992
100
AcDbArc
 50
90.0
 51
221.2659034087
  0
LINE
  5
A1
330
1F
100
AcDbEntity
  8
0
  6
Continuous
 62
     7
370
    25
100
AcDbLine
 10
118.3918716023
 20
2.2789559592
 30
0.0
 11
112.4016528973
 21
9.1056679087
 31
0.0
  0
ARC
  5
A2
330
1F
100
AcDbEntity
  8
0
  6
Continuous
 62
     7
370
    25
100
AcDbCircle
 10
79.6837667149
 20
8.3967201595
 30
0.0
 40
1.000000000000002
100
AcDbArc
 50
45.7796960221
 51
180.0
  0
LINE
  5
A3
330
1F
100
AcDbEntity
  8
0
  6
Continuous
 62
     7
370
    25
100
AcDbLine
 10
78.6837667149
 20
1.2826922558
 30
0.0
 11
78.6837667149
 21
8.3967201595
 31
0.0
  0
ARC
  5
A4
330
1F
100
AcDbEntity
  8
0
  6
Continuous
 62
     7
370
    25
100
AcDbCircle
 10
79.6837667149
 20
1.2826922558
 30
0.0
 40
1.0
100
AcDbArc
 50
180.0
 51
270.0
  0
LINE
  5
A5
330
1F
100
AcDbEntity
  8
0
  6
Continuous
 62
     7
370
    25
100
AcDbLine
 10
86.994097195
 20
0.2826922558
 30
0.0
 11
79.6837667149
 21
0.2826922558
 31
0.0
  0
ARC
  5
A6
330
1F
100
AcDbEntity
  8
0
  6
Continuous
 62
     7
370
    25
100
AcDbCircle
 10
86.994097195
 20
1.2826922558
 30
0.0
 40
1.000000000000002
100
AcDbArc
 50
270.0
 51
45.7796960221
  0
LINE
  5
A7
330
1F
100
AcDbEntity
  8
0
  6
Continuous
 62
     7
370
    25
100
AcDbLine
 10
80.3811858265
 20
9.1133836668
 30
0.0
 11
87.6915163066
 21
1.9993557632
 31
0.0
  0
ARC
  5
A8
330
1F
100
AcDbEntity
  8
0
  6
Continuous
 62
     7
370
    25
100
AcDbCircle
 10
75.5024261178
 20
1.2826922558
 30
0.0
 40
1.0
100
AcDbArc
 50
270.0000000001
 51
0.0
  0
LINE
  5
A9
330
1F
100
AcDbEntity
  8
0
  6
Continuous
 62
     7
370
    25
100
AcDbLine
 10
76.5024261178
 20
8.5846930166
 30
0.0
 11
76.5024261178
 21
1.2826922558
 31
0.0
  0
ARC
  5
AA
330
1F
100
AcDbEntity
  8
0
  6
Continuous
 62
     7
370
    25
100
AcDbCircle
 10
75.5024261178
 20
8.5846930166
 30
0.0
 40
1.000000000000002
100
AcDbArc
 50
360.0
 51
130.7272192347
  0
LINE
  5
AB
330
1F
100
AcDbEntity
  8
0
  6
Continuous
 62
     7
370
    25
100
AcDbLine
 10
66.3687617724
 20
2.0405167172
 30
0.0
 11
74.8499676243
 21
9.3425174779
 31
0.0
  0
ARC
  5
AC
330
1F
100
AcDbEntity
  8
0
  6
Continuous
 62
     7
370
    25
100
AcDbCircle
 10
67.0212202659
 20
1.2826922558
 30
0.0
 40
0.9999999999999967
100
AcDbArc
 50
130.7272192347
 51
270.0
  0
LINE
  5
AD
330
1F
100
AcDbEntity
  8
0
  6
Continuous
 62
     7
370
    25
100
AcDbLine
 10
75.5024261178
 20
0.2826922558
 30
0.0
 11
67.0212202659
 21
0.2826922558
 31
0.0
  0
ARC
  5
AE
330
1F
100
AcDbEntity
  8
0
  6
Continuous
 62
     7
370
    25
100
AcDbCircle
 10
62.4710086669
 20
2.4632216234
 30
0.0
 40
1.0
100
AcDbArc
 50
180.0
 51
310.7272192324
  0
LINE
  5
AF
330
1F
100
AcDbEntity
  8
0
  6
Continuous
 62
     7
370
    25
100
AcDbLine
 10
71.6046730131
 20
9.0073979229
 30
0.0
 11
63.1234671604
 21
1.705397162
 31
0.0
  0
ARC
  5
B0
330
1F
100
AcDbEntity
  8
0
  6
Continuous
 62
     7
370
    25
100
AcDbCircle
 10
70.9522145196
 20
9.7652223842
 30
0.0
 40
1.000000000000002
100
AcDbArc
 50
310.7272192324
 51
90.0
  0
LINE
  5
B1
330
1F
100
AcDbEntity
  8
0
  6
Continuous
 62
     7
370
    25
100
AcDbLine
 10
62.4710086669
 20
10.7652223842
 30
0.0
 11
70.9522145196
 21
10.7652223842
 31
0.0
  0
ARC
  5
B2
330
1F
100
AcDbEntity
  8
0
  6
Continuous
 62
     7
370
    25
100
AcDbCircle
 10
62.4710086669
 20
9.7652223842
 30
0.0
 40
1.0
100
AcDbArc
 50
90.0
 51
180.0
  0
LINE
  5
B3
330
1F
100
AcDbEntity
  8
0
  6
Continuous
 62
     7
370
    25
100
AcDbLine
 10
61.4710086669
 20
2.4632216234
 30
0.0
 11
61.4710086669
 21
9.7652223842
 31
0.0
  0
ARC
  5
B4
330
1F
100
AcDbEntity
  8
0
  6
Continuous
 62
     7
370
    25
100
AcDbCircle
 10
57.3457822932
 20
2.3334287431
 30
0.0
 40
1.000000000000002
100
AcDbArc
 50
231.9904743432
 51
0.0
  0
LINE
  5
B5
330
1F
100
AcDbEntity
  8
0
  6
Continuous
 62
     7
370
    25
100
AcDbLine
 10
58.3457822932
 20
9.7652223842
 30
0.0
 11
58.3457822932
 21
2.3334287431
 31
0.0
  0
ARC
  5
B6
330
1F
100
AcDbEntity
  8
0
  6
Continuous
 62
     7
370
    25
100
AcDbCircle
 10
57.3457822932
 20
9.7652223842
 30
0.0
 40
1.000000000000002
100
AcDbArc
 50
0.0
 51
90.0
  0
LINE
  5
B7
330
1F
100
AcDbEntity
  8
0
  6
Continuous
 62
     7
370
    25
100
AcDbLine
 10
47.8367792493
 20
10.7652223842
 30
0.0
 11
57.3457822932
 21
10.7652223842
 31
0.0
  0
ARC
  5
B8
330
1F
100
AcDbEntity
  8
0
  6
Continuous
 62
     7
370
    25
100
AcDbCircle
 10
47.8367792493
 20
9.7652223842
 30
0.0
 40
1.000000000000003
100
AcDbArc
 50
90.0
 51
231.9904743431
  0
LINE
  5
B9
330
1F
100
AcDbEntity
  8
0
  6
Continuous
 62
     7
370
    25
100
AcDbLine
 10
56.7299898164
 20
1.5455203566
 30
0.0
 11
47.2209867725
 21
8.9773139978
 31
0.0
  0
ARC
  5
BA
330
1F
100
AcDbEntity
  8
0
  6
Continuous
 62
     7
370
    25
100
AcDbCircle
 10
115.806066732
 20
1.2826922558
 30
0.0
 40
0.9999999999999999
100
AcDbArc
 50
270.0000000001
 51
41.2659034087
  0
LINE
  5
BB
330
1F
100
AcDbEntity
  8
0
  6
Continuous
 62
     7
370
    25
100
AcDbLine
 10
110.567504793
 20
8.7689586809
 30
0.0
 11
116.5577234979
 21
1.9422467313
 31
0.0
  0
ARC
  5
BC
330
1F
100
AcDbEntity
  8
0
  6
Continuous
 62
     7
370
    25
100
AcDbCircle
 10
109.815848027
 20
8.1094042054
 30
0.0
 40
1.0
100
AcDbArc
 50
41.2659034087
 51
180.0
  0
LINE
  5
BD
330
1F
100
AcDbEntity
  8
0
  6
Continuous
 62
     7
370
    25
100
AcDbLine
 10
108.815848027
 20
1.2826922558
 30
0.0
 11
108.815848027
 21
8.1094042054
 31
0.0
  0
ARC
  5
BE
330
1F
100
AcDbEntity
  8
0
  6
Continuous
 62
     7
370
    25
100
AcDbCircle
 10
109.815848027
 20
1.2826922558
 30
0.0
 40
1.0
100
AcDbArc
 50
180.0
 51
270.0
  0
LINE
  5
BF
330
1F
100
AcDbEntity
  8
0
  6
Continuous
 62
     7
370
    25
100
AcDbLine
 10
115.806066732
 20
0.2826922558
 30
0.0
 11
109.815848027
 21
0.2826922558
 31
0.0
  0
ARC
  5
C0
330
1F
100
AcDbEntity
  8
0
  6
Continuous
 62
     7
370
    25
100
AcDbCircle
 10
105.7391578377
 20
1.2826922558
 30
0.0
 40
1.0
100
AcDbArc
 50
270.0000000001
 51
0.0
  0
LINE
  5
C1
330
1F
100
AcDbEntity
  8
0
  6
Continuous
 62
     7
370
    25
100
AcDbLine
 10
106.7391578377
 20
8.1187299807
 30
0.0
 11
106.7391578377
 21
1.2826922558
 31
0.0
  0
ARC
  5
C2
330
1F
100
AcDbEntity
  8
0
  6
Continuous
 62
     7
370
    25
100
AcDbCircle
 10
105.7391578377
 20
8.1187299807
 30
0.0
 40
1.0
100
AcDbArc
 50
360.0
 51
138.6009906576
  0
LINE
  5
C3
330
1F
100
AcDbEntity
  8
0
  6
Continuous
 62
     7
370
    25
100
AcDbLine
 10
98.9624674396
 20
1.9439911514
 30
0.0
 11
104.9890353339
 21
8.7800288763
 31
0.0
  0
ARC
  5
C4
330
1F
100
AcDbEntity
  8
0
  6
Continuous
 62
     7
370
    25
100
AcDbCircle
 10
99.7125899434
 20
1.2826922558
 30
0.0
 40
1.000000000000001
100
AcDbArc
 50
138.6009906576
 51
270.0
  0
LINE
  5
C5
330
1F
100
AcDbEntity
  8
0
  6
Continuous
 62
     7
370
    25
100
AcDbLine
 10
105.7391578377
 20
0.2826922558
 30
0.0
 11
99.7125899434
 21
0.2826922558
 31
0.0
  0
ARC
  5
C6
330
1F
100
AcDbEntity
  8
0
  6
Continuous
 62
     7
370
    25
100
AcDbCircle
 10
95.9202580104
 20
2.8625632934
 30
0.0
 40
1.00000000000001
100
AcDbArc
 50
180.0
 51
317.6257168856
  0
LINE
  5
C7
330
1F
100
AcDbEntity
  8
0
  6
Continuous
 62
     7
370
    25
100
AcDbLine
 10
102.9563306494
 20
9.0912515161
 30
0.0
 11
96.6590159335
 21
2.1885924253
 31
0.0
  0
ARC
  5
C8
330
1F
100
AcDbEntity
  8
0
  6
Continuous
 62
     7
370
    25
100
AcDbCircle
 10
102.2175727263
 20
9.7652223842
 30
0.0
 40
1.000000000000002
100
AcDbArc
 50
317.6257168855
 51
90.0
  0
LINE
  5
C9
330
1F
100
AcDbEntity
  8
0
  6
Continuous
 62
     7
370
    25
100
AcDbLine
 10
95.9202580104
 20
10.7652223842
 30
0.0
 11
102.2175727263
 21
10.7652223842
 31
0.0
  0
ARC
  5
CA
330
1F
100
AcDbEntity
  8
0
  6
Continuous
 62
     7
370
    25
100
AcDbCircle
 10
95.9202580104
 20
9.7652223842
 30
0.0
 40
1.000000000000002
100
AcDbArc
 50
90.0
 51
180.0
  0
LINE
  5
CB
330
1F
100
AcDbEntity
  8
0
  6
Continuous
 62
     7
370
    25
100
AcDbLine
 10
94.9202580104
 20
2.8625632934
 30
0.0
 11
94.9202580104
 21
9.7652223842
 31
0.0
  0
ARC
  5
CC
330
1F
100
AcDbEntity
  8
0
  6
Continuous
 62
     7
370
    25
100
AcDbCircle
 10
91.2929940468
 20
2.6511944806
 30
0.0
 40
1.0
100
AcDbArc
 50
225.7796960222
 51
0.0
  0
LINE
  5
CD
330
1F
100
AcDbEntity
  8
0
  6
Continuous
 62
     7
370
    25
100
AcDbLine
 10
92.2929940468
 20
9.7652223842
 30
0.0
 11
92.2929940468
 21
2.6511944806
 31
0.0
  0
ARC
  5
CE
330
1F
100
AcDbEntity
  8
0
  6
Continuous
 62
     7
370
    25
100
AcDbCircle
 10
91.2929940468
 20
9.7652223842
 30
0.0
 40
1.0
100
AcDbArc
 50
0.0
 51
90.0
  0
LINE
  5
CF
330
1F
100
AcDbEntity
  8
0
  6
Continuous
 62
     7
370
    25
100
AcDbLine
 10
83.9826635666
 20
10.7652223842
 30
0.0
 11
91.2929940468
 21
10.7652223842
 31
0.0
  0
ARC
  5
D0
330
1F
100
AcDbEntity
  8
0
  6
Continuous
 62
     7
370
    25
100
AcDbCircle
 10
83.9826635666
 20
9.7652223842
 30
0.0
 40
1.000000000000002
100
AcDbArc
 50
90.0
 51
225.7796960221
  0
LINE
  5
D1
330
1F
100
AcDbEntity
  8
0
  6
Continuous
 62
     7
370
    25
100
AcDbLine
 10
90.5955749352
 20
1.9345309732
 30
0.0
 11
83.285244455
 21
9.0485588769
 31
0.0
  0
ENDSEC
  0
SECTION
  2
OBJECTS
  0
DICTIONARY
  5
C
330
0
100
AcDbDictionary
281
     1
  3
ACAD_GROUP
350
D
  3
ACAD_LAYOUT
350
1A
  3
ACAD_MLINESTYLE
350
17
  3
ACAD_PLOTSETTINGS
350
19
  3
ACAD_PLOTSTYLENAME
350
E
  3
ACAD_SCALELIST
350
47
  3
DWGPROPS
350
D2
  0
DICTIONARY
  5
D
102
{ACAD_REACTORS
330
C
102
}
330
C
100
AcDbDictionary
281
     1
  0
DICTIONARY
  5
1A
102
{ACAD_REACTORS
330
C
102
}
330
C
100
AcDbDictionary
281
     1
  3
Layout1
350
1E
  3
Layout2
350
26
  3
Model
350
22
  0
DICTIONARY
  5
17
102
{ACAD_REACTORS
330
C
102
}
330
C
100
AcDbDictionary
281
     1
  3
Standard
350
18
  0
DICTIONARY
  5
19
102
{ACAD_REACTORS
330
C
102
}
330
C
100
AcDbDictionary
281
     1
  0
ACDBDICTIONARYWDFLT
  5
E
102
{ACAD_REACTORS
330
C
102
}
330
C
100
AcDbDictionary
281
     1
  3
Normal
350
F
100
AcDbDictionaryWithDefault
340
F
  0
DICTIONARY
  5
47
102
{ACAD_REACTORS
330
C
102
}
330
C
100
AcDbDictionary
281
     1
  3
A0
350
48
  3
A1
350
49
  3
A2
350
4A
  3
A3
350
4B
  3
A4
350
4C
  3
A5
350
4D
  3
A6
350
4E
  3
A7
350
4F
  3
A8
350
50
  3
A9
350
51
  3
B0
350
52
  3
B1
350
53
  3
B2
350
54
  3
B3
350
55
  3
B4
350
56
  3
B5
350
57
  3
B6
350
58
  0
XRECORD
  5
D2
102
{ACAD_REACTORS
330
C
102
}
330
C
100
AcDbXrecord
280
     1
  1
DWGPROPS COOKIE
  2

  3

  4

  6

  7

  8
CX_in_command
  9

300
=
301
=
302
=
303
=
304
=
305
=
306
=
307
=
308
=
309
=
 40
0.0
 41
2461081.382689826
 42
2461081.382874387
  1

 90
        0
  0
LAYOUT
  5
1E
102
{ACAD_REACTORS
330
1A
102
}
330
1A
100
AcDbPlotSettings
  1

  2
none_device
  4

  6

 40
0.0
 41
0.0
 42
0.0
 43
0.0
 44
0.0
 45
0.0
 46
0.0
 47
0.0
 48
0.0
 49
0.0
140
0.0
141
0.0
142
1.0
143
1.0
 70
   688
 72
     1
 73
     0
 74
     5
  7

 75
    16
147
1.0
148
0.0
149
0.0
100
AcDbLayout
  1
Layout1
 70
     1
 71
     1
 10
0.0
 20
0.0
 11
420.0
 21
297.0
 12
0.0
 22
0.0
 32
0.0
 14
1.0000000000E+20
 24
1.0000000000E+20
 34
1.0000000000E+20
 15
-1.0000000000E+20
 25
-1.0000000000E+20
 35
-1.0000000000E+20
146
0.0
 13
0.0
 23
0.0
 33
0.0
 16
1.0
 26
0.0
 36
0.0
 17
0.0
 27
1.0
 37
0.0
 76
     0
330
1B
  0
LAYOUT
  5
26
102
{ACAD_REACTORS
330
1A
102
}
330
1A
100
AcDbPlotSettings
  1

  2
none_device
  4

  6

 40
0.0
 41
0.0
 42
0.0
 43
0.0
 44
0.0
 45
0.0
 46
0.0
 47
0.0
 48
0.0
 49
0.0
140
0.0
141
0.0
142
1.0
143
1.0
 70
   688
 72
     1
 73
     0
 74
     5
  7

 75
    16
147
1.0
148
0.0
149
0.0
100
AcDbLayout
  1
Layout2
 70
     1
 71
     2
 10
0.0
 20
0.0
 11
0.0
 21
0.0
 12
0.0
 22
0.0
 32
0.0
 14
0.0
 24
0.0
 34
0.0
 15
0.0
 25
0.0
 35
0.0
146
0.0
 13
0.0
 23
0.0
 33
0.0
 16
1.0
 26
0.0
 36
0.0
 17
0.0
 27
1.0
 37
0.0
 76
     0
330
23
  0
LAYOUT
  5
22
102
{ACAD_REACTORS
330
1A
102
}
330
1A
100
AcDbPlotSettings
  1

  2
none_device
  4
ANSI_A_(11.00_x_8.50_Inches)
  6

 40
6.35
 41
19.05
 42
6.35000508
 43
19.05000254
 44
279.4
 45
215.9
 46
-33.706242781
 47
82.735842437
 48
0.0
 49
0.0
140
0.0
141
0.0
142
0.0838843966
143
1.0
 70
  1696
 72
     0
 73
     0
 74
     0
  7

 75
     0
147
0.0179189148
148
-1300.4909072572
149
0.0
100
AcDbLayout
  1
Model
 70
     1
 71
     0
 10
0.0
 20
0.0
 11
420.0
 21
297.0
 12
0.0
 22
0.0
 32
0.0
 14
13.4949690108
 24
-10.0
 34
0.0
 15
143.3164905827
 25
15.7861373156
 35
0.0
146
0.0
 13
0.0
 23
0.0
 33
0.0
 16
1.0
 26
0.0
 36
0.0
 17
0.0
 27
1.0
 37
0.0
 76
     0
330
1F
331
29
  0
MLINESTYLE
  5
18
102
{ACAD_REACTORS
330
17
102
}
330
17
100
AcDbMlineStyle
  2
Standard
 70
     0
  3

 62
   256
 51
90.0
 52
90.0
 71
     2
 49
0.5
 62
   256
  6
BYLAYER
 49
-0.5
 62
   256
  6
BYLAYER
  0
ACDBPLACEHOLDER
  5
F
102
{ACAD_REACTORS
330
E
102
}
330
E
  0
SCALE
  5
48
102
{ACAD_REACTORS
330
47
102
}
330
47
100
AcDbScale
 70
     0
300
1:1
140
1.0
141
1.0
290
     1
  0
SCALE
  5
49
102
{ACAD_REACTORS
330
47
102
}
330
47
100
AcDbScale
 70
     0
300
1:2
140
1.0
141
2.0
290
     0
  0
SCALE
  5
4A
102
{ACAD_REACTORS
330
47
102
}
330
47
100
AcDbScale
 70
     0
300
1:4
140
1.0
141
4.0
290
     0
  0
SCALE
  5
4B
102
{ACAD_REACTORS
330
47
102
}
330
47
100
AcDbScale
 70
     0
300
1:5
140
1.0
141
5.0
290
     0
  0
SCALE
  5
4C
102
{ACAD_REACTORS
330
47
102
}
330
47
100
AcDbScale
 70
     0
300
1:8
140
1.0
141
8.0
290
     0
  0
SCALE
  5
4D
102
{ACAD_REACTORS
330
47
102
}
330
47
100
AcDbScale
 70
     0
300
1:10
140
1.0
141
10.0
290
     0
  0
SCALE
  5
4E
102
{ACAD_REACTORS
330
47
102
}
330
47
100
AcDbScale
 70
     0
300
1:16
140
1.0
141
16.0
290
     0
  0
SCALE
  5
4F
102
{ACAD_REACTORS
330
47
102
}
330
47
100
AcDbScale
 70
     0
300
1:20
140
1.0
141
20.0
290
     0
  0
SCALE
  5
50
102
{ACAD_REACTORS
330
47
102
}
330
47
100
AcDbScale
 70
     0
300
1:30
140
1.0
141
30.0
290
     0
  0
SCALE
  5
51
102
{ACAD_REACTORS
330
47
102
}
330
47
100
AcDbScale
 70
     0
300
1:40
140
1.0
141
40.0
290
     0
  0
SCALE
  5
52
102
{ACAD_REACTORS
330
47
102
}
330
47
100
AcDbScale
 70
     0
300
1:50
140
1.0
141
50.0
290
     0
  0
SCALE
  5
53
102
{ACAD_REACTORS
330
47
102
}
330
47
100
AcDbScale
 70
     0
300
1:100
140
1.0
141
100.0
290
     0
  0
SCALE
  5
54
102
{ACAD_REACTORS
330
47
102
}
330
47
100
AcDbScale
 70
     0
300
2:1
140
2.0
141
1.0
290
     0
  0
SCALE
  5
55
102
{ACAD_REACTORS
330
47
102
}
330
47
100
AcDbScale
 70
     0
300
4:1
140
4.0
141
1.0
290
     0
  0
SCALE
  5
56
102
{ACAD_REACTORS
330
47
102
}
330
47
100
AcDbScale
 70
     0
300
8:1
140
8.0
141
1.0
290
     0
  0
SCALE
  5
57
102
{ACAD_REACTORS
330
47
102
}
330
47
100
AcDbScale
 70
     0
300
10:1
140
10.0
141
1.0
290
     0
  0
SCALE
  5
58
102
{ACAD_REACTORS
330
47
102
}
330
47
100
AcDbScale
 70
     0
300
100:1
140
100.0
141
1.0
290
     0
  0
ENDSEC
  0
EOF
