  0
SECTION
  2
HEADER
  9
$ACADVER
  1
AC1015
  9
$ACADMAINTVER
 70
     6
  9
$DWGCODEPAGE
  3
ANSI_936
  9
$INSBASE
 10
0.0
 20
0.0
 30
0.0
  9
$EXTMIN
 10
-519.0000000003
 20
-10.0
 30
0.0
  9
$EXTMAX
 10
-290.0
 20
7.3665095989
 30
0.0
  9
$LIMMIN
 10
0.0
 20
0.0
  9
$LIMMAX
 10
420.0
 20
297.0
  9
$ORTHOMODE
 70
     0
  9
$REGENMODE
 70
     1
  9
$FILLMODE
 70
     1
  9
$QTEXTMODE
 70
     0
  9
$MIRRTEXT
 70
     1
  9
$LTSCALE
 40
1.0
  9
$ATTMODE
 70
     1
  9
$TEXTSIZE
 40
3.5
  9
$TRACEWID
 40
1.0
  9
$TEXTSTYLE
  7
Standard
  9
$CLAYER
  8
0
  9
$CELTYPE
  6
ByLayer
  9
$CECOLOR
 62
   256
  9
$CELTSCALE
 40
1.0
  9
$DISPSILH
 70
     0
  9
$DIMSCALE
 40
1.0
  9
$DIMASZ
 40
4.08
  9
$DIMEXO
 40
0.0
  9
$DIMDLI
 40
3.75
  9
$DIMRND
 40
0.0
  9
$DIMDLE
 40
0.0
  9
$DIMEXE
 40
2.0
  9
$DIMTP
 40
0.0
  9
$DIMTM
 40
0.0
  9
$DIMTXT
 40
3.5
  9
$DIMCEN
 40
2.5
  9
$DIMTSZ
 40
0.0
  9
$DIMTOL
 70
     0
  9
$DIMLIM
 70
     0
  9
$DIMTIH
 70
     1
  9
$DIMTOH
 70
     1
  9
$DIMSE1
 70
     0
  9
$DIMSE2
 70
     0
  9
$DIMTAD
 70
     1
  9
$DIMZIN
 70
     0
  9
$DIMBLK
  1

  9
$DIMASO
 70
     1
  9
$DIMSHO
 70
     1
  9
$DIMPOST
  1

  9
$DIMAPOST
  1

  9
$DIMALT
 70
     0
  9
$DIMALTD
 70
     3
  9
$DIMALTF
 40
0.0393700787
  9
$DIMLFAC
 40
1.0
  9
$DIMTOFL
 70
     1
  9
$DIMTVP
 40
0.0
  9
$DIMTIX
 70
     0
  9
$DIMSOXD
 70
     0
  9
$DIMSAH
 70
     0
  9
$DIMBLK1
  1

  9
$DIMBLK2
  1

  9
$DIMSTYLE
  2
ISO-25
  9
$DIMCLRD
 70
     0
  9
$DIMCLRE
 70
     0
  9
$DIMCLRT
 70
     0
  9
$DIMTFAC
 40
1.0
  9
$DIMGAP
 40
1.524
  9
$DIMJUST
 70
     0
  9
$DIMSD1
 70
     0
  9
$DIMSD2
 70
     0
  9
$DIMTOLJ
 70
     0
  9
$DIMTZIN
 70
     0
  9
$DIMALTZ
 70
     0
  9
$DIMALTTZ
 70
     0
  9
$DIMUPT
 70
     0
  9
$DIMDEC
 70
     2
  9
$DIMTDEC
 70
     2
  9
$DIMALTU
 70
     2
  9
$DIMALTTD
 70
     3
  9
$DIMTXSTY
  7
Standard
  9
$DIMAUNIT
 70
     0
  9
$DIMADEC
 70
     2
  9
$DIMALTRND
 40
0.0
  9
$DIMAZIN
 70
     0
  9
$DIMDSEP
 70
    44
  9
$DIMATFIT
 70
     3
  9
$DIMFRAC
 70
     0
  9
$DIMLDRBLK
  1

  9
$DIMLUNIT
 70
     2
  9
$DIMLWD
 70
    -2
  9
$DIMLWE
 70
    -2
  9
$DIMTMOVE
 70
     0
  9
$LUNITS
 70
     2
  9
$LUPREC
 70
     2
  9
$SKETCHINC
 40
1.0
  9
$FILLETRAD
 40
0.0
  9
$AUNITS
 70
     0
  9
$AUPREC
 70
     2
  9
$MENU
  1
.
  9
$ELEVATION
 40
0.0
  9
$PELEVATION
 40
0.0
  9
$THICKNESS
 40
0.0
  9
$LIMCHECK
 70
     0
  9
$CHAMFERA
 40
0.0
  9
$CHAMFERB
 40
0.0
  9
$CHAMFERC
 40
0.0
  9
$CHAMFERD
 40
0.0
  9
$SKPOLY
 70
     0
  9
$TDCREATE
 40
2461081.727943889
  9
$TDUCREATE
 40
2461081.394610556
  9
$TDUPDATE
 40
2461081.728035509
  9
$TDUUPDATE
 40
2461081.394702176
  9
$TDINDWG
 40
0.0000000116
  9
$TDUSRTIMER
 40
0.0000000116
  9
$USRTIMER
 70
     1
  9
$ANGBASE
 50
0.0
  9
$ANGDIR
 70
     0
  9
$PDMODE
 70
     0
  9
$PDSIZE
 40
-1.0
  9
$PLINEWID
 40
0.0
  9
$SPLFRAME
 70
     0
  9
$SPLINETYPE
 70
     6
  9
$SPLINESEGS
 70
     8
  9
$HANDSEED
  5
B2
  9
$SURFTAB1
 70
     6
  9
$SURFTAB2
 70
     6
  9
$SURFTYPE
 70
     6
  9
$SURFU
 70
     6
  9
$SURFV
 70
     6
  9
$UCSBASE
  2

  9
$UCSNAME
  2

  9
$UCSORG
 10
0.0
 20
0.0
 30
0.0
  9
$UCSXDIR
 10
1.0
 20
0.0
 30
0.0
  9
$UCSYDIR
 10
0.0
 20
1.0
 30
0.0
  9
$UCSORTHOREF
  2

  9
$UCSORTHOVIEW
 70
     0
  9
$UCSORGTOP
 10
0.0
 20
0.0
 30
0.0
  9
$UCSORGBOTTOM
 10
0.0
 20
0.0
 30
0.0
  9
$UCSORGLEFT
 10
0.0
 20
0.0
 30
0.0
  9
$UCSORGRIGHT
 10
0.0
 20
0.0
 30
0.0
  9
$UCSORGFRONT
 10
0.0
 20
0.0
 30
0.0
  9
$UCSORGBACK
 10
0.0
 20
0.0
 30
0.0
  9
$PUCSBASE
  2

  9
$PUCSNAME
  2

  9
$PUCSORG
 10
0.0
 20
0.0
 30
0.0
  9
$PUCSXDIR
 10
1.0
 20
0.0
 30
0.0
  9
$PUCSYDIR
 10
0.0
 20
1.0
 30
0.0
  9
$PUCSORTHOREF
  2

  9
$PUCSORTHOVIEW
 70
     0
  9
$PUCSORGTOP
 10
0.0
 20
0.0
 30
0.0
  9
$PUCSORGBOTTOM
 10
0.0
 20
0.0
 30
0.0
  9
$PUCSORGLEFT
 10
0.0
 20
0.0
 30
0.0
  9
$PUCSORGRIGHT
 10
0.0
 20
0.0
 30
0.0
  9
$PUCSORGFRONT
 10
0.0
 20
0.0
 30
0.0
  9
$PUCSORGBACK
 10
0.0
 20
0.0
 30
0.0
  9
$USERI1
 70
     0
  9
$USERI2
 70
     0
  9
$USERI3
 70
     0
  9
$USERI4
 70
     0
  9
$USERI5
 70
     0
  9
$USERR1
 40
0.0
  9
$USERR2
 40
0.0
  9
$USERR3
 40
0.0
  9
$USERR4
 40
0.0
  9
$USERR5
 40
0.0
  9
$WORLDVIEW
 70
     1
  9
$SHADEDGE
 70
     3
  9
$SHADEDIF
 70
    70
  9
$TILEMODE
 70
     1
  9
$MAXACTVP
 70
    64
  9
$PINSBASE
 10
0.0
 20
0.0
 30
0.0
  9
$PLIMCHECK
 70
     0
  9
$PEXTMIN
 10
1.0000000000E+20
 20
1.0000000000E+20
 30
1.0000000000E+20
  9
$PEXTMAX
 10
-1.0000000000E+20
 20
-1.0000000000E+20
 30
-1.0000000000E+20
  9
$PLIMMIN
 10
0.0
 20
0.0
  9
$PLIMMAX
 10
420.0
 20
297.0
  9
$UNITMODE
 70
     0
  9
$VISRETAIN
 70
     1
  9
$PLINEGEN
 70
     0
  9
$PSLTSCALE
 70
     1
  9
$TREEDEPTH
 70
  3020
  9
$CMLSTYLE
  2
Standard
  9
$CMLJUST
 70
     0
  9
$CMLSCALE
 40
20.0
  9
$PROXYGRAPHICS
 70
     1
  9
$MEASUREMENT
 70
     1
  9
$CELWEIGHT
370
    -1
  9
$ENDCAPS
280
     0
  9
$JOINSTYLE
280
     0
  9
$LWDISPLAY
290
     1
  9
$INSUNITS
 70
     4
  9
$HYPERLINKBASE
  1

  9
$STYLESHEET
  1

  9
$XEDIT
290
     1
  9
$CEPSNTYPE
380
     0
  9
$PSTYLEMODE
290
     1
  9
$FINGERPRINTGUID
  2
{03857e79-0581-4b50-9541-1e1ebf95e4c0}
  9
$VERSIONGUID
  2
{FAEB1C32-E019-11D5-929B-00C0DF256EC4}
  9
$EXTNAMES
290
     1
  9
$PSVPSCALE
 40
0.0
  9
$OLESTARTUP
290
     0
  0
ENDSEC
  0
SECTION
  2
CLASSES
  0
CLASS
  1
ACDBDICTIONARYWDFLT
  2
AcDbDictionaryWithDefault
  3
ObjectDBX Classes
 90
        0
280
     0
281
     0
  0
CLASS
  1
VISUALSTYLE
  2
AcDbVisualStyle
  3
ObjectDBX Classes
 90
     4095
280
     0
281
     0
  0
CLASS
  1
MATERIAL
  2
AcDbMaterial
  3
ObjectDBX Classes
 90
     1153
280
     0
281
     0
  0
CLASS
  1
SCALE
  2
AcDbScale
  3
ObjectDBX Classes
 90
     1153
280
     0
281
     0
  0
CLASS
  1
TABLESTYLE
  2
AcDbTableStyle
  3
ObjectDBX Classes
 90
     4095
280
     0
281
     0
  0
CLASS
  1
MLEADERSTYLE
  2
AcDbMLeaderStyle
  3
ACDB_MLEADERSTYLE_CLASS
 90
     4095
280
     0
281
     0
  0
CLASS
  1
SUN
  2
AcDbSun
  3
SCENEOE
 90
     1153
280
     0
281
     0
  0
CLASS
  1
ACDBPLACEHOLDER
  2
AcDbPlaceHolder
  3
ObjectDBX Classes
 90
        0
280
     0
281
     0
  0
CLASS
  1
LAYOUT
  2
AcDbLayout
  3
ObjectDBX Classes
 90
        0
280
     0
281
     0
  0
ENDSEC
  0
SECTION
  2
TABLES
  0
TABLE
  2
VPORT
  5
8
330
0
100
AcDbSymbolTable
 70
     1
  0
VPORT
  5
29
330
8
100
AcDbSymbolTableRecord
100
AcDbViewportTableRecord
  2
*Active
 70
     0
 10
0.0
 20
0.0
 11
1.0
 21
1.0
 12
-404.5000000001
 22
-1.3167452005
 13
0.0
 23
0.0
 14
10.0
 24
10.0
 15
10.0
 25
10.0
 16
0.0
 26
0.0
 36
1.0
 17
0.0
 27
0.0
 37
0.0
 40
17.7138397909
 41
13.1862996819
 42
50.0
 43
0.0
 44
0.0
 50
0.0
 51
0.0
 71
     0
 72
   100
 73
     1
 74
     3
 75
     0
 76
     0
 77
     0
 78
     0
281
     0
 65
     1
110
0.0
120
0.0
130
0.0
111
1.0
121
0.0
131
0.0
112
0.0
122
1.0
132
0.0
 79
     0
146
0.0
  0
ENDTAB
  0
TABLE
  2
LTYPE
  5
5
330
0
100
AcDbSymbolTable
 70
     6
  0
LTYPE
  5
14
330
5
100
AcDbSymbolTableRecord
100
AcDbLinetypeTableRecord
  2
ByBlock
 70
     0
  3

 72
    65
 73
     0
 40
0.0
  0
LTYPE
  5
15
330
5
100
AcDbSymbolTableRecord
100
AcDbLinetypeTableRecord
  2
ByLayer
 70
     0
  3

 72
    65
 73
     0
 40
0.0
  0
LTYPE
  5
16
330
5
100
AcDbSymbolTableRecord
100
AcDbLinetypeTableRecord
  2
Continuous
 70
     0
  3
Solid line
 72
    65
 73
     0
 40
0.0
  0
LTYPE
  5
5E
330
5
100
AcDbSymbolTableRecord
100
AcDbLinetypeTableRecord
  2
HIDDEN
 70
     0
  3
Hidden __ __ __ __ __ __ __ __ __ __ __ __ __ __
 72
    65
 73
     2
 40
1.905
 49
1.27
 74
     0
 49
-0.635
 74
     0
  0
LTYPE
  5
5F
330
5
100
AcDbSymbolTableRecord
100
AcDbLinetypeTableRecord
  2
PHANTOM
 70
     0
  3
Phantom ______  __  __  ______  __  __  ______
 72
    65
 73
     6
 40
12.7
 49
6.35
 74
     0
 49
-1.27
 74
     0
 49
1.27
 74
     0
 49
-1.27
 74
     0
 49
1.27
 74
     0
 49
-1.27
 74
     0
  0
LTYPE
  5
60
330
5
100
AcDbSymbolTableRecord
100
AcDbLinetypeTableRecord
  2
CENTER
 70
     0
  3
Center ____ _ ____ _ ____ _ ____ _ ____ _ ____
 72
    65
 73
     4
 40
10.16
 49
6.35
 74
     0
 49
-1.27
 74
     0
 49
1.27
 74
     0
 49
-1.27
 74
     0
  0
LTYPE
  5
61
330
5
100
AcDbSymbolTableRecord
100
AcDbLinetypeTableRecord
  2
CENTERX2
 70
     0
  3
Center (2x) ________  __  ________  __  _____
 72
    65
 73
     4
 40
20.32
 49
12.7
 74
     0
 49
-2.54
 74
     0
 49
2.54
 74
     0
 49
-2.54
 74
     0
  0
LTYPE
  5
62
330
5
100
AcDbSymbolTableRecord
100
AcDbLinetypeTableRecord
  2
DOT2
 70
     0
  3
Dot (.5x) ........................................
 72
    65
 73
     2
 40
0.635
 49
0.0
 74
     0
 49
-0.635
 74
     0
  0
ENDTAB
  0
TABLE
  2
LAYER
  5
2
330
0
100
AcDbSymbolTable
 70
     1
  0
LAYER
  5
10
330
2
100
AcDbSymbolTableRecord
100
AcDbLayerTableRecord
  2
0
 70
     0
 62
     7
  6
Continuous
370
    -3
390
F
  0
ENDTAB
  0
TABLE
  2
STYLE
  5
3
330
0
100
AcDbSymbolTable
 70
     1
  0
STYLE
  5
11
330
3
100
AcDbSymbolTableRecord
100
AcDbTextStyleTableRecord
  2
Standard
 70
     0
 40
0.0
 41
1.0
 50
0.0
 71
     0
 42
3.5
  3
txt
  4

  0
ENDTAB
  0
TABLE
  2
VIEW
  5
6
330
0
100
AcDbSymbolTable
 70
     0
  0
ENDTAB
  0
TABLE
  2
UCS
  5
7
330
0
100
AcDbSymbolTable
 70
     0
  0
ENDTAB
  0
TABLE
  2
APPID
  5
9
330
0
100
AcDbSymbolTable
 70
     1
  0
APPID
  5
12
330
9
100
AcDbSymbolTableRecord
100
AcDbRegAppTableRecord
  2
ACAD
 70
     0
  0
ENDTAB
  0
TABLE
  2
DIMSTYLE
  5
A
330
0
100
AcDbSymbolTable
 70
     1
100
AcDbDimStyleTable
  0
DIMSTYLE
105
27
330
A
100
AcDbSymbolTableRecord
100
AcDbDimStyleTableRecord
  2
ISO-25
 70
     0
 41
2.5
 42
0.625
 43
3.75
 44
1.25
 73
     0
 74
     0
 77
     1
 78
     8
140
2.5
141
2.5
143
0.0393700787
147
0.625
171
     3
172
     1
178
     0
271
     2
272
     2
274
     3
278
    44
283
     0
284
     8
340
11
  0
ENDTAB
  0
TABLE
  2
BLOCK_RECORD
  5
1
330
0
100
AcDbSymbolTable
 70
     1
  0
BLOCK_RECORD
  5
1F
330
1
100
AcDbSymbolTableRecord
100
AcDbBlockTableRecord
  2
*Model_Space
340
22
  0
BLOCK_RECORD
  5
1B
330
1
100
AcDbSymbolTableRecord
100
AcDbBlockTableRecord
  2
*Paper_Space
340
1E
  0
BLOCK_RECORD
  5
23
330
1
100
AcDbSymbolTableRecord
100
AcDbBlockTableRecord
  2
*Paper_Space0
340
26
  0
ENDTAB
  0
ENDSEC
  0
SECTION
  2
BLOCKS
  0
BLOCK
  5
20
330
1F
100
AcDbEntity
  8
0
100
AcDbBlockBegin
  2
*Model_Space
 70
     0
 10
0.0
 20
0.0
 30
0.0
  3
*Model_Space
  1

  0
ENDBLK
  5
21
330
1F
100
AcDbEntity
  8
0
100
AcDbBlockEnd
  0
BLOCK
  5
1C
330
1B
100
AcDbEntity
 67
     1
  8
0
100
AcDbBlockBegin
  2
*Paper_Space
 70
     0
 10
0.0
 20
0.0
 30
0.0
  3
*Paper_Space
  1

  0
ENDBLK
  5
1D
330
1B
100
AcDbEntity
 67
     1
  8
0
100
AcDbBlockEnd
  0
BLOCK
  5
24
330
23
100
AcDbEntity
  8
0
100
AcDbBlockBegin
  2
*Paper_Space0
 70
     0
 10
0.0
 20
0.0
 30
0.0
  3
*Paper_Space0
  1

  0
ENDBLK
  5
25
330
23
100
AcDbEntity
  8
0
100
AcDbBlockEnd
  0
ENDSEC
  0
SECTION
  2
ENTITIES
  0
SPLINE
  5
63
330
1F
100
AcDbEntity
  8
0
  6
Continuous
 62
     7
370
    25
100
AcDbSpline
210
0.0
220
0.0
230
1.0
 70
     8
 71
     3
 72
     8
 73
     4
 74
     0
 42
0.00000001
 43
0.00000001
 40
0.3090521387097357
 40
0.3090521387097357
 40
0.3090521387097357
 40
0.3090521387097357
 40
0.3100521387148114
 40
0.3100521387148114
 40
0.3100521387148114
 40
0.3100521387148114
 10
-309.0521376830985
 20
-1.372985024806912
 30
0.0
 10
-309.3854710164268
 20
-1.373019175575618
 30
0.0
 10
-309.7188043497601
 20
-1.37305327744135
 30
0.0
 10
-310.0521376830986
 20
-1.373087328765166
 30
0.0
  0
LINE
  5
64
330
1F
100
AcDbEntity
  8
0
  6
Continuous
 62
     7
370
    25
100
AcDbLine
 10
-309.052137683
 20
-1.5769363105
 30
0.0
 11
-309.0521376831
 21
-1.3729850248
 31
0.0
  0
LINE
  5
65
330
1F
100
AcDbEntity
  8
0
  6
Continuous
 62
     7
370
    25
100
AcDbLine
 10
-310.052137683
 20
-1.5769363105
 30
0.0
 11
-309.052137683
 21
-1.5769363105
 31
0.0
  0
LINE
  5
66
330
1F
100
AcDbEntity
  8
0
  6
Continuous
 62
     7
370
    25
100
AcDbLine
 10
-310.0521376831
 20
-1.3730873288
 30
0.0
 11
-310.052137683
 21
-1.5769363105
 31
0.0
  0
SPLINE
  5
67
330
1F
100
AcDbEntity
  8
0
  6
Continuous
 62
     7
370
    25
100
AcDbSpline
210
0.0
220
0.0
230
1.0
 70
     8
 71
     3
 72
     8
 73
     4
 74
     0
 42
0.00000001
 43
0.00000001
 40
0.3102521387158227
 40
0.3102521387158227
 40
0.3102521387158227
 40
0.3102521387158227
 40
0.3112521387208611
 40
0.3112521387208611
 40
0.3112521387208611
 40
0.3112521387208611
 10
-310.2521376830985
 20
-1.373107753481233
 30
0.0
 10
-310.5854710164266
 20
-1.373141784522416
 30
0.0
 10
-310.9188043497599
 20
-1.373175764693239
 30
0.0
 10
-311.2521376830985
 20
-1.373209692348155
 30
0.0
  0
LINE
  5
68
330
1F
100
AcDbEntity
  8
0
  6
Continuous
 62
     7
370
    25
100
AcDbLine
 10
-310.252137683
 20
-1.5769363105
 30
0.0
 11
-310.2521376831
 21
-1.3731077535
 31
0.0
  0
LINE
  5
69
330
1F
100
AcDbEntity
  8
0
  6
Continuous
 62
     7
370
    25
100
AcDbLine
 10
-311.252137683
 20
-1.5769363105
 30
0.0
 11
-310.252137683
 21
-1.5769363105
 31
0.0
  0
LINE
  5
6A
330
1F
100
AcDbEntity
  8
0
  6
Continuous
 62
     7
370
    25
100
AcDbLine
 10
-311.2521376831
 20
-1.3732096923
 30
0.0
 11
-311.252137683
 21
-1.5769363105
 31
0.0
  0
SPLINE
  5
6B
330
1F
100
AcDbEntity
  8
0
  6
Continuous
 62
     7
370
    25
100
AcDbSpline
210
0.0
220
0.0
230
1.0
 70
     8
 71
     3
 72
     8
 73
     4
 74
     0
 42
0.00000001
 43
0.00000001
 40
0.311452138721865
 40
0.311452138721865
 40
0.311452138721865
 40
0.311452138721865
 40
0.3124521387268683
 40
0.3124521387268683
 40
0.3124521387268683
 40
0.3124521387268683
 10
-311.4521376830986
 20
-1.37323004262595
 30
0.0
 10
-311.7854710164277
 20
-1.373263949208371
 30
0.0
 10
-312.1188043497622
 20
-1.373297802945119
 30
0.0
 10
-312.4521376831022
 20
-1.373331602184016
 30
0.0
  0
LINE
  5
6C
330
1F
100
AcDbEntity
  8
0
  6
Continuous
 62
     7
370
    25
100
AcDbLine
 10
-311.452137683
 20
-1.5769363105
 30
0.0
 11
-311.4521376831
 21
-1.3732300426
 31
0.0
  0
LINE
  5
6D
330
1F
100
AcDbEntity
  8
0
  6
Continuous
 62
     7
370
    25
100
AcDbLine
 10
-312.452137683
 20
-1.5769363105
 30
0.0
 11
-311.452137683
 21
-1.5769363105
 31
0.0
  0
LINE
  5
6E
330
1F
100
AcDbEntity
  8
0
  6
Continuous
 62
     7
370
    25
100
AcDbLine
 10
-312.4521376831
 20
-1.3733316022
 30
0.0
 11
-312.452137683
 21
-1.5769363105
 31
0.0
  0
SPLINE
  5
6F
330
1F
100
AcDbEntity
  8
0
  6
Continuous
 62
     7
370
    25
100
AcDbSpline
210
0.0
220
0.0
230
1.0
 70
     8
 71
     3
 72
    32
 73
    28
 74
     0
 42
0.00000001
 43
0.00000001
 40
0.3126521387278643
 40
0.3126521387278643
 40
0.3126521387278643
 40
0.3126521387278643
 40
0.3165190395976741
 40
0.3165190395976741
 40
0.3165190395976741
 40
0.3286928488118028
 40
0.3286928488118028
 40
0.3286928488118028
 40
0.3408666580259774
 40
0.3408666580259774
 40
0.3408666580259774
 40
0.3530404672402128
 40
0.3530404672402128
 40
0.3530404672402128
 40
0.3652142764545254
 40
0.3652142764545254
 40
0.3652142764545254
 40
0.3773880856689337
 40
0.3773880856689337
 40
0.3773880856689337
 40
0.389561894883458
 40
0.389561894883458
 40
0.389561894883458
 40
0.4017357040981208
 40
0.4017357040981208
 40
0.4017357040981208
 40
0.4088521389692165
 40
0.4088521389692165
 40
0.4088521389692165
 40
0.4088521389692165
 10
-312.6521376831023
 20
-1.373351875174314
 30
0.0
 10
-313.9411046332918
 20
-1.373482488928084
 30
0.0
 10
-315.2300715835648
 20
-1.373612282925833
 30
0.0
 10
-316.519038533929
 20
-1.373741160789519
 30
0.0
 10
-320.576974918989
 20
-1.374146895143011
 30
0.0
 10
-324.6349113049737
 20
-1.374543558904249
 30
0.0
 10
-328.6928476921009
 20
-1.374928062894325
 30
0.0
 10
-332.7507840792371
 20
-1.375312566884403
 30
0.0
 10
-336.8087204675542
 20
-1.375684911419835
 30
0.0
 10
-340.8666568572061
 20
-1.376041879162851
 30
0.0
 10
-344.92459324687
 20
-1.376398846905868
 30
0.0
 10
-348.9825296379292
 20
-1.376740438168543
 30
0.0
 10
-353.0404660304497
 20
-1.377063302738686
 30
0.0
 10
-357.0984024229855
 20
-1.37738616730883
 30
0.0
 10
-361.1563388170715
 20
-1.377690305492822
 30
0.0
 10
-365.2142752126582
 20
-1.377972229564487
 30
0.0
 10
-369.2722116082637
 20
-1.378254153636153
 30
0.0
 10
-373.3301480054943
 20
-1.378513863962943
 30
0.0
 10
-377.388084404154
 20
-1.378747730546557
 30
0.0
 10
-381.4460208028366
 20
-1.378981597130172
 30
0.0
 10
-385.5039572031162
 20
-1.379189619835141
 30
0.0
 10
-389.5618936046165
 20
-1.379368016940523
 30
0.0
 10
-393.6198300061442
 20
-1.379546414045907
 30
0.0
 10
-397.6777664091125
 20
-1.379695185836019
 30
0.0
 10
-401.735702812926
 20
-1.379810399105416
 30
0.0
 10
-404.107847769333
 20
-1.379877749243199
 30
0.0
 10
-406.4799927260973
 20
-1.379933628859764
 30
0.0
 10
-408.8521376830597
 20
-1.379977227702524
 30
0.0
  0
LINE
  5
70
330
1F
100
AcDbEntity
  8
0
  6
Continuous
 62
     7
370
    25
100
AcDbLine
 10
-312.652137683
 20
-10.0
 30
0.0
 11
-312.6521376831
 21
-1.3733518752
 31
0.0
  0
LINE
  5
71
330
1F
100
AcDbEntity
  8
0
  6
Continuous
 62
     7
370
    25
100
AcDbLine
 10
-312.652137683
 20
-10.0
 30
0.0
 11
-308.652137683
 21
-10.0
 31
0.0
  0
LINE
  5
72
330
1F
100
AcDbEntity
  8
0
  6
Continuous
 62
     7
370
    25
100
AcDbLine
 10
-308.652137683
 20
-10.0
 30
0.0
 11
-308.652137683
 21
-1.5769363105
 31
0.0
  0
LINE
  5
73
330
1F
100
AcDbEntity
  8
0
  6
Continuous
 62
     7
370
    25
100
AcDbLine
 10
-308.852137683
 20
-1.5769363105
 30
0.0
 11
-308.652137683
 21
-1.5769363105
 31
0.0
  0
LINE
  5
74
330
1F
100
AcDbEntity
  8
0
  6
Continuous
 62
     7
370
    25
100
AcDbLine
 10
-308.8521376831
 20
-1.3729645285
 30
0.0
 11
-308.852137683
 21
-1.5769363105
 31
0.0
  0
SPLINE
  5
75
330
1F
100
AcDbEntity
  8
0
  6
Continuous
 62
     7
370
    25
100
AcDbSpline
210
0.0
220
0.0
230
1.0
 70
     8
 71
     3
 72
    14
 73
    10
 74
     0
 42
0.00000001
 43
0.00000001
 40
0.2920000009362365
 40
0.2920000009362365
 40
0.2920000009362365
 40
0.2920000009362365
 40
0.2921714211695028
 40
0.2921714211695028
 40
0.2921714211695028
 40
0.304345230383578
 40
0.304345230383578
 40
0.304345230383578
 40
0.3088521387087169
 40
0.3088521387087169
 40
0.3088521387087169
 40
0.3088521387087169
 10
-291.9999999999895
 20
-1.371203332443035
 30
0.0
 10
-292.0571400774327
 20
-1.371209392449126
 30
0.0
 10
-292.114280154876
 20
-1.371215451815063
 30
0.0
 10
-292.1714202323193
 20
-1.371221510533062
 30
0.0
 10
-296.2293566148411
 20
-1.37165178457712
 30
0.0
 10
-300.2872929977127
 20
-1.372078800402015
 30
0.0
 10
-304.3452293812165
 20
-1.37249971078626
 30
0.0
 10
-305.8475321484187
 20
-1.372655537486147
 30
0.0
 10
-307.3498349157082
 20
-1.372810526240942
 30
0.0
 10
-308.8521376830985
 20
-1.372964528490363
 30
0.0
  0
LINE
  5
76
330
1F
100
AcDbEntity
  8
0
  6
Continuous
 62
     7
370
    25
100
AcDbLine
 10
-292.0
 20
2.4083250736
 30
0.0
 11
-292.0
 21
-1.3712033324
 31
0.0
  0
LINE
  5
77
330
1F
100
AcDbEntity
  8
0
  6
Continuous
 62
     7
370
    25
100
AcDbLine
 10
-292.0
 20
2.4083250736
 30
0.0
 11
-290.0
 21
2.4083250736
 31
0.0
  0
LINE
  5
78
330
1F
100
AcDbEntity
  8
0
  6
Continuous
 62
     7
370
    25
100
AcDbLine
 10
-290.0
 20
2.4083250736
 30
0.0
 11
-290.0
 21
5.4083250736
 31
0.0
  0
LINE
  5
79
330
1F
100
AcDbEntity
  8
0
  6
Continuous
 62
     7
370
    25
100
AcDbLine
 10
-290.0
 20
5.4083250736
 30
0.0
 11
-292.0
 21
5.4083250736
 31
0.0
  0
LINE
  5
7A
330
1F
100
AcDbEntity
  8
0
  6
Continuous
 62
     7
370
    25
100
AcDbLine
 10
-292.0
 20
7.3665095989
 30
0.0
 11
-292.0
 21
5.4083250736
 31
0.0
  0
SPLINE
  5
7B
330
1F
100
AcDbEntity
  8
0
  6
Continuous
 62
     7
370
    25
100
AcDbSpline
210
0.0
220
0.0
230
1.0
 70
     8
 71
     3
 72
    11
 73
     7
 74
     0
 42
0.00000001
 43
0.00000001
 40
0.0020000071941948
 40
0.0020000071941948
 40
0.0020000071941948
 40
0.0020000071941948
 40
0.1358482621237057
 40
0.1358482621237057
 40
0.1358482621237057
 40
0.2270002219980527
 40
0.2270002219980527
 40
0.2270002219980527
 40
0.2270002219980527
 10
-517.0000000003141
 20
7.062452297524886
 30
0.0
 10
-472.3840981863138
 20
7.190297737683211
 30
0.0
 10
-427.7680264571017
 20
7.260004483028242
 30
0.0
 10
-383.1519633597326
 20
7.304195258694679
 30
0.0
 10
-352.7679833768915
 20
7.334289613733244
 30
0.0
 10
-322.38399158901
 20
7.3523537922919
 30
0.0
 10
-291.9999999999999
 20
7.366509598930007
 30
0.0
  0
LINE
  5
7C
330
1F
100
AcDbEntity
  8
0
  6
Continuous
 62
     7
370
    25
100
AcDbLine
 10
-517.0000000003
 20
5.4083250736
 30
0.0
 11
-517.0000000003
 21
7.0624522975
 31
0.0
  0
LINE
  5
7D
330
1F
100
AcDbEntity
  8
0
  6
Continuous
 62
     7
370
    25
100
AcDbLine
 10
-519.0000000003
 20
5.4083250736
 30
0.0
 11
-517.0000000003
 21
5.4083250736
 31
0.0
  0
LINE
  5
7E
330
1F
100
AcDbEntity
  8
0
  6
Continuous
 62
     7
370
    25
100
AcDbLine
 10
-519.0000000003
 20
5.4083250736
 30
0.0
 11
-519.0000000003
 21
2.4083250736
 31
0.0
  0
LINE
  5
7F
330
1F
100
AcDbEntity
  8
0
  6
Continuous
 62
     7
370
    25
100
AcDbLine
 10
-517.0000000003
 20
2.4083250736
 30
0.0
 11
-519.0000000003
 21
2.4083250736
 31
0.0
  0
LINE
  5
80
330
1F
100
AcDbEntity
  8
0
  6
Continuous
 62
     7
370
    25
100
AcDbLine
 10
-517.0000000003
 20
-1.3703232021
 30
0.0
 11
-517.0000000003
 21
2.4083250736
 31
0.0
  0
SPLINE
  5
81
330
1F
100
AcDbEntity
  8
0
  6
Continuous
 62
     7
370
    25
100
AcDbSpline
210
0.0
220
0.0
230
1.0
 70
     8
 71
     3
 72
     8
 73
     4
 74
     0
 42
0.00000001
 43
0.00000001
 40
0.5126521395580508
 40
0.5126521395580508
 40
0.5126521395580508
 40
0.5126521395580508
 40
0.5170000019822203
 40
0.5170000019822203
 40
0.5170000019822203
 40
0.5170000019822203
 10
-512.6521376830387
 20
-1.3712859245098
 30
0.0
 10
-514.1014251242811
 20
-1.370974924428593
 30
0.0
 10
-515.5507125634507
 20
-1.370654101875391
 30
0.0
 10
-517.0000000002863
 20
-1.370323202100805
 30
0.0
  0
LINE
  5
82
330
1F
100
AcDbEntity
  8
0
  6
Continuous
 62
     7
370
    25
100
AcDbLine
 10
-512.652137683
 20
-10.0
 30
0.0
 11
-512.652137683
 21
-1.3712859245
 31
0.0
  0
LINE
  5
83
330
1F
100
AcDbEntity
  8
0
  6
Continuous
 62
     7
370
    25
100
AcDbLine
 10
-512.652137683
 20
-10.0
 30
0.0
 11
-508.652137683
 21
-10.0
 31
0.0
  0
LINE
  5
84
330
1F
100
AcDbEntity
  8
0
  6
Continuous
 62
     7
370
    25
100
AcDbLine
 10
-508.652137683
 20
-10.0
 30
0.0
 11
-508.652137683
 21
-1.5769363105
 31
0.0
  0
LINE
  5
85
330
1F
100
AcDbEntity
  8
0
  6
Continuous
 62
     7
370
    25
100
AcDbLine
 10
-508.852137683
 20
-1.5769363105
 30
0.0
 11
-508.652137683
 21
-1.5769363105
 31
0.0
  0
LINE
  5
86
330
1F
100
AcDbEntity
  8
0
  6
Continuous
 62
     7
370
    25
100
AcDbLine
 10
-508.852137683
 20
-1.3720790189
 30
0.0
 11
-508.852137683
 21
-1.5769363105
 31
0.0
  0
SPLINE
  5
87
330
1F
100
AcDbEntity
  8
0
  6
Continuous
 62
     7
370
    25
100
AcDbSpline
210
0.0
220
0.0
230
1.0
 70
     8
 71
     3
 72
    32
 73
    28
 74
     0
 42
0.00000001
 43
0.00000001
 40
0.4126521389691391
 40
0.4126521389691391
 40
0.4126521389691391
 40
0.4126521389691391
 40
0.4139095133129469
 40
0.4139095133129469
 40
0.4139095133129469
 40
0.4260833225279638
 40
0.4260833225279638
 40
0.4260833225279638
 40
0.4382571317432012
 40
0.4382571317432012
 40
0.4382571317432012
 40
0.450430940958692
 40
0.450430940958692
 40
0.450430940958692
 40
0.4626047501744716
 40
0.4626047501744716
 40
0.4626047501744716
 40
0.4747785593905789
 40
0.4747785593905789
 40
0.4747785593905789
 40
0.486952368607056
 40
0.486952368607056
 40
0.486952368607056
 40
0.4991261778239482
 40
0.4991261778239482
 40
0.4991261778239482
 40
0.5088521394744498
 40
0.5088521394744498
 40
0.5088521394744498
 40
0.5088521394744498
 10
-412.6521376830598
 20
-1.380036438530345
 30
0.0
 10
-413.071262464364
 20
-1.380041782816362
 30
0.0
 10
-413.4903872456736
 20
-1.380046729933636
 30
0.0
 10
-413.9095120269872
 20
-1.380051275298689
 30
0.0
 10
-417.9674484322678
 20
-1.380095283200735
 30
0.0
 10
-422.0253848381722
 20
-1.380101644243486
 30
0.0
 10
-426.0833212435358
 20
-1.380066109884348
 30
0.0
 10
-430.1412576489431
 20
-1.38003057552521
 30
0.0
 10
-434.199194054247
 20
-1.379953146010516
 30
0.0
 10
-438.2571304579234
 20
-1.379829409324684
 30
0.0
 10
-442.3150668616499
 20
-1.379705672638851
 30
0.0
 10
-446.3730032642827
 20
-1.37953562901257
 30
0.0
 10
-450.4309396638817
 20
-1.379314699378024
 30
0.0
 10
-454.488876063538
 20
-1.379093769743475
 30
0.0
 10
-458.5468124608043
 20
-1.378821954314244
 30
0.0
 10
-462.6047488532631
 20
-1.378494503636439
 30
0.0
 10
-466.6626852457869
 20
-1.378167052958628
 30
0.0
 10
-470.7206216342721
 20
-1.377783967227306
 30
0.0
 10
-474.7785580157563
 20
-1.377340323535581
 30
0.0
 10
-478.8364943973139
 20
-1.376896679843847
 30
0.0
 10
-482.8944307727809
 20
-1.376392478366903
 30
0.0
 10
-486.9523671385769
 20
-1.375822619965438
 30
0.0
 10
-491.0103035044554
 20
-1.37525276156396
 30
0.0
 10
-495.068239861732
 20
-1.374617245211198
 30
0.0
 10
-499.126176206131
 20
-1.373910801120598
 30
0.0
 10
-502.3681633734719
 20
-1.373346405210512
 30
0.0
 10
-505.6101505332865
 20
-1.372736734231832
 30
0.0
 10
-508.8521376830385
 20
-1.372079018937296
 30
0.0
  0
LINE
  5
88
330
1F
100
AcDbEntity
  8
0
  6
Continuous
 62
     7
370
    25
100
AcDbLine
 10
-412.652137683
 20
-10.0
 30
0.0
 11
-412.6521376831
 21
-1.3800364385
 31
0.0
  0
LINE
  5
89
330
1F
100
AcDbEntity
  8
0
  6
Continuous
 62
     7
370
    25
100
AcDbLine
 10
-412.652137683
 20
-10.0
 30
0.0
 11
-408.652137683
 21
-10.0
 31
0.0
  0
LINE
  5
8A
330
1F
100
AcDbEntity
  8
0
  6
Continuous
 62
     7
370
    25
100
AcDbLine
 10
-408.652137683
 20
-10.0
 30
0.0
 11
-408.652137683
 21
-1.5769363105
 31
0.0
  0
LINE
  5
8B
330
1F
100
AcDbEntity
  8
0
  6
Continuous
 62
     7
370
    25
100
AcDbLine
 10
-408.852137683
 20
-1.5769363105
 30
0.0
 11
-408.652137683
 21
-1.5769363105
 31
0.0
  0
LINE
  5
8C
330
1F
100
AcDbEntity
  8
0
  6
Continuous
 62
     7
370
    25
100
AcDbLine
 10
-408.8521376831
 20
-1.3799772277
 30
0.0
 11
-408.852137683
 21
-1.5769363105
 31
0.0
  0
SPLINE
  5
8D
330
1F
100
AcDbEntity
  8
0
  6
Continuous
 62
     7
370
    25
100
AcDbSpline
210
0.0
220
0.0
230
1.0
 70
     8
 71
     3
 72
     8
 73
     4
 74
     0
 42
0.00000001
 43
0.00000001
 40
0.4090521389692232
 40
0.4090521389692232
 40
0.4090521389692232
 40
0.4090521389692232
 40
0.4100521389692378
 40
0.4100521389692378
 40
0.4100521389692378
 40
0.4100521389692378
 10
-409.05213768306
 20
-1.379980874481825
 30
0.0
 10
-409.385471016389
 20
-1.379986903881869
 30
0.0
 10
-409.7188043497224
 20
-1.379992690303571
 30
0.0
 10
-410.0521376830599
 20
-1.37999823146821
 30
0.0
  0
LINE
  5
8E
330
1F
100
AcDbEntity
  8
0
  6
Continuous
 62
     7
370
    25
100
AcDbLine
 10
-409.052137683
 20
-1.5769363105
 30
0.0
 11
-409.0521376831
 21
-1.3799808745
 31
0.0
  0
LINE
  5
8F
330
1F
100
AcDbEntity
  8
0
  6
Continuous
 62
     7
370
    25
100
AcDbLine
 10
-410.052137683
 20
-1.5769363105
 30
0.0
 11
-409.052137683
 21
-1.5769363105
 31
0.0
  0
LINE
  5
90
330
1F
100
AcDbEntity
  8
0
  6
Continuous
 62
     7
370
    25
100
AcDbLine
 10
-410.0521376831
 20
-1.3799982315
 30
0.0
 11
-410.052137683
 21
-1.5769363105
 31
0.0
  0
SPLINE
  5
91
330
1F
100
AcDbEntity
  8
0
  6
Continuous
 62
     7
370
    25
100
AcDbSpline
210
0.0
220
0.0
230
1.0
 70
     8
 71
     3
 72
     8
 73
     4
 74
     0
 42
0.00000001
 43
0.00000001
 40
0.4102521389692372
 40
0.4102521389692372
 40
0.4102521389692372
 40
0.4102521389692372
 40
0.4112521389692171
 40
0.4112521389692171
 40
0.4112521389692171
 40
0.4112521389692171
 10
-410.2521376830598
 20
-1.380001526717814
 30
0.0
 10
-410.5854710163892
 20
-1.380006969688076
 30
0.0
 10
-410.9188043497227
 20
-1.380012166944667
 30
0.0
 10
-411.2521376830599
 20
-1.380017116200209
 30
0.0
  0
LINE
  5
92
330
1F
100
AcDbEntity
  8
0
  6
Continuous
 62
     7
370
    25
100
AcDbLine
 10
-410.252137683
 20
-1.5769363105
 30
0.0
 11
-410.2521376831
 21
-1.3800015267
 31
0.0
  0
LINE
  5
93
330
1F
100
AcDbEntity
  8
0
  6
Continuous
 62
     7
370
    25
100
AcDbLine
 10
-411.252137683
 20
-1.5769363105
 30
0.0
 11
-410.252137683
 21
-1.5769363105
 31
0.0
  0
LINE
  5
94
330
1F
100
AcDbEntity
  8
0
  6
Continuous
 62
     7
370
    25
100
AcDbLine
 10
-411.2521376831
 20
-1.3800171162
 30
0.0
 11
-411.252137683
 21
-1.5769363105
 31
0.0
  0
SPLINE
  5
95
330
1F
100
AcDbEntity
  8
0
  6
Continuous
 62
     7
370
    25
100
AcDbSpline
210
0.0
220
0.0
230
1.0
 70
     8
 71
     3
 72
     8
 73
     4
 74
     0
 42
0.00000001
 43
0.00000001
 40
0.4114521389692094
 40
0.4114521389692094
 40
0.4114521389692094
 40
0.4114521389692094
 40
0.4124521389691538
 40
0.4124521389691538
 40
0.4124521389691538
 40
0.4124521389691538
 10
-411.4521376830598
 20
-1.380020055975004
 30
0.0
 10
-411.7854710163896
 20
-1.380024905938226
 30
0.0
 10
-412.1188043497231
 20
-1.380029507442059
 30
0.0
 10
-412.4521376830598
 20
-1.380033858190442
 30
0.0
  0
LINE
  5
96
330
1F
100
AcDbEntity
  8
0
  6
Continuous
 62
     7
370
    25
100
AcDbLine
 10
-411.452137683
 20
-1.5769363105
 30
0.0
 11
-411.4521376831
 21
-1.380020056
 31
0.0
  0
LINE
  5
97
330
1F
100
AcDbEntity
  8
0
  6
Continuous
 62
     7
370
    25
100
AcDbLine
 10
-412.452137683
 20
-1.5769363105
 30
0.0
 11
-411.452137683
 21
-1.5769363105
 31
0.0
  0
LINE
  5
98
330
1F
100
AcDbEntity
  8
0
  6
Continuous
 62
     7
370
    25
100
AcDbLine
 10
-412.4521376831
 20
-1.3800338582
 30
0.0
 11
-412.452137683
 21
-1.5769363105
 31
0.0
  0
SPLINE
  5
99
330
1F
100
AcDbEntity
  8
0
  6
Continuous
 62
     7
370
    25
100
AcDbSpline
210
0.0
220
0.0
230
1.0
 70
     8
 71
     3
 72
     8
 73
     4
 74
     0
 42
0.00000001
 43
0.00000001
 40
0.5090521394786245
 40
0.5090521394786245
 40
0.5090521394786245
 40
0.5090521394786245
 40
0.5100521394998714
 40
0.5100521394998714
 40
0.5100521394998714
 40
0.5100521394998714
 10
-509.0521376830386
 20
-1.372038383133008
 30
0.0
 10
-509.385471016476
 20
-1.37197055511848
 30
0.0
 10
-509.7188043498105
 20
-1.371902218531098
 30
0.0
 10
-510.0521376830387
 20
-1.371833370315047
 30
0.0
  0
LINE
  5
9A
330
1F
100
AcDbEntity
  8
0
  6
Continuous
 62
     7
370
    25
100
AcDbLine
 10
-509.052137683
 20
-1.5769363105
 30
0.0
 11
-509.052137683
 21
-1.3720383831
 31
0.0
  0
LINE
  5
9B
330
1F
100
AcDbEntity
  8
0
  6
Continuous
 62
     7
370
    25
100
AcDbLine
 10
-510.052137683
 20
-1.5769363105
 30
0.0
 11
-509.052137683
 21
-1.5769363105
 31
0.0
  0
LINE
  5
9C
330
1F
100
AcDbEntity
  8
0
  6
Continuous
 62
     7
370
    25
100
AcDbLine
 10
-510.052137683
 20
-1.3718333703
 30
0.0
 11
-510.052137683
 21
-1.5769363105
 31
0.0
  0
SPLINE
  5
9D
330
1F
100
AcDbEntity
  8
0
  6
Continuous
 62
     7
370
    25
100
AcDbSpline
210
0.0
220
0.0
230
1.0
 70
     8
 71
     3
 72
     8
 73
     4
 74
     0
 42
0.00000001
 43
0.00000001
 40
0.5102521395041957
 40
0.5102521395041957
 40
0.5102521395041957
 40
0.5102521395041957
 40
0.5112521395261939
 40
0.5112521395261939
 40
0.5112521395261939
 40
0.5112521395261939
 10
-510.2521376830384
 20
-1.371791999965396
 30
0.0
 10
-510.5854710164787
 20
-1.37172294697513
 30
0.0
 10
-510.9188043498131
 20
-1.371653381744038
 30
0.0
 10
-511.2521376830388
 20
-1.371583301206392
 30
0.0
  0
LINE
  5
9E
330
1F
100
AcDbEntity
  8
0
  6
Continuous
 62
     7
370
    25
100
AcDbLine
 10
-510.252137683
 20
-1.5769363105
 30
0.0
 11
-510.252137683
 21
-1.371792
 31
0.0
  0
LINE
  5
9F
330
1F
100
AcDbEntity
  8
0
  6
Continuous
 62
     7
370
    25
100
AcDbLine
 10
-511.252137683
 20
-1.5769363105
 30
0.0
 11
-510.252137683
 21
-1.5769363105
 31
0.0
  0
LINE
  5
A0
330
1F
100
AcDbEntity
  8
0
  6
Continuous
 62
     7
370
    25
100
AcDbLine
 10
-511.252137683
 20
-1.3715833012
 30
0.0
 11
-511.252137683
 21
-1.5769363105
 31
0.0
  0
SPLINE
  5
A1
330
1F
100
AcDbEntity
  8
0
  6
Continuous
 62
     7
370
    25
100
AcDbSpline
210
0.0
220
0.0
230
1.0
 70
     8
 71
     3
 72
     8
 73
     4
 74
     0
 42
0.00000001
 43
0.00000001
 40
0.511452139530669
 40
0.511452139530669
 40
0.511452139530669
 40
0.511452139530669
 40
0.5124521395534237
 40
0.5124521395534237
 40
0.5124521395534237
 40
0.5124521395534237
 10
-511.4521376830389
 20
-1.371541191022354
 30
0.0
 10
-511.7854710164816
 20
-1.371470904238939
 30
0.0
 10
-512.1188043498158
 20
-1.371400101534836
 30
0.0
 10
-512.4521376830387
 20
-1.371328779834379
 30
0.0
  0
LINE
  5
A2
330
1F
100
AcDbEntity
  8
0
  6
Continuous
 62
     7
370
    25
100
AcDbLine
 10
-511.452137683
 20
-1.5769363105
 30
0.0
 11
-511.452137683
 21
-1.371541191
 31
0.0
  0
LINE
  5
A3
330
1F
100
AcDbEntity
  8
0
  6
Continuous
 62
     7
370
    25
100
AcDbLine
 10
-512.452137683
 20
-1.5769363105
 30
0.0
 11
-511.452137683
 21
-1.5769363105
 31
0.0
  0
LINE
  5
A4
330
1F
100
AcDbEntity
  8
0
  6
Continuous
 62
     7
370
    25
100
AcDbLine
 10
-512.452137683
 20
-1.3713287798
 30
0.0
 11
-512.452137683
 21
-1.5769363105
 31
0.0
  0
LINE
  5
A5
330
1F
100
AcDbEntity
  8
0
  6
Continuous
 62
     7
370
    25
100
AcDbLine
 10
-408.0000000003
 20
2.4083250736
 30
0.0
 11
-406.0000000003
 21
2.4083250736
 31
0.0
  0
LINE
  5
A6
330
1F
100
AcDbEntity
  8
0
  6
Continuous
 62
     7
370
    25
100
AcDbLine
 10
-408.0000000003
 20
5.4083250736
 30
0.0
 11
-408.0000000003
 21
2.4083250736
 31
0.0
  0
LINE
  5
A7
330
1F
100
AcDbEntity
  8
0
  6
Continuous
 62
     7
370
    25
100
AcDbLine
 10
-406.0000000003
 20
5.4083250736
 30
0.0
 11
-408.0000000003
 21
5.4083250736
 31
0.0
  0
LINE
  5
A8
330
1F
100
AcDbEntity
  8
0
  6
Continuous
 62
     7
370
    25
100
AcDbLine
 10
-406.0000000003
 20
2.4083250736
 30
0.0
 11
-406.0000000003
 21
5.4083250736
 31
0.0
  0
LINE
  5
A9
330
1F
100
AcDbEntity
  8
0
  6
Continuous
 62
     7
370
    25
100
AcDbLine
 10
-338.0000000003
 20
5.4083250736
 30
0.0
 11
-340.0000000003
 21
5.4083250736
 31
0.0
  0
LINE
  5
AA
330
1F
100
AcDbEntity
  8
0
  6
Continuous
 62
     7
370
    25
100
AcDbLine
 10
-338.0000000003
 20
2.4083250736
 30
0.0
 11
-338.0000000003
 21
5.4083250736
 31
0.0
  0
LINE
  5
AB
330
1F
100
AcDbEntity
  8
0
  6
Continuous
 62
     7
370
    25
100
AcDbLine
 10
-340.0000000003
 20
2.4083250736
 30
0.0
 11
-338.0000000003
 21
2.4083250736
 31
0.0
  0
LINE
  5
AC
330
1F
100
AcDbEntity
  8
0
  6
Continuous
 62
     7
370
    25
100
AcDbLine
 10
-340.0000000003
 20
5.4083250736
 30
0.0
 11
-340.0000000003
 21
2.4083250736
 31
0.0
  0
LINE
  5
AD
330
1F
100
AcDbEntity
  8
0
  6
Continuous
 62
     7
370
    25
100
AcDbLine
 10
-474.0000000003
 20
5.4083250736
 30
0.0
 11
-476.0000000003
 21
5.4083250736
 31
0.0
  0
LINE
  5
AE
330
1F
100
AcDbEntity
  8
0
  6
Continuous
 62
     7
370
    25
100
AcDbLine
 10
-474.0000000003
 20
2.4083250736
 30
0.0
 11
-474.0000000003
 21
5.4083250736
 31
0.0
  0
LINE
  5
AF
330
1F
100
AcDbEntity
  8
0
  6
Continuous
 62
     7
370
    25
100
AcDbLine
 10
-476.0000000003
 20
2.4083250736
 30
0.0
 11
-474.0000000003
 21
2.4083250736
 31
0.0
  0
LINE
  5
B0
330
1F
100
AcDbEntity
  8
0
  6
Continuous
 62
     7
370
    25
100
AcDbLine
 10
-476.0000000003
 20
5.4083250736
 30
0.0
 11
-476.0000000003
 21
2.4083250736
 31
0.0
  0
ENDSEC
  0
SECTION
  2
OBJECTS
  0
DICTIONARY
  5
C
330
0
100
AcDbDictionary
281
     1
  3
ACAD_GROUP
350
D
  3
ACAD_LAYOUT
350
1A
  3
ACAD_MLINESTYLE
350
17
  3
ACAD_PLOTSETTINGS
350
19
  3
ACAD_PLOTSTYLENAME
350
E
  3
ACAD_SCALELIST
350
47
  3
DWGPROPS
350
B1
  0
DICTIONARY
  5
D
102
{ACAD_REACTORS
330
C
102
}
330
C
100
AcDbDictionary
281
     1
  0
DICTIONARY
  5
1A
102
{ACAD_REACTORS
330
C
102
}
330
C
100
AcDbDictionary
281
     1
  3
Layout1
350
1E
  3
Layout2
350
26
  3
Model
350
22
  0
DICTIONARY
  5
17
102
{ACAD_REACTORS
330
C
102
}
330
C
100
AcDbDictionary
281
     1
  3
Standard
350
18
  0
DICTIONARY
  5
19
102
{ACAD_REACTORS
330
C
102
}
330
C
100
AcDbDictionary
281
     1
  0
ACDBDICTIONARYWDFLT
  5
E
102
{ACAD_REACTORS
330
C
102
}
330
C
100
AcDbDictionary
281
     1
  3
Normal
350
F
100
AcDbDictionaryWithDefault
340
F
  0
DICTIONARY
  5
47
102
{ACAD_REACTORS
330
C
102
}
330
C
100
AcDbDictionary
281
     1
  3
A0
350
48
  3
A1
350
49
  3
A2
350
4A
  3
A3
350
4B
  3
A4
350
4C
  3
A5
350
4D
  3
A6
350
4E
  3
A7
350
4F
  3
A8
350
50
  3
A9
350
51
  3
B0
350
52
  3
B1
350
53
  3
B2
350
54
  3
B3
350
55
  3
B4
350
56
  3
B5
350
57
  3
B6
350
58
  0
XRECORD
  5
B1
102
{ACAD_REACTORS
330
C
102
}
330
C
100
AcDbXrecord
280
     1
  1
DWGPROPS COOKIE
  2

  3

  4

  6

  7

  8
CX_in_command
  9

300
=
301
=
302
=
303
=
304
=
305
=
306
=
307
=
308
=
309
=
 40
0.0
 41
2461081.394610556
 42
2461081.394702176
  1

 90
        0
  0
LAYOUT
  5
1E
102
{ACAD_REACTORS
330
1A
102
}
330
1A
100
AcDbPlotSettings
  1

  2
none_device
  4

  6

 40
0.0
 41
0.0
 42
0.0
 43
0.0
 44
0.0
 45
0.0
 46
0.0
 47
0.0
 48
0.0
 49
0.0
140
0.0
141
0.0
142
1.0
143
1.0
 70
   688
 72
     1
 73
     0
 74
     5
  7

 75
    16
147
1.0
148
0.0
149
0.0
100
AcDbLayout
  1
Layout1
 70
     1
 71
     1
 10
0.0
 20
0.0
 11
420.0
 21
297.0
 12
0.0
 22
0.0
 32
0.0
 14
1.0000000000E+20
 24
1.0000000000E+20
 34
1.0000000000E+20
 15
-1.0000000000E+20
 25
-1.0000000000E+20
 35
-1.0000000000E+20
146
0.0
 13
0.0
 23
0.0
 33
0.0
 16
1.0
 26
0.0
 36
0.0
 17
0.0
 27
1.0
 37
0.0
 76
     0
330
1B
  0
LAYOUT
  5
26
102
{ACAD_REACTORS
330
1A
102
}
330
1A
100
AcDbPlotSettings
  1

  2
none_device
  4

  6

 40
0.0
 41
0.0
 42
0.0
 43
0.0
 44
0.0
 45
0.0
 46
0.0
 47
0.0
 48
0.0
 49
0.0
140
0.0
141
0.0
142
1.0
143
1.0
 70
   688
 72
     1
 73
     0
 74
     5
  7

 75
    16
147
1.0
148
0.0
149
0.0
100
AcDbLayout
  1
Layout2
 70
     1
 71
     2
 10
0.0
 20
0.0
 11
0.0
 21
0.0
 12
0.0
 22
0.0
 32
0.0
 14
0.0
 24
0.0
 34
0.0
 15
0.0
 25
0.0
 35
0.0
146
0.0
 13
0.0
 23
0.0
 33
0.0
 16
1.0
 26
0.0
 36
0.0
 17
0.0
 27
1.0
 37
0.0
 76
     0
330
23
  0
LAYOUT
  5
22
102
{ACAD_REACTORS
330
1A
102
}
330
1A
100
AcDbPlotSettings
  1

  2
none_device
  4
ANSI_A_(11.00_x_8.50_Inches)
  6

 40
6.35
 41
19.05
 42
6.35000508
 43
19.05000254
 44
279.4
 45
215.9
 46
621.9400716954
 47
90.4904774328
 48
0.0
 49
0.0
140
0.0
141
0.0
142
0.0475545852
143
1.0
 70
  1696
 72
     0
 73
     0
 74
     0
  7

 75
     0
147
0.0179189148
148
-1300.4909072572
149
0.0
100
AcDbLayout
  1
Model
 70
     1
 71
     0
 10
0.0
 20
0.0
 11
420.0
 21
297.0
 12
0.0
 22
0.0
 32
0.0
 14
-519.0000000003
 24
-10.0
 34
0.0
 15
-290.0
 25
7.3665095989
 35
0.0
146
0.0
 13
0.0
 23
0.0
 33
0.0
 16
1.0
 26
0.0
 36
0.0
 17
0.0
 27
1.0
 37
0.0
 76
     0
330
1F
331
29
  0
MLINESTYLE
  5
18
102
{ACAD_REACTORS
330
17
102
}
330
17
100
AcDbMlineStyle
  2
Standard
 70
     0
  3

 62
   256
 51
90.0
 52
90.0
 71
     2
 49
0.5
 62
   256
  6
BYLAYER
 49
-0.5
 62
   256
  6
BYLAYER
  0
ACDBPLACEHOLDER
  5
F
102
{ACAD_REACTORS
330
E
102
}
330
E
  0
SCALE
  5
48
102
{ACAD_REACTORS
330
47
102
}
330
47
100
AcDbScale
 70
     0
300
1:1
140
1.0
141
1.0
290
     1
  0
SCALE
  5
49
102
{ACAD_REACTORS
330
47
102
}
330
47
100
AcDbScale
 70
     0
300
1:2
140
1.0
141
2.0
290
     0
  0
SCALE
  5
4A
102
{ACAD_REACTORS
330
47
102
}
330
47
100
AcDbScale
 70
     0
300
1:4
140
1.0
141
4.0
290
     0
  0
SCALE
  5
4B
102
{ACAD_REACTORS
330
47
102
}
330
47
100
AcDbScale
 70
     0
300
1:5
140
1.0
141
5.0
290
     0
  0
SCALE
  5
4C
102
{ACAD_REACTORS
330
47
102
}
330
47
100
AcDbScale
 70
     0
300
1:8
140
1.0
141
8.0
290
     0
  0
SCALE
  5
4D
102
{ACAD_REACTORS
330
47
102
}
330
47
100
AcDbScale
 70
     0
300
1:10
140
1.0
141
10.0
290
     0
  0
SCALE
  5
4E
102
{ACAD_REACTORS
330
47
102
}
330
47
100
AcDbScale
 70
     0
300
1:16
140
1.0
141
16.0
290
     0
  0
SCALE
  5
4F
102
{ACAD_REACTORS
330
47
102
}
330
47
100
AcDbScale
 70
     0
300
1:20
140
1.0
141
20.0
290
     0
  0
SCALE
  5
50
102
{ACAD_REACTORS
330
47
102
}
330
47
100
AcDbScale
 70
     0
300
1:30
140
1.0
141
30.0
290
     0
  0
SCALE
  5
51
102
{ACAD_REACTORS
330
47
102
}
330
47
100
AcDbScale
 70
     0
300
1:40
140
1.0
141
40.0
290
     0
  0
SCALE
  5
52
102
{ACAD_REACTORS
330
47
102
}
330
47
100
AcDbScale
 70
     0
300
1:50
140
1.0
141
50.0
290
     0
  0
SCALE
  5
53
102
{ACAD_REACTORS
330
47
102
}
330
47
100
AcDbScale
 70
     0
300
1:100
140
1.0
141
100.0
290
     0
  0
SCALE
  5
54
102
{ACAD_REACTORS
330
47
102
}
330
47
100
AcDbScale
 70
     0
300
2:1
140
2.0
141
1.0
290
     0
  0
SCALE
  5
55
102
{ACAD_REACTORS
330
47
102
}
330
47
100
AcDbScale
 70
     0
300
4:1
140
4.0
141
1.0
290
     0
  0
SCALE
  5
56
102
{ACAD_REACTORS
330
47
102
}
330
47
100
AcDbScale
 70
     0
300
8:1
140
8.0
141
1.0
290
     0
  0
SCALE
  5
57
102
{ACAD_REACTORS
330
47
102
}
330
47
100
AcDbScale
 70
     0
300
10:1
140
10.0
141
1.0
290
     0
  0
SCALE
  5
58
102
{ACAD_REACTORS
330
47
102
}
330
47
100
AcDbScale
 70
     0
300
100:1
140
100.0
141
1.0
290
     0
  0
ENDSEC
  0
EOF
