ISO-10303-21;
HEADER;
FILE_DESCRIPTION (( 'STEP AP214' ),
    '1' );
FILE_NAME ('raw_垂直尾翼_高度为59_3D打印版.STEP',
    '2026-02-27T11:07:10',
    ( '' ),
    ( '' ),
    'SwSTEP 2.0',
    'SolidWorks 2024',
    '' );
FILE_SCHEMA (( 'AUTOMOTIVE_DESIGN' ));
ENDSEC;

DATA;
#1 = CARTESIAN_POINT ( 'NONE',  ( 56.99999999999999289, 89.86108712221887629, 1.144036077070872404 ) ) ;
#2 = CARTESIAN_POINT ( 'NONE',  ( -4.000000000000000000, 0.000000000000000000, 0.000000000000000000 ) ) ;
#3 = CARTESIAN_POINT ( 'NONE',  ( 100.0000000000000000, 93.79141501860203789, -0.7500000000000294209 ) ) ;
#4 = CARTESIAN_POINT ( 'NONE',  ( 0.000000000000000000, 114.2400593234409740, 0.02181412338303757512 ) ) ;
#5 = VECTOR ( 'NONE', #684, 1000.000000000000000 ) ;
#6 = CARTESIAN_POINT ( 'NONE',  ( 0.000000000000000000, 60.20000000000094076, 1.566736341210273498 ) ) ;
#7 = CARTESIAN_POINT ( 'NONE',  ( 0.000000000000000000, 0.000000000000000000, 0.000000000000000000 ) ) ;
#8 = ADVANCED_FACE ( 'NONE', ( #415 ), #185, .F. ) ;
#9 = CARTESIAN_POINT ( 'NONE',  ( 0.000000000000000000, 101.9943740009573787, 1.219283116900446551 ) ) ;
#10 = MANIFOLD_SOLID_BREP ( '切除-拉伸3', #515 ) ;
#11 = CARTESIAN_POINT ( 'NONE',  ( -4.000000000000000000, 93.79141501860691221, -1.818517355353290510 ) ) ;
#12 = ORIENTED_EDGE ( 'NONE', *, *, #594, .F. ) ;
#13 = CARTESIAN_POINT ( 'NONE',  ( 0.000000000000000000, 89.45183628473625959, 2.106592050766330271 ) ) ;
#14 = CARTESIAN_POINT ( 'NONE',  ( 52.25087517513422597, 93.79141501860203789, 1.393535088683538481 ) ) ;
#15 = COLOUR_RGB ( '',0.7921568627450980005, 0.8196078431372548767, 0.9333333333333333481 ) ;
#16 = DIRECTION ( 'NONE',  ( 1.000000000000000000, 0.000000000000000000, 0.000000000000000000 ) ) ;
#17 = VERTEX_POINT ( 'NONE', #274 ) ;
#18 = CARTESIAN_POINT ( 'NONE',  ( 0.000000000000000000, 58.15708310700635053, 0.9496346594291987797 ) ) ;
#19 = DIRECTION ( 'NONE',  ( 0.000000000000000000, 0.000000000000000000, 1.000000000000000000 ) ) ;
#20 = ORIENTED_EDGE ( 'NONE', *, *, #51, .T. ) ;
#21 = CARTESIAN_POINT ( 'NONE',  ( 0.000000000000000000, 57.20939382904951032, -0.09329362113221027764 ) ) ;
#22 = CARTESIAN_POINT ( 'NONE',  ( 47.50123808680758941, 93.79141501860200947, -1.471928755720963267 ) ) ;
#23 = ORIENTED_EDGE ( 'NONE', *, *, #272, .T. ) ;
#24 = CARTESIAN_POINT ( 'NONE',  ( 0.000000000000000000, 114.4000000000000341, 6.456508640445904335E-16 ) ) ;
#25 = LINE ( 'NONE', #228, #312 ) ;
#26 = VECTOR ( 'NONE', #536, 1000.000000000000000 ) ;
#27 = EDGE_LOOP ( 'NONE', ( #337, #342, #533, #420 ) ) ;
#28 = AXIS2_PLACEMENT_3D ( 'NONE', #300, #576, #517 ) ;
#29 = CARTESIAN_POINT ( 'NONE',  ( 0.000000000000000000, 58.74664169081803777, 1.186669108497411473 ) ) ;
#30 = VERTEX_POINT ( 'NONE', #250 ) ;
#31 = ADVANCED_FACE ( 'NONE', ( #215 ), #226, .F. ) ;
#32 = CARTESIAN_POINT ( 'NONE',  ( 57.00000000000002132, 87.29117462928292071, 0.7843463781994682860 ) ) ;
#33 = EDGE_LOOP ( 'NONE', ( #154, #198, #285, #407 ) ) ;
#34 = CARTESIAN_POINT ( 'NONE',  ( -4.000000000000000000, 0.000000000000000000, -1.818517355353290510 ) ) ;
#35 = VERTEX_POINT ( 'NONE', #439 ) ;
#36 = CARTESIAN_POINT ( 'NONE',  ( 57.00000000000000711, 85.91549717264715014, 0.2175530099466150835 ) ) ;
#37 = ORIENTED_EDGE ( 'NONE', *, *, #187, .T. ) ;
#38 = CARTESIAN_POINT ( 'NONE',  ( 57.00000000000001421, 108.1971870004787064, -0.6096415584502202778 ) ) ;
#39 = CARTESIAN_POINT ( 'NONE',  ( 0.000000000000000000, 61.08153161862608727, -1.742779354700445094 ) ) ;
#40 = CARTESIAN_POINT ( 'NONE',  ( -8.000000000000000000, 57.27974128041971369, 0.2509377449305955632 ) ) ;
#41 = AXIS2_PLACEMENT_3D ( 'NONE', #134, #509, #402 ) ;
#42 = CARTESIAN_POINT ( 'NONE',  ( 0.000000000000000000, 57.19692957501295183, 4.183955853390057370E-15 ) ) ;
#43 = APPLICATION_CONTEXT ( 'automotive_design' ) ;
#44 = CARTESIAN_POINT ( 'NONE',  ( -2.000000000000001776, 93.79141501860203789, 0.000000000000000000 ) ) ;
#45 = FILL_AREA_STYLE_COLOUR ( '', #15 ) ;
#46 = B_SPLINE_CURVE_WITH_KNOTS ( 'NONE', 3,
 ( #188, #620, #125, #341 ),
 .UNSPECIFIED., .F., .F.,
 ( 4, 4 ),
 ( 0.000000000000000000, 1.000000000000000000 ),
 .UNSPECIFIED. ) ;
#47 = CARTESIAN_POINT ( 'NONE',  ( 0.000000000000000000, 58.74664169081803777, 1.186669108497411473 ) ) ;
#48 = CARTESIAN_POINT ( 'NONE',  ( 57.00000000000000000, 86.90427034561851372, 0.6931410392225627604 ) ) ;
#49 = CARTESIAN_POINT ( 'NONE',  ( 0.000000000000000000, 57.27974128041971369, 0.2509377449305955632 ) ) ;
#50 = CARTESIAN_POINT ( 'NONE',  ( 57.00000000000000711, 87.29117462928296334, -0.7843463781994648443 ) ) ;
#51 = EDGE_CURVE ( 'NONE', #399, #189, #64, .T. ) ;
#52 = CARTESIAN_POINT ( 'NONE',  ( -4.000000000000000000, 93.79141501860694063, 0.7499999999999983347 ) ) ;
#53 = CARTESIAN_POINT ( 'NONE',  ( -4.000000000000000000, 93.79141501860203789, 1.818517355353285403 ) ) ;
#54 = CARTESIAN_POINT ( 'NONE',  ( 57.00000000000001421, 85.83987064020986679, -0.1254688724652829879 ) ) ;
#55 = VECTOR ( 'NONE', #117, 1000.000000000000000 ) ;
#56 = FACE_OUTER_BOUND ( 'NONE', #27, .T. ) ;
#57 = EDGE_CURVE ( 'NONE', #351, #189, #224, .T. ) ;
#58 = CARTESIAN_POINT ( 'NONE',  ( -2.032879073410326977E-16, 99.79141501860203789, -0.7500000000000023315 ) ) ;
#59 = CARTESIAN_POINT ( 'NONE',  ( 19.00095191237856795, 93.79141501860199526, 1.735687498050934696 ) ) ;
#60 = CARTESIAN_POINT ( 'NONE',  ( -4.000000000000000000, 93.79141501860203789, 0.000000000000000000 ) ) ;
#61 = CARTESIAN_POINT ( 'NONE',  ( 0.000000000000000000, 114.4000000000000341, 6.456508640445904335E-16 ) ) ;
#62 = FACE_OUTER_BOUND ( 'NONE', #362, .T. ) ;
#63 = AXIS2_PLACEMENT_3D ( 'NONE', #72, #608, #19 ) ;
#64 = LINE ( 'NONE', #434, #269 ) ;
#65 = CARTESIAN_POINT ( 'NONE',  ( 0.000000000000000000, 114.4000000000000341, 0.003641916214996554230 ) ) ;
#66 = CARTESIAN_POINT ( 'NONE',  ( 0.000000000000000000, 65.32217424443767584, 2.288072154141744807 ) ) ;
#67 = ORIENTED_EDGE ( 'NONE', *, *, #506, .F. ) ;
#68 = PLANE ( 'NONE',  #474 ) ;
#69 = CARTESIAN_POINT ( 'NONE',  ( 0.000000000000000000, 73.16863966673285802, 2.579814788555728100 ) ) ;
#70 = ORIENTED_EDGE ( 'NONE', *, *, #340, .F. ) ;
#71 = CARTESIAN_POINT ( 'NONE',  ( -8.000000000000000000, 60.18307210819670416, -1.563119600448583224 ) ) ;
#72 = CARTESIAN_POINT ( 'NONE',  ( -2.000000000000000000, 99.79141501860203789, 0.000000000000000000 ) ) ;
#73 = ORIENTED_EDGE ( 'NONE', *, *, #543, .F. ) ;
#74 = CARTESIAN_POINT ( 'NONE',  ( 0.000000000000000000, 93.79141501860203789, -1.818517355353290510 ) ) ;
#75 = ADVANCED_BREP_SHAPE_REPRESENTATION ( 'raw_\X2\578276f45c3e7ffc\X0\_\X2\9ad85ea64e3a\X0\59_3D\X2\625353707248\X0\', ( #10, #574 ), #676 ) ;
#76 = CARTESIAN_POINT ( 'NONE',  ( -2.000000000000000000, 93.79141501860203789, 0.7499999999999983347 ) ) ;
#77 = VERTEX_POINT ( 'NONE', #53 ) ;
#78 = DIRECTION ( 'NONE',  ( -1.000000000000000000, 0.000000000000000000, 0.000000000000000000 ) ) ;
#79 = CARTESIAN_POINT ( 'NONE',  ( 45.12633517278216289, 93.79141501860198105, -1.504104941936239781 ) ) ;
#80 = ORIENTED_EDGE ( 'NONE', *, *, #375, .F. ) ;
#81 = LINE ( 'NONE', #565, #344 ) ;
#82 = VERTEX_POINT ( 'NONE', #495 ) ;
#83 = PLANE ( 'NONE',  #166 ) ;
#84 = ORIENTED_EDGE ( 'NONE', *, *, #595, .T. ) ;
#85 = CARTESIAN_POINT ( 'NONE',  ( 0.000000000000000000, 58.74664169081804488, -1.186669108497419023 ) ) ;
#86 = CARTESIAN_POINT ( 'NONE',  ( 57.00000000000002842, 91.44341688034556626, 1.237574119095880887 ) ) ;
#87 = CARTESIAN_POINT ( 'NONE',  ( 0.000000000000000000, 58.15708310700636474, -0.9496346594292004450 ) ) ;
#88 = CARTESIAN_POINT ( 'NONE',  ( 57.00000000000000000, 86.27854155350317455, -0.4748173297146002225 ) ) ;
#89 = ORIENTED_EDGE ( 'NONE', *, *, #171, .T. ) ;
#90 = CARTESIAN_POINT ( 'NONE',  ( 0.000000000000000000, 65.32217424443763321, -2.288072154141740366 ) ) ;
#91 = ADVANCED_FACE ( 'NONE', ( #442 ), #658, .T. ) ;
#92 = CARTESIAN_POINT ( 'NONE',  ( -8.000000000000000000, 59.40854069123694359, 1.386282078445125521 ) ) ;
#93 = CARTESIAN_POINT ( 'NONE',  ( 56.99999999999997868, 93.78431983336641053, -1.289907394277862052 ) ) ;
#94 = CARTESIAN_POINT ( 'NONE',  ( -4.000000000000000000, 91.79141501860203789, -1.818517355353290510 ) ) ;
#95 = CARTESIAN_POINT ( 'NONE',  ( 0.000000000000000000, 57.27974128041968527, -0.2509377449305659757 ) ) ;
#96 = VECTOR ( 'NONE', #603, 1000.000000000000000 ) ;
#97 = CARTESIAN_POINT ( 'NONE',  ( 0.000000000000000000, 57.27974128041968527, -0.2509377449305659757 ) ) ;
#98 = DIRECTION ( 'NONE',  ( -1.000000000000000000, 0.000000000000000000, -0.000000000000000000 ) ) ;
#99 = CARTESIAN_POINT ( 'NONE',  ( -8.000000000000000000, 57.20939382904949611, 0.09329362113219778763 ) ) ;
#100 = CARTESIAN_POINT ( 'NONE',  ( 57.00000000000000711, 105.4495602354303116, -0.8231470674367298290 ) ) ;
#101 = DIRECTION ( 'NONE',  ( 0.000000000000000000, -1.000000000000000000, 0.000000000000000000 ) ) ;
#102 = LINE ( 'NONE', #320, #26 ) ;
#103 = CARTESIAN_POINT ( 'NONE',  ( 0.000000000000000000, 82.15498891674479864, -2.457087677333291253 ) ) ;
#104 = EDGE_CURVE ( 'NONE', #204, #520, #102, .T. ) ;
#105 = CARTESIAN_POINT ( 'NONE',  ( 0.000000000000000000, 93.79141501860203789, -1.818517355353290510 ) ) ;
#106 = UNCERTAINTY_MEASURE_WITH_UNIT (LENGTH_MEASURE( 1.000000000000000082E-05 ), #169, 'distance_accuracy_value', 'NONE');
#107 = FACE_OUTER_BOUND ( 'NONE', #558, .T. ) ;
#108 = CARTESIAN_POINT ( 'NONE',  ( 57.00000000000000000, 114.3200296617204970, 0.01090706169151878756 ) ) ;
#109 = VECTOR ( 'NONE', #267, 1000.000000000000000 ) ;
#110 = LINE ( 'NONE', #319, #503 ) ;
#111 = DIRECTION ( 'NONE',  ( 0.000000000000000000, 1.000000000000000000, -0.000000000000000000 ) ) ;
#112 = CARTESIAN_POINT ( 'NONE',  ( 0.000000000000000000, 109.8743260560344623, 0.5180549229206329320 ) ) ;
#113 = EDGE_CURVE ( 'NONE', #303, #368, #430, .T. ) ;
#114 = CARTESIAN_POINT ( 'NONE',  ( 57.00000000000001421, 93.79141501860203789, 1.288263528805132063 ) ) ;
#115 = CARTESIAN_POINT ( 'NONE',  ( 0.000000000000000000, 82.15498891674469917, 2.457087677333289477 ) ) ;
#116 = VECTOR ( 'NONE', #706, 1000.000000000000000 ) ;
#117 = DIRECTION ( 'NONE',  ( 1.000000000000000000, 0.000000000000000000, 0.000000000000000000 ) ) ;
#118 = EDGE_CURVE ( 'NONE', #144, #30, #490, .T. ) ;
#119 = CARTESIAN_POINT ( 'NONE',  ( 56.99999999999998579, 114.3529076726171780, 0.005462209163858250741 ) ) ;
#120 = CARTESIAN_POINT ( 'NONE',  ( 0.000000000000000000, 93.12474835193538070, -1.818517355353290510 ) ) ;
#121 = CARTESIAN_POINT ( 'NONE',  ( 0.000000000000000000, 62.86791887593202688, 2.031756323656639829 ) ) ;
#122 = EDGE_LOOP ( 'NONE', ( #458, #573, #67, #514, #452, #469 ) ) ;
#123 = APPLICATION_PROTOCOL_DEFINITION ( 'draft international standard', 'automotive_design', 1998, #43 ) ;
#124 = CARTESIAN_POINT ( 'NONE',  ( 33.25140021541945146, 93.79141501860205210, 1.630504084367775386 ) ) ;
#125 = CARTESIAN_POINT ( 'NONE',  ( 0.000000000000000000, 93.12474835193538070, 1.818517355353285403 ) ) ;
#126 = B_SPLINE_CURVE_WITH_KNOTS ( 'NONE', 3,
 ( #244, #462, #671, #183, #398, #308, #199, #207, #466, #586, #682, #475, #623, #255, #316, #583, #689, #532, #478, #36, #414, #194, #138, #48, #32, #252, #410, #528, #86, #352, #421, #203, #626 ),
 .UNSPECIFIED., .F., .F.,
 ( 4, 1, 1, 1, 1, 1, 1, 1, 1, 1, 1, 1, 1, 1, 1, 1, 1, 1, 1, 1, 1, 1, 1, 1, 1, 1, 1, 1, 1, 1, 4 ),
 ( 0.3568832760280735150, 0.3571600371922799000, 0.3714199826116368341, 0.3983011853396918323, 0.4226408623628321592, 0.4535558300378262908, 0.4622064381325312610, 0.4699758292560523021, 0.4768369111307219077, 0.4828001052516183167, 0.4878773144099959325, 0.4932760371352737927, 0.4955686493955878680, 0.4981799263512654008, 0.4994050988601218544, 0.5000000000000000000, 0.5005949011398781456, 0.5018200736487344882, 0.5044313506044121320, 0.5067239628647260963, 0.5121226855900040675, 0.5171998947483816833, 0.5231630888692780923, 0.5300241707439475869, 0.5377935618674686280, 0.5464441699621739312, 0.5773591376371679518, 0.6016988146603082788, 0.6285800173883631103, 0.6428399628077200445, 0.6431167239719259854 ),
 .UNSPECIFIED. ) ;
#127 = VERTEX_POINT ( 'NONE', #114 ) ;
#128 = PRODUCT_CONTEXT ( 'NONE', #440, 'mechanical' ) ;
#129 = LINE ( 'NONE', #34, #5 ) ;
#130 = AXIS2_PLACEMENT_3D ( 'NONE', #161, #168, #656 ) ;
#131 = CARTESIAN_POINT ( 'NONE',  ( 57.00000000000001421, 93.79141501860203789, -1.288263528805131397 ) ) ;
#132 = ORIENTED_EDGE ( 'NONE', *, *, #615, .F. ) ;
#133 = CARTESIAN_POINT ( 'NONE',  ( -8.000000000000000000, 60.18307210819643416, 1.563119600448522828 ) ) ;
#134 = CARTESIAN_POINT ( 'NONE',  ( 0.000000000000000000, 57.20000000000001705, 8.576836266292388291E-15 ) ) ;
#135 = EDGE_LOOP ( 'NONE', ( #84, #686, #12, #555 ) ) ;
#136 = CARTESIAN_POINT ( 'NONE',  ( 0.000000000000000000, 57.19692957501295183, 4.183955853390057370E-15 ) ) ;
#137 = ORIENTED_EDGE ( 'NONE', *, *, #506, .T. ) ;
#138 = CARTESIAN_POINT ( 'NONE',  ( 57.00000000000000000, 86.57332084540905726, 0.5933345542487057367 ) ) ;
#139 = EDGE_LOOP ( 'NONE', ( #353, #692, #569, #681, #403, #137, #609, #563, #132, #683 ) ) ;
#140 = DIRECTION ( 'NONE',  ( 1.000000000000000000, -0.000000000000000000, -0.000000000000000000 ) ) ;
#141 = CARTESIAN_POINT ( 'NONE',  ( 0.000000000000000000, 60.20000000000048601, 7.198708458309391188E-12 ) ) ;
#142 = CARTESIAN_POINT ( 'NONE',  ( -8.000000000000000000, 58.74664169081804488, -1.186669108497419023 ) ) ;
#143 = DIRECTION ( 'NONE',  ( 0.000000000000000000, 1.000000000000000000, 0.000000000000000000 ) ) ;
#144 = VERTEX_POINT ( 'NONE', #324 ) ;
#145 = FACE_OUTER_BOUND ( 'NONE', #229, .T. ) ;
#146 = CARTESIAN_POINT ( 'NONE',  ( -8.000000000000000000, 57.20939382904951032, -0.09329362113221027764 ) ) ;
#147 = CARTESIAN_POINT ( 'NONE',  ( 57.00000000000000711, 85.80469691452475445, 0.04664681056609889381 ) ) ;
#148 = EDGE_LOOP ( 'NONE', ( #664, #23, #502, #73 ) ) ;
#149 = CARTESIAN_POINT ( 'NONE',  ( 0.000000000000000000, 71.01290590975678185, -2.551122118908167202 ) ) ;
#150 = CARTESIAN_POINT ( 'NONE',  ( 0.000000000000000000, 57.19692957501295183, 4.183955853390057370E-15 ) ) ;
#151 = CARTESIAN_POINT ( 'NONE',  ( 56.99999999999997868, 86.90427034561849950, -0.6931410392225626493 ) ) ;
#152 = ORIENTED_EDGE ( 'NONE', *, *, #635, .F. ) ;
#153 = DIRECTION ( 'NONE',  ( 0.000000000000000000, 0.000000000000000000, 1.000000000000000000 ) ) ;
#154 = ORIENTED_EDGE ( 'NONE', *, *, #364, .T. ) ;
#155 = CARTESIAN_POINT ( 'NONE',  ( 57.00000000000000000, 86.06488619119221539, -0.3494050252569170789 ) ) ;
#156 = DIRECTION ( 'NONE',  ( 0.000000000000000000, 0.000000000000000000, 1.000000000000000000 ) ) ;
#157 = CARTESIAN_POINT ( 'NONE',  ( -8.000000000000000000, 57.72977238238442510, 0.6988100505138574725 ) ) ;
#158 = ADVANCED_FACE ( 'NONE', ( #62 ), #435, .T. ) ;
#159 = CARTESIAN_POINT ( 'NONE',  ( 0.000000000000000000, 109.8743260560345334, -0.5180549229206303785 ) ) ;
#160 = CARTESIAN_POINT ( 'NONE',  ( -8.000000000000000000, 58.74664169081804488, -1.186669108497419023 ) ) ;
#161 = CARTESIAN_POINT ( 'NONE',  ( -8.000000000000000000, 0.000000000000000000, 0.000000000000000000 ) ) ;
#162 = CARTESIAN_POINT ( 'NONE',  ( 0.000000000000000000, 101.9943740009573645, -1.219283116900440556 ) ) ;
#163 = CARTESIAN_POINT ( 'NONE',  ( 0.000000000000000000, 91.79141501860203789, -1.818517355353290510 ) ) ;
#164 = DIRECTION ( 'NONE',  ( 2.710505431213761085E-16, -0.000000000000000000, 1.000000000000000000 ) ) ;
#165 = CARTESIAN_POINT ( 'NONE',  ( 0.000000000000000000, 112.3400248539854829, 0.2550972348591897254 ) ) ;
#166 = AXIS2_PLACEMENT_3D ( 'NONE', #369, #311, #98 ) ;
#167 = ADVANCED_FACE ( 'NONE', ( #107 ), #540, .T. ) ;
#168 = DIRECTION ( 'NONE',  ( -1.000000000000000000, 0.000000000000000000, 0.000000000000000000 ) ) ;
#169 =( LENGTH_UNIT ( ) NAMED_UNIT ( * ) SI_UNIT ( .MILLI., .METRE. ) );
#170 = CARTESIAN_POINT ( 'NONE',  ( 56.99999999999995737, 112.1371630280172980, 0.2590274614603164660 ) ) ;
#171 = EDGE_CURVE ( 'NONE', #144, #368, #598, .T. ) ;
#172 = CARTESIAN_POINT ( 'NONE',  ( 9.500469330446758676, 93.79141501860117103, -1.780599205376879546 ) ) ;
#173 = CARTESIAN_POINT ( 'NONE',  ( 57.00000000000000000, 114.2492227387113530, 0.01987857142996383303 ) ) ;
#174 = CARTESIAN_POINT ( 'NONE',  ( -8.000000000000000000, 57.27974128041971369, 0.2509377449305955632 ) ) ;
#175 = CARTESIAN_POINT ( 'NONE',  ( -0.000000000000000000, 91.79141501860203789, 0.7499999999999983347 ) ) ;
#176 = ORIENTED_EDGE ( 'NONE', *, *, #575, .T. ) ;
#177 = CARTESIAN_POINT ( 'NONE',  ( 57.00000000000000711, 110.5010049022752554, 0.4117400733266847190 ) ) ;
#178 = EDGE_CURVE ( 'NONE', #245, #181, #329, .T. ) ;
#179 = FACE_OUTER_BOUND ( 'NONE', #139, .T. ) ;
#180 = LINE ( 'NONE', #612, #200 ) ;
#181 = VERTEX_POINT ( 'NONE', #493 ) ;
#182 = CARTESIAN_POINT ( 'NONE',  ( 0.000000000000000000, 60.20000000000138130, -1.566736341210367200 ) ) ;
#183 = CARTESIAN_POINT ( 'NONE',  ( 57.00000000000000711, 92.70645295487840087, -1.275561059454083601 ) ) ;
#184 = ORIENTED_EDGE ( 'NONE', *, *, #272, .F. ) ;
#185 = B_SPLINE_SURFACE_WITH_KNOTS ( 'NONE', 3, 1, ( 
 ( #577, #366 ),
 ( #637, #427 ),
 ( #309, #633 ),
 ( #264, #628 ),
 ( #142, #253 ),
 ( #356, #87 ),
 ( #306, #479 ),
 ( #317, #261 ),
 ( #584, #95 ),
 ( #146, #360 ),
 ( #587, #150 ),
 ( #99, #581 ),
 ( #40, #49 ),
 ( #646, #571 ),
 ( #157, #418 ),
 ( #482, #518 ),
 ( #695, #698 ),
 ( #92, #313 ),
 ( #525, #257 ),
 ( #529, #476 ),
 ( #211, #690 ) ),
 .UNSPECIFIED., .F., .F., .F.,
 ( 4, 1, 1, 1, 1, 1, 1, 1, 1, 1, 1, 1, 1, 1, 1, 1, 1, 1, 4 ),
 ( 2, 2 ),
 ( 0.4695273041826280025, 0.4699758292560523021, 0.4768369111307219077, 0.4828001052516183167, 0.4878773144099959325, 0.4932760371352737927, 0.4955686493955878680, 0.4981799263512654008, 0.4994050988601218544, 0.5000000000000000000, 0.5005949011398781456, 0.5018200736487344882, 0.5044313506044121320, 0.5067239628647260963, 0.5121226855900040675, 0.5171998947483816833, 0.5231630888692780923, 0.5300241707439475869, 0.5304726958173675566 ),
 ( 0.000000000000000000, 1.000000000000000000 ),
 .UNSPECIFIED. ) ;
#186 = CARTESIAN_POINT ( 'NONE',  ( 0.000000000000000000, 57.27974128041971369, 0.2509377449305955632 ) ) ;
#187 = EDGE_CURVE ( 'NONE', #520, #17, #485, .T. ) ;
#188 = CARTESIAN_POINT ( 'NONE',  ( 0.000000000000000000, 91.79141501860203789, 1.818517354070896541 ) ) ;
#189 = VERTEX_POINT ( 'NONE', #566 ) ;
#190 = CARTESIAN_POINT ( 'NONE',  ( 0.000000000000000000, 59.40854069123692227, -1.386282078445125299 ) ) ;
#191 = PLANE ( 'NONE',  #28 ) ;
#192 = ORIENTED_EDGE ( 'NONE', *, *, #178, .T. ) ;
#193 = PLANE ( 'NONE',  #527 ) ;
#194 = CARTESIAN_POINT ( 'NONE',  ( 57.00000000000002132, 86.27854155350317455, 0.4748173297145993899 ) ) ;
#195 = ORIENTED_EDGE ( 'NONE', *, *, #594, .T. ) ;
#196 = EDGE_CURVE ( 'NONE', #181, #30, #180, .T. ) ;
#197 = CARTESIAN_POINT ( 'NONE',  ( -8.000000000000000000, 57.72977238238442510, 0.6988100505138574725 ) ) ;
#198 = ORIENTED_EDGE ( 'NONE', *, *, #118, .T. ) ;
#199 = CARTESIAN_POINT ( 'NONE',  ( 56.99999999999994316, 88.63395943796611220, -1.015878161828329906 ) ) ;
#200 = VECTOR ( 'NONE', #674, 1000.000000000000000 ) ;
#201 = VERTEX_POINT ( 'NONE', #554 ) ;
#202 = CARTESIAN_POINT ( 'NONE',  ( 56.99999999999999289, 86.06488619119224381, 0.3494050252569287363 ) ) ;
#203 = CARTESIAN_POINT ( 'NONE',  ( 57.00000000000000000, 93.78607484122002802, 1.288225531895736298 ) ) ;
#204 = VERTEX_POINT ( 'NONE', #294 ) ;
#205 = CARTESIAN_POINT ( 'NONE',  ( 57.00000000000000000, 86.57332084540905726, 0.5933345542487057367 ) ) ;
#206 = ORIENTED_EDGE ( 'NONE', *, *, #530, .F. ) ;
#207 = CARTESIAN_POINT ( 'NONE',  ( 57.00000000000001421, 87.73222134076884515, -0.8700074716660121110 ) ) ;
#208 = SURFACE_STYLE_FILL_AREA ( #642 ) ;
#209 = CARTESIAN_POINT ( 'NONE',  ( 57.00000000000001421, 87.73222134076884515, 0.8700074716660159968 ) ) ;
#210 = CARTESIAN_POINT ( 'NONE',  ( -8.000000000000000000, 58.15708310700636474, -0.9496346594292004450 ) ) ;
#211 = CARTESIAN_POINT ( 'NONE',  ( -8.000000000000000000, 60.20000000133114071, 1.566736341494477491 ) ) ;
#212 = STYLED_ITEM ( 'NONE', ( #280 ), #10 ) ;
#213 = CARTESIAN_POINT ( 'NONE',  ( 0.000000000000000000, 57.20939382904951032, -0.09329362113221027764 ) ) ;
#214 = CARTESIAN_POINT ( 'NONE',  ( -8.000000000000000000, 59.40854069123692227, -1.386282078445125299 ) ) ;
#215 = FACE_OUTER_BOUND ( 'NONE', #346, .T. ) ;
#216 = CARTESIAN_POINT ( 'NONE',  ( 0.000000000000000000, 57.27974128041971369, 0.2509377449305955632 ) ) ;
#217 = PLANE ( 'NONE',  #425 ) ;
#218 = CARTESIAN_POINT ( 'NONE',  ( -8.000000000000000000, 60.20000000000048601, 7.198708458309391188E-12 ) ) ;
#219 = EDGE_CURVE ( 'NONE', #82, #621, #330, .T. ) ;
#220 = DIRECTION ( 'NONE',  ( -1.000000000000000000, 0.000000000000000000, 2.710505431213761085E-16 ) ) ;
#221 = DIRECTION ( 'NONE',  ( -1.000000000000000000, 0.000000000000000000, 2.710505431213761085E-16 ) ) ;
#222 = CARTESIAN_POINT ( 'NONE',  ( 0.000000000000000000, 113.9130966754875374, 0.06426491208389110976 ) ) ;
#223 = VECTOR ( 'NONE', #293, 1000.000000000000000 ) ;
#224 = LINE ( 'NONE', #382, #604 ) ;
#225 = CARTESIAN_POINT ( 'NONE',  ( 57.00000000000002842, 98.27749445837238795, 1.228543838666644739 ) ) ;
#226 = PLANE ( 'NONE',  #287 ) ;
#227 = CARTESIAN_POINT ( 'NONE',  ( 57.00000000000002842, 91.44341688034556626, 1.237574119095880887 ) ) ;
#228 = CARTESIAN_POINT ( 'NONE',  ( -4.000000000000000000, 93.79141501860203789, 0.000000000000000000 ) ) ;
#229 = EDGE_LOOP ( 'NONE', ( #624, #192, #396, #613 ) ) ;
#230 = CARTESIAN_POINT ( 'NONE',  ( 57.00000000000000711, 93.78431983336643896, 1.289907394277864050 ) ) ;
#231 = DIRECTION ( 'NONE',  ( -1.000000000000000000, 0.000000000000000000, 0.000000000000000000 ) ) ;
#232 = AXIS2_PLACEMENT_3D ( 'NONE', #616, #291, #16 ) ;
#233 = CARTESIAN_POINT ( 'NONE',  ( 33.25134665315185600, 93.79141501860205210, -1.630504522886852881 ) ) ;
#234 = VERTEX_POINT ( 'NONE', #662 ) ;
#235 = CARTESIAN_POINT ( 'NONE',  ( 0.000000000000000000, 60.20000000000094076, 1.566736341210273498 ) ) ;
#236 = DIRECTION ( 'NONE',  ( 1.000000000000000000, 0.000000000000000000, 0.000000000000000000 ) ) ;
#237 = EDGE_LOOP ( 'NONE', ( #282, #617, #510, #241 ) ) ;
#238 = EDGE_CURVE ( 'NONE', #447, #245, #451, .T. ) ;
#239 = CARTESIAN_POINT ( 'NONE',  ( -8.000000000000000000, 59.90726717405085822, 1.503847377777014049 ) ) ;
#240 = CARTESIAN_POINT ( 'NONE',  ( 0.000000000000000000, 76.69174051955654647, 2.584004924992628904 ) ) ;
#241 = ORIENTED_EDGE ( 'NONE', *, *, #562, .T. ) ;
#242 = CARTESIAN_POINT ( 'NONE',  ( 0.000000000000000000, 113.9130966754875374, -0.06426491208388990239 ) ) ;
#243 = VECTOR ( 'NONE', #570, 1000.000000000000000 ) ;
#244 = CARTESIAN_POINT ( 'NONE',  ( 57.00000000000001421, 93.79141501860203789, -1.288263528805131397 ) ) ;
#245 = VERTEX_POINT ( 'NONE', #76 ) ;
#246 = DIRECTION ( 'NONE',  ( 1.000000000000000000, 0.000000000000000000, 0.000000000000000000 ) ) ;
#247 = CARTESIAN_POINT ( 'NONE',  ( 0.000000000000000000, 114.2400593234409740, -0.02181412338303649265 ) ) ;
#248 = ADVANCED_FACE ( 'NONE', ( #454 ), #667, .T. ) ;
#249 = CARTESIAN_POINT ( 'NONE',  ( 0.000000000000000000, 93.79141501860203789, -1.818517355353290510 ) ) ;
#250 = CARTESIAN_POINT ( 'NONE',  ( -2.000000000000000000, 91.79141501860203789, -0.7500000000000017764 ) ) ;
#251 = LINE ( 'NONE', #631, #223 ) ;
#252 = CARTESIAN_POINT ( 'NONE',  ( 57.00000000000001421, 87.73222134076884515, 0.8700074716660159968 ) ) ;
#253 = CARTESIAN_POINT ( 'NONE',  ( 0.000000000000000000, 58.74664169081804488, -1.186669108497419023 ) ) ;
#254 = CARTESIAN_POINT ( 'NONE',  ( 57.00000000000000711, 85.91549717264715014, 0.2175530099466150835 ) ) ;
#255 = CARTESIAN_POINT ( 'NONE',  ( 56.99999999999999289, 85.91549717264715014, -0.2175530099466313483 ) ) ;
#256 = VECTOR ( 'NONE', #220, 1000.000000000000000 ) ;
#257 = CARTESIAN_POINT ( 'NONE',  ( 0.000000000000000000, 59.90726717449231131, 1.503847377881077696 ) ) ;
#258 = PRODUCT_DEFINITION ( '鏈', '', #663, #273 ) ;
#259 = CARTESIAN_POINT ( 'NONE',  ( 57.00000000000002132, 86.27854155350317455, 0.4748173297145993899 ) ) ;
#260 = LINE ( 'NONE', #355, #332 ) ;
#261 = CARTESIAN_POINT ( 'NONE',  ( 0.000000000000000000, 57.43099434529425196, -0.4351060198932626966 ) ) ;
#262 = CARTESIAN_POINT ( 'NONE',  ( 57.00000000000002132, 87.29117462928292071, 0.7843463781994682860 ) ) ;
#263 = FACE_OUTER_BOUND ( 'NONE', #289, .T. ) ;
#264 = CARTESIAN_POINT ( 'NONE',  ( -8.000000000000000000, 59.40854069123692227, -1.386282078445125299 ) ) ;
#265 = B_SPLINE_CURVE_WITH_KNOTS ( 'NONE', 3,
 ( #163, #379, #120, #105 ),
 .UNSPECIFIED., .F., .F.,
 ( 4, 4 ),
 ( 0.000000000000000000, 1.000000000000000000 ),
 .UNSPECIFIED. ) ;
#266 = CARTESIAN_POINT ( 'NONE',  ( 56.99999999999999289, 85.80469691452475445, -0.04664681056610513882 ) ) ;
#267 = DIRECTION ( 'NONE',  ( 0.000000000000000000, -1.195798747227464009E-13, 1.000000000000000000 ) ) ;
#268 = SURFACE_STYLE_USAGE ( .BOTH. , #422 ) ;
#269 = VECTOR ( 'NONE', #327, 1000.000000000000000 ) ;
#270 = CARTESIAN_POINT ( 'NONE',  ( 57.00000000000000000, 85.79846478750648942, 2.090919135510960810E-15 ) ) ;
#271 = FACE_OUTER_BOUND ( 'NONE', #471, .T. ) ;
#272 = EDGE_CURVE ( 'NONE', #189, #17, #46, .T. ) ;
#273 = PRODUCT_DEFINITION_CONTEXT ( 'detailed design', #43, 'design' ) ;
#274 = CARTESIAN_POINT ( 'NONE',  ( 0.000000000000000000, 93.79141501860203789, 1.818517354070896541 ) ) ;
#275 = CARTESIAN_POINT ( 'NONE',  ( 57.00000000000000000, 114.0342138234807834, 0.04744173512005022547 ) ) ;
#276 = CARTESIAN_POINT ( 'NONE',  ( 0.000000000000000000, 93.79141501860203789, 1.818517354070896541 ) ) ;
#277 = DIRECTION ( 'NONE',  ( 0.000000000000000000, 0.000000000000000000, 1.000000000000000000 ) ) ;
#278 = LINE ( 'NONE', #551, #96 ) ;
#279 = DIRECTION ( 'NONE',  ( -0.000000000000000000, -1.000000000000000000, -0.000000000000000000 ) ) ;
#280 = PRESENTATION_STYLE_ASSIGNMENT (( #268 ) ) ;
#281 = FACE_OUTER_BOUND ( 'NONE', #455, .T. ) ;
#282 = ORIENTED_EDGE ( 'NONE', *, *, #375, .T. ) ;
#283 = CARTESIAN_POINT ( 'NONE',  ( 0.000000000000000000, 60.47629855988203929, -1.625769106511148587 ) ) ;
#284 = CARTESIAN_POINT ( 'NONE',  ( 54.62558949992998691, 93.79141502809521569, -1.348036149563365482 ) ) ;
#285 = ORIENTED_EDGE ( 'NONE', *, *, #196, .F. ) ;
#286 = CARTESIAN_POINT ( 'NONE',  ( 57.00000000000000000, 114.3200296617204970, -0.01090706169151824806 ) ) ;
#287 = AXIS2_PLACEMENT_3D ( 'NONE', #548, #111, #488 ) ;
#288 = CARTESIAN_POINT ( 'NONE',  ( 0.000000000000000000, 93.79141501860203789, 1.818517354070896541 ) ) ;
#289 = EDGE_LOOP ( 'NONE', ( #409, #70 ) ) ;
#290 = CARTESIAN_POINT ( 'NONE',  ( 0.000000000000000000, 114.4000000000000341, -0.003641916214995262729 ) ) ;
#291 = DIRECTION ( 'NONE',  ( -0.000000000000000000, 0.000000000000000000, 1.000000000000000000 ) ) ;
#292 = ORIENTED_EDGE ( 'NONE', *, *, #472, .F. ) ;
#293 = DIRECTION ( 'NONE',  ( 1.000000000000000000, -0.000000000000000000, -0.000000000000000000 ) ) ;
#294 = CARTESIAN_POINT ( 'NONE',  ( -8.000000000000000000, 60.20000000000094076, 1.566736341210273498 ) ) ;
#295 = ORIENTED_EDGE ( 'NONE', *, *, #651, .F. ) ;
#296 = ADVANCED_FACE ( 'NONE', ( #281 ), #550, .F. ) ;
#297 = CARTESIAN_POINT ( 'NONE',  ( -8.000000000000000000, 58.15708310700635053, 0.9496346594291987797 ) ) ;
#298 = EDGE_LOOP ( 'NONE', ( #522, #152, #301, #349 ) ) ;
#299 = VECTOR ( 'NONE', #653, 1000.000000000000000 ) ;
#300 = CARTESIAN_POINT ( 'NONE',  ( 57.00000000000001421, 85.80000000000001137, 4.288418133146194145E-15 ) ) ;
#301 = ORIENTED_EDGE ( 'NONE', *, *, #472, .T. ) ;
#302 = CARTESIAN_POINT ( 'NONE',  ( -4.000000000000000000, 0.000000000000000000, 0.000000000000000000 ) ) ;
#303 = VERTEX_POINT ( 'NONE', #11 ) ;
#304 = EDGE_CURVE ( 'NONE', #447, #77, #25, .T. ) ;
#305 = CARTESIAN_POINT ( 'NONE',  ( -4.000000000000000000, 91.79141501860203789, 0.000000000000000000 ) ) ;
#306 = CARTESIAN_POINT ( 'NONE',  ( -8.000000000000000000, 57.72977238238441089, -0.6988100505138341578 ) ) ;
#307 = CARTESIAN_POINT ( 'NONE',  ( 56.99999999999999289, 85.91549717264715014, -0.2175530099466313483 ) ) ;
#308 = CARTESIAN_POINT ( 'NONE',  ( 56.99999999999999289, 89.86108712221887629, -1.144036077070870183 ) ) ;
#309 = CARTESIAN_POINT ( 'NONE',  ( -8.000000000000000000, 59.90726717449243921, -1.503847377881111891 ) ) ;
#310 = CARTESIAN_POINT ( 'NONE',  ( 0.000000000000000000, 76.69174051955657490, -2.584004924992639562 ) ) ;
#311 = DIRECTION ( 'NONE',  ( 0.000000000000000000, 0.000000000000000000, -1.000000000000000000 ) ) ;
#312 = VECTOR ( 'NONE', #391, 1000.000000000000000 ) ;
#313 = CARTESIAN_POINT ( 'NONE',  ( 0.000000000000000000, 59.40854069123694359, 1.386282078445125521 ) ) ;
#314 = ADVANCED_FACE ( 'NONE', ( #348 ), #395, .T. ) ;
#315 = CARTESIAN_POINT ( 'NONE',  ( 0.000000000000000000, 59.40854069123694359, 1.386282078445125521 ) ) ;
#316 = CARTESIAN_POINT ( 'NONE',  ( 57.00000000000001421, 85.83987064020986679, -0.1254688724652829879 ) ) ;
#317 = CARTESIAN_POINT ( 'NONE',  ( -8.000000000000000000, 57.43099434529425196, -0.4351060198932626966 ) ) ;
#318 = CARTESIAN_POINT ( 'NONE',  ( 56.99999999999996447, 112.1371630280173122, -0.2590274614603151893 ) ) ;
#319 = CARTESIAN_POINT ( 'NONE',  ( -4.000000000000000000, 93.79141501860694063, 1.818517355353285403 ) ) ;
#320 = CARTESIAN_POINT ( 'NONE',  ( -8.000000000000000000, 60.20000000000094076, 1.566736341210273498 ) ) ;
#321 = CARTESIAN_POINT ( 'NONE',  ( 57.00000000000001421, 86.57332084540905726, -0.5933345542487095114 ) ) ;
#322 = EDGE_CURVE ( 'NONE', #201, #181, #505, .T. ) ;
#323 = DIRECTION ( 'NONE',  ( -0.000000000000000000, 0.000000000000000000, -1.000000000000000000 ) ) ;
#324 = CARTESIAN_POINT ( 'NONE',  ( -2.000000000000000000, 93.79141501860203789, -0.7500000000000017764 ) ) ;
#325 =( LENGTH_UNIT ( ) NAMED_UNIT ( * ) SI_UNIT ( .MILLI., .METRE. ) );
#326 = CARTESIAN_POINT ( 'NONE',  ( -8.000000000000000000, 57.20939382904949611, 0.09329362113219778763 ) ) ;
#327 = DIRECTION ( 'NONE',  ( 0.000000000000000000, 0.000000000000000000, 1.000000000000000000 ) ) ;
#328 = CARTESIAN_POINT ( 'NONE',  ( 57.00000000000000000, 114.1565483377437715, 0.03213245604194555488 ) ) ;
#329 = LINE ( 'NONE', #546, #370 ) ;
#330 = B_SPLINE_CURVE_WITH_KNOTS ( 'NONE', 3,
 ( #131, #284, #387, #22, #79, #445, #233, #336, #172, #345 ),
 .UNSPECIFIED., .F., .F.,
 ( 4, 2, 2, 2, 4 ),
 ( 0.000000000000000000, 0.007125459219065105251, 0.01425091843813021050, 0.02850183687626042101, 0.05700367375252086977 ),
 .UNSPECIFIED. ) ;
#331 = CARTESIAN_POINT ( 'NONE',  ( 57.00000000000000711, 114.4000000000000341, 0.001820958107498276248 ) ) ;
#332 = VECTOR ( 'NONE', #694, 1000.000000000000000 ) ;
#333 = CARTESIAN_POINT ( 'NONE',  ( 0.000000000000000000, 68.48683376069112683, 2.475148238191761774 ) ) ;
#334 = CARTESIAN_POINT ( 'NONE',  ( 0.000000000000000000, 113.6684276469615327, 0.09488347024010045094 ) ) ;
#335 = CARTESIAN_POINT ( 'NONE',  ( -8.000000000000000000, 60.20000000000136708, -1.566736341210362982 ) ) ;
#336 = CARTESIAN_POINT ( 'NONE',  ( 19.00092934475553008, 93.79141501860205210, -1.735687578277795629 ) ) ;
#337 = ORIENTED_EDGE ( 'NONE', *, *, #113, .F. ) ;
#338 = SHAPE_DEFINITION_REPRESENTATION ( #386, #75 ) ;
#339 = CARTESIAN_POINT ( 'NONE',  ( 47.50130877170766297, 93.79141501860203789, 1.471927690916700726 ) ) ;
#340 = EDGE_CURVE ( 'NONE', #82, #127, #126, .T. ) ;
#341 = CARTESIAN_POINT ( 'NONE',  ( 0.000000000000000000, 93.79141501860203789, 1.818517354070896541 ) ) ;
#342 = ORIENTED_EDGE ( 'NONE', *, *, #641, .T. ) ;
#343 = CARTESIAN_POINT ( 'NONE',  ( 0.000000000000000000, 57.43099434529422354, 0.4351060198932301670 ) ) ;
#344 = VECTOR ( 'NONE', #140, 1000.000000000000000 ) ;
#345 = CARTESIAN_POINT ( 'NONE',  ( 0.000000000000000000, 93.79141501860203789, -1.818517355353290510 ) ) ;
#346 = EDGE_LOOP ( 'NONE', ( #668, #20, #465, #80, #672, #392, #358, #467 ) ) ;
#347 = CARTESIAN_POINT ( 'NONE',  ( 0.000000000000000000, 57.43099434529425196, -0.4351060198932626966 ) ) ;
#348 = FACE_OUTER_BOUND ( 'NONE', #33, .T. ) ;
#349 = ORIENTED_EDGE ( 'NONE', *, *, #104, .T. ) ;
#350 = CARTESIAN_POINT ( 'NONE',  ( 0.000000000000000000, 113.6684276469615043, -0.09488347024010120034 ) ) ;
#351 = VERTEX_POINT ( 'NONE', #363 ) ;
#352 = CARTESIAN_POINT ( 'NONE',  ( 56.99999999999999289, 92.70645295487838666, 1.275561059454079826 ) ) ;
#353 = ORIENTED_EDGE ( 'NONE', *, *, #171, .F. ) ;
#354 = CARTESIAN_POINT ( 'NONE',  ( 0.000000000000000000, 57.72977238238442510, 0.6988100505138574725 ) ) ;
#355 = CARTESIAN_POINT ( 'NONE',  ( -4.000000000000000000, 91.79141501860203789, 0.000000000000000000 ) ) ;
#356 = CARTESIAN_POINT ( 'NONE',  ( -8.000000000000000000, 58.15708310700636474, -0.9496346594292004450 ) ) ;
#357 = CARTESIAN_POINT ( 'NONE',  ( 57.00000000000000711, 114.4000000000000341, -0.001820958107497632232 ) ) ;
#358 = ORIENTED_EDGE ( 'NONE', *, *, #446, .T. ) ;
#359 = CARTESIAN_POINT ( 'NONE',  ( 0.000000000000000000, 76.69174051955657490, -2.584004924992639562 ) ) ;
#360 = CARTESIAN_POINT ( 'NONE',  ( 0.000000000000000000, 57.20939382904951032, -0.09329362113221027764 ) ) ;
#361 = CARTESIAN_POINT ( 'NONE',  ( 56.99999999999999289, 113.3700124269926590, -0.1275486174295966946 ) ) ;
#362 = EDGE_LOOP ( 'NONE', ( #292, #195 ) ) ;
#363 = CARTESIAN_POINT ( 'NONE',  ( -4.000000000000000000, 91.79141501860203789, 1.818517355353285403 ) ) ;
#364 = EDGE_CURVE ( 'NONE', #245, #144, #405, .T. ) ;
#365 = B_SPLINE_CURVE_WITH_KNOTS ( 'NONE', 3,
 ( #276, #424, #59, #124, #390, #489, #339, #14, #538, #433 ),
 .UNSPECIFIED., .F., .F.,
 ( 4, 2, 2, 2, 4 ),
 ( 0.000000000000000000, 0.02850167500990896663, 0.04275251251486343607, 0.04987793126734068466, 0.05700335001981793326 ),
 .UNSPECIFIED. ) ;
#366 = CARTESIAN_POINT ( 'NONE',  ( 0.000000000000000000, 60.20000000133160967, -1.566736341494577633 ) ) ;
#367 = CARTESIAN_POINT ( 'NONE',  ( 0.000000000000000000, 58.74664169081804488, -1.186669108497419023 ) ) ;
#368 = VERTEX_POINT ( 'NONE', #640 ) ;
#369 = CARTESIAN_POINT ( 'NONE',  ( 0.000000000000000000, 99.79141501860203789, 0.7499999999999983347 ) ) ;
#370 = VECTOR ( 'NONE', #279, 1000.000000000000000 ) ;
#371 = VERTEX_POINT ( 'NONE', #94 ) ;
#372 = CARTESIAN_POINT ( 'NONE',  ( 57.00000000000001421, 87.73222134076884515, -0.8700074716660121110 ) ) ;
#373 = CARTESIAN_POINT ( 'NONE',  ( -8.000000000000000000, 57.20939382904951032, -0.09329362113221027764 ) ) ;
#374 = DIRECTION ( 'NONE',  ( 0.000000000000000000, -1.195798747227464262E-13, 1.000000000000000000 ) ) ;
#375 = EDGE_CURVE ( 'NONE', #201, #351, #632, .T. ) ;
#376 = CARTESIAN_POINT ( 'NONE',  ( 0.000000000000000000, 89.45183628473635906, -2.106592050766328494 ) ) ;
#377 = CARTESIAN_POINT ( 'NONE',  ( 100.0000000000000000, 93.79141501860203789, 0.000000000000000000 ) ) ;
#378 = CARTESIAN_POINT ( 'NONE',  ( 0.000000000000000000, 60.18234925856583573, -1.568692756398929689 ) ) ;
#379 = CARTESIAN_POINT ( 'NONE',  ( 0.000000000000000000, 92.45808168526869508, -1.818517355353290510 ) ) ;
#380 = DIRECTION ( 'NONE',  ( 1.000000000000000000, 0.000000000000000000, -2.710505431213761085E-16 ) ) ;
#381 = CARTESIAN_POINT ( 'NONE',  ( 57.00000000000002842, 101.9259181423681184, 1.053296025383165135 ) ) ;
#382 = CARTESIAN_POINT ( 'NONE',  ( 0.000000000000000000, 91.79141501860203789, 1.818517355353285403 ) ) ;
#383 = APPLICATION_PROTOCOL_DEFINITION ( 'draft international standard', 'automotive_design', 1998, #440 ) ;
#384 = EDGE_CURVE ( 'NONE', #35, #520, #600, .T. ) ;
#385 = CARTESIAN_POINT ( 'NONE',  ( 56.99999999999997868, 105.4495602354303116, 0.8231470674367282747 ) ) ;
#386 = PRODUCT_DEFINITION_SHAPE ( 'NONE', 'NONE',  #258 ) ;
#387 = CARTESIAN_POINT ( 'NONE',  ( 52.25084496836600323, 93.79141501860203789, -1.393535689115534382 ) ) ;
#388 = CARTESIAN_POINT ( 'NONE',  ( 0.000000000000000000, 73.16863966673285802, 2.579814788555728100 ) ) ;
#389 = AXIS2_PLACEMENT_3D ( 'NONE', #58, #164, #380 ) ;
#390 = CARTESIAN_POINT ( 'NONE',  ( 38.00152298695849851, 93.79141501860206631, 1.588966026183242342 ) ) ;
#391 = DIRECTION ( 'NONE',  ( 0.000000000000000000, 0.000000000000000000, 1.000000000000000000 ) ) ;
#392 = ORIENTED_EDGE ( 'NONE', *, *, #196, .T. ) ;
#393 = ADVANCED_FACE ( 'NONE', ( #145 ), #83, .T. ) ;
#394 = DIRECTION ( 'NONE',  ( 0.000000000000000000, -0.000000000000000000, -1.000000000000000000 ) ) ;
#395 = PLANE ( 'NONE',  #63 ) ;
#396 = ORIENTED_EDGE ( 'NONE', *, *, #322, .F. ) ;
#397 = CARTESIAN_POINT ( 'NONE',  ( 0.000000000000000000, 59.90726717405098611, -1.503847377777047134 ) ) ;
#398 = CARTESIAN_POINT ( 'NONE',  ( 57.00000000000002842, 91.44341688034558047, -1.237574119095880887 ) ) ;
#399 = VERTEX_POINT ( 'NONE', #636 ) ;
#400 = CARTESIAN_POINT ( 'NONE',  ( 0.000000000000000000, 57.20939382904949611, 0.09329362113219778763 ) ) ;
#401 = VECTOR ( 'NONE', #143, 1000.000000000000000 ) ;
#402 = DIRECTION ( 'NONE',  ( 0.000000000000000000, 0.000000000000000000, -1.000000000000000000 ) ) ;
#403 = ORIENTED_EDGE ( 'NONE', *, *, #492, .T. ) ;
#404 = CARTESIAN_POINT ( 'NONE',  ( 0.000000000000000000, 57.27974128041968527, -0.2509377449305659757 ) ) ;
#405 = LINE ( 'NONE', #44, #243 ) ;
#406 = EDGE_CURVE ( 'NONE', #371, #679, #260, .T. ) ;
#407 = ORIENTED_EDGE ( 'NONE', *, *, #178, .F. ) ;
#408 = CARTESIAN_POINT ( 'NONE',  ( 57.00000000000000000, 113.8865417499327890, -0.06560724743930218539 ) ) ;
#409 = ORIENTED_EDGE ( 'NONE', *, *, #693, .F. ) ;
#410 = CARTESIAN_POINT ( 'NONE',  ( 56.99999999999996447, 88.63395943796608378, 1.015878161828319914 ) ) ;
#411 = ORIENTED_EDGE ( 'NONE', *, *, #615, .T. ) ;
#412 = LINE ( 'NONE', #468, #401 ) ;
#413 = ORIENTED_EDGE ( 'NONE', *, *, #118, .F. ) ;
#414 = CARTESIAN_POINT ( 'NONE',  ( 56.99999999999999289, 86.06488619119224381, 0.3494050252569287363 ) ) ;
#415 = FACE_OUTER_BOUND ( 'NONE', #135, .T. ) ;
#416 = CARTESIAN_POINT ( 'NONE',  ( 0.000000000000000000, 57.72977238238442510, 0.6988100505138574725 ) ) ;
#417 = CARTESIAN_POINT ( 'NONE',  ( 0.000000000000000000, 73.16863966673281539, -2.579814788555724103 ) ) ;
#418 = CARTESIAN_POINT ( 'NONE',  ( 0.000000000000000000, 57.72977238238442510, 0.6988100505138574725 ) ) ;
#419 = CARTESIAN_POINT ( 'NONE',  ( 0.000000000000000000, 58.15708310700636474, -0.9496346594292004450 ) ) ;
#420 = ORIENTED_EDGE ( 'NONE', *, *, #651, .T. ) ;
#421 = CARTESIAN_POINT ( 'NONE',  ( 57.00000000000000000, 93.50558560494572191, 1.286197460660289726 ) ) ;
#422 = SURFACE_SIDE_STYLE ('',( #208 ) ) ;
#423 = CARTESIAN_POINT ( 'NONE',  ( 0.000000000000000000, 61.06444268153772015, 1.740014943332031994 ) ) ;
#424 = CARTESIAN_POINT ( 'NONE',  ( 9.500483357281781949, 93.79141502829563137, 1.780599148178129365 ) ) ;
#425 = AXIS2_PLACEMENT_3D ( 'NONE', #377, #500, #394 ) ;
#426 = VECTOR ( 'NONE', #236, 1000.000000000000000 ) ;
#427 = CARTESIAN_POINT ( 'NONE',  ( 0.000000000000000000, 60.18307210908331939, -1.563119600639121254 ) ) ;
#428 = CARTESIAN_POINT ( 'NONE',  ( 0.000000000000000000, 112.3400248539853123, -0.2550972348591933891 ) ) ;
#429 = CARTESIAN_POINT ( 'NONE',  ( -2.032879073410326977E-16, 91.79141501860203789, -0.7500000000000023315 ) ) ;
#430 = LINE ( 'NONE', #60, #701 ) ;
#431 = ADVANCED_FACE ( 'NONE', ( #263 ), #191, .T. ) ;
#432 = CARTESIAN_POINT ( 'NONE',  ( 0.000000000000000000, 61.06444268153765620, -1.740014943332024222 ) ) ;
#433 = CARTESIAN_POINT ( 'NONE',  ( 57.00000000000001421, 93.79141501860203789, 1.288263528805132063 ) ) ;
#434 = CARTESIAN_POINT ( 'NONE',  ( -0.000000000000000000, 91.79141501860203789, 0.000000000000000000 ) ) ;
#435 = PLANE ( 'NONE',  #130 ) ;
#436 = VECTOR ( 'NONE', #703, 1000.000000000000000 ) ;
#437 =( NAMED_UNIT ( * ) SI_UNIT ( $, .STERADIAN. ) SOLID_ANGLE_UNIT ( ) );
#438 = EDGE_CURVE ( 'NONE', #621, #35, #699, .T. ) ;
#439 = CARTESIAN_POINT ( 'NONE',  ( 0.000000000000000000, 60.20000000000138130, -1.566736341210367200 ) ) ;
#440 = APPLICATION_CONTEXT ( 'automotive_design' ) ;
#441 = CARTESIAN_POINT ( 'NONE',  ( 56.99999999999996447, 88.63395943796608378, 1.015878161828319914 ) ) ;
#442 = FACE_OUTER_BOUND ( 'NONE', #298, .T. ) ;
#443 = CARTESIAN_POINT ( 'NONE',  ( 0.000000000000000000, 113.3730834998655155, 0.1312144948786051202 ) ) ;
#444 = CARTESIAN_POINT ( 'NONE',  ( 0.000000000000000000, 60.20000000000094076, 1.566736341210273498 ) ) ;
#445 = CARTESIAN_POINT ( 'NONE',  ( 38.00146111919386982, 93.79141501860198105, -1.588966602838282505 ) ) ;
#446 = EDGE_CURVE ( 'NONE', #30, #679, #487, .T. ) ;
#447 = VERTEX_POINT ( 'NONE', #52 ) ;
#448 = CARTESIAN_POINT ( 'NONE',  ( 0.000000000000000000, 65.32217424443767584, 2.288072154141744807 ) ) ;
#449 = VECTOR ( 'NONE', #153, 1000.000000000000000 ) ;
#450 = DIRECTION ( 'NONE',  ( 1.000000000000000000, -0.000000000000000000, -0.000000000000000000 ) ) ;
#451 = LINE ( 'NONE', #513, #55 ) ;
#452 = ORIENTED_EDGE ( 'NONE', *, *, #595, .F. ) ;
#453 = CARTESIAN_POINT ( 'NONE',  ( -8.000000000000000000, 60.20000000000094076, 1.566736341210273498 ) ) ;
#454 = FACE_OUTER_BOUND ( 'NONE', #148, .T. ) ;
#455 = EDGE_LOOP ( 'NONE', ( #463, #639, #37, #184, #567, #675 ) ) ;
#456 = CARTESIAN_POINT ( 'NONE',  ( 56.99999999999998579, 114.3529076726171496, -0.005462209163859120704 ) ) ;
#457 = CARTESIAN_POINT ( 'NONE',  ( 0.000000000000000000, 88.46616708357879588, 2.153937531194342725 ) ) ;
#458 = ORIENTED_EDGE ( 'NONE', *, *, #219, .F. ) ;
#459 = CARTESIAN_POINT ( 'NONE',  ( 0.000000000000000000, 58.15708310700636474, -0.9496346594292004450 ) ) ;
#460 = MECHANICAL_DESIGN_GEOMETRIC_PRESENTATION_REPRESENTATION (  '', ( #212 ), #618 ) ;
#461 = ADVANCED_FACE ( 'NONE', ( #179 ), #217, .F. ) ;
#462 = CARTESIAN_POINT ( 'NONE',  ( 56.99999999999997868, 93.78607484122001381, -1.288225531895735410 ) ) ;
#463 = ORIENTED_EDGE ( 'NONE', *, *, #438, .T. ) ;
#464 = CARTESIAN_POINT ( 'NONE',  ( 57.00000000000000000, 114.1565483377437715, -0.03213245604194495120 ) ) ;
#465 = ORIENTED_EDGE ( 'NONE', *, *, #57, .F. ) ;
#466 = CARTESIAN_POINT ( 'NONE',  ( 57.00000000000000711, 87.29117462928296334, -0.7843463781994648443 ) ) ;
#467 = ORIENTED_EDGE ( 'NONE', *, *, #406, .F. ) ;
#468 = CARTESIAN_POINT ( 'NONE',  ( -4.000000000000000000, 0.000000000000000000, -0.7500000000000012212 ) ) ;
#469 = ORIENTED_EDGE ( 'NONE', *, *, #438, .F. ) ;
#470 = CARTESIAN_POINT ( 'NONE',  ( 0.000000000000000000, 88.46616708355067260, -2.153937531195696753 ) ) ;
#471 = EDGE_LOOP ( 'NONE', ( #411, #206, #176, #498 ) ) ;
#472 = EDGE_CURVE ( 'NONE', #234, #204, #535, .T. ) ;
#473 = CARTESIAN_POINT ( 'NONE',  ( 0.000000000000000000, 57.43099434529422354, 0.4351060198932301670 ) ) ;
#474 = AXIS2_PLACEMENT_3D ( 'NONE', #596, #323, #231 ) ;
#475 = CARTESIAN_POINT ( 'NONE',  ( 57.00000000000000000, 86.27854155350317455, -0.4748173297146002225 ) ) ;
#476 = CARTESIAN_POINT ( 'NONE',  ( 0.000000000000000000, 60.18307210908301386, 1.563119600639055529 ) ) ;
#477 = CARTESIAN_POINT ( 'NONE',  ( 0.000000000000000000, 58.15708310700635053, 0.9496346594291987797 ) ) ;
#478 = CARTESIAN_POINT ( 'NONE',  ( 57.00000000000000000, 85.83987064020986679, 0.1254688724652977816 ) ) ;
#479 = CARTESIAN_POINT ( 'NONE',  ( 0.000000000000000000, 57.72977238238441089, -0.6988100505138341578 ) ) ;
#480 = CARTESIAN_POINT ( 'NONE',  ( 0.000000000000000000, 62.86791887593218320, -2.031756323656659813 ) ) ;
#481 = CARTESIAN_POINT ( 'NONE',  ( -8.000000000000000000, 60.20000000000048601, 7.198708458309391188E-12 ) ) ;
#482 = CARTESIAN_POINT ( 'NONE',  ( -8.000000000000000000, 58.15708310700635053, 0.9496346594291987797 ) ) ;
#483 = CARTESIAN_POINT ( 'NONE',  ( 56.99999999999999289, 89.86108712221887629, -1.144036077070870183 ) ) ;
#484 = LINE ( 'NONE', #660, #436 ) ;
#485 = B_SPLINE_CURVE_WITH_KNOTS ( 'NONE', 3,
 ( #6, #605, #501, #121, #66, #333, #561, #69, #240, #497, #457, #557, #288 ),
 .UNSPECIFIED., .F., .F.,
 ( 4, 1, 1, 1, 1, 1, 1, 1, 1, 1, 4 ),
 ( 0.5304726958056190655, 0.5377935618674686280, 0.5464441699621739312, 0.5773591376371679518, 0.6016988146603082788, 0.6285800173883631103, 0.6428399628077200445, 0.6575631228192270195, 0.7198705104985394509, 0.7844272438585263574, 0.8212802050652333596 ),
 .UNSPECIFIED. ) ;
#486 = CARTESIAN_POINT ( 'NONE',  ( 0.000000000000000000, 57.20939382904949611, 0.09329362113219778763 ) ) ;
#487 = LINE ( 'NONE', #429, #256 ) ;
#488 = DIRECTION ( 'NONE',  ( 0.000000000000000000, 0.000000000000000000, 1.000000000000000000 ) ) ;
#489 = CARTESIAN_POINT ( 'NONE',  ( 45.12641024215060526, 93.79141501860202368, 1.504103967697624000 ) ) ;
#490 = LINE ( 'NONE', #592, #299 ) ;
#491 =( NAMED_UNIT ( * ) PLANE_ANGLE_UNIT ( ) SI_UNIT ( $, .RADIAN. ) );
#492 = EDGE_CURVE ( 'NONE', #77, #17, #110, .T. ) ;
#493 = CARTESIAN_POINT ( 'NONE',  ( -2.000000000000000000, 91.79141501860203789, 0.7499999999999983347 ) ) ;
#494 = CARTESIAN_POINT ( 'NONE',  ( -4.000000000000000000, 91.79141501860203789, -0.7500000000000015543 ) ) ;
#495 = CARTESIAN_POINT ( 'NONE',  ( 57.00000000000001421, 93.79141501860203789, -1.288263528805131397 ) ) ;
#496 = CARTESIAN_POINT ( 'NONE',  ( 0.000000000000000000, 68.48683376069112683, 2.475148238191761774 ) ) ;
#497 = CARTESIAN_POINT ( 'NONE',  ( 0.000000000000000000, 82.15498891674469917, 2.457087677333289477 ) ) ;
#498 = ORIENTED_EDGE ( 'NONE', *, *, #641, .F. ) ;
#499 = CARTESIAN_POINT ( 'NONE',  ( 56.99999999999999289, 92.70645295487838666, 1.275561059454079826 ) ) ;
#500 = DIRECTION ( 'NONE',  ( 0.000000000000000000, -1.000000000000000000, 0.000000000000000000 ) ) ;
#501 = CARTESIAN_POINT ( 'NONE',  ( 0.000000000000000000, 61.08153161862599489, 1.742779354700426886 ) ) ;
#502 = ORIENTED_EDGE ( 'NONE', *, *, #492, .F. ) ;
#503 = VECTOR ( 'NONE', #450, 1000.000000000000000 ) ;
#504 = CARTESIAN_POINT ( 'NONE',  ( 57.00000000000000000, 114.2492227387113815, -0.01987857142996463794 ) ) ;
#505 = LINE ( 'NONE', #175, #426 ) ;
#506 = EDGE_CURVE ( 'NONE', #17, #127, #365, .T. ) ;
#507 = ORIENTED_EDGE ( 'NONE', *, *, #446, .F. ) ;
#508 = CARTESIAN_POINT ( 'NONE',  ( 0.000000000000000000, 60.18307210819643416, 1.563119600448522828 ) ) ;
#509 = DIRECTION ( 'NONE',  ( 1.000000000000000000, 0.000000000000000000, 0.000000000000000000 ) ) ;
#510 = ORIENTED_EDGE ( 'NONE', *, *, #304, .F. ) ;
#511 = ADVANCED_FACE ( 'NONE', ( #56 ), #652, .T. ) ;
#512 = CARTESIAN_POINT ( 'NONE',  ( 57.00000000000000711, 114.4000000000000341, 3.219783990750409164E-16 ) ) ;
#513 = CARTESIAN_POINT ( 'NONE',  ( 100.0000000000000000, 93.79141501860203789, 0.7499999999999983347 ) ) ;
#514 = ORIENTED_EDGE ( 'NONE', *, *, #187, .F. ) ;
#515 = CLOSED_SHELL ( 'NONE', ( #31, #511, #630, #461, #296, #669, #431, #91, #8, #158, #314, #167, #393, #248, #553 ) ) ;
#516 = CARTESIAN_POINT ( 'NONE',  ( -8.000000000000000000, 58.74664169081803777, 1.186669108497411473 ) ) ;
#517 = DIRECTION ( 'NONE',  ( 0.000000000000000000, 0.000000000000000000, -1.000000000000000000 ) ) ;
#518 = CARTESIAN_POINT ( 'NONE',  ( 0.000000000000000000, 58.15708310700635053, 0.9496346594291987797 ) ) ;
#519 = CARTESIAN_POINT ( 'NONE',  ( 0.000000000000000000, 59.90726717405085822, 1.503847377777014049 ) ) ;
#520 = VERTEX_POINT ( 'NONE', #444 ) ;
#521 = CARTESIAN_POINT ( 'NONE',  ( 0.000000000000000000, 92.37230193927666733, -1.912409874124045395 ) ) ;
#522 = ORIENTED_EDGE ( 'NONE', *, *, #384, .F. ) ;
#523 = CARTESIAN_POINT ( 'NONE',  ( 0.000000000000000000, 68.48683376069111262, -2.475148238191761774 ) ) ;
#524 = CARTESIAN_POINT ( 'NONE',  ( 0.000000000000000000, 62.86791887593218320, -2.031756323656659813 ) ) ;
#525 = CARTESIAN_POINT ( 'NONE',  ( -8.000000000000000000, 59.90726717449231131, 1.503847377881077696 ) ) ;
#526 = CARTESIAN_POINT ( 'NONE',  ( 57.00000000000000711, 110.5010049022751843, -0.4117400733266864954 ) ) ;
#527 = AXIS2_PLACEMENT_3D ( 'NONE', #302, #78, #619 ) ;
#528 = CARTESIAN_POINT ( 'NONE',  ( 56.99999999999999289, 89.86108712221887629, 1.144036077070872404 ) ) ;
#529 = CARTESIAN_POINT ( 'NONE',  ( -8.000000000000000000, 60.18307210908301386, 1.563119600639055529 ) ) ;
#530 = EDGE_CURVE ( 'NONE', #399, #621, #265, .T. ) ;
#531 = CARTESIAN_POINT ( 'NONE',  ( 0.000000000000000000, 59.40854069123692227, -1.386282078445125299 ) ) ;
#532 = CARTESIAN_POINT ( 'NONE',  ( 57.00000000000000711, 85.80469691452475445, 0.04664681056609889381 ) ) ;
#533 = ORIENTED_EDGE ( 'NONE', *, *, #406, .T. ) ;
#534 = CARTESIAN_POINT ( 'NONE',  ( 56.99999999999994316, 88.63395943796611220, -1.015878161828329906 ) ) ;
#535 = LINE ( 'NONE', #481, #109 ) ;
#536 = DIRECTION ( 'NONE',  ( 1.000000000000000000, -0.000000000000000000, -0.000000000000000000 ) ) ;
#537 = CARTESIAN_POINT ( 'NONE',  ( 0.000000000000000000, 57.43099434529425196, -0.4351060198932626966 ) ) ;
#538 = CARTESIAN_POINT ( 'NONE',  ( 54.62555484885319856, 93.79141501860256369, 1.348037021957403381 ) ) ;
#539 = PRESENTATION_LAYER_ASSIGNMENT (  '', '', ( #212 ) ) ;
#540 = PLANE ( 'NONE',  #389 ) ;
#541 = CARTESIAN_POINT ( 'NONE',  ( 0.000000000000000000, 96.49912047086061762, 1.646294134873456549 ) ) ;
#542 = CARTESIAN_POINT ( 'NONE',  ( 0.000000000000000000, 60.20000000000138130, -1.566736341210367200 ) ) ;
#543 = EDGE_CURVE ( 'NONE', #351, #77, #484, .T. ) ;
#544 =( NAMED_UNIT ( * ) PLANE_ANGLE_UNIT ( ) SI_UNIT ( $, .RADIAN. ) );
#545 = CARTESIAN_POINT ( 'NONE',  ( 0.000000000000000000, 114.0984454774226862, 0.03975714285992766606 ) ) ;
#546 = CARTESIAN_POINT ( 'NONE',  ( -2.000000000000000000, 99.79141501860203789, 0.7499999999999983347 ) ) ;
#547 = CARTESIAN_POINT ( 'NONE',  ( 57.00000000000000711, 114.4000000000000341, 3.219783990750409164E-16 ) ) ;
#548 = CARTESIAN_POINT ( 'NONE',  ( -4.000000000000000000, 91.79141501860203789, 0.000000000000000000 ) ) ;
#549 = CARTESIAN_POINT ( 'NONE',  ( 56.99999999999996447, 95.54587025977822634, 1.292002462496314452 ) ) ;
#550 = PLANE ( 'NONE',  #41 ) ;
#551 = CARTESIAN_POINT ( 'NONE',  ( 57.00000000000001421, 93.79141501860203789, 4.288418133146194145E-15 ) ) ;
#552 = CARTESIAN_POINT ( 'NONE',  ( -8.000000000000000000, 57.27974128041968527, -0.2509377449305659757 ) ) ;
#553 = ADVANCED_FACE ( 'NONE', ( #271 ), #68, .T. ) ;
#554 = CARTESIAN_POINT ( 'NONE',  ( -4.000000000000000000, 91.79141501860203789, 0.7499999999999983347 ) ) ;
#555 = ORIENTED_EDGE ( 'NONE', *, *, #635, .T. ) ;
#556 = CARTESIAN_POINT ( 'NONE',  ( 0.000000000000000000, 91.79141501860203789, -1.818517355353290510 ) ) ;
#557 = CARTESIAN_POINT ( 'NONE',  ( 0.000000000000000000, 92.37230193933297073, 1.912409874120559072 ) ) ;
#558 = EDGE_LOOP ( 'NONE', ( #89, #295, #507, #413 ) ) ;
#559 = AXIS2_PLACEMENT_3D ( 'NONE', #218, #704, #374 ) ;
#560 = FACE_OUTER_BOUND ( 'NONE', #122, .T. ) ;
#561 = CARTESIAN_POINT ( 'NONE',  ( 0.000000000000000000, 71.01290590975676764, 2.551122118908159653 ) ) ;
#562 = EDGE_CURVE ( 'NONE', #447, #201, #666, .T. ) ;
#563 = ORIENTED_EDGE ( 'NONE', *, *, #219, .T. ) ;
#564 = B_SPLINE_SURFACE_WITH_KNOTS ( 'NONE', 3, 1, ( 
 ( #512, #24 ),
 ( #357, #290 ),
 ( #456, #578 ),
 ( #286, #247 ),
 ( #504, #673 ),
 ( #464, #242 ),
 ( #622, #350 ),
 ( #408, #625 ),
 ( #361, #428 ),
 ( #318, #159 ),
 ( #526, #588 ),
 ( #38, #162 ),
 ( #100, #643 ),
 ( #650, #376 ),
 ( #691, #103 ),
 ( #688, #310 ),
 ( #93, #585 ),
 ( #582, #590 ),
 ( #700, #523 ),
 ( #483, #705 ),
 ( #534, #480 ),
 ( #372, #432 ),
 ( #50, #378 ),
 ( #151, #531 ),
 ( #321, #367 ),
 ( #88, #419 ),
 ( #155, #634 ),
 ( #307, #537 ),
 ( #54, #97 ),
 ( #266, #213 ),
 ( #270, #42 ),
 ( #147, #486 ),
 ( #647, #216 ),
 ( #254, #473 ),
 ( #202, #416 ),
 ( #259, #477 ),
 ( #205, #47 ),
 ( #638, #315 ),
 ( #262, #696 ),
 ( #209, #423 ),
 ( #441, #657 ),
 ( #1, #448 ),
 ( #227, #496 ),
 ( #499, #654 ),
 ( #230, #388 ),
 ( #549, #659 ),
 ( #225, #115 ),
 ( #381, #13 ),
 ( #385, #541 ),
 ( #665, #9 ),
 ( #177, #606 ),
 ( #170, #112 ),
 ( #593, #165 ),
 ( #599, #443 ),
 ( #275, #334 ),
 ( #328, #222 ),
 ( #173, #545 ),
 ( #108, #4 ),
 ( #119, #601 ),
 ( #331, #65 ),
 ( #547, #61 ) ),
 .UNSPECIFIED., .T., .F., .F.,
 ( 4, 1, 1, 1, 1, 1, 1, 1, 1, 1, 1, 1, 1, 1, 1, 1, 1, 1, 1, 1, 1, 1, 1, 1, 1, 1, 1, 1, 1, 1, 1, 1, 1, 1, 1, 1, 1, 1, 1, 1, 1, 1, 1, 1, 1, 1, 1, 1, 1, 1, 1, 1, 1, 1, 1, 1, 1, 1, 4 ),
 ( 2, 2 ),
 ( 0.000000000000000000, 0.0007111858391459781022, 0.001422111896696720773, 0.002133252307305544705, 0.004251581208352451548, 0.006369198327107141247, 0.008487525816305187612, 0.01197307848109763553, 0.03331657326023918647, 0.07275053285380096713, 0.09713332486305106817, 0.1531507361302993087, 0.2155727561414738092, 0.2801294895014606046, 0.3424368771807729250, 0.3571600371922799000, 0.3714199826116368341, 0.3983011853396918323, 0.4226408623628321592, 0.4535558300378262908, 0.4622064381325312610, 0.4699758292560523021, 0.4768369111307219077, 0.4828001052516183167, 0.4878773144099959325, 0.4932760371352737927, 0.4955686493955878680, 0.4981799263512654008, 0.4994050988601218544, 0.5000000000000000000, 0.5005949011398781456, 0.5018200736487344882, 0.5044313506044121320, 0.5067239628647260963, 0.5121226855900040675, 0.5171998947483816833, 0.5231630888692780923, 0.5300241707439475869, 0.5377935618674686280, 0.5464441699621739312, 0.5773591376371679518, 0.6016988146603082788, 0.6285800173883631103, 0.6428399628077200445, 0.6575631228192270195, 0.7198705104985394509, 0.7844272438585263574, 0.8468492638697007191, 0.9028666751369490706, 0.9272494671461990468, 0.9666834267397609315, 0.9880269215189023679, 0.9915124741836948141, 0.9936308016728928605, 0.9957484187916476603, 0.9978667476926944557, 0.9985778881033033905, 0.9992888141608540220, 1.000000000000000000 ),
 ( 0.000000000000000000, 1.000000000000000000 ),
 .UNSPECIFIED. ) ;
#565 = CARTESIAN_POINT ( 'NONE',  ( -4.000000000000000000, 93.79141501860691221, -1.818517355353290510 ) ) ;
#566 = CARTESIAN_POINT ( 'NONE',  ( 0.000000000000000000, 91.79141501860203789, 1.818517354070896541 ) ) ;
#567 = ORIENTED_EDGE ( 'NONE', *, *, #51, .F. ) ;
#568 = CARTESIAN_POINT ( 'NONE',  ( 0.000000000000000000, 57.72977238238441089, -0.6988100505138341578 ) ) ;
#569 = ORIENTED_EDGE ( 'NONE', *, *, #238, .F. ) ;
#570 = DIRECTION ( 'NONE',  ( 0.000000000000000000, 0.000000000000000000, -1.000000000000000000 ) ) ;
#571 = CARTESIAN_POINT ( 'NONE',  ( 0.000000000000000000, 57.43099434529422354, 0.4351060198932301670 ) ) ;
#572 = CARTESIAN_POINT ( 'NONE',  ( 0.000000000000000000, 60.18307210819671837, -1.563119600448586111 ) ) ;
#573 = ORIENTED_EDGE ( 'NONE', *, *, #340, .T. ) ;
#574 = AXIS2_PLACEMENT_3D ( 'NONE', #7, #610, #246 ) ;
#575 = EDGE_CURVE ( 'NONE', #399, #371, #611, .T. ) ;
#576 = DIRECTION ( 'NONE',  ( 1.000000000000000000, 0.000000000000000000, 0.000000000000000000 ) ) ;
#577 = CARTESIAN_POINT ( 'NONE',  ( -8.000000000000000000, 60.20000000133160967, -1.566736341494577633 ) ) ;
#578 = CARTESIAN_POINT ( 'NONE',  ( 0.000000000000000000, 114.3058153452343220, -0.01092441832771824141 ) ) ;
#579 = PRODUCT ( 'raw_\X2\578276f45c3e7ffc\X0\_\X2\9ad85ea64e3a\X0\59_3D\X2\625353707248\X0\', 'raw_\X2\578276f45c3e7ffc\X0\_\X2\9ad85ea64e3a\X0\59_3D\X2\625353707248\X0\', '', ( #128 ) ) ;
#580 = CARTESIAN_POINT ( 'NONE',  ( 0.000000000000000000, 68.48683376069111262, -2.475148238191761774 ) ) ;
#581 = CARTESIAN_POINT ( 'NONE',  ( 0.000000000000000000, 57.20939382904949611, 0.09329362113219778763 ) ) ;
#582 = CARTESIAN_POINT ( 'NONE',  ( 57.00000000000000711, 92.70645295487840087, -1.275561059454083601 ) ) ;
#583 = CARTESIAN_POINT ( 'NONE',  ( 56.99999999999999289, 85.80469691452475445, -0.04664681056610513882 ) ) ;
#584 = CARTESIAN_POINT ( 'NONE',  ( -8.000000000000000000, 57.27974128041968527, -0.2509377449305659757 ) ) ;
#585 = CARTESIAN_POINT ( 'NONE',  ( 0.000000000000000000, 73.16863966673281539, -2.579814788555724103 ) ) ;
#586 = CARTESIAN_POINT ( 'NONE',  ( 56.99999999999997868, 86.90427034561849950, -0.6931410392225626493 ) ) ;
#587 = CARTESIAN_POINT ( 'NONE',  ( -8.000000000000000000, 57.19692957501295183, 4.183955853390057370E-15 ) ) ;
#588 = CARTESIAN_POINT ( 'NONE',  ( 0.000000000000000000, 106.6020098045503346, -0.8234801466533729908 ) ) ;
#589 = CARTESIAN_POINT ( 'NONE',  ( -8.000000000000000000, 57.72977238238441089, -0.6988100505138341578 ) ) ;
#590 = CARTESIAN_POINT ( 'NONE',  ( 0.000000000000000000, 71.01290590975678185, -2.551122118908167202 ) ) ;
#591 = DIRECTION ( 'NONE',  ( -1.000000000000000000, 0.000000000000000000, 0.000000000000000000 ) ) ;
#592 = CARTESIAN_POINT ( 'NONE',  ( -2.000000000000000000, 99.79141501860203789, -0.7500000000000017764 ) ) ;
#593 = CARTESIAN_POINT ( 'NONE',  ( 56.99999999999999289, 113.3700124269927727, 0.1275486174295948627 ) ) ;
#594 = EDGE_CURVE ( 'NONE', #234, #204, #661, .T. ) ;
#595 = EDGE_CURVE ( 'NONE', #35, #520, #627, .T. ) ;
#596 = CARTESIAN_POINT ( 'NONE',  ( 0.000000000000000000, 91.79141501860203789, -1.818517355353290510 ) ) ;
#597 = UNCERTAINTY_MEASURE_WITH_UNIT (LENGTH_MEASURE( 1.000000000000000082E-05 ), #325, 'distance_accuracy_value', 'NONE');
#598 = LINE ( 'NONE', #3, #644 ) ;
#599 = CARTESIAN_POINT ( 'NONE',  ( 57.00000000000000000, 113.8865417499327606, 0.06560724743930256009 ) ) ;
#600 = LINE ( 'NONE', #141, #629 ) ;
#601 = CARTESIAN_POINT ( 'NONE',  ( 0.000000000000000000, 114.3058153452343504, 0.01092441832771650148 ) ) ;
#602 =( NAMED_UNIT ( * ) SI_UNIT ( $, .STERADIAN. ) SOLID_ANGLE_UNIT ( ) );
#603 = DIRECTION ( 'NONE',  ( 0.000000000000000000, 0.000000000000000000, -1.000000000000000000 ) ) ;
#604 = VECTOR ( 'NONE', #649, 1000.000000000000000 ) ;
#605 = CARTESIAN_POINT ( 'NONE',  ( 0.000000000000000000, 60.47629855988176928, 1.625769106511093520 ) ) ;
#606 = CARTESIAN_POINT ( 'NONE',  ( 0.000000000000000000, 106.6020098045503630, 0.8234801466533694381 ) ) ;
#607 = CARTESIAN_POINT ( 'NONE',  ( -4.000000000000000000, 0.000000000000000000, 0.7499999999999983347 ) ) ;
#608 = DIRECTION ( 'NONE',  ( -1.000000000000000000, 0.000000000000000000, 0.000000000000000000 ) ) ;
#609 = ORIENTED_EDGE ( 'NONE', *, *, #693, .T. ) ;
#610 = DIRECTION ( 'NONE',  ( 0.000000000000000000, 0.000000000000000000, 1.000000000000000000 ) ) ;
#611 = LINE ( 'NONE', #556, #116 ) ;
#612 = CARTESIAN_POINT ( 'NONE',  ( -2.000000000000000000, 91.79141501860203789, -0.000000000000000000 ) ) ;
#613 = ORIENTED_EDGE ( 'NONE', *, *, #562, .F. ) ;
#614 = FACE_OUTER_BOUND ( 'NONE', #237, .T. ) ;
#615 = EDGE_CURVE ( 'NONE', #303, #621, #81, .T. ) ;
#616 = CARTESIAN_POINT ( 'NONE',  ( 0.000000000000000000, 91.79141501860203789, 1.818517355353285403 ) ) ;
#617 = ORIENTED_EDGE ( 'NONE', *, *, #543, .T. ) ;
#618 =( GEOMETRIC_REPRESENTATION_CONTEXT ( 3 ) GLOBAL_UNCERTAINTY_ASSIGNED_CONTEXT ( ( #106 ) ) GLOBAL_UNIT_ASSIGNED_CONTEXT ( ( #169, #544, #602 ) ) REPRESENTATION_CONTEXT ( 'NONE', 'WORKASPACE' ) );
#619 = DIRECTION ( 'NONE',  ( 0.000000000000000000, 0.000000000000000000, 1.000000000000000000 ) ) ;
#620 = CARTESIAN_POINT ( 'NONE',  ( 0.000000000000000000, 92.45808168526869508, 1.818517355353285403 ) ) ;
#621 = VERTEX_POINT ( 'NONE', #74 ) ;
#622 = CARTESIAN_POINT ( 'NONE',  ( 57.00000000000000000, 114.0342138234807692, -0.04744173512005060017 ) ) ;
#623 = CARTESIAN_POINT ( 'NONE',  ( 57.00000000000000000, 86.06488619119221539, -0.3494050252569170789 ) ) ;
#624 = ORIENTED_EDGE ( 'NONE', *, *, #238, .T. ) ;
#625 = CARTESIAN_POINT ( 'NONE',  ( 0.000000000000000000, 113.3730834998655581, -0.1312144948786043708 ) ) ;
#626 = CARTESIAN_POINT ( 'NONE',  ( 57.00000000000001421, 93.79141501860203789, 1.288263528805132063 ) ) ;
#627 = B_SPLINE_CURVE_WITH_KNOTS ( 'NONE', 3,
 ( #182, #572, #397, #190, #85, #459, #568, #347, #404, #21, #136, #400, #186, #343, #354, #18, #29, #670, #519, #508, #235 ),
 .UNSPECIFIED., .F., .F.,
 ( 4, 1, 1, 1, 1, 1, 1, 1, 1, 1, 1, 1, 1, 1, 1, 1, 1, 1, 4 ),
 ( 0.4695273041943766601, 0.4699758292560523021, 0.4768369111307219077, 0.4828001052516183167, 0.4878773144099959325, 0.4932760371352737927, 0.4955686493955878680, 0.4981799263512654008, 0.4994050988601218544, 0.5000000000000000000, 0.5005949011398781456, 0.5018200736487344882, 0.5044313506044121320, 0.5067239628647260963, 0.5121226855900040675, 0.5171998947483816833, 0.5231630888692780923, 0.5300241707439475869, 0.5304726958056190655 ),
 .UNSPECIFIED. ) ;
#628 = CARTESIAN_POINT ( 'NONE',  ( 0.000000000000000000, 59.40854069123692227, -1.386282078445125299 ) ) ;
#629 = VECTOR ( 'NONE', #678, 1000.000000000000000 ) ;
#630 = ADVANCED_FACE ( 'NONE', ( #614 ), #193, .T. ) ;
#631 = CARTESIAN_POINT ( 'NONE',  ( -8.000000000000000000, 60.20000000000136708, -1.566736341210362982 ) ) ;
#632 = LINE ( 'NONE', #305, #449 ) ;
#633 = CARTESIAN_POINT ( 'NONE',  ( 0.000000000000000000, 59.90726717449243921, -1.503847377881111891 ) ) ;
#634 = CARTESIAN_POINT ( 'NONE',  ( 0.000000000000000000, 57.72977238238441089, -0.6988100505138341578 ) ) ;
#635 = EDGE_CURVE ( 'NONE', #234, #35, #251, .T. ) ;
#636 = CARTESIAN_POINT ( 'NONE',  ( 0.000000000000000000, 91.79141501860203789, -1.818517355353290510 ) ) ;
#637 = CARTESIAN_POINT ( 'NONE',  ( -8.000000000000000000, 60.18307210908331939, -1.563119600639121254 ) ) ;
#638 = CARTESIAN_POINT ( 'NONE',  ( 57.00000000000000000, 86.90427034561851372, 0.6931410392225627604 ) ) ;
#639 = ORIENTED_EDGE ( 'NONE', *, *, #384, .T. ) ;
#640 = CARTESIAN_POINT ( 'NONE',  ( -4.000000000000000000, 93.79141501860694063, -0.7500000000000015543 ) ) ;
#641 = EDGE_CURVE ( 'NONE', #303, #371, #129, .T. ) ;
#642 = FILL_AREA_STYLE ('',( #45 ) ) ;
#643 = CARTESIAN_POINT ( 'NONE',  ( 0.000000000000000000, 96.49912047086066025, -1.646294134873459658 ) ) ;
#644 = VECTOR ( 'NONE', #221, 1000.000000000000000 ) ;
#645 = CARTESIAN_POINT ( 'NONE',  ( -8.000000000000000000, 57.19692957501295183, 4.183955853390057370E-15 ) ) ;
#646 = CARTESIAN_POINT ( 'NONE',  ( -8.000000000000000000, 57.43099434529422354, 0.4351060198932301670 ) ) ;
#647 = CARTESIAN_POINT ( 'NONE',  ( 57.00000000000000000, 85.83987064020986679, 0.1254688724652977816 ) ) ;
#648 = CARTESIAN_POINT ( 'NONE',  ( -8.000000000000000000, 57.43099434529425196, -0.4351060198932626966 ) ) ;
#649 = DIRECTION ( 'NONE',  ( 1.000000000000000000, 0.000000000000000000, 0.000000000000000000 ) ) ;
#650 = CARTESIAN_POINT ( 'NONE',  ( 56.99999999999997868, 101.9259181423682179, -1.053296025383164247 ) ) ;
#651 = EDGE_CURVE ( 'NONE', #679, #368, #412, .T. ) ;
#652 = PLANE ( 'NONE',  #687 ) ;
#653 = DIRECTION ( 'NONE',  ( -0.000000000000000000, -1.000000000000000000, -0.000000000000000000 ) ) ;
#654 = CARTESIAN_POINT ( 'NONE',  ( 0.000000000000000000, 71.01290590975676764, 2.551122118908159653 ) ) ;
#655 = VECTOR ( 'NONE', #101, 1000.000000000000000 ) ;
#656 = DIRECTION ( 'NONE',  ( 0.000000000000000000, 0.000000000000000000, 1.000000000000000000 ) ) ;
#657 = CARTESIAN_POINT ( 'NONE',  ( 0.000000000000000000, 62.86791887593202688, 2.031756323656639829 ) ) ;
#658 = PLANE ( 'NONE',  #559 ) ;
#659 = CARTESIAN_POINT ( 'NONE',  ( 0.000000000000000000, 76.69174051955654647, 2.584004924992628904 ) ) ;
#660 = CARTESIAN_POINT ( 'NONE',  ( -4.000000000000000000, 0.000000000000000000, 1.818517355353285403 ) ) ;
#661 = B_SPLINE_CURVE_WITH_KNOTS ( 'NONE', 3,
 ( #335, #71, #697, #214, #160, #210, #589, #648, #552, #373, #645, #326, #174, #680, #197, #297, #516, #677, #239, #133, #453 ),
 .UNSPECIFIED., .F., .F.,
 ( 4, 1, 1, 1, 1, 1, 1, 1, 1, 1, 1, 1, 1, 1, 1, 1, 1, 1, 4 ),
 ( 0.4695273041943768266, 0.4699758292560523021, 0.4768369111307219077, 0.4828001052516183167, 0.4878773144099959325, 0.4932760371352737927, 0.4955686493955878680, 0.4981799263512654008, 0.4994050988601218544, 0.5000000000000000000, 0.5005949011398781456, 0.5018200736487344882, 0.5044313506044121320, 0.5067239628647260963, 0.5121226855900040675, 0.5171998947483816833, 0.5231630888692780923, 0.5300241707439475869, 0.5304726958056190655 ),
 .UNSPECIFIED. ) ;
#662 = CARTESIAN_POINT ( 'NONE',  ( -8.000000000000000000, 60.20000000000136708, -1.566736341210362982 ) ) ;
#663 = PRODUCT_DEFINITION_FORMATION_WITH_SPECIFIED_SOURCE ( '浠', '', #579, .NOT_KNOWN. ) ;
#664 = ORIENTED_EDGE ( 'NONE', *, *, #57, .T. ) ;
#665 = CARTESIAN_POINT ( 'NONE',  ( 57.00000000000000711, 108.1971870004786496, 0.6096415584502232754 ) ) ;
#666 = LINE ( 'NONE', #607, #655 ) ;
#667 = PLANE ( 'NONE',  #232 ) ;
#668 = ORIENTED_EDGE ( 'NONE', *, *, #575, .F. ) ;
#669 = ADVANCED_FACE ( 'NONE', ( #560 ), #564, .T. ) ;
#670 = CARTESIAN_POINT ( 'NONE',  ( 0.000000000000000000, 59.40854069123694359, 1.386282078445125521 ) ) ;
#671 = CARTESIAN_POINT ( 'NONE',  ( 56.99999999999998579, 93.50558560494570770, -1.286197460660289282 ) ) ;
#672 = ORIENTED_EDGE ( 'NONE', *, *, #322, .T. ) ;
#673 = CARTESIAN_POINT ( 'NONE',  ( 0.000000000000000000, 114.0984454774227146, -0.03975714285992927588 ) ) ;
#674 = DIRECTION ( 'NONE',  ( 0.000000000000000000, 0.000000000000000000, -1.000000000000000000 ) ) ;
#675 = ORIENTED_EDGE ( 'NONE', *, *, #530, .T. ) ;
#676 =( GEOMETRIC_REPRESENTATION_CONTEXT ( 3 ) GLOBAL_UNCERTAINTY_ASSIGNED_CONTEXT ( ( #597 ) ) GLOBAL_UNIT_ASSIGNED_CONTEXT ( ( #325, #491, #437 ) ) REPRESENTATION_CONTEXT ( 'NONE', 'WORKASPACE' ) );
#677 = CARTESIAN_POINT ( 'NONE',  ( -8.000000000000000000, 59.40854069123694359, 1.386282078445125521 ) ) ;
#678 = DIRECTION ( 'NONE',  ( 0.000000000000000000, -1.195798747227464009E-13, 1.000000000000000000 ) ) ;
#679 = VERTEX_POINT ( 'NONE', #494 ) ;
#680 = CARTESIAN_POINT ( 'NONE',  ( -8.000000000000000000, 57.43099434529422354, 0.4351060198932301670 ) ) ;
#681 = ORIENTED_EDGE ( 'NONE', *, *, #304, .T. ) ;
#682 = CARTESIAN_POINT ( 'NONE',  ( 57.00000000000001421, 86.57332084540905726, -0.5933345542487095114 ) ) ;
#683 = ORIENTED_EDGE ( 'NONE', *, *, #113, .T. ) ;
#684 = DIRECTION ( 'NONE',  ( 0.000000000000000000, -1.000000000000000000, 0.000000000000000000 ) ) ;
#685 = CARTESIAN_POINT ( 'NONE',  ( 0.000000000000000000, 82.15498891674479864, -2.457087677333291253 ) ) ;
#686 = ORIENTED_EDGE ( 'NONE', *, *, #104, .F. ) ;
#687 = AXIS2_PLACEMENT_3D ( 'NONE', #2, #591, #156 ) ;
#688 = CARTESIAN_POINT ( 'NONE',  ( 57.00000000000004974, 95.54587025977825476, -1.292002462496319781 ) ) ;
#689 = CARTESIAN_POINT ( 'NONE',  ( 57.00000000000000000, 85.79846478750648942, 2.090919135510960810E-15 ) ) ;
#690 = CARTESIAN_POINT ( 'NONE',  ( 0.000000000000000000, 60.20000000133114071, 1.566736341494477491 ) ) ;
#691 = CARTESIAN_POINT ( 'NONE',  ( 57.00000000000007105, 98.27749445837237374, -1.228543838666645627 ) ) ;
#692 = ORIENTED_EDGE ( 'NONE', *, *, #364, .F. ) ;
#693 = EDGE_CURVE ( 'NONE', #127, #82, #278, .T. ) ;
#694 = DIRECTION ( 'NONE',  ( 0.000000000000000000, 0.000000000000000000, 1.000000000000000000 ) ) ;
#695 = CARTESIAN_POINT ( 'NONE',  ( -8.000000000000000000, 58.74664169081803777, 1.186669108497411473 ) ) ;
#696 = CARTESIAN_POINT ( 'NONE',  ( 0.000000000000000000, 60.18234925856587125, 1.568692756398936572 ) ) ;
#697 = CARTESIAN_POINT ( 'NONE',  ( -8.000000000000000000, 59.90726717405097901, -1.503847377777045358 ) ) ;
#698 = CARTESIAN_POINT ( 'NONE',  ( 0.000000000000000000, 58.74664169081803777, 1.186669108497411473 ) ) ;
#699 = B_SPLINE_CURVE_WITH_KNOTS ( 'NONE', 3,
 ( #249, #521, #470, #685, #359, #417, #149, #580, #90, #524, #39, #283, #542 ),
 .UNSPECIFIED., .F., .F.,
 ( 4, 1, 1, 1, 1, 1, 1, 1, 1, 1, 4 ),
 ( 0.1787197949354984994, 0.2155727561414738092, 0.2801294895014606046, 0.3424368771807729250, 0.3571600371922799000, 0.3714199826116368341, 0.3983011853396918323, 0.4226408623628321592, 0.4535558300378262908, 0.4622064381325312610, 0.4695273041943766601 ),
 .UNSPECIFIED. ) ;
#700 = CARTESIAN_POINT ( 'NONE',  ( 57.00000000000002842, 91.44341688034558047, -1.237574119095880887 ) ) ;
#701 = VECTOR ( 'NONE', #277, 1000.000000000000000 ) ;
#702 = PRODUCT_RELATED_PRODUCT_CATEGORY ( 'part', '', ( #579 ) ) ;
#703 = DIRECTION ( 'NONE',  ( 0.000000000000000000, 1.000000000000000000, 0.000000000000000000 ) ) ;
#704 = DIRECTION ( 'NONE',  ( 0.000000000000000000, 1.000000000000000000, 1.195798747227464262E-13 ) ) ;
#705 = CARTESIAN_POINT ( 'NONE',  ( 0.000000000000000000, 65.32217424443763321, -2.288072154141740366 ) ) ;
#706 = DIRECTION ( 'NONE',  ( -1.000000000000000000, 0.000000000000000000, 0.000000000000000000 ) ) ;
ENDSEC;
END-ISO-10303-21;
