ISO-10303-21;
HEADER;
FILE_DESCRIPTION (( 'STEP AP214' ),
    '1' );
FILE_NAME ('零件1.STEP',
    '2026-02-26T02:06:47',
    ( '' ),
    ( '' ),
    'SwSTEP 2.0',
    'SolidWorks 2024',
    '' );
FILE_SCHEMA (( 'AUTOMOTIVE_DESIGN' ));
ENDSEC;

DATA;
#1 = AXIS2_PLACEMENT_3D ( 'NONE', #475, #208, #69 ) ;
#2 =( NAMED_UNIT ( * ) SI_UNIT ( $, .STERADIAN. ) SOLID_ANGLE_UNIT ( ) );
#3 = ADVANCED_FACE ( 'NONE', ( #187 ), #353, .F. ) ;
#4 = CARTESIAN_POINT ( 'NONE',  ( 7.000000000000000000, 7.000000000000000000, 2.000000000000000000 ) ) ;
#5 = DIRECTION ( 'NONE',  ( -0.000000000000000000, -0.000000000000000000, -1.000000000000000000 ) ) ;
#6 = LINE ( 'NONE', #566, #545 ) ;
#7 = VECTOR ( 'NONE', #143, 1000.000000000000000 ) ;
#8 = DIRECTION ( 'NONE',  ( 0.000000000000000000, 0.000000000000000000, 1.000000000000000000 ) ) ;
#9 =( GEOMETRIC_REPRESENTATION_CONTEXT ( 3 ) GLOBAL_UNCERTAINTY_ASSIGNED_CONTEXT ( ( #392 ) ) GLOBAL_UNIT_ASSIGNED_CONTEXT ( ( #314, #361, #594 ) ) REPRESENTATION_CONTEXT ( 'NONE', 'WORKASPACE' ) );
#10 = CARTESIAN_POINT ( 'NONE',  ( 27.99999999999999289, 7.000000000000000000, 2.000000000000000000 ) ) ;
#11 = EDGE_CURVE ( 'NONE', #534, #123, #115, .T. ) ;
#12 = SURFACE_SIDE_STYLE ('',( #56 ) ) ;
#13 = DIRECTION ( 'NONE',  ( -1.000000000000000000, 0.000000000000000000, 0.000000000000000000 ) ) ;
#14 = CARTESIAN_POINT ( 'NONE',  ( 27.99999999999999289, 7.000000000000000000, 2.000000000000000000 ) ) ;
#15 = EDGE_LOOP ( 'NONE', ( #486, #22 ) ) ;
#16 = CARTESIAN_POINT ( 'NONE',  ( 7.000000000000000000, 7.000000000000000000, 2.000000000000000000 ) ) ;
#17 = VECTOR ( 'NONE', #571, 1000.000000000000000 ) ;
#18 = PRODUCT_DEFINITION_FORMATION_WITH_SPECIFIED_SOURCE ( '浠', '', #67, .NOT_KNOWN. ) ;
#19 = ORIENTED_EDGE ( 'NONE', *, *, #242, .T. ) ;
#20 = AXIS2_PLACEMENT_3D ( 'NONE', #102, #230, #280 ) ;
#21 = CARTESIAN_POINT ( 'NONE',  ( 0.000000000000000000, 0.000000000000000000, -2.000000000000000000 ) ) ;
#22 = ORIENTED_EDGE ( 'NONE', *, *, #482, .F. ) ;
#23 = DIRECTION ( 'NONE',  ( 0.000000000000000000, 0.000000000000000000, 1.000000000000000000 ) ) ;
#24 = EDGE_LOOP ( 'NONE', ( #378, #598, #544, #528 ) ) ;
#25 = VERTEX_POINT ( 'NONE', #185 ) ;
#26 = AXIS2_PLACEMENT_3D ( 'NONE', #547, #131, #40 ) ;
#27 = CLOSED_SHELL ( 'NONE', ( #77, #555, #276, #64 ) ) ;
#28 = ORIENTED_EDGE ( 'NONE', *, *, #413, .T. ) ;
#29 = MANIFOLD_SOLID_BREP ( '凸台-拉伸1[1]', #312 ) ;
#30 = EDGE_CURVE ( 'NONE', #123, #534, #488, .T. ) ;
#31 = CARTESIAN_POINT ( 'NONE',  ( 7.000000000000000000, 37.00000000000000000, 0.000000000000000000 ) ) ;
#32 = FACE_OUTER_BOUND ( 'NONE', #108, .T. ) ;
#33 = UNCERTAINTY_MEASURE_WITH_UNIT (LENGTH_MEASURE( 1.000000000000000082E-05 ), #460, 'distance_accuracy_value', 'NONE');
#34 = PRESENTATION_STYLE_ASSIGNMENT (( #93 ) ) ;
#35 = CARTESIAN_POINT ( 'NONE',  ( 36.00000000000000711, 37.00000000000000000, 2.000000000000000000 ) ) ;
#36 = MANIFOLD_SOLID_BREP ( '凸台-拉伸1[2]', #583 ) ;
#37 = CARTESIAN_POINT ( 'NONE',  ( 32.00000000000000000, 7.000000000000000000, 2.000000000000000000 ) ) ;
#38 =( GEOMETRIC_REPRESENTATION_CONTEXT ( 3 ) GLOBAL_UNCERTAINTY_ASSIGNED_CONTEXT ( ( #178 ) ) GLOBAL_UNIT_ASSIGNED_CONTEXT ( ( #562, #565, #2 ) ) REPRESENTATION_CONTEXT ( 'NONE', 'WORKASPACE' ) );
#39 = ADVANCED_FACE ( 'NONE', ( #366 ), #503, .T. ) ;
#40 = DIRECTION ( 'NONE',  ( -1.000000000000000000, 0.000000000000000000, 0.000000000000000000 ) ) ;
#41 = PRODUCT_DEFINITION_CONTEXT ( 'detailed design', #162, 'design' ) ;
#42 = LINE ( 'NONE', #301, #132 ) ;
#43 = DIRECTION ( 'NONE',  ( -0.000000000000000000, -0.000000000000000000, -1.000000000000000000 ) ) ;
#44 = ADVANCED_FACE ( 'NONE', ( #514 ), #157, .F. ) ;
#45 = AXIS2_PLACEMENT_3D ( 'NONE', #564, #66, #107 ) ;
#46 = LINE ( 'NONE', #386, #300 ) ;
#47 = DIRECTION ( 'NONE',  ( -1.000000000000000000, 0.000000000000000000, 0.000000000000000000 ) ) ;
#48 = PRODUCT_CONTEXT ( 'NONE', #440, 'mechanical' ) ;
#49 = AXIS2_PLACEMENT_3D ( 'NONE', #326, #466, #316 ) ;
#50 = PRODUCT_DEFINITION_SHAPE ( 'NONE', 'NONE',  #134 ) ;
#51 = EDGE_CURVE ( 'NONE', #224, #222, #229, .T. ) ;
#52 = CARTESIAN_POINT ( 'NONE',  ( -0.000000000000000000, 45.00000000000000000, -2.000000000000000000 ) ) ;
#53 = FACE_OUTER_BOUND ( 'NONE', #389, .T. ) ;
#54 = CARTESIAN_POINT ( 'NONE',  ( 39.00000000000000000, 45.00000000000000000, -2.000000000000000000 ) ) ;
#55 = PRESENTATION_STYLE_ASSIGNMENT (( #552 ) ) ;
#56 = SURFACE_STYLE_FILL_AREA ( #553 ) ;
#57 = CARTESIAN_POINT ( 'NONE',  ( 39.00000000000000000, -2.446231151670419379E-15, 0.000000000000000000 ) ) ;
#58 = EDGE_CURVE ( 'NONE', #509, #394, #572, .T. ) ;
#59 = ORIENTED_EDGE ( 'NONE', *, *, #119, .T. ) ;
#60 = SURFACE_STYLE_FILL_AREA ( #465 ) ;
#61 = CIRCLE ( 'NONE', #520, 4.000000000000003553 ) ;
#62 = CYLINDRICAL_SURFACE ( 'NONE', #20, 4.000000000000006217 ) ;
#63 = AXIS2_PLACEMENT_3D ( 'NONE', #288, #518, #13 ) ;
#64 = ADVANCED_FACE ( 'NONE', ( #53 ), #234, .F. ) ;
#65 = STYLED_ITEM ( 'NONE', ( #34 ), #29 ) ;
#66 = DIRECTION ( 'NONE',  ( 0.000000000000000000, 0.000000000000000000, 1.000000000000000000 ) ) ;
#67 = PRODUCT ( '\X2\96f64ef6\X0\1', '\X2\96f64ef6\X0\1', '', ( #48 ) ) ;
#68 = EDGE_LOOP ( 'NONE', ( #88, #244 ) ) ;
#69 = DIRECTION ( 'NONE',  ( 1.000000000000000000, 0.000000000000000000, 0.000000000000000000 ) ) ;
#70 = AXIS2_PLACEMENT_3D ( 'NONE', #451, #408, #351 ) ;
#71 = VECTOR ( 'NONE', #462, 1000.000000000000000 ) ;
#72 = ORIENTED_EDGE ( 'NONE', *, *, #537, .T. ) ;
#73 = CIRCLE ( 'NONE', #510, 4.000000000000006217 ) ;
#74 = EDGE_LOOP ( 'NONE', ( #505, #191, #163, #72 ) ) ;
#75 = FACE_OUTER_BOUND ( 'NONE', #586, .T. ) ;
#76 = ORIENTED_EDGE ( 'NONE', *, *, #226, .T. ) ;
#77 = ADVANCED_FACE ( 'NONE', ( #275 ), #512, .T. ) ;
#78 = VERTEX_POINT ( 'NONE', #417 ) ;
#79 = ADVANCED_FACE ( 'NONE', ( #194 ), #62, .T. ) ;
#80 = CIRCLE ( 'NONE', #197, 4.000000000000003553 ) ;
#81 = AXIS2_PLACEMENT_3D ( 'NONE', #97, #549, #150 ) ;
#82 = LINE ( 'NONE', #87, #299 ) ;
#83 = VERTEX_POINT ( 'NONE', #371 ) ;
#84 = CARTESIAN_POINT ( 'NONE',  ( 32.00000000000000000, 7.000000000000000000, 2.000000000000000000 ) ) ;
#85 = CARTESIAN_POINT ( 'NONE',  ( 7.000000000000000000, 37.00000000000000000, 0.000000000000000000 ) ) ;
#86 = PLANE ( 'NONE',  #70 ) ;
#87 = CARTESIAN_POINT ( 'NONE',  ( 39.00000000000000000, 0.000000000000000000, 0.000000000000000000 ) ) ;
#88 = ORIENTED_EDGE ( 'NONE', *, *, #233, .T. ) ;
#89 = DIRECTION ( 'NONE',  ( 1.000000000000000000, 0.000000000000000000, 0.000000000000000000 ) ) ;
#90 = STYLED_ITEM ( 'NONE', ( #55 ), #232 ) ;
#91 = AXIS2_PLACEMENT_3D ( 'NONE', #99, #376, #502 ) ;
#92 = EDGE_CURVE ( 'NONE', #573, #534, #283, .T. ) ;
#93 = SURFACE_STYLE_USAGE ( .BOTH. , #360 ) ;
#94 = DIRECTION ( 'NONE',  ( 0.000000000000000000, -1.000000000000000000, 0.000000000000000000 ) ) ;
#95 = EDGE_CURVE ( 'NONE', #292, #427, #333, .T. ) ;
#96 = FACE_OUTER_BOUND ( 'NONE', #296, .T. ) ;
#97 = CARTESIAN_POINT ( 'NONE',  ( 0.000000000000000000, 0.000000000000000000, -2.000000000000000000 ) ) ;
#98 = PLANE ( 'NONE',  #213 ) ;
#99 = CARTESIAN_POINT ( 'NONE',  ( 32.00000000000000000, 37.00000000000000000, 2.000000000000000000 ) ) ;
#100 = CYLINDRICAL_SURFACE ( 'NONE', #63, 4.000000000000005329 ) ;
#101 = PLANE ( 'NONE',  #133 ) ;
#102 = CARTESIAN_POINT ( 'NONE',  ( 7.000000000000000000, 37.00000000000000000, 2.000000000000000000 ) ) ;
#103 = CARTESIAN_POINT ( 'NONE',  ( 11.00000000000000711, 37.00000000000000000, 0.000000000000000000 ) ) ;
#104 = DIRECTION ( 'NONE',  ( 1.000000000000000000, 0.000000000000000000, 0.000000000000000000 ) ) ;
#105 = ORIENTED_EDGE ( 'NONE', *, *, #11, .F. ) ;
#106 = CLOSED_SHELL ( 'NONE', ( #581, #3, #463, #245, #44, #140 ) ) ;
#107 = DIRECTION ( 'NONE',  ( 1.000000000000000000, 0.000000000000000000, -0.000000000000000000 ) ) ;
#108 = EDGE_LOOP ( 'NONE', ( #19, #350 ) ) ;
#109 = EDGE_CURVE ( 'NONE', #110, #476, #73, .T. ) ;
#110 = VERTEX_POINT ( 'NONE', #341 ) ;
#111 = CARTESIAN_POINT ( 'NONE',  ( 2.999999999999993783, 37.00000000000000000, 2.000000000000000000 ) ) ;
#112 = VECTOR ( 'NONE', #567, 1000.000000000000000 ) ;
#113 = VECTOR ( 'NONE', #190, 1000.000000000000000 ) ;
#114 = ORIENTED_EDGE ( 'NONE', *, *, #183, .F. ) ;
#115 = CIRCLE ( 'NONE', #355, 4.000000000000006217 ) ;
#116 = VECTOR ( 'NONE', #431, 1000.000000000000000 ) ;
#117 = EDGE_CURVE ( 'NONE', #25, #158, #577, .T. ) ;
#118 = VERTEX_POINT ( 'NONE', #168 ) ;
#119 = EDGE_CURVE ( 'NONE', #476, #110, #237, .T. ) ;
#120 = ORIENTED_EDGE ( 'NONE', *, *, #285, .F. ) ;
#121 = ORIENTED_EDGE ( 'NONE', *, *, #51, .T. ) ;
#122 = UNCERTAINTY_MEASURE_WITH_UNIT (LENGTH_MEASURE( 1.000000000000000082E-05 ), #218, 'distance_accuracy_value', 'NONE');
#123 = VERTEX_POINT ( 'NONE', #212 ) ;
#124 = LINE ( 'NONE', #311, #352 ) ;
#125 = EDGE_CURVE ( 'NONE', #394, #509, #322, .T. ) ;
#126 = CARTESIAN_POINT ( 'NONE',  ( 0.000000000000000000, 45.00000000000000000, -2.000000000000000000 ) ) ;
#127 = ORIENTED_EDGE ( 'NONE', *, *, #117, .T. ) ;
#128 = CARTESIAN_POINT ( 'NONE',  ( 0.000000000000000000, 45.00000000000000000, -2.000000000000000000 ) ) ;
#129 = DIRECTION ( 'NONE',  ( 0.000000000000000000, 0.000000000000000000, 1.000000000000000000 ) ) ;
#130 = ORIENTED_EDGE ( 'NONE', *, *, #525, .F. ) ;
#131 = DIRECTION ( 'NONE',  ( -0.000000000000000000, -0.000000000000000000, -1.000000000000000000 ) ) ;
#132 = VECTOR ( 'NONE', #268, 1000.000000000000000 ) ;
#133 = AXIS2_PLACEMENT_3D ( 'NONE', #329, #321, #515 ) ;
#134 = PRODUCT_DEFINITION ( '鏈', '', #18, #41 ) ;
#135 =( NAMED_UNIT ( * ) PLANE_ANGLE_UNIT ( ) SI_UNIT ( $, .RADIAN. ) );
#136 = EDGE_CURVE ( 'NONE', #484, #224, #42, .T. ) ;
#137 = STYLED_ITEM ( 'NONE', ( #240 ), #36 ) ;
#138 = CARTESIAN_POINT ( 'NONE',  ( 32.00000000000000000, 7.000000000000000000, 2.000000000000000000 ) ) ;
#139 = DIRECTION ( 'NONE',  ( 0.000000000000000000, 0.000000000000000000, 1.000000000000000000 ) ) ;
#140 = ADVANCED_FACE ( 'NONE', ( #445 ), #585, .T. ) ;
#141 = DIRECTION ( 'NONE',  ( 0.000000000000000000, 0.000000000000000000, 1.000000000000000000 ) ) ;
#142 = ORIENTED_EDGE ( 'NONE', *, *, #242, .F. ) ;
#143 = DIRECTION ( 'NONE',  ( 1.000000000000000000, 0.000000000000000000, 0.000000000000000000 ) ) ;
#144 = DIRECTION ( 'NONE',  ( 0.000000000000000000, 0.000000000000000000, 1.000000000000000000 ) ) ;
#145 = DIRECTION ( 'NONE',  ( 0.000000000000000000, -1.000000000000000000, 0.000000000000000000 ) ) ;
#146 = EDGE_LOOP ( 'NONE', ( #215, #206, #252, #323 ) ) ;
#147 = CIRCLE ( 'NONE', #435, 4.000000000000003553 ) ;
#148 = CIRCLE ( 'NONE', #91, 4.000000000000003553 ) ;
#149 = FILL_AREA_STYLE_COLOUR ( '', #345 ) ;
#150 = DIRECTION ( 'NONE',  ( 1.000000000000000000, 0.000000000000000000, 0.000000000000000000 ) ) ;
#151 = DIRECTION ( 'NONE',  ( 1.000000000000000000, 0.000000000000000000, 0.000000000000000000 ) ) ;
#152 = PRESENTATION_LAYER_ASSIGNMENT (  '', '', ( #137 ) ) ;
#153 =( LENGTH_UNIT ( ) NAMED_UNIT ( * ) SI_UNIT ( .MILLI., .METRE. ) );
#154 = FACE_OUTER_BOUND ( 'NONE', #260, .T. ) ;
#155 = ORIENTED_EDGE ( 'NONE', *, *, #262, .T. ) ;
#156 = FACE_OUTER_BOUND ( 'NONE', #521, .T. ) ;
#157 = PLANE ( 'NONE',  #81 ) ;
#158 = VERTEX_POINT ( 'NONE', #126 ) ;
#159 = AXIS2_PLACEMENT_3D ( 'NONE', #390, #574, #433 ) ;
#160 = ORIENTED_EDGE ( 'NONE', *, *, #332, .T. ) ;
#161 = CARTESIAN_POINT ( 'NONE',  ( 7.000000000000000000, 7.000000000000000000, 0.000000000000000000 ) ) ;
#162 = APPLICATION_CONTEXT ( 'automotive_design' ) ;
#163 = ORIENTED_EDGE ( 'NONE', *, *, #358, .T. ) ;
#164 = DIRECTION ( 'NONE',  ( 0.000000000000000000, 0.000000000000000000, 1.000000000000000000 ) ) ;
#165 = ORIENTED_EDGE ( 'NONE', *, *, #409, .F. ) ;
#166 = EDGE_CURVE ( 'NONE', #25, #313, #306, .T. ) ;
#167 = PRESENTATION_LAYER_ASSIGNMENT (  '', '', ( #90 ) ) ;
#168 = CARTESIAN_POINT ( 'NONE',  ( 36.00000000000000711, 37.00000000000000000, 0.000000000000000000 ) ) ;
#169 = AXIS2_PLACEMENT_3D ( 'NONE', #363, #456, #501 ) ;
#170 = ORIENTED_EDGE ( 'NONE', *, *, #109, .T. ) ;
#171 = CLOSED_SHELL ( 'NONE', ( #348, #444, #308, #324 ) ) ;
#172 = ORIENTED_EDGE ( 'NONE', *, *, #409, .T. ) ;
#173 = FILL_AREA_STYLE_COLOUR ( '', #289 ) ;
#174 = CARTESIAN_POINT ( 'NONE',  ( 2.999999999999994671, 7.000000000000000000, 0.000000000000000000 ) ) ;
#175 = ORIENTED_EDGE ( 'NONE', *, *, #95, .T. ) ;
#176 = CARTESIAN_POINT ( 'NONE',  ( 11.00000000000000711, 7.000000000000000888, 2.000000000000000000 ) ) ;
#177 = VECTOR ( 'NONE', #591, 1000.000000000000000 ) ;
#178 = UNCERTAINTY_MEASURE_WITH_UNIT (LENGTH_MEASURE( 1.000000000000000082E-05 ), #562, 'distance_accuracy_value', 'NONE');
#179 = VECTOR ( 'NONE', #455, 1000.000000000000000 ) ;
#180 = DIRECTION ( 'NONE',  ( -0.000000000000000000, 0.000000000000000000, 1.000000000000000000 ) ) ;
#181 = ORIENTED_EDGE ( 'NONE', *, *, #482, .T. ) ;
#182 = CYLINDRICAL_SURFACE ( 'NONE', #496, 4.000000000000007105 ) ;
#183 = EDGE_CURVE ( 'NONE', #535, #427, #82, .T. ) ;
#184 = FACE_OUTER_BOUND ( 'NONE', #209, .T. ) ;
#185 = CARTESIAN_POINT ( 'NONE',  ( 0.000000000000000000, -2.446231151670419379E-15, -2.000000000000000000 ) ) ;
#186 = EDGE_CURVE ( 'NONE', #484, #356, #147, .T. ) ;
#187 = FACE_OUTER_BOUND ( 'NONE', #146, .T. ) ;
#188 = CARTESIAN_POINT ( 'NONE',  ( 39.00000000000000000, 45.00000000000000000, 0.000000000000000000 ) ) ;
#189 = DIRECTION ( 'NONE',  ( 1.000000000000000000, 0.000000000000000000, -0.000000000000000000 ) ) ;
#190 = DIRECTION ( 'NONE',  ( -0.000000000000000000, -0.000000000000000000, -1.000000000000000000 ) ) ;
#191 = ORIENTED_EDGE ( 'NONE', *, *, #166, .F. ) ;
#192 = CARTESIAN_POINT ( 'NONE',  ( 7.000000000000000000, 7.000000000000000000, 2.000000000000000000 ) ) ;
#193 = CARTESIAN_POINT ( 'NONE',  ( 39.00000000000000000, -2.446231151670419379E-15, -2.000000000000000000 ) ) ;
#194 = FACE_OUTER_BOUND ( 'NONE', #494, .T. ) ;
#195 = CARTESIAN_POINT ( 'NONE',  ( 32.00000000000000000, 37.00000000000000000, 2.000000000000000000 ) ) ;
#196 = ADVANCED_FACE ( 'NONE', ( #184 ), #543, .T. ) ;
#197 = AXIS2_PLACEMENT_3D ( 'NONE', #443, #303, #89 ) ;
#198 = DIRECTION ( 'NONE',  ( 1.000000000000000000, 0.000000000000000000, 0.000000000000000000 ) ) ;
#199 = DIRECTION ( 'NONE',  ( 1.000000000000000000, 0.000000000000000000, 0.000000000000000000 ) ) ;
#200 = PLANE ( 'NONE',  #45 ) ;
#201 = LINE ( 'NONE', #382, #112 ) ;
#202 = ORIENTED_EDGE ( 'NONE', *, *, #298, .F. ) ;
#203 =( GEOMETRIC_REPRESENTATION_CONTEXT ( 3 ) GLOBAL_UNCERTAINTY_ASSIGNED_CONTEXT ( ( #272 ) ) GLOBAL_UNIT_ASSIGNED_CONTEXT ( ( #153, #135, #498 ) ) REPRESENTATION_CONTEXT ( 'NONE', 'WORKASPACE' ) );
#204 = CARTESIAN_POINT ( 'NONE',  ( 32.00000000000000000, 37.00000000000000000, 2.000000000000000000 ) ) ;
#205 = AXIS2_PLACEMENT_3D ( 'NONE', #540, #305, #307 ) ;
#206 = ORIENTED_EDGE ( 'NONE', *, *, #519, .F. ) ;
#207 = VECTOR ( 'NONE', #415, 1000.000000000000000 ) ;
#208 = DIRECTION ( 'NONE',  ( 0.000000000000000000, 0.000000000000000000, 1.000000000000000000 ) ) ;
#209 = EDGE_LOOP ( 'NONE', ( #155, #473 ) ) ;
#210 = CARTESIAN_POINT ( 'NONE',  ( 27.99999999999999289, 37.00000000000000000, 0.000000000000000000 ) ) ;
#211 = ORIENTED_EDGE ( 'NONE', *, *, #318, .T. ) ;
#212 = CARTESIAN_POINT ( 'NONE',  ( 2.999999999999993783, 37.00000000000000000, 0.000000000000000000 ) ) ;
#213 = AXIS2_PLACEMENT_3D ( 'NONE', #236, #145, #467 ) ;
#214 = ORIENTED_EDGE ( 'NONE', *, *, #30, .T. ) ;
#215 = ORIENTED_EDGE ( 'NONE', *, *, #365, .T. ) ;
#216 = DIRECTION ( 'NONE',  ( 0.000000000000000000, 1.000000000000000000, -0.000000000000000000 ) ) ;
#217 = DIRECTION ( 'NONE',  ( -0.000000000000000000, -0.000000000000000000, -1.000000000000000000 ) ) ;
#218 =( LENGTH_UNIT ( ) NAMED_UNIT ( * ) SI_UNIT ( .MILLI., .METRE. ) );
#219 = FACE_OUTER_BOUND ( 'NONE', #15, .T. ) ;
#220 = AXIS2_PLACEMENT_3D ( 'NONE', #204, #164, #343 ) ;
#221 = DIRECTION ( 'NONE',  ( 0.000000000000000000, 0.000000000000000000, 1.000000000000000000 ) ) ;
#222 = VERTEX_POINT ( 'NONE', #557 ) ;
#223 = FILL_AREA_STYLE_COLOUR ( '', #335 ) ;
#224 = VERTEX_POINT ( 'NONE', #367 ) ;
#225 = FACE_OUTER_BOUND ( 'NONE', #24, .T. ) ;
#226 = EDGE_CURVE ( 'NONE', #158, #497, #548, .T. ) ;
#227 = CARTESIAN_POINT ( 'NONE',  ( 39.00000000000000000, 45.00000000000000000, -2.000000000000000000 ) ) ;
#228 = SURFACE_STYLE_USAGE ( .BOTH. , #239 ) ;
#229 = CIRCLE ( 'NONE', #267, 4.000000000000003553 ) ;
#230 = DIRECTION ( 'NONE',  ( -0.000000000000000000, -0.000000000000000000, -1.000000000000000000 ) ) ;
#231 = APPLICATION_PROTOCOL_DEFINITION ( 'draft international standard', 'automotive_design', 1998, #162 ) ;
#232 = MANIFOLD_SOLID_BREP ( '凸台-拉伸2', #106 ) ;
#233 = EDGE_CURVE ( 'NONE', #356, #484, #61, .T. ) ;
#234 = PLANE ( 'NONE',  #49 ) ;
#235 = DIRECTION ( 'NONE',  ( 0.000000000000000000, 0.000000000000000000, 1.000000000000000000 ) ) ;
#236 = CARTESIAN_POINT ( 'NONE',  ( 0.000000000000000000, -2.446231151670419379E-15, -2.000000000000000000 ) ) ;
#237 = CIRCLE ( 'NONE', #395, 4.000000000000006217 ) ;
#238 = PRESENTATION_LAYER_ASSIGNMENT (  '', '', ( #364 ) ) ;
#239 = SURFACE_SIDE_STYLE ('',( #60 ) ) ;
#240 = PRESENTATION_STYLE_ASSIGNMENT (( #464 ) ) ;
#241 =( NAMED_UNIT ( * ) PLANE_ANGLE_UNIT ( ) SI_UNIT ( $, .RADIAN. ) );
#242 = EDGE_CURVE ( 'NONE', #83, #434, #148, .T. ) ;
#243 = DIRECTION ( 'NONE',  ( -0.000000000000000000, -0.000000000000000000, -1.000000000000000000 ) ) ;
#244 = ORIENTED_EDGE ( 'NONE', *, *, #186, .T. ) ;
#245 = ADVANCED_FACE ( 'NONE', ( #96 ), #277, .T. ) ;
#246 = MANIFOLD_SOLID_BREP ( '凸台-拉伸1[3]', #27 ) ;
#247 = CARTESIAN_POINT ( 'NONE',  ( 0.000000000000000000, 45.00000000000000000, 0.000000000000000000 ) ) ;
#248 = VERTEX_POINT ( 'NONE', #576 ) ;
#249 = ORIENTED_EDGE ( 'NONE', *, *, #588, .T. ) ;
#250 = CARTESIAN_POINT ( 'NONE',  ( 32.00000000000000000, 7.000000000000000000, 2.000000000000000000 ) ) ;
#251 = EDGE_CURVE ( 'NONE', #434, #118, #46, .T. ) ;
#252 = ORIENTED_EDGE ( 'NONE', *, *, #117, .F. ) ;
#253 = DIRECTION ( 'NONE',  ( 1.000000000000000000, 0.000000000000000000, -0.000000000000000000 ) ) ;
#254 = ORIENTED_EDGE ( 'NONE', *, *, #387, .F. ) ;
#255 = CIRCLE ( 'NONE', #266, 4.000000000000003553 ) ;
#256 = ORIENTED_EDGE ( 'NONE', *, *, #183, .T. ) ;
#257 = COLOUR_RGB ( '',0.7921568627450980005, 0.8196078431372548767, 0.9333333333333333481 ) ;
#258 = ORIENTED_EDGE ( 'NONE', *, *, #251, .F. ) ;
#259 = FACE_OUTER_BOUND ( 'NONE', #384, .T. ) ;
#260 = EDGE_LOOP ( 'NONE', ( #264, #349, #432, #302 ) ) ;
#261 = CARTESIAN_POINT ( 'NONE',  ( 7.000000000000000000, 37.00000000000000000, 2.000000000000000000 ) ) ;
#262 = EDGE_CURVE ( 'NONE', #248, #573, #468, .T. ) ;
#263 = AXIS2_PLACEMENT_3D ( 'NONE', #441, #129, #189 ) ;
#264 = ORIENTED_EDGE ( 'NONE', *, *, #318, .F. ) ;
#265 = CARTESIAN_POINT ( 'NONE',  ( 27.99999999999999289, 37.00000000000000000, 2.000000000000000000 ) ) ;
#266 = AXIS2_PLACEMENT_3D ( 'NONE', #430, #294, #426 ) ;
#267 = AXIS2_PLACEMENT_3D ( 'NONE', #320, #278, #461 ) ;
#268 = DIRECTION ( 'NONE',  ( -0.000000000000000000, -0.000000000000000000, -1.000000000000000000 ) ) ;
#269 = LINE ( 'NONE', #265, #286 ) ;
#270 = CARTESIAN_POINT ( 'NONE',  ( -0.000000000000000000, 45.00000000000000000, 0.000000000000000000 ) ) ;
#271 = SURFACE_STYLE_USAGE ( .BOTH. , #405 ) ;
#272 = UNCERTAINTY_MEASURE_WITH_UNIT (LENGTH_MEASURE( 1.000000000000000082E-05 ), #153, 'distance_accuracy_value', 'NONE');
#273 = ADVANCED_BREP_SHAPE_REPRESENTATION ( '\X2\96f64ef6\X0\1', ( #29, #36, #246, #439, #232, #582 ), #437 ) ;
#274 = DIRECTION ( 'NONE',  ( 1.000000000000000000, -0.000000000000000000, 0.000000000000000000 ) ) ;
#275 = FACE_OUTER_BOUND ( 'NONE', #297, .T. ) ;
#276 = ADVANCED_FACE ( 'NONE', ( #156 ), #295, .T. ) ;
#277 = PLANE ( 'NONE',  #410 ) ;
#278 = DIRECTION ( 'NONE',  ( 0.000000000000000000, 0.000000000000000000, 1.000000000000000000 ) ) ;
#279 = FACE_OUTER_BOUND ( 'NONE', #442, .T. ) ;
#280 = DIRECTION ( 'NONE',  ( -1.000000000000000000, 0.000000000000000000, 0.000000000000000000 ) ) ;
#281 = LINE ( 'NONE', #193, #71 ) ;
#282 = FILL_AREA_STYLE_COLOUR ( '', #569 ) ;
#283 = LINE ( 'NONE', #379, #207 ) ;
#284 = LINE ( 'NONE', #10, #113 ) ;
#285 = EDGE_CURVE ( 'NONE', #434, #83, #436, .T. ) ;
#286 = VECTOR ( 'NONE', #43, 1000.000000000000000 ) ;
#287 = FACE_OUTER_BOUND ( 'NONE', #530, .T. ) ;
#288 = CARTESIAN_POINT ( 'NONE',  ( 7.000000000000000000, 7.000000000000000000, 2.000000000000000000 ) ) ;
#289 = COLOUR_RGB ( '',0.7921568627450980005, 0.8196078431372548767, 0.9333333333333333481 ) ;
#290 = CARTESIAN_POINT ( 'NONE',  ( 32.00000000000000000, 7.000000000000000000, 2.000000000000000000 ) ) ;
#291 = ORIENTED_EDGE ( 'NONE', *, *, #186, .F. ) ;
#292 = VERTEX_POINT ( 'NONE', #247 ) ;
#293 = EDGE_CURVE ( 'NONE', #248, #123, #529, .T. ) ;
#294 = DIRECTION ( 'NONE',  ( 0.000000000000000000, 0.000000000000000000, 1.000000000000000000 ) ) ;
#295 = PLANE ( 'NONE',  #159 ) ;
#296 = EDGE_LOOP ( 'NONE', ( #114, #370, #342, #249 ) ) ;
#297 = EDGE_LOOP ( 'NONE', ( #589, #211, #546, #542 ) ) ;
#298 = EDGE_CURVE ( 'NONE', #222, #224, #255, .T. ) ;
#299 = VECTOR ( 'NONE', #449, 1000.000000000000000 ) ;
#300 = VECTOR ( 'NONE', #527, 1000.000000000000000 ) ;
#301 = CARTESIAN_POINT ( 'NONE',  ( 36.00000000000000711, 7.000000000000000888, 2.000000000000000000 ) ) ;
#302 = ORIENTED_EDGE ( 'NONE', *, *, #125, .T. ) ;
#303 = DIRECTION ( 'NONE',  ( 0.000000000000000000, 0.000000000000000000, 1.000000000000000000 ) ) ;
#304 = DIRECTION ( 'NONE',  ( 1.000000000000000000, 0.000000000000000000, 0.000000000000000000 ) ) ;
#305 = DIRECTION ( 'NONE',  ( 0.000000000000000000, 0.000000000000000000, 1.000000000000000000 ) ) ;
#306 = LINE ( 'NONE', #493, #531 ) ;
#307 = DIRECTION ( 'NONE',  ( 1.000000000000000000, 0.000000000000000000, 0.000000000000000000 ) ) ;
#308 = ADVANCED_FACE ( 'NONE', ( #523 ), #479, .T. ) ;
#309 = DIRECTION ( 'NONE',  ( 0.000000000000000000, 0.000000000000000000, 1.000000000000000000 ) ) ;
#310 = VERTEX_POINT ( 'NONE', #210 ) ;
#311 = CARTESIAN_POINT ( 'NONE',  ( 39.00000000000000000, 0.000000000000000000, -2.000000000000000000 ) ) ;
#312 = CLOSED_SHELL ( 'NONE', ( #39, #79, #196, #500 ) ) ;
#313 = VERTEX_POINT ( 'NONE', #393 ) ;
#314 =( LENGTH_UNIT ( ) NAMED_UNIT ( * ) SI_UNIT ( .MILLI., .METRE. ) );
#315 = SURFACE_SIDE_STYLE ('',( #418 ) ) ;
#316 = DIRECTION ( 'NONE',  ( 1.000000000000000000, 0.000000000000000000, -0.000000000000000000 ) ) ;
#317 = FACE_OUTER_BOUND ( 'NONE', #556, .T. ) ;
#318 = EDGE_CURVE ( 'NONE', #476, #509, #331, .T. ) ;
#319 = EDGE_LOOP ( 'NONE', ( #120, #407, #181, #165 ) ) ;
#320 = CARTESIAN_POINT ( 'NONE',  ( 32.00000000000000000, 7.000000000000000000, 0.000000000000000000 ) ) ;
#321 = DIRECTION ( 'NONE',  ( 0.000000000000000000, 0.000000000000000000, 1.000000000000000000 ) ) ;
#322 = CIRCLE ( 'NONE', #401, 4.000000000000006217 ) ;
#323 = ORIENTED_EDGE ( 'NONE', *, *, #166, .T. ) ;
#324 = ADVANCED_FACE ( 'NONE', ( #75 ), #200, .F. ) ;
#325 = DIRECTION ( 'NONE',  ( 0.000000000000000000, 0.000000000000000000, -1.000000000000000000 ) ) ;
#326 = CARTESIAN_POINT ( 'NONE',  ( 7.000000000000000000, 7.000000000000000000, 0.000000000000000000 ) ) ;
#327 = LINE ( 'NONE', #54, #522 ) ;
#328 = CARTESIAN_POINT ( 'NONE',  ( 7.000000000000000000, 37.00000000000000000, 2.000000000000000000 ) ) ;
#329 = CARTESIAN_POINT ( 'NONE',  ( 7.000000000000000000, 37.00000000000000000, 0.000000000000000000 ) ) ;
#330 = ORIENTED_EDGE ( 'NONE', *, *, #293, .T. ) ;
#331 = LINE ( 'NONE', #481, #558 ) ;
#332 = EDGE_CURVE ( 'NONE', #313, #535, #516, .T. ) ;
#333 = LINE ( 'NONE', #270, #179 ) ;
#334 = DIRECTION ( 'NONE',  ( -0.000000000000000000, -0.000000000000000000, -1.000000000000000000 ) ) ;
#335 = COLOUR_RGB ( '',0.7921568627450980005, 0.8196078431372548767, 0.9333333333333333481 ) ;
#336 = LINE ( 'NONE', #450, #337 ) ;
#337 = VECTOR ( 'NONE', #495, 1000.000000000000000 ) ;
#338 = CARTESIAN_POINT ( 'NONE',  ( 0.000000000000000000, -2.446231151670419379E-15, 0.000000000000000000 ) ) ;
#339 = ORIENTED_EDGE ( 'NONE', *, *, #226, .F. ) ;
#340 =( NAMED_UNIT ( * ) SI_UNIT ( $, .STERADIAN. ) SOLID_ANGLE_UNIT ( ) );
#341 = CARTESIAN_POINT ( 'NONE',  ( 2.999999999999994671, 7.000000000000000000, 2.000000000000000000 ) ) ;
#342 = ORIENTED_EDGE ( 'NONE', *, *, #387, .T. ) ;
#343 = DIRECTION ( 'NONE',  ( 1.000000000000000000, 0.000000000000000000, 0.000000000000000000 ) ) ;
#344 = ORIENTED_EDGE ( 'NONE', *, *, #588, .F. ) ;
#345 = COLOUR_RGB ( '',0.7921568627450980005, 0.8196078431372548767, 0.9333333333333333481 ) ;
#346 =( NAMED_UNIT ( * ) PLANE_ANGLE_UNIT ( ) SI_UNIT ( $, .RADIAN. ) );
#347 = EDGE_LOOP ( 'NONE', ( #563, #127, #76, #254 ) ) ;
#348 = ADVANCED_FACE ( 'NONE', ( #287 ), #470, .T. ) ;
#349 = ORIENTED_EDGE ( 'NONE', *, *, #109, .F. ) ;
#350 = ORIENTED_EDGE ( 'NONE', *, *, #285, .T. ) ;
#351 = DIRECTION ( 'NONE',  ( 1.000000000000000000, 0.000000000000000000, -0.000000000000000000 ) ) ;
#352 = VECTOR ( 'NONE', #216, 1000.000000000000000 ) ;
#353 = PLANE ( 'NONE',  #561 ) ;
#354 = DIRECTION ( 'NONE',  ( -1.000000000000000000, 0.000000000000000000, 0.000000000000000000 ) ) ;
#355 = AXIS2_PLACEMENT_3D ( 'NONE', #31, #596, #304 ) ;
#356 = VERTEX_POINT ( 'NONE', #14 ) ;
#357 = PLANE ( 'NONE',  #169 ) ;
#358 = EDGE_CURVE ( 'NONE', #25, #78, #201, .T. ) ;
#359 = DIRECTION ( 'NONE',  ( 1.000000000000000000, 0.000000000000000000, 0.000000000000000000 ) ) ;
#360 = SURFACE_SIDE_STYLE ('',( #362 ) ) ;
#361 =( NAMED_UNIT ( * ) PLANE_ANGLE_UNIT ( ) SI_UNIT ( $, .RADIAN. ) );
#362 = SURFACE_STYLE_FILL_AREA ( #404 ) ;
#363 = CARTESIAN_POINT ( 'NONE',  ( 32.00000000000000000, 37.00000000000000000, 2.000000000000000000 ) ) ;
#364 = STYLED_ITEM ( 'NONE', ( #487 ), #439 ) ;
#365 = EDGE_CURVE ( 'NONE', #313, #292, #492, .T. ) ;
#366 = FACE_OUTER_BOUND ( 'NONE', #396, .T. ) ;
#367 = CARTESIAN_POINT ( 'NONE',  ( 36.00000000000000711, 7.000000000000000888, 0.000000000000000000 ) ) ;
#368 = DIRECTION ( 'NONE',  ( 0.000000000000000000, 0.000000000000000000, 1.000000000000000000 ) ) ;
#369 = FACE_OUTER_BOUND ( 'NONE', #74, .T. ) ;
#370 = ORIENTED_EDGE ( 'NONE', *, *, #537, .F. ) ;
#371 = CARTESIAN_POINT ( 'NONE',  ( 27.99999999999999289, 37.00000000000000000, 2.000000000000000000 ) ) ;
#372 = CARTESIAN_POINT ( 'NONE',  ( 11.00000000000000711, 37.00000000000000000, 2.000000000000000000 ) ) ;
#373 = PRESENTATION_LAYER_ASSIGNMENT (  '', '', ( #485 ) ) ;
#374 = CIRCLE ( 'NONE', #403, 4.000000000000006217 ) ;
#375 = EDGE_CURVE ( 'NONE', #110, #394, #336, .T. ) ;
#376 = DIRECTION ( 'NONE',  ( 0.000000000000000000, 0.000000000000000000, 1.000000000000000000 ) ) ;
#377 =( LENGTH_UNIT ( ) NAMED_UNIT ( * ) SI_UNIT ( .MILLI., .METRE. ) );
#378 = ORIENTED_EDGE ( 'NONE', *, *, #136, .F. ) ;
#379 = CARTESIAN_POINT ( 'NONE',  ( 11.00000000000000711, 37.00000000000000000, 2.000000000000000000 ) ) ;
#380 = CARTESIAN_POINT ( 'NONE',  ( 11.00000000000000711, 7.000000000000000888, 0.000000000000000000 ) ) ;
#381 = ORIENTED_EDGE ( 'NONE', *, *, #519, .T. ) ;
#382 = CARTESIAN_POINT ( 'NONE',  ( 0.000000000000000000, -2.446231151670419379E-15, -2.000000000000000000 ) ) ;
#383 = DIRECTION ( 'NONE',  ( 0.000000000000000000, 0.000000000000000000, 1.000000000000000000 ) ) ;
#384 = EDGE_LOOP ( 'NONE', ( #175, #344, #339, #381 ) ) ;
#385 = VECTOR ( 'NONE', #104, 1000.000000000000000 ) ;
#386 = CARTESIAN_POINT ( 'NONE',  ( 36.00000000000000711, 37.00000000000000000, 2.000000000000000000 ) ) ;
#387 = EDGE_CURVE ( 'NONE', #78, #497, #124, .T. ) ;
#388 = AXIS2_PLACEMENT_3D ( 'NONE', #419, #139, #199 ) ;
#389 = EDGE_LOOP ( 'NONE', ( #551, #480 ) ) ;
#390 = CARTESIAN_POINT ( 'NONE',  ( 7.000000000000000000, 7.000000000000000000, 2.000000000000000000 ) ) ;
#391 = ORIENTED_EDGE ( 'NONE', *, *, #136, .T. ) ;
#392 = UNCERTAINTY_MEASURE_WITH_UNIT (LENGTH_MEASURE( 1.000000000000000082E-05 ), #314, 'distance_accuracy_value', 'NONE');
#393 = CARTESIAN_POINT ( 'NONE',  ( 0.000000000000000000, -2.446231151670419379E-15, 0.000000000000000000 ) ) ;
#394 = VERTEX_POINT ( 'NONE', #174 ) ;
#395 = AXIS2_PLACEMENT_3D ( 'NONE', #16, #383, #533 ) ;
#396 = EDGE_LOOP ( 'NONE', ( #584, #526, #399, #429 ) ) ;
#397 = CARTESIAN_POINT ( 'NONE',  ( 0.000000000000000000, 0.000000000000000000, 0.000000000000000000 ) ) ;
#398 =( NAMED_UNIT ( * ) SI_UNIT ( $, .STERADIAN. ) SOLID_ANGLE_UNIT ( ) );
#399 = ORIENTED_EDGE ( 'NONE', *, *, #11, .T. ) ;
#400 = PLANE ( 'NONE',  #580 ) ;
#401 = AXIS2_PLACEMENT_3D ( 'NONE', #161, #221, #359 ) ;
#402 = MECHANICAL_DESIGN_GEOMETRIC_PRESENTATION_REPRESENTATION (  '', ( #485 ), #477 ) ;
#403 = AXIS2_PLACEMENT_3D ( 'NONE', #261, #447, #151 ) ;
#404 = FILL_AREA_STYLE ('',( #173 ) ) ;
#405 = SURFACE_SIDE_STYLE ('',( #453 ) ) ;
#406 = DIRECTION ( 'NONE',  ( 0.000000000000000000, 0.000000000000000000, 1.000000000000000000 ) ) ;
#407 = ORIENTED_EDGE ( 'NONE', *, *, #251, .T. ) ;
#408 = DIRECTION ( 'NONE',  ( 0.000000000000000000, 0.000000000000000000, 1.000000000000000000 ) ) ;
#409 = EDGE_CURVE ( 'NONE', #83, #310, #269, .T. ) ;
#410 = AXIS2_PLACEMENT_3D ( 'NONE', #513, #274, #325 ) ;
#411 = APPLICATION_PROTOCOL_DEFINITION ( 'draft international standard', 'automotive_design', 1998, #440 ) ;
#412 = AXIS2_PLACEMENT_3D ( 'NONE', #328, #5, #507 ) ;
#413 = EDGE_CURVE ( 'NONE', #310, #118, #80, .T. ) ;
#414 = PRESENTATION_STYLE_ASSIGNMENT (( #228 ) ) ;
#415 = DIRECTION ( 'NONE',  ( -0.000000000000000000, -0.000000000000000000, -1.000000000000000000 ) ) ;
#416 = SHAPE_DEFINITION_REPRESENTATION ( #50, #273 ) ;
#417 = CARTESIAN_POINT ( 'NONE',  ( 39.00000000000000000, -2.446231151670419379E-15, -2.000000000000000000 ) ) ;
#418 = SURFACE_STYLE_FILL_AREA ( #511 ) ;
#419 = CARTESIAN_POINT ( 'NONE',  ( 7.000000000000000000, 7.000000000000000000, 0.000000000000000000 ) ) ;
#420 = ADVANCED_FACE ( 'NONE', ( #219 ), #86, .F. ) ;
#421 = AXIS2_PLACEMENT_3D ( 'NONE', #250, #23, #253 ) ;
#422 =( GEOMETRIC_REPRESENTATION_CONTEXT ( 3 ) GLOBAL_UNCERTAINTY_ASSIGNED_CONTEXT ( ( #122 ) ) GLOBAL_UNIT_ASSIGNED_CONTEXT ( ( #218, #499, #398 ) ) REPRESENTATION_CONTEXT ( 'NONE', 'WORKASPACE' ) );
#423 = DIRECTION ( 'NONE',  ( -1.000000000000000000, 0.000000000000000000, 0.000000000000000000 ) ) ;
#424 = ORIENTED_EDGE ( 'NONE', *, *, #51, .F. ) ;
#425 = ADVANCED_FACE ( 'NONE', ( #538 ), #587, .T. ) ;
#426 = DIRECTION ( 'NONE',  ( 1.000000000000000000, 0.000000000000000000, 0.000000000000000000 ) ) ;
#427 = VERTEX_POINT ( 'NONE', #188 ) ;
#428 = MECHANICAL_DESIGN_GEOMETRIC_PRESENTATION_REPRESENTATION (  '', ( #65 ), #422 ) ;
#429 = ORIENTED_EDGE ( 'NONE', *, *, #293, .F. ) ;
#430 = CARTESIAN_POINT ( 'NONE',  ( 32.00000000000000000, 7.000000000000000000, 0.000000000000000000 ) ) ;
#431 = DIRECTION ( 'NONE',  ( 0.000000000000000000, 1.000000000000000000, -0.000000000000000000 ) ) ;
#432 = ORIENTED_EDGE ( 'NONE', *, *, #375, .T. ) ;
#433 = DIRECTION ( 'NONE',  ( 1.000000000000000000, 0.000000000000000000, -0.000000000000000000 ) ) ;
#434 = VERTEX_POINT ( 'NONE', #35 ) ;
#435 = AXIS2_PLACEMENT_3D ( 'NONE', #37, #406, #595 ) ;
#436 = CIRCLE ( 'NONE', #220, 4.000000000000003553 ) ;
#437 =( GEOMETRIC_REPRESENTATION_CONTEXT ( 3 ) GLOBAL_UNCERTAINTY_ASSIGNED_CONTEXT ( ( #599 ) ) GLOBAL_UNIT_ASSIGNED_CONTEXT ( ( #377, #241, #504 ) ) REPRESENTATION_CONTEXT ( 'NONE', 'WORKASPACE' ) );
#438 = PRESENTATION_LAYER_ASSIGNMENT (  '', '', ( #65 ) ) ;
#439 = MANIFOLD_SOLID_BREP ( '凸台-拉伸1[4]', #171 ) ;
#440 = APPLICATION_CONTEXT ( 'automotive_design' ) ;
#441 = CARTESIAN_POINT ( 'NONE',  ( 7.000000000000000000, 37.00000000000000000, 2.000000000000000000 ) ) ;
#442 = EDGE_LOOP ( 'NONE', ( #575, #105 ) ) ;
#443 = CARTESIAN_POINT ( 'NONE',  ( 32.00000000000000000, 37.00000000000000000, 0.000000000000000000 ) ) ;
#444 = ADVANCED_FACE ( 'NONE', ( #225 ), #182, .T. ) ;
#445 = FACE_OUTER_BOUND ( 'NONE', #536, .T. ) ;
#446 = DIRECTION ( 'NONE',  ( 1.000000000000000000, -0.000000000000000000, 0.000000000000000000 ) ) ;
#447 = DIRECTION ( 'NONE',  ( 0.000000000000000000, 0.000000000000000000, 1.000000000000000000 ) ) ;
#448 = AXIS2_PLACEMENT_3D ( 'NONE', #290, #243, #423 ) ;
#449 = DIRECTION ( 'NONE',  ( 0.000000000000000000, 1.000000000000000000, -0.000000000000000000 ) ) ;
#450 = CARTESIAN_POINT ( 'NONE',  ( 2.999999999999994671, 7.000000000000000000, 2.000000000000000000 ) ) ;
#451 = CARTESIAN_POINT ( 'NONE',  ( 32.00000000000000000, 37.00000000000000000, 0.000000000000000000 ) ) ;
#452 = MECHANICAL_DESIGN_GEOMETRIC_PRESENTATION_REPRESENTATION (  '', ( #137 ), #38 ) ;
#453 = SURFACE_STYLE_FILL_AREA ( #597 ) ;
#454 = ADVANCED_FACE ( 'NONE', ( #32 ), #357, .T. ) ;
#455 = DIRECTION ( 'NONE',  ( 1.000000000000000000, 0.000000000000000000, 0.000000000000000000 ) ) ;
#456 = DIRECTION ( 'NONE',  ( 0.000000000000000000, 0.000000000000000000, 1.000000000000000000 ) ) ;
#457 = DIRECTION ( 'NONE',  ( -0.000000000000000000, -0.000000000000000000, -1.000000000000000000 ) ) ;
#458 = DIRECTION ( 'NONE',  ( 1.000000000000000000, 0.000000000000000000, 0.000000000000000000 ) ) ;
#459 = AXIS2_PLACEMENT_3D ( 'NONE', #4, #457, #47 ) ;
#460 =( LENGTH_UNIT ( ) NAMED_UNIT ( * ) SI_UNIT ( .MILLI., .METRE. ) );
#461 = DIRECTION ( 'NONE',  ( 1.000000000000000000, 0.000000000000000000, 0.000000000000000000 ) ) ;
#462 = DIRECTION ( 'NONE',  ( 0.000000000000000000, 0.000000000000000000, 1.000000000000000000 ) ) ;
#463 = ADVANCED_FACE ( 'NONE', ( #259 ), #400, .F. ) ;
#464 = SURFACE_STYLE_USAGE ( .BOTH. , #12 ) ;
#465 = FILL_AREA_STYLE ('',( #282 ) ) ;
#466 = DIRECTION ( 'NONE',  ( 0.000000000000000000, 0.000000000000000000, 1.000000000000000000 ) ) ;
#467 = DIRECTION ( 'NONE',  ( 0.000000000000000000, -0.000000000000000000, -1.000000000000000000 ) ) ;
#468 = CIRCLE ( 'NONE', #1, 4.000000000000006217 ) ;
#469 = AXIS2_PLACEMENT_3D ( 'NONE', #195, #334, #560 ) ;
#470 = CYLINDRICAL_SURFACE ( 'NONE', #448, 4.000000000000007105 ) ;
#471 = DIRECTION ( 'NONE',  ( -0.000000000000000000, -0.000000000000000000, -1.000000000000000000 ) ) ;
#472 = DIRECTION ( 'NONE',  ( 1.000000000000000000, 0.000000000000000000, 0.000000000000000000 ) ) ;
#473 = ORIENTED_EDGE ( 'NONE', *, *, #489, .T. ) ;
#474 = CARTESIAN_POINT ( 'NONE',  ( 0.000000000000000000, 0.000000000000000000, 0.000000000000000000 ) ) ;
#475 = CARTESIAN_POINT ( 'NONE',  ( 7.000000000000000000, 37.00000000000000000, 2.000000000000000000 ) ) ;
#476 = VERTEX_POINT ( 'NONE', #176 ) ;
#477 =( GEOMETRIC_REPRESENTATION_CONTEXT ( 3 ) GLOBAL_UNCERTAINTY_ASSIGNED_CONTEXT ( ( #33 ) ) GLOBAL_UNIT_ASSIGNED_CONTEXT ( ( #460, #346, #340 ) ) REPRESENTATION_CONTEXT ( 'NONE', 'WORKASPACE' ) );
#478 = CIRCLE ( 'NONE', #205, 4.000000000000003553 ) ;
#479 = PLANE ( 'NONE',  #421 ) ;
#480 = ORIENTED_EDGE ( 'NONE', *, *, #58, .F. ) ;
#481 = CARTESIAN_POINT ( 'NONE',  ( 11.00000000000000711, 7.000000000000000888, 2.000000000000000000 ) ) ;
#482 = EDGE_CURVE ( 'NONE', #118, #310, #478, .T. ) ;
#483 = ORIENTED_EDGE ( 'NONE', *, *, #365, .F. ) ;
#484 = VERTEX_POINT ( 'NONE', #491 ) ;
#485 = STYLED_ITEM ( 'NONE', ( #414 ), #246 ) ;
#486 = ORIENTED_EDGE ( 'NONE', *, *, #413, .F. ) ;
#487 = PRESENTATION_STYLE_ASSIGNMENT (( #271 ) ) ;
#488 = CIRCLE ( 'NONE', #592, 4.000000000000006217 ) ;
#489 = EDGE_CURVE ( 'NONE', #573, #248, #374, .T. ) ;
#490 = ORIENTED_EDGE ( 'NONE', *, *, #262, .F. ) ;
#491 = CARTESIAN_POINT ( 'NONE',  ( 36.00000000000000711, 7.000000000000000888, 2.000000000000000000 ) ) ;
#492 = LINE ( 'NONE', #474, #177 ) ;
#493 = CARTESIAN_POINT ( 'NONE',  ( 0.000000000000000000, -2.446231151670419379E-15, -2.000000000000000000 ) ) ;
#494 = EDGE_LOOP ( 'NONE', ( #570, #490, #330, #214 ) ) ;
#495 = DIRECTION ( 'NONE',  ( -0.000000000000000000, -0.000000000000000000, -1.000000000000000000 ) ) ;
#496 = AXIS2_PLACEMENT_3D ( 'NONE', #84, #217, #354 ) ;
#497 = VERTEX_POINT ( 'NONE', #227 ) ;
#498 =( NAMED_UNIT ( * ) SI_UNIT ( $, .STERADIAN. ) SOLID_ANGLE_UNIT ( ) );
#499 =( NAMED_UNIT ( * ) PLANE_ANGLE_UNIT ( ) SI_UNIT ( $, .RADIAN. ) );
#500 = ADVANCED_FACE ( 'NONE', ( #279 ), #101, .F. ) ;
#501 = DIRECTION ( 'NONE',  ( 1.000000000000000000, 0.000000000000000000, -0.000000000000000000 ) ) ;
#502 = DIRECTION ( 'NONE',  ( 1.000000000000000000, 0.000000000000000000, 0.000000000000000000 ) ) ;
#503 = CYLINDRICAL_SURFACE ( 'NONE', #412, 4.000000000000006217 ) ;
#504 =( NAMED_UNIT ( * ) SI_UNIT ( $, .STERADIAN. ) SOLID_ANGLE_UNIT ( ) );
#505 = ORIENTED_EDGE ( 'NONE', *, *, #332, .F. ) ;
#506 = MECHANICAL_DESIGN_GEOMETRIC_PRESENTATION_REPRESENTATION (  '', ( #364 ), #9 ) ;
#507 = DIRECTION ( 'NONE',  ( -1.000000000000000000, 0.000000000000000000, 0.000000000000000000 ) ) ;
#508 = CYLINDRICAL_SURFACE ( 'NONE', #469, 4.000000000000007105 ) ;
#509 = VERTEX_POINT ( 'NONE', #380 ) ;
#510 = AXIS2_PLACEMENT_3D ( 'NONE', #192, #368, #472 ) ;
#511 = FILL_AREA_STYLE ('',( #149 ) ) ;
#512 = CYLINDRICAL_SURFACE ( 'NONE', #459, 4.000000000000005329 ) ;
#513 = CARTESIAN_POINT ( 'NONE',  ( 39.00000000000000000, 0.000000000000000000, -2.000000000000000000 ) ) ;
#514 = FACE_OUTER_BOUND ( 'NONE', #347, .T. ) ;
#515 = DIRECTION ( 'NONE',  ( 1.000000000000000000, 0.000000000000000000, -0.000000000000000000 ) ) ;
#516 = LINE ( 'NONE', #338, #385 ) ;
#517 = DIRECTION ( 'NONE',  ( 1.000000000000000000, 0.000000000000000000, 0.000000000000000000 ) ) ;
#518 = DIRECTION ( 'NONE',  ( -0.000000000000000000, -0.000000000000000000, -1.000000000000000000 ) ) ;
#519 = EDGE_CURVE ( 'NONE', #158, #292, #6, .T. ) ;
#520 = AXIS2_PLACEMENT_3D ( 'NONE', #138, #8, #198 ) ;
#521 = EDGE_LOOP ( 'NONE', ( #170, #59 ) ) ;
#522 = VECTOR ( 'NONE', #235, 1000.000000000000000 ) ;
#523 = FACE_OUTER_BOUND ( 'NONE', #68, .T. ) ;
#524 = PRODUCT_RELATED_PRODUCT_CATEGORY ( 'part', '', ( #67 ) ) ;
#525 = EDGE_CURVE ( 'NONE', #356, #222, #284, .T. ) ;
#526 = ORIENTED_EDGE ( 'NONE', *, *, #92, .T. ) ;
#527 = DIRECTION ( 'NONE',  ( -0.000000000000000000, -0.000000000000000000, -1.000000000000000000 ) ) ;
#528 = ORIENTED_EDGE ( 'NONE', *, *, #298, .T. ) ;
#529 = LINE ( 'NONE', #111, #17 ) ;
#530 = EDGE_LOOP ( 'NONE', ( #291, #391, #121, #130 ) ) ;
#531 = VECTOR ( 'NONE', #309, 1000.000000000000000 ) ;
#532 = ADVANCED_FACE ( 'NONE', ( #317 ), #508, .T. ) ;
#533 = DIRECTION ( 'NONE',  ( 1.000000000000000000, 0.000000000000000000, 0.000000000000000000 ) ) ;
#534 = VERTEX_POINT ( 'NONE', #103 ) ;
#535 = VERTEX_POINT ( 'NONE', #57 ) ;
#536 = EDGE_LOOP ( 'NONE', ( #160, #256, #578, #483 ) ) ;
#537 = EDGE_CURVE ( 'NONE', #78, #535, #281, .T. ) ;
#538 = FACE_OUTER_BOUND ( 'NONE', #319, .T. ) ;
#539 = DIRECTION ( 'NONE',  ( 0.000000000000000000, 0.000000000000000000, -1.000000000000000000 ) ) ;
#540 = CARTESIAN_POINT ( 'NONE',  ( 32.00000000000000000, 37.00000000000000000, 0.000000000000000000 ) ) ;
#541 = DIRECTION ( 'NONE',  ( 1.000000000000000000, 0.000000000000000000, 0.000000000000000000 ) ) ;
#542 = ORIENTED_EDGE ( 'NONE', *, *, #375, .F. ) ;
#543 = PLANE ( 'NONE',  #263 ) ;
#544 = ORIENTED_EDGE ( 'NONE', *, *, #525, .T. ) ;
#545 = VECTOR ( 'NONE', #554, 1000.000000000000000 ) ;
#546 = ORIENTED_EDGE ( 'NONE', *, *, #58, .T. ) ;
#547 = CARTESIAN_POINT ( 'NONE',  ( 32.00000000000000000, 37.00000000000000000, 2.000000000000000000 ) ) ;
#548 = LINE ( 'NONE', #52, #7 ) ;
#549 = DIRECTION ( 'NONE',  ( -0.000000000000000000, 0.000000000000000000, 1.000000000000000000 ) ) ;
#550 = CARTESIAN_POINT ( 'NONE',  ( 0.000000000000000000, 0.000000000000000000, 0.000000000000000000 ) ) ;
#551 = ORIENTED_EDGE ( 'NONE', *, *, #125, .F. ) ;
#552 = SURFACE_STYLE_USAGE ( .BOTH. , #315 ) ;
#553 = FILL_AREA_STYLE ('',( #559 ) ) ;
#554 = DIRECTION ( 'NONE',  ( 0.000000000000000000, 0.000000000000000000, 1.000000000000000000 ) ) ;
#555 = ADVANCED_FACE ( 'NONE', ( #154 ), #100, .T. ) ;
#556 = EDGE_LOOP ( 'NONE', ( #258, #142, #172, #28 ) ) ;
#557 = CARTESIAN_POINT ( 'NONE',  ( 27.99999999999999289, 7.000000000000000000, 0.000000000000000000 ) ) ;
#558 = VECTOR ( 'NONE', #471, 1000.000000000000000 ) ;
#559 = FILL_AREA_STYLE_COLOUR ( '', #257 ) ;
#560 = DIRECTION ( 'NONE',  ( -1.000000000000000000, 0.000000000000000000, 0.000000000000000000 ) ) ;
#561 = AXIS2_PLACEMENT_3D ( 'NONE', #593, #446, #539 ) ;
#562 =( LENGTH_UNIT ( ) NAMED_UNIT ( * ) SI_UNIT ( .MILLI., .METRE. ) );
#563 = ORIENTED_EDGE ( 'NONE', *, *, #358, .F. ) ;
#564 = CARTESIAN_POINT ( 'NONE',  ( 32.00000000000000000, 7.000000000000000000, 0.000000000000000000 ) ) ;
#565 =( NAMED_UNIT ( * ) PLANE_ANGLE_UNIT ( ) SI_UNIT ( $, .RADIAN. ) );
#566 = CARTESIAN_POINT ( 'NONE',  ( 0.000000000000000000, 45.00000000000000000, -2.000000000000000000 ) ) ;
#567 = DIRECTION ( 'NONE',  ( 1.000000000000000000, 0.000000000000000000, 0.000000000000000000 ) ) ;
#568 = AXIS2_PLACEMENT_3D ( 'NONE', #397, #180, #541 ) ;
#569 = COLOUR_RGB ( '',0.7921568627450980005, 0.8196078431372548767, 0.9333333333333333481 ) ;
#570 = ORIENTED_EDGE ( 'NONE', *, *, #92, .F. ) ;
#571 = DIRECTION ( 'NONE',  ( -0.000000000000000000, -0.000000000000000000, -1.000000000000000000 ) ) ;
#572 = CIRCLE ( 'NONE', #388, 4.000000000000006217 ) ;
#573 = VERTEX_POINT ( 'NONE', #372 ) ;
#574 = DIRECTION ( 'NONE',  ( 0.000000000000000000, 0.000000000000000000, 1.000000000000000000 ) ) ;
#575 = ORIENTED_EDGE ( 'NONE', *, *, #30, .F. ) ;
#576 = CARTESIAN_POINT ( 'NONE',  ( 2.999999999999993783, 37.00000000000000000, 2.000000000000000000 ) ) ;
#577 = LINE ( 'NONE', #21, #116 ) ;
#578 = ORIENTED_EDGE ( 'NONE', *, *, #95, .F. ) ;
#579 = MECHANICAL_DESIGN_GEOMETRIC_PRESENTATION_REPRESENTATION (  '', ( #90 ), #203 ) ;
#580 = AXIS2_PLACEMENT_3D ( 'NONE', #128, #94, #590 ) ;
#581 = ADVANCED_FACE ( 'NONE', ( #369 ), #98, .T. ) ;
#582 = AXIS2_PLACEMENT_3D ( 'NONE', #550, #141, #458 ) ;
#583 = CLOSED_SHELL ( 'NONE', ( #425, #532, #454, #420 ) ) ;
#584 = ORIENTED_EDGE ( 'NONE', *, *, #489, .F. ) ;
#585 = PLANE ( 'NONE',  #568 ) ;
#586 = EDGE_LOOP ( 'NONE', ( #202, #424 ) ) ;
#587 = CYLINDRICAL_SURFACE ( 'NONE', #26, 4.000000000000007105 ) ;
#588 = EDGE_CURVE ( 'NONE', #497, #427, #327, .T. ) ;
#589 = ORIENTED_EDGE ( 'NONE', *, *, #119, .F. ) ;
#590 = DIRECTION ( 'NONE',  ( 0.000000000000000000, -0.000000000000000000, -1.000000000000000000 ) ) ;
#591 = DIRECTION ( 'NONE',  ( 0.000000000000000000, 1.000000000000000000, -0.000000000000000000 ) ) ;
#592 = AXIS2_PLACEMENT_3D ( 'NONE', #85, #144, #517 ) ;
#593 = CARTESIAN_POINT ( 'NONE',  ( 0.000000000000000000, 0.000000000000000000, -2.000000000000000000 ) ) ;
#594 =( NAMED_UNIT ( * ) SI_UNIT ( $, .STERADIAN. ) SOLID_ANGLE_UNIT ( ) );
#595 = DIRECTION ( 'NONE',  ( 1.000000000000000000, 0.000000000000000000, 0.000000000000000000 ) ) ;
#596 = DIRECTION ( 'NONE',  ( 0.000000000000000000, 0.000000000000000000, 1.000000000000000000 ) ) ;
#597 = FILL_AREA_STYLE ('',( #223 ) ) ;
#598 = ORIENTED_EDGE ( 'NONE', *, *, #233, .F. ) ;
#599 = UNCERTAINTY_MEASURE_WITH_UNIT (LENGTH_MEASURE( 1.000000000000000082E-05 ), #377, 'distance_accuracy_value', 'NONE');
ENDSEC;
END-ISO-10303-21;
