  0
SECTION
  2
HEADER
  9
$ACADVER
  1
AC1015
  9
$ACADMAINTVER
 70
     6
  9
$DWGCODEPAGE
  3
ANSI_936
  9
$INSBASE
 10
0.0
 20
0.0
 30
0.0
  9
$EXTMIN
 10
6.8299671329
 20
-10.0
 30
0.0
  9
$EXTMAX
 10
79.9008298006
 20
9.8508281399
 30
0.0
  9
$LIMMIN
 10
0.0
 20
0.0
  9
$LIMMAX
 10
420.0
 20
297.0
  9
$ORTHOMODE
 70
     0
  9
$REGENMODE
 70
     1
  9
$FILLMODE
 70
     1
  9
$QTEXTMODE
 70
     0
  9
$MIRRTEXT
 70
     1
  9
$LTSCALE
 40
1.0
  9
$ATTMODE
 70
     1
  9
$TEXTSIZE
 40
3.5
  9
$TRACEWID
 40
1.0
  9
$TEXTSTYLE
  7
Standard
  9
$CLAYER
  8
0
  9
$CELTYPE
  6
ByLayer
  9
$CECOLOR
 62
   256
  9
$CELTSCALE
 40
1.0
  9
$DISPSILH
 70
     0
  9
$DIMSCALE
 40
1.0
  9
$DIMASZ
 40
3.556
  9
$DIMEXO
 40
0.0
  9
$DIMDLI
 40
3.75
  9
$DIMRND
 40
0.0
  9
$DIMDLE
 40
0.0
  9
$DIMEXE
 40
1.0
  9
$DIMTP
 40
0.0
  9
$DIMTM
 40
0.0
  9
$DIMTXT
 40
3.5
  9
$DIMCEN
 40
2.5
  9
$DIMTSZ
 40
0.0
  9
$DIMTOL
 70
     0
  9
$DIMLIM
 70
     0
  9
$DIMTIH
 70
     1
  9
$DIMTOH
 70
     1
  9
$DIMSE1
 70
     0
  9
$DIMSE2
 70
     0
  9
$DIMTAD
 70
     1
  9
$DIMZIN
 70
     1
  9
$DIMBLK
  1

  9
$DIMASO
 70
     1
  9
$DIMSHO
 70
     1
  9
$DIMPOST
  1

  9
$DIMAPOST
  1

  9
$DIMALT
 70
     0
  9
$DIMALTD
 70
     3
  9
$DIMALTF
 40
0.0393700787
  9
$DIMLFAC
 40
1.0
  9
$DIMTOFL
 70
     1
  9
$DIMTVP
 40
0.0
  9
$DIMTIX
 70
     0
  9
$DIMSOXD
 70
     0
  9
$DIMSAH
 70
     0
  9
$DIMBLK1
  1

  9
$DIMBLK2
  1

  9
$DIMSTYLE
  2
ISO-25
  9
$DIMCLRD
 70
     0
  9
$DIMCLRE
 70
     0
  9
$DIMCLRT
 70
     0
  9
$DIMTFAC
 40
1.0
  9
$DIMGAP
 40
1.524
  9
$DIMJUST
 70
     0
  9
$DIMSD1
 70
     0
  9
$DIMSD2
 70
     0
  9
$DIMTOLJ
 70
     0
  9
$DIMTZIN
 70
     1
  9
$DIMALTZ
 70
     0
  9
$DIMALTTZ
 70
     0
  9
$DIMUPT
 70
     0
  9
$DIMDEC
 70
     2
  9
$DIMTDEC
 70
     2
  9
$DIMALTU
 70
     2
  9
$DIMALTTD
 70
     3
  9
$DIMTXSTY
  7
Standard
  9
$DIMAUNIT
 70
     0
  9
$DIMADEC
 70
     2
  9
$DIMALTRND
 40
0.0
  9
$DIMAZIN
 70
     0
  9
$DIMDSEP
 70
    44
  9
$DIMATFIT
 70
     3
  9
$DIMFRAC
 70
     0
  9
$DIMLDRBLK
  1

  9
$DIMLUNIT
 70
     2
  9
$DIMLWD
 70
    -2
  9
$DIMLWE
 70
    -2
  9
$DIMTMOVE
 70
     0
  9
$LUNITS
 70
     2
  9
$LUPREC
 70
     2
  9
$SKETCHINC
 40
1.0
  9
$FILLETRAD
 40
0.0
  9
$AUNITS
 70
     0
  9
$AUPREC
 70
     2
  9
$MENU
  1
.
  9
$ELEVATION
 40
0.0
  9
$PELEVATION
 40
0.0
  9
$THICKNESS
 40
0.0
  9
$LIMCHECK
 70
     0
  9
$CHAMFERA
 40
0.0
  9
$CHAMFERB
 40
0.0
  9
$CHAMFERC
 40
0.0
  9
$CHAMFERD
 40
0.0
  9
$SKPOLY
 70
     0
  9
$TDCREATE
 40
2461083.408863588
  9
$TDUCREATE
 40
2461083.075530255
  9
$TDUPDATE
 40
2461083.408946262
  9
$TDUUPDATE
 40
2461083.075612929
  9
$TDINDWG
 40
0.0000000116
  9
$TDUSRTIMER
 40
0.0000000116
  9
$USRTIMER
 70
     1
  9
$ANGBASE
 50
0.0
  9
$ANGDIR
 70
     0
  9
$PDMODE
 70
     0
  9
$PDSIZE
 40
-1.0
  9
$PLINEWID
 40
0.0
  9
$SPLFRAME
 70
     0
  9
$SPLINETYPE
 70
     6
  9
$SPLINESEGS
 70
     8
  9
$HANDSEED
  5
B9
  9
$SURFTAB1
 70
     6
  9
$SURFTAB2
 70
     6
  9
$SURFTYPE
 70
     6
  9
$SURFU
 70
     6
  9
$SURFV
 70
     6
  9
$UCSBASE
  2

  9
$UCSNAME
  2

  9
$UCSORG
 10
0.0
 20
0.0
 30
0.0
  9
$UCSXDIR
 10
1.0
 20
0.0
 30
0.0
  9
$UCSYDIR
 10
0.0
 20
1.0
 30
0.0
  9
$UCSORTHOREF
  2

  9
$UCSORTHOVIEW
 70
     0
  9
$UCSORGTOP
 10
0.0
 20
0.0
 30
0.0
  9
$UCSORGBOTTOM
 10
0.0
 20
0.0
 30
0.0
  9
$UCSORGLEFT
 10
0.0
 20
0.0
 30
0.0
  9
$UCSORGRIGHT
 10
0.0
 20
0.0
 30
0.0
  9
$UCSORGFRONT
 10
0.0
 20
0.0
 30
0.0
  9
$UCSORGBACK
 10
0.0
 20
0.0
 30
0.0
  9
$PUCSBASE
  2

  9
$PUCSNAME
  2

  9
$PUCSORG
 10
0.0
 20
0.0
 30
0.0
  9
$PUCSXDIR
 10
1.0
 20
0.0
 30
0.0
  9
$PUCSYDIR
 10
0.0
 20
1.0
 30
0.0
  9
$PUCSORTHOREF
  2

  9
$PUCSORTHOVIEW
 70
     0
  9
$PUCSORGTOP
 10
0.0
 20
0.0
 30
0.0
  9
$PUCSORGBOTTOM
 10
0.0
 20
0.0
 30
0.0
  9
$PUCSORGLEFT
 10
0.0
 20
0.0
 30
0.0
  9
$PUCSORGRIGHT
 10
0.0
 20
0.0
 30
0.0
  9
$PUCSORGFRONT
 10
0.0
 20
0.0
 30
0.0
  9
$PUCSORGBACK
 10
0.0
 20
0.0
 30
0.0
  9
$USERI1
 70
     0
  9
$USERI2
 70
     0
  9
$USERI3
 70
     0
  9
$USERI4
 70
     0
  9
$USERI5
 70
     0
  9
$USERR1
 40
0.0
  9
$USERR2
 40
0.0
  9
$USERR3
 40
0.0
  9
$USERR4
 40
0.0
  9
$USERR5
 40
0.0
  9
$WORLDVIEW
 70
     1
  9
$SHADEDGE
 70
     3
  9
$SHADEDIF
 70
    70
  9
$TILEMODE
 70
     1
  9
$MAXACTVP
 70
    64
  9
$PINSBASE
 10
0.0
 20
0.0
 30
0.0
  9
$PLIMCHECK
 70
     0
  9
$PEXTMIN
 10
1.0000000000E+20
 20
1.0000000000E+20
 30
1.0000000000E+20
  9
$PEXTMAX
 10
-1.0000000000E+20
 20
-1.0000000000E+20
 30
-1.0000000000E+20
  9
$PLIMMIN
 10
0.0
 20
0.0
  9
$PLIMMAX
 10
420.0
 20
297.0
  9
$UNITMODE
 70
     0
  9
$VISRETAIN
 70
     1
  9
$PLINEGEN
 70
     0
  9
$PSLTSCALE
 70
     1
  9
$TREEDEPTH
 70
  3020
  9
$CMLSTYLE
  2
Standard
  9
$CMLJUST
 70
     0
  9
$CMLSCALE
 40
20.0
  9
$PROXYGRAPHICS
 70
     1
  9
$MEASUREMENT
 70
     1
  9
$CELWEIGHT
370
    -1
  9
$ENDCAPS
280
     0
  9
$JOINSTYLE
280
     0
  9
$LWDISPLAY
290
     1
  9
$INSUNITS
 70
     4
  9
$HYPERLINKBASE
  1

  9
$STYLESHEET
  1

  9
$XEDIT
290
     1
  9
$CEPSNTYPE
380
     0
  9
$PSTYLEMODE
290
     1
  9
$FINGERPRINTGUID
  2
{859f0074-c367-4794-a66e-8240dce0a1e9}
  9
$VERSIONGUID
  2
{FAEB1C32-E019-11D5-929B-00C0DF256EC4}
  9
$EXTNAMES
290
     1
  9
$PSVPSCALE
 40
0.0
  9
$OLESTARTUP
290
     0
  0
ENDSEC
  0
SECTION
  2
CLASSES
  0
CLASS
  1
ACDBDICTIONARYWDFLT
  2
AcDbDictionaryWithDefault
  3
ObjectDBX Classes
 90
        0
280
     0
281
     0
  0
CLASS
  1
VISUALSTYLE
  2
AcDbVisualStyle
  3
ObjectDBX Classes
 90
     4095
280
     0
281
     0
  0
CLASS
  1
MATERIAL
  2
AcDbMaterial
  3
ObjectDBX Classes
 90
     1153
280
     0
281
     0
  0
CLASS
  1
SCALE
  2
AcDbScale
  3
ObjectDBX Classes
 90
     1153
280
     0
281
     0
  0
CLASS
  1
TABLESTYLE
  2
AcDbTableStyle
  3
ObjectDBX Classes
 90
     4095
280
     0
281
     0
  0
CLASS
  1
MLEADERSTYLE
  2
AcDbMLeaderStyle
  3
ACDB_MLEADERSTYLE_CLASS
 90
     4095
280
     0
281
     0
  0
CLASS
  1
SUN
  2
AcDbSun
  3
SCENEOE
 90
     1153
280
     0
281
     0
  0
CLASS
  1
ACDBPLACEHOLDER
  2
AcDbPlaceHolder
  3
ObjectDBX Classes
 90
        0
280
     0
281
     0
  0
CLASS
  1
LAYOUT
  2
AcDbLayout
  3
ObjectDBX Classes
 90
        0
280
     0
281
     0
  0
ENDSEC
  0
SECTION
  2
TABLES
  0
TABLE
  2
VPORT
  5
8
330
0
100
AcDbSymbolTable
 70
     1
  0
VPORT
  5
29
330
8
100
AcDbSymbolTableRecord
100
AcDbViewportTableRecord
  2
*Active
 70
     0
 10
0.0
 20
0.0
 11
1.0
 21
1.0
 12
43.3653984668
 22
-0.07458593
 13
0.0
 23
0.0
 14
10.0
 24
10.0
 15
10.0
 25
10.0
 16
0.0
 26
0.0
 36
1.0
 17
0.0
 27
0.0
 37
0.0
 40
20.2478447027
 41
3.6809982008
 42
50.0
 43
0.0
 44
0.0
 50
0.0
 51
0.0
 71
     0
 72
   100
 73
     1
 74
     3
 75
     0
 76
     0
 77
     0
 78
     0
281
     0
 65
     1
110
0.0
120
0.0
130
0.0
111
1.0
121
0.0
131
0.0
112
0.0
122
1.0
132
0.0
 79
     0
146
0.0
  0
ENDTAB
  0
TABLE
  2
LTYPE
  5
5
330
0
100
AcDbSymbolTable
 70
     6
  0
LTYPE
  5
14
330
5
100
AcDbSymbolTableRecord
100
AcDbLinetypeTableRecord
  2
ByBlock
 70
     0
  3

 72
    65
 73
     0
 40
0.0
  0
LTYPE
  5
15
330
5
100
AcDbSymbolTableRecord
100
AcDbLinetypeTableRecord
  2
ByLayer
 70
     0
  3

 72
    65
 73
     0
 40
0.0
  0
LTYPE
  5
16
330
5
100
AcDbSymbolTableRecord
100
AcDbLinetypeTableRecord
  2
Continuous
 70
     0
  3
Solid line
 72
    65
 73
     0
 40
0.0
  0
LTYPE
  5
5E
330
5
100
AcDbSymbolTableRecord
100
AcDbLinetypeTableRecord
  2
HIDDEN
 70
     0
  3
Hidden __ __ __ __ __ __ __ __ __ __ __ __ __ __
 72
    65
 73
     2
 40
1.905
 49
1.27
 74
     0
 49
-0.635
 74
     0
  0
LTYPE
  5
5F
330
5
100
AcDbSymbolTableRecord
100
AcDbLinetypeTableRecord
  2
PHANTOM
 70
     0
  3
Phantom ______  __  __  ______  __  __  ______
 72
    65
 73
     6
 40
12.7
 49
6.35
 74
     0
 49
-1.27
 74
     0
 49
1.27
 74
     0
 49
-1.27
 74
     0
 49
1.27
 74
     0
 49
-1.27
 74
     0
  0
LTYPE
  5
60
330
5
100
AcDbSymbolTableRecord
100
AcDbLinetypeTableRecord
  2
CENTER
 70
     0
  3
Center ____ _ ____ _ ____ _ ____ _ ____ _ ____
 72
    65
 73
     4
 40
10.16
 49
6.35
 74
     0
 49
-1.27
 74
     0
 49
1.27
 74
     0
 49
-1.27
 74
     0
  0
LTYPE
  5
61
330
5
100
AcDbSymbolTableRecord
100
AcDbLinetypeTableRecord
  2
CENTERX2
 70
     0
  3
Center (2x) ________  __  ________  __  _____
 72
    65
 73
     4
 40
20.32
 49
12.7
 74
     0
 49
-2.54
 74
     0
 49
2.54
 74
     0
 49
-2.54
 74
     0
  0
LTYPE
  5
62
330
5
100
AcDbSymbolTableRecord
100
AcDbLinetypeTableRecord
  2
DOT2
 70
     0
  3
Dot (.5x) ........................................
 72
    65
 73
     2
 40
0.635
 49
0.0
 74
     0
 49
-0.635
 74
     0
  0
ENDTAB
  0
TABLE
  2
LAYER
  5
2
330
0
100
AcDbSymbolTable
 70
     1
  0
LAYER
  5
10
330
2
100
AcDbSymbolTableRecord
100
AcDbLayerTableRecord
  2
0
 70
     0
 62
     7
  6
Continuous
370
    -3
390
F
  0
ENDTAB
  0
TABLE
  2
STYLE
  5
3
330
0
100
AcDbSymbolTable
 70
     1
  0
STYLE
  5
11
330
3
100
AcDbSymbolTableRecord
100
AcDbTextStyleTableRecord
  2
Standard
 70
     0
 40
0.0
 41
1.0
 50
0.0
 71
     0
 42
3.5
  3
txt
  4

  0
ENDTAB
  0
TABLE
  2
VIEW
  5
6
330
0
100
AcDbSymbolTable
 70
     0
  0
ENDTAB
  0
TABLE
  2
UCS
  5
7
330
0
100
AcDbSymbolTable
 70
     0
  0
ENDTAB
  0
TABLE
  2
APPID
  5
9
330
0
100
AcDbSymbolTable
 70
     1
  0
APPID
  5
12
330
9
100
AcDbSymbolTableRecord
100
AcDbRegAppTableRecord
  2
ACAD
 70
     0
  0
ENDTAB
  0
TABLE
  2
DIMSTYLE
  5
A
330
0
100
AcDbSymbolTable
 70
     1
100
AcDbDimStyleTable
  0
DIMSTYLE
105
27
330
A
100
AcDbSymbolTableRecord
100
AcDbDimStyleTableRecord
  2
ISO-25
 70
     0
 41
2.5
 42
0.625
 43
3.75
 44
1.25
 73
     0
 74
     0
 77
     1
 78
     8
140
2.5
141
2.5
143
0.0393700787
147
0.625
171
     3
172
     1
178
     0
271
     2
272
     2
274
     3
278
    44
283
     0
284
     8
340
11
  0
ENDTAB
  0
TABLE
  2
BLOCK_RECORD
  5
1
330
0
100
AcDbSymbolTable
 70
     1
  0
BLOCK_RECORD
  5
1F
330
1
100
AcDbSymbolTableRecord
100
AcDbBlockTableRecord
  2
*Model_Space
340
22
  0
BLOCK_RECORD
  5
1B
330
1
100
AcDbSymbolTableRecord
100
AcDbBlockTableRecord
  2
*Paper_Space
340
1E
  0
BLOCK_RECORD
  5
23
330
1
100
AcDbSymbolTableRecord
100
AcDbBlockTableRecord
  2
*Paper_Space0
340
26
  0
ENDTAB
  0
ENDSEC
  0
SECTION
  2
BLOCKS
  0
BLOCK
  5
20
330
1F
100
AcDbEntity
  8
0
100
AcDbBlockBegin
  2
*Model_Space
 70
     0
 10
0.0
 20
0.0
 30
0.0
  3
*Model_Space
  1

  0
ENDBLK
  5
21
330
1F
100
AcDbEntity
  8
0
100
AcDbBlockEnd
  0
BLOCK
  5
1C
330
1B
100
AcDbEntity
 67
     1
  8
0
100
AcDbBlockBegin
  2
*Paper_Space
 70
     0
 10
0.0
 20
0.0
 30
0.0
  3
*Paper_Space
  1

  0
ENDBLK
  5
1D
330
1B
100
AcDbEntity
 67
     1
  8
0
100
AcDbBlockEnd
  0
BLOCK
  5
24
330
23
100
AcDbEntity
  8
0
100
AcDbBlockBegin
  2
*Paper_Space0
 70
     0
 10
0.0
 20
0.0
 30
0.0
  3
*Paper_Space0
  1

  0
ENDBLK
  5
25
330
23
100
AcDbEntity
  8
0
100
AcDbBlockEnd
  0
ENDSEC
  0
SECTION
  2
ENTITIES
  0
SPLINE
  5
63
330
1F
100
AcDbEntity
  8
0
  6
Continuous
 62
     7
370
    25
100
AcDbSpline
210
0.0
220
0.0
230
1.0
 70
     8
 71
     3
 72
     9
 73
     5
 74
     0
 42
0.00000001
 43
0.00000001
 40
0.0
 40
0.0
 40
0.0
 40
0.0
 40
0.5
 40
1.0
 40
1.0
 40
1.0
 40
1.0
 10
16.83600873349026
 20
-1.246869090023044
 30
0.0
 10
16.81597798990702
 20
-1.24796664085859
 30
0.0
 10
16.77587146366736
 20
-1.249614509010967
 30
0.0
 10
16.73571981673429
 20
-1.25016421021556
 30
0.0
 10
16.71564399185874
 20
-1.250164210215649
 30
0.0
  0
ARC
  5
64
330
1F
100
AcDbEntity
  8
0
  6
Continuous
 62
     7
370
    25
100
AcDbCircle
 10
16.9563734751
 20
0.9498357898
 30
0.0
 40
2.199999999999997
100
AcDbArc
 50
266.8637105185
 51
93.1362894815
  0
SPLINE
  5
65
330
1F
100
AcDbEntity
  8
0
  6
Continuous
 62
     7
370
    25
100
AcDbSpline
210
0.0
220
0.0
230
1.0
 70
     8
 71
     3
 72
     9
 73
     5
 74
     0
 42
0.00000001
 43
0.00000001
 40
0.0
 40
0.0
 40
0.0
 40
0.0
 40
0.5
 40
1.0
 40
1.0
 40
1.0
 40
1.0
 10
16.71564399184894
 20
3.149835789784346
 30
0.0
 10
16.73571981672611
 20
3.149835789784346
 30
0.0
 10
16.7758714664694
 20
3.149286088348838
 30
0.0
 10
16.81597798990538
 20
3.147638220427376
 30
0.0
 10
16.83600873349025
 20
3.14654066959174
 30
0.0
  0
SPLINE
  5
66
330
1F
100
AcDbEntity
  8
0
  6
Continuous
 62
     7
370
    25
100
AcDbSpline
210
0.0
220
0.0
230
1.0
 70
     8
 71
     3
 72
    10
 73
     6
 74
     0
 42
0.00000001
 43
0.00000001
 40
0.0
 40
0.0
 40
0.0
 40
0.0
 40
0.5
 40
0.5
 40
1.0
 40
1.0
 40
1.0
 40
1.0
 10
16.71564399184895
 20
-1.250164210215649
 30
0.0
 10
15.24897732518228
 20
-1.250164210215648
 30
0.0
 10
14.51564399184895
 20
0.2165024564510163
 30
0.0
 10
14.51564399184895
 20
1.683169123117681
 30
0.0
 10
15.24897732518228
 20
3.149835789784345
 30
0.0
 10
16.71564399184894
 20
3.149835789784346
 30
0.0
  0
LINE
  5
67
330
1F
100
AcDbEntity
  8
0
  6
Continuous
 62
     7
370
    25
100
AcDbLine
 10
31.65516039
 20
5.8390510361
 30
0.0
 11
36.5892012975
 21
1.0763309934
 31
0.0
  0
ARC
  5
68
330
1F
100
AcDbEntity
  8
0
  6
Continuous
 62
     7
370
    25
100
AcDbCircle
 10
30.9606550489
 20
5.1195634884
 30
0.0
 40
1.000000000000002
100
AcDbArc
 50
46.012187614
 51
180.0
  0
LINE
  5
69
330
1F
100
AcDbEntity
  8
0
  6
Continuous
 62
     7
370
    25
100
AcDbLine
 10
29.9606550489
 20
0.3568434458
 30
0.0
 11
29.9606550489
 21
5.1195634884
 31
0.0
  0
ARC
  5
6A
330
1F
100
AcDbEntity
  8
0
  6
Continuous
 62
     7
370
    25
100
AcDbCircle
 10
30.9606550489
 20
0.3568434458
 30
0.0
 40
1.0
100
AcDbArc
 50
180.0
 51
270.0
  0
LINE
  5
6B
330
1F
100
AcDbEntity
  8
0
  6
Continuous
 62
     7
370
    25
100
AcDbLine
 10
35.8946959563
 20
-0.6431565542
 30
0.0
 11
30.9606550489
 21
-0.6431565542
 31
0.0
  0
ARC
  5
6C
330
1F
100
AcDbEntity
  8
0
  6
Continuous
 62
     7
370
    25
100
AcDbCircle
 10
35.8946959563
 20
0.3568434458
 30
0.0
 40
0.9999999999999996
100
AcDbArc
 50
270.0
 51
46.012187614
  0
LINE
  5
6D
330
1F
100
AcDbEntity
  8
0
  6
Continuous
 62
     7
370
    25
100
AcDbLine
 10
65.8836901538
 20
1.7290471726
 30
0.0
 11
62.7828839043
 21
4.8628536969
 31
0.0
  0
ARC
  5
6E
330
1F
100
AcDbEntity
  8
0
  6
Continuous
 62
     7
370
    25
100
AcDbCircle
 10
66.5945297468
 20
2.4324013316
 30
0.0
 40
1.0
100
AcDbArc
 50
224.696731958
 51
0.0
  0
LINE
  5
6F
330
1F
100
AcDbEntity
  8
0
  6
Continuous
 62
     7
370
    25
100
AcDbLine
 10
67.5945297468
 20
5.5662078559
 30
0.0
 11
67.5945297468
 21
2.4324013316
 31
0.0
  0
ARC
  5
70
330
1F
100
AcDbEntity
  8
0
  6
Continuous
 62
     7
370
    25
100
AcDbCircle
 10
66.5945297468
 20
5.5662078559
 30
0.0
 40
1.0
100
AcDbArc
 50
0.0
 51
90.0
  0
LINE
  5
71
330
1F
100
AcDbEntity
  8
0
  6
Continuous
 62
     7
370
    25
100
AcDbLine
 10
63.4937234973
 20
6.5662078559
 30
0.0
 11
66.5945297468
 21
6.5662078559
 31
0.0
  0
ARC
  5
72
330
1F
100
AcDbEntity
  8
0
  6
Continuous
 62
     7
370
    25
100
AcDbCircle
 10
63.4937234973
 20
5.5662078559
 30
0.0
 40
1.000000000000005
100
AcDbArc
 50
90.0
 51
224.696731958
  0
LINE
  5
73
330
1F
100
AcDbEntity
  8
0
  6
Continuous
 62
     7
370
    25
100
AcDbLine
 10
39.8881447591
 20
0.9925117959
 30
0.0
 11
34.9541038516
 21
5.7552318385
 31
0.0
  0
ARC
  5
74
330
1F
100
AcDbEntity
  8
0
  6
Continuous
 62
     7
370
    25
100
AcDbCircle
 10
40.5826501002
 20
1.7119993435
 30
0.0
 40
1.0
100
AcDbArc
 50
226.012187614
 51
0.0
  0
LINE
  5
75
330
1F
100
AcDbEntity
  8
0
  6
Continuous
 62
     7
370
    25
100
AcDbLine
 10
41.5826501002
 20
6.4747193862
 30
0.0
 11
41.5826501002
 21
1.7119993435
 31
0.0
  0
ARC
  5
76
330
1F
100
AcDbEntity
  8
0
  6
Continuous
 62
     7
370
    25
100
AcDbCircle
 10
40.5826501002
 20
6.4747193862
 30
0.0
 40
1.0
100
AcDbArc
 50
0.0
 51
90.0
  0
LINE
  5
77
330
1F
100
AcDbEntity
  8
0
  6
Continuous
 62
     7
370
    25
100
AcDbLine
 10
35.6486091927
 20
7.4747193862
 30
0.0
 11
40.5826501002
 21
7.4747193862
 31
0.0
  0
ARC
  5
78
330
1F
100
AcDbEntity
  8
0
  6
Continuous
 62
     7
370
    25
100
AcDbCircle
 10
35.6486091927
 20
6.4747193862
 30
0.0
 40
0.9999999999999991
100
AcDbArc
 50
90.0
 51
226.012187614
  0
LINE
  5
79
330
1F
100
AcDbEntity
  8
0
  6
Continuous
 62
     7
370
    25
100
AcDbLine
 10
44.2691414186
 20
1.7710570082
 30
0.0
 11
44.2691414186
 21
6.4747193862
 31
0.0
  0
ARC
  5
7A
330
1F
100
AcDbEntity
  8
0
  6
Continuous
 62
     7
370
    25
100
AcDbCircle
 10
45.2691414186
 20
1.7710570082
 30
0.0
 40
1.0
100
AcDbArc
 50
180.0
 51
315.0
  0
LINE
  5
7B
330
1F
100
AcDbEntity
  8
0
  6
Continuous
 62
     7
370
    25
100
AcDbLine
 10
50.6799105777
 20
5.767612605
 30
0.0
 11
45.9762481997
 21
1.063950227
 31
0.0
  0
ARC
  5
7C
330
1F
100
AcDbEntity
  8
0
  6
Continuous
 62
     7
370
    25
100
AcDbCircle
 10
49.9728037965
 20
6.4747193862
 30
0.0
 40
0.9999999999999982
100
AcDbArc
 50
315.0
 51
90.0
  0
LINE
  5
7D
330
1F
100
AcDbEntity
  8
0
  6
Continuous
 62
     7
370
    25
100
AcDbLine
 10
45.2691414186
 20
7.4747193862
 30
0.0
 11
49.9728037965
 21
7.4747193862
 31
0.0
  0
ARC
  5
7E
330
1F
100
AcDbEntity
  8
0
  6
Continuous
 62
     7
370
    25
100
AcDbCircle
 10
45.2691414186
 20
6.4747193862
 30
0.0
 40
1.0
100
AcDbArc
 50
90.0
 51
180.0
  0
LINE
  5
7F
330
1F
100
AcDbEntity
  8
0
  6
Continuous
 62
     7
370
    25
100
AcDbLine
 10
54.0151066921
 20
-0.6431565542
 30
0.0
 11
49.3114443141
 21
-0.6431565542
 31
0.0
  0
ARC
  5
80
330
1F
100
AcDbEntity
  8
0
  6
Continuous
 62
     7
370
    25
100
AcDbCircle
 10
54.0151066921
 20
0.3568434458
 30
0.0
 40
1.0
100
AcDbArc
 50
270.0
 51
0.0
  0
LINE
  5
81
330
1F
100
AcDbEntity
  8
0
  6
Continuous
 62
     7
370
    25
100
AcDbLine
 10
55.0151066921
 20
5.0605058238
 30
0.0
 11
55.0151066921
 21
0.3568434458
 31
0.0
  0
ARC
  5
82
330
1F
100
AcDbEntity
  8
0
  6
Continuous
 62
     7
370
    25
100
AcDbCircle
 10
54.0151066921
 20
5.0605058238
 30
0.0
 40
1.0
100
AcDbArc
 50
360.0
 51
135.0
  0
LINE
  5
83
330
1F
100
AcDbEntity
  8
0
  6
Continuous
 62
     7
370
    25
100
AcDbLine
 10
48.6043375329
 20
1.063950227
 30
0.0
 11
53.3079999109
 21
5.767612605
 31
0.0
  0
ARC
  5
84
330
1F
100
AcDbEntity
  8
0
  6
Continuous
 62
     7
370
    25
100
AcDbCircle
 10
49.3114443141
 20
0.3568434458
 30
0.0
 40
0.9999999999999987
100
AcDbArc
 50
135.0
 51
270.0
  0
LINE
  5
85
330
1F
100
AcDbEntity
  8
0
  6
Continuous
 62
     7
370
    25
100
AcDbLine
 10
59.2301694524
 20
5.7456722135
 30
0.0
 11
63.8663040817
 21
1.0601976048
 31
0.0
  0
ARC
  5
86
330
1F
100
AcDbEntity
  8
0
  6
Continuous
 62
     7
370
    25
100
AcDbCircle
 10
58.5193298594
 20
5.0423180545
 30
0.0
 40
1.000000000000002
100
AcDbArc
 50
44.696731958
 51
180.0
  0
LINE
  5
87
330
1F
100
AcDbEntity
  8
0
  6
Continuous
 62
     7
370
    25
100
AcDbLine
 10
57.5193298594
 20
0.3568434458
 30
0.0
 11
57.5193298594
 21
5.0423180545
 31
0.0
  0
ARC
  5
88
330
1F
100
AcDbEntity
  8
0
  6
Continuous
 62
     7
370
    25
100
AcDbCircle
 10
58.5193298594
 20
0.3568434458
 30
0.0
 40
1.0
100
AcDbArc
 50
180.0
 51
270.0
  0
LINE
  5
89
330
1F
100
AcDbEntity
  8
0
  6
Continuous
 62
     7
370
    25
100
AcDbLine
 10
63.1554644887
 20
-0.6431565542
 30
0.0
 11
58.5193298594
 21
-0.6431565542
 31
0.0
  0
ARC
  5
8A
330
1F
100
AcDbEntity
  8
0
  6
Continuous
 62
     7
370
    25
100
AcDbCircle
 10
63.1554644887
 20
0.3568434458
 30
0.0
 40
0.9999999999999996
100
AcDbArc
 50
270.0
 51
44.696731958
  0
LINE
  5
8B
330
1F
100
AcDbEntity
  8
0
  6
Continuous
 62
     7
370
    25
100
AcDbLine
 10
28.0511939687
 20
-3.4931874161
 30
0.0
 11
28.0511939687
 21
-3.204069578
 31
0.0
  0
SPLINE
  5
8C
330
1F
100
AcDbEntity
  8
0
  6
Continuous
 62
     7
370
    25
100
AcDbSpline
210
0.0
220
0.0
230
1.0
 70
     8
 71
     3
 72
     8
 73
     4
 74
     0
 42
0.00000001
 43
0.00000001
 40
0.3913497559564363
 40
0.3913497559564363
 40
0.3913497559564363
 40
0.3913497559564363
 40
0.3958770283065947
 40
0.3958770283065947
 40
0.3958770283065947
 40
0.3958770283065947
 10
28.05119395914173
 20
-3.204069577962729
 30
0.0
 10
27.71797571327047
 20
-3.211565855456801
 30
0.0
 10
27.38474544867055
 20
-3.218525058913263
 30
0.0
 10
27.05150344762387
 20
-3.224878358582776
 30
0.0
  0
LINE
  5
8D
330
1F
100
AcDbEntity
  8
0
  6
Continuous
 62
     7
370
    25
100
AcDbLine
 10
27.051503338
 20
-3.2248726061
 30
0.0
 11
27.051503338
 21
-3.5180599491
 31
0.0
  0
LINE
  5
8E
330
1F
100
AcDbEntity
  8
0
  6
Continuous
 62
     7
370
    25
100
AcDbLine
 10
27.051503338
 20
-3.5180599491
 30
0.0
 11
28.0511939687
 21
-3.4931874161
 31
0.0
  0
LINE
  5
8F
330
1F
100
AcDbEntity
  8
0
  6
Continuous
 62
     7
370
    25
100
AcDbLine
 10
29.2508227255
 20
-3.4633403766
 30
0.0
 11
29.2508227255
 21
-3.1748660703
 31
0.0
  0
SPLINE
  5
90
330
1F
100
AcDbEntity
  8
0
  6
Continuous
 62
     7
370
    25
100
AcDbSpline
210
0.0
220
0.0
230
1.0
 70
     8
 71
     3
 72
     9
 73
     5
 74
     0
 42
0.00000001
 43
0.00000001
 40
0.3859165977228248
 40
0.3859165977228248
 40
0.3859165977228248
 40
0.3859165977228248
 40
0.3897638165146809
 40
0.3904442623900923
 40
0.3904442623900923
 40
0.3904442623900923
 40
0.3904442623900923
 10
29.25082271600372
 20
-3.174871739731627
 30
0.0
 10
28.96768269444783
 20
-3.182260719600255
 30
0.0
 10
28.6344543272569
 20
-3.190561461440386
 30
0.0
 10
28.30121384035151
 20
-3.198349151943666
 30
0.0
 10
28.25113209478472
 20
-3.199507713517806
 30
0.0
  0
LINE
  5
91
330
1F
100
AcDbEntity
  8
0
  6
Continuous
 62
     7
370
    25
100
AcDbLine
 10
28.2511320948
 20
-3.1995077137
 30
0.0
 11
28.2511320948
 21
-3.4882129096
 31
0.0
  0
LINE
  5
92
330
1F
100
AcDbEntity
  8
0
  6
Continuous
 62
     7
370
    25
100
AcDbLine
 10
28.2511320948
 20
-3.4882129096
 30
0.0
 11
29.2508227255
 21
-3.4633403766
 31
0.0
  0
LINE
  5
93
330
1F
100
AcDbEntity
  8
0
  6
Continuous
 62
     7
370
    25
100
AcDbLine
 10
30.4504514823
 20
-3.4334933371
 30
0.0
 11
30.4504514823
 21
-3.1416448601
 31
0.0
  0
SPLINE
  5
94
330
1F
100
AcDbEntity
  8
0
  6
Continuous
 62
     7
370
    25
100
AcDbSpline
210
0.0
220
0.0
230
1.0
 70
     8
 71
     3
 72
     9
 73
     5
 74
     0
 42
0.00000001
 43
0.00000001
 40
0.380482968368145
 40
0.380482968368145
 40
0.380482968368145
 40
0.380482968368145
 40
0.3819685401843872
 40
0.3850110245397497
 40
0.3850110245397497
 40
0.3850110245397497
 40
0.3850110245397497
 10
30.45045148245532
 20
-3.141652708239529
 30
0.0
 10
30.34112871400067
 20
-3.144845572173875
 30
0.0
 10
30.0079066231074
 20
-3.154446539919153
 30
0.0
 10
29.67467256849561
 20
-3.163631776331953
 30
0.0
 10
29.45076103935575
 20
-3.169598649475506
 30
0.0
  0
LINE
  5
95
330
1F
100
AcDbEntity
  8
0
  6
Continuous
 62
     7
370
    25
100
AcDbLine
 10
29.4507608516
 20
-3.1695916048
 30
0.0
 11
29.4507608516
 21
-3.4583658701
 31
0.0
  0
LINE
  5
96
330
1F
100
AcDbEntity
  8
0
  6
Continuous
 62
     7
370
    25
100
AcDbLine
 10
29.4507608516
 20
-3.4583658701
 30
0.0
 11
30.4504514823
 21
-3.4334933371
 31
0.0
  0
LINE
  5
97
330
1F
100
AcDbEntity
  8
0
  6
Continuous
 62
     7
370
    25
100
AcDbLine
 10
73.3038929322
 20
-1.6716980242
 30
0.0
 11
73.3038929322
 21
-1.5778427326
 31
0.0
  0
SPLINE
  5
98
330
1F
100
AcDbEntity
  8
0
  6
Continuous
 62
     7
370
    25
100
AcDbSpline
210
0.0
220
0.0
230
1.0
 70
     8
 71
     3
 72
     9
 73
     5
 74
     0
 42
0.00000001
 43
0.00000001
 40
0.1863265854679006
 40
0.1863265854679006
 40
0.1863265854679006
 40
0.1863265854679006
 40
0.1870866319270469
 40
0.1908542719127639
 40
0.1908542719127639
 40
0.1908542719127639
 40
0.1908542719127639
 10
73.30389307607557
 20
-1.577846650951865
 30
0.0
 10
73.24797531336199
 20
-1.57989950604545
 30
0.0
 10
72.91486659547171
 20
-1.592128435767226
 30
0.0
 10
72.58175783485615
 20
-1.604356333337481
 30
0.0
 10
72.30456682163368
 20
-1.614530990438085
 30
0.0
  0
LINE
  5
99
330
1F
100
AcDbEntity
  8
0
  6
Continuous
 62
     7
370
    25
100
AcDbLine
 10
72.3045667619
 20
-1.6145293622
 30
0.0
 11
72.3045667619
 21
-1.7084023186
 31
0.0
  0
LINE
  5
9A
330
1F
100
AcDbEntity
  8
0
  6
Continuous
 62
     7
370
    25
100
AcDbLine
 10
72.3045667619
 20
-1.7084023186
 30
0.0
 11
73.3038929322
 21
-1.6716980242
 31
0.0
  0
LINE
  5
9B
330
1F
100
AcDbEntity
  8
0
  6
Continuous
 62
     7
370
    25
100
AcDbLine
 10
74.5030843367
 20
-1.6276528708
 30
0.0
 11
74.5030843367
 21
-1.5338123462
 31
0.0
  0
SPLINE
  5
9C
330
1F
100
AcDbEntity
  8
0
  6
Continuous
 62
     7
370
    25
100
AcDbSpline
210
0.0
220
0.0
230
1.0
 70
     8
 71
     3
 72
     8
 73
     4
 74
     0
 42
0.00000001
 43
0.00000001
 40
0.1808933605482384
 40
0.1808933605482384
 40
0.1808933605482384
 40
0.1808933605482384
 40
0.185421048063109
 40
0.185421048063109
 40
0.185421048063109
 40
0.185421048063109
 10
74.5030845324789
 20
-1.533817679126881
 30
0.0
 10
74.16997583044606
 20
-1.54604906629808
 30
0.0
 10
73.83686709675138
 20
-1.558279564510332
 30
0.0
 10
73.50375832330674
 20
-1.570509069080118
 30
0.0
  0
LINE
  5
9D
330
1F
100
AcDbEntity
  8
0
  6
Continuous
 62
     7
370
    25
100
AcDbLine
 10
73.5037581663
 20
-1.5705047925
 30
0.0
 11
73.5037581663
 21
-1.6643571653
 31
0.0
  0
LINE
  5
9E
330
1F
100
AcDbEntity
  8
0
  6
Continuous
 62
     7
370
    25
100
AcDbLine
 10
73.5037581663
 20
-1.6643571653
 30
0.0
 11
74.5030843367
 21
-1.6276528708
 31
0.0
  0
LINE
  5
9F
330
1F
100
AcDbEntity
  8
0
  6
Continuous
 62
     7
370
    25
100
AcDbLine
 10
75.7022757411
 20
-1.5836077175
 30
0.0
 11
75.7022757411
 21
-1.4897760043
 31
0.0
  0
SPLINE
  5
A0
330
1F
100
AcDbEntity
  8
0
  6
Continuous
 62
     7
370
    25
100
AcDbSpline
210
0.0
220
0.0
230
1.0
 70
     8
 71
     3
 72
     8
 73
     4
 74
     0
 42
0.00000001
 43
0.00000001
 40
0.1754601346774022
 40
0.1754601346774022
 40
0.1754601346774022
 40
0.1754601346774022
 40
0.1799878229594255
 40
0.1799878229594255
 40
0.1799878229594255
 40
0.1799878229594255
 10
75.70227592526172
 20
-1.489781018986941
 30
0.0
 10
75.36916723112988
 20
-1.502014390988402
 30
0.0
 10
75.03605851504192
 20
-1.514246999650901
 30
0.0
 10
74.70294976890972
 20
-1.526478740290866
 30
0.0
  0
LINE
  5
A1
330
1F
100
AcDbEntity
  8
0
  6
Continuous
 62
     7
370
    25
100
AcDbLine
 10
74.7029495707
 20
-1.5264733433
 30
0.0
 11
74.7029495707
 21
-1.6203120119
 31
0.0
  0
LINE
  5
A2
330
1F
100
AcDbEntity
  8
0
  6
Continuous
 62
     7
370
    25
100
AcDbLine
 10
74.7029495707
 20
-1.6203120119
 30
0.0
 11
75.7022757411
 21
-1.5836077175
 31
0.0
  0
LINE
  5
A3
330
1F
100
AcDbEntity
  8
0
  6
Continuous
 62
     7
370
    25
100
AcDbLine
 10
7.6159184897
 20
-0.0501642102
 30
0.0
 11
6.8299727425
 21
-0.8361099575
 31
0.0
  0
LINE
  5
A4
330
1F
100
AcDbEntity
  8
0
  6
Continuous
 62
     7
370
    25
100
AcDbLine
 10
6.874825848
 20
0.6909284315
 30
0.0
 11
7.6159184897
 21
-0.0501642102
 31
0.0
  0
SPLINE
  5
A5
330
1F
100
AcDbEntity
  8
0
  6
Continuous
 62
     7
370
    25
100
AcDbSpline
210
0.0
220
0.0
230
1.0
 70
     8
 71
     3
 72
    47
 73
    43
 74
     0
 42
0.00000001
 43
0.00000001
 40
0.4972690191622316
 40
0.4972690191622316
 40
0.4972690191622316
 40
0.4972690191622316
 40
0.4988976851387915
 40
0.5008465042213651
 40
0.5027953233039385
 40
0.5047441423865117
 40
0.506692961469085
 40
0.5086417805516585
 40
0.5105905996342321
 40
0.5144882377993787
 40
0.5183858759645255
 40
0.5222835141296726
 40
0.5261811522948192
 40
0.5300787904599662
 40
0.533976428625113
 40
0.5378740667902596
 40
0.5417717049554067
 40
0.5456693431205533
 40
0.5495669812857
 40
0.553464619450847
 40
0.5612598957811407
 40
0.5690551721114341
 40
0.5768504484417276
 40
0.5846457247720215
 40
0.5924410011023151
 40
0.6002362774326085
 40
0.6080315537629022
 40
0.6236221064234896
 40
0.6392126590840765
 40
0.654803211744664
 40
0.6703937644052511
 40
0.6859843170658385
 40
0.7015748697264255
 40
0.717165422387013
 40
0.7327559750476
 40
0.7483465277081874
 40
0.7639370803687744
 40
0.7795276330293619
 40
0.795118185689949
 40
0.8107087383505364
 40
0.8262992910111233
 40
0.8383238588588166
 40
0.8383238588588166
 40
0.8383238588588166
 40
0.8383238588588166
 10
6.874827022029217
 20
0.6909272566224491
 30
0.0
 10
6.935609496860526
 20
0.7942698789235748
 30
0.0
 10
7.083098370628907
 20
1.012943063721855
 30
0.0
 10
7.341549670887598
 20
1.327596934707986
 30
0.0
 10
7.634804421813298
 20
1.642778213566056
 30
0.0
 10
7.938314703993494
 20
1.948024420570389
 30
0.0
 10
8.245572485518244
 20
2.249440798695551
 30
0.0
 10
8.559592888211187
 20
2.54389977142359
 30
0.0
 10
8.991321983371176
 20
2.922139808740485
 30
0.0
 10
9.557935917612966
 20
3.36302541877627
 30
0.0
 10
10.2749284614519
 20
3.840362550210007
 30
0.0
 10
11.02035791003538
 20
4.271593908923448
 30
0.0
 10
11.78491130744201
 20
4.667600425220103
 30
0.0
 10
12.56517230840733
 20
5.031666415960192
 30
0.0
 10
13.35705673262397
 20
5.369471548399072
 30
0.0
 10
14.15771735347591
 20
5.685896910271519
 30
0.0
 10
14.9653361205402
 20
5.984008729450846
 30
0.0
 10
15.77798574238834
 20
6.268099254141776
 30
0.0
 10
16.59510203533722
 20
6.539060569431546
 30
0.0
 10
17.69055341355609
 20
6.881885792890819
 30
0.0
 10
19.07047862789345
 20
7.275363007581771
 30
0.0
 10
20.73984393139092
 20
7.697302238160854
 30
0.0
 10
22.41974772418227
 20
8.074916015234821
 30
0.0
 10
24.10823231696414
 20
8.412058878363466
 30
0.0
 10
25.80431156436946
 20
8.708631498338598
 30
0.0
 10
27.50720553573148
 20
8.963303520290252
 30
0.0
 10
29.78574288858732
 20
9.244151310946858
 30
0.0
 10
32.64472576013454
 20
9.496586058998506
 30
0.0
 10
36.0833905969666
 20
9.682126188457215
 30
0.0
 10
39.52498561546962
 20
9.796094563081798
 30
0.0
 10
42.96766658756897
 20
9.868391110313604
 30
0.0
 10
46.41116857107118
 20
9.883817723832442
 30
0.0
 10
49.85437261674457
 20
9.835550328322839
 30
0.0
 10
53.29583346301936
 20
9.71506476122978
 30
0.0
 10
56.73443467270653
 20
9.531515677978163
 30
0.0
 10
60.16953279830673
 20
9.291276569076793
 30
0.0
 10
63.60081647113841
 20
9.001966393996785
 30
0.0
 10
67.02763883642977
 20
8.663757208677268
 30
0.0
 10
70.44936208606323
 20
8.277444357203029
 30
0.0
 10
73.8653147823038
 20
7.843012333811916
 30
0.0
 10
77.01543144368473
 20
7.401591480501363
 30
0.0
 10
79.02591733940892
 20
7.099332596479848
 30
0.0
 10
79.90082980060085
 20
6.964346332077689
 30
0.0
  0
LINE
  5
A6
330
1F
100
AcDbEntity
  8
0
  6
Continuous
 62
     7
370
    25
100
AcDbLine
 10
79.900829426
 20
3.9498357898
 30
0.0
 11
79.900829426
 21
6.9643439042
 31
0.0
  0
LINE
  5
A7
330
1F
100
AcDbEntity
  8
0
  6
Continuous
 62
     7
370
    25
100
AcDbLine
 10
79.900829426
 20
3.9498357898
 30
0.0
 11
77.900829426
 21
3.9498357898
 31
0.0
  0
LINE
  5
A8
330
1F
100
AcDbEntity
  8
0
  6
Continuous
 62
     7
370
    25
100
AcDbLine
 10
77.900829426
 20
0.9498357898
 30
0.0
 11
77.900829426
 21
3.9498357898
 31
0.0
  0
LINE
  5
A9
330
1F
100
AcDbEntity
  8
0
  6
Continuous
 62
     7
370
    25
100
AcDbLine
 10
79.900829426
 20
0.9498357898
 30
0.0
 11
77.900829426
 21
0.9498357898
 31
0.0
  0
LINE
  5
AA
330
1F
100
AcDbEntity
  8
0
  6
Continuous
 62
     7
370
    25
100
AcDbLine
 10
79.900829426
 20
0.9498357898
 30
0.0
 11
79.900829426
 21
-1.3355635399
 31
0.0
  0
SPLINE
  5
AB
330
1F
100
AcDbEntity
  8
0
  6
Continuous
 62
     7
370
    25
100
AcDbSpline
210
0.0
220
0.0
230
1.0
 70
     8
 71
     3
 72
     9
 73
     5
 74
     0
 42
0.00000001
 43
0.00000001
 40
0.1564375700209334
 40
0.1564375700209334
 40
0.1564375700209334
 40
0.1564375700209334
 40
0.1714960792664596
 40
0.1745545969644095
 40
0.1745545969644095
 40
0.1745545969644095
 40
0.1745545969644095
 10
79.900829405773
 20
-1.335562988817054
 30
0.0
 10
78.79295308170812
 20
-1.376258828352134
 30
0.0
 10
77.46005705832988
 20
-1.425223233752522
 30
0.0
 10
76.12716079678863
 20
-1.474176884713695
 30
0.0
 10
75.90214115166057
 20
-1.48244090456416
 30
0.0
  0
LINE
  5
AC
330
1F
100
AcDbEntity
  8
0
  6
Continuous
 62
     7
370
    25
100
AcDbLine
 10
75.9021409752
 20
-1.4824360986
 30
0.0
 11
75.9021409752
 21
-10.0
 31
0.0
  0
LINE
  5
AD
330
1F
100
AcDbEntity
  8
0
  6
Continuous
 62
     7
370
    25
100
AcDbLine
 10
75.9021409752
 20
-10.0
 30
0.0
 11
71.902140984
 21
-10.0
 31
0.0
  0
LINE
  5
AE
330
1F
100
AcDbEntity
  8
0
  6
Continuous
 62
     7
370
    25
100
AcDbLine
 10
71.902140984
 20
-10.0
 30
0.0
 11
71.902140984
 21
-1.7231830326
 31
0.0
  0
LINE
  5
AF
330
1F
100
AcDbEntity
  8
0
  6
Continuous
 62
     7
370
    25
100
AcDbLine
 10
71.902140984
 20
-1.7231830326
 30
0.0
 11
72.1047015278
 21
-1.7157431775
 31
0.0
  0
LINE
  5
B0
330
1F
100
AcDbEntity
  8
0
  6
Continuous
 62
     7
370
    25
100
AcDbLine
 10
72.1047015278
 20
-1.7157431775
 30
0.0
 11
72.1047015278
 21
-1.6218660257
 31
0.0
  0
SPLINE
  5
B1
330
1F
100
AcDbEntity
  8
0
  6
Continuous
 62
     7
370
    25
100
AcDbSpline
210
0.0
220
0.0
230
1.0
 70
     8
 71
     3
 72
    21
 73
    17
 74
     0
 42
0.00000001
 43
0.00000001
 40
0.1917598090799666
 40
0.1917598090799666
 40
0.1917598090799666
 40
0.1917598090799666
 40
0.2026771845876341
 40
0.2182677372482213
 40
0.2338582899088086
 40
0.2494488425693957
 40
0.2650393952299831
 40
0.2806299478905703
 40
0.2962205005511576
 40
0.3118110532117448
 40
0.327401605872332
 40
0.3429921585329193
 40
0.3585827111935065
 40
0.3663779875238
 40
0.3741732638540937
 40
0.3795773173591817
 40
0.3795773173591817
 40
0.3795773173591817
 40
0.3795773173591817
 10
72.10470157106452
 20
-1.621867204582681
 30
0.0
 10
71.30149359190736
 20
-1.651349201622457
 30
0.0
 10
69.35126440455439
 20
-1.722921602606672
 30
0.0
 10
66.25401379785804
 20
-1.836574364628911
 30
0.0
 10
62.81295321940747
 20
-1.962925980951697
 30
0.0
 10
59.37190324353011
 20
-2.089564237077361
 30
0.0
 10
55.93086047035155
 20
-2.216399186462298
 30
0.0
 10
52.48980578912795
 20
-2.342909878197311
 30
0.0
 10
49.04871660303354
 20
-2.46848139043213
 30
0.0
 10
45.60759232384059
 20
-2.593082338454519
 30
0.0
 10
42.16650604097772
 20
-2.7187402999888
 30
0.0
 10
38.72553246797762
 20
-2.847442608082919
 30
0.0
 10
35.85818081766299
 20
-2.95804628990502
 30
0.0
 10
33.5641044545169
 20
-3.041332301473719
 30
0.0
 10
32.01934764557088
 20
-3.093781377508701
 30
0.0
 10
31.04806687285569
 20
-3.123963002604028
 30
0.0
 10
30.6503898116224
 20
-3.135765801792747
 30
0.0
  0
LINE
  5
B2
330
1F
100
AcDbEntity
  8
0
  6
Continuous
 62
     7
370
    25
100
AcDbLine
 10
30.6503896084
 20
-3.1357589549
 30
0.0
 11
30.6503896084
 21
-10.0
 31
0.0
  0
LINE
  5
B3
330
1F
100
AcDbEntity
  8
0
  6
Continuous
 62
     7
370
    25
100
AcDbLine
 10
30.6503896084
 20
-10.0
 30
0.0
 11
26.650389611
 21
-10.0
 31
0.0
  0
LINE
  5
B4
330
1F
100
AcDbEntity
  8
0
  6
Continuous
 62
     7
370
    25
100
AcDbLine
 10
26.650389611
 20
-10.0
 30
0.0
 11
26.650389611
 21
-3.5280397509
 31
0.0
  0
LINE
  5
B5
330
1F
100
AcDbEntity
  8
0
  6
Continuous
 62
     7
370
    25
100
AcDbLine
 10
26.650389611
 20
-3.5280397509
 30
0.0
 11
26.8515652118
 21
-3.5230344557
 31
0.0
  0
LINE
  5
B6
330
1F
100
AcDbEntity
  8
0
  6
Continuous
 62
     7
370
    25
100
AcDbLine
 10
26.8515652118
 20
-3.5230344557
 30
0.0
 11
26.8515652118
 21
-3.2286106776
 31
0.0
  0
SPLINE
  5
B7
330
1F
100
AcDbEntity
  8
0
  6
Continuous
 62
     7
370
    25
100
AcDbSpline
210
0.0
220
0.0
230
1.0
 70
     8
 71
     3
 72
    26
 73
    22
 74
     0
 42
0.00000001
 43
0.00000001
 40
0.3967824449106496
 40
0.3967824449106496
 40
0.3967824449106496
 40
0.3967824449106496
 40
0.3975590928449745
 40
0.4053543691752682
 40
0.4131496455055617
 40
0.4209449218358554
 40
0.4287401981661489
 40
0.4365354744964426
 40
0.4443307508267361
 40
0.4521260271570299
 40
0.4599213034873234
 40
0.4638189416524703
 40
0.4677165798176171
 40
0.4716142179827639
 40
0.4755118561479106
 40
0.4794094943130575
 40
0.4833071324782043
 40
0.4852559515607776
 40
0.4872047706433512
 40
0.4891535897259246
 40
0.4899336465538061
 40
0.4899336465538061
 40
0.4899336465538061
 40
0.4899336465538061
 10
26.85156520267777
 20
-3.22861692602587
 30
0.0
 10
26.79439714897145
 20
-3.229664779328922
 30
0.0
 10
26.16342505531415
 20
-3.241028743868353
 30
0.0
 10
24.95856964624912
 20
-3.258404536980627
 30
0.0
 10
23.23690317509499
 20
-3.269388803090526
 30
0.0
 10
21.51519240727133
 20
-3.264804865373077
 30
0.0
 10
19.79364372147715
 20
-3.241089122187558
 30
0.0
 10
18.07244965316427
 20
-3.198340374724282
 30
0.0
 10
16.35209623118683
 20
-3.128712459746736
 30
0.0
 10
14.632655467423
 20
-3.042087327415427
 30
0.0
 10
13.20078379112518
 20
-2.947211845577062
 30
0.0
 10
12.05967901606232
 20
-2.821651705269618
 30
0.0
 10
11.2073664175522
 20
-2.699500751469741
 30
0.0
 10
10.36111393583647
 20
-2.541265834481631
 30
0.0
 10
9.516339889897116
 20
-2.375487969526531
 30
0.0
 10
8.677037963064869
 20
-2.182421777537543
 30
0.0
 10
8.008524965452029
 20
-1.909156710968048
 30
0.0
 10
7.529795108070404
 20
-1.590129537101561
 30
0.0
 10
7.201423712751915
 20
-1.310670847048986
 30
0.0
 10
6.972909456972209
 20
-1.051578372128017
 30
0.0
 10
6.859999557268237
 20
-0.8850488824823557
 30
0.0
 10
6.829967132935958
 20
-0.8361155670048642
 30
0.0
  0
ENDSEC
  0
SECTION
  2
OBJECTS
  0
DICTIONARY
  5
C
330
0
100
AcDbDictionary
281
     1
  3
ACAD_GROUP
350
D
  3
ACAD_LAYOUT
350
1A
  3
ACAD_MLINESTYLE
350
17
  3
ACAD_PLOTSETTINGS
350
19
  3
ACAD_PLOTSTYLENAME
350
E
  3
ACAD_SCALELIST
350
47
  3
DWGPROPS
350
B8
  0
DICTIONARY
  5
D
102
{ACAD_REACTORS
330
C
102
}
330
C
100
AcDbDictionary
281
     1
  0
DICTIONARY
  5
1A
102
{ACAD_REACTORS
330
C
102
}
330
C
100
AcDbDictionary
281
     1
  3
Layout1
350
1E
  3
Layout2
350
26
  3
Model
350
22
  0
DICTIONARY
  5
17
102
{ACAD_REACTORS
330
C
102
}
330
C
100
AcDbDictionary
281
     1
  3
Standard
350
18
  0
DICTIONARY
  5
19
102
{ACAD_REACTORS
330
C
102
}
330
C
100
AcDbDictionary
281
     1
  0
ACDBDICTIONARYWDFLT
  5
E
102
{ACAD_REACTORS
330
C
102
}
330
C
100
AcDbDictionary
281
     1
  3
Normal
350
F
100
AcDbDictionaryWithDefault
340
F
  0
DICTIONARY
  5
47
102
{ACAD_REACTORS
330
C
102
}
330
C
100
AcDbDictionary
281
     1
  3
A0
350
48
  3
A1
350
49
  3
A2
350
4A
  3
A3
350
4B
  3
A4
350
4C
  3
A5
350
4D
  3
A6
350
4E
  3
A7
350
4F
  3
A8
350
50
  3
A9
350
51
  3
B0
350
52
  3
B1
350
53
  3
B2
350
54
  3
B3
350
55
  3
B4
350
56
  3
B5
350
57
  3
B6
350
58
  0
XRECORD
  5
B8
102
{ACAD_REACTORS
330
C
102
}
330
C
100
AcDbXrecord
280
     1
  1
DWGPROPS COOKIE
  2

  3

  4

  6

  7

  8
CX_in_command
  9

300
=
301
=
302
=
303
=
304
=
305
=
306
=
307
=
308
=
309
=
 40
0.0
 41
2461083.075530255
 42
2461083.075612929
  1

 90
        0
  0
LAYOUT
  5
1E
102
{ACAD_REACTORS
330
1A
102
}
330
1A
100
AcDbPlotSettings
  1

  2
none_device
  4

  6

 40
0.0
 41
0.0
 42
0.0
 43
0.0
 44
0.0
 45
0.0
 46
0.0
 47
0.0
 48
0.0
 49
0.0
140
0.0
141
0.0
142
1.0
143
1.0
 70
   688
 72
     1
 73
     0
 74
     5
  7

 75
    16
147
1.0
148
0.0
149
0.0
100
AcDbLayout
  1
Layout1
 70
     1
 71
     1
 10
0.0
 20
0.0
 11
420.0
 21
297.0
 12
0.0
 22
0.0
 32
0.0
 14
1.0000000000E+20
 24
1.0000000000E+20
 34
1.0000000000E+20
 15
-1.0000000000E+20
 25
-1.0000000000E+20
 35
-1.0000000000E+20
146
0.0
 13
0.0
 23
0.0
 33
0.0
 16
1.0
 26
0.0
 36
0.0
 17
0.0
 27
1.0
 37
0.0
 76
     0
330
1B
  0
LAYOUT
  5
26
102
{ACAD_REACTORS
330
1A
102
}
330
1A
100
AcDbPlotSettings
  1

  2
none_device
  4

  6

 40
0.0
 41
0.0
 42
0.0
 43
0.0
 44
0.0
 45
0.0
 46
0.0
 47
0.0
 48
0.0
 49
0.0
140
0.0
141
0.0
142
1.0
143
1.0
 70
   688
 72
     1
 73
     0
 74
     5
  7

 75
    16
147
1.0
148
0.0
149
0.0
100
AcDbLayout
  1
Layout2
 70
     1
 71
     2
 10
0.0
 20
0.0
 11
0.0
 21
0.0
 12
0.0
 22
0.0
 32
0.0
 14
0.0
 24
0.0
 34
0.0
 15
0.0
 25
0.0
 35
0.0
146
0.0
 13
0.0
 23
0.0
 33
0.0
 16
1.0
 26
0.0
 36
0.0
 17
0.0
 27
1.0
 37
0.0
 76
     0
330
23
  0
LAYOUT
  5
22
102
{ACAD_REACTORS
330
1A
102
}
330
1A
100
AcDbPlotSettings
  1

  2
none_device
  4
ANSI_A_(11.00_x_8.50_Inches)
  6

 40
6.35
 41
19.05
 42
6.35000508
 43
19.05000254
 44
279.4
 45
215.9
 46
-30.8074925488
 47
89.1823399397
 48
0.0
 49
0.0
140
0.0
141
0.0
142
0.1490334123
143
1.0
 70
  1696
 72
     0
 73
     0
 74
     0
  7

 75
     0
147
0.0179189148
148
-1300.4909072572
149
0.0
100
AcDbLayout
  1
Model
 70
     1
 71
     0
 10
0.0
 20
0.0
 11
420.0
 21
297.0
 12
0.0
 22
0.0
 32
0.0
 14
6.8299671329
 24
-10.0
 34
0.0
 15
79.9008298006
 25
9.8508281399
 35
0.0
146
0.0
 13
0.0
 23
0.0
 33
0.0
 16
1.0
 26
0.0
 36
0.0
 17
0.0
 27
1.0
 37
0.0
 76
     0
330
1F
331
29
  0
MLINESTYLE
  5
18
102
{ACAD_REACTORS
330
17
102
}
330
17
100
AcDbMlineStyle
  2
Standard
 70
     0
  3

 62
   256
 51
90.0
 52
90.0
 71
     2
 49
0.5
 62
   256
  6
BYLAYER
 49
-0.5
 62
   256
  6
BYLAYER
  0
ACDBPLACEHOLDER
  5
F
102
{ACAD_REACTORS
330
E
102
}
330
E
  0
SCALE
  5
48
102
{ACAD_REACTORS
330
47
102
}
330
47
100
AcDbScale
 70
     0
300
1:1
140
1.0
141
1.0
290
     1
  0
SCALE
  5
49
102
{ACAD_REACTORS
330
47
102
}
330
47
100
AcDbScale
 70
     0
300
1:2
140
1.0
141
2.0
290
     0
  0
SCALE
  5
4A
102
{ACAD_REACTORS
330
47
102
}
330
47
100
AcDbScale
 70
     0
300
1:4
140
1.0
141
4.0
290
     0
  0
SCALE
  5
4B
102
{ACAD_REACTORS
330
47
102
}
330
47
100
AcDbScale
 70
     0
300
1:5
140
1.0
141
5.0
290
     0
  0
SCALE
  5
4C
102
{ACAD_REACTORS
330
47
102
}
330
47
100
AcDbScale
 70
     0
300
1:8
140
1.0
141
8.0
290
     0
  0
SCALE
  5
4D
102
{ACAD_REACTORS
330
47
102
}
330
47
100
AcDbScale
 70
     0
300
1:10
140
1.0
141
10.0
290
     0
  0
SCALE
  5
4E
102
{ACAD_REACTORS
330
47
102
}
330
47
100
AcDbScale
 70
     0
300
1:16
140
1.0
141
16.0
290
     0
  0
SCALE
  5
4F
102
{ACAD_REACTORS
330
47
102
}
330
47
100
AcDbScale
 70
     0
300
1:20
140
1.0
141
20.0
290
     0
  0
SCALE
  5
50
102
{ACAD_REACTORS
330
47
102
}
330
47
100
AcDbScale
 70
     0
300
1:30
140
1.0
141
30.0
290
     0
  0
SCALE
  5
51
102
{ACAD_REACTORS
330
47
102
}
330
47
100
AcDbScale
 70
     0
300
1:40
140
1.0
141
40.0
290
     0
  0
SCALE
  5
52
102
{ACAD_REACTORS
330
47
102
}
330
47
100
AcDbScale
 70
     0
300
1:50
140
1.0
141
50.0
290
     0
  0
SCALE
  5
53
102
{ACAD_REACTORS
330
47
102
}
330
47
100
AcDbScale
 70
     0
300
1:100
140
1.0
141
100.0
290
     0
  0
SCALE
  5
54
102
{ACAD_REACTORS
330
47
102
}
330
47
100
AcDbScale
 70
     0
300
2:1
140
2.0
141
1.0
290
     0
  0
SCALE
  5
55
102
{ACAD_REACTORS
330
47
102
}
330
47
100
AcDbScale
 70
     0
300
4:1
140
4.0
141
1.0
290
     0
  0
SCALE
  5
56
102
{ACAD_REACTORS
330
47
102
}
330
47
100
AcDbScale
 70
     0
300
8:1
140
8.0
141
1.0
290
     0
  0
SCALE
  5
57
102
{ACAD_REACTORS
330
47
102
}
330
47
100
AcDbScale
 70
     0
300
10:1
140
10.0
141
1.0
290
     0
  0
SCALE
  5
58
102
{ACAD_REACTORS
330
47
102
}
330
47
100
AcDbScale
 70
     0
300
100:1
140
100.0
141
1.0
290
     0
  0
ENDSEC
  0
EOF
