  0
SECTION
  2
HEADER
  9
$ACADVER
  1
AC1015
  9
$ACADMAINTVER
 70
     6
  9
$DWGCODEPAGE
  3
ANSI_936
  9
$INSBASE
 10
0.0
 20
0.0
 30
0.0
  9
$EXTMIN
 10
30.584408356
 20
-10.0
 30
0.0
  9
$EXTMAX
 10
79.9008294915
 20
7.7016985549
 30
0.0
  9
$LIMMIN
 10
0.0
 20
0.0
  9
$LIMMAX
 10
420.0
 20
297.0
  9
$ORTHOMODE
 70
     0
  9
$REGENMODE
 70
     1
  9
$FILLMODE
 70
     1
  9
$QTEXTMODE
 70
     0
  9
$MIRRTEXT
 70
     1
  9
$LTSCALE
 40
1.0
  9
$ATTMODE
 70
     1
  9
$TEXTSIZE
 40
3.5
  9
$TRACEWID
 40
1.0
  9
$TEXTSTYLE
  7
Standard
  9
$CLAYER
  8
0
  9
$CELTYPE
  6
ByLayer
  9
$CECOLOR
 62
   256
  9
$CELTSCALE
 40
1.0
  9
$DISPSILH
 70
     0
  9
$DIMSCALE
 40
1.0
  9
$DIMASZ
 40
3.556
  9
$DIMEXO
 40
0.0
  9
$DIMDLI
 40
3.75
  9
$DIMRND
 40
0.0
  9
$DIMDLE
 40
0.0
  9
$DIMEXE
 40
1.0
  9
$DIMTP
 40
0.0
  9
$DIMTM
 40
0.0
  9
$DIMTXT
 40
3.5
  9
$DIMCEN
 40
2.5
  9
$DIMTSZ
 40
0.0
  9
$DIMTOL
 70
     0
  9
$DIMLIM
 70
     0
  9
$DIMTIH
 70
     1
  9
$DIMTOH
 70
     1
  9
$DIMSE1
 70
     0
  9
$DIMSE2
 70
     0
  9
$DIMTAD
 70
     1
  9
$DIMZIN
 70
     1
  9
$DIMBLK
  1

  9
$DIMASO
 70
     1
  9
$DIMSHO
 70
     1
  9
$DIMPOST
  1

  9
$DIMAPOST
  1

  9
$DIMALT
 70
     0
  9
$DIMALTD
 70
     3
  9
$DIMALTF
 40
0.0393700787
  9
$DIMLFAC
 40
1.0
  9
$DIMTOFL
 70
     1
  9
$DIMTVP
 40
0.0
  9
$DIMTIX
 70
     0
  9
$DIMSOXD
 70
     0
  9
$DIMSAH
 70
     0
  9
$DIMBLK1
  1

  9
$DIMBLK2
  1

  9
$DIMSTYLE
  2
ISO-25
  9
$DIMCLRD
 70
     0
  9
$DIMCLRE
 70
     0
  9
$DIMCLRT
 70
     0
  9
$DIMTFAC
 40
1.0
  9
$DIMGAP
 40
1.524
  9
$DIMJUST
 70
     0
  9
$DIMSD1
 70
     0
  9
$DIMSD2
 70
     0
  9
$DIMTOLJ
 70
     0
  9
$DIMTZIN
 70
     1
  9
$DIMALTZ
 70
     0
  9
$DIMALTTZ
 70
     0
  9
$DIMUPT
 70
     0
  9
$DIMDEC
 70
     2
  9
$DIMTDEC
 70
     2
  9
$DIMALTU
 70
     2
  9
$DIMALTTD
 70
     3
  9
$DIMTXSTY
  7
Standard
  9
$DIMAUNIT
 70
     0
  9
$DIMADEC
 70
     2
  9
$DIMALTRND
 40
0.0
  9
$DIMAZIN
 70
     0
  9
$DIMDSEP
 70
    44
  9
$DIMATFIT
 70
     3
  9
$DIMFRAC
 70
     0
  9
$DIMLDRBLK
  1

  9
$DIMLUNIT
 70
     2
  9
$DIMLWD
 70
    -2
  9
$DIMLWE
 70
    -2
  9
$DIMTMOVE
 70
     0
  9
$LUNITS
 70
     2
  9
$LUPREC
 70
     2
  9
$SKETCHINC
 40
1.0
  9
$FILLETRAD
 40
0.0
  9
$AUNITS
 70
     0
  9
$AUPREC
 70
     2
  9
$MENU
  1
.
  9
$ELEVATION
 40
0.0
  9
$PELEVATION
 40
0.0
  9
$THICKNESS
 40
0.0
  9
$LIMCHECK
 70
     0
  9
$CHAMFERA
 40
0.0
  9
$CHAMFERB
 40
0.0
  9
$CHAMFERC
 40
0.0
  9
$CHAMFERD
 40
0.0
  9
$SKPOLY
 70
     0
  9
$TDCREATE
 40
2461083.410569919
  9
$TDUCREATE
 40
2461083.077236586
  9
$TDUPDATE
 40
2461083.410615718
  9
$TDUUPDATE
 40
2461083.077282384
  9
$TDINDWG
 40
0.0000000116
  9
$TDUSRTIMER
 40
0.0000000116
  9
$USRTIMER
 70
     1
  9
$ANGBASE
 50
0.0
  9
$ANGDIR
 70
     0
  9
$PDMODE
 70
     0
  9
$PDSIZE
 40
-1.0
  9
$PLINEWID
 40
0.0
  9
$SPLFRAME
 70
     0
  9
$SPLINETYPE
 70
     6
  9
$SPLINESEGS
 70
     8
  9
$HANDSEED
  5
B9
  9
$SURFTAB1
 70
     6
  9
$SURFTAB2
 70
     6
  9
$SURFTYPE
 70
     6
  9
$SURFU
 70
     6
  9
$SURFV
 70
     6
  9
$UCSBASE
  2

  9
$UCSNAME
  2

  9
$UCSORG
 10
0.0
 20
0.0
 30
0.0
  9
$UCSXDIR
 10
1.0
 20
0.0
 30
0.0
  9
$UCSYDIR
 10
0.0
 20
1.0
 30
0.0
  9
$UCSORTHOREF
  2

  9
$UCSORTHOVIEW
 70
     0
  9
$UCSORGTOP
 10
0.0
 20
0.0
 30
0.0
  9
$UCSORGBOTTOM
 10
0.0
 20
0.0
 30
0.0
  9
$UCSORGLEFT
 10
0.0
 20
0.0
 30
0.0
  9
$UCSORGRIGHT
 10
0.0
 20
0.0
 30
0.0
  9
$UCSORGFRONT
 10
0.0
 20
0.0
 30
0.0
  9
$UCSORGBACK
 10
0.0
 20
0.0
 30
0.0
  9
$PUCSBASE
  2

  9
$PUCSNAME
  2

  9
$PUCSORG
 10
0.0
 20
0.0
 30
0.0
  9
$PUCSXDIR
 10
1.0
 20
0.0
 30
0.0
  9
$PUCSYDIR
 10
0.0
 20
1.0
 30
0.0
  9
$PUCSORTHOREF
  2

  9
$PUCSORTHOVIEW
 70
     0
  9
$PUCSORGTOP
 10
0.0
 20
0.0
 30
0.0
  9
$PUCSORGBOTTOM
 10
0.0
 20
0.0
 30
0.0
  9
$PUCSORGLEFT
 10
0.0
 20
0.0
 30
0.0
  9
$PUCSORGRIGHT
 10
0.0
 20
0.0
 30
0.0
  9
$PUCSORGFRONT
 10
0.0
 20
0.0
 30
0.0
  9
$PUCSORGBACK
 10
0.0
 20
0.0
 30
0.0
  9
$USERI1
 70
     0
  9
$USERI2
 70
     0
  9
$USERI3
 70
     0
  9
$USERI4
 70
     0
  9
$USERI5
 70
     0
  9
$USERR1
 40
0.0
  9
$USERR2
 40
0.0
  9
$USERR3
 40
0.0
  9
$USERR4
 40
0.0
  9
$USERR5
 40
0.0
  9
$WORLDVIEW
 70
     1
  9
$SHADEDGE
 70
     3
  9
$SHADEDIF
 70
    70
  9
$TILEMODE
 70
     1
  9
$MAXACTVP
 70
    64
  9
$PINSBASE
 10
0.0
 20
0.0
 30
0.0
  9
$PLIMCHECK
 70
     0
  9
$PEXTMIN
 10
1.0000000000E+20
 20
1.0000000000E+20
 30
1.0000000000E+20
  9
$PEXTMAX
 10
-1.0000000000E+20
 20
-1.0000000000E+20
 30
-1.0000000000E+20
  9
$PLIMMIN
 10
0.0
 20
0.0
  9
$PLIMMAX
 10
420.0
 20
297.0
  9
$UNITMODE
 70
     0
  9
$VISRETAIN
 70
     1
  9
$PLINEGEN
 70
     0
  9
$PSLTSCALE
 70
     1
  9
$TREEDEPTH
 70
  3020
  9
$CMLSTYLE
  2
Standard
  9
$CMLJUST
 70
     0
  9
$CMLSCALE
 40
20.0
  9
$PROXYGRAPHICS
 70
     1
  9
$MEASUREMENT
 70
     1
  9
$CELWEIGHT
370
    -1
  9
$ENDCAPS
280
     0
  9
$JOINSTYLE
280
     0
  9
$LWDISPLAY
290
     1
  9
$INSUNITS
 70
     4
  9
$HYPERLINKBASE
  1

  9
$STYLESHEET
  1

  9
$XEDIT
290
     1
  9
$CEPSNTYPE
380
     0
  9
$PSTYLEMODE
290
     1
  9
$FINGERPRINTGUID
  2
{6ed87c87-dd8b-4ee5-ae8b-eb539f924baf}
  9
$VERSIONGUID
  2
{FAEB1C32-E019-11D5-929B-00C0DF256EC4}
  9
$EXTNAMES
290
     1
  9
$PSVPSCALE
 40
0.0
  9
$OLESTARTUP
290
     0
  0
ENDSEC
  0
SECTION
  2
CLASSES
  0
CLASS
  1
ACDBDICTIONARYWDFLT
  2
AcDbDictionaryWithDefault
  3
ObjectDBX Classes
 90
        0
280
     0
281
     0
  0
CLASS
  1
VISUALSTYLE
  2
AcDbVisualStyle
  3
ObjectDBX Classes
 90
     4095
280
     0
281
     0
  0
CLASS
  1
MATERIAL
  2
AcDbMaterial
  3
ObjectDBX Classes
 90
     1153
280
     0
281
     0
  0
CLASS
  1
SCALE
  2
AcDbScale
  3
ObjectDBX Classes
 90
     1153
280
     0
281
     0
  0
CLASS
  1
TABLESTYLE
  2
AcDbTableStyle
  3
ObjectDBX Classes
 90
     4095
280
     0
281
     0
  0
CLASS
  1
MLEADERSTYLE
  2
AcDbMLeaderStyle
  3
ACDB_MLEADERSTYLE_CLASS
 90
     4095
280
     0
281
     0
  0
CLASS
  1
SUN
  2
AcDbSun
  3
SCENEOE
 90
     1153
280
     0
281
     0
  0
CLASS
  1
ACDBPLACEHOLDER
  2
AcDbPlaceHolder
  3
ObjectDBX Classes
 90
        0
280
     0
281
     0
  0
CLASS
  1
LAYOUT
  2
AcDbLayout
  3
ObjectDBX Classes
 90
        0
280
     0
281
     0
  0
ENDSEC
  0
SECTION
  2
TABLES
  0
TABLE
  2
VPORT
  5
8
330
0
100
AcDbSymbolTable
 70
     1
  0
VPORT
  5
29
330
8
100
AcDbSymbolTableRecord
100
AcDbViewportTableRecord
  2
*Active
 70
     0
 10
0.0
 20
0.0
 11
1.0
 21
1.0
 12
55.2426189237
 22
-1.1491507225
 13
0.0
 23
0.0
 14
10.0
 24
10.0
 15
10.0
 25
10.0
 16
0.0
 26
0.0
 36
1.0
 17
0.0
 27
0.0
 37
0.0
 40
18.055732526
 41
2.7859711305
 42
50.0
 43
0.0
 44
0.0
 50
0.0
 51
0.0
 71
     0
 72
   100
 73
     1
 74
     3
 75
     0
 76
     0
 77
     0
 78
     0
281
     0
 65
     1
110
0.0
120
0.0
130
0.0
111
1.0
121
0.0
131
0.0
112
0.0
122
1.0
132
0.0
 79
     0
146
0.0
  0
ENDTAB
  0
TABLE
  2
LTYPE
  5
5
330
0
100
AcDbSymbolTable
 70
     6
  0
LTYPE
  5
14
330
5
100
AcDbSymbolTableRecord
100
AcDbLinetypeTableRecord
  2
ByBlock
 70
     0
  3

 72
    65
 73
     0
 40
0.0
  0
LTYPE
  5
15
330
5
100
AcDbSymbolTableRecord
100
AcDbLinetypeTableRecord
  2
ByLayer
 70
     0
  3

 72
    65
 73
     0
 40
0.0
  0
LTYPE
  5
16
330
5
100
AcDbSymbolTableRecord
100
AcDbLinetypeTableRecord
  2
Continuous
 70
     0
  3
Solid line
 72
    65
 73
     0
 40
0.0
  0
LTYPE
  5
5E
330
5
100
AcDbSymbolTableRecord
100
AcDbLinetypeTableRecord
  2
HIDDEN
 70
     0
  3
Hidden __ __ __ __ __ __ __ __ __ __ __ __ __ __
 72
    65
 73
     2
 40
1.905
 49
1.27
 74
     0
 49
-0.635
 74
     0
  0
LTYPE
  5
5F
330
5
100
AcDbSymbolTableRecord
100
AcDbLinetypeTableRecord
  2
PHANTOM
 70
     0
  3
Phantom ______  __  __  ______  __  __  ______
 72
    65
 73
     6
 40
12.7
 49
6.35
 74
     0
 49
-1.27
 74
     0
 49
1.27
 74
     0
 49
-1.27
 74
     0
 49
1.27
 74
     0
 49
-1.27
 74
     0
  0
LTYPE
  5
60
330
5
100
AcDbSymbolTableRecord
100
AcDbLinetypeTableRecord
  2
CENTER
 70
     0
  3
Center ____ _ ____ _ ____ _ ____ _ ____ _ ____
 72
    65
 73
     4
 40
10.16
 49
6.35
 74
     0
 49
-1.27
 74
     0
 49
1.27
 74
     0
 49
-1.27
 74
     0
  0
LTYPE
  5
61
330
5
100
AcDbSymbolTableRecord
100
AcDbLinetypeTableRecord
  2
CENTERX2
 70
     0
  3
Center (2x) ________  __  ________  __  _____
 72
    65
 73
     4
 40
20.32
 49
12.7
 74
     0
 49
-2.54
 74
     0
 49
2.54
 74
     0
 49
-2.54
 74
     0
  0
LTYPE
  5
62
330
5
100
AcDbSymbolTableRecord
100
AcDbLinetypeTableRecord
  2
DOT2
 70
     0
  3
Dot (.5x) ........................................
 72
    65
 73
     2
 40
0.635
 49
0.0
 74
     0
 49
-0.635
 74
     0
  0
ENDTAB
  0
TABLE
  2
LAYER
  5
2
330
0
100
AcDbSymbolTable
 70
     1
  0
LAYER
  5
10
330
2
100
AcDbSymbolTableRecord
100
AcDbLayerTableRecord
  2
0
 70
     0
 62
     7
  6
Continuous
370
    -3
390
F
  0
ENDTAB
  0
TABLE
  2
STYLE
  5
3
330
0
100
AcDbSymbolTable
 70
     1
  0
STYLE
  5
11
330
3
100
AcDbSymbolTableRecord
100
AcDbTextStyleTableRecord
  2
Standard
 70
     0
 40
0.0
 41
1.0
 50
0.0
 71
     0
 42
3.5
  3
txt
  4

  0
ENDTAB
  0
TABLE
  2
VIEW
  5
6
330
0
100
AcDbSymbolTable
 70
     0
  0
ENDTAB
  0
TABLE
  2
UCS
  5
7
330
0
100
AcDbSymbolTable
 70
     0
  0
ENDTAB
  0
TABLE
  2
APPID
  5
9
330
0
100
AcDbSymbolTable
 70
     1
  0
APPID
  5
12
330
9
100
AcDbSymbolTableRecord
100
AcDbRegAppTableRecord
  2
ACAD
 70
     0
  0
ENDTAB
  0
TABLE
  2
DIMSTYLE
  5
A
330
0
100
AcDbSymbolTable
 70
     1
100
AcDbDimStyleTable
  0
DIMSTYLE
105
27
330
A
100
AcDbSymbolTableRecord
100
AcDbDimStyleTableRecord
  2
ISO-25
 70
     0
 41
2.5
 42
0.625
 43
3.75
 44
1.25
 73
     0
 74
     0
 77
     1
 78
     8
140
2.5
141
2.5
143
0.0393700787
147
0.625
171
     3
172
     1
178
     0
271
     2
272
     2
274
     3
278
    44
283
     0
284
     8
340
11
  0
ENDTAB
  0
TABLE
  2
BLOCK_RECORD
  5
1
330
0
100
AcDbSymbolTable
 70
     1
  0
BLOCK_RECORD
  5
1F
330
1
100
AcDbSymbolTableRecord
100
AcDbBlockTableRecord
  2
*Model_Space
340
22
  0
BLOCK_RECORD
  5
1B
330
1
100
AcDbSymbolTableRecord
100
AcDbBlockTableRecord
  2
*Paper_Space
340
1E
  0
BLOCK_RECORD
  5
23
330
1
100
AcDbSymbolTableRecord
100
AcDbBlockTableRecord
  2
*Paper_Space0
340
26
  0
ENDTAB
  0
ENDSEC
  0
SECTION
  2
BLOCKS
  0
BLOCK
  5
20
330
1F
100
AcDbEntity
  8
0
100
AcDbBlockBegin
  2
*Model_Space
 70
     0
 10
0.0
 20
0.0
 30
0.0
  3
*Model_Space
  1

  0
ENDBLK
  5
21
330
1F
100
AcDbEntity
  8
0
100
AcDbBlockEnd
  0
BLOCK
  5
1C
330
1B
100
AcDbEntity
 67
     1
  8
0
100
AcDbBlockBegin
  2
*Paper_Space
 70
     0
 10
0.0
 20
0.0
 30
0.0
  3
*Paper_Space
  1

  0
ENDBLK
  5
1D
330
1B
100
AcDbEntity
 67
     1
  8
0
100
AcDbBlockEnd
  0
BLOCK
  5
24
330
23
100
AcDbEntity
  8
0
100
AcDbBlockBegin
  2
*Paper_Space0
 70
     0
 10
0.0
 20
0.0
 30
0.0
  3
*Paper_Space0
  1

  0
ENDBLK
  5
25
330
23
100
AcDbEntity
  8
0
100
AcDbBlockEnd
  0
ENDSEC
  0
SECTION
  2
ENTITIES
  0
SPLINE
  5
63
330
1F
100
AcDbEntity
  8
0
  6
Continuous
 62
     7
370
    25
100
AcDbSpline
210
0.0
220
0.0
230
1.0
 70
     8
 71
     3
 72
     9
 73
     5
 74
     0
 42
0.00000001
 43
0.00000001
 40
0.0
 40
0.0
 40
0.0
 40
0.0
 40
0.5
 40
1.0
 40
1.0
 40
1.0
 40
1.0
 10
40.547862836789
 20
-1.246869090025497
 30
0.0
 10
40.52783209321318
 20
-1.247966640860226
 30
0.0
 10
40.48772556698843
 20
-1.249614509011379
 30
0.0
 10
40.4475739200703
 20
-1.250164210215562
 30
0.0
 10
40.42749809520222
 20
-1.250164210215651
 30
0.0
  0
ARC
  5
64
330
1F
100
AcDbEntity
  8
0
  6
Continuous
 62
     7
370
    25
100
AcDbCircle
 10
40.6682275785
 20
0.9498357898
 30
0.0
 40
2.200000000000173
100
AcDbArc
 50
266.8637105173
 51
93.1362894804
  0
SPLINE
  5
65
330
1F
100
AcDbEntity
  8
0
  6
Continuous
 62
     7
370
    25
100
AcDbSpline
210
0.0
220
0.0
230
1.0
 70
     8
 71
     3
 72
     9
 73
     5
 74
     0
 42
0.00000001
 43
0.00000001
 40
0.0
 40
0.0
 40
0.0
 40
0.0
 40
0.5
 40
1.0
 40
1.0
 40
1.0
 40
1.0
 10
40.42749809519243
 20
3.149835789784345
 30
0.0
 10
40.44757392007674
 20
3.149835789784345
 30
0.0
 10
40.48772556983423
 20
3.149286088348447
 30
0.0
 10
40.52783209328445
 20
3.147638220425816
 30
0.0
 10
40.54786283687638
 20
3.146540669589402
 30
0.0
  0
SPLINE
  5
66
330
1F
100
AcDbEntity
  8
0
  6
Continuous
 62
     7
370
    25
100
AcDbSpline
210
0.0
220
0.0
230
1.0
 70
     8
 71
     3
 72
    10
 73
     6
 74
     0
 42
0.00000001
 43
0.00000001
 40
0.0
 40
0.0
 40
0.0
 40
0.0
 40
0.5
 40
0.5
 40
1.0
 40
1.0
 40
1.0
 40
1.0
 10
40.42749809519244
 20
-1.250164210215651
 30
0.0
 10
38.96083142852576
 20
-1.25016421021566
 30
0.0
 10
38.22749809519244
 20
0.2165024564510124
 30
0.0
 10
38.22749809519243
 20
1.683169123117681
 30
0.0
 10
38.96083142852576
 20
3.149835789784345
 30
0.0
 10
40.42749809519243
 20
3.149835789784344
 30
0.0
  0
LINE
  5
67
330
1F
100
AcDbEntity
  8
0
  6
Continuous
 62
     7
370
    25
100
AcDbLine
 10
49.3301223055
 20
4.1532592986
 30
0.0
 11
52.4860160457
 21
1.0340619972
 31
0.0
  0
ARC
  5
68
330
1F
100
AcDbEntity
  8
0
  6
Continuous
 62
     7
370
    25
100
AcDbCircle
 10
48.6271626716
 20
3.4420295515
 30
0.0
 40
1.000000000000004
100
AcDbArc
 50
45.3350592186
 51
180.0
  0
LINE
  5
69
330
1F
100
AcDbEntity
  8
0
  6
Continuous
 62
     7
370
    25
100
AcDbLine
 10
47.6271626716
 20
0.3228322501
 30
0.0
 11
47.6271626716
 21
3.4420295515
 31
0.0
  0
ARC
  5
6A
330
1F
100
AcDbEntity
  8
0
  6
Continuous
 62
     7
370
    25
100
AcDbCircle
 10
48.6271626716
 20
0.3228322501
 30
0.0
 40
1.0
100
AcDbArc
 50
180.0
 51
270.0
  0
LINE
  5
6B
330
1F
100
AcDbEntity
  8
0
  6
Continuous
 62
     7
370
    25
100
AcDbLine
 10
51.7830564119
 20
-0.6771677499
 30
0.0
 11
48.6271626716
 21
-0.6771677499
 31
0.0
  0
ARC
  5
6C
330
1F
100
AcDbEntity
  8
0
  6
Continuous
 62
     7
370
    25
100
AcDbCircle
 10
51.7830564119
 20
0.3228322501
 30
0.0
 40
1.000000000000002
100
AcDbArc
 50
270.0
 51
45.3350592186
  0
LINE
  5
6D
330
1F
100
AcDbEntity
  8
0
  6
Continuous
 62
     7
370
    25
100
AcDbLine
 10
73.0724070002
 20
3.1493212099
 30
0.0
 11
72.1301311045
 21
4.1513731033
 31
0.0
  0
ARC
  5
6E
330
1F
100
AcDbEntity
  8
0
  6
Continuous
 62
     7
370
    25
100
AcDbCircle
 10
73.8009087196
 20
3.8343651828
 30
0.0
 40
1.0
100
AcDbArc
 50
223.2390654685
 51
0.0
  0
LINE
  5
6F
330
1F
100
AcDbEntity
  8
0
  6
Continuous
 62
     7
370
    25
100
AcDbLine
 10
74.8009087196
 20
4.8364170762
 30
0.0
 11
74.8009087196
 21
3.8343651828
 31
0.0
  0
ARC
  5
70
330
1F
100
AcDbEntity
  8
0
  6
Continuous
 62
     7
370
    25
100
AcDbCircle
 10
73.8009087196
 20
4.8364170762
 30
0.0
 40
1.000000000000001
100
AcDbArc
 50
0.0
 51
90.0
  0
LINE
  5
71
330
1F
100
AcDbEntity
  8
0
  6
Continuous
 62
     7
370
    25
100
AcDbLine
 10
72.8586328239
 20
5.8364170762
 30
0.0
 11
73.8009087196
 21
5.8364170762
 31
0.0
  0
ARC
  5
72
330
1F
100
AcDbEntity
  8
0
  6
Continuous
 62
     7
370
    25
100
AcDbCircle
 10
72.8586328239
 20
4.8364170762
 30
0.0
 40
1.000000000000001
100
AcDbArc
 50
90.0
 51
223.2390654685
  0
LINE
  5
73
330
1F
100
AcDbEntity
  8
0
  6
Continuous
 62
     7
370
    25
100
AcDbLine
 10
54.6983849507
 20
1.0059900277
 30
0.0
 11
51.5424912105
 21
4.1251873291
 31
0.0
  0
ARC
  5
74
330
1F
100
AcDbEntity
  8
0
  6
Continuous
 62
     7
370
    25
100
AcDbCircle
 10
55.4013445845
 20
1.7172197748
 30
0.0
 40
1.0
100
AcDbArc
 50
225.3350592186
 51
0.0
  0
LINE
  5
75
330
1F
100
AcDbEntity
  8
0
  6
Continuous
 62
     7
370
    25
100
AcDbLine
 10
56.4013445845
 20
4.8364170762
 30
0.0
 11
56.4013445845
 21
1.7172197748
 31
0.0
  0
ARC
  5
76
330
1F
100
AcDbEntity
  8
0
  6
Continuous
 62
     7
370
    25
100
AcDbCircle
 10
55.4013445845
 20
4.8364170762
 30
0.0
 40
1.000000000000001
100
AcDbArc
 50
0.0
 51
90.0
  0
LINE
  5
77
330
1F
100
AcDbEntity
  8
0
  6
Continuous
 62
     7
370
    25
100
AcDbLine
 10
52.2454508443
 20
5.8364170762
 30
0.0
 11
55.4013445845
 21
5.8364170762
 31
0.0
  0
ARC
  5
78
330
1F
100
AcDbEntity
  8
0
  6
Continuous
 62
     7
370
    25
100
AcDbCircle
 10
52.2454508443
 20
4.8364170762
 30
0.0
 40
1.000000000000003
100
AcDbArc
 50
90.0
 51
225.3350592186
  0
LINE
  5
79
330
1F
100
AcDbEntity
  8
0
  6
Continuous
 62
     7
370
    25
100
AcDbLine
 10
58.3274619085
 20
1.7370458125
 30
0.0
 11
58.3274619085
 21
4.8364170762
 31
0.0
  0
ARC
  5
7A
330
1F
100
AcDbEntity
  8
0
  6
Continuous
 62
     7
370
    25
100
AcDbCircle
 10
59.3274619085
 20
1.7370458125
 30
0.0
 40
1.0
100
AcDbArc
 50
180.0
 51
315.0
  0
LINE
  5
7B
330
1F
100
AcDbEntity
  8
0
  6
Continuous
 62
     7
370
    25
100
AcDbLine
 10
63.1339399534
 20
4.129310295
 30
0.0
 11
60.0345686897
 21
1.0299390313
 31
0.0
  0
ARC
  5
7C
330
1F
100
AcDbEntity
  8
0
  6
Continuous
 62
     7
370
    25
100
AcDbCircle
 10
62.4268331722
 20
4.8364170762
 30
0.0
 40
1.000000000000001
100
AcDbArc
 50
315.0
 51
90.0
  0
LINE
  5
7D
330
1F
100
AcDbEntity
  8
0
  6
Continuous
 62
     7
370
    25
100
AcDbLine
 10
59.3274619085
 20
5.8364170762
 30
0.0
 11
62.4268331722
 21
5.8364170762
 31
0.0
  0
ARC
  5
7E
330
1F
100
AcDbEntity
  8
0
  6
Continuous
 62
     7
370
    25
100
AcDbCircle
 10
59.3274619085
 20
4.8364170762
 30
0.0
 40
1.0
100
AcDbArc
 50
90.0
 51
180.0
  0
LINE
  5
7F
330
1F
100
AcDbEntity
  8
0
  6
Continuous
 62
     7
370
    25
100
AcDbLine
 10
65.6574081419
 20
-0.6771677499
 30
0.0
 11
62.5580368782
 21
-0.6771677499
 31
0.0
  0
ARC
  5
80
330
1F
100
AcDbEntity
  8
0
  6
Continuous
 62
     7
370
    25
100
AcDbCircle
 10
65.6574081419
 20
0.3228322501
 30
0.0
 40
1.0
100
AcDbArc
 50
270.0
 51
0.0
  0
LINE
  5
81
330
1F
100
AcDbEntity
  8
0
  6
Continuous
 62
     7
370
    25
100
AcDbLine
 10
66.6574081419
 20
3.4222035138
 30
0.0
 11
66.6574081419
 21
0.3228322501
 31
0.0
  0
ARC
  5
82
330
1F
100
AcDbEntity
  8
0
  6
Continuous
 62
     7
370
    25
100
AcDbCircle
 10
65.6574081419
 20
3.4222035138
 30
0.0
 40
1.000000000000005
100
AcDbArc
 50
360.0
 51
135.0
  0
LINE
  5
83
330
1F
100
AcDbEntity
  8
0
  6
Continuous
 62
     7
370
    25
100
AcDbLine
 10
61.850930097
 20
1.0299390313
 30
0.0
 11
64.9503013607
 21
4.129310295
 31
0.0
  0
ARC
  5
84
330
1F
100
AcDbEntity
  8
0
  6
Continuous
 62
     7
370
    25
100
AcDbCircle
 10
62.5580368782
 20
0.3228322501
 30
0.0
 40
0.9999999999999991
100
AcDbArc
 50
135.0
 51
270.0
  0
LINE
  5
85
330
1F
100
AcDbEntity
  8
0
  6
Continuous
 62
     7
370
    25
100
AcDbLine
 10
70.4043843635
 20
3.9982628492
 30
0.0
 11
73.2163836772
 21
1.007876223
 31
0.0
  0
ARC
  5
86
330
1F
100
AcDbEntity
  8
0
  6
Continuous
 62
     7
370
    25
100
AcDbCircle
 10
69.6758826441
 20
3.3132188762
 30
0.0
 40
1.000000000000014
100
AcDbArc
 50
43.2390654685
 51
180.0
  0
LINE
  5
87
330
1F
100
AcDbEntity
  8
0
  6
Continuous
 62
     7
370
    25
100
AcDbLine
 10
68.6758826441
 20
0.3228322501
 30
0.0
 11
68.6758826441
 21
3.3132188762
 31
0.0
  0
ARC
  5
88
330
1F
100
AcDbEntity
  8
0
  6
Continuous
 62
     7
370
    25
100
AcDbCircle
 10
69.6758826441
 20
0.3228322501
 30
0.0
 40
1.0
100
AcDbArc
 50
180.0
 51
270.0
  0
LINE
  5
89
330
1F
100
AcDbEntity
  8
0
  6
Continuous
 62
     7
370
    25
100
AcDbLine
 10
72.4878819578
 20
-0.6771677499
 30
0.0
 11
69.6758826441
 21
-0.6771677499
 31
0.0
  0
ARC
  5
8A
330
1F
100
AcDbEntity
  8
0
  6
Continuous
 62
     7
370
    25
100
AcDbCircle
 10
72.4878819578
 20
0.3228322501
 30
0.0
 40
0.9999999999999936
100
AcDbArc
 50
270.0
 51
43.2390654685
  0
LINE
  5
8B
330
1F
100
AcDbEntity
  8
0
  6
Continuous
 62
     7
370
    25
100
AcDbLine
 10
50.5611322136
 20
-2.772285894
 30
0.0
 11
50.5611322136
 21
-2.4137632977
 31
0.0
  0
SPLINE
  5
8C
330
1F
100
AcDbEntity
  8
0
  6
Continuous
 62
     7
370
    25
100
AcDbSpline
210
0.0
220
0.0
230
1.0
 70
     8
 71
     3
 72
     9
 73
     5
 74
     0
 42
0.00000001
 43
0.00000001
 40
0.3711032265347868
 40
0.3711032265347868
 40
0.3711032265347868
 40
0.3711032265347868
 40
0.3741732638540937
 40
0.3769016566621355
 40
0.3769016566621355
 40
0.3769016566621355
 40
0.3769016566621355
 10
50.56113220420769
 20
-2.413763297680647
 30
0.0
 10
50.38470705756567
 20
-2.419675713066967
 30
0.0
 10
50.05148344852297
 20
-2.430646733366981
 30
0.0
 10
49.71824617528271
 20
-2.441196108286523
 30
0.0
 10
49.56144158290086
 20
-2.446058112833947
 30
0.0
  0
LINE
  5
8D
330
1F
100
AcDbEntity
  8
0
  6
Continuous
 62
     7
370
    25
100
AcDbLine
 10
49.5614415829
 20
-2.4460581128
 30
0.0
 11
49.5614415829
 21
-2.7971584269
 31
0.0
  0
LINE
  5
8E
330
1F
100
AcDbEntity
  8
0
  6
Continuous
 62
     7
370
    25
100
AcDbLine
 10
49.5614415829
 20
-2.7971584269
 30
0.0
 11
50.5611322136
 21
-2.772285894
 31
0.0
  0
LINE
  5
8F
330
1F
100
AcDbEntity
  8
0
  6
Continuous
 62
     7
370
    25
100
AcDbLine
 10
51.7607609704
 20
-2.7424388545
 30
0.0
 11
51.7607609704
 21
-2.3721286719
 31
0.0
  0
SPLINE
  5
90
330
1F
100
AcDbEntity
  8
0
  6
Continuous
 62
     7
370
    25
100
AcDbSpline
210
0.0
220
0.0
230
1.0
 70
     8
 71
     3
 72
     9
 73
     5
 74
     0
 42
0.00000001
 43
0.00000001
 40
0.3641445528282156
 40
0.3641445528282156
 40
0.3641445528282156
 40
0.3641445528282156
 40
0.3663779875238
 40
0.3699434863141378
 40
0.3699434863141378
 40
0.3699434863141378
 40
0.3699434863141378
 10
51.76076096099847
 20
-2.372128671899075
 30
0.0
 10
51.63242266456805
 20
-2.376718930882106
 30
0.0
 10
51.29919900750824
 20
-2.388536671141939
 30
0.0
 10
50.96596509097809
 20
-2.400064062148063
 30
0.0
 10
50.76107033972793
 20
-2.407019246236951
 30
0.0
  0
LINE
  5
91
330
1F
100
AcDbEntity
  8
0
  6
Continuous
 62
     7
370
    25
100
AcDbLine
 10
50.7610703397
 20
-2.4070192466
 30
0.0
 11
50.7610703397
 21
-2.7673113874
 31
0.0
  0
LINE
  5
92
330
1F
100
AcDbEntity
  8
0
  6
Continuous
 62
     7
370
    25
100
AcDbLine
 10
50.7610703397
 20
-2.7673113874
 30
0.0
 11
51.7607609704
 21
-2.7424388545
 31
0.0
  0
LINE
  5
93
330
1F
100
AcDbEntity
  8
0
  6
Continuous
 62
     7
370
    25
100
AcDbLine
 10
52.9603897273
 20
-2.712591815
 30
0.0
 11
52.9603897273
 21
-2.3282253221
 31
0.0
  0
SPLINE
  5
94
330
1F
100
AcDbEntity
  8
0
  6
Continuous
 62
     7
370
    25
100
AcDbSpline
210
0.0
220
0.0
230
1.0
 70
     8
 71
     3
 72
     9
 73
     5
 74
     0
 42
0.00000001
 43
0.00000001
 40
0.3571854106937853
 40
0.3571854106937853
 40
0.3571854106937853
 40
0.3571854106937853
 40
0.3585827111935065
 40
0.3629847243607173
 40
0.3629847243607173
 40
0.3629847243607173
 40
0.3629847243607173
 10
52.96038972723133
 20
-2.328225322140236
 30
0.0
 10
52.88010217803122
 20
-2.331221236542334
 30
0.0
 10
52.54687768019206
 20
-2.343615788289213
 30
0.0
 10
52.21364613877432
 20
-2.355822631053297
 30
0.0
 10
51.96069909656448
 20
-2.364946768122591
 30
0.0
  0
LINE
  5
95
330
1F
100
AcDbEntity
  8
0
  6
Continuous
 62
     7
370
    25
100
AcDbLine
 10
51.9606990966
 20
-2.3649467685
 30
0.0
 11
51.9606990966
 21
-2.7374643479
 31
0.0
  0
LINE
  5
96
330
1F
100
AcDbEntity
  8
0
  6
Continuous
 62
     7
370
    25
100
AcDbLine
 10
51.9606990966
 20
-2.7374643479
 30
0.0
 11
52.9603897273
 21
-2.712591815
 31
0.0
  0
LINE
  5
97
330
1F
100
AcDbEntity
  8
0
  6
Continuous
 62
     7
370
    25
100
AcDbLine
 10
73.3726713337
 20
-1.5752338187
 30
0.0
 11
73.3726713337
 21
-1.7067595454
 31
0.0
  0
SPLINE
  5
98
330
1F
100
AcDbEntity
  8
0
  6
Continuous
 62
     7
370
    25
100
AcDbSpline
210
0.0
220
0.0
230
1.0
 70
     8
 71
     3
 72
     8
 73
     4
 74
     0
 42
0.00000001
 43
0.00000001
 40
0.2387708618423977
 40
0.2387708618423977
 40
0.2387708618423977
 40
0.2387708618423977
 40
0.2445680755130477
 40
0.2445680755130477
 40
0.2445680755130477
 40
0.2445680755130477
 10
73.37267126916677
 20
-1.575232063612974
 30
0.0
 10
73.03956239107704
 20
-1.587486626394792
 30
0.0
 10
72.70645369229354
 20
-1.599746048661696
 30
0.0
 10
72.37334513367574
 20
-1.612009283554808
 30
0.0
  0
LINE
  5
99
330
1F
100
AcDbEntity
  8
0
  6
Continuous
 62
     7
370
    25
100
AcDbLine
 10
72.3733451634
 20
-1.7434638398
 30
0.0
 11
72.3733451634
 21
-1.6120100903
 31
0.0
  0
LINE
  5
9A
330
1F
100
AcDbEntity
  8
0
  6
Continuous
 62
     7
370
    25
100
AcDbLine
 10
73.3726713337
 20
-1.7067595454
 30
0.0
 11
72.3733451634
 21
-1.7434638398
 31
0.0
  0
LINE
  5
9B
330
1F
100
AcDbEntity
  8
0
  6
Continuous
 62
     7
370
    25
100
AcDbLine
 10
74.5718627382
 20
-1.5311370083
 30
0.0
 11
74.5718627382
 21
-1.662714392
 31
0.0
  0
SPLINE
  5
9C
330
1F
100
AcDbEntity
  8
0
  6
Continuous
 62
     7
370
    25
100
AcDbSpline
210
0.0
220
0.0
230
1.0
 70
     8
 71
     3
 72
     9
 73
     5
 74
     0
 42
0.00000001
 43
0.00000001
 40
0.2318142128627634
 40
0.2318142128627634
 40
0.2318142128627634
 40
0.2318142128627634
 40
0.2338582899088086
 40
0.2376114197537733
 40
0.2376114197537733
 40
0.2376114197537733
 40
0.2376114197537733
 10
74.57186278807937
 20
-1.531138366569286
 30
0.0
 10
74.45440960815499
 20
-1.535454758322766
 30
0.0
 10
74.121300712712
 20
-1.547698292940131
 30
0.0
 10
73.78819202974249
 20
-1.559947574139714
 30
0.0
 10
73.5725365065779
 20
-1.567879921549848
 30
0.0
  0
LINE
  5
9D
330
1F
100
AcDbEntity
  8
0
  6
Continuous
 62
     7
370
    25
100
AcDbLine
 10
73.5725365678
 20
-1.6994186865
 30
0.0
 11
73.5725365678
 21
-1.5678815862
 31
0.0
  0
LINE
  5
9E
330
1F
100
AcDbEntity
  8
0
  6
Continuous
 62
     7
370
    25
100
AcDbLine
 10
74.5718627382
 20
-1.662714392
 30
0.0
 11
73.5725365678
 21
-1.6994186865
 31
0.0
  0
LINE
  5
9F
330
1F
100
AcDbEntity
  8
0
  6
Continuous
 62
     7
370
    25
100
AcDbLine
 10
75.7710541426
 20
-1.4870842839
 30
0.0
 11
75.7710541426
 21
-1.6186692387
 31
0.0
  0
SPLINE
  5
A0
330
1F
100
AcDbEntity
  8
0
  6
Continuous
 62
     7
370
    25
100
AcDbSpline
210
0.0
220
0.0
230
1.0
 70
     8
 71
     3
 72
     8
 73
     4
 74
     0
 42
0.00000001
 43
0.00000001
 40
0.2248575733050042
 40
0.2248575733050042
 40
0.2248575733050042
 40
0.2248575733050042
 40
0.2306547722406824
 40
0.2306547722406824
 40
0.2306547722406824
 40
0.2306547722406824
 10
75.77105426299723
 20
-1.487087562446724
 30
0.0
 10
75.43794539269398
 20
-1.499319338284931
 30
0.0
 10
75.10483663639842
 20
-1.511554235406758
 30
0.0
 10
74.77172805753017
 20
-1.52379394470944
 30
0.0
  0
LINE
  5
A1
330
1F
100
AcDbEntity
  8
0
  6
Continuous
 62
     7
370
    25
100
AcDbLine
 10
74.7717279722
 20
-1.6553735331
 30
0.0
 11
74.7717279722
 21
-1.5237916235
 31
0.0
  0
LINE
  5
A2
330
1F
100
AcDbEntity
  8
0
  6
Continuous
 62
     7
370
    25
100
AcDbLine
 10
75.7710541426
 20
-1.6186692387
 30
0.0
 11
74.7717279722
 21
-1.6553735331
 31
0.0
  0
LINE
  5
A3
330
1F
100
AcDbEntity
  8
0
  6
Continuous
 62
     7
370
    25
100
AcDbLine
 10
31.3277725931
 20
-0.0501642102
 30
0.0
 11
30.5844120928
 21
-0.7935247105
 31
0.0
  0
LINE
  5
A4
330
1F
100
AcDbEntity
  8
0
  6
Continuous
 62
     7
370
    25
100
AcDbLine
 10
30.615542683
 20
0.6620656999
 30
0.0
 11
31.3277725931
 21
-0.0501642102
 31
0.0
  0
SPLINE
  5
A5
330
1F
100
AcDbEntity
  8
0
  6
Continuous
 62
     7
370
    25
100
AcDbSpline
210
0.0
220
0.0
230
1.0
 70
     8
 71
     3
 72
    44
 73
    40
 74
     0
 42
0.00000001
 43
0.00000001
 40
0.4981846822383369
 40
0.4981846822383369
 40
0.4981846822383369
 40
0.4981846822383369
 40
0.4988976851387915
 40
0.5008465042213651
 40
0.5027953233039385
 40
0.5047441423865117
 40
0.506692961469085
 40
0.5086417805516585
 40
0.5105905996342321
 40
0.5144882377993787
 40
0.5183858759645255
 40
0.5222835141296726
 40
0.5261811522948192
 40
0.5300787904599662
 40
0.533976428625113
 40
0.5378740667902596
 40
0.5417717049554067
 40
0.5456693431205533
 40
0.5495669812857
 40
0.553464619450847
 40
0.5612598957811407
 40
0.5690551721114341
 40
0.5768504484417276
 40
0.5846457247720215
 40
0.5924410011023151
 40
0.6002362774326085
 40
0.6080315537629022
 40
0.6236221064234896
 40
0.6392126590840765
 40
0.654803211744664
 40
0.6703937644052511
 40
0.6859843170658385
 40
0.7015748697264255
 40
0.717165422387013
 40
0.7327559750476
 40
0.7483465277081874
 40
0.7639370803687744
 40
0.7795276330293619
 40
0.7934714424706976
 40
0.7934714424706976
 40
0.7934714424706976
 40
0.7934714424706976
 10
30.61554408230183
 20
0.6620643005293605
 30
0.0
 10
30.63852515432022
 20
0.6960186102079269
 30
0.0
 10
30.72716815217693
 20
0.8208741455727236
 30
0.0
 10
30.89560747740827
 20
1.025881689449275
 30
0.0
 10
31.1246250698017
 20
1.272056509368871
 30
0.0
 10
31.36167914070875
 20
1.510451510660106
 30
0.0
 10
31.60164741976786
 20
1.745864867727161
 30
0.0
 10
31.84690374438814
 20
1.975839546453231
 30
0.0
 10
32.1840891195104
 20
2.271250563422712
 30
0.0
 10
32.62662319993935
 20
2.615587233011939
 30
0.0
 10
33.18660391845075
 20
2.988393583058213
 30
0.0
 10
33.76879459785091
 20
3.325190796553848
 30
0.0
 10
34.36592124158203
 20
3.634476438021372
 30
0.0
 10
34.97531536998253
 20
3.918817476046818
 30
0.0
 10
35.59378834077744
 20
4.182645853963598
 30
0.0
 10
36.2191139714451
 20
4.429781340933196
 30
0.0
 10
36.84987707558546
 20
4.662604559183151
 30
0.0
 10
37.48456365314316
 20
4.884493876472471
 30
0.0
 10
38.12274369469439
 20
5.096112904041679
 30
0.0
 10
38.97830708616056
 20
5.363859306738806
 30
0.0
 10
40.05604710102951
 20
5.671173356489066
 30
0.0
 10
41.35984382149919
 20
6.000712782558526
 30
0.0
 10
42.6718711822633
 20
6.295633463729837
 30
0.0
 10
43.99060014695478
 20
6.55894801257417
 30
0.0
 10
45.31526095022888
 20
6.790571701176336
 30
0.0
 10
46.6452435139518
 20
6.989479765173308
 30
0.0
 10
48.42481246755637
 20
7.20881414666034
 30
0.0
 10
50.65771492995282
 20
7.405983079203096
 30
0.0
 10
53.34335616975302
 20
7.550926487590322
 30
0.0
 10
56.03128878460191
 20
7.639903092470164
 30
0.0
 10
58.72007133157378
 20
7.696325539096565
 30
0.0
 10
61.40948876290592
 20
7.708392544702689
 30
0.0
 10
64.09867712306382
 20
7.67072514391296
 30
0.0
 10
66.78650422714996
 20
7.576599758653668
 30
0.0
 10
69.47209795737386
 20
7.43326045690232
 30
0.0
 10
72.15495548188449
 20
7.245624308012948
 30
0.0
 10
74.83483393081501
 20
7.0196721364582
 30
0.0
 10
77.41699699348128
 20
6.764824111289637
 30
0.0
 10
79.10464699672073
 20
6.57555747794325
 30
0.0
 10
79.90082949146598
 20
6.481190305017686
 30
0.0
  0
LINE
  5
A6
330
1F
100
AcDbEntity
  8
0
  6
Continuous
 62
     7
370
    25
100
AcDbLine
 10
79.900829426
 20
3.9498357898
 30
0.0
 11
79.900829426
 21
6.4811897528
 31
0.0
  0
LINE
  5
A7
330
1F
100
AcDbEntity
  8
0
  6
Continuous
 62
     7
370
    25
100
AcDbLine
 10
79.900829426
 20
3.9498357898
 30
0.0
 11
77.900829426
 21
3.9498357898
 31
0.0
  0
LINE
  5
A8
330
1F
100
AcDbEntity
  8
0
  6
Continuous
 62
     7
370
    25
100
AcDbLine
 10
77.900829426
 20
0.9498357898
 30
0.0
 11
77.900829426
 21
3.9498357898
 31
0.0
  0
LINE
  5
A9
330
1F
100
AcDbEntity
  8
0
  6
Continuous
 62
     7
370
    25
100
AcDbLine
 10
79.900829426
 20
0.9498357898
 30
0.0
 11
77.900829426
 21
0.9498357898
 31
0.0
  0
LINE
  5
AA
330
1F
100
AcDbEntity
  8
0
  6
Continuous
 62
     7
370
    25
100
AcDbLine
 10
79.900829426
 20
0.9498357898
 30
0.0
 11
79.900829426
 21
-1.3355150382
 31
0.0
  0
SPLINE
  5
AB
330
1F
100
AcDbEntity
  8
0
  6
Continuous
 62
     7
370
    25
100
AcDbSpline
210
0.0
220
0.0
230
1.0
 70
     8
 71
     3
 72
    10
 73
     6
 74
     0
 42
0.00000001
 43
0.00000001
 40
0.2009003279254803
 40
0.2009003279254803
 40
0.2009003279254803
 40
0.2009003279254803
 40
0.2026771845876341
 40
0.2182677372482213
 40
0.2236981344105125
 40
0.2236981344105125
 40
0.2236981344105125
 40
0.2236981344105125
 10
79.90082937719141
 20
-1.335513707787295
 30
0.0
 10
79.79873055273663
 20
-1.339260544877572
 30
0.0
 10
78.80079294078257
 20
-1.375882654034253
 30
0.0
 10
77.49082268469938
 20
-1.423952795053562
 30
0.0
 10
76.28295181010242
 20
-1.468292125821853
 30
0.0
 10
75.97091944447791
 20
-1.479748863620402
 30
0.0
  0
LINE
  5
AC
330
1F
100
AcDbEntity
  8
0
  6
Continuous
 62
     7
370
    25
100
AcDbLine
 10
75.9709193767
 20
-10.0
 30
0.0
 11
75.9709193767
 21
-1.4797470167
 31
0.0
  0
LINE
  5
AD
330
1F
100
AcDbEntity
  8
0
  6
Continuous
 62
     7
370
    25
100
AcDbLine
 10
71.9709193855
 20
-10.0
 30
0.0
 11
75.9709193767
 21
-10.0
 31
0.0
  0
LINE
  5
AE
330
1F
100
AcDbEntity
  8
0
  6
Continuous
 62
     7
370
    25
100
AcDbLine
 10
71.9709193855
 20
-1.7582445538
 30
0.0
 11
71.9709193855
 21
-10.0
 31
0.0
  0
LINE
  5
AF
330
1F
100
AcDbEntity
  8
0
  6
Continuous
 62
     7
370
    25
100
AcDbLine
 10
72.1734799293
 20
-1.7508046987
 30
0.0
 11
71.9709193855
 21
-1.7582445538
 31
0.0
  0
LINE
  5
B0
330
1F
100
AcDbEntity
  8
0
  6
Continuous
 62
     7
370
    25
100
AcDbLine
 10
72.1734799293
 20
-1.6193682006
 30
0.0
 11
72.1734799293
 21
-1.7508046987
 31
0.0
  0
SPLINE
  5
B1
330
1F
100
AcDbEntity
  8
0
  6
Continuous
 62
     7
370
    25
100
AcDbSpline
210
0.0
220
0.0
230
1.0
 70
     8
 71
     3
 72
    15
 73
    11
 74
     0
 42
0.00000001
 43
0.00000001
 40
0.2457275188561217
 40
0.2457275188561217
 40
0.2457275188561217
 40
0.2457275188561217
 40
0.2494488425693957
 40
0.2650393952299831
 40
0.2806299478905703
 40
0.2962205005511576
 40
0.3118110532117448
 40
0.327401605872332
 40
0.3429921585329193
 40
0.3560255187818709
 40
0.3560255187818709
 40
0.3560255187818709
 40
0.3560255187818709
 10
72.17347991004188
 20
-1.619367677495838
 30
0.0
 10
71.95965226008997
 20
-1.627240595208285
 30
0.0
 10
70.84999010590323
 20
-1.668104948446248
 30
0.0
 10
68.84449554319572
 20
-1.742018041415983
 30
0.0
 10
66.15698596111864
 20
-1.84082735364
 30
0.0
 10
63.46944938663485
 20
-1.938902047372246
 30
0.0
 10
60.78188544050037
 20
-2.036219395167417
 30
0.0
 10
58.09435120095747
 20
-2.134363204892401
 30
0.0
 10
55.55383790123923
 20
-2.22937692742717
 30
0.0
 10
53.90920704155344
 20
-2.292662176414484
 30
0.0
 10
53.16032785335995
 20
-2.320745694567008
 30
0.0
  0
LINE
  5
B2
330
1F
100
AcDbEntity
  8
0
  6
Continuous
 62
     7
370
    25
100
AcDbLine
 10
53.1603278534
 20
-2.3207456946
 30
0.0
 11
53.1603278534
 21
-10.0
 31
0.0
  0
LINE
  5
B3
330
1F
100
AcDbEntity
  8
0
  6
Continuous
 62
     7
370
    25
100
AcDbLine
 10
53.1603278534
 20
-10.0
 30
0.0
 11
49.1603278559
 21
-10.0
 31
0.0
  0
LINE
  5
B4
330
1F
100
AcDbEntity
  8
0
  6
Continuous
 62
     7
370
    25
100
AcDbLine
 10
49.1603278559
 20
-10.0
 30
0.0
 11
49.1603278559
 21
-2.8071382287
 31
0.0
  0
LINE
  5
B5
330
1F
100
AcDbEntity
  8
0
  6
Continuous
 62
     7
370
    25
100
AcDbLine
 10
49.1603278559
 20
-2.8071382287
 30
0.0
 11
49.3615034568
 21
-2.8021329335
 31
0.0
  0
LINE
  5
B6
330
1F
100
AcDbEntity
  8
0
  6
Continuous
 62
     7
370
    25
100
AcDbLine
 10
49.3615034568
 20
-2.8021329335
 30
0.0
 11
49.3615034568
 21
-2.4522016185
 31
0.0
  0
SPLINE
  5
B7
330
1F
100
AcDbEntity
  8
0
  6
Continuous
 62
     7
370
    25
100
AcDbSpline
210
0.0
220
0.0
230
1.0
 70
     8
 71
     3
 72
    27
 73
    23
 74
     0
 42
0.00000001
 43
0.00000001
 40
0.3780612848019904
 40
0.3780612848019904
 40
0.3780612848019904
 40
0.3780612848019904
 40
0.3819685401843872
 40
0.3897638165146809
 40
0.3975590928449745
 40
0.4053543691752682
 40
0.4131496455055617
 40
0.4209449218358554
 40
0.4287401981661489
 40
0.4365354744964426
 40
0.4443307508267361
 40
0.4521260271570299
 40
0.4599213034873234
 40
0.4638189416524703
 40
0.4677165798176171
 40
0.4716142179827639
 40
0.4755118561479106
 40
0.4794094943130575
 40
0.4833071324782043
 40
0.4852559515607776
 40
0.4872047706433512
 40
0.4890245838136061
 40
0.4890245838136061
 40
0.4890245838136061
 40
0.4890245838136061
 10
49.36150345685029
 20
-2.452201618478607
 30
0.0
 10
49.13694409160817
 20
-2.459038107778401
 30
0.0
 10
48.46435172913462
 20
-2.478865727306883
 30
0.0
 10
47.34362888468008
 20
-2.508291363322305
 30
0.0
 10
45.99925677416248
 20
-2.536449050892254
 30
0.0
 10
44.65472248555741
 20
-2.555849671564043
 30
0.0
 10
43.3100786872962
 20
-2.564408751336913
 30
0.0
 10
41.96539813928954
 20
-2.560869392492772
 30
0.0
 10
40.62084866590379
 20
-2.542253466309991
 30
0.0
 10
39.27656776821101
 20
-2.509007794754937
 30
0.0
 10
37.93295514235129
 20
-2.454509914568834
 30
0.0
 10
36.5900474290538
 20
-2.386720024163532
 30
0.0
 10
35.47173212183235
 20
-2.312906017021198
 30
0.0
 10
34.58051756118553
 20
-2.214686292303682
 30
0.0
 10
33.91485031474227
 20
-2.119361291053471
 30
0.0
 10
33.25391052739798
 20
-1.995739237634926
 30
0.0
 10
32.5941435346997
 20
-1.866275521451651
 30
0.0
 10
31.93861292127298
 20
-1.715495346199996
 30
0.0
 10
31.41653711416199
 20
-1.502047040344022
 30
0.0
 10
31.04257825517025
 20
-1.252929431907081
 30
0.0
 10
30.791807195112
 20
-1.039451410421624
 30
0.0
 10
30.64725272165262
 20
-0.8772144060931548
 30
0.0
 10
30.58440835602603
 20
-0.7935284471240822
 30
0.0
  0
ENDSEC
  0
SECTION
  2
OBJECTS
  0
DICTIONARY
  5
C
330
0
100
AcDbDictionary
281
     1
  3
ACAD_GROUP
350
D
  3
ACAD_LAYOUT
350
1A
  3
ACAD_MLINESTYLE
350
17
  3
ACAD_PLOTSETTINGS
350
19
  3
ACAD_PLOTSTYLENAME
350
E
  3
ACAD_SCALELIST
350
47
  3
DWGPROPS
350
B8
  0
DICTIONARY
  5
D
102
{ACAD_REACTORS
330
C
102
}
330
C
100
AcDbDictionary
281
     1
  0
DICTIONARY
  5
1A
102
{ACAD_REACTORS
330
C
102
}
330
C
100
AcDbDictionary
281
     1
  3
Layout1
350
1E
  3
Layout2
350
26
  3
Model
350
22
  0
DICTIONARY
  5
17
102
{ACAD_REACTORS
330
C
102
}
330
C
100
AcDbDictionary
281
     1
  3
Standard
350
18
  0
DICTIONARY
  5
19
102
{ACAD_REACTORS
330
C
102
}
330
C
100
AcDbDictionary
281
     1
  0
ACDBDICTIONARYWDFLT
  5
E
102
{ACAD_REACTORS
330
C
102
}
330
C
100
AcDbDictionary
281
     1
  3
Normal
350
F
100
AcDbDictionaryWithDefault
340
F
  0
DICTIONARY
  5
47
102
{ACAD_REACTORS
330
C
102
}
330
C
100
AcDbDictionary
281
     1
  3
A0
350
48
  3
A1
350
49
  3
A2
350
4A
  3
A3
350
4B
  3
A4
350
4C
  3
A5
350
4D
  3
A6
350
4E
  3
A7
350
4F
  3
A8
350
50
  3
A9
350
51
  3
B0
350
52
  3
B1
350
53
  3
B2
350
54
  3
B3
350
55
  3
B4
350
56
  3
B5
350
57
  3
B6
350
58
  0
XRECORD
  5
B8
102
{ACAD_REACTORS
330
C
102
}
330
C
100
AcDbXrecord
280
     1
  1
DWGPROPS COOKIE
  2

  3

  4

  6

  7

  8
CX_in_command
  9

300
=
301
=
302
=
303
=
304
=
305
=
306
=
307
=
308
=
309
=
 40
0.0
 41
2461083.077236586
 42
2461083.077282384
  1

 90
        0
  0
LAYOUT
  5
1E
102
{ACAD_REACTORS
330
1A
102
}
330
1A
100
AcDbPlotSettings
  1

  2
none_device
  4

  6

 40
0.0
 41
0.0
 42
0.0
 43
0.0
 44
0.0
 45
0.0
 46
0.0
 47
0.0
 48
0.0
 49
0.0
140
0.0
141
0.0
142
1.0
143
1.0
 70
   688
 72
     1
 73
     0
 74
     5
  7

 75
    16
147
1.0
148
0.0
149
0.0
100
AcDbLayout
  1
Layout1
 70
     1
 71
     1
 10
0.0
 20
0.0
 11
420.0
 21
297.0
 12
0.0
 22
0.0
 32
0.0
 14
1.0000000000E+20
 24
1.0000000000E+20
 34
1.0000000000E+20
 15
-1.0000000000E+20
 25
-1.0000000000E+20
 35
-1.0000000000E+20
146
0.0
 13
0.0
 23
0.0
 33
0.0
 16
1.0
 26
0.0
 36
0.0
 17
0.0
 27
1.0
 37
0.0
 76
     0
330
1B
  0
LAYOUT
  5
26
102
{ACAD_REACTORS
330
1A
102
}
330
1A
100
AcDbPlotSettings
  1

  2
none_device
  4

  6

 40
0.0
 41
0.0
 42
0.0
 43
0.0
 44
0.0
 45
0.0
 46
0.0
 47
0.0
 48
0.0
 49
0.0
140
0.0
141
0.0
142
1.0
143
1.0
 70
   688
 72
     1
 73
     0
 74
     5
  7

 75
    16
147
1.0
148
0.0
149
0.0
100
AcDbLayout
  1
Layout2
 70
     1
 71
     2
 10
0.0
 20
0.0
 11
0.0
 21
0.0
 12
0.0
 22
0.0
 32
0.0
 14
0.0
 24
0.0
 34
0.0
 15
0.0
 25
0.0
 35
0.0
146
0.0
 13
0.0
 23
0.0
 33
0.0
 16
1.0
 26
0.0
 36
0.0
 17
0.0
 27
1.0
 37
0.0
 76
     0
330
23
  0
LAYOUT
  5
22
102
{ACAD_REACTORS
330
1A
102
}
330
1A
100
AcDbPlotSettings
  1

  2
none_device
  4
ANSI_A_(11.00_x_8.50_Inches)
  6

 40
6.35
 41
19.05
 42
6.35000508
 43
19.05000254
 44
279.4
 45
215.9
 46
-176.4948675608
 47
95.3453566339
 48
0.0
 49
0.0
140
0.0
141
0.0
142
0.2208189433
143
1.0
 70
  1696
 72
     0
 73
     0
 74
     0
  7

 75
     0
147
0.0179189148
148
-1300.4909072572
149
0.0
100
AcDbLayout
  1
Model
 70
     1
 71
     0
 10
0.0
 20
0.0
 11
420.0
 21
297.0
 12
0.0
 22
0.0
 32
0.0
 14
30.584408356
 24
-10.0
 34
0.0
 15
79.9008294915
 25
7.7016985549
 35
0.0
146
0.0
 13
0.0
 23
0.0
 33
0.0
 16
1.0
 26
0.0
 36
0.0
 17
0.0
 27
1.0
 37
0.0
 76
     0
330
1F
331
29
  0
MLINESTYLE
  5
18
102
{ACAD_REACTORS
330
17
102
}
330
17
100
AcDbMlineStyle
  2
Standard
 70
     0
  3

 62
   256
 51
90.0
 52
90.0
 71
     2
 49
0.5
 62
   256
  6
BYLAYER
 49
-0.5
 62
   256
  6
BYLAYER
  0
ACDBPLACEHOLDER
  5
F
102
{ACAD_REACTORS
330
E
102
}
330
E
  0
SCALE
  5
48
102
{ACAD_REACTORS
330
47
102
}
330
47
100
AcDbScale
 70
     0
300
1:1
140
1.0
141
1.0
290
     1
  0
SCALE
  5
49
102
{ACAD_REACTORS
330
47
102
}
330
47
100
AcDbScale
 70
     0
300
1:2
140
1.0
141
2.0
290
     0
  0
SCALE
  5
4A
102
{ACAD_REACTORS
330
47
102
}
330
47
100
AcDbScale
 70
     0
300
1:4
140
1.0
141
4.0
290
     0
  0
SCALE
  5
4B
102
{ACAD_REACTORS
330
47
102
}
330
47
100
AcDbScale
 70
     0
300
1:5
140
1.0
141
5.0
290
     0
  0
SCALE
  5
4C
102
{ACAD_REACTORS
330
47
102
}
330
47
100
AcDbScale
 70
     0
300
1:8
140
1.0
141
8.0
290
     0
  0
SCALE
  5
4D
102
{ACAD_REACTORS
330
47
102
}
330
47
100
AcDbScale
 70
     0
300
1:10
140
1.0
141
10.0
290
     0
  0
SCALE
  5
4E
102
{ACAD_REACTORS
330
47
102
}
330
47
100
AcDbScale
 70
     0
300
1:16
140
1.0
141
16.0
290
     0
  0
SCALE
  5
4F
102
{ACAD_REACTORS
330
47
102
}
330
47
100
AcDbScale
 70
     0
300
1:20
140
1.0
141
20.0
290
     0
  0
SCALE
  5
50
102
{ACAD_REACTORS
330
47
102
}
330
47
100
AcDbScale
 70
     0
300
1:30
140
1.0
141
30.0
290
     0
  0
SCALE
  5
51
102
{ACAD_REACTORS
330
47
102
}
330
47
100
AcDbScale
 70
     0
300
1:40
140
1.0
141
40.0
290
     0
  0
SCALE
  5
52
102
{ACAD_REACTORS
330
47
102
}
330
47
100
AcDbScale
 70
     0
300
1:50
140
1.0
141
50.0
290
     0
  0
SCALE
  5
53
102
{ACAD_REACTORS
330
47
102
}
330
47
100
AcDbScale
 70
     0
300
1:100
140
1.0
141
100.0
290
     0
  0
SCALE
  5
54
102
{ACAD_REACTORS
330
47
102
}
330
47
100
AcDbScale
 70
     0
300
2:1
140
2.0
141
1.0
290
     0
  0
SCALE
  5
55
102
{ACAD_REACTORS
330
47
102
}
330
47
100
AcDbScale
 70
     0
300
4:1
140
4.0
141
1.0
290
     0
  0
SCALE
  5
56
102
{ACAD_REACTORS
330
47
102
}
330
47
100
AcDbScale
 70
     0
300
8:1
140
8.0
141
1.0
290
     0
  0
SCALE
  5
57
102
{ACAD_REACTORS
330
47
102
}
330
47
100
AcDbScale
 70
     0
300
10:1
140
10.0
141
1.0
290
     0
  0
SCALE
  5
58
102
{ACAD_REACTORS
330
47
102
}
330
47
100
AcDbScale
 70
     0
300
100:1
140
100.0
141
1.0
290
     0
  0
ENDSEC
  0
EOF
