  0
SECTION
  2
HEADER
  9
$ACADVER
  1
AC1015
  9
$ACADMAINTVER
 70
     6
  9
$DWGCODEPAGE
  3
ANSI_936
  9
$INSBASE
 10
0.0
 20
0.0
 30
0.0
  9
$EXTMIN
 10
14.0636150825
 20
-10.0
 30
0.0
  9
$EXTMAX
 10
79.9008295007
 20
9.1694456131
 30
0.0
  9
$LIMMIN
 10
0.0
 20
0.0
  9
$LIMMAX
 10
420.0
 20
297.0
  9
$ORTHOMODE
 70
     0
  9
$REGENMODE
 70
     1
  9
$FILLMODE
 70
     1
  9
$QTEXTMODE
 70
     0
  9
$MIRRTEXT
 70
     1
  9
$LTSCALE
 40
1.0
  9
$ATTMODE
 70
     1
  9
$TEXTSIZE
 40
3.5
  9
$TRACEWID
 40
1.0
  9
$TEXTSTYLE
  7
Standard
  9
$CLAYER
  8
0
  9
$CELTYPE
  6
ByLayer
  9
$CECOLOR
 62
   256
  9
$CELTSCALE
 40
1.0
  9
$DISPSILH
 70
     0
  9
$DIMSCALE
 40
1.0
  9
$DIMASZ
 40
3.556
  9
$DIMEXO
 40
0.0
  9
$DIMDLI
 40
3.75
  9
$DIMRND
 40
0.0
  9
$DIMDLE
 40
0.0
  9
$DIMEXE
 40
1.0
  9
$DIMTP
 40
0.0
  9
$DIMTM
 40
0.0
  9
$DIMTXT
 40
3.5
  9
$DIMCEN
 40
2.5
  9
$DIMTSZ
 40
0.0
  9
$DIMTOL
 70
     0
  9
$DIMLIM
 70
     0
  9
$DIMTIH
 70
     1
  9
$DIMTOH
 70
     1
  9
$DIMSE1
 70
     0
  9
$DIMSE2
 70
     0
  9
$DIMTAD
 70
     1
  9
$DIMZIN
 70
     1
  9
$DIMBLK
  1

  9
$DIMASO
 70
     1
  9
$DIMSHO
 70
     1
  9
$DIMPOST
  1

  9
$DIMAPOST
  1

  9
$DIMALT
 70
     0
  9
$DIMALTD
 70
     3
  9
$DIMALTF
 40
0.0393700787
  9
$DIMLFAC
 40
1.0
  9
$DIMTOFL
 70
     1
  9
$DIMTVP
 40
0.0
  9
$DIMTIX
 70
     0
  9
$DIMSOXD
 70
     0
  9
$DIMSAH
 70
     0
  9
$DIMBLK1
  1

  9
$DIMBLK2
  1

  9
$DIMSTYLE
  2
ISO-25
  9
$DIMCLRD
 70
     0
  9
$DIMCLRE
 70
     0
  9
$DIMCLRT
 70
     0
  9
$DIMTFAC
 40
1.0
  9
$DIMGAP
 40
1.524
  9
$DIMJUST
 70
     0
  9
$DIMSD1
 70
     0
  9
$DIMSD2
 70
     0
  9
$DIMTOLJ
 70
     0
  9
$DIMTZIN
 70
     1
  9
$DIMALTZ
 70
     0
  9
$DIMALTTZ
 70
     0
  9
$DIMUPT
 70
     0
  9
$DIMDEC
 70
     2
  9
$DIMTDEC
 70
     2
  9
$DIMALTU
 70
     2
  9
$DIMALTTD
 70
     3
  9
$DIMTXSTY
  7
Standard
  9
$DIMAUNIT
 70
     0
  9
$DIMADEC
 70
     2
  9
$DIMALTRND
 40
0.0
  9
$DIMAZIN
 70
     0
  9
$DIMDSEP
 70
    44
  9
$DIMATFIT
 70
     3
  9
$DIMFRAC
 70
     0
  9
$DIMLDRBLK
  1

  9
$DIMLUNIT
 70
     2
  9
$DIMLWD
 70
    -2
  9
$DIMLWE
 70
    -2
  9
$DIMTMOVE
 70
     0
  9
$LUNITS
 70
     2
  9
$LUPREC
 70
     2
  9
$SKETCHINC
 40
1.0
  9
$FILLETRAD
 40
0.0
  9
$AUNITS
 70
     0
  9
$AUPREC
 70
     2
  9
$MENU
  1
.
  9
$ELEVATION
 40
0.0
  9
$PELEVATION
 40
0.0
  9
$THICKNESS
 40
0.0
  9
$LIMCHECK
 70
     0
  9
$CHAMFERA
 40
0.0
  9
$CHAMFERB
 40
0.0
  9
$CHAMFERC
 40
0.0
  9
$CHAMFERD
 40
0.0
  9
$SKPOLY
 70
     0
  9
$TDCREATE
 40
2461083.409382836
  9
$TDUCREATE
 40
2461083.076049503
  9
$TDUPDATE
 40
2461083.409429132
  9
$TDUUPDATE
 40
2461083.076095799
  9
$TDINDWG
 40
0.0000000116
  9
$TDUSRTIMER
 40
0.0000000116
  9
$USRTIMER
 70
     1
  9
$ANGBASE
 50
0.0
  9
$ANGDIR
 70
     0
  9
$PDMODE
 70
     0
  9
$PDSIZE
 40
-1.0
  9
$PLINEWID
 40
0.0
  9
$SPLFRAME
 70
     0
  9
$SPLINETYPE
 70
     6
  9
$SPLINESEGS
 70
     8
  9
$HANDSEED
  5
B9
  9
$SURFTAB1
 70
     6
  9
$SURFTAB2
 70
     6
  9
$SURFTYPE
 70
     6
  9
$SURFU
 70
     6
  9
$SURFV
 70
     6
  9
$UCSBASE
  2

  9
$UCSNAME
  2

  9
$UCSORG
 10
0.0
 20
0.0
 30
0.0
  9
$UCSXDIR
 10
1.0
 20
0.0
 30
0.0
  9
$UCSYDIR
 10
0.0
 20
1.0
 30
0.0
  9
$UCSORTHOREF
  2

  9
$UCSORTHOVIEW
 70
     0
  9
$UCSORGTOP
 10
0.0
 20
0.0
 30
0.0
  9
$UCSORGBOTTOM
 10
0.0
 20
0.0
 30
0.0
  9
$UCSORGLEFT
 10
0.0
 20
0.0
 30
0.0
  9
$UCSORGRIGHT
 10
0.0
 20
0.0
 30
0.0
  9
$UCSORGFRONT
 10
0.0
 20
0.0
 30
0.0
  9
$UCSORGBACK
 10
0.0
 20
0.0
 30
0.0
  9
$PUCSBASE
  2

  9
$PUCSNAME
  2

  9
$PUCSORG
 10
0.0
 20
0.0
 30
0.0
  9
$PUCSXDIR
 10
1.0
 20
0.0
 30
0.0
  9
$PUCSYDIR
 10
0.0
 20
1.0
 30
0.0
  9
$PUCSORTHOREF
  2

  9
$PUCSORTHOVIEW
 70
     0
  9
$PUCSORGTOP
 10
0.0
 20
0.0
 30
0.0
  9
$PUCSORGBOTTOM
 10
0.0
 20
0.0
 30
0.0
  9
$PUCSORGLEFT
 10
0.0
 20
0.0
 30
0.0
  9
$PUCSORGRIGHT
 10
0.0
 20
0.0
 30
0.0
  9
$PUCSORGFRONT
 10
0.0
 20
0.0
 30
0.0
  9
$PUCSORGBACK
 10
0.0
 20
0.0
 30
0.0
  9
$USERI1
 70
     0
  9
$USERI2
 70
     0
  9
$USERI3
 70
     0
  9
$USERI4
 70
     0
  9
$USERI5
 70
     0
  9
$USERR1
 40
0.0
  9
$USERR2
 40
0.0
  9
$USERR3
 40
0.0
  9
$USERR4
 40
0.0
  9
$USERR5
 40
0.0
  9
$WORLDVIEW
 70
     1
  9
$SHADEDGE
 70
     3
  9
$SHADEDIF
 70
    70
  9
$TILEMODE
 70
     1
  9
$MAXACTVP
 70
    64
  9
$PINSBASE
 10
0.0
 20
0.0
 30
0.0
  9
$PLIMCHECK
 70
     0
  9
$PEXTMIN
 10
1.0000000000E+20
 20
1.0000000000E+20
 30
1.0000000000E+20
  9
$PEXTMAX
 10
-1.0000000000E+20
 20
-1.0000000000E+20
 30
-1.0000000000E+20
  9
$PLIMMIN
 10
0.0
 20
0.0
  9
$PLIMMAX
 10
420.0
 20
297.0
  9
$UNITMODE
 70
     0
  9
$VISRETAIN
 70
     1
  9
$PLINEGEN
 70
     0
  9
$PSLTSCALE
 70
     1
  9
$TREEDEPTH
 70
  3020
  9
$CMLSTYLE
  2
Standard
  9
$CMLJUST
 70
     0
  9
$CMLSCALE
 40
20.0
  9
$PROXYGRAPHICS
 70
     1
  9
$MEASUREMENT
 70
     1
  9
$CELWEIGHT
370
    -1
  9
$ENDCAPS
280
     0
  9
$JOINSTYLE
280
     0
  9
$LWDISPLAY
290
     1
  9
$INSUNITS
 70
     4
  9
$HYPERLINKBASE
  1

  9
$STYLESHEET
  1

  9
$XEDIT
290
     1
  9
$CEPSNTYPE
380
     0
  9
$PSTYLEMODE
290
     1
  9
$FINGERPRINTGUID
  2
{cb30fe4d-1b30-4c5d-9934-44731433154b}
  9
$VERSIONGUID
  2
{FAEB1C32-E019-11D5-929B-00C0DF256EC4}
  9
$EXTNAMES
290
     1
  9
$PSVPSCALE
 40
0.0
  9
$OLESTARTUP
290
     0
  0
ENDSEC
  0
SECTION
  2
CLASSES
  0
CLASS
  1
ACDBDICTIONARYWDFLT
  2
AcDbDictionaryWithDefault
  3
ObjectDBX Classes
 90
        0
280
     0
281
     0
  0
CLASS
  1
VISUALSTYLE
  2
AcDbVisualStyle
  3
ObjectDBX Classes
 90
     4095
280
     0
281
     0
  0
CLASS
  1
MATERIAL
  2
AcDbMaterial
  3
ObjectDBX Classes
 90
     1153
280
     0
281
     0
  0
CLASS
  1
SCALE
  2
AcDbScale
  3
ObjectDBX Classes
 90
     1153
280
     0
281
     0
  0
CLASS
  1
TABLESTYLE
  2
AcDbTableStyle
  3
ObjectDBX Classes
 90
     4095
280
     0
281
     0
  0
CLASS
  1
MLEADERSTYLE
  2
AcDbMLeaderStyle
  3
ACDB_MLEADERSTYLE_CLASS
 90
     4095
280
     0
281
     0
  0
CLASS
  1
SUN
  2
AcDbSun
  3
SCENEOE
 90
     1153
280
     0
281
     0
  0
CLASS
  1
ACDBPLACEHOLDER
  2
AcDbPlaceHolder
  3
ObjectDBX Classes
 90
        0
280
     0
281
     0
  0
CLASS
  1
LAYOUT
  2
AcDbLayout
  3
ObjectDBX Classes
 90
        0
280
     0
281
     0
  0
ENDSEC
  0
SECTION
  2
TABLES
  0
TABLE
  2
VPORT
  5
8
330
0
100
AcDbSymbolTable
 70
     1
  0
VPORT
  5
29
330
8
100
AcDbSymbolTableRecord
100
AcDbViewportTableRecord
  2
*Active
 70
     0
 10
0.0
 20
0.0
 11
1.0
 21
1.0
 12
46.9822222916
 22
-0.4152771935
 13
0.0
 23
0.0
 14
10.0
 24
10.0
 15
10.0
 25
10.0
 16
0.0
 26
0.0
 36
1.0
 17
0.0
 27
0.0
 37
0.0
 40
19.5528345254
 41
3.4344871389
 42
50.0
 43
0.0
 44
0.0
 50
0.0
 51
0.0
 71
     0
 72
   100
 73
     1
 74
     3
 75
     0
 76
     0
 77
     0
 78
     0
281
     0
 65
     1
110
0.0
120
0.0
130
0.0
111
1.0
121
0.0
131
0.0
112
0.0
122
1.0
132
0.0
 79
     0
146
0.0
  0
ENDTAB
  0
TABLE
  2
LTYPE
  5
5
330
0
100
AcDbSymbolTable
 70
     6
  0
LTYPE
  5
14
330
5
100
AcDbSymbolTableRecord
100
AcDbLinetypeTableRecord
  2
ByBlock
 70
     0
  3

 72
    65
 73
     0
 40
0.0
  0
LTYPE
  5
15
330
5
100
AcDbSymbolTableRecord
100
AcDbLinetypeTableRecord
  2
ByLayer
 70
     0
  3

 72
    65
 73
     0
 40
0.0
  0
LTYPE
  5
16
330
5
100
AcDbSymbolTableRecord
100
AcDbLinetypeTableRecord
  2
Continuous
 70
     0
  3
Solid line
 72
    65
 73
     0
 40
0.0
  0
LTYPE
  5
5E
330
5
100
AcDbSymbolTableRecord
100
AcDbLinetypeTableRecord
  2
HIDDEN
 70
     0
  3
Hidden __ __ __ __ __ __ __ __ __ __ __ __ __ __
 72
    65
 73
     2
 40
1.905
 49
1.27
 74
     0
 49
-0.635
 74
     0
  0
LTYPE
  5
5F
330
5
100
AcDbSymbolTableRecord
100
AcDbLinetypeTableRecord
  2
PHANTOM
 70
     0
  3
Phantom ______  __  __  ______  __  __  ______
 72
    65
 73
     6
 40
12.7
 49
6.35
 74
     0
 49
-1.27
 74
     0
 49
1.27
 74
     0
 49
-1.27
 74
     0
 49
1.27
 74
     0
 49
-1.27
 74
     0
  0
LTYPE
  5
60
330
5
100
AcDbSymbolTableRecord
100
AcDbLinetypeTableRecord
  2
CENTER
 70
     0
  3
Center ____ _ ____ _ ____ _ ____ _ ____ _ ____
 72
    65
 73
     4
 40
10.16
 49
6.35
 74
     0
 49
-1.27
 74
     0
 49
1.27
 74
     0
 49
-1.27
 74
     0
  0
LTYPE
  5
61
330
5
100
AcDbSymbolTableRecord
100
AcDbLinetypeTableRecord
  2
CENTERX2
 70
     0
  3
Center (2x) ________  __  ________  __  _____
 72
    65
 73
     4
 40
20.32
 49
12.7
 74
     0
 49
-2.54
 74
     0
 49
2.54
 74
     0
 49
-2.54
 74
     0
  0
LTYPE
  5
62
330
5
100
AcDbSymbolTableRecord
100
AcDbLinetypeTableRecord
  2
DOT2
 70
     0
  3
Dot (.5x) ........................................
 72
    65
 73
     2
 40
0.635
 49
0.0
 74
     0
 49
-0.635
 74
     0
  0
ENDTAB
  0
TABLE
  2
LAYER
  5
2
330
0
100
AcDbSymbolTable
 70
     1
  0
LAYER
  5
10
330
2
100
AcDbSymbolTableRecord
100
AcDbLayerTableRecord
  2
0
 70
     0
 62
     7
  6
Continuous
370
    -3
390
F
  0
ENDTAB
  0
TABLE
  2
STYLE
  5
3
330
0
100
AcDbSymbolTable
 70
     1
  0
STYLE
  5
11
330
3
100
AcDbSymbolTableRecord
100
AcDbTextStyleTableRecord
  2
Standard
 70
     0
 40
0.0
 41
1.0
 50
0.0
 71
     0
 42
3.5
  3
txt
  4

  0
ENDTAB
  0
TABLE
  2
VIEW
  5
6
330
0
100
AcDbSymbolTable
 70
     0
  0
ENDTAB
  0
TABLE
  2
UCS
  5
7
330
0
100
AcDbSymbolTable
 70
     0
  0
ENDTAB
  0
TABLE
  2
APPID
  5
9
330
0
100
AcDbSymbolTable
 70
     1
  0
APPID
  5
12
330
9
100
AcDbSymbolTableRecord
100
AcDbRegAppTableRecord
  2
ACAD
 70
     0
  0
ENDTAB
  0
TABLE
  2
DIMSTYLE
  5
A
330
0
100
AcDbSymbolTable
 70
     1
100
AcDbDimStyleTable
  0
DIMSTYLE
105
27
330
A
100
AcDbSymbolTableRecord
100
AcDbDimStyleTableRecord
  2
ISO-25
 70
     0
 41
2.5
 42
0.625
 43
3.75
 44
1.25
 73
     0
 74
     0
 77
     1
 78
     8
140
2.5
141
2.5
143
0.0393700787
147
0.625
171
     3
172
     1
178
     0
271
     2
272
     2
274
     3
278
    44
283
     0
284
     8
340
11
  0
ENDTAB
  0
TABLE
  2
BLOCK_RECORD
  5
1
330
0
100
AcDbSymbolTable
 70
     1
  0
BLOCK_RECORD
  5
1F
330
1
100
AcDbSymbolTableRecord
100
AcDbBlockTableRecord
  2
*Model_Space
340
22
  0
BLOCK_RECORD
  5
1B
330
1
100
AcDbSymbolTableRecord
100
AcDbBlockTableRecord
  2
*Paper_Space
340
1E
  0
BLOCK_RECORD
  5
23
330
1
100
AcDbSymbolTableRecord
100
AcDbBlockTableRecord
  2
*Paper_Space0
340
26
  0
ENDTAB
  0
ENDSEC
  0
SECTION
  2
BLOCKS
  0
BLOCK
  5
20
330
1F
100
AcDbEntity
  8
0
100
AcDbBlockBegin
  2
*Model_Space
 70
     0
 10
0.0
 20
0.0
 30
0.0
  3
*Model_Space
  1

  0
ENDBLK
  5
21
330
1F
100
AcDbEntity
  8
0
100
AcDbBlockEnd
  0
BLOCK
  5
1C
330
1B
100
AcDbEntity
 67
     1
  8
0
100
AcDbBlockBegin
  2
*Paper_Space
 70
     0
 10
0.0
 20
0.0
 30
0.0
  3
*Paper_Space
  1

  0
ENDBLK
  5
1D
330
1B
100
AcDbEntity
 67
     1
  8
0
100
AcDbBlockEnd
  0
BLOCK
  5
24
330
23
100
AcDbEntity
  8
0
100
AcDbBlockBegin
  2
*Paper_Space0
 70
     0
 10
0.0
 20
0.0
 30
0.0
  3
*Paper_Space0
  1

  0
ENDBLK
  5
25
330
23
100
AcDbEntity
  8
0
100
AcDbBlockEnd
  0
ENDSEC
  0
SECTION
  2
ENTITIES
  0
SPLINE
  5
63
330
1F
100
AcDbEntity
  8
0
  6
Continuous
 62
     7
370
    25
100
AcDbSpline
210
0.0
220
0.0
230
1.0
 70
     8
 71
     3
 72
     9
 73
     5
 74
     0
 42
0.00000001
 43
0.00000001
 40
0.0
 40
0.0
 40
0.0
 40
0.0
 40
0.5
 40
1.0
 40
1.0
 40
1.0
 40
1.0
 10
24.05789323189488
 20
-1.24686909002719
 30
0.0
 10
24.03786248832419
 20
-1.247966640861357
 30
0.0
 10
23.99775596210975
 20
-1.249614509011661
 30
0.0
 10
23.95760431520191
 20
-1.250164210215562
 30
0.0
 10
23.937528490339
 20
-1.250164210215651
 30
0.0
  0
ARC
  5
64
330
1F
100
AcDbEntity
  8
0
  6
Continuous
 62
     7
370
    25
100
AcDbCircle
 10
24.1782579736
 20
0.9498357898
 30
0.0
 40
2.2000000000003
100
AcDbArc
 50
266.8637105165
 51
93.1362894797
  0
SPLINE
  5
65
330
1F
100
AcDbEntity
  8
0
  6
Continuous
 62
     7
370
    25
100
AcDbSpline
210
0.0
220
0.0
230
1.0
 70
     8
 71
     3
 72
     9
 73
     5
 74
     0
 42
0.00000001
 43
0.00000001
 40
0.0
 40
0.0
 40
0.0
 40
0.0
 40
0.5
 40
1.0
 40
1.0
 40
1.0
 40
1.0
 10
23.9375284903292
 20
3.149835789784345
 30
0.0
 10
23.95760431521865
 20
3.149835789784345
 30
0.0
 10
23.99775596498647
 20
3.149286088348165
 30
0.0
 10
24.03786248844695
 20
3.147638220424688
 30
0.0
 10
24.057893232044
 20
3.146540669587711
 30
0.0
  0
SPLINE
  5
66
330
1F
100
AcDbEntity
  8
0
  6
Continuous
 62
     7
370
    25
100
AcDbSpline
210
0.0
220
0.0
230
1.0
 70
     8
 71
     3
 72
    10
 73
     6
 74
     0
 42
0.00000001
 43
0.00000001
 40
0.0
 40
0.0
 40
0.0
 40
0.0
 40
0.5
 40
0.5
 40
1.0
 40
1.0
 40
1.0
 40
1.0
 10
23.93752849032921
 20
-1.250164210215651
 30
0.0
 10
22.47086182366253
 20
-1.250164210215658
 30
0.0
 10
21.73752849032921
 20
0.2165024564510122
 30
0.0
 10
21.7375284903292
 20
1.683169123117681
 30
0.0
 10
22.47086182366253
 20
3.149835789784349
 30
0.0
 10
23.9375284903292
 20
3.149835789784345
 30
0.0
  0
LINE
  5
67
330
1F
100
AcDbEntity
  8
0
  6
Continuous
 62
     7
370
    25
100
AcDbLine
 10
35.0836601004
 20
5.2998705907
 30
0.0
 11
39.1670137123
 21
1.3666402733
 31
0.0
  0
ARC
  5
68
330
1F
100
AcDbEntity
  8
0
  6
Continuous
 62
     7
370
    25
100
AcDbCircle
 10
34.3899166514
 20
4.5796483841
 30
0.0
 40
1.000000000000004
100
AcDbArc
 50
46.0728292758
 51
180.0
  0
LINE
  5
69
330
1F
100
AcDbEntity
  8
0
  6
Continuous
 62
     7
370
    25
100
AcDbLine
 10
33.3899166514
 20
0.6464180667
 30
0.0
 11
33.3899166514
 21
4.5796483841
 31
0.0
  0
ARC
  5
6A
330
1F
100
AcDbEntity
  8
0
  6
Continuous
 62
     7
370
    25
100
AcDbCircle
 10
34.3899166514
 20
0.6464180667
 30
0.0
 40
1.0
100
AcDbArc
 50
180.0
 51
270.0
  0
LINE
  5
6B
330
1F
100
AcDbEntity
  8
0
  6
Continuous
 62
     7
370
    25
100
AcDbLine
 10
38.4732702633
 20
-0.3535819333
 30
0.0
 11
34.3899166514
 21
-0.3535819333
 31
0.0
  0
ARC
  5
6C
330
1F
100
AcDbEntity
  8
0
  6
Continuous
 62
     7
370
    25
100
AcDbCircle
 10
38.4732702633
 20
0.6464180667
 30
0.0
 40
1.000000000000002
100
AcDbArc
 50
270.0
 51
46.0728292758
  0
LINE
  5
6D
330
1F
100
AcDbEntity
  8
0
  6
Continuous
 62
     7
370
    25
100
AcDbLine
 10
63.1473612487
 20
6.93134406
 30
0.0
 11
67.1586325204
 21
6.93134406
 31
0.0
  0
ARC
  5
6E
330
1F
100
AcDbEntity
  8
0
  6
Continuous
 62
     7
370
    25
100
AcDbCircle
 10
63.1473612487
 20
5.93134406
 30
0.0
 40
1.000000000000001
100
AcDbArc
 50
90.0
 51
225.5177465163
  0
LINE
  5
6F
330
1F
100
AcDbEntity
  8
0
  6
Continuous
 62
     7
370
    25
100
AcDbLine
 10
66.4579442085
 20
1.2784527458
 30
0.0
 11
62.4466729368
 21
5.2178765488
 31
0.0
  0
ARC
  5
70
330
1F
100
AcDbEntity
  8
0
  6
Continuous
 62
     7
370
    25
100
AcDbCircle
 10
67.1586325204
 20
1.991920257
 30
0.0
 40
1.000000000000006
100
AcDbArc
 50
225.5177465163
 51
0.0
  0
LINE
  5
71
330
1F
100
AcDbEntity
  8
0
  6
Continuous
 62
     7
370
    25
100
AcDbLine
 10
68.1586325204
 20
5.93134406
 30
0.0
 11
68.1586325204
 21
1.991920257
 31
0.0
  0
ARC
  5
72
330
1F
100
AcDbEntity
  8
0
  6
Continuous
 62
     7
370
    25
100
AcDbCircle
 10
67.1586325204
 20
5.93134406
 30
0.0
 40
1.0
100
AcDbArc
 50
0.0
 51
90.0
  0
LINE
  5
73
330
1F
100
AcDbEntity
  8
0
  6
Continuous
 62
     7
370
    25
100
AcDbLine
 10
41.9284356662
 20
1.277891536
 30
0.0
 11
37.8450820543
 21
5.2111218533
 31
0.0
  0
ARC
  5
74
330
1F
100
AcDbEntity
  8
0
  6
Continuous
 62
     7
370
    25
100
AcDbCircle
 10
42.6221791152
 20
1.9981137426
 30
0.0
 40
1.000000000000007
100
AcDbArc
 50
226.0728292758
 51
0.0
  0
LINE
  5
75
330
1F
100
AcDbEntity
  8
0
  6
Continuous
 62
     7
370
    25
100
AcDbLine
 10
43.6221791152
 20
5.93134406
 30
0.0
 11
43.6221791152
 21
1.9981137426
 31
0.0
  0
ARC
  5
76
330
1F
100
AcDbEntity
  8
0
  6
Continuous
 62
     7
370
    25
100
AcDbCircle
 10
42.6221791152
 20
5.93134406
 30
0.0
 40
1.000000000000007
100
AcDbArc
 50
0.0
 51
90.0
  0
LINE
  5
77
330
1F
100
AcDbEntity
  8
0
  6
Continuous
 62
     7
370
    25
100
AcDbLine
 10
38.5388255033
 20
6.93134406
 30
0.0
 11
42.6221791152
 21
6.93134406
 31
0.0
  0
ARC
  5
78
330
1F
100
AcDbEntity
  8
0
  6
Continuous
 62
     7
370
    25
100
AcDbCircle
 10
38.5388255033
 20
5.93134406
 30
0.0
 40
1.000000000000001
100
AcDbArc
 50
90.0
 51
226.0728292758
  0
LINE
  5
79
330
1F
100
AcDbEntity
  8
0
  6
Continuous
 62
     7
370
    25
100
AcDbLine
 10
45.9578042428
 20
2.0606316291
 30
0.0
 11
45.9578042428
 21
5.93134406
 31
0.0
  0
ARC
  5
7A
330
1F
100
AcDbEntity
  8
0
  6
Continuous
 62
     7
370
    25
100
AcDbCircle
 10
46.9578042428
 20
2.0606316291
 30
0.0
 40
1.0
100
AcDbArc
 50
180.0
 51
315.0
  0
LINE
  5
7B
330
1F
100
AcDbEntity
  8
0
  6
Continuous
 62
     7
370
    25
100
AcDbLine
 10
51.5356234549
 20
5.2242372788
 30
0.0
 11
47.664911024
 21
1.3535248479
 31
0.0
  0
ARC
  5
7C
330
1F
100
AcDbEntity
  8
0
  6
Continuous
 62
     7
370
    25
100
AcDbCircle
 10
50.8285166737
 20
5.93134406
 30
0.0
 40
0.9999999999999982
100
AcDbArc
 50
315.0
 51
90.0
  0
LINE
  5
7D
330
1F
100
AcDbEntity
  8
0
  6
Continuous
 62
     7
370
    25
100
AcDbLine
 10
46.9578042428
 20
6.93134406
 30
0.0
 11
50.8285166737
 21
6.93134406
 31
0.0
  0
ARC
  5
7E
330
1F
100
AcDbEntity
  8
0
  6
Continuous
 62
     7
370
    25
100
AcDbCircle
 10
46.9578042428
 20
5.93134406
 30
0.0
 40
1.0
100
AcDbArc
 50
90.0
 51
180.0
  0
LINE
  5
7F
330
1F
100
AcDbEntity
  8
0
  6
Continuous
 62
     7
370
    25
100
AcDbLine
 10
55.4671351195
 20
4.5171304976
 30
0.0
 11
55.4671351195
 21
0.6464180667
 31
0.0
  0
ARC
  5
80
330
1F
100
AcDbEntity
  8
0
  6
Continuous
 62
     7
370
    25
100
AcDbCircle
 10
54.4671351195
 20
4.5171304976
 30
0.0
 40
1.000000000000007
100
AcDbArc
 50
360.0
 51
135.0
  0
LINE
  5
81
330
1F
100
AcDbEntity
  8
0
  6
Continuous
 62
     7
370
    25
100
AcDbLine
 10
49.8893159075
 20
1.3535248479
 30
0.0
 11
53.7600283383
 21
5.2242372788
 31
0.0
  0
ARC
  5
82
330
1F
100
AcDbEntity
  8
0
  6
Continuous
 62
     7
370
    25
100
AcDbCircle
 10
50.5964226886
 20
0.6464180667
 30
0.0
 40
1.000000000000002
100
AcDbArc
 50
135.0
 51
270.0
  0
LINE
  5
83
330
1F
100
AcDbEntity
  8
0
  6
Continuous
 62
     7
370
    25
100
AcDbLine
 10
54.4671351195
 20
-0.3535819333
 30
0.0
 11
50.5964226886
 21
-0.3535819333
 31
0.0
  0
ARC
  5
84
330
1F
100
AcDbEntity
  8
0
  6
Continuous
 62
     7
370
    25
100
AcDbCircle
 10
54.4671351195
 20
0.6464180667
 30
0.0
 40
1.000000000000007
100
AcDbArc
 50
270.0
 51
0.0
  0
LINE
  5
85
330
1F
100
AcDbEntity
  8
0
  6
Continuous
 62
     7
370
    25
100
AcDbLine
 10
59.6702789254
 20
5.2611174501
 30
0.0
 11
63.6815501971
 21
1.3216936471
 31
0.0
  0
ARC
  5
86
330
1F
100
AcDbEntity
  8
0
  6
Continuous
 62
     7
370
    25
100
AcDbCircle
 10
58.9695906134
 20
4.5476499389
 30
0.0
 40
1.000000000000006
100
AcDbArc
 50
45.5177465163
 51
180.0
  0
LINE
  5
87
330
1F
100
AcDbEntity
  8
0
  6
Continuous
 62
     7
370
    25
100
AcDbLine
 10
57.9695906134
 20
0.6082261359
 30
0.0
 11
57.9695906134
 21
4.5476499389
 31
0.0
  0
ARC
  5
88
330
1F
100
AcDbEntity
  8
0
  6
Continuous
 62
     7
370
    25
100
AcDbCircle
 10
58.9695906134
 20
0.6082261359
 30
0.0
 40
1.0
100
AcDbArc
 50
180.0
 51
270.0
  0
LINE
  5
89
330
1F
100
AcDbEntity
  8
0
  6
Continuous
 62
     7
370
    25
100
AcDbLine
 10
62.9808618851
 20
-0.3917738641
 30
0.0
 11
58.9695906134
 21
-0.3917738641
 31
0.0
  0
ARC
  5
8A
330
1F
100
AcDbEntity
  8
0
  6
Continuous
 62
     7
370
    25
100
AcDbCircle
 10
62.9808618851
 20
0.6082261359
 30
0.0
 40
0.9999999999999974
100
AcDbArc
 50
270.0
 51
45.5177465163
  0
LINE
  5
8B
330
1F
100
AcDbEntity
  8
0
  6
Continuous
 62
     7
370
    25
100
AcDbLine
 10
32.4487066318
 20
-3.2416248613
 30
0.0
 11
32.4487066318
 21
-3.0215140434
 31
0.0
  0
SPLINE
  5
8C
330
1F
100
AcDbEntity
  8
0
  6
Continuous
 62
     7
370
    25
100
AcDbSpline
210
0.0
220
0.0
230
1.0
 70
     8
 71
     3
 72
     8
 73
     4
 74
     0
 42
0.00000001
 43
0.00000001
 40
0.3981188367640196
 40
0.3981188367640196
 40
0.3981188367640196
 40
0.3981188367640196
 40
0.4029691357816391
 40
0.4029691357816391
 40
0.4029691357816391
 40
0.4029691357816391
 10
32.44870663177369
 20
-3.021521217652814
 30
0.0
 10
32.11548778412483
 20
-3.027256170246066
 30
0.0
 10
31.7822567683264
 20
-3.032302879149738
 30
0.0
 10
31.44901600105275
 20
-3.036565060764367
 30
0.0
  0
LINE
  5
8D
330
1F
100
AcDbEntity
  8
0
  6
Continuous
 62
     7
370
    25
100
AcDbLine
 10
31.4490160011
 20
-3.0365650608
 30
0.0
 11
31.4490160011
 21
-3.2664973942
 31
0.0
  0
LINE
  5
8E
330
1F
100
AcDbEntity
  8
0
  6
Continuous
 62
     7
370
    25
100
AcDbLine
 10
31.4490160011
 20
-3.2664973942
 30
0.0
 11
32.4487066318
 21
-3.2416248613
 31
0.0
  0
LINE
  5
8F
330
1F
100
AcDbEntity
  8
0
  6
Continuous
 62
     7
370
    25
100
AcDbLine
 10
33.6483353886
 20
-3.2117778218
 30
0.0
 11
33.6483353886
 21
-2.9980451946
 31
0.0
  0
SPLINE
  5
90
330
1F
100
AcDbEntity
  8
0
  6
Continuous
 62
     7
370
    25
100
AcDbSpline
210
0.0
220
0.0
230
1.0
 70
     8
 71
     3
 72
     8
 73
     4
 74
     0
 42
0.00000001
 43
0.00000001
 40
0.3922980170445916
 40
0.3922980170445916
 40
0.3922980170445916
 40
0.3922980170445916
 40
0.3971487361060734
 40
0.3971487361060734
 40
0.3971487361060734
 40
0.3971487361060734
 10
33.64833537919014
 20
-2.998045194631344
 30
0.0
 10
33.3151179150956
 20
-3.005313652186281
 30
0.0
 10
32.98188763744051
 20
-3.01199121564529
 30
0.0
 10
32.64864488216632
 20
-3.017998265241777
 30
0.0
  0
LINE
  5
91
330
1F
100
AcDbEntity
  8
0
  6
Continuous
 62
     7
370
    25
100
AcDbLine
 10
32.6486447579
 20
-3.017991371
 30
0.0
 11
32.6486447579
 21
-3.2366503547
 31
0.0
  0
LINE
  5
92
330
1F
100
AcDbEntity
  8
0
  6
Continuous
 62
     7
370
    25
100
AcDbLine
 10
32.6486447579
 20
-3.2366503547
 30
0.0
 11
33.6483353886
 21
-3.2117778218
 31
0.0
  0
LINE
  5
93
330
1F
100
AcDbEntity
  8
0
  6
Continuous
 62
     7
370
    25
100
AcDbLine
 10
34.8479641454
 20
-3.1819307823
 30
0.0
 11
34.8479641454
 21
-2.9694563883
 31
0.0
  0
SPLINE
  5
94
330
1F
100
AcDbEntity
  8
0
  6
Continuous
 62
     7
370
    25
100
AcDbSpline
210
0.0
220
0.0
230
1.0
 70
     8
 71
     3
 72
     9
 73
     5
 74
     0
 42
0.00000001
 43
0.00000001
 40
0.3864766606767744
 40
0.3864766606767744
 40
0.3864766606767744
 40
0.3864766606767744
 40
0.3897638165146809
 40
0.3913278286021295
 40
0.3913278286021295
 40
0.3913278286021295
 40
0.3913278286021295
 10
34.8479641452768
 20
-2.969456388309843
 30
0.0
 10
34.6221758228321
 20
-2.975270019237121
 30
0.0
 10
34.28894980884078
 20
-2.983507157665562
 30
0.0
 10
33.95571080337628
 20
-2.991194896735153
 30
0.0
 10
33.84827351472391
 20
-2.993613642703388
 30
0.0
  0
LINE
  5
95
330
1F
100
AcDbEntity
  8
0
  6
Continuous
 62
     7
370
    25
100
AcDbLine
 10
33.8482735147
 20
-2.9936136429
 30
0.0
 11
33.8482735147
 21
-3.2068033152
 31
0.0
  0
LINE
  5
96
330
1F
100
AcDbEntity
  8
0
  6
Continuous
 62
     7
370
    25
100
AcDbLine
 10
33.8482735147
 20
-3.2068033152
 30
0.0
 11
34.8479641454
 21
-3.1819307823
 31
0.0
  0
LINE
  5
97
330
1F
100
AcDbEntity
  8
0
  6
Continuous
 62
     7
370
    25
100
AcDbLine
 10
73.2527106164
 20
-1.7164283643
 30
0.0
 11
73.2527106164
 21
-1.5796669232
 31
0.0
  0
SPLINE
  5
98
330
1F
100
AcDbEntity
  8
0
  6
Continuous
 62
     7
370
    25
100
AcDbSpline
210
0.0
220
0.0
230
1.0
 70
     8
 71
     3
 72
     9
 73
     5
 74
     0
 42
0.00000001
 43
0.00000001
 40
0.2000432649884192
 40
0.2000432649884192
 40
0.2000432649884192
 40
0.2000432649884192
 40
0.2026771845876341
 40
0.2048945104584826
 40
0.2048945104584826
 40
0.2048945104584826
 40
0.2048945104584826
 10
73.2527105737364
 20
-1.579665760773215
 30
0.0
 10
73.07185357748304
 20
-1.586302984983028
 30
0.0
 10
72.7387448126742
 20
-1.598527423841374
 30
0.0
 10
72.40563603987066
 20
-1.610751568829793
 30
0.0
 10
72.25338427168862
 20
-1.616338758196654
 30
0.0
  0
LINE
  5
99
330
1F
100
AcDbEntity
  8
0
  6
Continuous
 62
     7
370
    25
100
AcDbLine
 10
72.253384446
 20
-1.6163435092
 30
0.0
 11
72.253384446
 21
-1.7531326587
 31
0.0
  0
LINE
  5
9A
330
1F
100
AcDbEntity
  8
0
  6
Continuous
 62
     7
370
    25
100
AcDbLine
 10
72.253384446
 20
-1.7531326587
 30
0.0
 11
73.2527106164
 21
-1.7164283643
 31
0.0
  0
LINE
  5
9B
330
1F
100
AcDbEntity
  8
0
  6
Continuous
 62
     7
370
    25
100
AcDbLine
 10
74.4519020208
 20
-1.6723832109
 30
0.0
 11
74.4519020208
 21
-1.5356544258
 31
0.0
  0
SPLINE
  5
9C
330
1F
100
AcDbEntity
  8
0
  6
Continuous
 62
     7
370
    25
100
AcDbSpline
210
0.0
220
0.0
230
1.0
 70
     8
 71
     3
 72
     8
 73
     4
 74
     0
 42
0.00000001
 43
0.00000001
 40
0.1942217703655313
 40
0.1942217703655313
 40
0.1942217703655313
 40
0.1942217703655313
 40
0.1990730158996683
 40
0.1990730158996683
 40
0.1990730158996683
 40
0.1990730158996683
 10
74.45190202905705
 20
-1.535654650031894
 30
0.0
 10
74.1187933188403
 20
-1.547880715020531
 30
0.0
 10
73.78568458028171
 20
-1.560106049446284
 30
0.0
 10
73.45257582505535
 20
-1.572330903859233
 30
0.0
  0
LINE
  5
9D
330
1F
100
AcDbEntity
  8
0
  6
Continuous
 62
     7
370
    25
100
AcDbLine
 10
73.4525758505
 20
-1.5723315963
 30
0.0
 11
73.4525758505
 21
-1.7090875054
 31
0.0
  0
LINE
  5
9E
330
1F
100
AcDbEntity
  8
0
  6
Continuous
 62
     7
370
    25
100
AcDbLine
 10
73.4525758505
 20
-1.7090875054
 30
0.0
 11
74.4519020208
 21
-1.6723832109
 31
0.0
  0
LINE
  5
9F
330
1F
100
AcDbEntity
  8
0
  6
Continuous
 62
     7
370
    25
100
AcDbLine
 10
75.6510934253
 20
-1.6283380576
 30
0.0
 11
75.6510934253
 21
-1.4916345114
 31
0.0
  0
SPLINE
  5
A0
330
1F
100
AcDbEntity
  8
0
  6
Continuous
 62
     7
370
    25
100
AcDbSpline
210
0.0
220
0.0
230
1.0
 70
     8
 71
     3
 72
     8
 73
     4
 74
     0
 42
0.00000001
 43
0.00000001
 40
0.1884002743587835
 40
0.1884002743587835
 40
0.1884002743587835
 40
0.1884002743587835
 40
0.1932515211532544
 40
0.1932515211532544
 40
0.1932515211532544
 40
0.1932515211532544
 10
75.65109352457067
 20
-1.491637216762707
 30
0.0
 10
75.31798481264468
 20
-1.503865399071797
 30
0.0
 10
74.98487605836799
 20
-1.516092550157297
 30
0.0
 10
74.65176727341463
 20
-1.528318920569486
 30
0.0
  0
LINE
  5
A1
330
1F
100
AcDbEntity
  8
0
  6
Continuous
 62
     7
370
    25
100
AcDbLine
 10
74.6517672549
 20
-1.5283184162
 30
0.0
 11
74.6517672549
 21
-1.665042352
 31
0.0
  0
LINE
  5
A2
330
1F
100
AcDbEntity
  8
0
  6
Continuous
 62
     7
370
    25
100
AcDbLine
 10
74.6517672549
 20
-1.665042352
 30
0.0
 11
75.6510934253
 21
-1.6283380576
 31
0.0
  0
LINE
  5
A3
330
1F
100
AcDbEntity
  8
0
  6
Continuous
 62
     7
370
    25
100
AcDbLine
 10
14.8378029882
 20
-0.0501642102
 30
0.0
 11
14.0636192594
 21
-0.8243479391
 31
0.0
  0
LINE
  5
A4
330
1F
100
AcDbEntity
  8
0
  6
Continuous
 62
     7
370
    25
100
AcDbLine
 10
14.1046646043
 20
0.6829741737
 30
0.0
 11
14.8378029882
 21
-0.0501642102
 31
0.0
  0
SPLINE
  5
A5
330
1F
100
AcDbEntity
  8
0
  6
Continuous
 62
     7
370
    25
100
AcDbSpline
210
0.0
220
0.0
230
1.0
 70
     8
 71
     3
 72
    47
 73
    43
 74
     0
 42
0.00000001
 43
0.00000001
 40
0.4975037067084633
 40
0.4975037067084633
 40
0.4975037067084633
 40
0.4975037067084633
 40
0.4988976851387915
 40
0.5008465042213651
 40
0.5027953233039385
 40
0.5047441423865117
 40
0.506692961469085
 40
0.5086417805516585
 40
0.5105905996342321
 40
0.5144882377993787
 40
0.5183858759645255
 40
0.5222835141296726
 40
0.5261811522948192
 40
0.5300787904599662
 40
0.533976428625113
 40
0.5378740667902596
 40
0.5417717049554067
 40
0.5456693431205533
 40
0.5495669812857
 40
0.553464619450847
 40
0.5612598957811407
 40
0.5690551721114341
 40
0.5768504484417276
 40
0.5846457247720215
 40
0.5924410011023151
 40
0.6002362774326085
 40
0.6080315537629022
 40
0.6236221064234896
 40
0.6392126590840765
 40
0.654803211744664
 40
0.6703937644052511
 40
0.6859843170658385
 40
0.7015748697264255
 40
0.717165422387013
 40
0.7327559750476
 40
0.7483465277081874
 40
0.7639370803687744
 40
0.7795276330293619
 40
0.795118185689949
 40
0.8107087383505364
 40
0.8262992910111233
 40
0.8268718950932693
 40
0.8268718950932693
 40
0.8268718950932693
 40
0.8268718950932693
 10
14.10466251504877
 20
0.682976262614632
 30
0.0
 10
14.15464386014173
 20
0.7646666874848829
 30
0.0
 10
14.28439904412527
 20
0.9545092632057941
 30
0.0
 10
14.51536950472408
 20
1.235705905793577
 30
0.0
 10
14.78906482928086
 20
1.529865485583103
 30
0.0
 10
15.07233239206392
 20
1.814752929282578
 30
0.0
 10
15.3590968168219
 20
2.096065921233374
 30
0.0
 10
15.65217371240893
 20
2.370885405782553
 30
0.0
 10
16.05510708725689
 20
2.723898400611605
 30
0.0
 10
16.58393187169219
 20
3.135378099619795
 30
0.0
 10
17.25310080321637
 20
3.5808780592526
 30
0.0
 10
17.94881164528727
 20
3.983357679734571
 30
0.0
 10
18.66238096858582
 20
4.352939653253066
 30
0.0
 10
19.3905960717315
 20
4.69273101764601
 30
0.0
 10
20.12966805653453
 20
5.008000205455578
 30
0.0
 10
20.87692477043764
 20
5.303326684355543
 30
0.0
 10
21.63068143157339
 20
5.581547383928315
 30
0.0
 10
22.38912545581484
 20
5.846703570964188
 30
0.0
 10
23.15174472288949
 20
6.099586178498761
 30
0.0
 10
24.17413474134969
 20
6.419540766730356
 30
0.0
 10
25.4620238615599
 20
6.786778334004965
 30
0.0
 10
27.02004854805881
 20
7.180574766640377
 30
0.0
 10
28.58790876031115
 20
7.533002701547735
 30
0.0
 10
30.16377743261356
 20
7.847660459397408
 30
0.0
 10
31.74673437521142
 20
8.124450059068801
 30
0.0
 10
33.33605119077534
 20
8.362141072381181
 30
0.0
 10
35.46261869978993
 20
8.624247428435496
 30
0.0
 10
38.13091667850566
 20
8.859865990468421
 30
0.0
 10
41.34023652869427
 20
9.032995010190275
 30
0.0
 10
44.55228657532108
 20
9.13942303591381
 30
0.0
 10
47.76535831399607
 20
9.206789882299152
 30
0.0
 10
50.97918459712965
 20
9.221253115046864
 30
0.0
 10
54.19274104809913
 20
9.176206061005724
 30
0.0
 10
57.40466682203016
 20
9.063752507808902
 30
0.0
 10
60.61392621656579
 20
8.89245735753002
 30
0.0
 10
63.81991556300981
 20
8.668232817132491
 30
0.0
 10
67.02234496258986
 20
8.398223758751794
 30
0.0
 10
70.22061019121756
 20
8.082567418834254
 30
0.0
 10
73.41411731706859
 20
7.722025563934237
 30
0.0
 10
76.60223755225434
 20
7.316564796897863
 30
0.0
 10
78.7629819085581
 20
7.013786428033213
 30
0.0
 10
79.86189976596492
 20
6.853232860606322
 30
0.0
 10
79.90082940837368
 20
6.847536978728661
 30
0.0
  0
LINE
  5
A6
330
1F
100
AcDbEntity
  8
0
  6
Continuous
 62
     7
370
    25
100
AcDbLine
 10
79.900829426
 20
3.9498357898
 30
0.0
 11
79.900829426
 21
6.8475370993
 31
0.0
  0
LINE
  5
A7
330
1F
100
AcDbEntity
  8
0
  6
Continuous
 62
     7
370
    25
100
AcDbLine
 10
79.900829426
 20
3.9498357898
 30
0.0
 11
77.900829426
 21
3.9498357898
 31
0.0
  0
LINE
  5
A8
330
1F
100
AcDbEntity
  8
0
  6
Continuous
 62
     7
370
    25
100
AcDbLine
 10
77.900829426
 20
0.9498357898
 30
0.0
 11
77.900829426
 21
3.9498357898
 31
0.0
  0
LINE
  5
A9
330
1F
100
AcDbEntity
  8
0
  6
Continuous
 62
     7
370
    25
100
AcDbLine
 10
79.900829426
 20
0.9498357898
 30
0.0
 11
77.900829426
 21
0.9498357898
 31
0.0
  0
LINE
  5
AA
330
1F
100
AcDbEntity
  8
0
  6
Continuous
 62
     7
370
    25
100
AcDbLine
 10
79.900829426
 20
0.9498357898
 30
0.0
 11
79.900829426
 21
-1.335578406
 31
0.0
  0
SPLINE
  5
AB
330
1F
100
AcDbEntity
  8
0
  6
Continuous
 62
     7
370
    25
100
AcDbSpline
210
0.0
220
0.0
230
1.0
 70
     8
 71
     3
 72
    10
 73
     6
 74
     0
 42
0.00000001
 43
0.00000001
 40
0.1677698450771798
 40
0.1677698450771798
 40
0.1677698450771798
 40
0.1677698450771798
 40
0.1714960792664596
 40
0.1870866319270469
 40
0.1874300248603863
 40
0.1874300248603863
 40
0.1874300248603863
 40
0.1874300248603863
 10
79.90082950066177
 20
-1.335580438207027
 30
0.0
 10
79.64496946941009
 20
-1.34497854140168
 30
0.0
 10
78.31859179095316
 20
-1.393696790570613
 30
0.0
 10
76.96863494522333
 20
-1.443269417053116
 30
0.0
 10
75.87453769769198
 20
-1.483434585259625
 30
0.0
 10
75.85095877528752
 20
-1.484300180571078
 30
0.0
  0
LINE
  5
AC
330
1F
100
AcDbEntity
  8
0
  6
Continuous
 62
     7
370
    25
100
AcDbLine
 10
75.8509586593
 20
-1.4842970218
 30
0.0
 11
75.8509586593
 21
-10.0
 31
0.0
  0
LINE
  5
AD
330
1F
100
AcDbEntity
  8
0
  6
Continuous
 62
     7
370
    25
100
AcDbLine
 10
75.8509586593
 20
-10.0
 30
0.0
 11
71.8509586682
 21
-10.0
 31
0.0
  0
LINE
  5
AE
330
1F
100
AcDbEntity
  8
0
  6
Continuous
 62
     7
370
    25
100
AcDbLine
 10
71.8509586682
 20
-10.0
 30
0.0
 11
71.8509586682
 21
-1.7679133727
 31
0.0
  0
LINE
  5
AF
330
1F
100
AcDbEntity
  8
0
  6
Continuous
 62
     7
370
    25
100
AcDbLine
 10
71.8509586682
 20
-1.7679133727
 30
0.0
 11
72.053519212
 21
-1.7604735176
 31
0.0
  0
LINE
  5
B0
330
1F
100
AcDbEntity
  8
0
  6
Continuous
 62
     7
370
    25
100
AcDbLine
 10
72.053519212
 20
-1.7604735176
 30
0.0
 11
72.053519212
 21
-1.6236788166
 31
0.0
  0
SPLINE
  5
B1
330
1F
100
AcDbEntity
  8
0
  6
Continuous
 62
     7
370
    25
100
AcDbSpline
210
0.0
220
0.0
230
1.0
 70
     8
 71
     3
 72
    21
 73
    17
 74
     0
 42
0.00000001
 43
0.00000001
 40
0.2058647595589313
 40
0.2058647595589313
 40
0.2058647595589313
 40
0.2058647595589313
 40
0.2182677372482213
 40
0.2338582899088086
 40
0.2494488425693957
 40
0.2650393952299831
 40
0.2806299478905703
 40
0.2962205005511576
 40
0.3118110532117448
 40
0.327401605872332
 40
0.3429921585329193
 40
0.3585827111935065
 40
0.3663779875238
 40
0.3741732638540937
 40
0.3819685401843872
 40
0.3855063810996336
 40
0.3855063810996336
 40
0.3855063810996336
 40
0.3855063810996336
 10
72.05351900643129
 20
-1.623673215513385
 30
0.0
 10
71.20187364956674
 20
-1.654926040243761
 30
0.0
 10
69.27970944427884
 20
-1.725463791147045
 30
0.0
 10
66.28702853161194
 20
-1.835347438759314
 30
0.0
 10
63.07548462422781
 20
-1.95354793315142
 30
0.0
 10
59.86394688676918
 20
-2.071916969303539
 30
0.0
 10
56.65239838956299
 20
-2.189993012254306
 30
0.0
 10
53.44081751109576
 20
-2.307187660795981
 30
0.0
 10
50.22920397655975
 20
-2.42347914354762
 30
0.0
 10
47.01762585072314
 20
-2.540755598492995
 30
0.0
 10
43.80615294456304
 20
-2.660874272020508
 30
0.0
 10
41.13004341423243
 20
-2.76410079294373
 30
0.0
 10
38.98897375635391
 20
-2.841832237151647
 30
0.0
 10
37.38303832526428
 20
-2.896358041158083
 30
0.0
 10
36.06932174615218
 20
-2.936496129523542
 30
0.0
 10
35.2909060571777
 20
-2.957845551809581
 30
0.0
 10
35.04790243052351
 20
-2.964248148728459
 30
0.0
  0
LINE
  5
B2
330
1F
100
AcDbEntity
  8
0
  6
Continuous
 62
     7
370
    25
100
AcDbLine
 10
35.0479022715
 20
-2.9642421136
 30
0.0
 11
35.0479022715
 21
-10.0
 31
0.0
  0
LINE
  5
B3
330
1F
100
AcDbEntity
  8
0
  6
Continuous
 62
     7
370
    25
100
AcDbLine
 10
35.0479022715
 20
-10.0
 30
0.0
 11
31.0479022741
 21
-10.0
 31
0.0
  0
LINE
  5
B4
330
1F
100
AcDbEntity
  8
0
  6
Continuous
 62
     7
370
    25
100
AcDbLine
 10
31.0479022741
 20
-10.0
 30
0.0
 11
31.0479022741
 21
-3.2764771961
 31
0.0
  0
LINE
  5
B5
330
1F
100
AcDbEntity
  8
0
  6
Continuous
 62
     7
370
    25
100
AcDbLine
 10
31.0479022741
 20
-3.2764771961
 30
0.0
 11
31.2490778749
 21
-3.2714719008
 31
0.0
  0
LINE
  5
B6
330
1F
100
AcDbEntity
  8
0
  6
Continuous
 62
     7
370
    25
100
AcDbLine
 10
31.2490778749
 20
-3.2714719008
 30
0.0
 11
31.2490778749
 21
-3.0390273676
 31
0.0
  0
SPLINE
  5
B7
330
1F
100
AcDbEntity
  8
0
  6
Continuous
 62
     7
370
    25
100
AcDbSpline
210
0.0
220
0.0
230
1.0
 70
     8
 71
     3
 72
    25
 73
    21
 74
     0
 42
0.00000001
 43
0.00000001
 40
0.4039391592708663
 40
0.4039391592708663
 40
0.4039391592708663
 40
0.4039391592708663
 40
0.4053543691752682
 40
0.4131496455055617
 40
0.4209449218358554
 40
0.4287401981661489
 40
0.4365354744964426
 40
0.4443307508267361
 40
0.4521260271570299
 40
0.4599213034873234
 40
0.4638189416524703
 40
0.4677165798176171
 40
0.4716142179827639
 40
0.4755118561479106
 40
0.4794094943130575
 40
0.4833071324782043
 40
0.4852559515607776
 40
0.4872047706433512
 40
0.4891535897259246
 40
0.4897002655002705
 40
0.4897002655002705
 40
0.4897002655002705
 40
0.4897002655002705
 10
31.24907787487349
 20
-3.039027367591415
 30
0.0
 10
31.15184448455339
 20
-3.040178294549193
 30
0.0
 10
30.51902382117489
 20
-3.047223417305359
 30
0.0
 10
29.350559661429
 20
-3.054692557663961
 30
0.0
 10
27.74368127118282
 20
-3.050397956954796
 30
0.0
 10
26.13695340969053
 20
-3.028271705018002
 30
0.0
 10
24.53055753165798
 20
-2.988356470072032
 30
0.0
 10
22.9249440622847
 20
-2.923408327201711
 30
0.0
 10
21.32018838505286
 20
-2.842477322790003
 30
0.0
 10
19.98380921356422
 20
-2.75402463696986
 30
0.0
 10
18.91881812700469
 20
-2.63679355381974
 30
0.0
 10
18.12334944385463
 20
-2.522804607651224
 30
0.0
 10
17.33353824128592
 20
-2.375117359177216
 30
0.0
 10
16.54511204835764
 20
-2.220396104176342
 30
0.0
 10
15.76177921382381
 20
-2.040211952513578
 30
0.0
 10
15.13787002691154
 20
-1.785161514566711
 30
0.0
 10
14.6910453354508
 20
-1.487430317738759
 30
0.0
 10
14.38457519471154
 20
-1.226607954958214
 30
0.0
 10
14.18195935633982
 20
-0.9968490027557271
 30
0.0
 10
14.08410302197245
 20
-0.8558414885563627
 30
0.0
 10
14.06361508247268
 20
-0.8243521159539582
 30
0.0
  0
ENDSEC
  0
SECTION
  2
OBJECTS
  0
DICTIONARY
  5
C
330
0
100
AcDbDictionary
281
     1
  3
ACAD_GROUP
350
D
  3
ACAD_LAYOUT
350
1A
  3
ACAD_MLINESTYLE
350
17
  3
ACAD_PLOTSETTINGS
350
19
  3
ACAD_PLOTSTYLENAME
350
E
  3
ACAD_SCALELIST
350
47
  3
DWGPROPS
350
B8
  0
DICTIONARY
  5
D
102
{ACAD_REACTORS
330
C
102
}
330
C
100
AcDbDictionary
281
     1
  0
DICTIONARY
  5
1A
102
{ACAD_REACTORS
330
C
102
}
330
C
100
AcDbDictionary
281
     1
  3
Layout1
350
1E
  3
Layout2
350
26
  3
Model
350
22
  0
DICTIONARY
  5
17
102
{ACAD_REACTORS
330
C
102
}
330
C
100
AcDbDictionary
281
     1
  3
Standard
350
18
  0
DICTIONARY
  5
19
102
{ACAD_REACTORS
330
C
102
}
330
C
100
AcDbDictionary
281
     1
  0
ACDBDICTIONARYWDFLT
  5
E
102
{ACAD_REACTORS
330
C
102
}
330
C
100
AcDbDictionary
281
     1
  3
Normal
350
F
100
AcDbDictionaryWithDefault
340
F
  0
DICTIONARY
  5
47
102
{ACAD_REACTORS
330
C
102
}
330
C
100
AcDbDictionary
281
     1
  3
A0
350
48
  3
A1
350
49
  3
A2
350
4A
  3
A3
350
4B
  3
A4
350
4C
  3
A5
350
4D
  3
A6
350
4E
  3
A7
350
4F
  3
A8
350
50
  3
A9
350
51
  3
B0
350
52
  3
B1
350
53
  3
B2
350
54
  3
B3
350
55
  3
B4
350
56
  3
B5
350
57
  3
B6
350
58
  0
XRECORD
  5
B8
102
{ACAD_REACTORS
330
C
102
}
330
C
100
AcDbXrecord
280
     1
  1
DWGPROPS COOKIE
  2

  3

  4

  6

  7

  8
CX_in_command
  9

300
=
301
=
302
=
303
=
304
=
305
=
306
=
307
=
308
=
309
=
 40
0.0
 41
2461083.076049503
 42
2461083.076095799
  1

 90
        0
  0
LAYOUT
  5
1E
102
{ACAD_REACTORS
330
1A
102
}
330
1A
100
AcDbPlotSettings
  1

  2
none_device
  4

  6

 40
0.0
 41
0.0
 42
0.0
 43
0.0
 44
0.0
 45
0.0
 46
0.0
 47
0.0
 48
0.0
 49
0.0
140
0.0
141
0.0
142
1.0
143
1.0
 70
   688
 72
     1
 73
     0
 74
     5
  7

 75
    16
147
1.0
148
0.0
149
0.0
100
AcDbLayout
  1
Layout1
 70
     1
 71
     1
 10
0.0
 20
0.0
 11
420.0
 21
297.0
 12
0.0
 22
0.0
 32
0.0
 14
1.0000000000E+20
 24
1.0000000000E+20
 34
1.0000000000E+20
 15
-1.0000000000E+20
 25
-1.0000000000E+20
 35
-1.0000000000E+20
146
0.0
 13
0.0
 23
0.0
 33
0.0
 16
1.0
 26
0.0
 36
0.0
 17
0.0
 27
1.0
 37
0.0
 76
     0
330
1B
  0
LAYOUT
  5
26
102
{ACAD_REACTORS
330
1A
102
}
330
1A
100
AcDbPlotSettings
  1

  2
none_device
  4

  6

 40
0.0
 41
0.0
 42
0.0
 43
0.0
 44
0.0
 45
0.0
 46
0.0
 47
0.0
 48
0.0
 49
0.0
140
0.0
141
0.0
142
1.0
143
1.0
 70
   688
 72
     1
 73
     0
 74
     5
  7

 75
    16
147
1.0
148
0.0
149
0.0
100
AcDbLayout
  1
Layout2
 70
     1
 71
     2
 10
0.0
 20
0.0
 11
0.0
 21
0.0
 12
0.0
 22
0.0
 32
0.0
 14
0.0
 24
0.0
 34
0.0
 15
0.0
 25
0.0
 35
0.0
146
0.0
 13
0.0
 23
0.0
 33
0.0
 16
1.0
 26
0.0
 36
0.0
 17
0.0
 27
1.0
 37
0.0
 76
     0
330
23
  0
LAYOUT
  5
22
102
{ACAD_REACTORS
330
1A
102
}
330
1A
100
AcDbPlotSettings
  1

  2
none_device
  4
ANSI_A_(11.00_x_8.50_Inches)
  6

 40
6.35
 41
19.05
 42
6.35000508
 43
19.05000254
 44
279.4
 45
215.9
 46
-64.0393467585
 47
90.6447287339
 48
0.0
 49
0.0
140
0.0
141
0.0
142
0.1654079702
143
1.0
 70
  1696
 72
     0
 73
     0
 74
     0
  7

 75
     0
147
0.0179189148
148
-1300.4909072572
149
0.0
100
AcDbLayout
  1
Model
 70
     1
 71
     0
 10
0.0
 20
0.0
 11
420.0
 21
297.0
 12
0.0
 22
0.0
 32
0.0
 14
14.0636150825
 24
-10.0
 34
0.0
 15
79.9008295007
 25
9.1694456131
 35
0.0
146
0.0
 13
0.0
 23
0.0
 33
0.0
 16
1.0
 26
0.0
 36
0.0
 17
0.0
 27
1.0
 37
0.0
 76
     0
330
1F
331
29
  0
MLINESTYLE
  5
18
102
{ACAD_REACTORS
330
17
102
}
330
17
100
AcDbMlineStyle
  2
Standard
 70
     0
  3

 62
   256
 51
90.0
 52
90.0
 71
     2
 49
0.5
 62
   256
  6
BYLAYER
 49
-0.5
 62
   256
  6
BYLAYER
  0
ACDBPLACEHOLDER
  5
F
102
{ACAD_REACTORS
330
E
102
}
330
E
  0
SCALE
  5
48
102
{ACAD_REACTORS
330
47
102
}
330
47
100
AcDbScale
 70
     0
300
1:1
140
1.0
141
1.0
290
     1
  0
SCALE
  5
49
102
{ACAD_REACTORS
330
47
102
}
330
47
100
AcDbScale
 70
     0
300
1:2
140
1.0
141
2.0
290
     0
  0
SCALE
  5
4A
102
{ACAD_REACTORS
330
47
102
}
330
47
100
AcDbScale
 70
     0
300
1:4
140
1.0
141
4.0
290
     0
  0
SCALE
  5
4B
102
{ACAD_REACTORS
330
47
102
}
330
47
100
AcDbScale
 70
     0
300
1:5
140
1.0
141
5.0
290
     0
  0
SCALE
  5
4C
102
{ACAD_REACTORS
330
47
102
}
330
47
100
AcDbScale
 70
     0
300
1:8
140
1.0
141
8.0
290
     0
  0
SCALE
  5
4D
102
{ACAD_REACTORS
330
47
102
}
330
47
100
AcDbScale
 70
     0
300
1:10
140
1.0
141
10.0
290
     0
  0
SCALE
  5
4E
102
{ACAD_REACTORS
330
47
102
}
330
47
100
AcDbScale
 70
     0
300
1:16
140
1.0
141
16.0
290
     0
  0
SCALE
  5
4F
102
{ACAD_REACTORS
330
47
102
}
330
47
100
AcDbScale
 70
     0
300
1:20
140
1.0
141
20.0
290
     0
  0
SCALE
  5
50
102
{ACAD_REACTORS
330
47
102
}
330
47
100
AcDbScale
 70
     0
300
1:30
140
1.0
141
30.0
290
     0
  0
SCALE
  5
51
102
{ACAD_REACTORS
330
47
102
}
330
47
100
AcDbScale
 70
     0
300
1:40
140
1.0
141
40.0
290
     0
  0
SCALE
  5
52
102
{ACAD_REACTORS
330
47
102
}
330
47
100
AcDbScale
 70
     0
300
1:50
140
1.0
141
50.0
290
     0
  0
SCALE
  5
53
102
{ACAD_REACTORS
330
47
102
}
330
47
100
AcDbScale
 70
     0
300
1:100
140
1.0
141
100.0
290
     0
  0
SCALE
  5
54
102
{ACAD_REACTORS
330
47
102
}
330
47
100
AcDbScale
 70
     0
300
2:1
140
2.0
141
1.0
290
     0
  0
SCALE
  5
55
102
{ACAD_REACTORS
330
47
102
}
330
47
100
AcDbScale
 70
     0
300
4:1
140
4.0
141
1.0
290
     0
  0
SCALE
  5
56
102
{ACAD_REACTORS
330
47
102
}
330
47
100
AcDbScale
 70
     0
300
8:1
140
8.0
141
1.0
290
     0
  0
SCALE
  5
57
102
{ACAD_REACTORS
330
47
102
}
330
47
100
AcDbScale
 70
     0
300
10:1
140
10.0
141
1.0
290
     0
  0
SCALE
  5
58
102
{ACAD_REACTORS
330
47
102
}
330
47
100
AcDbScale
 70
     0
300
100:1
140
100.0
141
1.0
290
     0
  0
ENDSEC
  0
EOF
