  0
SECTION
  2
HEADER
  9
$ACADVER
  1
AC1015
  9
$ACADMAINTVER
 70
     6
  9
$DWGCODEPAGE
  3
ANSI_936
  9
$INSBASE
 10
0.0
 20
0.0
 30
0.0
  9
$EXTMIN
 10
0.1999136553
 20
-10.0000000004
 30
0.0
  9
$EXTMAX
 10
79.900829426
 20
10.4568737115
 30
0.0
  9
$LIMMIN
 10
0.0
 20
0.0
  9
$LIMMAX
 10
420.0
 20
297.0
  9
$ORTHOMODE
 70
     0
  9
$REGENMODE
 70
     1
  9
$FILLMODE
 70
     1
  9
$QTEXTMODE
 70
     0
  9
$MIRRTEXT
 70
     1
  9
$LTSCALE
 40
1.0
  9
$ATTMODE
 70
     1
  9
$TEXTSIZE
 40
3.5
  9
$TRACEWID
 40
1.0
  9
$TEXTSTYLE
  7
Standard
  9
$CLAYER
  8
0
  9
$CELTYPE
  6
ByLayer
  9
$CECOLOR
 62
   256
  9
$CELTSCALE
 40
1.0
  9
$DISPSILH
 70
     0
  9
$DIMSCALE
 40
1.0
  9
$DIMASZ
 40
3.556
  9
$DIMEXO
 40
0.0
  9
$DIMDLI
 40
3.75
  9
$DIMRND
 40
0.0
  9
$DIMDLE
 40
0.0
  9
$DIMEXE
 40
1.0
  9
$DIMTP
 40
0.0
  9
$DIMTM
 40
0.0
  9
$DIMTXT
 40
3.5
  9
$DIMCEN
 40
2.5
  9
$DIMTSZ
 40
0.0
  9
$DIMTOL
 70
     0
  9
$DIMLIM
 70
     0
  9
$DIMTIH
 70
     1
  9
$DIMTOH
 70
     1
  9
$DIMSE1
 70
     0
  9
$DIMSE2
 70
     0
  9
$DIMTAD
 70
     1
  9
$DIMZIN
 70
     1
  9
$DIMBLK
  1

  9
$DIMASO
 70
     1
  9
$DIMSHO
 70
     1
  9
$DIMPOST
  1

  9
$DIMAPOST
  1

  9
$DIMALT
 70
     0
  9
$DIMALTD
 70
     3
  9
$DIMALTF
 40
0.0393700787
  9
$DIMLFAC
 40
1.0
  9
$DIMTOFL
 70
     1
  9
$DIMTVP
 40
0.0
  9
$DIMTIX
 70
     0
  9
$DIMSOXD
 70
     0
  9
$DIMSAH
 70
     0
  9
$DIMBLK1
  1

  9
$DIMBLK2
  1

  9
$DIMSTYLE
  2
ISO-25
  9
$DIMCLRD
 70
     0
  9
$DIMCLRE
 70
     0
  9
$DIMCLRT
 70
     0
  9
$DIMTFAC
 40
1.0
  9
$DIMGAP
 40
1.524
  9
$DIMJUST
 70
     0
  9
$DIMSD1
 70
     0
  9
$DIMSD2
 70
     0
  9
$DIMTOLJ
 70
     0
  9
$DIMTZIN
 70
     1
  9
$DIMALTZ
 70
     0
  9
$DIMALTTZ
 70
     0
  9
$DIMUPT
 70
     0
  9
$DIMDEC
 70
     2
  9
$DIMTDEC
 70
     2
  9
$DIMALTU
 70
     2
  9
$DIMALTTD
 70
     3
  9
$DIMTXSTY
  7
Standard
  9
$DIMAUNIT
 70
     0
  9
$DIMADEC
 70
     2
  9
$DIMALTRND
 40
0.0
  9
$DIMAZIN
 70
     0
  9
$DIMDSEP
 70
    44
  9
$DIMATFIT
 70
     3
  9
$DIMFRAC
 70
     0
  9
$DIMLDRBLK
  1

  9
$DIMLUNIT
 70
     2
  9
$DIMLWD
 70
    -2
  9
$DIMLWE
 70
    -2
  9
$DIMTMOVE
 70
     0
  9
$LUNITS
 70
     2
  9
$LUPREC
 70
     2
  9
$SKETCHINC
 40
1.0
  9
$FILLETRAD
 40
0.0
  9
$AUNITS
 70
     0
  9
$AUPREC
 70
     2
  9
$MENU
  1
.
  9
$ELEVATION
 40
0.0
  9
$PELEVATION
 40
0.0
  9
$THICKNESS
 40
0.0
  9
$LIMCHECK
 70
     0
  9
$CHAMFERA
 40
0.0
  9
$CHAMFERB
 40
0.0
  9
$CHAMFERC
 40
0.0
  9
$CHAMFERD
 40
0.0
  9
$SKPOLY
 70
     0
  9
$TDCREATE
 40
2461083.40800676
  9
$TDUCREATE
 40
2461083.074673426
  9
$TDUPDATE
 40
2461083.408127998
  9
$TDUUPDATE
 40
2461083.074794665
  9
$TDINDWG
 40
0.0000000116
  9
$TDUSRTIMER
 40
0.0000000116
  9
$USRTIMER
 70
     1
  9
$ANGBASE
 50
0.0
  9
$ANGDIR
 70
     0
  9
$PDMODE
 70
     0
  9
$PDSIZE
 40
-1.0
  9
$PLINEWID
 40
0.0
  9
$SPLFRAME
 70
     0
  9
$SPLINETYPE
 70
     6
  9
$SPLINESEGS
 70
     8
  9
$HANDSEED
  5
C3
  9
$SURFTAB1
 70
     6
  9
$SURFTAB2
 70
     6
  9
$SURFTYPE
 70
     6
  9
$SURFU
 70
     6
  9
$SURFV
 70
     6
  9
$UCSBASE
  2

  9
$UCSNAME
  2

  9
$UCSORG
 10
0.0
 20
0.0
 30
0.0
  9
$UCSXDIR
 10
1.0
 20
0.0
 30
0.0
  9
$UCSYDIR
 10
0.0
 20
1.0
 30
0.0
  9
$UCSORTHOREF
  2

  9
$UCSORTHOVIEW
 70
     0
  9
$UCSORGTOP
 10
0.0
 20
0.0
 30
0.0
  9
$UCSORGBOTTOM
 10
0.0
 20
0.0
 30
0.0
  9
$UCSORGLEFT
 10
0.0
 20
0.0
 30
0.0
  9
$UCSORGRIGHT
 10
0.0
 20
0.0
 30
0.0
  9
$UCSORGFRONT
 10
0.0
 20
0.0
 30
0.0
  9
$UCSORGBACK
 10
0.0
 20
0.0
 30
0.0
  9
$PUCSBASE
  2

  9
$PUCSNAME
  2

  9
$PUCSORG
 10
0.0
 20
0.0
 30
0.0
  9
$PUCSXDIR
 10
1.0
 20
0.0
 30
0.0
  9
$PUCSYDIR
 10
0.0
 20
1.0
 30
0.0
  9
$PUCSORTHOREF
  2

  9
$PUCSORTHOVIEW
 70
     0
  9
$PUCSORGTOP
 10
0.0
 20
0.0
 30
0.0
  9
$PUCSORGBOTTOM
 10
0.0
 20
0.0
 30
0.0
  9
$PUCSORGLEFT
 10
0.0
 20
0.0
 30
0.0
  9
$PUCSORGRIGHT
 10
0.0
 20
0.0
 30
0.0
  9
$PUCSORGFRONT
 10
0.0
 20
0.0
 30
0.0
  9
$PUCSORGBACK
 10
0.0
 20
0.0
 30
0.0
  9
$USERI1
 70
     0
  9
$USERI2
 70
     0
  9
$USERI3
 70
     0
  9
$USERI4
 70
     0
  9
$USERI5
 70
     0
  9
$USERR1
 40
0.0
  9
$USERR2
 40
0.0
  9
$USERR3
 40
0.0
  9
$USERR4
 40
0.0
  9
$USERR5
 40
0.0
  9
$WORLDVIEW
 70
     1
  9
$SHADEDGE
 70
     3
  9
$SHADEDIF
 70
    70
  9
$TILEMODE
 70
     1
  9
$MAXACTVP
 70
    64
  9
$PINSBASE
 10
0.0
 20
0.0
 30
0.0
  9
$PLIMCHECK
 70
     0
  9
$PEXTMIN
 10
1.0000000000E+20
 20
1.0000000000E+20
 30
1.0000000000E+20
  9
$PEXTMAX
 10
-1.0000000000E+20
 20
-1.0000000000E+20
 30
-1.0000000000E+20
  9
$PLIMMIN
 10
0.0
 20
0.0
  9
$PLIMMAX
 10
420.0
 20
297.0
  9
$UNITMODE
 70
     0
  9
$VISRETAIN
 70
     1
  9
$PLINEGEN
 70
     0
  9
$PSLTSCALE
 70
     1
  9
$TREEDEPTH
 70
  3020
  9
$CMLSTYLE
  2
Standard
  9
$CMLJUST
 70
     0
  9
$CMLSCALE
 40
20.0
  9
$PROXYGRAPHICS
 70
     1
  9
$MEASUREMENT
 70
     1
  9
$CELWEIGHT
370
    -1
  9
$ENDCAPS
280
     0
  9
$JOINSTYLE
280
     0
  9
$LWDISPLAY
290
     1
  9
$INSUNITS
 70
     4
  9
$HYPERLINKBASE
  1

  9
$STYLESHEET
  1

  9
$XEDIT
290
     1
  9
$CEPSNTYPE
380
     0
  9
$PSTYLEMODE
290
     1
  9
$FINGERPRINTGUID
  2
{dfdf5d24-1344-4cb1-899d-b6840b8b5f0b}
  9
$VERSIONGUID
  2
{FAEB1C32-E019-11D5-929B-00C0DF256EC4}
  9
$EXTNAMES
290
     1
  9
$PSVPSCALE
 40
0.0
  9
$OLESTARTUP
290
     0
  0
ENDSEC
  0
SECTION
  2
CLASSES
  0
CLASS
  1
ACDBDICTIONARYWDFLT
  2
AcDbDictionaryWithDefault
  3
ObjectDBX Classes
 90
        0
280
     0
281
     0
  0
CLASS
  1
VISUALSTYLE
  2
AcDbVisualStyle
  3
ObjectDBX Classes
 90
     4095
280
     0
281
     0
  0
CLASS
  1
MATERIAL
  2
AcDbMaterial
  3
ObjectDBX Classes
 90
     1153
280
     0
281
     0
  0
CLASS
  1
SCALE
  2
AcDbScale
  3
ObjectDBX Classes
 90
     1153
280
     0
281
     0
  0
CLASS
  1
TABLESTYLE
  2
AcDbTableStyle
  3
ObjectDBX Classes
 90
     4095
280
     0
281
     0
  0
CLASS
  1
MLEADERSTYLE
  2
AcDbMLeaderStyle
  3
ACDB_MLEADERSTYLE_CLASS
 90
     4095
280
     0
281
     0
  0
CLASS
  1
SUN
  2
AcDbSun
  3
SCENEOE
 90
     1153
280
     0
281
     0
  0
CLASS
  1
ACDBPLACEHOLDER
  2
AcDbPlaceHolder
  3
ObjectDBX Classes
 90
        0
280
     0
281
     0
  0
CLASS
  1
LAYOUT
  2
AcDbLayout
  3
ObjectDBX Classes
 90
        0
280
     0
281
     0
  0
ENDSEC
  0
SECTION
  2
TABLES
  0
TABLE
  2
VPORT
  5
8
330
0
100
AcDbSymbolTable
 70
     1
  0
VPORT
  5
29
330
8
100
AcDbSymbolTableRecord
100
AcDbViewportTableRecord
  2
*Active
 70
     0
 10
0.0
 20
0.0
 11
1.0
 21
1.0
 12
40.0503715407
 22
0.2284368556
 13
0.0
 23
0.0
 14
10.0
 24
10.0
 15
10.0
 25
10.0
 16
0.0
 26
0.0
 36
1.0
 17
0.0
 27
0.0
 37
0.0
 40
20.8660111861
 41
3.8960457445
 42
50.0
 43
0.0
 44
0.0
 50
0.0
 51
0.0
 71
     0
 72
   100
 73
     1
 74
     3
 75
     0
 76
     0
 77
     0
 78
     0
281
     0
 65
     1
110
0.0
120
0.0
130
0.0
111
1.0
121
0.0
131
0.0
112
0.0
122
1.0
132
0.0
 79
     0
146
0.0
  0
ENDTAB
  0
TABLE
  2
LTYPE
  5
5
330
0
100
AcDbSymbolTable
 70
     6
  0
LTYPE
  5
14
330
5
100
AcDbSymbolTableRecord
100
AcDbLinetypeTableRecord
  2
ByBlock
 70
     0
  3

 72
    65
 73
     0
 40
0.0
  0
LTYPE
  5
15
330
5
100
AcDbSymbolTableRecord
100
AcDbLinetypeTableRecord
  2
ByLayer
 70
     0
  3

 72
    65
 73
     0
 40
0.0
  0
LTYPE
  5
16
330
5
100
AcDbSymbolTableRecord
100
AcDbLinetypeTableRecord
  2
Continuous
 70
     0
  3
Solid line
 72
    65
 73
     0
 40
0.0
  0
LTYPE
  5
5E
330
5
100
AcDbSymbolTableRecord
100
AcDbLinetypeTableRecord
  2
HIDDEN
 70
     0
  3
Hidden __ __ __ __ __ __ __ __ __ __ __ __ __ __
 72
    65
 73
     2
 40
1.905
 49
1.27
 74
     0
 49
-0.635
 74
     0
  0
LTYPE
  5
5F
330
5
100
AcDbSymbolTableRecord
100
AcDbLinetypeTableRecord
  2
PHANTOM
 70
     0
  3
Phantom ______  __  __  ______  __  __  ______
 72
    65
 73
     6
 40
12.7
 49
6.35
 74
     0
 49
-1.27
 74
     0
 49
1.27
 74
     0
 49
-1.27
 74
     0
 49
1.27
 74
     0
 49
-1.27
 74
     0
  0
LTYPE
  5
60
330
5
100
AcDbSymbolTableRecord
100
AcDbLinetypeTableRecord
  2
CENTER
 70
     0
  3
Center ____ _ ____ _ ____ _ ____ _ ____ _ ____
 72
    65
 73
     4
 40
10.16
 49
6.35
 74
     0
 49
-1.27
 74
     0
 49
1.27
 74
     0
 49
-1.27
 74
     0
  0
LTYPE
  5
61
330
5
100
AcDbSymbolTableRecord
100
AcDbLinetypeTableRecord
  2
CENTERX2
 70
     0
  3
Center (2x) ________  __  ________  __  _____
 72
    65
 73
     4
 40
20.32
 49
12.7
 74
     0
 49
-2.54
 74
     0
 49
2.54
 74
     0
 49
-2.54
 74
     0
  0
LTYPE
  5
62
330
5
100
AcDbSymbolTableRecord
100
AcDbLinetypeTableRecord
  2
DOT2
 70
     0
  3
Dot (.5x) ........................................
 72
    65
 73
     2
 40
0.635
 49
0.0
 74
     0
 49
-0.635
 74
     0
  0
ENDTAB
  0
TABLE
  2
LAYER
  5
2
330
0
100
AcDbSymbolTable
 70
     1
  0
LAYER
  5
10
330
2
100
AcDbSymbolTableRecord
100
AcDbLayerTableRecord
  2
0
 70
     0
 62
     7
  6
Continuous
370
    -3
390
F
  0
ENDTAB
  0
TABLE
  2
STYLE
  5
3
330
0
100
AcDbSymbolTable
 70
     1
  0
STYLE
  5
11
330
3
100
AcDbSymbolTableRecord
100
AcDbTextStyleTableRecord
  2
Standard
 70
     0
 40
0.0
 41
1.0
 50
0.0
 71
     0
 42
3.5
  3
txt
  4

  0
ENDTAB
  0
TABLE
  2
VIEW
  5
6
330
0
100
AcDbSymbolTable
 70
     0
  0
ENDTAB
  0
TABLE
  2
UCS
  5
7
330
0
100
AcDbSymbolTable
 70
     0
  0
ENDTAB
  0
TABLE
  2
APPID
  5
9
330
0
100
AcDbSymbolTable
 70
     1
  0
APPID
  5
12
330
9
100
AcDbSymbolTableRecord
100
AcDbRegAppTableRecord
  2
ACAD
 70
     0
  0
ENDTAB
  0
TABLE
  2
DIMSTYLE
  5
A
330
0
100
AcDbSymbolTable
 70
     1
100
AcDbDimStyleTable
  0
DIMSTYLE
105
27
330
A
100
AcDbSymbolTableRecord
100
AcDbDimStyleTableRecord
  2
ISO-25
 70
     0
 41
2.5
 42
0.625
 43
3.75
 44
1.25
 73
     0
 74
     0
 77
     1
 78
     8
140
2.5
141
2.5
143
0.0393700787
147
0.625
171
     3
172
     1
178
     0
271
     2
272
     2
274
     3
278
    44
283
     0
284
     8
340
11
  0
ENDTAB
  0
TABLE
  2
BLOCK_RECORD
  5
1
330
0
100
AcDbSymbolTable
 70
     1
  0
BLOCK_RECORD
  5
1F
330
1
100
AcDbSymbolTableRecord
100
AcDbBlockTableRecord
  2
*Model_Space
340
22
  0
BLOCK_RECORD
  5
1B
330
1
100
AcDbSymbolTableRecord
100
AcDbBlockTableRecord
  2
*Paper_Space
340
1E
  0
BLOCK_RECORD
  5
23
330
1
100
AcDbSymbolTableRecord
100
AcDbBlockTableRecord
  2
*Paper_Space0
340
26
  0
ENDTAB
  0
ENDSEC
  0
SECTION
  2
BLOCKS
  0
BLOCK
  5
20
330
1F
100
AcDbEntity
  8
0
100
AcDbBlockBegin
  2
*Model_Space
 70
     0
 10
0.0
 20
0.0
 30
0.0
  3
*Model_Space
  1

  0
ENDBLK
  5
21
330
1F
100
AcDbEntity
  8
0
100
AcDbBlockEnd
  0
BLOCK
  5
1C
330
1B
100
AcDbEntity
 67
     1
  8
0
100
AcDbBlockBegin
  2
*Paper_Space
 70
     0
 10
0.0
 20
0.0
 30
0.0
  3
*Paper_Space
  1

  0
ENDBLK
  5
1D
330
1B
100
AcDbEntity
 67
     1
  8
0
100
AcDbBlockEnd
  0
BLOCK
  5
24
330
23
100
AcDbEntity
  8
0
100
AcDbBlockBegin
  2
*Paper_Space0
 70
     0
 10
0.0
 20
0.0
 30
0.0
  3
*Paper_Space0
  1

  0
ENDBLK
  5
25
330
23
100
AcDbEntity
  8
0
100
AcDbBlockEnd
  0
ENDSEC
  0
SECTION
  2
ENTITIES
  0
ARC
  5
63
330
1F
100
AcDbEntity
  8
0
  6
Continuous
 62
     7
370
    25
100
AcDbCircle
 10
41.5367617642
 20
4.872490092
 30
0.0
 40
1.0
100
AcDbArc
 50
360.0
 51
135.0
  0
LINE
  5
64
330
1F
100
AcDbEntity
  8
0
  6
Continuous
 62
     7
370
    25
100
AcDbLine
 10
40.829654983
 20
5.5795968732
 30
0.0
 11
36.7012837471
 21
1.4512256373
 31
0.0
  0
ARC
  5
65
330
1F
100
AcDbEntity
  8
0
  6
Continuous
 62
     7
370
    25
100
AcDbCircle
 10
37.4083905283
 20
0.7441188561
 30
0.0
 40
1.0
100
AcDbArc
 50
135.0
 51
270.0
  0
LINE
  5
66
330
1F
100
AcDbEntity
  8
0
  6
Continuous
 62
     7
370
    25
100
AcDbLine
 10
37.4083905283
 20
-0.2558811439
 30
0.0
 11
41.5367617642
 21
-0.2558811439
 31
0.0
  0
ARC
  5
67
330
1F
100
AcDbEntity
  8
0
  6
Continuous
 62
     7
370
    25
100
AcDbCircle
 10
41.5367617642
 20
0.7441188561
 30
0.0
 40
1.0
100
AcDbArc
 50
270.0
 51
0.0
  0
LINE
  5
68
330
1F
100
AcDbEntity
  8
0
  6
Continuous
 62
     7
370
    25
100
AcDbLine
 10
42.5367617642
 20
0.7441188561
 30
0.0
 11
42.5367617642
 21
4.872490092
 31
0.0
  0
LINE
  5
69
330
1F
100
AcDbEntity
  8
0
  6
Continuous
 62
     7
370
    25
100
AcDbLine
 10
55.2008113313
 20
7.2867036544
 30
0.0
 11
50.7043288034
 21
7.2867036544
 31
0.0
  0
ARC
  5
6A
330
1F
100
AcDbEntity
  8
0
  6
Continuous
 62
     7
370
    25
100
AcDbCircle
 10
50.7043288034
 20
6.2867036544
 30
0.0
 40
1.0
100
AcDbArc
 50
90.0
 51
226.7545066616
  0
LINE
  5
6B
330
1F
100
AcDbEntity
  8
0
  6
Continuous
 62
     7
370
    25
100
AcDbLine
 10
50.019203106
 20
5.5582787929
 30
0.0
 11
54.5156856339
 21
1.3290770031
 31
0.0
  0
ARC
  5
6C
330
1F
100
AcDbEntity
  8
0
  6
Continuous
 62
     7
370
    25
100
AcDbCircle
 10
55.2008113313
 20
2.0575018646
 30
0.0
 40
1.000000000000003
100
AcDbArc
 50
226.7545066616
 51
0.0
  0
LINE
  5
6D
330
1F
100
AcDbEntity
  8
0
  6
Continuous
 62
     7
370
    25
100
AcDbLine
 10
56.2008113313
 20
2.0575018646
 30
0.0
 11
56.2008113313
 21
6.2867036544
 31
0.0
  0
ARC
  5
6E
330
1F
100
AcDbEntity
  8
0
  6
Continuous
 62
     7
370
    25
100
AcDbCircle
 10
55.2008113313
 20
6.2867036544
 30
0.0
 40
1.0
100
AcDbArc
 50
0.0
 51
90.0
  0
ARC
  5
6F
330
1F
100
AcDbEntity
  8
0
  6
Continuous
 62
     7
370
    25
100
AcDbCircle
 10
63.9993817951
 20
6.2867036544
 30
0.0
 40
0.9999999999999973
100
AcDbArc
 50
315.1194356508
 51
90.0
  0
LINE
  5
70
330
1F
100
AcDbEntity
  8
0
  6
Continuous
 62
     7
370
    25
100
AcDbLine
 10
59.895291689
 20
7.2867036544
 30
0.0
 11
63.9993817951
 21
7.2867036544
 31
0.0
  0
ARC
  5
71
330
1F
100
AcDbEntity
  8
0
  6
Continuous
 62
     7
370
    25
100
AcDbCircle
 10
59.895291689
 20
6.2867036544
 30
0.0
 40
1.0
100
AcDbArc
 50
90.0
 51
180.0
  0
LINE
  5
72
330
1F
100
AcDbEntity
  8
0
  6
Continuous
 62
     7
370
    25
100
AcDbLine
 10
58.895291689
 20
6.2867036544
 30
0.0
 11
58.895291689
 21
2.1654674577
 31
0.0
  0
ARC
  5
73
330
1F
100
AcDbEntity
  8
0
  6
Continuous
 62
     7
370
    25
100
AcDbCircle
 10
59.895291689
 20
2.1654674577
 30
0.0
 40
1.0
100
AcDbArc
 50
180.0
 51
315.1194356508
  0
LINE
  5
74
330
1F
100
AcDbEntity
  8
0
  6
Continuous
 62
     7
370
    25
100
AcDbLine
 10
64.7079610351
 20
5.5810724046
 30
0.0
 11
60.603870929
 21
1.4598362079
 31
0.0
  0
LINE
  5
75
330
1F
100
AcDbEntity
  8
0
  6
Continuous
 62
     7
370
    25
100
AcDbLine
 10
29.0997277002
 20
7.2867036544
 30
0.0
 11
24.7072903078
 21
7.2867036544
 31
0.0
  0
ARC
  5
76
330
1F
100
AcDbEntity
  8
0
  6
Continuous
 62
     7
370
    25
100
AcDbCircle
 10
24.7072903078
 20
6.2867036544
 30
0.0
 40
1.0
100
AcDbArc
 50
90.0
 51
226.2691456136
  0
LINE
  5
77
330
1F
100
AcDbEntity
  8
0
  6
Continuous
 62
     7
370
    25
100
AcDbLine
 10
24.0160186715
 20
5.5641086608
 30
0.0
 11
28.4084560638
 21
1.3620765254
 31
0.0
  0
ARC
  5
78
330
1F
100
AcDbEntity
  8
0
  6
Continuous
 62
     7
370
    25
100
AcDbCircle
 10
29.0997277002
 20
2.0846715189
 30
0.0
 40
1.0
100
AcDbArc
 50
226.2691456136
 51
0.0
  0
LINE
  5
79
330
1F
100
AcDbEntity
  8
0
  6
Continuous
 62
     7
370
    25
100
AcDbLine
 10
30.0997277002
 20
2.0846715189
 30
0.0
 11
30.0997277002
 21
6.2867036544
 31
0.0
  0
ARC
  5
7A
330
1F
100
AcDbEntity
  8
0
  6
Continuous
 62
     7
370
    25
100
AcDbCircle
 10
29.0997277002
 20
6.2867036544
 30
0.0
 40
1.0
100
AcDbArc
 50
0.0
 51
90.0
  0
ARC
  5
7B
330
1F
100
AcDbEntity
  8
0
  6
Continuous
 62
     7
370
    25
100
AcDbCircle
 10
68.1752050981
 20
4.8653550527
 30
0.0
 40
1.0
100
AcDbArc
 50
360.0
 51
135.1194356508
  0
LINE
  5
7C
330
1F
100
AcDbEntity
  8
0
  6
Continuous
 62
     7
370
    25
100
AcDbLine
 10
67.4666258581
 20
5.5709863025
 30
0.0
 11
63.362535752
 21
1.4497501059
 31
0.0
  0
ARC
  5
7D
330
1F
100
AcDbEntity
  8
0
  6
Continuous
 62
     7
370
    25
100
AcDbCircle
 10
64.071114992
 20
0.7441188561
 30
0.0
 40
1.0
100
AcDbArc
 50
135.1194356508
 51
270.0
  0
LINE
  5
7E
330
1F
100
AcDbEntity
  8
0
  6
Continuous
 62
     7
370
    25
100
AcDbLine
 10
64.071114992
 20
-0.2558811439
 30
0.0
 11
68.1752050981
 21
-0.2558811439
 31
0.0
  0
ARC
  5
7F
330
1F
100
AcDbEntity
  8
0
  6
Continuous
 62
     7
370
    25
100
AcDbCircle
 10
68.1752050981
 20
0.7441188561
 30
0.0
 40
1.0
100
AcDbArc
 50
270.0
 51
0.0
  0
LINE
  5
80
330
1F
100
AcDbEntity
  8
0
  6
Continuous
 62
     7
370
    25
100
AcDbLine
 10
69.1752050981
 20
0.7441188561
 30
0.0
 11
69.1752050981
 21
4.8653550527
 31
0.0
  0
ARC
  5
81
330
1F
100
AcDbEntity
  8
0
  6
Continuous
 62
     7
370
    25
100
AcDbCircle
 10
33.372962795
 20
2.1583324185
 30
0.0
 40
1.000000000000004
100
AcDbArc
 50
180.0
 51
315.0
  0
LINE
  5
82
330
1F
100
AcDbEntity
  8
0
  6
Continuous
 62
     7
370
    25
100
AcDbLine
 10
34.0800695762
 20
1.4512256373
 30
0.0
 11
38.208440812
 21
5.5795968732
 31
0.0
  0
ARC
  5
83
330
1F
100
AcDbEntity
  8
0
  6
Continuous
 62
     7
370
    25
100
AcDbCircle
 10
37.5013340309
 20
6.2867036544
 30
0.0
 40
1.00000000000001
100
AcDbArc
 50
315.0
 51
90.0
  0
LINE
  5
84
330
1F
100
AcDbEntity
  8
0
  6
Continuous
 62
     7
370
    25
100
AcDbLine
 10
37.5013340309
 20
7.2867036544
 30
0.0
 11
33.372962795
 21
7.2867036544
 31
0.0
  0
ARC
  5
85
330
1F
100
AcDbEntity
  8
0
  6
Continuous
 62
     7
370
    25
100
AcDbCircle
 10
33.372962795
 20
6.2867036544
 30
0.0
 40
1.0
100
AcDbArc
 50
90.0
 51
180.0
  0
LINE
  5
86
330
1F
100
AcDbEntity
  8
0
  6
Continuous
 62
     7
370
    25
100
AcDbLine
 10
32.372962795
 20
6.2867036544
 30
0.0
 11
32.372962795
 21
2.1583324185
 31
0.0
  0
ARC
  5
87
330
1F
100
AcDbEntity
  8
0
  6
Continuous
 62
     7
370
    25
100
AcDbCircle
 10
25.0259367231
 20
0.7441188561
 30
0.0
 40
1.000000000000002
100
AcDbArc
 50
270.0
 51
46.2691456136
  0
LINE
  5
88
330
1F
100
AcDbEntity
  8
0
  6
Continuous
 62
     7
370
    25
100
AcDbLine
 10
25.7172083594
 20
1.4667138497
 30
0.0
 11
21.3247709671
 21
5.6687459851
 31
0.0
  0
ARC
  5
89
330
1F
100
AcDbEntity
  8
0
  6
Continuous
 62
     7
370
    25
100
AcDbCircle
 10
20.6334993307
 20
4.9461509915
 30
0.0
 40
1.000000000000003
100
AcDbArc
 50
46.2691456136
 51
180.0
  0
LINE
  5
8A
330
1F
100
AcDbEntity
  8
0
  6
Continuous
 62
     7
370
    25
100
AcDbLine
 10
19.6334993307
 20
4.9461509915
 30
0.0
 11
19.6334993307
 21
0.7441188561
 31
0.0
  0
ARC
  5
8B
330
1F
100
AcDbEntity
  8
0
  6
Continuous
 62
     7
370
    25
100
AcDbCircle
 10
20.6334993307
 20
0.7441188561
 30
0.0
 40
1.0
100
AcDbArc
 50
180.0
 51
270.0
  0
LINE
  5
8C
330
1F
100
AcDbEntity
  8
0
  6
Continuous
 62
     7
370
    25
100
AcDbLine
 10
20.6334993307
 20
-0.2558811439
 30
0.0
 11
25.0259367231
 21
-0.2558811439
 31
0.0
  0
ARC
  5
8D
330
1F
100
AcDbEntity
  8
0
  6
Continuous
 62
     7
370
    25
100
AcDbCircle
 10
50.4802050915
 20
0.7441188561
 30
0.0
 40
1.0
100
AcDbArc
 50
270.0
 51
46.7545066616
  0
LINE
  5
8E
330
1F
100
AcDbEntity
  8
0
  6
Continuous
 62
     7
370
    25
100
AcDbLine
 10
51.1653307889
 20
1.4725437175
 30
0.0
 11
46.668848261
 21
5.7017455073
 31
0.0
  0
ARC
  5
8F
330
1F
100
AcDbEntity
  8
0
  6
Continuous
 62
     7
370
    25
100
AcDbCircle
 10
45.9837225636
 20
4.9733206459
 30
0.0
 40
1.0
100
AcDbArc
 50
46.7545066616
 51
180.0
  0
LINE
  5
90
330
1F
100
AcDbEntity
  8
0
  6
Continuous
 62
     7
370
    25
100
AcDbLine
 10
44.9837225636
 20
4.9733206459
 30
0.0
 11
44.9837225636
 21
0.7441188561
 31
0.0
  0
ARC
  5
91
330
1F
100
AcDbEntity
  8
0
  6
Continuous
 62
     7
370
    25
100
AcDbCircle
 10
45.9837225636
 20
0.7441188561
 30
0.0
 40
1.0
100
AcDbArc
 50
180.0
 51
270.0
  0
LINE
  5
92
330
1F
100
AcDbEntity
  8
0
  6
Continuous
 62
     7
370
    25
100
AcDbLine
 10
45.9837225636
 20
-0.2558811439
 30
0.0
 11
50.4802050915
 21
-0.2558811439
 31
0.0
  0
ARC
  5
93
330
1F
100
AcDbEntity
  8
0
  6
Continuous
 62
     7
370
    25
100
AcDbCircle
 10
10.3363126849
 20
0.9498357898
 30
0.0
 40
2.199999999999863
100
AcDbArc
 50
266.8637105194
 51
93.1362894823
  0
ARC
  5
94
330
1F
100
AcDbEntity
  8
0
  6
Continuous
 62
     7
370
    25
100
AcDbCircle
 10
10.0955832016
 20
0.9498357898
 30
0.0
 40
2.199999999999998
100
AcDbArc
 50
86.8637105194
 51
273.1362894823
  0
SPLINE
  5
95
330
1F
100
AcDbEntity
  8
0
  6
Continuous
 62
     7
370
    25
100
AcDbSpline
210
0.0
220
0.0
230
1.0
 70
     8
 71
     3
 72
     9
 73
     5
 74
     0
 42
0.00000001
 43
0.00000001
 40
0.3897244136826575
 40
0.3897244136826575
 40
0.3897244136826575
 40
0.3897244136826575
 40
0.3897638165146809
 40
0.3939909622150395
 40
0.3939909622150395
 40
0.3939909622150395
 40
0.3939909622150395
 10
23.12216954930552
 20
-3.388108545266125
 30
0.0
 10
23.11909217469734
 20
-3.388181252398951
 30
0.0
 10
22.78587317526203
 20
-3.396049549039688
 30
0.0
 10
22.4526427886436
 20
-3.403435557503777
 30
0.0
 10
22.12247892705548
 20
-3.410219495212849
 30
0.0
  0
LINE
  5
96
330
1F
100
AcDbEntity
  8
0
  6
Continuous
 62
     7
370
    25
100
AcDbLine
 10
22.1224789271
 20
-3.5078448827
 30
0.0
 11
22.1224789271
 21
-3.4102194952
 31
0.0
  0
LINE
  5
97
330
1F
100
AcDbEntity
  8
0
  6
Continuous
 62
     7
370
    25
100
AcDbLine
 10
23.1221695578
 20
-3.4829723498
 30
0.0
 11
22.1224789271
 21
-3.5078448827
 31
0.0
  0
LINE
  5
98
330
1F
100
AcDbEntity
  8
0
  6
Continuous
 62
     7
370
    25
100
AcDbLine
 10
23.1221695578
 20
-3.3881085453
 30
0.0
 11
23.1221695578
 21
-3.4829723498
 31
0.0
  0
SPLINE
  5
99
330
1F
100
AcDbEntity
  8
0
  6
Continuous
 62
     7
370
    25
100
AcDbSpline
210
0.0
220
0.0
230
1.0
 70
     8
 71
     3
 72
     8
 73
     4
 74
     0
 42
0.00000001
 43
0.00000001
 40
0.3846041717753733
 40
0.3846041717753733
 40
0.3846041717753733
 40
0.3846041717753733
 40
0.3888710691305234
 40
0.3888710691305234
 40
0.3888710691305234
 40
0.3888710691305234
 10
24.32179830517022
 20
-3.35776655481391
 30
0.0
 10
23.98857946602491
 20
-3.366726640260506
 30
0.0
 10
23.65534926695961
 20
-3.375263058948348
 30
0.0
 10
23.32210768388853
 20
-3.38332726720959
 30
0.0
  0
LINE
  5
9A
330
1F
100
AcDbEntity
  8
0
  6
Continuous
 62
     7
370
    25
100
AcDbLine
 10
23.3221076839
 20
-3.4779978432
 30
0.0
 11
23.3221076839
 21
-3.3833272674
 31
0.0
  0
LINE
  5
9B
330
1F
100
AcDbEntity
  8
0
  6
Continuous
 62
     7
370
    25
100
AcDbLine
 10
24.3217983146
 20
-3.4531253103
 30
0.0
 11
23.3221076839
 21
-3.4779978432
 31
0.0
  0
LINE
  5
9C
330
1F
100
AcDbEntity
  8
0
  6
Continuous
 62
     7
370
    25
100
AcDbLine
 10
24.3217983146
 20
-3.3577665548
 30
0.0
 11
24.3217983146
 21
-3.4531253103
 31
0.0
  0
SPLINE
  5
9D
330
1F
100
AcDbEntity
  8
0
  6
Continuous
 62
     7
370
    25
100
AcDbSpline
210
0.0
220
0.0
230
1.0
 70
     8
 71
     3
 72
     9
 73
     5
 74
     0
 42
0.00000001
 43
0.00000001
 40
0.3794835114985483
 40
0.3794835114985483
 40
0.3794835114985483
 40
0.3794835114985483
 40
0.3819685401843872
 40
0.3837507573243518
 40
0.3837507573243518
 40
0.3837507573243518
 40
0.3837507573243518
 10
25.5214270714262
 20
-3.323761086075794
 30
0.0
 10
25.3273770916629
 20
-3.329531055730745
 30
0.0
 10
24.99415167276585
 20
-3.339226082180995
 30
0.0
 10
24.66091490697331
 20
-3.348527362639189
 30
0.0
 10
24.52173644072437
 20
-3.352339827399923
 30
0.0
  0
LINE
  5
9E
330
1F
100
AcDbEntity
  8
0
  6
Continuous
 62
     7
370
    25
100
AcDbLine
 10
24.5217364407
 20
-3.4481508037
 30
0.0
 11
24.5217364407
 21
-3.3523398277
 31
0.0
  0
LINE
  5
9F
330
1F
100
AcDbEntity
  8
0
  6
Continuous
 62
     7
370
    25
100
AcDbLine
 10
25.5214270714
 20
-3.4232782708
 30
0.0
 11
24.5217364407
 21
-3.4481508037
 31
0.0
  0
LINE
  5
A0
330
1F
100
AcDbEntity
  8
0
  6
Continuous
 62
     7
370
    25
100
AcDbLine
 10
25.5214270714
 20
-3.3237610861
 30
0.0
 11
25.5214270714
 21
-3.4232782708
 31
0.0
  0
LINE
  5
A1
330
1F
100
AcDbEntity
  8
0
  6
Continuous
 62
     7
370
    25
100
AcDbLine
 10
73.2863201267
 20
-1.5785049035
 30
0.0
 11
73.2863201267
 21
-1.6785805077
 31
0.0
  0
SPLINE
  5
A2
330
1F
100
AcDbEntity
  8
0
  6
Continuous
 62
     7
370
    25
100
AcDbSpline
210
0.0
220
0.0
230
1.0
 70
     8
 71
     3
 72
     8
 73
     4
 74
     0
 42
0.00000001
 43
0.00000001
 40
0.1755430452024472
 40
0.1755430452024472
 40
0.1755430452024472
 40
0.1755430452024472
 40
0.1798098667953444
 40
0.1798098667953444
 40
0.1798098667953444
 40
0.1798098667953444
 10
73.28632031618969
 20
-1.578510062276219
 30
0.0
 10
72.9532116184483
 20
-1.590743335100284
 30
0.0
 10
72.62010289960794
 20
-1.602975878707096
 30
0.0
 10
72.28699415333965
 20
-1.615207623681342
 30
0.0
  0
LINE
  5
A3
330
1F
100
AcDbEntity
  8
0
  6
Continuous
 62
     7
370
    25
100
AcDbLine
 10
72.2869939564
 20
-1.7152848022
 30
0.0
 11
72.2869939564
 21
-1.6152022597
 31
0.0
  0
LINE
  5
A4
330
1F
100
AcDbEntity
  8
0
  6
Continuous
 62
     7
370
    25
100
AcDbLine
 10
73.2863201267
 20
-1.6785805077
 30
0.0
 11
72.2869939564
 21
-1.7152848022
 31
0.0
  0
LINE
  5
A5
330
1F
100
AcDbEntity
  8
0
  6
Continuous
 62
     7
370
    25
100
AcDbLine
 10
74.4855115312
 20
-1.5344636776
 30
0.0
 11
74.4855115312
 21
-1.6345353543
 31
0.0
  0
SPLINE
  5
A6
330
1F
100
AcDbEntity
  8
0
  6
Continuous
 62
     7
370
    25
100
AcDbSpline
210
0.0
220
0.0
230
1.0
 70
     8
 71
     3
 72
     9
 73
     5
 74
     0
 42
0.00000001
 43
0.00000001
 40
0.1704228588018754
 40
0.1704228588018754
 40
0.1704228588018754
 40
0.1704228588018754
 40
0.1714960792664596
 40
0.1746896808333229
 40
0.1746896808333229
 40
0.1746896808333229
 40
0.1746896808333229
 10
74.48551166232724
 20
-1.534467248498289
 30
0.0
 10
74.40172587032775
 20
-1.537544658046067
 30
0.0
 10
74.06861717647607
 20
-1.549779419825162
 30
0.0
 10
73.7355084675283
 20
-1.562013518225433
 30
0.0
 10
73.48618554419131
 20
-1.571170011196276
 30
0.0
  0
LINE
  5
A7
330
1F
100
AcDbEntity
  8
0
  6
Continuous
 62
     7
370
    25
100
AcDbLine
 10
73.4861853608
 20
-1.6712396488
 30
0.0
 11
73.4861853608
 21
-1.5711650178
 31
0.0
  0
LINE
  5
A8
330
1F
100
AcDbEntity
  8
0
  6
Continuous
 62
     7
370
    25
100
AcDbLine
 10
74.4855115312
 20
-1.6345353543
 30
0.0
 11
73.4861853608
 21
-1.6712396488
 31
0.0
  0
LINE
  5
A9
330
1F
100
AcDbEntity
  8
0
  6
Continuous
 62
     7
370
    25
100
AcDbLine
 10
75.6847029356
 20
-1.4904181959
 30
0.0
 11
75.6847029356
 21
-1.590490201
 31
0.0
  0
SPLINE
  5
AA
330
1F
100
AcDbEntity
  8
0
  6
Continuous
 62
     7
370
    25
100
AcDbSpline
210
0.0
220
0.0
230
1.0
 70
     8
 71
     3
 72
     8
 73
     4
 74
     0
 42
0.00000001
 43
0.00000001
 40
0.1653026719687853
 40
0.1653026719687853
 40
0.1653026719687853
 40
0.1653026719687853
 40
0.1695694943634528
 40
0.1695694943634528
 40
0.1695694943634528
 40
0.1695694943634528
 10
75.68470297965028
 20
-1.490419395132573
 30
0.0
 10
75.3515942934902
 20
-1.502655391339935
 30
0.0
 10
75.01848559497576
 20
-1.514891086256251
 30
0.0
 10
74.68537688221811
 20
-1.527126230428408
 30
0.0
  0
LINE
  5
AB
330
1F
100
AcDbEntity
  8
0
  6
Continuous
 62
     7
370
    25
100
AcDbLine
 10
74.6853767652
 20
-1.6271944954
 30
0.0
 11
74.6853767652
 21
-1.5271230456
 31
0.0
  0
LINE
  5
AC
330
1F
100
AcDbEntity
  8
0
  6
Continuous
 62
     7
370
    25
100
AcDbLine
 10
75.6847029356
 20
-1.590490201
 30
0.0
 11
74.6853767652
 21
-1.6271944954
 31
0.0
  0
LINE
  5
AD
330
1F
100
AcDbEntity
  8
0
  6
Continuous
 62
     7
370
    25
100
AcDbLine
 10
0.9958576995
 20
-0.0501642102
 30
0.0
 11
0.1999139399
 21
-0.8461079698
 31
0.0
  0
LINE
  5
AE
330
1F
100
AcDbEntity
  8
0
  6
Continuous
 62
     7
370
    25
100
AcDbLine
 10
0.2479968681
 20
0.6976966211
 30
0.0
 11
0.9958576995
 21
-0.0501642102
 31
0.0
  0
SPLINE
  5
AF
330
1F
100
AcDbEntity
  8
0
  6
Continuous
 62
     7
370
    25
100
AcDbSpline
210
0.0
220
0.0
230
1.0
 70
     8
 71
     3
 72
    47
 73
    43
 74
     0
 42
0.00000001
 43
0.00000001
 40
0.497079021766439
 40
0.497079021766439
 40
0.497079021766439
 40
0.497079021766439
 40
0.4988976851387915
 40
0.5008465042213651
 40
0.5027953233039385
 40
0.5047441423865117
 40
0.506692961469085
 40
0.5086417805516585
 40
0.5105905996342321
 40
0.5144882377993787
 40
0.5183858759645255
 40
0.5222835141296726
 40
0.5261811522948192
 40
0.5300787904599662
 40
0.533976428625113
 40
0.5378740667902596
 40
0.5417717049554067
 40
0.5456693431205533
 40
0.5495669812857
 40
0.553464619450847
 40
0.5612598957811407
 40
0.5690551721114341
 40
0.5768504484417276
 40
0.5846457247720215
 40
0.5924410011023151
 40
0.6002362774326085
 40
0.6080315537629022
 40
0.6236221064234896
 40
0.6392126590840765
 40
0.654803211744664
 40
0.6703937644052511
 40
0.6859843170658385
 40
0.7015748697264255
 40
0.717165422387013
 40
0.7327559750476
 40
0.7483465277081874
 40
0.7639370803687744
 40
0.7795276330293619
 40
0.795118185689949
 40
0.8107087383505364
 40
0.8262992910111233
 40
0.838927673802393
 40
0.838927673802393
 40
0.838927673802393
 40
0.838927673802393
 10
0.247999551046461
 20
0.6976950956359793
 30
0.0
 10
0.3182272459211826
 20
0.821207739503661
 30
0.0
 10
0.4818691113056326
 20
1.066462775628649
 30
0.0
 10
0.7655508419826409
 20
1.411833302483731
 30
0.0
 10
1.076734832603034
 20
1.746284163018665
 30
0.0
 10
1.398801286572756
 20
2.070192600861034
 30
0.0
 10
1.724844354326836
 20
2.390037063171115
 30
0.0
 10
2.058063524610827
 20
2.702498728062485
 30
0.0
 10
2.516187955659561
 20
3.103863637544819
 30
0.0
 10
3.117443883882529
 20
3.571704146890768
 30
0.0
 10
3.878272337368041
 20
4.078224712737446
 30
0.0
 10
4.669276236003135
 20
4.53582075141618
 30
0.0
 10
5.480573283650038
 20
4.956038311977171
 30
0.0
 10
6.308538238988461
 20
5.342362688645981
 30
0.0
 10
7.148837281125505
 20
5.700820457083032
 30
0.0
 10
7.998449001008254
 20
6.036591760347017
 30
0.0
 10
8.855444408817432
 20
6.352929093259299
 30
0.0
 10
9.717777982398257
 20
6.65438937250343
 30
0.0
 10
10.58485183240994
 20
6.941914879003065
 30
0.0
 10
11.74727668091272
 20
7.305703337800453
 30
0.0
 10
13.21156810377355
 20
7.723234188731626
 30
0.0
 10
14.9829959141197
 20
8.170970946279784
 30
0.0
 10
16.76560634619017
 20
8.571669894868693
 30
0.0
 10
18.55732212555012
 20
8.929428025217005
 30
0.0
 10
20.35709721531502
 20
9.24412694329611
 30
0.0
 10
22.16410296333172
 20
9.514379223235045
 30
0.0
 10
24.58194743404096
 20
9.81237724369643
 30
0.0
 10
27.61572202536025
 20
10.08028678807875
 30
0.0
 10
31.26462458074871
 20
10.27710262299535
 30
0.0
 10
34.91663026607916
 20
10.39809544279014
 30
0.0
 10
38.56979445614753
 20
10.47474869993193
 30
0.0
 10
42.22382225212984
 20
10.49114447452352
 30
0.0
 10
45.87753826613575
 20
10.43996042875145
 30
0.0
 10
49.52940442741744
 20
10.31209085187426
 30
0.0
 10
53.17823665351104
 20
10.11732879380017
 30
0.0
 10
56.8233498066736
 20
9.862391234211572
 30
0.0
 10
60.46441972784471
 20
9.555406564566125
 30
0.0
 10
64.10074671622415
 20
9.19649996426467
 30
0.0
 10
67.73167966670994
 20
8.786602010964272
 30
0.0
 10
71.35645846617997
 20
8.325554318525336
 30
0.0
 10
74.74591738650547
 20
7.850690969709622
 30
0.0
 10
76.92586947593206
 20
7.52238650237335
 30
0.0
 10
77.90082942601639
 20
7.371564451091114
 30
0.0
  0
LINE
  5
B0
330
1F
100
AcDbEntity
  8
0
  6
Continuous
 62
     7
370
    25
100
AcDbLine
 10
77.900829426
 20
3.9498357898
 30
0.0
 11
77.900829426
 21
7.3715644511
 31
0.0
  0
LINE
  5
B1
330
1F
100
AcDbEntity
  8
0
  6
Continuous
 62
     7
370
    25
100
AcDbLine
 10
79.900829426
 20
3.9498357898
 30
0.0
 11
77.900829426
 21
3.9498357898
 31
0.0
  0
LINE
  5
B2
330
1F
100
AcDbEntity
  8
0
  6
Continuous
 62
     7
370
    25
100
AcDbLine
 10
79.900829426
 20
3.9498357898
 30
0.0
 11
79.900829426
 21
0.9498357898
 31
0.0
  0
LINE
  5
B3
330
1F
100
AcDbEntity
  8
0
  6
Continuous
 62
     7
370
    25
100
AcDbLine
 10
77.900829426
 20
0.9498357898
 30
0.0
 11
79.900829426
 21
0.9498357898
 31
0.0
  0
LINE
  5
B4
330
1F
100
AcDbEntity
  8
0
  6
Continuous
 62
     7
370
    25
100
AcDbLine
 10
77.900829426
 20
-1.4090132584
 30
0.0
 11
77.900829426
 21
0.9498357898
 31
0.0
  0
SPLINE
  5
B5
330
1F
100
AcDbEntity
  8
0
  6
Continuous
 62
     7
370
    25
100
AcDbSpline
210
0.0
220
0.0
230
1.0
 70
     8
 71
     3
 72
     9
 73
     5
 74
     0
 42
0.00000001
 43
0.00000001
 40
0.1558404763617093
 40
0.1558404763617093
 40
0.1558404763617093
 40
0.1558404763617093
 40
0.1559055266058724
 40
0.1644493074413185
 40
0.1644493074413185
 40
0.1644493074413185
 40
0.1644493074413185
 10
77.90082942601637
 20
-1.409013258413046
 30
0.0
 10
77.89575098674628
 20
-1.409199805120552
 30
0.0
 10
77.22366394998315
 20
-1.433887638515222
 30
0.0
 10
76.55157687986257
 20
-1.458576481867589
 30
0.0
 10
75.88456820124584
 20
-1.483077762831313
 30
0.0
  0
LINE
  5
B6
330
1F
100
AcDbEntity
  8
0
  6
Continuous
 62
     7
370
    25
100
AcDbLine
 10
75.8845681697
 20
-10.0000000004
 30
0.0
 11
75.8845681697
 21
-1.4830769031
 31
0.0
  0
LINE
  5
B7
330
1F
100
AcDbEntity
  8
0
  6
Continuous
 62
     7
370
    25
100
AcDbLine
 10
71.8845681785
 20
-10.0000000004
 30
0.0
 11
75.8845681697
 21
-10.0000000004
 31
0.0
  0
LINE
  5
B8
330
1F
100
AcDbEntity
  8
0
  6
Continuous
 62
     7
370
    25
100
AcDbLine
 10
71.8845681785
 20
-1.7300655161
 30
0.0
 11
71.8845681785
 21
-10.0000000004
 31
0.0
  0
LINE
  5
B9
330
1F
100
AcDbEntity
  8
0
  6
Continuous
 62
     7
370
    25
100
AcDbLine
 10
72.0871287223
 20
-1.7226256611
 30
0.0
 11
71.8845681785
 21
-1.7300655161
 31
0.0
  0
LINE
  5
BA
330
1F
100
AcDbEntity
  8
0
  6
Continuous
 62
     7
370
    25
100
AcDbLine
 10
72.0871287223
 20
-1.6225412935
 30
0.0
 11
72.0871287223
 21
-1.7226256611
 31
0.0
  0
SPLINE
  5
BB
330
1F
100
AcDbEntity
  8
0
  6
Continuous
 62
     7
370
    25
100
AcDbSpline
210
0.0
220
0.0
230
1.0
 70
     8
 71
     3
 72
    23
 73
    19
 74
     0
 42
0.00000001
 43
0.00000001
 40
0.1806632310543722
 40
0.1806632310543722
 40
0.1806632310543722
 40
0.1806632310543722
 40
0.1870866319270469
 40
0.2026771845876341
 40
0.2182677372482213
 40
0.2338582899088086
 40
0.2494488425693957
 40
0.2650393952299831
 40
0.2806299478905703
 40
0.2962205005511576
 40
0.3118110532117448
 40
0.327401605872332
 40
0.3429921585329193
 40
0.3507874348632127
 40
0.3585827111935065
 40
0.3663779875238
 40
0.3741732638540937
 40
0.3786300282683898
 40
0.3786300282683898
 40
0.3786300282683898
 40
0.3786300282683898
 10
72.08712891618424
 20
-1.622546573762519
 30
0.0
 10
71.58565702733483
 20
-1.640960123478938
 30
0.0
 10
69.86703779279841
 20
-1.704059795902319
 30
0.0
 10
66.93126953965411
 20
-1.811805735371522
 30
0.0
 10
63.2798246772732
 20
-1.945789055886693
 30
0.0
 10
59.62838314100746
 20
-2.079865976872766
 30
0.0
 10
55.97695308608728
 20
-2.214253677260036
 30
0.0
 10
52.32553027587235
 20
-2.348838596796509
 30
0.0
 10
48.67409492730666
 20
-2.48308328284724
 30
0.0
 10
45.022623273531
 20
-2.616337607518693
 30
0.0
 10
41.37111354396308
 20
-2.748543384104833
 30
0.0
 10
37.71964604796094
 20
-2.881914178377278
 30
0.0
 10
34.67685276963517
 20
-2.995672032723855
 30
0.0
 10
32.24270362492447
 20
-3.088928656566214
 30
0.0
 10
30.4170537095853
 20
-3.157874782130163
 30
0.0
 10
28.59130757462041
 20
-3.224236759125266
 30
0.0
 10
27.0260669367507
 20
-3.277342476834809
 30
0.0
 10
26.0693788142252
 20
-3.307273494571722
 30
0.0
 10
25.72136519751456
 20
-3.317772473019319
 30
0.0
  0
LINE
  5
BC
330
1F
100
AcDbEntity
  8
0
  6
Continuous
 62
     7
370
    25
100
AcDbLine
 10
25.7213651975
 20
-10.0000000001
 30
0.0
 11
25.7213651975
 21
-3.317772473
 31
0.0
  0
LINE
  5
BD
330
1F
100
AcDbEntity
  8
0
  6
Continuous
 62
     7
370
    25
100
AcDbLine
 10
21.7213652001
 20
-10.0000000001
 30
0.0
 11
25.7213651975
 21
-10.0000000001
 31
0.0
  0
LINE
  5
BE
330
1F
100
AcDbEntity
  8
0
  6
Continuous
 62
     7
370
    25
100
AcDbLine
 10
21.7213652001
 20
-3.5178246846
 30
0.0
 11
21.7213652001
 21
-10.0000000001
 31
0.0
  0
LINE
  5
BF
330
1F
100
AcDbEntity
  8
0
  6
Continuous
 62
     7
370
    25
100
AcDbLine
 10
21.9225408009
 20
-3.5128193893
 30
0.0
 11
21.7213652001
 21
-3.5178246846
 31
0.0
  0
LINE
  5
C0
330
1F
100
AcDbEntity
  8
0
  6
Continuous
 62
     7
370
    25
100
AcDbLine
 10
21.9225408009
 20
-3.4142558311
 30
0.0
 11
21.9225408009
 21
-3.5128193893
 31
0.0
  0
SPLINE
  5
C1
330
1F
100
AcDbEntity
  8
0
  6
Continuous
 62
     7
370
    25
100
AcDbSpline
210
0.0
220
0.0
230
1.0
 70
     8
 71
     3
 72
    26
 73
    22
 74
     0
 42
0.00000001
 43
0.00000001
 40
0.3948442374466959
 40
0.3948442374466959
 40
0.3948442374466959
 40
0.3948442374466959
 40
0.3975590928449745
 40
0.4053543691752682
 40
0.4131496455055617
 40
0.4209449218358554
 40
0.4287401981661489
 40
0.4365354744964426
 40
0.4443307508267361
 40
0.4521260271570299
 40
0.4599213034873234
 40
0.4638189416524703
 40
0.4677165798176171
 40
0.4716142179827639
 40
0.4755118561479106
 40
0.4794094943130575
 40
0.4833071324782043
 40
0.4852559515607776
 40
0.4872047706433512
 40
0.4891535897259246
 40
0.4901229637002155
 40
0.4901229637002155
 40
0.4901229637002155
 40
0.4901229637002155
 10
21.92254080104127
 20
-3.414261878506752
 30
0.0
 10
21.71049248555797
 20
-3.418478814829415
 30
0.0
 10
20.88956366902336
 20
-3.433932048330437
 30
0.0
 10
19.45964291083212
 20
-3.454549498035798
 30
0.0
 10
17.63271635543052
 20
-3.466193515785781
 30
0.0
 10
15.80574243117895
 20
-3.461350305964711
 30
0.0
 10
13.97894128556851
 20
-3.436172981939852
 30
0.0
 10
12.15251598662526
 20
-3.390816979851185
 30
0.0
 10
10.32698298502022
 20
-3.316928426618746
 30
0.0
 10
8.502418295216218
 20
-3.225009158134751
 30
0.0
 10
6.983004288650841
 20
-3.124332127504656
 30
0.0
 10
5.772134182227188
 20
-2.991095775737271
 30
0.0
 10
4.867712567459364
 20
-2.861476354840538
 30
0.0
 10
3.969721568133258
 20
-2.693567244959054
 30
0.0
 10
3.073299380197674
 20
-2.517653936882201
 30
0.0
 10
2.18268391666198
 20
-2.312783756027203
 30
0.0
 10
1.47329929331152
 20
-2.022811161060689
 30
0.0
 10
0.9653009461774891
 20
-1.684278744193307
 30
0.0
 10
0.616853662639164
 20
-1.387734131283472
 30
0.0
 10
0.3645547804702189
 20
-1.101673704489763
 30
0.0
 10
0.2380359467481034
 20
-0.9114925129628317
 30
0.0
 10
0.1999136553191349
 20
-0.8461081357156147
 30
0.0
  0
ENDSEC
  0
SECTION
  2
OBJECTS
  0
DICTIONARY
  5
C
330
0
100
AcDbDictionary
281
     1
  3
ACAD_GROUP
350
D
  3
ACAD_LAYOUT
350
1A
  3
ACAD_MLINESTYLE
350
17
  3
ACAD_PLOTSETTINGS
350
19
  3
ACAD_PLOTSTYLENAME
350
E
  3
ACAD_SCALELIST
350
47
  3
DWGPROPS
350
C2
  0
DICTIONARY
  5
D
102
{ACAD_REACTORS
330
C
102
}
330
C
100
AcDbDictionary
281
     1
  0
DICTIONARY
  5
1A
102
{ACAD_REACTORS
330
C
102
}
330
C
100
AcDbDictionary
281
     1
  3
Layout1
350
1E
  3
Layout2
350
26
  3
Model
350
22
  0
DICTIONARY
  5
17
102
{ACAD_REACTORS
330
C
102
}
330
C
100
AcDbDictionary
281
     1
  3
Standard
350
18
  0
DICTIONARY
  5
19
102
{ACAD_REACTORS
330
C
102
}
330
C
100
AcDbDictionary
281
     1
  0
ACDBDICTIONARYWDFLT
  5
E
102
{ACAD_REACTORS
330
C
102
}
330
C
100
AcDbDictionary
281
     1
  3
Normal
350
F
100
AcDbDictionaryWithDefault
340
F
  0
DICTIONARY
  5
47
102
{ACAD_REACTORS
330
C
102
}
330
C
100
AcDbDictionary
281
     1
  3
A0
350
48
  3
A1
350
49
  3
A2
350
4A
  3
A3
350
4B
  3
A4
350
4C
  3
A5
350
4D
  3
A6
350
4E
  3
A7
350
4F
  3
A8
350
50
  3
A9
350
51
  3
B0
350
52
  3
B1
350
53
  3
B2
350
54
  3
B3
350
55
  3
B4
350
56
  3
B5
350
57
  3
B6
350
58
  0
XRECORD
  5
C2
102
{ACAD_REACTORS
330
C
102
}
330
C
100
AcDbXrecord
280
     1
  1
DWGPROPS COOKIE
  2

  3

  4

  6

  7

  8
CX_in_command
  9

300
=
301
=
302
=
303
=
304
=
305
=
306
=
307
=
308
=
309
=
 40
0.0
 41
2461083.074673426
 42
2461083.074794665
  1

 90
        0
  0
LAYOUT
  5
1E
102
{ACAD_REACTORS
330
1A
102
}
330
1A
100
AcDbPlotSettings
  1

  2
none_device
  4

  6

 40
0.0
 41
0.0
 42
0.0
 43
0.0
 44
0.0
 45
0.0
 46
0.0
 47
0.0
 48
0.0
 49
0.0
140
0.0
141
0.0
142
1.0
143
1.0
 70
   688
 72
     1
 73
     0
 74
     5
  7

 75
    16
147
1.0
148
0.0
149
0.0
100
AcDbLayout
  1
Layout1
 70
     1
 71
     1
 10
0.0
 20
0.0
 11
420.0
 21
297.0
 12
0.0
 22
0.0
 32
0.0
 14
1.0000000000E+20
 24
1.0000000000E+20
 34
1.0000000000E+20
 15
-1.0000000000E+20
 25
-1.0000000000E+20
 35
-1.0000000000E+20
146
0.0
 13
0.0
 23
0.0
 33
0.0
 16
1.0
 26
0.0
 36
0.0
 17
0.0
 27
1.0
 37
0.0
 76
     0
330
1B
  0
LAYOUT
  5
26
102
{ACAD_REACTORS
330
1A
102
}
330
1A
100
AcDbPlotSettings
  1

  2
none_device
  4

  6

 40
0.0
 41
0.0
 42
0.0
 43
0.0
 44
0.0
 45
0.0
 46
0.0
 47
0.0
 48
0.0
 49
0.0
140
0.0
141
0.0
142
1.0
143
1.0
 70
   688
 72
     1
 73
     0
 74
     5
  7

 75
    16
147
1.0
148
0.0
149
0.0
100
AcDbLayout
  1
Layout2
 70
     1
 71
     2
 10
0.0
 20
0.0
 11
0.0
 21
0.0
 12
0.0
 22
0.0
 32
0.0
 14
0.0
 24
0.0
 34
0.0
 15
0.0
 25
0.0
 35
0.0
146
0.0
 13
0.0
 23
0.0
 33
0.0
 16
1.0
 26
0.0
 36
0.0
 17
0.0
 27
1.0
 37
0.0
 76
     0
330
23
  0
LAYOUT
  5
22
102
{ACAD_REACTORS
330
1A
102
}
330
1A
100
AcDbPlotSettings
  1

  2
none_device
  4
ANSI_A_(11.00_x_8.50_Inches)
  6

 40
6.35
 41
19.05
 42
6.35000508
 43
19.05000254
 44
279.4
 45
215.9
 46
-5.6468128433
 47
88.1071972388
 48
0.0
 49
0.0
140
0.0
141
0.0
142
0.1366358202
143
1.0
 70
  1696
 72
     0
 73
     0
 74
     0
  7

 75
     0
147
0.0179189148
148
-1300.4909072572
149
0.0
100
AcDbLayout
  1
Model
 70
     1
 71
     0
 10
0.0
 20
0.0
 11
420.0
 21
297.0
 12
0.0
 22
0.0
 32
0.0
 14
0.1999136553
 24
-10.0000000004
 34
0.0
 15
79.900829426
 25
10.4568737115
 35
0.0
146
0.0
 13
0.0
 23
0.0
 33
0.0
 16
1.0
 26
0.0
 36
0.0
 17
0.0
 27
1.0
 37
0.0
 76
     0
330
1F
331
29
  0
MLINESTYLE
  5
18
102
{ACAD_REACTORS
330
17
102
}
330
17
100
AcDbMlineStyle
  2
Standard
 70
     0
  3

 62
   256
 51
90.0
 52
90.0
 71
     2
 49
0.5
 62
   256
  6
BYLAYER
 49
-0.5
 62
   256
  6
BYLAYER
  0
ACDBPLACEHOLDER
  5
F
102
{ACAD_REACTORS
330
E
102
}
330
E
  0
SCALE
  5
48
102
{ACAD_REACTORS
330
47
102
}
330
47
100
AcDbScale
 70
     0
300
1:1
140
1.0
141
1.0
290
     1
  0
SCALE
  5
49
102
{ACAD_REACTORS
330
47
102
}
330
47
100
AcDbScale
 70
     0
300
1:2
140
1.0
141
2.0
290
     0
  0
SCALE
  5
4A
102
{ACAD_REACTORS
330
47
102
}
330
47
100
AcDbScale
 70
     0
300
1:4
140
1.0
141
4.0
290
     0
  0
SCALE
  5
4B
102
{ACAD_REACTORS
330
47
102
}
330
47
100
AcDbScale
 70
     0
300
1:5
140
1.0
141
5.0
290
     0
  0
SCALE
  5
4C
102
{ACAD_REACTORS
330
47
102
}
330
47
100
AcDbScale
 70
     0
300
1:8
140
1.0
141
8.0
290
     0
  0
SCALE
  5
4D
102
{ACAD_REACTORS
330
47
102
}
330
47
100
AcDbScale
 70
     0
300
1:10
140
1.0
141
10.0
290
     0
  0
SCALE
  5
4E
102
{ACAD_REACTORS
330
47
102
}
330
47
100
AcDbScale
 70
     0
300
1:16
140
1.0
141
16.0
290
     0
  0
SCALE
  5
4F
102
{ACAD_REACTORS
330
47
102
}
330
47
100
AcDbScale
 70
     0
300
1:20
140
1.0
141
20.0
290
     0
  0
SCALE
  5
50
102
{ACAD_REACTORS
330
47
102
}
330
47
100
AcDbScale
 70
     0
300
1:30
140
1.0
141
30.0
290
     0
  0
SCALE
  5
51
102
{ACAD_REACTORS
330
47
102
}
330
47
100
AcDbScale
 70
     0
300
1:40
140
1.0
141
40.0
290
     0
  0
SCALE
  5
52
102
{ACAD_REACTORS
330
47
102
}
330
47
100
AcDbScale
 70
     0
300
1:50
140
1.0
141
50.0
290
     0
  0
SCALE
  5
53
102
{ACAD_REACTORS
330
47
102
}
330
47
100
AcDbScale
 70
     0
300
1:100
140
1.0
141
100.0
290
     0
  0
SCALE
  5
54
102
{ACAD_REACTORS
330
47
102
}
330
47
100
AcDbScale
 70
     0
300
2:1
140
2.0
141
1.0
290
     0
  0
SCALE
  5
55
102
{ACAD_REACTORS
330
47
102
}
330
47
100
AcDbScale
 70
     0
300
4:1
140
4.0
141
1.0
290
     0
  0
SCALE
  5
56
102
{ACAD_REACTORS
330
47
102
}
330
47
100
AcDbScale
 70
     0
300
8:1
140
8.0
141
1.0
290
     0
  0
SCALE
  5
57
102
{ACAD_REACTORS
330
47
102
}
330
47
100
AcDbScale
 70
     0
300
10:1
140
10.0
141
1.0
290
     0
  0
SCALE
  5
58
102
{ACAD_REACTORS
330
47
102
}
330
47
100
AcDbScale
 70
     0
300
100:1
140
100.0
141
1.0
290
     0
  0
ENDSEC
  0
EOF
