  0
SECTION
  2
HEADER
  9
$ACADVER
  1
AC1015
  9
$ACADMAINTVER
 70
     6
  9
$DWGCODEPAGE
  3
ANSI_936
  9
$INSBASE
 10
0.0
 20
0.0
 30
0.0
  9
$EXTMIN
 10
21.9011621413
 20
-10.0
 30
0.0
  9
$EXTMAX
 10
79.9008295889
 20
8.4783117919
 30
0.0
  9
$LIMMIN
 10
0.0
 20
0.0
  9
$LIMMAX
 10
420.0
 20
297.0
  9
$ORTHOMODE
 70
     0
  9
$REGENMODE
 70
     1
  9
$FILLMODE
 70
     1
  9
$QTEXTMODE
 70
     0
  9
$MIRRTEXT
 70
     1
  9
$LTSCALE
 40
1.0
  9
$ATTMODE
 70
     1
  9
$TEXTSIZE
 40
3.5
  9
$TRACEWID
 40
1.0
  9
$TEXTSTYLE
  7
Standard
  9
$CLAYER
  8
0
  9
$CELTYPE
  6
ByLayer
  9
$CECOLOR
 62
   256
  9
$CELTSCALE
 40
1.0
  9
$DISPSILH
 70
     0
  9
$DIMSCALE
 40
1.0
  9
$DIMASZ
 40
3.556
  9
$DIMEXO
 40
0.0
  9
$DIMDLI
 40
3.75
  9
$DIMRND
 40
0.0
  9
$DIMDLE
 40
0.0
  9
$DIMEXE
 40
1.0
  9
$DIMTP
 40
0.0
  9
$DIMTM
 40
0.0
  9
$DIMTXT
 40
3.5
  9
$DIMCEN
 40
2.5
  9
$DIMTSZ
 40
0.0
  9
$DIMTOL
 70
     0
  9
$DIMLIM
 70
     0
  9
$DIMTIH
 70
     1
  9
$DIMTOH
 70
     1
  9
$DIMSE1
 70
     0
  9
$DIMSE2
 70
     0
  9
$DIMTAD
 70
     1
  9
$DIMZIN
 70
     1
  9
$DIMBLK
  1

  9
$DIMASO
 70
     1
  9
$DIMSHO
 70
     1
  9
$DIMPOST
  1

  9
$DIMAPOST
  1

  9
$DIMALT
 70
     0
  9
$DIMALTD
 70
     3
  9
$DIMALTF
 40
0.0393700787
  9
$DIMLFAC
 40
1.0
  9
$DIMTOFL
 70
     1
  9
$DIMTVP
 40
0.0
  9
$DIMTIX
 70
     0
  9
$DIMSOXD
 70
     0
  9
$DIMSAH
 70
     0
  9
$DIMBLK1
  1

  9
$DIMBLK2
  1

  9
$DIMSTYLE
  2
ISO-25
  9
$DIMCLRD
 70
     0
  9
$DIMCLRE
 70
     0
  9
$DIMCLRT
 70
     0
  9
$DIMTFAC
 40
1.0
  9
$DIMGAP
 40
1.524
  9
$DIMJUST
 70
     0
  9
$DIMSD1
 70
     0
  9
$DIMSD2
 70
     0
  9
$DIMTOLJ
 70
     0
  9
$DIMTZIN
 70
     1
  9
$DIMALTZ
 70
     0
  9
$DIMALTTZ
 70
     0
  9
$DIMUPT
 70
     0
  9
$DIMDEC
 70
     2
  9
$DIMTDEC
 70
     2
  9
$DIMALTU
 70
     2
  9
$DIMALTTD
 70
     3
  9
$DIMTXSTY
  7
Standard
  9
$DIMAUNIT
 70
     0
  9
$DIMADEC
 70
     2
  9
$DIMALTRND
 40
0.0
  9
$DIMAZIN
 70
     0
  9
$DIMDSEP
 70
    44
  9
$DIMATFIT
 70
     3
  9
$DIMFRAC
 70
     0
  9
$DIMLDRBLK
  1

  9
$DIMLUNIT
 70
     2
  9
$DIMLWD
 70
    -2
  9
$DIMLWE
 70
    -2
  9
$DIMTMOVE
 70
     0
  9
$LUNITS
 70
     2
  9
$LUPREC
 70
     2
  9
$SKETCHINC
 40
1.0
  9
$FILLETRAD
 40
0.0
  9
$AUNITS
 70
     0
  9
$AUPREC
 70
     2
  9
$MENU
  1
.
  9
$ELEVATION
 40
0.0
  9
$PELEVATION
 40
0.0
  9
$THICKNESS
 40
0.0
  9
$LIMCHECK
 70
     0
  9
$CHAMFERA
 40
0.0
  9
$CHAMFERB
 40
0.0
  9
$CHAMFERC
 40
0.0
  9
$CHAMFERD
 40
0.0
  9
$SKPOLY
 70
     0
  9
$TDCREATE
 40
2461083.410004502
  9
$TDUCREATE
 40
2461083.076671169
  9
$TDUPDATE
 40
2461083.410042431
  9
$TDUUPDATE
 40
2461083.076709098
  9
$TDINDWG
 40
0.0000000116
  9
$TDUSRTIMER
 40
0.0000000116
  9
$USRTIMER
 70
     1
  9
$ANGBASE
 50
0.0
  9
$ANGDIR
 70
     0
  9
$PDMODE
 70
     0
  9
$PDSIZE
 40
-1.0
  9
$PLINEWID
 40
0.0
  9
$SPLFRAME
 70
     0
  9
$SPLINETYPE
 70
     6
  9
$SPLINESEGS
 70
     8
  9
$HANDSEED
  5
B9
  9
$SURFTAB1
 70
     6
  9
$SURFTAB2
 70
     6
  9
$SURFTYPE
 70
     6
  9
$SURFU
 70
     6
  9
$SURFV
 70
     6
  9
$UCSBASE
  2

  9
$UCSNAME
  2

  9
$UCSORG
 10
0.0
 20
0.0
 30
0.0
  9
$UCSXDIR
 10
1.0
 20
0.0
 30
0.0
  9
$UCSYDIR
 10
0.0
 20
1.0
 30
0.0
  9
$UCSORTHOREF
  2

  9
$UCSORTHOVIEW
 70
     0
  9
$UCSORGTOP
 10
0.0
 20
0.0
 30
0.0
  9
$UCSORGBOTTOM
 10
0.0
 20
0.0
 30
0.0
  9
$UCSORGLEFT
 10
0.0
 20
0.0
 30
0.0
  9
$UCSORGRIGHT
 10
0.0
 20
0.0
 30
0.0
  9
$UCSORGFRONT
 10
0.0
 20
0.0
 30
0.0
  9
$UCSORGBACK
 10
0.0
 20
0.0
 30
0.0
  9
$PUCSBASE
  2

  9
$PUCSNAME
  2

  9
$PUCSORG
 10
0.0
 20
0.0
 30
0.0
  9
$PUCSXDIR
 10
1.0
 20
0.0
 30
0.0
  9
$PUCSYDIR
 10
0.0
 20
1.0
 30
0.0
  9
$PUCSORTHOREF
  2

  9
$PUCSORTHOVIEW
 70
     0
  9
$PUCSORGTOP
 10
0.0
 20
0.0
 30
0.0
  9
$PUCSORGBOTTOM
 10
0.0
 20
0.0
 30
0.0
  9
$PUCSORGLEFT
 10
0.0
 20
0.0
 30
0.0
  9
$PUCSORGRIGHT
 10
0.0
 20
0.0
 30
0.0
  9
$PUCSORGFRONT
 10
0.0
 20
0.0
 30
0.0
  9
$PUCSORGBACK
 10
0.0
 20
0.0
 30
0.0
  9
$USERI1
 70
     0
  9
$USERI2
 70
     0
  9
$USERI3
 70
     0
  9
$USERI4
 70
     0
  9
$USERI5
 70
     0
  9
$USERR1
 40
0.0
  9
$USERR2
 40
0.0
  9
$USERR3
 40
0.0
  9
$USERR4
 40
0.0
  9
$USERR5
 40
0.0
  9
$WORLDVIEW
 70
     1
  9
$SHADEDGE
 70
     3
  9
$SHADEDIF
 70
    70
  9
$TILEMODE
 70
     1
  9
$MAXACTVP
 70
    64
  9
$PINSBASE
 10
0.0
 20
0.0
 30
0.0
  9
$PLIMCHECK
 70
     0
  9
$PEXTMIN
 10
1.0000000000E+20
 20
1.0000000000E+20
 30
1.0000000000E+20
  9
$PEXTMAX
 10
-1.0000000000E+20
 20
-1.0000000000E+20
 30
-1.0000000000E+20
  9
$PLIMMIN
 10
0.0
 20
0.0
  9
$PLIMMAX
 10
420.0
 20
297.0
  9
$UNITMODE
 70
     0
  9
$VISRETAIN
 70
     1
  9
$PLINEGEN
 70
     0
  9
$PSLTSCALE
 70
     1
  9
$TREEDEPTH
 70
  3020
  9
$CMLSTYLE
  2
Standard
  9
$CMLJUST
 70
     0
  9
$CMLSCALE
 40
20.0
  9
$PROXYGRAPHICS
 70
     1
  9
$MEASUREMENT
 70
     1
  9
$CELWEIGHT
370
    -1
  9
$ENDCAPS
280
     0
  9
$JOINSTYLE
280
     0
  9
$LWDISPLAY
290
     1
  9
$INSUNITS
 70
     4
  9
$HYPERLINKBASE
  1

  9
$STYLESHEET
  1

  9
$XEDIT
290
     1
  9
$CEPSNTYPE
380
     0
  9
$PSTYLEMODE
290
     1
  9
$FINGERPRINTGUID
  2
{b79d6165-8233-4143-811b-4d050080553a}
  9
$VERSIONGUID
  2
{FAEB1C32-E019-11D5-929B-00C0DF256EC4}
  9
$EXTNAMES
290
     1
  9
$PSVPSCALE
 40
0.0
  9
$OLESTARTUP
290
     0
  0
ENDSEC
  0
SECTION
  2
CLASSES
  0
CLASS
  1
ACDBDICTIONARYWDFLT
  2
AcDbDictionaryWithDefault
  3
ObjectDBX Classes
 90
        0
280
     0
281
     0
  0
CLASS
  1
VISUALSTYLE
  2
AcDbVisualStyle
  3
ObjectDBX Classes
 90
     4095
280
     0
281
     0
  0
CLASS
  1
MATERIAL
  2
AcDbMaterial
  3
ObjectDBX Classes
 90
     1153
280
     0
281
     0
  0
CLASS
  1
SCALE
  2
AcDbScale
  3
ObjectDBX Classes
 90
     1153
280
     0
281
     0
  0
CLASS
  1
TABLESTYLE
  2
AcDbTableStyle
  3
ObjectDBX Classes
 90
     4095
280
     0
281
     0
  0
CLASS
  1
MLEADERSTYLE
  2
AcDbMLeaderStyle
  3
ACDB_MLEADERSTYLE_CLASS
 90
     4095
280
     0
281
     0
  0
CLASS
  1
SUN
  2
AcDbSun
  3
SCENEOE
 90
     1153
280
     0
281
     0
  0
CLASS
  1
ACDBPLACEHOLDER
  2
AcDbPlaceHolder
  3
ObjectDBX Classes
 90
        0
280
     0
281
     0
  0
CLASS
  1
LAYOUT
  2
AcDbLayout
  3
ObjectDBX Classes
 90
        0
280
     0
281
     0
  0
ENDSEC
  0
SECTION
  2
TABLES
  0
TABLE
  2
VPORT
  5
8
330
0
100
AcDbSymbolTable
 70
     1
  0
VPORT
  5
29
330
8
100
AcDbSymbolTableRecord
100
AcDbViewportTableRecord
  2
*Active
 70
     0
 10
0.0
 20
0.0
 11
1.0
 21
1.0
 12
50.9009958651
 22
-0.760844104
 13
0.0
 23
0.0
 14
10.0
 24
10.0
 15
10.0
 25
10.0
 16
0.0
 26
0.0
 36
1.0
 17
0.0
 27
0.0
 37
0.0
 40
18.8478780278
 41
3.1387968826
 42
50.0
 43
0.0
 44
0.0
 50
0.0
 51
0.0
 71
     0
 72
   100
 73
     1
 74
     3
 75
     0
 76
     0
 77
     0
 78
     0
281
     0
 65
     1
110
0.0
120
0.0
130
0.0
111
1.0
121
0.0
131
0.0
112
0.0
122
1.0
132
0.0
 79
     0
146
0.0
  0
ENDTAB
  0
TABLE
  2
LTYPE
  5
5
330
0
100
AcDbSymbolTable
 70
     6
  0
LTYPE
  5
14
330
5
100
AcDbSymbolTableRecord
100
AcDbLinetypeTableRecord
  2
ByBlock
 70
     0
  3

 72
    65
 73
     0
 40
0.0
  0
LTYPE
  5
15
330
5
100
AcDbSymbolTableRecord
100
AcDbLinetypeTableRecord
  2
ByLayer
 70
     0
  3

 72
    65
 73
     0
 40
0.0
  0
LTYPE
  5
16
330
5
100
AcDbSymbolTableRecord
100
AcDbLinetypeTableRecord
  2
Continuous
 70
     0
  3
Solid line
 72
    65
 73
     0
 40
0.0
  0
LTYPE
  5
5E
330
5
100
AcDbSymbolTableRecord
100
AcDbLinetypeTableRecord
  2
HIDDEN
 70
     0
  3
Hidden __ __ __ __ __ __ __ __ __ __ __ __ __ __
 72
    65
 73
     2
 40
1.905
 49
1.27
 74
     0
 49
-0.635
 74
     0
  0
LTYPE
  5
5F
330
5
100
AcDbSymbolTableRecord
100
AcDbLinetypeTableRecord
  2
PHANTOM
 70
     0
  3
Phantom ______  __  __  ______  __  __  ______
 72
    65
 73
     6
 40
12.7
 49
6.35
 74
     0
 49
-1.27
 74
     0
 49
1.27
 74
     0
 49
-1.27
 74
     0
 49
1.27
 74
     0
 49
-1.27
 74
     0
  0
LTYPE
  5
60
330
5
100
AcDbSymbolTableRecord
100
AcDbLinetypeTableRecord
  2
CENTER
 70
     0
  3
Center ____ _ ____ _ ____ _ ____ _ ____ _ ____
 72
    65
 73
     4
 40
10.16
 49
6.35
 74
     0
 49
-1.27
 74
     0
 49
1.27
 74
     0
 49
-1.27
 74
     0
  0
LTYPE
  5
61
330
5
100
AcDbSymbolTableRecord
100
AcDbLinetypeTableRecord
  2
CENTERX2
 70
     0
  3
Center (2x) ________  __  ________  __  _____
 72
    65
 73
     4
 40
20.32
 49
12.7
 74
     0
 49
-2.54
 74
     0
 49
2.54
 74
     0
 49
-2.54
 74
     0
  0
LTYPE
  5
62
330
5
100
AcDbSymbolTableRecord
100
AcDbLinetypeTableRecord
  2
DOT2
 70
     0
  3
Dot (.5x) ........................................
 72
    65
 73
     2
 40
0.635
 49
0.0
 74
     0
 49
-0.635
 74
     0
  0
ENDTAB
  0
TABLE
  2
LAYER
  5
2
330
0
100
AcDbSymbolTable
 70
     1
  0
LAYER
  5
10
330
2
100
AcDbSymbolTableRecord
100
AcDbLayerTableRecord
  2
0
 70
     0
 62
     7
  6
Continuous
370
    -3
390
F
  0
ENDTAB
  0
TABLE
  2
STYLE
  5
3
330
0
100
AcDbSymbolTable
 70
     1
  0
STYLE
  5
11
330
3
100
AcDbSymbolTableRecord
100
AcDbTextStyleTableRecord
  2
Standard
 70
     0
 40
0.0
 41
1.0
 50
0.0
 71
     0
 42
3.5
  3
txt
  4

  0
ENDTAB
  0
TABLE
  2
VIEW
  5
6
330
0
100
AcDbSymbolTable
 70
     0
  0
ENDTAB
  0
TABLE
  2
UCS
  5
7
330
0
100
AcDbSymbolTable
 70
     0
  0
ENDTAB
  0
TABLE
  2
APPID
  5
9
330
0
100
AcDbSymbolTable
 70
     1
  0
APPID
  5
12
330
9
100
AcDbSymbolTableRecord
100
AcDbRegAppTableRecord
  2
ACAD
 70
     0
  0
ENDTAB
  0
TABLE
  2
DIMSTYLE
  5
A
330
0
100
AcDbSymbolTable
 70
     1
100
AcDbDimStyleTable
  0
DIMSTYLE
105
27
330
A
100
AcDbSymbolTableRecord
100
AcDbDimStyleTableRecord
  2
ISO-25
 70
     0
 41
2.5
 42
0.625
 43
3.75
 44
1.25
 73
     0
 74
     0
 77
     1
 78
     8
140
2.5
141
2.5
143
0.0393700787
147
0.625
171
     3
172
     1
178
     0
271
     2
272
     2
274
     3
278
    44
283
     0
284
     8
340
11
  0
ENDTAB
  0
TABLE
  2
BLOCK_RECORD
  5
1
330
0
100
AcDbSymbolTable
 70
     1
  0
BLOCK_RECORD
  5
1F
330
1
100
AcDbSymbolTableRecord
100
AcDbBlockTableRecord
  2
*Model_Space
340
22
  0
BLOCK_RECORD
  5
1B
330
1
100
AcDbSymbolTableRecord
100
AcDbBlockTableRecord
  2
*Paper_Space
340
1E
  0
BLOCK_RECORD
  5
23
330
1
100
AcDbSymbolTableRecord
100
AcDbBlockTableRecord
  2
*Paper_Space0
340
26
  0
ENDTAB
  0
ENDSEC
  0
SECTION
  2
BLOCKS
  0
BLOCK
  5
20
330
1F
100
AcDbEntity
  8
0
100
AcDbBlockBegin
  2
*Model_Space
 70
     0
 10
0.0
 20
0.0
 30
0.0
  3
*Model_Space
  1

  0
ENDBLK
  5
21
330
1F
100
AcDbEntity
  8
0
100
AcDbBlockEnd
  0
BLOCK
  5
1C
330
1B
100
AcDbEntity
 67
     1
  8
0
100
AcDbBlockBegin
  2
*Paper_Space
 70
     0
 10
0.0
 20
0.0
 30
0.0
  3
*Paper_Space
  1

  0
ENDBLK
  5
1D
330
1B
100
AcDbEntity
 67
     1
  8
0
100
AcDbBlockEnd
  0
BLOCK
  5
24
330
23
100
AcDbEntity
  8
0
100
AcDbBlockBegin
  2
*Paper_Space0
 70
     0
 10
0.0
 20
0.0
 30
0.0
  3
*Paper_Space0
  1

  0
ENDBLK
  5
25
330
23
100
AcDbEntity
  8
0
100
AcDbBlockEnd
  0
ENDSEC
  0
SECTION
  2
ENTITIES
  0
SPLINE
  5
63
330
1F
100
AcDbEntity
  8
0
  6
Continuous
 62
     7
370
    25
100
AcDbSpline
210
0.0
220
0.0
230
1.0
 70
     8
 71
     3
 72
     9
 73
     5
 74
     0
 42
0.00000001
 43
0.00000001
 40
0.0
 40
0.0
 40
0.0
 40
0.0
 40
0.5
 40
1.0
 40
1.0
 40
1.0
 40
1.0
 10
31.88160143871129
 20
-1.246869090020094
 30
0.0
 10
31.8615706951191
 20
-1.247966640856621
 30
0.0
 10
31.82146416886154
 20
-1.249614509010475
 30
0.0
 10
31.78131252191045
 20
-1.25016421021556
 30
0.0
 10
31.76123669702591
 20
-1.250164210215649
 30
0.0
  0
ARC
  5
64
330
1F
100
AcDbEntity
  8
0
  6
Continuous
 62
     7
370
    25
100
AcDbCircle
 10
32.0019661803
 20
0.9498357898
 30
0.0
 40
2.19999999999978
100
AcDbArc
 50
266.86371052
 51
93.1362894828
  0
SPLINE
  5
65
330
1F
100
AcDbEntity
  8
0
  6
Continuous
 62
     7
370
    25
100
AcDbSpline
210
0.0
220
0.0
230
1.0
 70
     8
 71
     3
 72
     9
 73
     5
 74
     0
 42
0.00000001
 43
0.00000001
 40
0.0
 40
0.0
 40
0.0
 40
0.0
 40
0.5
 40
1.0
 40
1.0
 40
1.0
 40
1.0
 10
31.76123669701612
 20
3.149835789784346
 30
0.0
 10
31.78131252188465
 20
3.149835789784346
 30
0.0
 10
31.8214641716106
 20
3.149286088349313
 30
0.0
 10
31.86157069502935
 20
3.147638220429271
 30
0.0
 10
31.88160143860561
 20
3.14654066959458
 30
0.0
  0
SPLINE
  5
66
330
1F
100
AcDbEntity
  8
0
  6
Continuous
 62
     7
370
    25
100
AcDbSpline
210
0.0
220
0.0
230
1.0
 70
     8
 71
     3
 72
    10
 73
     6
 74
     0
 42
0.00000001
 43
0.00000001
 40
0.0
 40
0.0
 40
0.0
 40
0.0
 40
0.5000000000000001
 40
0.5000000000000001
 40
1.0
 40
1.0
 40
1.0
 40
1.0
 10
31.76123669701612
 20
-1.250164210215649
 30
0.0
 10
30.29457003034946
 20
-1.250164210215648
 30
0.0
 10
29.56123669701614
 20
0.2165024564510163
 30
0.0
 10
29.56123669701613
 20
1.68316912311768
 30
0.0
 10
30.29457003034945
 20
3.14983578978434
 30
0.0
 10
31.76123669701611
 20
3.149835789784346
 30
0.0
  0
LINE
  5
67
330
1F
100
AcDbEntity
  8
0
  6
Continuous
 62
     7
370
    25
100
AcDbLine
 10
41.3695778703
 20
4.4599540858
 30
0.0
 11
44.2812677731
 21
1.4317965868
 31
0.0
  0
ARC
  5
68
330
1F
100
AcDbEntity
  8
0
  6
Continuous
 62
     7
370
    25
100
AcDbCircle
 10
40.6487448054
 20
3.7668453695
 30
0.0
 40
1.0
100
AcDbArc
 50
43.8766972859
 51
180.0
  0
LINE
  5
69
330
1F
100
AcDbEntity
  8
0
  6
Continuous
 62
     7
370
    25
100
AcDbLine
 10
39.6487448054
 20
0.7386878706
 30
0.0
 11
39.6487448054
 21
3.7668453695
 31
0.0
  0
ARC
  5
6A
330
1F
100
AcDbEntity
  8
0
  6
Continuous
 62
     7
370
    25
100
AcDbCircle
 10
40.6487448054
 20
0.7386878706
 30
0.0
 40
1.0
100
AcDbArc
 50
180.0
 51
270.0
  0
LINE
  5
6B
330
1F
100
AcDbEntity
  8
0
  6
Continuous
 62
     7
370
    25
100
AcDbLine
 10
43.5604347082
 20
-0.2613121294
 30
0.0
 11
40.6487448054
 21
-0.2613121294
 31
0.0
  0
ARC
  5
6C
330
1F
100
AcDbEntity
  8
0
  6
Continuous
 62
     7
370
    25
100
AcDbCircle
 10
43.5604347082
 20
0.7386878706
 30
0.0
 40
1.000000000000005
100
AcDbArc
 50
270.0
 51
43.8766972859
  0
LINE
  5
6D
330
1F
100
AcDbEntity
  8
0
  6
Continuous
 62
     7
370
    25
100
AcDbLine
 10
65.2018111557
 20
6.2496204733
 30
0.0
 11
68.2985301961
 21
6.2496204733
 31
0.0
  0
ARC
  5
6E
330
1F
100
AcDbEntity
  8
0
  6
Continuous
 62
     7
370
    25
100
AcDbCircle
 10
65.2018111557
 20
5.2496204733
 30
0.0
 40
1.0
100
AcDbArc
 50
90.0
 51
225.0
  0
LINE
  5
6F
330
1F
100
AcDbEntity
  8
0
  6
Continuous
 62
     7
370
    25
100
AcDbLine
 10
67.5914234149
 20
1.4457946518
 30
0.0
 11
64.4947043746
 21
4.5425136921
 31
0.0
  0
ARC
  5
70
330
1F
100
AcDbEntity
  8
0
  6
Continuous
 62
     7
370
    25
100
AcDbCircle
 10
68.2985301961
 20
2.1529014329
 30
0.0
 40
1.000000000000003
100
AcDbArc
 50
225.0
 51
0.0
  0
LINE
  5
71
330
1F
100
AcDbEntity
  8
0
  6
Continuous
 62
     7
370
    25
100
AcDbLine
 10
69.2985301961
 20
5.2496204733
 30
0.0
 11
69.2985301961
 21
2.1529014329
 31
0.0
  0
ARC
  5
72
330
1F
100
AcDbEntity
  8
0
  6
Continuous
 62
     7
370
    25
100
AcDbCircle
 10
68.2985301961
 20
5.2496204733
 30
0.0
 40
1.0
100
AcDbArc
 50
0.0
 51
90.0
  0
LINE
  5
73
330
1F
100
AcDbEntity
  8
0
  6
Continuous
 62
     7
370
    25
100
AcDbLine
 10
46.5423764148
 20
1.5283542581
 30
0.0
 11
43.630686512
 21
4.556511757
 31
0.0
  0
ARC
  5
74
330
1F
100
AcDbEntity
  8
0
  6
Continuous
 62
     7
370
    25
100
AcDbCircle
 10
47.2632094797
 20
2.2214629743
 30
0.0
 40
1.0
100
AcDbArc
 50
223.8766972859
 51
0.0
  0
LINE
  5
75
330
1F
100
AcDbEntity
  8
0
  6
Continuous
 62
     7
370
    25
100
AcDbLine
 10
48.2632094797
 20
5.2496204733
 30
0.0
 11
48.2632094797
 21
2.2214629743
 31
0.0
  0
ARC
  5
76
330
1F
100
AcDbEntity
  8
0
  6
Continuous
 62
     7
370
    25
100
AcDbCircle
 10
47.2632094797
 20
5.2496204733
 30
0.0
 40
1.0
100
AcDbArc
 50
0.0
 51
90.0
  0
LINE
  5
77
330
1F
100
AcDbEntity
  8
0
  6
Continuous
 62
     7
370
    25
100
AcDbLine
 10
44.3515195769
 20
6.2496204733
 30
0.0
 11
47.2632094797
 21
6.2496204733
 31
0.0
  0
ARC
  5
78
330
1F
100
AcDbEntity
  8
0
  6
Continuous
 62
     7
370
    25
100
AcDbCircle
 10
44.3515195769
 20
5.2496204733
 30
0.0
 40
1.0
100
AcDbArc
 50
90.0
 51
223.8766972859
  0
LINE
  5
79
330
1F
100
AcDbEntity
  8
0
  6
Continuous
 62
     7
370
    25
100
AcDbLine
 10
50.3667415513
 20
2.1529014329
 30
0.0
 11
50.3667415513
 21
5.2496204733
 31
0.0
  0
ARC
  5
7A
330
1F
100
AcDbEntity
  8
0
  6
Continuous
 62
     7
370
    25
100
AcDbCircle
 10
51.3667415513
 20
2.1529014329
 30
0.0
 40
1.0
100
AcDbArc
 50
180.0
 51
315.0
  0
LINE
  5
7B
330
1F
100
AcDbEntity
  8
0
  6
Continuous
 62
     7
370
    25
100
AcDbLine
 10
55.1705673728
 20
4.5425136921
 30
0.0
 11
52.0738483325
 21
1.4457946518
 31
0.0
  0
ARC
  5
7C
330
1F
100
AcDbEntity
  8
0
  6
Continuous
 62
     7
370
    25
100
AcDbCircle
 10
54.4634605916
 20
5.2496204733
 30
0.0
 40
0.9999999999999991
100
AcDbArc
 50
315.0
 51
90.0
  0
LINE
  5
7D
330
1F
100
AcDbEntity
  8
0
  6
Continuous
 62
     7
370
    25
100
AcDbLine
 10
51.3667415513
 20
6.2496204733
 30
0.0
 11
54.4634605916
 21
6.2496204733
 31
0.0
  0
ARC
  5
7E
330
1F
100
AcDbEntity
  8
0
  6
Continuous
 62
     7
370
    25
100
AcDbCircle
 10
51.3667415513
 20
5.2496204733
 30
0.0
 40
1.0
100
AcDbArc
 50
90.0
 51
180.0
  0
LINE
  5
7F
330
1F
100
AcDbEntity
  8
0
  6
Continuous
 62
     7
370
    25
100
AcDbLine
 10
57.7307857409
 20
-0.2613121294
 30
0.0
 11
54.6340667006
 21
-0.2613121294
 31
0.0
  0
ARC
  5
80
330
1F
100
AcDbEntity
  8
0
  6
Continuous
 62
     7
370
    25
100
AcDbCircle
 10
57.7307857409
 20
0.7386878706
 30
0.0
 40
1.0
100
AcDbArc
 50
270.0
 51
0.0
  0
LINE
  5
81
330
1F
100
AcDbEntity
  8
0
  6
Continuous
 62
     7
370
    25
100
AcDbLine
 10
58.7307857409
 20
3.8354069109
 30
0.0
 11
58.7307857409
 21
0.7386878706
 31
0.0
  0
ARC
  5
82
330
1F
100
AcDbEntity
  8
0
  6
Continuous
 62
     7
370
    25
100
AcDbCircle
 10
57.7307857409
 20
3.8354069109
 30
0.0
 40
1.0
100
AcDbArc
 50
360.0
 51
135.0
  0
LINE
  5
83
330
1F
100
AcDbEntity
  8
0
  6
Continuous
 62
     7
370
    25
100
AcDbLine
 10
53.9269599194
 20
1.4457946518
 30
0.0
 11
57.0236789597
 21
4.5425136921
 31
0.0
  0
ARC
  5
84
330
1F
100
AcDbEntity
  8
0
  6
Continuous
 62
     7
370
    25
100
AcDbCircle
 10
54.6340667006
 20
0.7386878706
 30
0.0
 40
1.000000000000002
100
AcDbArc
 50
135.0
 51
270.0
  0
LINE
  5
85
330
1F
100
AcDbEntity
  8
0
  6
Continuous
 62
     7
370
    25
100
AcDbLine
 10
64.8809527559
 20
-0.2613121294
 30
0.0
 11
61.7842337156
 21
-0.2613121294
 31
0.0
  0
ARC
  5
86
330
1F
100
AcDbEntity
  8
0
  6
Continuous
 62
     7
370
    25
100
AcDbCircle
 10
64.8809527559
 20
0.7386878706
 30
0.0
 40
1.000000000000005
100
AcDbArc
 50
270.0
 51
45.0
  0
LINE
  5
87
330
1F
100
AcDbEntity
  8
0
  6
Continuous
 62
     7
370
    25
100
AcDbLine
 10
62.4913404968
 20
4.5425136921
 30
0.0
 11
65.5880595371
 21
1.4457946518
 31
0.0
  0
ARC
  5
88
330
1F
100
AcDbEntity
  8
0
  6
Continuous
 62
     7
370
    25
100
AcDbCircle
 10
61.7842337156
 20
3.8354069109
 30
0.0
 40
1.0
100
AcDbArc
 50
45.0
 51
180.0
  0
LINE
  5
89
330
1F
100
AcDbEntity
  8
0
  6
Continuous
 62
     7
370
    25
100
AcDbLine
 10
60.7842337156
 20
0.7386878706
 30
0.0
 11
60.7842337156
 21
3.8354069109
 31
0.0
  0
ARC
  5
8A
330
1F
100
AcDbEntity
  8
0
  6
Continuous
 62
     7
370
    25
100
AcDbCircle
 10
61.7842337156
 20
0.7386878706
 30
0.0
 40
1.0
100
AcDbArc
 50
180.0
 51
270.0
  0
LINE
  5
8B
330
1F
100
AcDbEntity
  8
0
  6
Continuous
 62
     7
370
    25
100
AcDbLine
 10
40.6708689114
 20
-3.0219170591
 30
0.0
 11
40.6708689114
 21
-2.7528616038
 31
0.0
  0
SPLINE
  5
8C
330
1F
100
AcDbEntity
  8
0
  6
Continuous
 62
     7
370
    25
100
AcDbSpline
210
0.0
220
0.0
230
1.0
 70
     8
 71
     3
 72
     9
 73
     5
 74
     0
 42
0.00000001
 43
0.00000001
 40
0.3884471809978291
 40
0.3884471809978291
 40
0.3884471809978291
 40
0.3884471809978291
 40
0.3897638165146809
 40
0.3937052491231832
 40
0.3937052491231832
 40
0.3937052491231832
 40
0.3937052491231832
 10
40.67086890260908
 20
-2.752861603843551
 30
0.0
 10
40.58743060175073
 20
-2.75490440030511
 30
0.0
 10
40.2542108944125
 20
-2.762918095730967
 30
0.0
 10
39.9209771066736
 20
-2.770336330346031
 30
0.0
 10
39.67117828072531
 20
-2.775523024052301
 30
0.0
  0
LINE
  5
8D
330
1F
100
AcDbEntity
  8
0
  6
Continuous
 62
     7
370
    25
100
AcDbLine
 10
39.6711782807
 20
-2.7755230241
 30
0.0
 11
39.6711782807
 21
-3.046789592
 31
0.0
  0
LINE
  5
8E
330
1F
100
AcDbEntity
  8
0
  6
Continuous
 62
     7
370
    25
100
AcDbLine
 10
39.6711782807
 20
-3.046789592
 30
0.0
 11
40.6708689114
 21
-3.0219170591
 31
0.0
  0
LINE
  5
8F
330
1F
100
AcDbEntity
  8
0
  6
Continuous
 62
     7
370
    25
100
AcDbLine
 10
41.8704976683
 20
-2.9920700196
 30
0.0
 11
41.8704976683
 21
-2.7211228276
 31
0.0
  0
SPLINE
  5
90
330
1F
100
AcDbEntity
  8
0
  6
Continuous
 62
     7
370
    25
100
AcDbSpline
210
0.0
220
0.0
230
1.0
 70
     8
 71
     3
 72
     8
 73
     4
 74
     0
 42
0.00000001
 43
0.00000001
 40
0.3821369156809396
 40
0.3821369156809396
 40
0.3821369156809396
 40
0.3821369156809396
 40
0.3873955142161207
 40
0.3873955142161207
 40
0.3873955142161207
 40
0.3873955142161207
 10
41.87049765855156
 20
-2.721130537411332
 30
0.0
 10
41.53728138944879
 20
-2.730563727364854
 30
0.0
 10
41.20405122582348
 20
-2.739511526576985
 30
0.0
 10
40.87080703755755
 20
-2.747897961059014
 30
0.0
  0
LINE
  5
91
330
1F
100
AcDbEntity
  8
0
  6
Continuous
 62
     7
370
    25
100
AcDbLine
 10
40.8708070376
 20
-2.7478979613
 30
0.0
 11
40.8708070376
 21
-3.0169425525
 31
0.0
  0
LINE
  5
92
330
1F
100
AcDbEntity
  8
0
  6
Continuous
 62
     7
370
    25
100
AcDbLine
 10
40.8708070376
 20
-3.0169425525
 30
0.0
 11
41.8704976683
 21
-2.9920700196
 31
0.0
  0
LINE
  5
93
330
1F
100
AcDbEntity
  8
0
  6
Continuous
 62
     7
370
    25
100
AcDbLine
 10
43.0701264251
 20
-2.9622229801
 30
0.0
 11
43.0701264251
 21
-2.6851898743
 31
0.0
  0
SPLINE
  5
94
330
1F
100
AcDbEntity
  8
0
  6
Continuous
 62
     7
370
    25
100
AcDbSpline
210
0.0
220
0.0
230
1.0
 70
     8
 71
     3
 72
     8
 73
     4
 74
     0
 42
0.00000001
 43
0.00000001
 40
0.3758260261577433
 40
0.3758260261577433
 40
0.3758260261577433
 40
0.3758260261577433
 40
0.3810851420633595
 40
0.3810851420633595
 40
0.3810851420633595
 40
0.3810851420633595
 10
43.07012642512099
 20
-2.685189874331271
 30
0.0
 10
42.73690933190992
 20
-2.695690124776654
 30
0.0
 10
42.40367953031679
 20
-2.705787173090434
 30
0.0
 10
42.07043600601514
 20
-2.715412652181091
 30
0.0
  0
LINE
  5
95
330
1F
100
AcDbEntity
  8
0
  6
Continuous
 62
     7
370
    25
100
AcDbLine
 10
42.0704357944
 20
-2.7154053259
 30
0.0
 11
42.0704357944
 21
-2.987095513
 31
0.0
  0
LINE
  5
96
330
1F
100
AcDbEntity
  8
0
  6
Continuous
 62
     7
370
    25
100
AcDbLine
 10
42.0704357944
 20
-2.987095513
 30
0.0
 11
43.0701264251
 21
-2.9622229801
 31
0.0
  0
LINE
  5
97
330
1F
100
AcDbEntity
  8
0
  6
Continuous
 62
     7
370
    25
100
AcDbLine
 10
73.4208915072
 20
-1.6952524214
 30
0.0
 11
73.4208915072
 21
-1.573414694
 31
0.0
  0
SPLINE
  5
98
330
1F
100
AcDbEntity
  8
0
  6
Continuous
 62
     7
370
    25
100
AcDbSpline
210
0.0
220
0.0
230
1.0
 70
     8
 71
     3
 72
     9
 73
     5
 74
     0
 42
0.00000001
 43
0.00000001
 40
0.2161242610943796
 40
0.2161242610943796
 40
0.2161242610943796
 40
0.2161242610943796
 40
0.2182677372482213
 40
0.2213825960619379
 40
0.2213825960619379
 40
0.2213825960619379
 40
0.2213825960619379
 10
73.42089116852573
 20
-1.5734104787742
 30
0.0
 10
73.28510473626102
 20
-1.578394280057895
 30
0.0
 10
72.95199605636975
 20
-1.590620877336868
 30
0.0
 10
72.61888742153101
 20
-1.602848750333708
 30
0.0
 10
72.42156521969635
 20
-1.610092828483048
 30
0.0
  0
LINE
  5
99
330
1F
100
AcDbEntity
  8
0
  6
Continuous
 62
     7
370
    25
100
AcDbLine
 10
72.4215653368
 20
-1.6100960191
 30
0.0
 11
72.4215653368
 21
-1.7319567159
 31
0.0
  0
LINE
  5
9A
330
1F
100
AcDbEntity
  8
0
  6
Continuous
 62
     7
370
    25
100
AcDbLine
 10
72.4215653368
 20
-1.7319567159
 30
0.0
 11
73.4208915072
 21
-1.6952524214
 31
0.0
  0
LINE
  5
9B
330
1F
100
AcDbEntity
  8
0
  6
Continuous
 62
     7
370
    25
100
AcDbLine
 10
74.6200829116
 20
-1.6512072681
 30
0.0
 11
74.6200829116
 21
-1.5294080133
 31
0.0
  0
SPLINE
  5
9C
330
1F
100
AcDbEntity
  8
0
  6
Continuous
 62
     7
370
    25
100
AcDbSpline
210
0.0
220
0.0
230
1.0
 70
     8
 71
     3
 72
     8
 73
     4
 74
     0
 42
0.00000001
 43
0.00000001
 40
0.2098142590724803
 40
0.2098142590724803
 40
0.2098142590724803
 40
0.2098142590724803
 40
0.2150725930947047
 40
0.2150725930947047
 40
0.2150725930947047
 40
0.2150725930947047
 10
74.62008261439718
 20
-1.529399913654443
 30
0.0
 10
74.28697391471798
 20
-1.541624316673246
 30
0.0
 10
73.95386523096936
 20
-1.553849130980184
 30
0.0
 10
73.62075658126612
 20
-1.566074894277934
 30
0.0
  0
LINE
  5
9D
330
1F
100
AcDbEntity
  8
0
  6
Continuous
 62
     7
370
    25
100
AcDbLine
 10
73.6207567413
 20
-1.5660792536
 30
0.0
 11
73.6207567413
 21
-1.6879115625
 31
0.0
  0
LINE
  5
9E
330
1F
100
AcDbEntity
  8
0
  6
Continuous
 62
     7
370
    25
100
AcDbLine
 10
73.6207567413
 20
-1.6879115625
 30
0.0
 11
74.6200829116
 21
-1.6512072681
 31
0.0
  0
LINE
  5
9F
330
1F
100
AcDbEntity
  8
0
  6
Continuous
 62
     7
370
    25
100
AcDbLine
 10
75.8192743161
 20
-1.6071621147
 30
0.0
 11
75.8192743161
 21
-1.4853961942
 31
0.0
  0
SPLINE
  5
A0
330
1F
100
AcDbEntity
  8
0
  6
Continuous
 62
     7
370
    25
100
AcDbSpline
210
0.0
220
0.0
230
1.0
 70
     8
 71
     3
 72
     8
 73
     4
 74
     0
 42
0.00000001
 43
0.00000001
 40
0.2035042570645535
 40
0.2035042570645535
 40
0.2035042570645535
 40
0.2035042570645535
 40
0.208762592067885
 40
0.208762592067885
 40
0.208762592067885
 40
0.208762592067885
 10
75.8192741952536
 20
-1.485392902162959
 30
0.0
 10
75.48616542127436
 20
-1.497617094663009
 30
0.0
 10
75.153056641488
 20
-1.50984105320777
 30
0.0
 10
74.81994787400929
 20
-1.522065315500223
 30
0.0
  0
LINE
  5
A1
330
1F
100
AcDbEntity
  8
0
  6
Continuous
 62
     7
370
    25
100
AcDbLine
 10
74.8199481457
 20
-1.5220727189
 30
0.0
 11
74.8199481457
 21
-1.6438664092
 31
0.0
  0
LINE
  5
A2
330
1F
100
AcDbEntity
  8
0
  6
Continuous
 62
     7
370
    25
100
AcDbLine
 10
74.8199481457
 20
-1.6438664092
 30
0.0
 11
75.8192743161
 21
-1.6071621147
 31
0.0
  0
LINE
  5
A3
330
1F
100
AcDbEntity
  8
0
  6
Continuous
 62
     7
370
    25
100
AcDbLine
 10
22.6615111949
 20
-0.0501642102
 30
0.0
 11
21.9011621413
 21
-0.8105132639
 31
0.0
  0
LINE
  5
A4
330
1F
100
AcDbEntity
  8
0
  6
Continuous
 62
     7
370
    25
100
AcDbLine
 10
21.9377694581
 20
0.6735775266
 30
0.0
 11
22.6615111949
 21
-0.0501642102
 31
0.0
  0
SPLINE
  5
A5
330
1F
100
AcDbEntity
  8
0
  6
Continuous
 62
     7
370
    25
100
AcDbSpline
210
0.0
220
0.0
230
1.0
 70
     8
 71
     3
 72
    46
 73
    42
 74
     0
 42
0.00000001
 43
0.00000001
 40
0.4977976510702835
 40
0.4977976510702835
 40
0.4977976510702835
 40
0.4977976510702835
 40
0.4988976851387915
 40
0.5008465042213651
 40
0.5027953233039385
 40
0.5047441423865117
 40
0.506692961469085
 40
0.5086417805516585
 40
0.5105905996342321
 40
0.5144882377993787
 40
0.5183858759645255
 40
0.5222835141296726
 40
0.5261811522948192
 40
0.5300787904599662
 40
0.533976428625113
 40
0.5378740667902596
 40
0.5417717049554067
 40
0.5456693431205533
 40
0.5495669812857
 40
0.553464619450847
 40
0.5612598957811407
 40
0.5690551721114341
 40
0.5768504484417276
 40
0.5846457247720215
 40
0.5924410011023151
 40
0.6002362774326085
 40
0.6080315537629022
 40
0.6236221064234896
 40
0.6392126590840765
 40
0.654803211744664
 40
0.6703937644052511
 40
0.6859843170658385
 40
0.7015748697264255
 40
0.717165422387013
 40
0.7327559750476
 40
0.7483465277081874
 40
0.7639370803687744
 40
0.7795276330293619
 40
0.795118185689949
 40
0.8107087383505364
 40
0.8124831015476646
 40
0.8124831015476646
 40
0.8124831015476646
 40
0.8124831015476646
 10
21.93776708573771
 20
0.6735798988559809
 30
0.0
 10
21.97537535023114
 20
0.7322985283704658
 30
0.0
 10
22.08573962171701
 20
0.8911611873351428
 30
0.0
 10
22.28701872336343
 20
1.136144839612922
 30
0.0
 10
22.53951092402438
 20
1.407550076184055
 30
0.0
 10
22.80085423547328
 20
1.670373821722892
 30
0.0
 10
23.06541564969157
 20
1.92991180870649
 30
0.0
 10
23.3358033612608
 20
2.183454472569996
 30
0.0
 10
23.70754430815339
 20
2.50913633426399
 30
0.0
 10
24.19542366670759
 20
2.888764905581705
 30
0.0
 10
24.81279592812094
 20
3.299766409347467
 30
0.0
 10
25.45464348192679
 20
3.671081697602329
 30
0.0
 10
26.11296005942161
 20
4.012064525591924
 30
0.0
 10
26.78480399228453
 20
4.32554255314712
 30
0.0
 10
27.46665538812033
 20
4.61640829061717
 30
0.0
 10
28.15606268425974
 20
4.888869099380707
 30
0.0
 10
28.85146415398707
 20
5.145551683865241
 30
0.0
 10
29.5511914552485
 20
5.390179451643418
 30
0.0
 10
30.25477007133346
 20
5.623484724112156
 30
0.0
 10
31.19800886361204
 20
5.918668950877336
 30
0.0
 10
32.38619216543178
 20
6.257475903550211
 30
0.0
 10
33.82359781617166
 20
6.620785354558066
 30
0.0
 10
35.2700774762648
 20
6.9459291982265
 30
0.0
 10
36.72394564851833
 20
7.236226641345723
 30
0.0
 10
38.18435328426196
 20
7.491588117004295
 30
0.0
 10
39.65062849006361
 20
7.710877040569297
 30
0.0
 10
41.61256143118332
 20
7.952692848688954
 30
0.0
 10
44.07428540917596
 20
8.170067957937787
 30
0.0
 10
47.03514603827863
 20
8.329797938001521
 30
0.0
 10
49.99852622254566
 20
8.427979422592044
 30
0.0
 10
52.96284770644291
 20
8.490143425185762
 30
0.0
 10
55.92786707654275
 20
8.503483650532171
 30
0.0
 10
58.89263508627393
 20
8.461930599624788
 30
0.0
 10
61.85590195686316
 20
8.358166543014491
 30
0.0
 10
64.81670679179392
 20
8.200137577941698
 30
0.0
 10
67.77449498406988
 20
7.993272942317794
 30
0.0
 10
70.72899892641618
 20
7.74416651059347
 30
0.0
 10
73.67966100119574
 20
7.452948193353603
 30
0.0
 10
76.62593338118147
 20
7.12031845938863
 30
0.0
 10
78.69838508232006
 20
6.856746996801168
 30
0.0
 10
79.7893630644251
 20
6.710136907600817
 30
0.0
 10
79.90082940242176
 20
6.695076498416608
 30
0.0
  0
LINE
  5
A6
330
1F
100
AcDbEntity
  8
0
  6
Continuous
 62
     7
370
    25
100
AcDbLine
 10
79.900829426
 20
3.9498357898
 30
0.0
 11
79.900829426
 21
6.695076673
 31
0.0
  0
LINE
  5
A7
330
1F
100
AcDbEntity
  8
0
  6
Continuous
 62
     7
370
    25
100
AcDbLine
 10
79.900829426
 20
3.9498357898
 30
0.0
 11
77.900829426
 21
3.9498357898
 31
0.0
  0
LINE
  5
A8
330
1F
100
AcDbEntity
  8
0
  6
Continuous
 62
     7
370
    25
100
AcDbLine
 10
77.900829426
 20
0.9498357898
 30
0.0
 11
77.900829426
 21
3.9498357898
 31
0.0
  0
LINE
  5
A9
330
1F
100
AcDbEntity
  8
0
  6
Continuous
 62
     7
370
    25
100
AcDbLine
 10
79.900829426
 20
0.9498357898
 30
0.0
 11
77.900829426
 21
0.9498357898
 31
0.0
  0
LINE
  5
AA
330
1F
100
AcDbEntity
  8
0
  6
Continuous
 62
     7
370
    25
100
AcDbLine
 10
79.900829426
 20
0.9498357898
 30
0.0
 11
79.900829426
 21
-1.3355731382
 31
0.0
  0
SPLINE
  5
AB
330
1F
100
AcDbEntity
  8
0
  6
Continuous
 62
     7
370
    25
100
AcDbSpline
210
0.0
220
0.0
230
1.0
 70
     8
 71
     3
 72
     9
 73
     5
 74
     0
 42
0.00000001
 43
0.00000001
 40
0.1820275966100769
 40
0.1820275966100769
 40
0.1820275966100769
 40
0.1820275966100769
 40
0.1870866319270469
 40
0.2024525900708171
 40
0.2024525900708171
 40
0.2024525900708171
 40
0.2024525900708171
 10
79.90082958885125
 20
-1.335577572995188
 30
0.0
 10
79.58034644364764
 20
-1.347344921913396
 30
0.0
 10
78.28645018236753
 20
-1.394849630031377
 30
0.0
 10
76.99255317652889
 20
-1.442336364060749
 30
0.0
 10
76.0191394574827
 20
-1.478058354353963
 30
0.0
  0
LINE
  5
AC
330
1F
100
AcDbEntity
  8
0
  6
Continuous
 62
     7
370
    25
100
AcDbLine
 10
76.0191395501
 20
-1.4780608787
 30
0.0
 11
76.0191395501
 21
-10.0
 31
0.0
  0
LINE
  5
AD
330
1F
100
AcDbEntity
  8
0
  6
Continuous
 62
     7
370
    25
100
AcDbLine
 10
76.0191395501
 20
-10.0
 30
0.0
 11
72.019139559
 21
-10.0
 31
0.0
  0
LINE
  5
AE
330
1F
100
AcDbEntity
  8
0
  6
Continuous
 62
     7
370
    25
100
AcDbLine
 10
72.019139559
 20
-10.0
 30
0.0
 11
72.019139559
 21
-1.7467374298
 31
0.0
  0
LINE
  5
AF
330
1F
100
AcDbEntity
  8
0
  6
Continuous
 62
     7
370
    25
100
AcDbLine
 10
72.019139559
 20
-1.7467374298
 30
0.0
 11
72.2217001028
 21
-1.7392975748
 31
0.0
  0
LINE
  5
B0
330
1F
100
AcDbEntity
  8
0
  6
Continuous
 62
     7
370
    25
100
AcDbLine
 10
72.2217001028
 20
-1.7392975748
 30
0.0
 11
72.2217001028
 21
-1.6174312712
 31
0.0
  0
SPLINE
  5
B1
330
1F
100
AcDbEntity
  8
0
  6
Continuous
 62
     7
370
    25
100
AcDbSpline
210
0.0
220
0.0
230
1.0
 70
     8
 71
     3
 72
    19
 73
    15
 74
     0
 42
0.00000001
 43
0.00000001
 40
0.2224342630481056
 40
0.2224342630481056
 40
0.2224342630481056
 40
0.2224342630481056
 40
0.2338582899088086
 40
0.2494488425693957
 40
0.2650393952299831
 40
0.2806299478905703
 40
0.2962205005511576
 40
0.3118110532117448
 40
0.327401605872332
 40
0.3429921585329193
 40
0.3585827111935065
 40
0.3663779875238
 40
0.3741732638540937
 40
0.3747741535911829
 40
0.3747741535911829
 40
0.3747741535911829
 40
0.3747741535911829
 10
72.2217000749207
 20
-1.617430513166062
 30
0.0
 10
71.4980030919484
 20
-1.644000670942839
 30
0.0
 10
69.78666613997771
 20
-1.706856611091729
 30
0.0
 10
67.08769638291851
 20
-1.80619187447394
 30
0.0
 10
64.1247893010795
 20
-1.915397022905415
 30
0.0
 10
61.16187229253509
 20
-2.024331861069472
 30
0.0
 10
58.19892540957783
 20
-2.132453540289182
 30
0.0
 10
55.23594839876659
 20
-2.239741975359974
 30
0.0
 10
52.27300405533833
 20
-2.347939128307321
 30
0.0
 10
49.31015678583343
 20
-2.458758462089502
 30
0.0
 10
46.84122615892229
 20
-2.553993397631053
 30
0.0
 10
44.865913716642
 20
-2.625707030532453
 30
0.0
 10
43.84010625921508
 20
-2.660535936399091
 30
0.0
 10
43.30813629267685
 20
-2.67762374567817
 30
0.0
 10
43.27006455118439
 20
-2.678841586472356
 30
0.0
  0
LINE
  5
B2
330
1F
100
AcDbEntity
  8
0
  6
Continuous
 62
     7
370
    25
100
AcDbLine
 10
43.2700645512
 20
-2.6788415865
 30
0.0
 11
43.2700645512
 21
-10.0
 31
0.0
  0
LINE
  5
B3
330
1F
100
AcDbEntity
  8
0
  6
Continuous
 62
     7
370
    25
100
AcDbLine
 10
43.2700645512
 20
-10.0
 30
0.0
 11
39.2700645538
 21
-10.0
 31
0.0
  0
LINE
  5
B4
330
1F
100
AcDbEntity
  8
0
  6
Continuous
 62
     7
370
    25
100
AcDbLine
 10
39.2700645538
 20
-10.0
 30
0.0
 11
39.2700645538
 21
-3.0567693938
 31
0.0
  0
LINE
  5
B5
330
1F
100
AcDbEntity
  8
0
  6
Continuous
 62
     7
370
    25
100
AcDbLine
 10
39.2700645538
 20
-3.0567693938
 30
0.0
 11
39.4712401546
 21
-3.0517640986
 31
0.0
  0
LINE
  5
B6
330
1F
100
AcDbEntity
  8
0
  6
Continuous
 62
     7
370
    25
100
AcDbLine
 10
39.4712401546
 20
-3.0517640986
 30
0.0
 11
39.4712401546
 21
-2.7795937903
 31
0.0
  0
SPLINE
  5
B7
330
1F
100
AcDbEntity
  8
0
  6
Continuous
 62
     7
370
    25
100
AcDbSpline
210
0.0
220
0.0
230
1.0
 70
     8
 71
     3
 72
    26
 73
    22
 74
     0
 42
0.00000001
 43
0.00000001
 40
0.3947568101675339
 40
0.3947568101675339
 40
0.3947568101675339
 40
0.3947568101675339
 40
0.3975590928449745
 40
0.4053543691752682
 40
0.4131496455055617
 40
0.4209449218358554
 40
0.4287401981661489
 40
0.4365354744964426
 40
0.4443307508267361
 40
0.4521260271570299
 40
0.4599213034873234
 40
0.4638189416524703
 40
0.4677165798176171
 40
0.4716142179827639
 40
0.4755118561479106
 40
0.4794094943130575
 40
0.4833071324782043
 40
0.4852559515607776
 40
0.4872047706433512
 40
0.4891535897259246
 40
0.4894084920488006
 40
0.4894084920488006
 40
0.4894084920488006
 40
0.4894084920488006
 10
39.47124015468661
 20
-2.779593790252632
 30
0.0
 10
39.29363507015574
 20
-2.783137551708438
 30
0.0
 10
38.62196064033757
 20
-2.795804160351375
 30
0.0
 10
37.4561256091878
 20
-2.812611964124123
 30
0.0
 10
35.9736858490675
 20
-2.822088107168568
 30
0.0
 10
34.49120866862937
 20
-2.818125988775678
 30
0.0
 10
33.00887040787521
 20
-2.797712668478701
 30
0.0
 10
31.52683834442009
 20
-2.760887624745252
 30
0.0
 10
30.04552827950503
 20
-2.700967523349508
 30
0.0
 10
28.56500925952047
 20
-2.626302228225601
 30
0.0
 10
27.33209021827553
 20
-2.54469698929832
 30
0.0
 10
26.34954795663709
 20
-2.436542172809791
 30
0.0
 10
25.61566405243446
 20
-2.331376913722959
 30
0.0
 10
24.88699562649221
 20
-2.195125698814604
 30
0.0
 10
24.15961338103976
 20
-2.052377767333086
 30
0.0
 10
23.43691425085397
 20
-1.886152008625019
 30
0.0
 10
22.86132457701414
 20
-1.650831375961071
 30
0.0
 10
22.44906505300603
 20
-1.376174053582824
 30
0.0
 10
22.1663234307912
 20
-1.135527565762294
 30
0.0
 10
21.99161028247236
 20
-0.9375362919491304
 30
0.0
 10
21.91038803183111
 20
-0.8237867572950699
 30
0.0
 10
21.90116411486216
 20
-0.8105112902038153
 30
0.0
  0
ENDSEC
  0
SECTION
  2
OBJECTS
  0
DICTIONARY
  5
C
330
0
100
AcDbDictionary
281
     1
  3
ACAD_GROUP
350
D
  3
ACAD_LAYOUT
350
1A
  3
ACAD_MLINESTYLE
350
17
  3
ACAD_PLOTSETTINGS
350
19
  3
ACAD_PLOTSTYLENAME
350
E
  3
ACAD_SCALELIST
350
47
  3
DWGPROPS
350
B8
  0
DICTIONARY
  5
D
102
{ACAD_REACTORS
330
C
102
}
330
C
100
AcDbDictionary
281
     1
  0
DICTIONARY
  5
1A
102
{ACAD_REACTORS
330
C
102
}
330
C
100
AcDbDictionary
281
     1
  3
Layout1
350
1E
  3
Layout2
350
26
  3
Model
350
22
  0
DICTIONARY
  5
17
102
{ACAD_REACTORS
330
C
102
}
330
C
100
AcDbDictionary
281
     1
  3
Standard
350
18
  0
DICTIONARY
  5
19
102
{ACAD_REACTORS
330
C
102
}
330
C
100
AcDbDictionary
281
     1
  0
ACDBDICTIONARYWDFLT
  5
E
102
{ACAD_REACTORS
330
C
102
}
330
C
100
AcDbDictionary
281
     1
  3
Normal
350
F
100
AcDbDictionaryWithDefault
340
F
  0
DICTIONARY
  5
47
102
{ACAD_REACTORS
330
C
102
}
330
C
100
AcDbDictionary
281
     1
  3
A0
350
48
  3
A1
350
49
  3
A2
350
4A
  3
A3
350
4B
  3
A4
350
4C
  3
A5
350
4D
  3
A6
350
4E
  3
A7
350
4F
  3
A8
350
50
  3
A9
350
51
  3
B0
350
52
  3
B1
350
53
  3
B2
350
54
  3
B3
350
55
  3
B4
350
56
  3
B5
350
57
  3
B6
350
58
  0
XRECORD
  5
B8
102
{ACAD_REACTORS
330
C
102
}
330
C
100
AcDbXrecord
280
     1
  1
DWGPROPS COOKIE
  2

  3

  4

  6

  7

  8
CX_in_command
  9

300
=
301
=
302
=
303
=
304
=
305
=
306
=
307
=
308
=
309
=
 40
0.0
 41
2461083.076671169
 42
2461083.076709098
  1

 90
        0
  0
LAYOUT
  5
1E
102
{ACAD_REACTORS
330
1A
102
}
330
1A
100
AcDbPlotSettings
  1

  2
none_device
  4

  6

 40
0.0
 41
0.0
 42
0.0
 43
0.0
 44
0.0
 45
0.0
 46
0.0
 47
0.0
 48
0.0
 49
0.0
140
0.0
141
0.0
142
1.0
143
1.0
 70
   688
 72
     1
 73
     0
 74
     5
  7

 75
    16
147
1.0
148
0.0
149
0.0
100
AcDbLayout
  1
Layout1
 70
     1
 71
     1
 10
0.0
 20
0.0
 11
420.0
 21
297.0
 12
0.0
 22
0.0
 32
0.0
 14
1.0000000000E+20
 24
1.0000000000E+20
 34
1.0000000000E+20
 15
-1.0000000000E+20
 25
-1.0000000000E+20
 35
-1.0000000000E+20
146
0.0
 13
0.0
 23
0.0
 33
0.0
 16
1.0
 26
0.0
 36
0.0
 17
0.0
 27
1.0
 37
0.0
 76
     0
330
1B
  0
LAYOUT
  5
26
102
{ACAD_REACTORS
330
1A
102
}
330
1A
100
AcDbPlotSettings
  1

  2
none_device
  4

  6

 40
0.0
 41
0.0
 42
0.0
 43
0.0
 44
0.0
 45
0.0
 46
0.0
 47
0.0
 48
0.0
 49
0.0
140
0.0
141
0.0
142
1.0
143
1.0
 70
   688
 72
     1
 73
     0
 74
     5
  7

 75
    16
147
1.0
148
0.0
149
0.0
100
AcDbLayout
  1
Layout2
 70
     1
 71
     2
 10
0.0
 20
0.0
 11
0.0
 21
0.0
 12
0.0
 22
0.0
 32
0.0
 14
0.0
 24
0.0
 34
0.0
 15
0.0
 25
0.0
 35
0.0
146
0.0
 13
0.0
 23
0.0
 33
0.0
 16
1.0
 26
0.0
 36
0.0
 17
0.0
 27
1.0
 37
0.0
 76
     0
330
23
  0
LAYOUT
  5
22
102
{ACAD_REACTORS
330
1A
102
}
330
1A
100
AcDbPlotSettings
  1

  2
none_device
  4
ANSI_A_(11.00_x_8.50_Inches)
  6

 40
6.35
 41
19.05
 42
6.35000508
 43
19.05000254
 44
279.4
 45
215.9
 46
-109.4017540905
 47
92.528537539
 48
0.0
 49
0.0
140
0.0
141
0.0
142
0.1877596972
143
1.0
 70
  1696
 72
     0
 73
     0
 74
     0
  7

 75
     0
147
0.0179189148
148
-1300.4909072572
149
0.0
100
AcDbLayout
  1
Model
 70
     1
 71
     0
 10
0.0
 20
0.0
 11
420.0
 21
297.0
 12
0.0
 22
0.0
 32
0.0
 14
21.9011621413
 24
-10.0
 34
0.0
 15
79.9008295889
 25
8.4783117919
 35
0.0
146
0.0
 13
0.0
 23
0.0
 33
0.0
 16
1.0
 26
0.0
 36
0.0
 17
0.0
 27
1.0
 37
0.0
 76
     0
330
1F
331
29
  0
MLINESTYLE
  5
18
102
{ACAD_REACTORS
330
17
102
}
330
17
100
AcDbMlineStyle
  2
Standard
 70
     0
  3

 62
   256
 51
90.0
 52
90.0
 71
     2
 49
0.5
 62
   256
  6
BYLAYER
 49
-0.5
 62
   256
  6
BYLAYER
  0
ACDBPLACEHOLDER
  5
F
102
{ACAD_REACTORS
330
E
102
}
330
E
  0
SCALE
  5
48
102
{ACAD_REACTORS
330
47
102
}
330
47
100
AcDbScale
 70
     0
300
1:1
140
1.0
141
1.0
290
     1
  0
SCALE
  5
49
102
{ACAD_REACTORS
330
47
102
}
330
47
100
AcDbScale
 70
     0
300
1:2
140
1.0
141
2.0
290
     0
  0
SCALE
  5
4A
102
{ACAD_REACTORS
330
47
102
}
330
47
100
AcDbScale
 70
     0
300
1:4
140
1.0
141
4.0
290
     0
  0
SCALE
  5
4B
102
{ACAD_REACTORS
330
47
102
}
330
47
100
AcDbScale
 70
     0
300
1:5
140
1.0
141
5.0
290
     0
  0
SCALE
  5
4C
102
{ACAD_REACTORS
330
47
102
}
330
47
100
AcDbScale
 70
     0
300
1:8
140
1.0
141
8.0
290
     0
  0
SCALE
  5
4D
102
{ACAD_REACTORS
330
47
102
}
330
47
100
AcDbScale
 70
     0
300
1:10
140
1.0
141
10.0
290
     0
  0
SCALE
  5
4E
102
{ACAD_REACTORS
330
47
102
}
330
47
100
AcDbScale
 70
     0
300
1:16
140
1.0
141
16.0
290
     0
  0
SCALE
  5
4F
102
{ACAD_REACTORS
330
47
102
}
330
47
100
AcDbScale
 70
     0
300
1:20
140
1.0
141
20.0
290
     0
  0
SCALE
  5
50
102
{ACAD_REACTORS
330
47
102
}
330
47
100
AcDbScale
 70
     0
300
1:30
140
1.0
141
30.0
290
     0
  0
SCALE
  5
51
102
{ACAD_REACTORS
330
47
102
}
330
47
100
AcDbScale
 70
     0
300
1:40
140
1.0
141
40.0
290
     0
  0
SCALE
  5
52
102
{ACAD_REACTORS
330
47
102
}
330
47
100
AcDbScale
 70
     0
300
1:50
140
1.0
141
50.0
290
     0
  0
SCALE
  5
53
102
{ACAD_REACTORS
330
47
102
}
330
47
100
AcDbScale
 70
     0
300
1:100
140
1.0
141
100.0
290
     0
  0
SCALE
  5
54
102
{ACAD_REACTORS
330
47
102
}
330
47
100
AcDbScale
 70
     0
300
2:1
140
2.0
141
1.0
290
     0
  0
SCALE
  5
55
102
{ACAD_REACTORS
330
47
102
}
330
47
100
AcDbScale
 70
     0
300
4:1
140
4.0
141
1.0
290
     0
  0
SCALE
  5
56
102
{ACAD_REACTORS
330
47
102
}
330
47
100
AcDbScale
 70
     0
300
8:1
140
8.0
141
1.0
290
     0
  0
SCALE
  5
57
102
{ACAD_REACTORS
330
47
102
}
330
47
100
AcDbScale
 70
     0
300
10:1
140
10.0
141
1.0
290
     0
  0
SCALE
  5
58
102
{ACAD_REACTORS
330
47
102
}
330
47
100
AcDbScale
 70
     0
300
100:1
140
100.0
141
1.0
290
     0
  0
ENDSEC
  0
EOF
