  0
SECTION
  2
HEADER
  9
$ACADVER
  1
AC1015
  9
$ACADMAINTVER
 70
     6
  9
$DWGCODEPAGE
  3
ANSI_936
  9
$INSBASE
 10
0.0
 20
0.0
 30
0.0
  9
$EXTMIN
 10
39.6316630662
 20
-10.0000000001
 30
0.0
  9
$EXTMAX
 10
79.9008302394
 20
6.8569040748
 30
0.0
  9
$LIMMIN
 10
0.0
 20
0.0
  9
$LIMMAX
 10
420.0
 20
297.0
  9
$ORTHOMODE
 70
     0
  9
$REGENMODE
 70
     1
  9
$FILLMODE
 70
     1
  9
$QTEXTMODE
 70
     0
  9
$MIRRTEXT
 70
     1
  9
$LTSCALE
 40
1.0
  9
$ATTMODE
 70
     1
  9
$TEXTSIZE
 40
3.5
  9
$TRACEWID
 40
1.0
  9
$TEXTSTYLE
  7
Standard
  9
$CLAYER
  8
0
  9
$CELTYPE
  6
ByLayer
  9
$CECOLOR
 62
   256
  9
$CELTSCALE
 40
1.0
  9
$DISPSILH
 70
     0
  9
$DIMSCALE
 40
1.0
  9
$DIMASZ
 40
3.556
  9
$DIMEXO
 40
0.0
  9
$DIMDLI
 40
3.75
  9
$DIMRND
 40
0.0
  9
$DIMDLE
 40
0.0
  9
$DIMEXE
 40
1.0
  9
$DIMTP
 40
0.0
  9
$DIMTM
 40
0.0
  9
$DIMTXT
 40
3.5
  9
$DIMCEN
 40
2.5
  9
$DIMTSZ
 40
0.0
  9
$DIMTOL
 70
     0
  9
$DIMLIM
 70
     0
  9
$DIMTIH
 70
     1
  9
$DIMTOH
 70
     1
  9
$DIMSE1
 70
     0
  9
$DIMSE2
 70
     0
  9
$DIMTAD
 70
     1
  9
$DIMZIN
 70
     1
  9
$DIMBLK
  1

  9
$DIMASO
 70
     1
  9
$DIMSHO
 70
     1
  9
$DIMPOST
  1

  9
$DIMAPOST
  1

  9
$DIMALT
 70
     0
  9
$DIMALTD
 70
     3
  9
$DIMALTF
 40
0.0393700787
  9
$DIMLFAC
 40
1.0
  9
$DIMTOFL
 70
     1
  9
$DIMTVP
 40
0.0
  9
$DIMTIX
 70
     0
  9
$DIMSOXD
 70
     0
  9
$DIMSAH
 70
     0
  9
$DIMBLK1
  1

  9
$DIMBLK2
  1

  9
$DIMSTYLE
  2
ISO-25
  9
$DIMCLRD
 70
     0
  9
$DIMCLRE
 70
     0
  9
$DIMCLRT
 70
     0
  9
$DIMTFAC
 40
1.0
  9
$DIMGAP
 40
1.524
  9
$DIMJUST
 70
     0
  9
$DIMSD1
 70
     0
  9
$DIMSD2
 70
     0
  9
$DIMTOLJ
 70
     0
  9
$DIMTZIN
 70
     1
  9
$DIMALTZ
 70
     0
  9
$DIMALTTZ
 70
     0
  9
$DIMUPT
 70
     0
  9
$DIMDEC
 70
     2
  9
$DIMTDEC
 70
     2
  9
$DIMALTU
 70
     2
  9
$DIMALTTD
 70
     3
  9
$DIMTXSTY
  7
Standard
  9
$DIMAUNIT
 70
     0
  9
$DIMADEC
 70
     2
  9
$DIMALTRND
 40
0.0
  9
$DIMAZIN
 70
     0
  9
$DIMDSEP
 70
    44
  9
$DIMATFIT
 70
     3
  9
$DIMFRAC
 70
     0
  9
$DIMLDRBLK
  1

  9
$DIMLUNIT
 70
     2
  9
$DIMLWD
 70
    -2
  9
$DIMLWE
 70
    -2
  9
$DIMTMOVE
 70
     0
  9
$LUNITS
 70
     2
  9
$LUPREC
 70
     2
  9
$SKETCHINC
 40
1.0
  9
$FILLETRAD
 40
0.0
  9
$AUNITS
 70
     0
  9
$AUPREC
 70
     2
  9
$MENU
  1
.
  9
$ELEVATION
 40
0.0
  9
$PELEVATION
 40
0.0
  9
$THICKNESS
 40
0.0
  9
$LIMCHECK
 70
     0
  9
$CHAMFERA
 40
0.0
  9
$CHAMFERB
 40
0.0
  9
$CHAMFERC
 40
0.0
  9
$CHAMFERD
 40
0.0
  9
$SKPOLY
 70
     0
  9
$TDCREATE
 40
2461083.411111377
  9
$TDUCREATE
 40
2461083.077778044
  9
$TDUPDATE
 40
2461083.411161806
  9
$TDUUPDATE
 40
2461083.077828472
  9
$TDINDWG
 40
0.0000000116
  9
$TDUSRTIMER
 40
0.0000000116
  9
$USRTIMER
 70
     1
  9
$ANGBASE
 50
0.0
  9
$ANGDIR
 70
     0
  9
$PDMODE
 70
     0
  9
$PDSIZE
 40
-1.0
  9
$PLINEWID
 40
0.0
  9
$SPLFRAME
 70
     0
  9
$SPLINETYPE
 70
     6
  9
$SPLINESEGS
 70
     8
  9
$HANDSEED
  5
AD
  9
$SURFTAB1
 70
     6
  9
$SURFTAB2
 70
     6
  9
$SURFTYPE
 70
     6
  9
$SURFU
 70
     6
  9
$SURFV
 70
     6
  9
$UCSBASE
  2

  9
$UCSNAME
  2

  9
$UCSORG
 10
0.0
 20
0.0
 30
0.0
  9
$UCSXDIR
 10
1.0
 20
0.0
 30
0.0
  9
$UCSYDIR
 10
0.0
 20
1.0
 30
0.0
  9
$UCSORTHOREF
  2

  9
$UCSORTHOVIEW
 70
     0
  9
$UCSORGTOP
 10
0.0
 20
0.0
 30
0.0
  9
$UCSORGBOTTOM
 10
0.0
 20
0.0
 30
0.0
  9
$UCSORGLEFT
 10
0.0
 20
0.0
 30
0.0
  9
$UCSORGRIGHT
 10
0.0
 20
0.0
 30
0.0
  9
$UCSORGFRONT
 10
0.0
 20
0.0
 30
0.0
  9
$UCSORGBACK
 10
0.0
 20
0.0
 30
0.0
  9
$PUCSBASE
  2

  9
$PUCSNAME
  2

  9
$PUCSORG
 10
0.0
 20
0.0
 30
0.0
  9
$PUCSXDIR
 10
1.0
 20
0.0
 30
0.0
  9
$PUCSYDIR
 10
0.0
 20
1.0
 30
0.0
  9
$PUCSORTHOREF
  2

  9
$PUCSORTHOVIEW
 70
     0
  9
$PUCSORGTOP
 10
0.0
 20
0.0
 30
0.0
  9
$PUCSORGBOTTOM
 10
0.0
 20
0.0
 30
0.0
  9
$PUCSORGLEFT
 10
0.0
 20
0.0
 30
0.0
  9
$PUCSORGRIGHT
 10
0.0
 20
0.0
 30
0.0
  9
$PUCSORGFRONT
 10
0.0
 20
0.0
 30
0.0
  9
$PUCSORGBACK
 10
0.0
 20
0.0
 30
0.0
  9
$USERI1
 70
     0
  9
$USERI2
 70
     0
  9
$USERI3
 70
     0
  9
$USERI4
 70
     0
  9
$USERI5
 70
     0
  9
$USERR1
 40
0.0
  9
$USERR2
 40
0.0
  9
$USERR3
 40
0.0
  9
$USERR4
 40
0.0
  9
$USERR5
 40
0.0
  9
$WORLDVIEW
 70
     1
  9
$SHADEDGE
 70
     3
  9
$SHADEDIF
 70
    70
  9
$TILEMODE
 70
     1
  9
$MAXACTVP
 70
    64
  9
$PINSBASE
 10
0.0
 20
0.0
 30
0.0
  9
$PLIMCHECK
 70
     0
  9
$PEXTMIN
 10
1.0000000000E+20
 20
1.0000000000E+20
 30
1.0000000000E+20
  9
$PEXTMAX
 10
-1.0000000000E+20
 20
-1.0000000000E+20
 30
-1.0000000000E+20
  9
$PLIMMIN
 10
0.0
 20
0.0
  9
$PLIMMAX
 10
420.0
 20
297.0
  9
$UNITMODE
 70
     0
  9
$VISRETAIN
 70
     1
  9
$PLINEGEN
 70
     0
  9
$PSLTSCALE
 70
     1
  9
$TREEDEPTH
 70
  3020
  9
$CMLSTYLE
  2
Standard
  9
$CMLJUST
 70
     0
  9
$CMLSCALE
 40
20.0
  9
$PROXYGRAPHICS
 70
     1
  9
$MEASUREMENT
 70
     1
  9
$CELWEIGHT
370
    -1
  9
$ENDCAPS
280
     0
  9
$JOINSTYLE
280
     0
  9
$LWDISPLAY
290
     1
  9
$INSUNITS
 70
     4
  9
$HYPERLINKBASE
  1

  9
$STYLESHEET
  1

  9
$XEDIT
290
     1
  9
$CEPSNTYPE
380
     0
  9
$PSTYLEMODE
290
     1
  9
$FINGERPRINTGUID
  2
{c8217d52-abc8-4d5f-9003-512e03b2c606}
  9
$VERSIONGUID
  2
{FAEB1C32-E019-11D5-929B-00C0DF256EC4}
  9
$EXTNAMES
290
     1
  9
$PSVPSCALE
 40
0.0
  9
$OLESTARTUP
290
     0
  0
ENDSEC
  0
SECTION
  2
CLASSES
  0
CLASS
  1
ACDBDICTIONARYWDFLT
  2
AcDbDictionaryWithDefault
  3
ObjectDBX Classes
 90
        0
280
     0
281
     0
  0
CLASS
  1
VISUALSTYLE
  2
AcDbVisualStyle
  3
ObjectDBX Classes
 90
     4095
280
     0
281
     0
  0
CLASS
  1
MATERIAL
  2
AcDbMaterial
  3
ObjectDBX Classes
 90
     1153
280
     0
281
     0
  0
CLASS
  1
SCALE
  2
AcDbScale
  3
ObjectDBX Classes
 90
     1153
280
     0
281
     0
  0
CLASS
  1
TABLESTYLE
  2
AcDbTableStyle
  3
ObjectDBX Classes
 90
     4095
280
     0
281
     0
  0
CLASS
  1
MLEADERSTYLE
  2
AcDbMLeaderStyle
  3
ACDB_MLEADERSTYLE_CLASS
 90
     4095
280
     0
281
     0
  0
CLASS
  1
SUN
  2
AcDbSun
  3
SCENEOE
 90
     1153
280
     0
281
     0
  0
CLASS
  1
ACDBPLACEHOLDER
  2
AcDbPlaceHolder
  3
ObjectDBX Classes
 90
        0
280
     0
281
     0
  0
CLASS
  1
LAYOUT
  2
AcDbLayout
  3
ObjectDBX Classes
 90
        0
280
     0
281
     0
  0
ENDSEC
  0
SECTION
  2
TABLES
  0
TABLE
  2
VPORT
  5
8
330
0
100
AcDbSymbolTable
 70
     1
  0
VPORT
  5
29
330
8
100
AcDbSymbolTableRecord
100
AcDbViewportTableRecord
  2
*Active
 70
     0
 10
0.0
 20
0.0
 11
1.0
 21
1.0
 12
59.7662466528
 22
-1.5715479626
 13
0.0
 23
0.0
 14
10.0
 24
10.0
 15
10.0
 25
10.0
 16
0.0
 26
0.0
 36
1.0
 17
0.0
 27
0.0
 37
0.0
 40
17.1940421564
 41
2.3888827387
 42
50.0
 43
0.0
 44
0.0
 50
0.0
 51
0.0
 71
     0
 72
   100
 73
     1
 74
     3
 75
     0
 76
     0
 77
     0
 78
     0
281
     0
 65
     1
110
0.0
120
0.0
130
0.0
111
1.0
121
0.0
131
0.0
112
0.0
122
1.0
132
0.0
 79
     0
146
0.0
  0
ENDTAB
  0
TABLE
  2
LTYPE
  5
5
330
0
100
AcDbSymbolTable
 70
     6
  0
LTYPE
  5
14
330
5
100
AcDbSymbolTableRecord
100
AcDbLinetypeTableRecord
  2
ByBlock
 70
     0
  3

 72
    65
 73
     0
 40
0.0
  0
LTYPE
  5
15
330
5
100
AcDbSymbolTableRecord
100
AcDbLinetypeTableRecord
  2
ByLayer
 70
     0
  3

 72
    65
 73
     0
 40
0.0
  0
LTYPE
  5
16
330
5
100
AcDbSymbolTableRecord
100
AcDbLinetypeTableRecord
  2
Continuous
 70
     0
  3
Solid line
 72
    65
 73
     0
 40
0.0
  0
LTYPE
  5
5E
330
5
100
AcDbSymbolTableRecord
100
AcDbLinetypeTableRecord
  2
HIDDEN
 70
     0
  3
Hidden __ __ __ __ __ __ __ __ __ __ __ __ __ __
 72
    65
 73
     2
 40
1.905
 49
1.27
 74
     0
 49
-0.635
 74
     0
  0
LTYPE
  5
5F
330
5
100
AcDbSymbolTableRecord
100
AcDbLinetypeTableRecord
  2
PHANTOM
 70
     0
  3
Phantom ______  __  __  ______  __  __  ______
 72
    65
 73
     6
 40
12.7
 49
6.35
 74
     0
 49
-1.27
 74
     0
 49
1.27
 74
     0
 49
-1.27
 74
     0
 49
1.27
 74
     0
 49
-1.27
 74
     0
  0
LTYPE
  5
60
330
5
100
AcDbSymbolTableRecord
100
AcDbLinetypeTableRecord
  2
CENTER
 70
     0
  3
Center ____ _ ____ _ ____ _ ____ _ ____ _ ____
 72
    65
 73
     4
 40
10.16
 49
6.35
 74
     0
 49
-1.27
 74
     0
 49
1.27
 74
     0
 49
-1.27
 74
     0
  0
LTYPE
  5
61
330
5
100
AcDbSymbolTableRecord
100
AcDbLinetypeTableRecord
  2
CENTERX2
 70
     0
  3
Center (2x) ________  __  ________  __  _____
 72
    65
 73
     4
 40
20.32
 49
12.7
 74
     0
 49
-2.54
 74
     0
 49
2.54
 74
     0
 49
-2.54
 74
     0
  0
LTYPE
  5
62
330
5
100
AcDbSymbolTableRecord
100
AcDbLinetypeTableRecord
  2
DOT2
 70
     0
  3
Dot (.5x) ........................................
 72
    65
 73
     2
 40
0.635
 49
0.0
 74
     0
 49
-0.635
 74
     0
  0
ENDTAB
  0
TABLE
  2
LAYER
  5
2
330
0
100
AcDbSymbolTable
 70
     1
  0
LAYER
  5
10
330
2
100
AcDbSymbolTableRecord
100
AcDbLayerTableRecord
  2
0
 70
     0
 62
     7
  6
Continuous
370
    -3
390
F
  0
ENDTAB
  0
TABLE
  2
STYLE
  5
3
330
0
100
AcDbSymbolTable
 70
     1
  0
STYLE
  5
11
330
3
100
AcDbSymbolTableRecord
100
AcDbTextStyleTableRecord
  2
Standard
 70
     0
 40
0.0
 41
1.0
 50
0.0
 71
     0
 42
3.5
  3
txt
  4

  0
ENDTAB
  0
TABLE
  2
VIEW
  5
6
330
0
100
AcDbSymbolTable
 70
     0
  0
ENDTAB
  0
TABLE
  2
UCS
  5
7
330
0
100
AcDbSymbolTable
 70
     0
  0
ENDTAB
  0
TABLE
  2
APPID
  5
9
330
0
100
AcDbSymbolTable
 70
     1
  0
APPID
  5
12
330
9
100
AcDbSymbolTableRecord
100
AcDbRegAppTableRecord
  2
ACAD
 70
     0
  0
ENDTAB
  0
TABLE
  2
DIMSTYLE
  5
A
330
0
100
AcDbSymbolTable
 70
     1
100
AcDbDimStyleTable
  0
DIMSTYLE
105
27
330
A
100
AcDbSymbolTableRecord
100
AcDbDimStyleTableRecord
  2
ISO-25
 70
     0
 41
2.5
 42
0.625
 43
3.75
 44
1.25
 73
     0
 74
     0
 77
     1
 78
     8
140
2.5
141
2.5
143
0.0393700787
147
0.625
171
     3
172
     1
178
     0
271
     2
272
     2
274
     3
278
    44
283
     0
284
     8
340
11
  0
ENDTAB
  0
TABLE
  2
BLOCK_RECORD
  5
1
330
0
100
AcDbSymbolTable
 70
     1
  0
BLOCK_RECORD
  5
1F
330
1
100
AcDbSymbolTableRecord
100
AcDbBlockTableRecord
  2
*Model_Space
340
22
  0
BLOCK_RECORD
  5
1B
330
1
100
AcDbSymbolTableRecord
100
AcDbBlockTableRecord
  2
*Paper_Space
340
1E
  0
BLOCK_RECORD
  5
23
330
1
100
AcDbSymbolTableRecord
100
AcDbBlockTableRecord
  2
*Paper_Space0
340
26
  0
ENDTAB
  0
ENDSEC
  0
SECTION
  2
BLOCKS
  0
BLOCK
  5
20
330
1F
100
AcDbEntity
  8
0
100
AcDbBlockBegin
  2
*Model_Space
 70
     0
 10
0.0
 20
0.0
 30
0.0
  3
*Model_Space
  1

  0
ENDBLK
  5
21
330
1F
100
AcDbEntity
  8
0
100
AcDbBlockEnd
  0
BLOCK
  5
1C
330
1B
100
AcDbEntity
 67
     1
  8
0
100
AcDbBlockBegin
  2
*Paper_Space
 70
     0
 10
0.0
 20
0.0
 30
0.0
  3
*Paper_Space
  1

  0
ENDBLK
  5
1D
330
1B
100
AcDbEntity
 67
     1
  8
0
100
AcDbBlockEnd
  0
BLOCK
  5
24
330
23
100
AcDbEntity
  8
0
100
AcDbBlockBegin
  2
*Paper_Space0
 70
     0
 10
0.0
 20
0.0
 30
0.0
  3
*Paper_Space0
  1

  0
ENDBLK
  5
25
330
23
100
AcDbEntity
  8
0
100
AcDbBlockEnd
  0
ENDSEC
  0
SECTION
  2
ENTITIES
  0
SPLINE
  5
63
330
1F
100
AcDbEntity
  8
0
  6
Continuous
 62
     7
370
    25
100
AcDbSpline
210
0.0
220
0.0
230
1.0
 70
     8
 71
     3
 72
     9
 73
     5
 74
     0
 42
0.00000001
 43
0.00000001
 40
0.0
 40
0.0
 40
0.0
 40
0.0
 40
0.5
 40
1.0
 40
1.0
 40
1.0
 40
1.0
 10
49.57521845923347
 20
-1.246869090061107
 30
0.0
 10
49.55518771563968
 20
-1.247966640890878
 30
0.0
 10
49.51508118937913
 20
-1.249614509031128
 30
0.0
 10
49.47492954242568
 20
-1.250164210222465
 30
0.0
 10
49.45485371754007
 20
-1.25016421021565
 30
0.0
  0
ARC
  5
64
330
1F
100
AcDbEntity
  8
0
  6
Continuous
 62
     7
370
    25
100
AcDbCircle
 10
49.6955832016
 20
0.9498357897
 30
0.0
 40
2.199999999999999
100
AcDbArc
 50
266.8637105002
 51
93.1362894636
  0
SPLINE
  5
65
330
1F
100
AcDbEntity
  8
0
  6
Continuous
 62
     7
370
    25
100
AcDbSpline
210
0.0
220
0.0
230
1.0
 70
     8
 71
     3
 72
     9
 73
     5
 74
     0
 42
0.00000001
 43
0.00000001
 40
0.0
 40
0.0
 40
0.0
 40
0.0
 40
0.5
 40
1.0
 40
1.0
 40
1.0
 40
1.0
 10
49.45485371902065
 20
3.149835789784345
 30
0.0
 10
49.47492954389168
 20
3.149835789777451
 30
0.0
 10
49.51508119362233
 20
3.149286088328495
 30
0.0
 10
49.55518771704524
 20
3.147638220394287
 30
0.0
 10
49.57521846062342
 20
3.14654066955246
 30
0.0
  0
SPLINE
  5
66
330
1F
100
AcDbEntity
  8
0
  6
Continuous
 62
     7
370
    25
100
AcDbSpline
210
0.0
220
0.0
230
1.0
 70
     8
 71
     3
 72
    10
 73
     6
 74
     0
 42
0.00000001
 43
0.00000001
 40
0.0
 40
0.0
 40
0.0
 40
0.0
 40
0.5000000000000001
 40
0.5000000000000001
 40
1.0
 40
1.0
 40
1.0
 40
1.0
 10
49.45485371753027
 20
-1.25016421021565
 30
0.0
 10
47.98818705086381
 20
-1.250164209718496
 30
0.0
 10
47.25485371815182
 20
0.2165024566995022
 30
0.0
 10
47.25485371840021
 20
1.683169123614384
 30
0.0
 10
47.98818705235415
 20
3.149835790280777
 30
0.0
 10
49.45485371902065
 20
3.149835789784346
 30
0.0
  0
ARC
  5
67
330
1F
100
AcDbEntity
  8
0
  6
Continuous
 62
     7
370
    25
100
AcDbCircle
 10
60.8748896543
 20
1.7146976232
 30
0.0
 40
1.0
100
AcDbArc
 50
225.0
 51
360.0
  0
LINE
  5
68
330
1F
100
AcDbEntity
  8
0
  6
Continuous
 62
     7
370
    25
100
AcDbLine
 10
61.8748896543
 20
1.7146976232
 30
0.0
 11
61.8748896543
 21
4.2060594678
 31
0.0
  0
ARC
  5
69
330
1F
100
AcDbEntity
  8
0
  6
Continuous
 62
     7
370
    25
100
AcDbCircle
 10
60.8748896543
 20
4.2060594678
 30
0.0
 40
1.0
100
AcDbArc
 50
0.0
 51
90.0
  0
LINE
  5
6A
330
1F
100
AcDbEntity
  8
0
  6
Continuous
 62
     7
370
    25
100
AcDbLine
 10
60.8748896543
 20
5.2060594678
 30
0.0
 11
58.3835278098
 21
5.2060594678
 31
0.0
  0
ARC
  5
6B
330
1F
100
AcDbEntity
  8
0
  6
Continuous
 62
     7
370
    25
100
AcDbCircle
 10
58.3835278098
 20
4.2060594678
 30
0.0
 40
1.0
100
AcDbArc
 50
90.0
 51
225.0
  0
LINE
  5
6C
330
1F
100
AcDbEntity
  8
0
  6
Continuous
 62
     7
370
    25
100
AcDbLine
 10
57.6764210286
 20
3.4989526866
 30
0.0
 11
60.1677828731
 21
1.0075908421
 31
0.0
  0
LINE
  5
6D
330
1F
100
AcDbEntity
  8
0
  6
Continuous
 62
     7
370
    25
100
AcDbLine
 10
66.8045491353
 20
5.2060594678
 30
0.0
 11
64.5800205816
 21
5.2060594678
 31
0.0
  0
ARC
  5
6E
330
1F
100
AcDbEntity
  8
0
  6
Continuous
 62
     7
370
    25
100
AcDbCircle
 10
64.5800205816
 20
4.2060594678
 30
0.0
 40
1.0
100
AcDbArc
 50
90.0
 51
180.0
  0
LINE
  5
6F
330
1F
100
AcDbEntity
  8
0
  6
Continuous
 62
     7
370
    25
100
AcDbLine
 10
63.5800205816
 20
4.2060594678
 30
0.0
 11
63.5800205816
 21
1.8309989067
 31
0.0
  0
ARC
  5
70
330
1F
100
AcDbEntity
  8
0
  6
Continuous
 62
     7
370
    25
100
AcDbCircle
 10
64.5800205816
 20
1.8309989067
 30
0.0
 40
1.000000000000015
100
AcDbArc
 50
180.0
 51
316.8744655626
  0
LINE
  5
71
330
1F
100
AcDbEntity
  8
0
  6
Continuous
 62
     7
370
    25
100
AcDbLine
 10
65.309878278
 20
1.1473997968
 30
0.0
 11
67.5344068316
 21
3.5224603578
 31
0.0
  0
ARC
  5
72
330
1F
100
AcDbEntity
  8
0
  6
Continuous
 62
     7
370
    25
100
AcDbCircle
 10
66.8045491353
 20
4.2060594678
 30
0.0
 40
1.000000000000002
100
AcDbArc
 50
316.8744655626
 51
90.0
  0
ARC
  5
73
330
1F
100
AcDbEntity
  8
0
  6
Continuous
 62
     7
370
    25
100
AcDbCircle
 10
57.4228366909
 20
0.3004840609
 30
0.0
 40
1.000000000000005
100
AcDbArc
 50
270.0
 51
45.0
  0
LINE
  5
74
330
1F
100
AcDbEntity
  8
0
  6
Continuous
 62
     7
370
    25
100
AcDbLine
 10
58.1299434721
 20
1.0075908421
 30
0.0
 11
55.6385816276
 21
3.4989526866
 31
0.0
  0
ARC
  5
75
330
1F
100
AcDbEntity
  8
0
  6
Continuous
 62
     7
370
    25
100
AcDbCircle
 10
54.9314748464
 20
2.7918459054
 30
0.0
 40
1.000000000000007
100
AcDbArc
 50
45.0
 51
180.0
  0
LINE
  5
76
330
1F
100
AcDbEntity
  8
0
  6
Continuous
 62
     7
370
    25
100
AcDbLine
 10
53.9314748464
 20
2.7918459054
 30
0.0
 11
53.9314748464
 21
0.3004840609
 31
0.0
  0
ARC
  5
77
330
1F
100
AcDbEntity
  8
0
  6
Continuous
 62
     7
370
    25
100
AcDbCircle
 10
54.9314748464
 20
0.3004840609
 30
0.0
 40
1.000000000000007
100
AcDbArc
 50
180.0
 51
270.0
  0
LINE
  5
78
330
1F
100
AcDbEntity
  8
0
  6
Continuous
 62
     7
370
    25
100
AcDbLine
 10
54.9314748464
 20
-0.6995159391
 30
0.0
 11
57.4228366909
 21
-0.6995159391
 31
0.0
  0
LINE
  5
79
330
1F
100
AcDbEntity
  8
0
  6
Continuous
 62
     7
370
    25
100
AcDbLine
 10
70.9827841199
 20
0.3004840609
 30
0.0
 11
70.9827841199
 21
2.6755446223
 31
0.0
  0
ARC
  5
7A
330
1F
100
AcDbEntity
  8
0
  6
Continuous
 62
     7
370
    25
100
AcDbCircle
 10
69.9827841199
 20
2.6755446219
 30
0.0
 40
1.000000000000005
100
AcDbArc
 50
0.0000000234
 51
136.8744655626
  0
LINE
  5
7B
330
1F
100
AcDbEntity
  8
0
  6
Continuous
 62
     7
370
    25
100
AcDbLine
 10
69.2529264236
 20
3.3591437319
 30
0.0
 11
67.0283978699
 21
0.9840831708
 31
0.0
  0
ARC
  5
7C
330
1F
100
AcDbEntity
  8
0
  6
Continuous
 62
     7
370
    25
100
AcDbCircle
 10
67.7582555662
 20
0.3004840609
 30
0.0
 40
0.9999999999999978
100
AcDbArc
 50
136.8744655626
 51
270.0
  0
LINE
  5
7D
330
1F
100
AcDbEntity
  8
0
  6
Continuous
 62
     7
370
    25
100
AcDbLine
 10
67.7582555662
 20
-0.6995159391
 30
0.0
 11
69.9827841199
 21
-0.6995159391
 31
0.0
  0
ARC
  5
7E
330
1F
100
AcDbEntity
  8
0
  6
Continuous
 62
     7
370
    25
100
AcDbCircle
 10
69.9827841199
 20
0.3004840609
 30
0.0
 40
1.0
100
AcDbArc
 50
270.0
 51
0.0
  0
LINE
  5
7F
330
1F
100
AcDbEntity
  8
0
  6
Continuous
 62
     7
370
    25
100
AcDbLine
 10
54.6549807754
 20
-2.5287106053
 30
0.0
 11
54.6549807754
 21
-2.2424518028
 31
0.0
  0
SPLINE
  5
80
330
1F
100
AcDbEntity
  8
0
  6
Continuous
 62
     7
370
    25
100
AcDbSpline
210
0.0
220
0.0
230
1.0
 70
     8
 71
     3
 72
     9
 73
     5
 74
     0
 42
0.00000001
 43
0.00000001
 40
0.3913256174239655
 40
0.3913256174239655
 40
0.3913256174239655
 40
0.3913256174239655
 40
0.391968648208469
 40
0.3978148495047601
 40
0.3978148495047601
 40
0.3978148495047601
 40
0.3978148495047601
 10
54.65498076674886
 20
-2.242451802837565
 30
0.0
 10
54.62196204698596
 20
-2.243245306734661
 30
0.0
 10
54.28874744547409
 20
-2.251181549512727
 30
0.0
 10
53.95551540021398
 20
-2.258385372990881
 30
0.0
 10
53.65529014467837
 20
-2.264175841148952
 30
0.0
  0
LINE
  5
81
330
1F
100
AcDbEntity
  8
0
  6
Continuous
 62
     7
370
    25
100
AcDbLine
 10
53.6552901447
 20
-2.2641758413
 30
0.0
 11
53.6552901447
 21
-2.5535831382
 31
0.0
  0
LINE
  5
82
330
1F
100
AcDbEntity
  8
0
  6
Continuous
 62
     7
370
    25
100
AcDbLine
 10
53.6552901447
 20
-2.5535831382
 30
0.0
 11
54.6549807754
 21
-2.5287106053
 31
0.0
  0
LINE
  5
83
330
1F
100
AcDbEntity
  8
0
  6
Continuous
 62
     7
370
    25
100
AcDbLine
 10
55.8546095322
 20
-2.4988635658
 30
0.0
 11
55.8546095322
 21
-2.210690361
 31
0.0
  0
SPLINE
  5
84
330
1F
100
AcDbEntity
  8
0
  6
Continuous
 62
     7
370
    25
100
AcDbSpline
210
0.0
220
0.0
230
1.0
 70
     8
 71
     3
 72
     9
 73
     5
 74
     0
 42
0.00000001
 43
0.00000001
 40
0.3835376454543775
 40
0.3835376454543775
 40
0.3835376454543775
 40
0.3835376454543775
 40
0.3841733744675519
 40
0.3900276898454743
 40
0.3900276898454743
 40
0.3900276898454743
 40
0.3900276898454743
 10
55.8546095235337
 20
-2.210690361017016
 30
0.0
 10
55.8219698284088
 20
-2.211629194992437
 30
0.0
 10
55.48875530269771
 20
-2.221155738723023
 30
0.0
 10
55.155523411754
 20
-2.230080346469447
 30
0.0
 10
54.85491890151417
 20
-2.237561113382116
 30
0.0
  0
LINE
  5
85
330
1F
100
AcDbEntity
  8
0
  6
Continuous
 62
     7
370
    25
100
AcDbLine
 10
54.8549189015
 20
-2.2375611136
 30
0.0
 11
54.8549189015
 21
-2.5237360987
 31
0.0
  0
LINE
  5
86
330
1F
100
AcDbEntity
  8
0
  6
Continuous
 62
     7
370
    25
100
AcDbLine
 10
54.8549189015
 20
-2.5237360987
 30
0.0
 11
55.8546095322
 21
-2.4988635658
 31
0.0
  0
LINE
  5
87
330
1F
100
AcDbEntity
  8
0
  6
Continuous
 62
     7
370
    25
100
AcDbLine
 10
57.0542382891
 20
-2.4690165263
 30
0.0
 11
57.0542382891
 21
-2.1738322646
 31
0.0
  0
SPLINE
  5
88
330
1F
100
AcDbEntity
  8
0
  6
Continuous
 62
     7
370
    25
100
AcDbSpline
210
0.0
220
0.0
230
1.0
 70
     8
 71
     3
 72
     9
 73
     5
 74
     0
 42
0.00000001
 43
0.00000001
 40
0.3757487220099582
 40
0.3757487220099582
 40
0.3757487220099582
 40
0.3757487220099582
 40
0.3763781007266349
 40
0.3822395555376788
 40
0.3822395555376788
 40
0.3822395555376788
 40
0.3822395555376788
 10
57.05423828905528
 20
-2.173832264612988
 30
0.0
 10
57.02192840508334
 20
-2.174882925854056
 30
0.0
 10
56.68871249902478
 20
-2.18567466510528
 30
0.0
 10
56.3554812016183
 20
-2.196004187169711
 30
0.0
 10
56.05454765834988
 20
-2.20486942736611
 30
0.0
  0
LINE
  5
89
330
1F
100
AcDbEntity
  8
0
  6
Continuous
 62
     7
370
    25
100
AcDbLine
 10
56.0545476584
 20
-2.2048694276
 30
0.0
 11
56.0545476584
 21
-2.4938890592
 31
0.0
  0
LINE
  5
8A
330
1F
100
AcDbEntity
  8
0
  6
Continuous
 62
     7
370
    25
100
AcDbLine
 10
56.0545476584
 20
-2.4938890592
 30
0.0
 11
57.0542382891
 21
-2.4690165263
 31
0.0
  0
LINE
  5
8B
330
1F
100
AcDbEntity
  8
0
  6
Continuous
 62
     7
370
    25
100
AcDbLine
 10
73.2087804573
 20
-1.6800401111
 30
0.0
 11
73.2087804573
 21
-1.5817091166
 31
0.0
  0
SPLINE
  5
8C
330
1F
100
AcDbEntity
  8
0
  6
Continuous
 62
     7
370
    25
100
AcDbSpline
210
0.0
220
0.0
230
1.0
 70
     8
 71
     3
 72
     8
 73
     4
 74
     0
 42
0.00000001
 43
0.00000001
 40
0.2708387979482695
 40
0.2708387979482695
 40
0.2708387979482695
 40
0.2708387979482695
 40
0.2773286598320528
 40
0.2773286598320528
 40
0.2773286598320528
 40
0.2773286598320528
 10
73.20878015049891
 20
-1.581700774491356
 30
0.0
 10
72.87567217686802
 20
-1.593953848164152
 30
0.0
 10
72.54256355208192
 20
-1.606197447353562
 30
0.0
 10
72.20945410689144
 20
-1.61842666119373
 30
0.0
  0
LINE
  5
8D
330
1F
100
AcDbEntity
  8
0
  6
Continuous
 62
     7
370
    25
100
AcDbLine
 10
72.209454287
 20
-1.6184315663
 30
0.0
 11
72.209454287
 21
-1.7167444055
 31
0.0
  0
LINE
  5
8E
330
1F
100
AcDbEntity
  8
0
  6
Continuous
 62
     7
370
    25
100
AcDbLine
 10
72.209454287
 20
-1.7167444055
 30
0.0
 11
73.2087804573
 21
-1.6800401111
 31
0.0
  0
LINE
  5
8F
330
1F
100
AcDbEntity
  8
0
  6
Continuous
 62
     7
370
    25
100
AcDbLine
 10
74.4079718618
 20
-1.6359949577
 30
0.0
 11
74.4079718618
 21
-1.5375481159
 31
0.0
  0
SPLINE
  5
90
330
1F
100
AcDbEntity
  8
0
  6
Continuous
 62
     7
370
    25
100
AcDbSpline
210
0.0
220
0.0
230
1.0
 70
     8
 71
     3
 72
     9
 73
     5
 74
     0
 42
0.00000001
 43
0.00000001
 40
0.2630509256668743
 40
0.2630509256668743
 40
0.2630509256668743
 40
0.2630509256668743
 40
0.2672442683537959
 40
0.269540821723532
 40
0.269540821723532
 40
0.269540821723532
 40
0.269540821723532
 10
74.40797218585593
 20
-1.537556915592686
 30
0.0
 10
74.19273951143207
 20
-1.545484342531637
 30
0.0
 10
73.8596308133543
 20
-1.557750833862849
 30
0.0
 10
73.5265215578572
 20
-1.57001057061309
 30
0.0
 10
73.40864545041332
 20
-1.574347810834861
 30
0.0
  0
LINE
  5
91
330
1F
100
AcDbEntity
  8
0
  6
Continuous
 62
     7
370
    25
100
AcDbLine
 10
73.4086456914
 20
-1.5743543604
 30
0.0
 11
73.4086456914
 21
-1.6726992522
 31
0.0
  0
LINE
  5
92
330
1F
100
AcDbEntity
  8
0
  6
Continuous
 62
     7
370
    25
100
AcDbLine
 10
73.4086456914
 20
-1.6726992522
 30
0.0
 11
74.4079718618
 21
-1.6359949577
 31
0.0
  0
LINE
  5
93
330
1F
100
AcDbEntity
  8
0
  6
Continuous
 62
     7
370
    25
100
AcDbLine
 10
75.6071632662
 20
-1.5919498044
 30
0.0
 11
75.6071632662
 21
-1.4933766111
 31
0.0
  0
SPLINE
  5
94
330
1F
100
AcDbEntity
  8
0
  6
Continuous
 62
     7
370
    25
100
AcDbSpline
210
0.0
220
0.0
230
1.0
 70
     8
 71
     3
 72
     8
 73
     4
 74
     0
 42
0.00000001
 43
0.00000001
 40
0.2552630333297791
 40
0.2552630333297791
 40
0.2552630333297791
 40
0.2552630333297791
 40
0.2617529447982638
 40
0.2617529447982638
 40
0.2617529447982638
 40
0.2617529447982638
 10
75.60716335923415
 20
-1.493379136194762
 30
0.0
 10
75.27405503801522
 20
-1.505651190740869
 30
0.0
 10
74.94094644650163
 20
-1.517924638171477
 30
0.0
 10
74.60783742916425
 20
-1.530195065207178
 30
0.0
  0
LINE
  5
95
330
1F
100
AcDbEntity
  8
0
  6
Continuous
 62
     7
370
    25
100
AcDbLine
 10
74.6078370958
 20
-1.5301860162
 30
0.0
 11
74.6078370958
 21
-1.6286540988
 31
0.0
  0
LINE
  5
96
330
1F
100
AcDbEntity
  8
0
  6
Continuous
 62
     7
370
    25
100
AcDbLine
 10
74.6078370958
 20
-1.6286540988
 30
0.0
 11
75.6071632662
 21
-1.5919498044
 31
0.0
  0
LINE
  5
97
330
1F
100
AcDbEntity
  8
0
  6
Continuous
 62
     7
370
    25
100
AcDbLine
 10
40.3551282162
 20
-0.0501642102
 30
0.0
 11
39.6316682316
 21
-0.7736241948
 31
0.0
  0
LINE
  5
98
330
1F
100
AcDbEntity
  8
0
  6
Continuous
 62
     7
370
    25
100
AcDbLine
 10
39.6564072529
 20
0.648556753
 30
0.0
 11
40.3551282162
 21
-0.0501642102
 31
0.0
  0
SPLINE
  5
99
330
1F
100
AcDbEntity
  8
0
  6
Continuous
 62
     7
370
    25
100
AcDbSpline
210
0.0
220
0.0
230
1.0
 70
     8
 71
     3
 72
    41
 73
    37
 74
     0
 42
0.00000001
 43
0.00000001
 40
0.5008844402522488
 40
0.5008844402522488
 40
0.5008844402522488
 40
0.5008844402522488
 40
0.5011024805813079
 40
0.5030512990165373
 40
0.5050001174517665
 40
0.5069489358869955
 40
0.5088977543222251
 40
0.5127953911926836
 40
0.5166930280631421
 40
0.5205906649336006
 40
0.5244883018040588
 40
0.5283859386745173
 40
0.5322835755449759
 40
0.5361812124154344
 40
0.5400788492858929
 40
0.5439764861563516
 40
0.5478741230268103
 40
0.5556693967677274
 40
0.5634646705086441
 40
0.5712599442495612
 40
0.5790552179904783
 40
0.5868504917313957
 40
0.5946457654723127
 40
0.6024410392132294
 40
0.6102363129541466
 40
0.625826860435981
 40
0.6414174079178149
 40
0.6570079553996491
 40
0.6725985028814833
 40
0.6881890503633172
 40
0.7037795978451515
 40
0.7193701453269854
 40
0.7349606928088196
 40
0.7505512402906539
 40
0.7661417877724879
 40
0.771279205932523
 40
0.771279205932523
 40
0.771279205932523
 40
0.771279205932523
 10
39.65640473718896
 20
0.6485592683082563
 30
0.0
 10
39.66295324774104
 20
0.6576462966784367
 30
0.0
 10
39.72858120123093
 20
0.7475538473209812
 30
0.0
 10
39.8629107213266
 20
0.9110186856353065
 30
0.0
 10
40.06743417656283
 20
1.130975087409567
 30
0.0
 10
40.27930813790172
 20
1.343829248051302
 30
0.0
 10
40.5648791133443
 20
1.624448977248796
 30
0.0
 10
40.93470591853803
 20
1.962110792892494
 30
0.0
 10
41.40928062212566
 20
2.331041914970995
 30
0.0
 10
41.90943612936519
 20
2.664138363780557
 30
0.0
 10
42.42954050223795
 20
2.964968541046416
 30
0.0
 10
42.96294325317273
 20
3.241253877852453
 30
0.0
 10
43.50732067901067
 20
3.495244737808291
 30
0.0
 10
44.0598048205397
 20
3.730913735318295
 30
0.0
 10
44.61840725222632
 20
3.951673263042811
 30
0.0
 10
45.18187387344231
 20
4.159638617472354
 30
0.0
 10
45.93781100955884
 20
4.423946724888559
 30
0.0
 10
46.8906371164457
 20
4.731196502874068
 30
0.0
 10
48.04595286408053
 20
5.0605480334527
 30
0.0
 10
49.21062173085899
 20
5.354939130214043
 30
0.0
 10
50.38265813257743
 20
5.618361399358639
 30
0.0
 10
51.56067145404576
 20
5.853571759919115
 30
0.0
 10
52.74398702513375
 20
6.060460053429915
 30
0.0
 10
53.93205326424408
 20
6.238125261478492
 30
0.0
 10
55.52173156302443
 20
6.434030213628469
 30
0.0
 10
57.51636532585952
 20
6.610128559320883
 30
0.0
 10
59.91542002652929
 20
6.739565241125807
 30
0.0
 10
62.31651313078207
 20
6.819052673713928
 30
0.0
 10
64.71835918389671
 20
6.869425759956471
 30
0.0
 10
67.12076404296097
 20
6.880190831073646
 30
0.0
 10
69.52295517984494
 20
6.846512322733141
 30
0.0
 10
71.92392113725538
 20
6.762409683623021
 30
0.0
 10
74.32288053872658
 20
6.634339246424797
 30
0.0
 10
76.71938743486311
 20
6.466716885049624
 30
0.0
 10
78.57821317202502
 20
6.309962834003906
 30
0.0
 10
79.63817765422569
 20
6.21046056507161
 30
0.0
 10
79.90083023937805
 20
6.185184938801266
 30
0.0
  0
LINE
  5
9A
330
1F
100
AcDbEntity
  8
0
  6
Continuous
 62
     7
370
    25
100
AcDbLine
 10
79.900829426
 20
3.9498357898
 30
0.0
 11
79.900829426
 21
6.1851764867
 31
0.0
  0
LINE
  5
9B
330
1F
100
AcDbEntity
  8
0
  6
Continuous
 62
     7
370
    25
100
AcDbLine
 10
79.900829426
 20
3.9498357898
 30
0.0
 11
77.900829414
 21
3.9498357898
 31
0.0
  0
LINE
  5
9C
330
1F
100
AcDbEntity
  8
0
  6
Continuous
 62
     7
370
    25
100
AcDbLine
 10
77.900829414
 20
0.9498357898
 30
0.0
 11
77.900829414
 21
3.9498357898
 31
0.0
  0
LINE
  5
9D
330
1F
100
AcDbEntity
  8
0
  6
Continuous
 62
     7
370
    25
100
AcDbLine
 10
79.900829426
 20
0.9498357898
 30
0.0
 11
77.900829414
 21
0.9498357898
 31
0.0
  0
LINE
  5
9E
330
1F
100
AcDbEntity
  8
0
  6
Continuous
 62
     7
370
    25
100
AcDbLine
 10
79.900829426
 20
-1.3354366988
 30
0.0
 11
79.900829426
 21
0.9498357898
 31
0.0
  0
SPLINE
  5
9F
330
1F
100
AcDbEntity
  8
0
  6
Continuous
 62
     7
370
    25
100
AcDbSpline
210
0.0
220
0.0
230
1.0
 70
     8
 71
     3
 72
    10
 73
     6
 74
     0
 42
0.00000001
 43
0.00000001
 40
0.2273786350144414
 40
0.2273786350144414
 40
0.2273786350144414
 40
0.2273786350144414
 40
0.2360631733901277
 40
0.2516537208719618
 40
0.2539650495955437
 40
0.2539650495955437
 40
0.2539650495955437
 40
0.2539650495955437
 10
79.90082940198015
 20
-1.335436044165859
 30
0.0
 10
79.45507920205247
 20
-1.351804460892214
 30
0.0
 10
78.20911379857709
 20
-1.397574992007303
 30
0.0
 10
76.84451313824525
 20
-1.447798594081975
 30
0.0
 10
75.92566230194419
 20
-1.481645767502693
 30
0.0
 10
75.80702854259027
 20
-1.486016097748031
 30
0.0
  0
LINE
  5
A0
330
1F
100
AcDbEntity
  8
0
  6
Continuous
 62
     7
370
    25
100
AcDbLine
 10
75.8070285003
 20
-1.4860149487
 30
0.0
 11
75.8070285003
 21
-10.0000000001
 31
0.0
  0
LINE
  5
A1
330
1F
100
AcDbEntity
  8
0
  6
Continuous
 62
     7
370
    25
100
AcDbLine
 10
75.8070285003
 20
-10.0000000001
 30
0.0
 11
71.8070285091
 21
-10.0000000001
 31
0.0
  0
LINE
  5
A2
330
1F
100
AcDbEntity
  8
0
  6
Continuous
 62
     7
370
    25
100
AcDbLine
 10
71.8070285091
 20
-10.0000000001
 30
0.0
 11
71.8070285091
 21
-1.7315251195
 31
0.0
  0
LINE
  5
A3
330
1F
100
AcDbEntity
  8
0
  6
Continuous
 62
     7
370
    25
100
AcDbLine
 10
71.8070285091
 20
-1.7315251195
 30
0.0
 11
72.0095890529
 21
-1.7240852644
 31
0.0
  0
LINE
  5
A4
330
1F
100
AcDbEntity
  8
0
  6
Continuous
 62
     7
370
    25
100
AcDbLine
 10
72.0095890529
 20
-1.7240852644
 30
0.0
 11
72.0095890529
 21
-1.6257656283
 31
0.0
  0
SPLINE
  5
A5
330
1F
100
AcDbEntity
  8
0
  6
Continuous
 62
     7
370
    25
100
AcDbSpline
210
0.0
220
0.0
230
1.0
 70
     8
 71
     3
 72
    14
 73
    10
 74
     0
 42
0.00000001
 43
0.00000001
 40
0.2786266283478145
 40
0.2786266283478145
 40
0.2786266283478145
 40
0.2786266283478145
 40
0.28283481583563
 40
0.2984253633174643
 40
0.3140159107992984
 40
0.3296064582811324
 40
0.3451970057629666
 40
0.3607875532448007
 40
0.3744504822717463
 40
0.3744504822717463
 40
0.3744504822717463
 40
0.3744504822717463
 10
72.00958893450283
 20
-1.625762402153141
 30
0.0
 10
71.79359228713541
 20
-1.633688269380153
 30
0.0
 10
70.77736677457044
 20
-1.670947592687647
 30
0.0
 10
68.96089671928051
 20
-1.73723821244686
 30
0.0
 10
66.56015600867819
 20
-1.824171581504185
 30
0.0
 10
64.1594334399575
 20
-1.911832004664314
 30
0.0
 10
61.75878133069973
 20
-2.001632599395827
 30
0.0
 10
59.45716320406851
 20
-2.090382998862934
 30
0.0
 10
57.95556621879285
 20
-2.144097310806549
 30
0.0
 10
57.25417641514083
 20
-2.167277190203889
 30
0.0
  0
LINE
  5
A6
330
1F
100
AcDbEntity
  8
0
  6
Continuous
 62
     7
370
    25
100
AcDbLine
 10
57.2541764151
 20
-2.1672771902
 30
0.0
 11
57.2541764151
 21
-10.0000000001
 31
0.0
  0
LINE
  5
A7
330
1F
100
AcDbEntity
  8
0
  6
Continuous
 62
     7
370
    25
100
AcDbLine
 10
57.2541764151
 20
-10.0000000001
 30
0.0
 11
53.2541764177
 21
-10.0000000001
 31
0.0
  0
LINE
  5
A8
330
1F
100
AcDbEntity
  8
0
  6
Continuous
 62
     7
370
    25
100
AcDbLine
 10
53.2541764177
 20
-10.0000000001
 30
0.0
 11
53.2541764177
 21
-2.5635629401
 31
0.0
  0
LINE
  5
A9
330
1F
100
AcDbEntity
  8
0
  6
Continuous
 62
     7
370
    25
100
AcDbLine
 10
53.2541764177
 20
-2.5635629401
 30
0.0
 11
53.4553520185
 21
-2.5585576448
 31
0.0
  0
LINE
  5
AA
330
1F
100
AcDbEntity
  8
0
  6
Continuous
 62
     7
370
    25
100
AcDbLine
 10
53.4553520185
 20
-2.5585576448
 30
0.0
 11
53.4553520185
 21
-2.267927465
 31
0.0
  0
SPLINE
  5
AB
330
1F
100
AcDbEntity
  8
0
  6
Continuous
 62
     7
370
    25
100
AcDbSpline
210
0.0
220
0.0
230
1.0
 70
     8
 71
     3
 72
    25
 73
    21
 74
     0
 42
0.00000001
 43
0.00000001
 40
0.3991126158014131
 40
0.3991126158014131
 40
0.3991126158014131
 40
0.3991126158014131
 40
0.399763921949386
 40
0.407559195690303
 40
0.4153544694312202
 40
0.4231497431721372
 40
0.4309450169130543
 40
0.4387402906539714
 40
0.4465355643948884
 40
0.4543308381358056
 40
0.4621261118767225
 40
0.466023748747181
 40
0.4699213856176396
 40
0.4738190224880983
 40
0.4777166593585567
 40
0.4816142962290151
 40
0.4855119330994737
 40
0.4874607515347029
 40
0.4894095699699322
 40
0.4907390905858624
 40
0.4907390905858624
 40
0.4907390905858624
 40
0.4907390905858624
 10
53.45535200941511
 20
-2.26792746498373
 30
0.0
 10
53.42190421429419
 20
-2.268537386569159
 30
0.0
 10
52.98812830618139
 20
-2.276330915659444
 30
0.0
 10
52.15396938327647
 20
-2.288368639940245
 30
0.0
 10
50.95280776705263
 20
-2.296017953866485
 30
0.0
 10
49.75161161920341
 20
-2.292869901849823
 30
0.0
 10
48.55053253274407
 20
-2.276241817220174
 30
0.0
 10
47.34969137372038
 20
-2.246559028371022
 30
0.0
 10
46.14944920331506
 20
-2.197829903075085
 30
0.0
 10
44.94982674649501
 20
-2.137437544965612
 30
0.0
 10
43.95085195524607
 20
-2.071325539221172
 30
0.0
 10
43.15471966719274
 20
-1.983683160970131
 30
0.0
 10
42.56008542881321
 20
-1.898515641263544
 30
0.0
 10
41.96966438760776
 20
-1.788104375004667
 30
0.0
 10
41.38029813484256
 20
-1.672447241699859
 30
0.0
 10
40.79470895868065
 20
-1.537778245858666
 30
0.0
 10
40.32833037955071
 20
-1.347128830115439
 30
0.0
 10
39.99425905098906
 20
-1.124616181709027
 30
0.0
 10
39.78944697922226
 20
-0.9502759497675722
 30
0.0
 10
39.6750283719127
 20
-0.8263769983530347
 30
0.0
 10
39.63166306623538
 20
-0.7736293601411964
 30
0.0
  0
ENDSEC
  0
SECTION
  2
OBJECTS
  0
DICTIONARY
  5
C
330
0
100
AcDbDictionary
281
     1
  3
ACAD_GROUP
350
D
  3
ACAD_LAYOUT
350
1A
  3
ACAD_MLINESTYLE
350
17
  3
ACAD_PLOTSETTINGS
350
19
  3
ACAD_PLOTSTYLENAME
350
E
  3
ACAD_SCALELIST
350
47
  3
DWGPROPS
350
AC
  0
DICTIONARY
  5
D
102
{ACAD_REACTORS
330
C
102
}
330
C
100
AcDbDictionary
281
     1
  0
DICTIONARY
  5
1A
102
{ACAD_REACTORS
330
C
102
}
330
C
100
AcDbDictionary
281
     1
  3
Layout1
350
1E
  3
Layout2
350
26
  3
Model
350
22
  0
DICTIONARY
  5
17
102
{ACAD_REACTORS
330
C
102
}
330
C
100
AcDbDictionary
281
     1
  3
Standard
350
18
  0
DICTIONARY
  5
19
102
{ACAD_REACTORS
330
C
102
}
330
C
100
AcDbDictionary
281
     1
  0
ACDBDICTIONARYWDFLT
  5
E
102
{ACAD_REACTORS
330
C
102
}
330
C
100
AcDbDictionary
281
     1
  3
Normal
350
F
100
AcDbDictionaryWithDefault
340
F
  0
DICTIONARY
  5
47
102
{ACAD_REACTORS
330
C
102
}
330
C
100
AcDbDictionary
281
     1
  3
A0
350
48
  3
A1
350
49
  3
A2
350
4A
  3
A3
350
4B
  3
A4
350
4C
  3
A5
350
4D
  3
A6
350
4E
  3
A7
350
4F
  3
A8
350
50
  3
A9
350
51
  3
B0
350
52
  3
B1
350
53
  3
B2
350
54
  3
B3
350
55
  3
B4
350
56
  3
B5
350
57
  3
B6
350
58
  0
XRECORD
  5
AC
102
{ACAD_REACTORS
330
C
102
}
330
C
100
AcDbXrecord
280
     1
  1
DWGPROPS COOKIE
  2

  3

  4

  6

  7

  8
CX_in_command
  9

300
=
301
=
302
=
303
=
304
=
305
=
306
=
307
=
308
=
309
=
 40
0.0
 41
2461083.077778044
 42
2461083.077828472
  1

 90
        0
  0
LAYOUT
  5
1E
102
{ACAD_REACTORS
330
1A
102
}
330
1A
100
AcDbPlotSettings
  1

  2
none_device
  4

  6

 40
0.0
 41
0.0
 42
0.0
 43
0.0
 44
0.0
 45
0.0
 46
0.0
 47
0.0
 48
0.0
 49
0.0
140
0.0
141
0.0
142
1.0
143
1.0
 70
   688
 72
     1
 73
     0
 74
     5
  7

 75
    16
147
1.0
148
0.0
149
0.0
100
AcDbLayout
  1
Layout1
 70
     1
 71
     1
 10
0.0
 20
0.0
 11
420.0
 21
297.0
 12
0.0
 22
0.0
 32
0.0
 14
1.0000000000E+20
 24
1.0000000000E+20
 34
1.0000000000E+20
 15
-1.0000000000E+20
 25
-1.0000000000E+20
 35
-1.0000000000E+20
146
0.0
 13
0.0
 23
0.0
 33
0.0
 16
1.0
 26
0.0
 36
0.0
 17
0.0
 27
1.0
 37
0.0
 76
     0
330
1B
  0
LAYOUT
  5
26
102
{ACAD_REACTORS
330
1A
102
}
330
1A
100
AcDbPlotSettings
  1

  2
none_device
  4

  6

 40
0.0
 41
0.0
 42
0.0
 43
0.0
 44
0.0
 45
0.0
 46
0.0
 47
0.0
 48
0.0
 49
0.0
140
0.0
141
0.0
142
1.0
143
1.0
 70
   688
 72
     1
 73
     0
 74
     5
  7

 75
    16
147
1.0
148
0.0
149
0.0
100
AcDbLayout
  1
Layout2
 70
     1
 71
     2
 10
0.0
 20
0.0
 11
0.0
 21
0.0
 12
0.0
 22
0.0
 32
0.0
 14
0.0
 24
0.0
 34
0.0
 15
0.0
 25
0.0
 35
0.0
146
0.0
 13
0.0
 23
0.0
 33
0.0
 16
1.0
 26
0.0
 36
0.0
 17
0.0
 27
1.0
 37
0.0
 76
     0
330
23
  0
LAYOUT
  5
22
102
{ACAD_REACTORS
330
1A
102
}
330
1A
100
AcDbPlotSettings
  1

  2
none_device
  4
ANSI_A_(11.00_x_8.50_Inches)
  6

 40
6.35
 41
19.05
 42
6.35000508
 43
19.05000254
 44
279.4
 45
215.9
 46
-277.1800328872
 47
99.6948481462
 48
0.0
 49
0.0
140
0.0
141
0.0
142
0.2704302265
143
1.0
 70
  1696
 72
     0
 73
     0
 74
     0
  7

 75
     0
147
0.0179189148
148
-1300.4909072572
149
0.0
100
AcDbLayout
  1
Model
 70
     1
 71
     0
 10
0.0
 20
0.0
 11
420.0
 21
297.0
 12
0.0
 22
0.0
 32
0.0
 14
39.6316630662
 24
-10.0000000001
 34
0.0
 15
79.9008302394
 25
6.8569040748
 35
0.0
146
0.0
 13
0.0
 23
0.0
 33
0.0
 16
1.0
 26
0.0
 36
0.0
 17
0.0
 27
1.0
 37
0.0
 76
     0
330
1F
331
29
  0
MLINESTYLE
  5
18
102
{ACAD_REACTORS
330
17
102
}
330
17
100
AcDbMlineStyle
  2
Standard
 70
     0
  3

 62
   256
 51
90.0
 52
90.0
 71
     2
 49
0.5
 62
   256
  6
BYLAYER
 49
-0.5
 62
   256
  6
BYLAYER
  0
ACDBPLACEHOLDER
  5
F
102
{ACAD_REACTORS
330
E
102
}
330
E
  0
SCALE
  5
48
102
{ACAD_REACTORS
330
47
102
}
330
47
100
AcDbScale
 70
     0
300
1:1
140
1.0
141
1.0
290
     1
  0
SCALE
  5
49
102
{ACAD_REACTORS
330
47
102
}
330
47
100
AcDbScale
 70
     0
300
1:2
140
1.0
141
2.0
290
     0
  0
SCALE
  5
4A
102
{ACAD_REACTORS
330
47
102
}
330
47
100
AcDbScale
 70
     0
300
1:4
140
1.0
141
4.0
290
     0
  0
SCALE
  5
4B
102
{ACAD_REACTORS
330
47
102
}
330
47
100
AcDbScale
 70
     0
300
1:5
140
1.0
141
5.0
290
     0
  0
SCALE
  5
4C
102
{ACAD_REACTORS
330
47
102
}
330
47
100
AcDbScale
 70
     0
300
1:8
140
1.0
141
8.0
290
     0
  0
SCALE
  5
4D
102
{ACAD_REACTORS
330
47
102
}
330
47
100
AcDbScale
 70
     0
300
1:10
140
1.0
141
10.0
290
     0
  0
SCALE
  5
4E
102
{ACAD_REACTORS
330
47
102
}
330
47
100
AcDbScale
 70
     0
300
1:16
140
1.0
141
16.0
290
     0
  0
SCALE
  5
4F
102
{ACAD_REACTORS
330
47
102
}
330
47
100
AcDbScale
 70
     0
300
1:20
140
1.0
141
20.0
290
     0
  0
SCALE
  5
50
102
{ACAD_REACTORS
330
47
102
}
330
47
100
AcDbScale
 70
     0
300
1:30
140
1.0
141
30.0
290
     0
  0
SCALE
  5
51
102
{ACAD_REACTORS
330
47
102
}
330
47
100
AcDbScale
 70
     0
300
1:40
140
1.0
141
40.0
290
     0
  0
SCALE
  5
52
102
{ACAD_REACTORS
330
47
102
}
330
47
100
AcDbScale
 70
     0
300
1:50
140
1.0
141
50.0
290
     0
  0
SCALE
  5
53
102
{ACAD_REACTORS
330
47
102
}
330
47
100
AcDbScale
 70
     0
300
1:100
140
1.0
141
100.0
290
     0
  0
SCALE
  5
54
102
{ACAD_REACTORS
330
47
102
}
330
47
100
AcDbScale
 70
     0
300
2:1
140
2.0
141
1.0
290
     0
  0
SCALE
  5
55
102
{ACAD_REACTORS
330
47
102
}
330
47
100
AcDbScale
 70
     0
300
4:1
140
4.0
141
1.0
290
     0
  0
SCALE
  5
56
102
{ACAD_REACTORS
330
47
102
}
330
47
100
AcDbScale
 70
     0
300
8:1
140
8.0
141
1.0
290
     0
  0
SCALE
  5
57
102
{ACAD_REACTORS
330
47
102
}
330
47
100
AcDbScale
 70
     0
300
10:1
140
10.0
141
1.0
290
     0
  0
SCALE
  5
58
102
{ACAD_REACTORS
330
47
102
}
330
47
100
AcDbScale
 70
     0
300
100:1
140
100.0
141
1.0
290
     0
  0
ENDSEC
  0
EOF
