  0
SECTION
  2
HEADER
  9
$ACADVER
  1
AC1015
  9
$ACADMAINTVER
 70
     6
  9
$DWGCODEPAGE
  3
ANSI_936
  9
$INSBASE
 10
0.0
 20
0.0
 30
0.0
  9
$EXTMIN
 10
-329.0
 20
-10.0
 30
0.0
  9
$EXTMAX
 10
6.0
 20
7.0535565625
 30
0.0
  9
$LIMMIN
 10
0.0
 20
0.0
  9
$LIMMAX
 10
420.0
 20
297.0
  9
$ORTHOMODE
 70
     0
  9
$REGENMODE
 70
     1
  9
$FILLMODE
 70
     1
  9
$QTEXTMODE
 70
     0
  9
$MIRRTEXT
 70
     1
  9
$LTSCALE
 40
1.0
  9
$ATTMODE
 70
     1
  9
$TEXTSIZE
 40
3.5
  9
$TRACEWID
 40
1.0
  9
$TEXTSTYLE
  7
Standard
  9
$CLAYER
  8
0
  9
$CELTYPE
  6
ByLayer
  9
$CECOLOR
 62
   256
  9
$CELTSCALE
 40
1.0
  9
$DISPSILH
 70
     0
  9
$DIMSCALE
 40
1.0
  9
$DIMASZ
 40
4.08
  9
$DIMEXO
 40
0.0
  9
$DIMDLI
 40
3.75
  9
$DIMRND
 40
0.0
  9
$DIMDLE
 40
0.0
  9
$DIMEXE
 40
2.0
  9
$DIMTP
 40
0.0
  9
$DIMTM
 40
0.0
  9
$DIMTXT
 40
3.5
  9
$DIMCEN
 40
2.5
  9
$DIMTSZ
 40
0.0
  9
$DIMTOL
 70
     0
  9
$DIMLIM
 70
     0
  9
$DIMTIH
 70
     1
  9
$DIMTOH
 70
     1
  9
$DIMSE1
 70
     0
  9
$DIMSE2
 70
     0
  9
$DIMTAD
 70
     1
  9
$DIMZIN
 70
     0
  9
$DIMBLK
  1

  9
$DIMASO
 70
     1
  9
$DIMSHO
 70
     1
  9
$DIMPOST
  1

  9
$DIMAPOST
  1

  9
$DIMALT
 70
     0
  9
$DIMALTD
 70
     3
  9
$DIMALTF
 40
0.0393700787
  9
$DIMLFAC
 40
1.0
  9
$DIMTOFL
 70
     1
  9
$DIMTVP
 40
0.0
  9
$DIMTIX
 70
     0
  9
$DIMSOXD
 70
     0
  9
$DIMSAH
 70
     0
  9
$DIMBLK1
  1

  9
$DIMBLK2
  1

  9
$DIMSTYLE
  2
ISO-25
  9
$DIMCLRD
 70
     0
  9
$DIMCLRE
 70
     0
  9
$DIMCLRT
 70
     0
  9
$DIMTFAC
 40
1.0
  9
$DIMGAP
 40
1.524
  9
$DIMJUST
 70
     0
  9
$DIMSD1
 70
     0
  9
$DIMSD2
 70
     0
  9
$DIMTOLJ
 70
     0
  9
$DIMTZIN
 70
     0
  9
$DIMALTZ
 70
     0
  9
$DIMALTTZ
 70
     0
  9
$DIMUPT
 70
     0
  9
$DIMDEC
 70
     2
  9
$DIMTDEC
 70
     2
  9
$DIMALTU
 70
     2
  9
$DIMALTTD
 70
     3
  9
$DIMTXSTY
  7
Standard
  9
$DIMAUNIT
 70
     0
  9
$DIMADEC
 70
     2
  9
$DIMALTRND
 40
0.0
  9
$DIMAZIN
 70
     0
  9
$DIMDSEP
 70
    44
  9
$DIMATFIT
 70
     3
  9
$DIMFRAC
 70
     0
  9
$DIMLDRBLK
  1

  9
$DIMLUNIT
 70
     2
  9
$DIMLWD
 70
    -2
  9
$DIMLWE
 70
    -2
  9
$DIMTMOVE
 70
     0
  9
$LUNITS
 70
     2
  9
$LUPREC
 70
     2
  9
$SKETCHINC
 40
1.0
  9
$FILLETRAD
 40
0.0
  9
$AUNITS
 70
     0
  9
$AUPREC
 70
     2
  9
$MENU
  1
.
  9
$ELEVATION
 40
0.0
  9
$PELEVATION
 40
0.0
  9
$THICKNESS
 40
0.0
  9
$LIMCHECK
 70
     0
  9
$CHAMFERA
 40
0.0
  9
$CHAMFERB
 40
0.0
  9
$CHAMFERC
 40
0.0
  9
$CHAMFERD
 40
0.0
  9
$SKPOLY
 70
     0
  9
$TDCREATE
 40
2461083.412568738
  9
$TDUCREATE
 40
2461083.079235405
  9
$TDUPDATE
 40
2461083.412821215
  9
$TDUUPDATE
 40
2461083.079487882
  9
$TDINDWG
 40
0.0000000116
  9
$TDUSRTIMER
 40
0.0000000116
  9
$USRTIMER
 70
     1
  9
$ANGBASE
 50
0.0
  9
$ANGDIR
 70
     0
  9
$PDMODE
 70
     0
  9
$PDSIZE
 40
-1.0
  9
$PLINEWID
 40
0.0
  9
$SPLFRAME
 70
     0
  9
$SPLINETYPE
 70
     6
  9
$SPLINESEGS
 70
     8
  9
$HANDSEED
  5
E2
  9
$SURFTAB1
 70
     6
  9
$SURFTAB2
 70
     6
  9
$SURFTYPE
 70
     6
  9
$SURFU
 70
     6
  9
$SURFV
 70
     6
  9
$UCSBASE
  2

  9
$UCSNAME
  2

  9
$UCSORG
 10
0.0
 20
0.0
 30
0.0
  9
$UCSXDIR
 10
1.0
 20
0.0
 30
0.0
  9
$UCSYDIR
 10
0.0
 20
1.0
 30
0.0
  9
$UCSORTHOREF
  2

  9
$UCSORTHOVIEW
 70
     0
  9
$UCSORGTOP
 10
0.0
 20
0.0
 30
0.0
  9
$UCSORGBOTTOM
 10
0.0
 20
0.0
 30
0.0
  9
$UCSORGLEFT
 10
0.0
 20
0.0
 30
0.0
  9
$UCSORGRIGHT
 10
0.0
 20
0.0
 30
0.0
  9
$UCSORGFRONT
 10
0.0
 20
0.0
 30
0.0
  9
$UCSORGBACK
 10
0.0
 20
0.0
 30
0.0
  9
$PUCSBASE
  2

  9
$PUCSNAME
  2

  9
$PUCSORG
 10
0.0
 20
0.0
 30
0.0
  9
$PUCSXDIR
 10
1.0
 20
0.0
 30
0.0
  9
$PUCSYDIR
 10
0.0
 20
1.0
 30
0.0
  9
$PUCSORTHOREF
  2

  9
$PUCSORTHOVIEW
 70
     0
  9
$PUCSORGTOP
 10
0.0
 20
0.0
 30
0.0
  9
$PUCSORGBOTTOM
 10
0.0
 20
0.0
 30
0.0
  9
$PUCSORGLEFT
 10
0.0
 20
0.0
 30
0.0
  9
$PUCSORGRIGHT
 10
0.0
 20
0.0
 30
0.0
  9
$PUCSORGFRONT
 10
0.0
 20
0.0
 30
0.0
  9
$PUCSORGBACK
 10
0.0
 20
0.0
 30
0.0
  9
$USERI1
 70
     0
  9
$USERI2
 70
     0
  9
$USERI3
 70
     0
  9
$USERI4
 70
     0
  9
$USERI5
 70
     0
  9
$USERR1
 40
0.0
  9
$USERR2
 40
0.0
  9
$USERR3
 40
0.0
  9
$USERR4
 40
0.0
  9
$USERR5
 40
0.0
  9
$WORLDVIEW
 70
     1
  9
$SHADEDGE
 70
     3
  9
$SHADEDIF
 70
    70
  9
$TILEMODE
 70
     1
  9
$MAXACTVP
 70
    64
  9
$PINSBASE
 10
0.0
 20
0.0
 30
0.0
  9
$PLIMCHECK
 70
     0
  9
$PEXTMIN
 10
1.0000000000E+20
 20
1.0000000000E+20
 30
1.0000000000E+20
  9
$PEXTMAX
 10
-1.0000000000E+20
 20
-1.0000000000E+20
 30
-1.0000000000E+20
  9
$PLIMMIN
 10
0.0
 20
0.0
  9
$PLIMMAX
 10
420.0
 20
297.0
  9
$UNITMODE
 70
     0
  9
$VISRETAIN
 70
     1
  9
$PLINEGEN
 70
     0
  9
$PSLTSCALE
 70
     1
  9
$TREEDEPTH
 70
  3020
  9
$CMLSTYLE
  2
Standard
  9
$CMLJUST
 70
     0
  9
$CMLSCALE
 40
20.0
  9
$PROXYGRAPHICS
 70
     1
  9
$MEASUREMENT
 70
     1
  9
$CELWEIGHT
370
    -1
  9
$ENDCAPS
280
     0
  9
$JOINSTYLE
280
     0
  9
$LWDISPLAY
290
     1
  9
$INSUNITS
 70
     4
  9
$HYPERLINKBASE
  1

  9
$STYLESHEET
  1

  9
$XEDIT
290
     1
  9
$CEPSNTYPE
380
     0
  9
$PSTYLEMODE
290
     1
  9
$FINGERPRINTGUID
  2
{dd880be6-0f6b-449e-a3c3-56d4c47cf2f3}
  9
$VERSIONGUID
  2
{FAEB1C32-E019-11D5-929B-00C0DF256EC4}
  9
$EXTNAMES
290
     1
  9
$PSVPSCALE
 40
0.0
  9
$OLESTARTUP
290
     0
  0
ENDSEC
  0
SECTION
  2
CLASSES
  0
CLASS
  1
ACDBDICTIONARYWDFLT
  2
AcDbDictionaryWithDefault
  3
ObjectDBX Classes
 90
        0
280
     0
281
     0
  0
CLASS
  1
VISUALSTYLE
  2
AcDbVisualStyle
  3
ObjectDBX Classes
 90
     4095
280
     0
281
     0
  0
CLASS
  1
MATERIAL
  2
AcDbMaterial
  3
ObjectDBX Classes
 90
     1153
280
     0
281
     0
  0
CLASS
  1
SCALE
  2
AcDbScale
  3
ObjectDBX Classes
 90
     1153
280
     0
281
     0
  0
CLASS
  1
TABLESTYLE
  2
AcDbTableStyle
  3
ObjectDBX Classes
 90
     4095
280
     0
281
     0
  0
CLASS
  1
MLEADERSTYLE
  2
AcDbMLeaderStyle
  3
ACDB_MLEADERSTYLE_CLASS
 90
     4095
280
     0
281
     0
  0
CLASS
  1
SUN
  2
AcDbSun
  3
SCENEOE
 90
     1153
280
     0
281
     0
  0
CLASS
  1
ACDBPLACEHOLDER
  2
AcDbPlaceHolder
  3
ObjectDBX Classes
 90
        0
280
     0
281
     0
  0
CLASS
  1
LAYOUT
  2
AcDbLayout
  3
ObjectDBX Classes
 90
        0
280
     0
281
     0
  0
ENDSEC
  0
SECTION
  2
TABLES
  0
TABLE
  2
VPORT
  5
8
330
0
100
AcDbSymbolTable
 70
     1
  0
VPORT
  5
29
330
8
100
AcDbSymbolTableRecord
100
AcDbViewportTableRecord
  2
*Active
 70
     0
 10
0.0
 20
0.0
 11
1.0
 21
1.0
 12
-161.5
 22
-1.4732217188
 13
0.0
 23
0.0
 14
10.0
 24
10.0
 15
10.0
 25
10.0
 16
0.0
 26
0.0
 36
1.0
 17
0.0
 27
0.0
 37
0.0
 40
17.3946276937
 41
19.6439961818
 42
50.0
 43
0.0
 44
0.0
 50
0.0
 51
0.0
 71
     0
 72
   100
 73
     1
 74
     3
 75
     0
 76
     0
 77
     0
 78
     0
281
     0
 65
     1
110
0.0
120
0.0
130
0.0
111
1.0
121
0.0
131
0.0
112
0.0
122
1.0
132
0.0
 79
     0
146
0.0
  0
ENDTAB
  0
TABLE
  2
LTYPE
  5
5
330
0
100
AcDbSymbolTable
 70
     6
  0
LTYPE
  5
14
330
5
100
AcDbSymbolTableRecord
100
AcDbLinetypeTableRecord
  2
ByBlock
 70
     0
  3

 72
    65
 73
     0
 40
0.0
  0
LTYPE
  5
15
330
5
100
AcDbSymbolTableRecord
100
AcDbLinetypeTableRecord
  2
ByLayer
 70
     0
  3

 72
    65
 73
     0
 40
0.0
  0
LTYPE
  5
16
330
5
100
AcDbSymbolTableRecord
100
AcDbLinetypeTableRecord
  2
Continuous
 70
     0
  3
Solid line
 72
    65
 73
     0
 40
0.0
  0
LTYPE
  5
5E
330
5
100
AcDbSymbolTableRecord
100
AcDbLinetypeTableRecord
  2
HIDDEN
 70
     0
  3
Hidden __ __ __ __ __ __ __ __ __ __ __ __ __ __
 72
    65
 73
     2
 40
1.905
 49
1.27
 74
     0
 49
-0.635
 74
     0
  0
LTYPE
  5
5F
330
5
100
AcDbSymbolTableRecord
100
AcDbLinetypeTableRecord
  2
PHANTOM
 70
     0
  3
Phantom ______  __  __  ______  __  __  ______
 72
    65
 73
     6
 40
12.7
 49
6.35
 74
     0
 49
-1.27
 74
     0
 49
1.27
 74
     0
 49
-1.27
 74
     0
 49
1.27
 74
     0
 49
-1.27
 74
     0
  0
LTYPE
  5
60
330
5
100
AcDbSymbolTableRecord
100
AcDbLinetypeTableRecord
  2
CENTER
 70
     0
  3
Center ____ _ ____ _ ____ _ ____ _ ____ _ ____
 72
    65
 73
     4
 40
10.16
 49
6.35
 74
     0
 49
-1.27
 74
     0
 49
1.27
 74
     0
 49
-1.27
 74
     0
  0
LTYPE
  5
61
330
5
100
AcDbSymbolTableRecord
100
AcDbLinetypeTableRecord
  2
CENTERX2
 70
     0
  3
Center (2x) ________  __  ________  __  _____
 72
    65
 73
     4
 40
20.32
 49
12.7
 74
     0
 49
-2.54
 74
     0
 49
2.54
 74
     0
 49
-2.54
 74
     0
  0
LTYPE
  5
62
330
5
100
AcDbSymbolTableRecord
100
AcDbLinetypeTableRecord
  2
DOT2
 70
     0
  3
Dot (.5x) ........................................
 72
    65
 73
     2
 40
0.635
 49
0.0
 74
     0
 49
-0.635
 74
     0
  0
ENDTAB
  0
TABLE
  2
LAYER
  5
2
330
0
100
AcDbSymbolTable
 70
     1
  0
LAYER
  5
10
330
2
100
AcDbSymbolTableRecord
100
AcDbLayerTableRecord
  2
0
 70
     0
 62
     7
  6
Continuous
370
    -3
390
F
  0
ENDTAB
  0
TABLE
  2
STYLE
  5
3
330
0
100
AcDbSymbolTable
 70
     1
  0
STYLE
  5
11
330
3
100
AcDbSymbolTableRecord
100
AcDbTextStyleTableRecord
  2
Standard
 70
     0
 40
0.0
 41
1.0
 50
0.0
 71
     0
 42
3.5
  3
txt
  4

  0
ENDTAB
  0
TABLE
  2
VIEW
  5
6
330
0
100
AcDbSymbolTable
 70
     0
  0
ENDTAB
  0
TABLE
  2
UCS
  5
7
330
0
100
AcDbSymbolTable
 70
     0
  0
ENDTAB
  0
TABLE
  2
APPID
  5
9
330
0
100
AcDbSymbolTable
 70
     1
  0
APPID
  5
12
330
9
100
AcDbSymbolTableRecord
100
AcDbRegAppTableRecord
  2
ACAD
 70
     0
  0
ENDTAB
  0
TABLE
  2
DIMSTYLE
  5
A
330
0
100
AcDbSymbolTable
 70
     1
100
AcDbDimStyleTable
  0
DIMSTYLE
105
27
330
A
100
AcDbSymbolTableRecord
100
AcDbDimStyleTableRecord
  2
ISO-25
 70
     0
 41
2.5
 42
0.625
 43
3.75
 44
1.25
 73
     0
 74
     0
 77
     1
 78
     8
140
2.5
141
2.5
143
0.0393700787
147
0.625
171
     3
172
     1
178
     0
271
     2
272
     2
274
     3
278
    44
283
     0
284
     8
340
11
  0
ENDTAB
  0
TABLE
  2
BLOCK_RECORD
  5
1
330
0
100
AcDbSymbolTable
 70
     1
  0
BLOCK_RECORD
  5
1F
330
1
100
AcDbSymbolTableRecord
100
AcDbBlockTableRecord
  2
*Model_Space
340
22
  0
BLOCK_RECORD
  5
1B
330
1
100
AcDbSymbolTableRecord
100
AcDbBlockTableRecord
  2
*Paper_Space
340
1E
  0
BLOCK_RECORD
  5
23
330
1
100
AcDbSymbolTableRecord
100
AcDbBlockTableRecord
  2
*Paper_Space0
340
26
  0
ENDTAB
  0
ENDSEC
  0
SECTION
  2
BLOCKS
  0
BLOCK
  5
20
330
1F
100
AcDbEntity
  8
0
100
AcDbBlockBegin
  2
*Model_Space
 70
     0
 10
0.0
 20
0.0
 30
0.0
  3
*Model_Space
  1

  0
ENDBLK
  5
21
330
1F
100
AcDbEntity
  8
0
100
AcDbBlockEnd
  0
BLOCK
  5
1C
330
1B
100
AcDbEntity
 67
     1
  8
0
100
AcDbBlockBegin
  2
*Paper_Space
 70
     0
 10
0.0
 20
0.0
 30
0.0
  3
*Paper_Space
  1

  0
ENDBLK
  5
1D
330
1B
100
AcDbEntity
 67
     1
  8
0
100
AcDbBlockEnd
  0
BLOCK
  5
24
330
23
100
AcDbEntity
  8
0
100
AcDbBlockBegin
  2
*Paper_Space0
 70
     0
 10
0.0
 20
0.0
 30
0.0
  3
*Paper_Space0
  1

  0
ENDBLK
  5
25
330
23
100
AcDbEntity
  8
0
100
AcDbBlockEnd
  0
ENDSEC
  0
SECTION
  2
ENTITIES
  0
SPLINE
  5
63
330
1F
100
AcDbEntity
  8
0
  6
Continuous
 62
     7
370
    25
100
AcDbSpline
210
0.0
220
0.0
230
1.0
 70
     8
 71
     3
 72
     8
 73
     4
 74
     0
 42
0.00000001
 43
0.00000001
 40
0.3078750803160236
 40
0.3078750803160236
 40
0.3078750803160236
 40
0.3078750803160236
 40
0.3270000000000591
 40
0.3270000000000591
 40
0.3270000000000591
 40
0.3270000000000591
 10
-307.8750803159598
 20
-1.335445615449413
 30
0.0
 10
-314.250053543971
 20
-1.335440314020938
 30
0.0
 10
-320.6250267719844
 20
-1.335436553159089
 30
0.0
 10
-326.9999999999978
 20
-1.335436576423939
 30
0.0
  0
LINE
  5
64
330
1F
100
AcDbEntity
  8
0
  6
Continuous
 62
     7
370
    25
100
AcDbLine
 10
-307.875080316
 20
-1.3354456154
 30
0.0
 11
-307.875080316
 21
-10.0
 31
0.0
  0
LINE
  5
65
330
1F
100
AcDbEntity
  8
0
  6
Continuous
 62
     7
370
    25
100
AcDbLine
 10
-307.875080316
 20
-10.0
 30
0.0
 11
-303.875080316
 21
-10.0
 31
0.0
  0
LINE
  5
66
330
1F
100
AcDbEntity
  8
0
  6
Continuous
 62
     7
370
    25
100
AcDbLine
 10
-303.875080316
 20
-10.0
 30
0.0
 11
-303.875080316
 21
-1.4355513004
 31
0.0
  0
LINE
  5
67
330
1F
100
AcDbEntity
  8
0
  6
Continuous
 62
     7
370
    25
100
AcDbLine
 10
-303.875080316
 20
-1.4355513004
 30
0.0
 11
-304.0750802926
 21
-1.4355513004
 31
0.0
  0
LINE
  5
68
330
1F
100
AcDbEntity
  8
0
  6
Continuous
 62
     7
370
    25
100
AcDbLine
 10
-304.0750802926
 20
-1.4355513004
 30
0.0
 11
-304.0750802926
 21
-1.335448954
 31
0.0
  0
SPLINE
  5
69
330
1F
100
AcDbEntity
  8
0
  6
Continuous
 62
     7
370
    25
100
AcDbSpline
210
0.0
220
0.0
230
1.0
 70
     8
 71
     3
 72
     8
 73
     4
 74
     0
 42
0.00000001
 43
0.00000001
 40
0.2540000000000298
 40
0.2540000000000298
 40
0.2540000000000298
 40
0.2540000000000298
 40
0.3040750802926263
 40
0.3040750802926263
 40
0.3040750802926263
 40
0.3040750802926263
 10
-253.9999999999991
 20
-1.335510993769942
 30
0.0
 10
-270.6916934308523
 20
-1.335489073668915
 30
0.0
 10
-287.3833868617031
 20
-1.335464373634069
 30
0.0
 10
-304.0750802925636
 20
-1.335448953983572
 30
0.0
  0
LINE
  5
6A
330
1F
100
AcDbEntity
  8
0
  6
Continuous
 62
     7
370
    25
100
AcDbLine
 10
-254.0
 20
-1.3355109938
 30
0.0
 11
-254.0
 21
0.9498357898
 31
0.0
  0
LINE
  5
6B
330
1F
100
AcDbEntity
  8
0
  6
Continuous
 62
     7
370
    25
100
AcDbLine
 10
-254.0
 20
0.9498357898
 30
0.0
 11
-252.0
 21
0.9498357898
 31
0.0
  0
LINE
  5
6C
330
1F
100
AcDbEntity
  8
0
  6
Continuous
 62
     7
370
    25
100
AcDbLine
 10
-252.0
 20
0.9498357898
 30
0.0
 11
-252.0
 21
-1.3355136091
 31
0.0
  0
SPLINE
  5
6D
330
1F
100
AcDbEntity
  8
0
  6
Continuous
 62
     7
370
    25
100
AcDbSpline
210
0.0
220
0.0
230
1.0
 70
     8
 71
     3
 72
     8
 73
     4
 74
     0
 42
0.00000001
 43
0.00000001
 40
0.207875080316449
 40
0.207875080316449
 40
0.207875080316449
 40
0.207875080316449
 40
0.252000000000029
 40
0.252000000000029
 40
0.252000000000029
 40
0.252000000000029
 10
-207.875080316441
 20
-1.335561519071503
 30
0.0
 10
-222.5833868776312
 20
-1.335549727137097
 30
0.0
 10
-237.2916934388172
 20
-1.335532757124123
 30
0.0
 10
-251.9999999999997
 20
-1.335513609068841
 30
0.0
  0
LINE
  5
6E
330
1F
100
AcDbEntity
  8
0
  6
Continuous
 62
     7
370
    25
100
AcDbLine
 10
-207.8750803165
 20
-1.3355615191
 30
0.0
 11
-207.8750803165
 21
-10.0
 31
0.0
  0
LINE
  5
6F
330
1F
100
AcDbEntity
  8
0
  6
Continuous
 62
     7
370
    25
100
AcDbLine
 10
-207.8750803165
 20
-10.0
 30
0.0
 11
-203.8750803165
 21
-10.0
 31
0.0
  0
LINE
  5
70
330
1F
100
AcDbEntity
  8
0
  6
Continuous
 62
     7
370
    25
100
AcDbLine
 10
-203.8750803165
 20
-10.0
 30
0.0
 11
-203.8750803165
 21
-1.4355513004
 31
0.0
  0
LINE
  5
71
330
1F
100
AcDbEntity
  8
0
  6
Continuous
 62
     7
370
    25
100
AcDbLine
 10
-203.8750803165
 20
-1.4355513004
 30
0.0
 11
-204.075080293
 21
-1.4355513004
 31
0.0
  0
LINE
  5
72
330
1F
100
AcDbEntity
  8
0
  6
Continuous
 62
     7
370
    25
100
AcDbLine
 10
-204.075080293
 20
-1.4355513004
 30
0.0
 11
-204.075080293
 21
-1.3355644537
 31
0.0
  0
SPLINE
  5
73
330
1F
100
AcDbEntity
  8
0
  6
Continuous
 62
     7
370
    25
100
AcDbSpline
210
0.0
220
0.0
230
1.0
 70
     8
 71
     3
 72
    11
 73
     7
 74
     0
 42
0.00000001
 43
0.00000001
 40
0.1820000000000061
 40
0.1820000000000061
 40
0.1820000000000061
 40
0.1820000000000061
 40
0.1962941432130851
 40
0.1962941432130851
 40
0.1962941432130851
 40
0.2040750802930359
 40
0.2040750802930359
 40
0.2040750802930359
 40
0.2040750802930359
 10
-181.9999999999996
 20
-1.335577086749865
 30
0.0
 10
-186.7647144043594
 20
-1.335575118381982
 30
0.0
 10
-191.5294288087191
 20
-1.335572695989632
 30
0.0
 10
-196.2941432130784
 20
-1.335569747719941
 30
0.0
 10
-198.8877889063952
 20
-1.33556814284579
 30
0.0
 10
-201.481434599712
 20
-1.335566379583748
 30
0.0
 10
-204.0750802930286
 20
-1.33556445371899
 30
0.0
  0
LINE
  5
74
330
1F
100
AcDbEntity
  8
0
  6
Continuous
 62
     7
370
    25
100
AcDbLine
 10
-182.0
 20
-1.3355770867
 30
0.0
 11
-182.0
 21
0.9498357898
 31
0.0
  0
LINE
  5
75
330
1F
100
AcDbEntity
  8
0
  6
Continuous
 62
     7
370
    25
100
AcDbLine
 10
-182.0
 20
0.9498357898
 30
0.0
 11
-180.0
 21
0.9498357898
 31
0.0
  0
LINE
  5
76
330
1F
100
AcDbEntity
  8
0
  6
Continuous
 62
     7
370
    25
100
AcDbLine
 10
-180.0
 20
0.9498357898
 30
0.0
 11
-180.0
 21
-1.3355778864
 31
0.0
  0
SPLINE
  5
77
330
1F
100
AcDbEntity
  8
0
  6
Continuous
 62
     7
370
    25
100
AcDbSpline
210
0.0
220
0.0
230
1.0
 70
     8
 71
     3
 72
     8
 73
     4
 74
     0
 42
0.00000001
 43
0.00000001
 40
0.1170000000000038
 40
0.1170000000000038
 40
0.1170000000000038
 40
0.1170000000000038
 40
0.1800000000000061
 40
0.1800000000000061
 40
0.1800000000000061
 40
0.1800000000000061
 10
-116.9999999999996
 20
-1.335581034763532
 30
0.0
 10
-137.9999999999992
 20
-1.335585505318948
 30
0.0
 10
-159.0000000000012
 20
-1.335586006360964
 30
0.0
 10
-179.9999999999997
 20
-1.33557788643668
 30
0.0
  0
LINE
  5
78
330
1F
100
AcDbEntity
  8
0
  6
Continuous
 62
     7
370
    25
100
AcDbLine
 10
-117.0
 20
0.9498357898
 30
0.0
 11
-117.0
 21
-1.3355810348
 31
0.0
  0
LINE
  5
79
330
1F
100
AcDbEntity
  8
0
  6
Continuous
 62
     7
370
    25
100
AcDbLine
 10
-115.0
 20
0.9498357898
 30
0.0
 11
-117.0
 21
0.9498357898
 31
0.0
  0
LINE
  5
7A
330
1F
100
AcDbEntity
  8
0
  6
Continuous
 62
     7
370
    25
100
AcDbLine
 10
-115.0
 20
-1.3355805983
 30
0.0
 11
-115.0
 21
0.9498357898
 31
0.0
  0
SPLINE
  5
7B
330
1F
100
AcDbEntity
  8
0
  6
Continuous
 62
     7
370
    25
100
AcDbSpline
210
0.0
220
0.0
230
1.0
 70
     8
 71
     3
 72
     8
 73
     4
 74
     0
 42
0.00000001
 43
0.00000001
 40
0.1078750803169284
 40
0.1078750803169284
 40
0.1078750803169284
 40
0.1078750803169284
 40
0.1150000000000037
 40
0.1150000000000037
 40
0.1150000000000037
 40
0.1150000000000037
 10
-107.8750803169245
 20
-1.335578885968863
 30
0.0
 10
-110.2500535446162
 20
-1.335579493839193
 30
0.0
 10
-112.6250267723078
 20
-1.335580067700879
 30
0.0
 10
-114.9999999999995
 20
-1.335580598342836
 30
0.0
  0
LINE
  5
7C
330
1F
100
AcDbEntity
  8
0
  6
Continuous
 62
     7
370
    25
100
AcDbLine
 10
-107.875080317
 20
-1.335578886
 30
0.0
 11
-107.875080317
 21
-10.0
 31
0.0
  0
LINE
  5
7D
330
1F
100
AcDbEntity
  8
0
  6
Continuous
 62
     7
370
    25
100
AcDbLine
 10
-107.875080317
 20
-10.0
 30
0.0
 11
-103.875080317
 21
-10.0
 31
0.0
  0
LINE
  5
7E
330
1F
100
AcDbEntity
  8
0
  6
Continuous
 62
     7
370
    25
100
AcDbLine
 10
-103.875080317
 20
-10.0
 30
0.0
 11
-103.875080317
 21
-1.4355513004
 31
0.0
  0
LINE
  5
7F
330
1F
100
AcDbEntity
  8
0
  6
Continuous
 62
     7
370
    25
100
AcDbLine
 10
-103.875080317
 20
-1.4355513004
 30
0.0
 11
-104.0750802935
 21
-1.4355513004
 31
0.0
  0
LINE
  5
80
330
1F
100
AcDbEntity
  8
0
  6
Continuous
 62
     7
370
    25
100
AcDbLine
 10
-104.0750802935
 20
-1.4355513004
 30
0.0
 11
-104.0750802935
 21
-1.3355778856
 31
0.0
  0
SPLINE
  5
81
330
1F
100
AcDbEntity
  8
0
  6
Continuous
 62
     7
370
    25
100
AcDbSpline
210
0.0
220
0.0
230
1.0
 70
     8
 71
     3
 72
    11
 73
     7
 74
     0
 42
0.00000001
 43
0.00000001
 40
0.0569999999999733
 40
0.0569999999999733
 40
0.0569999999999733
 40
0.0569999999999733
 40
0.0635882864262007
 40
0.0635882864262007
 40
0.0635882864262007
 40
0.1040750802935391
 40
0.1040750802935391
 40
0.1040750802935391
 40
0.1040750802935391
 10
-56.99999999997178
 20
-1.335563535504025
 30
0.0
 10
-59.19609547538081
 20
-1.335564188494964
 30
0.0
 10
-61.39219095078984
 20
-1.335564855350476
 30
0.0
 10
-63.58828642619888
 20
-1.335565531628327
 30
0.0
 10
-77.0838843819777
 20
-1.335569687537797
 30
0.0
 10
-90.57948233775637
 20
-1.335574239226638
 30
0.0
 10
-104.0750802935353
 20
-1.335577885637989
 30
0.0
  0
LINE
  5
82
330
1F
100
AcDbEntity
  8
0
  6
Continuous
 62
     7
370
    25
100
AcDbLine
 10
-57.0
 20
0.9498357898
 30
0.0
 11
-57.0
 21
-1.3355635355
 31
0.0
  0
LINE
  5
83
330
1F
100
AcDbEntity
  8
0
  6
Continuous
 62
     7
370
    25
100
AcDbLine
 10
-55.0
 20
0.9498357898
 30
0.0
 11
-57.0
 21
0.9498357898
 31
0.0
  0
LINE
  5
84
330
1F
100
AcDbEntity
  8
0
  6
Continuous
 62
     7
370
    25
100
AcDbLine
 10
-55.0
 20
-1.3355629448
 30
0.0
 11
-55.0
 21
0.9498357898
 31
0.0
  0
SPLINE
  5
85
330
1F
100
AcDbEntity
  8
0
  6
Continuous
 62
     7
370
    25
100
AcDbSpline
210
0.0
220
0.0
230
1.0
 70
     8
 71
     3
 72
     8
 73
     4
 74
     0
 42
0.00000001
 43
0.00000001
 40
0.0078750803174444
 40
0.0078750803174444
 40
0.0078750803174444
 40
0.0078750803174444
 40
0.0550000000000016
 40
0.0550000000000016
 40
0.0550000000000016
 40
0.0550000000000016
 10
-7.875080317444271
 20
-1.335551609915179
 30
0.0
 10
-23.58338687829639
 20
-1.335554585412252
 30
0.0
 10
-39.29169343914839
 20
-1.335558336953825
 30
0.0
 10
-55.00000000000011
 20
-1.335562944766622
 30
0.0
  0
LINE
  5
86
330
1F
100
AcDbEntity
  8
0
  6
Continuous
 62
     7
370
    25
100
AcDbLine
 10
-7.8750803174
 20
-1.3355516099
 30
0.0
 11
-7.8750803174
 21
-10.0
 31
0.0
  0
LINE
  5
87
330
1F
100
AcDbEntity
  8
0
  6
Continuous
 62
     7
370
    25
100
AcDbLine
 10
-7.8750803174
 20
-10.0
 30
0.0
 11
-3.8750803174
 21
-10.0
 31
0.0
  0
LINE
  5
88
330
1F
100
AcDbEntity
  8
0
  6
Continuous
 62
     7
370
    25
100
AcDbLine
 10
-3.8750803174
 20
-10.0
 30
0.0
 11
-3.8750803174
 21
-1.4355513004
 31
0.0
  0
LINE
  5
89
330
1F
100
AcDbEntity
  8
0
  6
Continuous
 62
     7
370
    25
100
AcDbLine
 10
-3.8750803174
 20
-1.4355513004
 30
0.0
 11
-4.075080294
 21
-1.4355513004
 31
0.0
  0
LINE
  5
8A
330
1F
100
AcDbEntity
  8
0
  6
Continuous
 62
     7
370
    25
100
AcDbLine
 10
-4.075080294
 20
-1.4355513004
 30
0.0
 11
-4.075080294
 21
-1.3355509053
 31
0.0
  0
SPLINE
  5
8B
330
1F
100
AcDbEntity
  8
0
  6
Continuous
 62
     7
370
    25
100
AcDbSpline
210
0.0
220
0.0
230
1.0
 70
     8
 71
     3
 72
     8
 73
     4
 74
     0
 42
0.00000001
 43
0.00000001
 40
0.002
 40
0.002
 40
0.002
 40
0.002
 40
0.0040750802940268
 40
0.0040750802940268
 40
0.0040750802940268
 40
0.0040750802940268
 10
-2.000000000000015
 20
-1.335550533432236
 30
0.0
 10
-2.691693431342253
 20
-1.335550655892461
 30
0.0
 10
-3.383386862684491
 20
-1.335550779861712
 30
0.0
 10
-4.075080294026728
 20
-1.33555090534189
 30
0.0
  0
LINE
  5
8C
330
1F
100
AcDbEntity
  8
0
  6
Continuous
 62
     7
370
    25
100
AcDbLine
 10
-2.0
 20
-1.3355505334
 30
0.0
 11
2.0
 21
-1.3355505334
 31
0.0
  0
LINE
  5
8D
330
1F
100
AcDbEntity
  8
0
  6
Continuous
 62
     7
370
    25
100
AcDbLine
 10
2.0
 20
-1.3355505334
 30
0.0
 11
2.0
 21
0.9498357898
 31
0.0
  0
LINE
  5
8E
330
1F
100
AcDbEntity
  8
0
  6
Continuous
 62
     7
370
    25
100
AcDbLine
 10
2.0
 20
0.9498357898
 30
0.0
 11
4.0
 21
0.9498357898
 31
0.0
  0
LINE
  5
8F
330
1F
100
AcDbEntity
  8
0
  6
Continuous
 62
     7
370
    25
100
AcDbLine
 10
4.0
 20
0.9498357898
 30
0.0
 11
4.0
 21
-1.3355505334
 31
0.0
  0
LINE
  5
90
330
1F
100
AcDbEntity
  8
0
  6
Continuous
 62
     7
370
    25
100
AcDbLine
 10
4.0
 20
-1.3355505334
 30
0.0
 11
6.0
 21
-1.3355505334
 31
0.0
  0
LINE
  5
91
330
1F
100
AcDbEntity
  8
0
  6
Continuous
 62
     7
370
    25
100
AcDbLine
 10
6.0
 20
-1.3355505334
 30
0.0
 11
6.0
 21
7.0535565625
 31
0.0
  0
LINE
  5
92
330
1F
100
AcDbEntity
  8
0
  6
Continuous
 62
     7
370
    25
100
AcDbLine
 10
6.0
 20
7.0535565625
 30
0.0
 11
4.0
 21
7.0535565625
 31
0.0
  0
LINE
  5
93
330
1F
100
AcDbEntity
  8
0
  6
Continuous
 62
     7
370
    25
100
AcDbLine
 10
4.0
 20
7.0535565625
 30
0.0
 11
4.0
 21
3.9498357898
 31
0.0
  0
LINE
  5
94
330
1F
100
AcDbEntity
  8
0
  6
Continuous
 62
     7
370
    25
100
AcDbLine
 10
4.0
 20
3.9498357898
 30
0.0
 11
2.0
 21
3.9498357898
 31
0.0
  0
LINE
  5
95
330
1F
100
AcDbEntity
  8
0
  6
Continuous
 62
     7
370
    25
100
AcDbLine
 10
2.0
 20
3.9498357898
 30
0.0
 11
2.0
 21
7.0535565625
 31
0.0
  0
LINE
  5
96
330
1F
100
AcDbEntity
  8
0
  6
Continuous
 62
     7
370
    25
100
AcDbLine
 10
2.0
 20
7.0535565625
 30
0.0
 11
-2.0
 21
7.0535565625
 31
0.0
  0
SPLINE
  5
97
330
1F
100
AcDbEntity
  8
0
  6
Continuous
 62
     7
370
    25
100
AcDbSpline
210
0.0
220
0.0
230
1.0
 70
     8
 71
     3
 72
     8
 73
     4
 74
     0
 42
0.00000001
 43
0.00000001
 40
0.2740012566156412
 40
0.2740012566156412
 40
0.2740012566156412
 40
0.2740012566156412
 40
0.327001337280557
 40
0.327001337280557
 40
0.327001337280557
 40
0.327001337280557
 10
-54.9999999999714
 20
6.964318721031604
 30
0.0
 10
-37.33333672476959
 20
6.9960149791985
 30
0.0
 10
-19.66666962478824
 20
7.025622698963723
 30
0.0
 10
-2.000000000000013
 20
7.053556562478891
 30
0.0
  0
LINE
  5
98
330
1F
100
AcDbEntity
  8
0
  6
Continuous
 62
     7
370
    25
100
AcDbLine
 10
-55.0
 20
3.9498357898
 30
0.0
 11
-55.0
 21
6.964318721
 31
0.0
  0
LINE
  5
99
330
1F
100
AcDbEntity
  8
0
  6
Continuous
 62
     7
370
    25
100
AcDbLine
 10
-57.0
 20
3.9498357898
 30
0.0
 11
-55.0
 21
3.9498357898
 31
0.0
  0
LINE
  5
9A
330
1F
100
AcDbEntity
  8
0
  6
Continuous
 62
     7
370
    25
100
AcDbLine
 10
-57.0
 20
6.9607213523
 30
0.0
 11
-57.0
 21
3.9498357898
 31
0.0
  0
SPLINE
  5
9B
330
1F
100
AcDbEntity
  8
0
  6
Continuous
 62
     7
370
    25
100
AcDbSpline
210
0.0
220
0.0
230
1.0
 70
     8
 71
     3
 72
    11
 73
     7
 74
     0
 42
0.00000001
 43
0.00000001
 40
0.2140011368134432
 40
0.2140011368134432
 40
0.2140011368134432
 40
0.2140011368134432
 40
0.2314763046557788
 40
0.2314763046557788
 40
0.2314763046557788
 40
0.2720012531635501
 40
0.2720012531635501
 40
0.2720012531635501
 40
0.2720012531635501
 10
-115.0
 20
6.847539101128189
 30
0.0
 10
-109.1749576563054
 20
6.859864677860718
 30
0.0
 10
-103.3499146287899
 20
6.871870497539627
 30
0.0
 10
-97.52487102549007
 20
6.883585672819921
 30
0.0
 10
-84.01658353273037
 20
6.910753187175457
 30
0.0
 10
-70.50829284931959
 20
6.936362429147175
 30
0.0
 10
-56.99999999997154
 20
6.960721352298322
 30
0.0
  0
LINE
  5
9C
330
1F
100
AcDbEntity
  8
0
  6
Continuous
 62
     7
370
    25
100
AcDbLine
 10
-115.0
 20
6.8475391011
 30
0.0
 11
-115.0
 21
3.9498357898
 31
0.0
  0
LINE
  5
9D
330
1F
100
AcDbEntity
  8
0
  6
Continuous
 62
     7
370
    25
100
AcDbLine
 10
-115.0
 20
3.9498357898
 30
0.0
 11
-117.0
 21
3.9498357898
 31
0.0
  0
LINE
  5
9E
330
1F
100
AcDbEntity
  8
0
  6
Continuous
 62
     7
370
    25
100
AcDbLine
 10
-117.0
 20
3.9498357898
 30
0.0
 11
-117.0
 21
6.8432945535
 31
0.0
  0
SPLINE
  5
9F
330
1F
100
AcDbEntity
  8
0
  6
Continuous
 62
     7
370
    25
100
AcDbSpline
210
0.0
220
0.0
230
1.0
 70
     8
 71
     3
 72
     8
 73
     4
 74
     0
 42
0.00000001
 43
0.00000001
 40
0.1490009491423562
 40
0.1490009491423562
 40
0.1490009491423562
 40
0.1490009491423562
 40
0.2120011320858409
 40
0.2120011320858409
 40
0.2120011320858409
 40
0.2120011320858409
 10
-180.0
 20
6.695082592937975
 30
0.0
 10
-159.0000130298857
 20
6.749745276234382
 30
0.0
 10
-138.000010537964
 20
6.798593778104769
 30
0.0
 10
-117.0
 20
6.843294553468709
 30
0.0
  0
LINE
  5
A0
330
1F
100
AcDbEntity
  8
0
  6
Continuous
 62
     7
370
    25
100
AcDbLine
 10
-180.0
 20
6.6950825929
 30
0.0
 11
-180.0
 21
3.9498357898
 31
0.0
  0
LINE
  5
A1
330
1F
100
AcDbEntity
  8
0
  6
Continuous
 62
     7
370
    25
100
AcDbLine
 10
-180.0
 20
3.9498357898
 30
0.0
 11
-182.0
 21
3.9498357898
 31
0.0
  0
LINE
  5
A2
330
1F
100
AcDbEntity
  8
0
  6
Continuous
 62
     7
370
    25
100
AcDbLine
 10
-182.0
 20
3.9498357898
 30
0.0
 11
-182.0
 21
6.6898587769
 31
0.0
  0
SPLINE
  5
A3
330
1F
100
AcDbEntity
  8
0
  6
Continuous
 62
     7
370
    25
100
AcDbSpline
210
0.0
220
0.0
230
1.0
 70
     8
 71
     3
 72
    11
 73
     7
 74
     0
 42
0.00000001
 43
0.00000001
 40
0.0770006175966454
 40
0.0770006175966454
 40
0.0770006175966454
 40
0.0770006175966454
 40
0.1339743189990143
 40
0.1339743189990143
 40
0.1339743189990143
 40
0.1470009421182959
 40
0.1470009421182959
 40
0.1470009421182959
 40
0.1470009421182959
 10
-251.9999999999999
 20
6.481182653161469
 30
0.0
 10
-233.0088793408076
 20
6.545595860835933
 30
0.0
 10
-214.0177337474463
 20
6.602855829162378
 30
0.0
 10
-195.0265752629318
 20
6.654936241775322
 30
0.0
 10
-190.684384232525
 20
6.666844051438023
 30
0.0
 10
-186.3421924450024
 20
6.678478485170759
 30
0.0
 10
-181.9999999999999
 20
6.689858776883672
 30
0.0
  0
LINE
  5
A4
330
1F
100
AcDbEntity
  8
0
  6
Continuous
 62
     7
370
    25
100
AcDbLine
 10
-252.0
 20
6.4811826532
 30
0.0
 11
-252.0
 21
3.9498357898
 31
0.0
  0
LINE
  5
A5
330
1F
100
AcDbEntity
  8
0
  6
Continuous
 62
     7
370
    25
100
AcDbLine
 10
-252.0
 20
3.9498357898
 30
0.0
 11
-254.0
 21
3.9498357898
 31
0.0
  0
LINE
  5
A6
330
1F
100
AcDbEntity
  8
0
  6
Continuous
 62
     7
370
    25
100
AcDbLine
 10
-254.0
 20
3.9498357898
 30
0.0
 11
-254.0
 21
6.4743725992
 31
0.0
  0
SPLINE
  5
A7
330
1F
100
AcDbEntity
  8
0
  6
Continuous
 62
     7
370
    25
100
AcDbSpline
210
0.0
220
0.0
230
1.0
 70
     8
 71
     3
 72
    11
 73
     7
 74
     0
 42
0.00000001
 43
0.00000001
 40
0.0020000209931599
 40
0.0020000209931599
 40
0.0020000209931599
 40
0.0020000209931599
 40
0.0267948527362129
 40
0.0267948527362129
 40
0.0267948527362129
 40
0.0750006054846783
 40
0.0750006054846783
 40
0.0750006054846783
 40
0.0750006054846783
 10
-326.9999999999999
 20
6.185184958855443
 30
0.0
 10
-318.735142334568
 20
6.222943395544375
 30
0.0
 10
-310.470275789802
 20
6.258795813742283
 30
0.0
 10
-302.2054024831159
 20
6.292959446706543
 30
0.0
 10
-286.1369584796535
 20
6.359379874808803
 30
0.0
 10
-270.0684874003421
 20
6.419445094893454
 30
0.0
 10
-254.0
 20
6.474372599152258
 30
0.0
  0
LINE
  5
A8
330
1F
100
AcDbEntity
  8
0
  6
Continuous
 62
     7
370
    25
100
AcDbLine
 10
-327.0
 20
3.9498357898
 30
0.0
 11
-327.0
 21
6.1851849589
 31
0.0
  0
LINE
  5
A9
330
1F
100
AcDbEntity
  8
0
  6
Continuous
 62
     7
370
    25
100
AcDbLine
 10
-329.0
 20
3.9498357898
 30
0.0
 11
-327.0
 21
3.9498357898
 31
0.0
  0
LINE
  5
AA
330
1F
100
AcDbEntity
  8
0
  6
Continuous
 62
     7
370
    25
100
AcDbLine
 10
-329.0
 20
3.9498357898
 30
0.0
 11
-329.0
 21
0.9498357898
 31
0.0
  0
LINE
  5
AB
330
1F
100
AcDbEntity
  8
0
  6
Continuous
 62
     7
370
    25
100
AcDbLine
 10
-327.0
 20
0.9498357898
 30
0.0
 11
-329.0
 21
0.9498357898
 31
0.0
  0
LINE
  5
AC
330
1F
100
AcDbEntity
  8
0
  6
Continuous
 62
     7
370
    25
100
AcDbLine
 10
-327.0
 20
-1.3354365764
 30
0.0
 11
-327.0
 21
0.9498357898
 31
0.0
  0
SPLINE
  5
AD
330
1F
100
AcDbEntity
  8
0
  6
Continuous
 62
     7
370
    25
100
AcDbSpline
210
0.0
220
0.0
230
1.0
 70
     8
 71
     3
 72
     8
 73
     4
 74
     0
 42
0.00000001
 43
0.00000001
 40
0.3066750802926269
 40
0.3066750802926269
 40
0.3066750802926269
 40
0.3066750802926269
 40
0.3076750802926058
 40
0.3076750802926058
 40
0.3076750802926058
 40
0.3076750802926058
 10
-306.6750802925634
 20
-1.335446631673051
 30
0.0
 10
-307.0084136258897
 20
-1.335446344389988
 30
0.0
 10
-307.3417469592159
 20
-1.335446061211099
 30
0.0
 10
-307.6750802925421
 20
-1.335445782287617
 30
0.0
  0
LINE
  5
AE
330
1F
100
AcDbEntity
  8
0
  6
Continuous
 62
     7
370
    25
100
AcDbLine
 10
-306.6750802926
 20
-1.3354466317
 30
0.0
 11
-306.6750802926
 21
-1.4355516282
 31
0.0
  0
LINE
  5
AF
330
1F
100
AcDbEntity
  8
0
  6
Continuous
 62
     7
370
    25
100
AcDbLine
 10
-306.6750802926
 20
-1.4355516282
 30
0.0
 11
-307.6750802926
 21
-1.4355518624
 31
0.0
  0
LINE
  5
B0
330
1F
100
AcDbEntity
  8
0
  6
Continuous
 62
     7
370
    25
100
AcDbLine
 10
-307.6750802926
 20
-1.4355518624
 30
0.0
 11
-307.6750802925
 21
-1.3354457823
 31
0.0
  0
SPLINE
  5
B1
330
1F
100
AcDbEntity
  8
0
  6
Continuous
 62
     7
370
    25
100
AcDbSpline
210
0.0
220
0.0
230
1.0
 70
     8
 71
     3
 72
     8
 73
     4
 74
     0
 42
0.00000001
 43
0.00000001
 40
0.305475080292605
 40
0.305475080292605
 40
0.305475080292605
 40
0.305475080292605
 40
0.3064750802926053
 40
0.3064750802926053
 40
0.3064750802926053
 40
0.3064750802926053
 10
-305.4750802925419
 20
-1.335447683478126
 30
0.0
 10
-305.8084136258752
 20
-1.335447386478589
 30
0.0
 10
-306.1417469592085
 20
-1.335447093460663
 30
0.0
 10
-306.4750802925419
 20
-1.335446804535859
 30
0.0
  0
LINE
  5
B2
330
1F
100
AcDbEntity
  8
0
  6
Continuous
 62
     7
370
    25
100
AcDbLine
 10
-305.4750802926
 20
-1.3354476835
 30
0.0
 11
-305.4750802926
 21
-1.4355513472
 31
0.0
  0
LINE
  5
B3
330
1F
100
AcDbEntity
  8
0
  6
Continuous
 62
     7
370
    25
100
AcDbLine
 10
-305.4750802926
 20
-1.4355513472
 30
0.0
 11
-306.4750802926
 21
-1.4355515814
 31
0.0
  0
LINE
  5
B4
330
1F
100
AcDbEntity
  8
0
  6
Continuous
 62
     7
370
    25
100
AcDbLine
 10
-306.4750802926
 20
-1.4355515814
 30
0.0
 11
-306.4750802925
 21
-1.3354468045
 31
0.0
  0
LINE
  5
B5
330
1F
100
AcDbEntity
  8
0
  6
Continuous
 62
     7
370
    25
100
AcDbLine
 10
-305.2750802926
 20
-1.4355513004
 30
0.0
 11
-305.2750802926
 21
-1.3354478622
 31
0.0
  0
SPLINE
  5
B6
330
1F
100
AcDbEntity
  8
0
  6
Continuous
 62
     7
370
    25
100
AcDbSpline
210
0.0
220
0.0
230
1.0
 70
     8
 71
     3
 72
     8
 73
     4
 74
     0
 42
0.00000001
 43
0.00000001
 40
0.3042750802926045
 40
0.3042750802926045
 40
0.3042750802926045
 40
0.3042750802926045
 40
0.3052750802926265
 40
0.3052750802926265
 40
0.3052750802926265
 40
0.3052750802926265
 10
-304.2750802925417
 20
-1.335448769685257
 30
0.0
 10
-304.6084136258823
 20
-1.335448463289633
 30
0.0
 10
-304.9417469592229
 20
-1.335448160742509
 30
0.0
 10
-305.2750802925635
 20
-1.335447862154758
 30
0.0
  0
LINE
  5
B7
330
1F
100
AcDbEntity
  8
0
  6
Continuous
 62
     7
370
    25
100
AcDbLine
 10
-304.2750802926
 20
-1.3354487697
 30
0.0
 11
-304.2750802926
 21
-1.4355513004
 31
0.0
  0
LINE
  5
B8
330
1F
100
AcDbEntity
  8
0
  6
Continuous
 62
     7
370
    25
100
AcDbLine
 10
-304.2750802926
 20
-1.4355513004
 30
0.0
 11
-305.2750802926
 21
-1.4355513004
 31
0.0
  0
SPLINE
  5
B9
330
1F
100
AcDbEntity
  8
0
  6
Continuous
 62
     7
370
    25
100
AcDbSpline
210
0.0
220
0.0
230
1.0
 70
     8
 71
     3
 72
     8
 73
     4
 74
     0
 42
0.00000001
 43
0.00000001
 40
0.2066750802930325
 40
0.2066750802930325
 40
0.2066750802930325
 40
0.2066750802930325
 40
0.2076750802930313
 40
0.2076750802930313
 40
0.2076750802930313
 40
0.2076750802930313
 10
-206.6750802930247
 20
-1.335562470056095
 30
0.0
 10
-207.0084136263575
 20
-1.335562208981396
 30
0.0
 10
-207.3417469596904
 20
-1.335561945325088
 30
0.0
 10
-207.6750802930233
 20
-1.335561679108518
 30
0.0
  0
LINE
  5
BA
330
1F
100
AcDbEntity
  8
0
  6
Continuous
 62
     7
370
    25
100
AcDbLine
 10
-206.675080293
 20
-1.3355624701
 30
0.0
 11
-206.675080293
 21
-1.4355516282
 31
0.0
  0
LINE
  5
BB
330
1F
100
AcDbEntity
  8
0
  6
Continuous
 62
     7
370
    25
100
AcDbLine
 10
-206.675080293
 20
-1.4355516282
 30
0.0
 11
-207.675080293
 21
-1.4355518624
 31
0.0
  0
LINE
  5
BC
330
1F
100
AcDbEntity
  8
0
  6
Continuous
 62
     7
370
    25
100
AcDbLine
 10
-207.675080293
 20
-1.4355518624
 30
0.0
 11
-207.675080293
 21
-1.3355616791
 31
0.0
  0
SPLINE
  5
BD
330
1F
100
AcDbEntity
  8
0
  6
Continuous
 62
     7
370
    25
100
AcDbSpline
210
0.0
220
0.0
230
1.0
 70
     8
 71
     3
 72
     8
 73
     4
 74
     0
 42
0.00000001
 43
0.00000001
 40
0.2054750802930345
 40
0.2054750802930345
 40
0.2054750802930345
 40
0.2054750802930345
 40
0.2064750802930333
 40
0.2064750802930333
 40
0.2064750802930333
 40
0.2064750802930333
 10
-205.4750802930269
 20
-1.335563398736407
 30
0.0
 10
-205.8084136263598
 20
-1.335563143887594
 30
0.0
 10
-206.1417469596927
 20
-1.335562886432187
 30
0.0
 10
-206.4750802930256
 20
-1.335562626390958
 30
0.0
  0
LINE
  5
BE
330
1F
100
AcDbEntity
  8
0
  6
Continuous
 62
     7
370
    25
100
AcDbLine
 10
-205.475080293
 20
-1.3355633987
 30
0.0
 11
-205.475080293
 21
-1.4355513472
 31
0.0
  0
LINE
  5
BF
330
1F
100
AcDbEntity
  8
0
  6
Continuous
 62
     7
370
    25
100
AcDbLine
 10
-205.475080293
 20
-1.4355513472
 30
0.0
 11
-206.475080293
 21
-1.4355515814
 31
0.0
  0
LINE
  5
C0
330
1F
100
AcDbEntity
  8
0
  6
Continuous
 62
     7
370
    25
100
AcDbLine
 10
-206.475080293
 20
-1.4355515814
 30
0.0
 11
-206.475080293
 21
-1.3355626264
 31
0.0
  0
LINE
  5
C1
330
1F
100
AcDbEntity
  8
0
  6
Continuous
 62
     7
370
    25
100
AcDbLine
 10
-205.275080293
 20
-1.4355513004
 30
0.0
 11
-205.275080293
 21
-1.3355635513
 31
0.0
  0
SPLINE
  5
C2
330
1F
100
AcDbEntity
  8
0
  6
Continuous
 62
     7
370
    25
100
AcDbSpline
210
0.0
220
0.0
230
1.0
 70
     8
 71
     3
 72
     8
 73
     4
 74
     0
 42
0.00000001
 43
0.00000001
 40
0.2042750802930358
 40
0.2042750802930358
 40
0.2042750802930358
 40
0.2042750802930358
 40
0.2052750802930347
 40
0.2052750802930347
 40
0.2052750802930347
 40
0.2052750802930347
 10
-204.2750802930285
 20
-1.335564304896581
 30
0.0
 10
-204.6084136263614
 20
-1.335564056332796
 30
0.0
 10
-204.9417469596942
 20
-1.335563805138115
 30
0.0
 10
-205.2750802930271
 20
-1.335563551332744
 30
0.0
  0
LINE
  5
C3
330
1F
100
AcDbEntity
  8
0
  6
Continuous
 62
     7
370
    25
100
AcDbLine
 10
-204.275080293
 20
-1.3355643049
 30
0.0
 11
-204.275080293
 21
-1.4355513004
 31
0.0
  0
LINE
  5
C4
330
1F
100
AcDbEntity
  8
0
  6
Continuous
 62
     7
370
    25
100
AcDbLine
 10
-204.275080293
 20
-1.4355513004
 30
0.0
 11
-205.275080293
 21
-1.4355513004
 31
0.0
  0
SPLINE
  5
C5
330
1F
100
AcDbEntity
  8
0
  6
Continuous
 62
     7
370
    25
100
AcDbSpline
210
0.0
220
0.0
230
1.0
 70
     8
 71
     3
 72
     8
 73
     4
 74
     0
 42
0.00000001
 43
0.00000001
 40
0.0066750802940268
 40
0.0066750802940268
 40
0.0066750802940268
 40
0.0066750802940268
 40
0.0076750802940045
 40
0.0076750802940045
 40
0.0076750802940045
 40
0.0076750802940045
 10
-6.675080294026692
 20
-1.335551384128755
 30
0.0
 10
-7.008413627352583
 20
-1.33555144642517
 30
0.0
 10
-7.341746960678474
 20
-1.335551509073162
 30
0.0
 10
-7.675080294004365
 20
-1.335551572073028
 30
0.0
  0
LINE
  5
C6
330
1F
100
AcDbEntity
  8
0
  6
Continuous
 62
     7
370
    25
100
AcDbLine
 10
-6.675080294
 20
-1.3355513841
 30
0.0
 11
-6.675080294
 21
-1.4355516282
 31
0.0
  0
LINE
  5
C7
330
1F
100
AcDbEntity
  8
0
  6
Continuous
 62
     7
370
    25
100
AcDbLine
 10
-6.675080294
 20
-1.4355516282
 30
0.0
 11
-7.675080294
 21
-1.4355518624
 31
0.0
  0
LINE
  5
C8
330
1F
100
AcDbEntity
  8
0
  6
Continuous
 62
     7
370
    25
100
AcDbLine
 10
-7.675080294
 20
-1.4355518624
 30
0.0
 11
-7.675080294
 21
-1.3355515721
 31
0.0
  0
SPLINE
  5
C9
330
1F
100
AcDbEntity
  8
0
  6
Continuous
 62
     7
370
    25
100
AcDbSpline
210
0.0
220
0.0
230
1.0
 70
     8
 71
     3
 72
     8
 73
     4
 74
     0
 42
0.00000001
 43
0.00000001
 40
0.0054750802940268
 40
0.0054750802940268
 40
0.0054750802940268
 40
0.0054750802940268
 40
0.0064750802940091
 40
0.0064750802940091
 40
0.0064750802940091
 40
0.0064750802940091
 10
-5.475080294026767
 20
-1.33555116137999
 30
0.0
 10
-5.80841362735418
 20
-1.335551222833021
 30
0.0
 10
-6.141746960681594
 20
-1.335551284637297
 30
0.0
 10
-6.475080294009008
 20
-1.335551346793093
 30
0.0
  0
LINE
  5
CA
330
1F
100
AcDbEntity
  8
0
  6
Continuous
 62
     7
370
    25
100
AcDbLine
 10
-5.475080294
 20
-1.3355511614
 30
0.0
 11
-5.475080294
 21
-1.4355513472
 31
0.0
  0
LINE
  5
CB
330
1F
100
AcDbEntity
  8
0
  6
Continuous
 62
     7
370
    25
100
AcDbLine
 10
-5.475080294
 20
-1.4355513472
 30
0.0
 11
-6.475080294
 21
-1.4355515814
 31
0.0
  0
LINE
  5
CC
330
1F
100
AcDbEntity
  8
0
  6
Continuous
 62
     7
370
    25
100
AcDbLine
 10
-6.475080294
 20
-1.4355515814
 30
0.0
 11
-6.475080294
 21
-1.3355513468
 31
0.0
  0
LINE
  5
CD
330
1F
100
AcDbEntity
  8
0
  6
Continuous
 62
     7
370
    25
100
AcDbLine
 10
-5.275080294
 20
-1.4355513004
 30
0.0
 11
-5.275080294
 21
-1.3355511246
 31
0.0
  0
SPLINE
  5
CE
330
1F
100
AcDbEntity
  8
0
  6
Continuous
 62
     7
370
    25
100
AcDbSpline
210
0.0
220
0.0
230
1.0
 70
     8
 71
     3
 72
     8
 73
     4
 74
     0
 42
0.00000001
 43
0.00000001
 40
0.0042750802940268
 40
0.0042750802940268
 40
0.0042750802940268
 40
0.0042750802940268
 40
0.0052750802940268
 40
0.0052750802940268
 40
0.0052750802940268
 40
0.0052750802940268
 10
-4.275080294026696
 20
-1.335550941666021
 30
0.0
 10
-4.608413627360038
 20
-1.335551002276425
 30
0.0
 10
-4.941746960693382
 20
-1.335551063237776
 30
0.0
 10
-5.275080294026725
 20
-1.335551124550319
 30
0.0
  0
LINE
  5
CF
330
1F
100
AcDbEntity
  8
0
  6
Continuous
 62
     7
370
    25
100
AcDbLine
 10
-4.275080294
 20
-1.3355509417
 30
0.0
 11
-4.275080294
 21
-1.4355513004
 31
0.0
  0
LINE
  5
D0
330
1F
100
AcDbEntity
  8
0
  6
Continuous
 62
     7
370
    25
100
AcDbLine
 10
-4.275080294
 20
-1.4355513004
 30
0.0
 11
-5.275080294
 21
-1.4355513004
 31
0.0
  0
SPLINE
  5
D1
330
1F
100
AcDbEntity
  8
0
  6
Continuous
 62
     7
370
    25
100
AcDbSpline
210
0.0
220
0.0
230
1.0
 70
     8
 71
     3
 72
     8
 73
     4
 74
     0
 42
0.00000001
 43
0.00000001
 40
0.1066750802935391
 40
0.1066750802935391
 40
0.1066750802935391
 40
0.1066750802935391
 40
0.1076750802935392
 40
0.1076750802935392
 40
0.1076750802935392
 40
0.1076750802935392
 10
-106.6750802935353
 20
-1.335578575974805
 30
0.0
 10
-107.0084136268686
 20
-1.335578662865881
 30
0.0
 10
-107.341746960202
 20
-1.335578749115389
 30
0.0
 10
-107.6750802935353
 20
-1.335578834698882
 30
0.0
  0
LINE
  5
D2
330
1F
100
AcDbEntity
  8
0
  6
Continuous
 62
     7
370
    25
100
AcDbLine
 10
-106.6750802935
 20
-1.335578576
 30
0.0
 11
-106.6750802935
 21
-1.4355516282
 31
0.0
  0
LINE
  5
D3
330
1F
100
AcDbEntity
  8
0
  6
Continuous
 62
     7
370
    25
100
AcDbLine
 10
-106.6750802935
 20
-1.4355516282
 30
0.0
 11
-107.6750802935
 21
-1.4355518624
 31
0.0
  0
LINE
  5
D4
330
1F
100
AcDbEntity
  8
0
  6
Continuous
 62
     7
370
    25
100
AcDbLine
 10
-107.6750802935
 20
-1.4355518624
 30
0.0
 11
-107.6750802935
 21
-1.3355788347
 31
0.0
  0
SPLINE
  5
D5
330
1F
100
AcDbEntity
  8
0
  6
Continuous
 62
     7
370
    25
100
AcDbSpline
210
0.0
220
0.0
230
1.0
 70
     8
 71
     3
 72
     8
 73
     4
 74
     0
 42
0.00000001
 43
0.00000001
 40
0.1054750802935391
 40
0.1054750802935391
 40
0.1054750802935391
 40
0.1054750802935391
 40
0.1064750802935391
 40
0.1064750802935391
 40
0.1064750802935391
 40
0.1064750802935391
 10
-105.4750802935354
 20
-1.335578260437191
 30
0.0
 10
-105.8084136268687
 20
-1.335578348833177
 30
0.0
 10
-106.141746960202
 20
-1.335578436616623
 30
0.0
 10
-106.4750802935353
 20
-1.335578523763363
 30
0.0
  0
LINE
  5
D6
330
1F
100
AcDbEntity
  8
0
  6
Continuous
 62
     7
370
    25
100
AcDbLine
 10
-105.4750802935
 20
-1.3355782604
 30
0.0
 11
-105.4750802935
 21
-1.4355513472
 31
0.0
  0
LINE
  5
D7
330
1F
100
AcDbEntity
  8
0
  6
Continuous
 62
     7
370
    25
100
AcDbLine
 10
-105.4750802935
 20
-1.4355513472
 30
0.0
 11
-106.4750802935
 21
-1.4355515814
 31
0.0
  0
LINE
  5
D8
330
1F
100
AcDbEntity
  8
0
  6
Continuous
 62
     7
370
    25
100
AcDbLine
 10
-106.4750802935
 20
-1.4355515814
 30
0.0
 11
-106.4750802935
 21
-1.3355785238
 31
0.0
  0
LINE
  5
D9
330
1F
100
AcDbEntity
  8
0
  6
Continuous
 62
     7
370
    25
100
AcDbLine
 10
-105.2750802935
 20
-1.4355513004
 30
0.0
 11
-105.2750802935
 21
-1.3355782073
 31
0.0
  0
SPLINE
  5
DA
330
1F
100
AcDbEntity
  8
0
  6
Continuous
 62
     7
370
    25
100
AcDbSpline
210
0.0
220
0.0
230
1.0
 70
     8
 71
     3
 72
     8
 73
     4
 74
     0
 42
0.00000001
 43
0.00000001
 40
0.1042750802935391
 40
0.1042750802935391
 40
0.1042750802935391
 40
0.1042750802935391
 40
0.1052750802935391
 40
0.1052750802935391
 40
0.1052750802935391
 40
0.1052750802935391
 10
-104.2750802935354
 20
-1.335577939606836
 30
0.0
 10
-104.6084136268687
 20
-1.335578029438458
 30
0.0
 10
-104.941746960202
 20
-1.335578118686238
 30
0.0
 10
-105.2750802935354
 20
-1.335578207326285
 30
0.0
  0
LINE
  5
DB
330
1F
100
AcDbEntity
  8
0
  6
Continuous
 62
     7
370
    25
100
AcDbLine
 10
-104.2750802935
 20
-1.3355779396
 30
0.0
 11
-104.2750802935
 21
-1.4355513004
 31
0.0
  0
LINE
  5
DC
330
1F
100
AcDbEntity
  8
0
  6
Continuous
 62
     7
370
    25
100
AcDbLine
 10
-104.2750802935
 20
-1.4355513004
 30
0.0
 11
-105.2750802935
 21
-1.4355513004
 31
0.0
  0
LINE
  5
DD
330
1F
100
AcDbEntity
  8
0
  6
Continuous
 62
     7
370
    25
100
AcDbLine
 10
-2.0
 20
3.9498357898
 30
0.0
 11
0.0
 21
3.9498357898
 31
0.0
  0
LINE
  5
DE
330
1F
100
AcDbEntity
  8
0
  6
Continuous
 62
     7
370
    25
100
AcDbLine
 10
0.0
 20
3.9498357898
 30
0.0
 11
0.0
 21
0.9498357898
 31
0.0
  0
LINE
  5
DF
330
1F
100
AcDbEntity
  8
0
  6
Continuous
 62
     7
370
    25
100
AcDbLine
 10
0.0
 20
0.9498357898
 30
0.0
 11
-2.0
 21
0.9498357898
 31
0.0
  0
LINE
  5
E0
330
1F
100
AcDbEntity
  8
0
  6
Continuous
 62
     7
370
    25
100
AcDbLine
 10
-2.0
 20
0.9498357898
 30
0.0
 11
-2.0
 21
3.9498357898
 31
0.0
  0
ENDSEC
  0
SECTION
  2
OBJECTS
  0
DICTIONARY
  5
C
330
0
100
AcDbDictionary
281
     1
  3
ACAD_GROUP
350
D
  3
ACAD_LAYOUT
350
1A
  3
ACAD_MLINESTYLE
350
17
  3
ACAD_PLOTSETTINGS
350
19
  3
ACAD_PLOTSTYLENAME
350
E
  3
ACAD_SCALELIST
350
47
  3
DWGPROPS
350
E1
  0
DICTIONARY
  5
D
102
{ACAD_REACTORS
330
C
102
}
330
C
100
AcDbDictionary
281
     1
  0
DICTIONARY
  5
1A
102
{ACAD_REACTORS
330
C
102
}
330
C
100
AcDbDictionary
281
     1
  3
Layout1
350
1E
  3
Layout2
350
26
  3
Model
350
22
  0
DICTIONARY
  5
17
102
{ACAD_REACTORS
330
C
102
}
330
C
100
AcDbDictionary
281
     1
  3
Standard
350
18
  0
DICTIONARY
  5
19
102
{ACAD_REACTORS
330
C
102
}
330
C
100
AcDbDictionary
281
     1
  0
ACDBDICTIONARYWDFLT
  5
E
102
{ACAD_REACTORS
330
C
102
}
330
C
100
AcDbDictionary
281
     1
  3
Normal
350
F
100
AcDbDictionaryWithDefault
340
F
  0
DICTIONARY
  5
47
102
{ACAD_REACTORS
330
C
102
}
330
C
100
AcDbDictionary
281
     1
  3
A0
350
48
  3
A1
350
49
  3
A2
350
4A
  3
A3
350
4B
  3
A4
350
4C
  3
A5
350
4D
  3
A6
350
4E
  3
A7
350
4F
  3
A8
350
50
  3
A9
350
51
  3
B0
350
52
  3
B1
350
53
  3
B2
350
54
  3
B3
350
55
  3
B4
350
56
  3
B5
350
57
  3
B6
350
58
  0
XRECORD
  5
E1
102
{ACAD_REACTORS
330
C
102
}
330
C
100
AcDbXrecord
280
     1
  1
DWGPROPS COOKIE
  2

  3

  4

  6

  7

  8
CX_in_command
  9

300
=
301
=
302
=
303
=
304
=
305
=
306
=
307
=
308
=
309
=
 40
0.0
 41
2461083.079235405
 42
2461083.079487882
  1

 90
        0
  0
LAYOUT
  5
1E
102
{ACAD_REACTORS
330
1A
102
}
330
1A
100
AcDbPlotSettings
  1

  2
none_device
  4

  6

 40
0.0
 41
0.0
 42
0.0
 43
0.0
 44
0.0
 45
0.0
 46
0.0
 47
0.0
 48
0.0
 49
0.0
140
0.0
141
0.0
142
1.0
143
1.0
 70
   688
 72
     1
 73
     0
 74
     5
  7

 75
    16
147
1.0
148
0.0
149
0.0
100
AcDbLayout
  1
Layout1
 70
     1
 71
     1
 10
0.0
 20
0.0
 11
420.0
 21
297.0
 12
0.0
 22
0.0
 32
0.0
 14
1.0000000000E+20
 24
1.0000000000E+20
 34
1.0000000000E+20
 15
-1.0000000000E+20
 25
-1.0000000000E+20
 35
-1.0000000000E+20
146
0.0
 13
0.0
 23
0.0
 33
0.0
 16
1.0
 26
0.0
 36
0.0
 17
0.0
 27
1.0
 37
0.0
 76
     0
330
1B
  0
LAYOUT
  5
26
102
{ACAD_REACTORS
330
1A
102
}
330
1A
100
AcDbPlotSettings
  1

  2
none_device
  4

  6

 40
0.0
 41
0.0
 42
0.0
 43
0.0
 44
0.0
 45
0.0
 46
0.0
 47
0.0
 48
0.0
 49
0.0
140
0.0
141
0.0
142
1.0
143
1.0
 70
   688
 72
     1
 73
     0
 74
     5
  7

 75
    16
147
1.0
148
0.0
149
0.0
100
AcDbLayout
  1
Layout2
 70
     1
 71
     2
 10
0.0
 20
0.0
 11
0.0
 21
0.0
 12
0.0
 22
0.0
 32
0.0
 14
0.0
 24
0.0
 34
0.0
 15
0.0
 25
0.0
 35
0.0
146
0.0
 13
0.0
 23
0.0
 33
0.0
 16
1.0
 26
0.0
 36
0.0
 17
0.0
 27
1.0
 37
0.0
 76
     0
330
23
  0
LAYOUT
  5
22
102
{ACAD_REACTORS
330
1A
102
}
330
1A
100
AcDbPlotSettings
  1

  2
none_device
  4
ANSI_A_(11.00_x_8.50_Inches)
  6

 40
6.35
 41
19.05
 42
6.35000508
 43
19.05000254
 44
279.4
 45
215.9
 46
266.6988601466
 47
90.1164225113
 48
0.0
 49
0.0
140
0.0
141
0.0
142
0.0325074627
143
1.0
 70
  1696
 72
     0
 73
     0
 74
     0
  7

 75
     0
147
0.0179189148
148
-1300.4909072572
149
0.0
100
AcDbLayout
  1
Model
 70
     1
 71
     0
 10
0.0
 20
0.0
 11
420.0
 21
297.0
 12
0.0
 22
0.0
 32
0.0
 14
-329.0
 24
-10.0
 34
0.0
 15
6.0
 25
7.0535565625
 35
0.0
146
0.0
 13
0.0
 23
0.0
 33
0.0
 16
1.0
 26
0.0
 36
0.0
 17
0.0
 27
1.0
 37
0.0
 76
     0
330
1F
331
29
  0
MLINESTYLE
  5
18
102
{ACAD_REACTORS
330
17
102
}
330
17
100
AcDbMlineStyle
  2
Standard
 70
     0
  3

 62
   256
 51
90.0
 52
90.0
 71
     2
 49
0.5
 62
   256
  6
BYLAYER
 49
-0.5
 62
   256
  6
BYLAYER
  0
ACDBPLACEHOLDER
  5
F
102
{ACAD_REACTORS
330
E
102
}
330
E
  0
SCALE
  5
48
102
{ACAD_REACTORS
330
47
102
}
330
47
100
AcDbScale
 70
     0
300
1:1
140
1.0
141
1.0
290
     1
  0
SCALE
  5
49
102
{ACAD_REACTORS
330
47
102
}
330
47
100
AcDbScale
 70
     0
300
1:2
140
1.0
141
2.0
290
     0
  0
SCALE
  5
4A
102
{ACAD_REACTORS
330
47
102
}
330
47
100
AcDbScale
 70
     0
300
1:4
140
1.0
141
4.0
290
     0
  0
SCALE
  5
4B
102
{ACAD_REACTORS
330
47
102
}
330
47
100
AcDbScale
 70
     0
300
1:5
140
1.0
141
5.0
290
     0
  0
SCALE
  5
4C
102
{ACAD_REACTORS
330
47
102
}
330
47
100
AcDbScale
 70
     0
300
1:8
140
1.0
141
8.0
290
     0
  0
SCALE
  5
4D
102
{ACAD_REACTORS
330
47
102
}
330
47
100
AcDbScale
 70
     0
300
1:10
140
1.0
141
10.0
290
     0
  0
SCALE
  5
4E
102
{ACAD_REACTORS
330
47
102
}
330
47
100
AcDbScale
 70
     0
300
1:16
140
1.0
141
16.0
290
     0
  0
SCALE
  5
4F
102
{ACAD_REACTORS
330
47
102
}
330
47
100
AcDbScale
 70
     0
300
1:20
140
1.0
141
20.0
290
     0
  0
SCALE
  5
50
102
{ACAD_REACTORS
330
47
102
}
330
47
100
AcDbScale
 70
     0
300
1:30
140
1.0
141
30.0
290
     0
  0
SCALE
  5
51
102
{ACAD_REACTORS
330
47
102
}
330
47
100
AcDbScale
 70
     0
300
1:40
140
1.0
141
40.0
290
     0
  0
SCALE
  5
52
102
{ACAD_REACTORS
330
47
102
}
330
47
100
AcDbScale
 70
     0
300
1:50
140
1.0
141
50.0
290
     0
  0
SCALE
  5
53
102
{ACAD_REACTORS
330
47
102
}
330
47
100
AcDbScale
 70
     0
300
1:100
140
1.0
141
100.0
290
     0
  0
SCALE
  5
54
102
{ACAD_REACTORS
330
47
102
}
330
47
100
AcDbScale
 70
     0
300
2:1
140
2.0
141
1.0
290
     0
  0
SCALE
  5
55
102
{ACAD_REACTORS
330
47
102
}
330
47
100
AcDbScale
 70
     0
300
4:1
140
4.0
141
1.0
290
     0
  0
SCALE
  5
56
102
{ACAD_REACTORS
330
47
102
}
330
47
100
AcDbScale
 70
     0
300
8:1
140
8.0
141
1.0
290
     0
  0
SCALE
  5
57
102
{ACAD_REACTORS
330
47
102
}
330
47
100
AcDbScale
 70
     0
300
10:1
140
10.0
141
1.0
290
     0
  0
SCALE
  5
58
102
{ACAD_REACTORS
330
47
102
}
330
47
100
AcDbScale
 70
     0
300
100:1
140
100.0
141
1.0
290
     0
  0
ENDSEC
  0
EOF
